<svg width="48" height="43" viewBox="0 0 48 43" fill="none" xmlns="http://www.w3.org/2000/svg">
<g clip-path="url(#clip0)">
<path opacity="0.5" d="M26.6907 42.3971C37.8831 41.1573 46.3761 34.9147 45.6604 28.454C44.9447 21.9933 35.2913 17.7609 24.0989 19.0007C12.9065 20.2406 4.4135 26.4831 5.12919 32.9439C5.84488 39.4046 15.4983 43.637 26.6907 42.3971Z" fill="#173D7A"/>
<path d="M47.3459 18.1384L46.6259 11.6684L45.4059 11.8084C44.0959 10.0384 42.0759 8.46842 39.3059 7.24842C29.7259 3.04842 15.1359 4.66842 6.70588 10.8584C4.26588 12.6484 2.63588 14.6284 1.74588 16.6484L0.525879 16.7884L1.23588 23.2284C1.59588 26.6484 4.22588 29.8184 9.03588 31.9284C18.6159 36.1284 33.2059 34.5084 41.6359 28.3184C45.8459 25.1984 47.7259 21.5484 47.3459 18.1384Z" fill="#833DB8"/>
<path d="M25.0491 27.527C37.7784 26.1169 47.4376 19.0154 46.6234 11.6654C45.8092 4.31546 34.83 -0.499761 22.1006 0.910343C9.37125 2.32045 -0.287898 9.4219 0.526302 16.7719C1.3405 24.1219 12.3197 28.9371 25.0491 27.527Z" fill="#B461F2"/>
<path d="M40.9159 21.8284C32.4859 28.0284 17.8959 29.6384 8.3159 25.4384C3.7259 23.4284 1.1459 20.4384 0.605896 17.1984C0.805896 20.7684 3.4259 24.0984 8.4159 26.2884C17.9959 30.4884 32.5859 28.8684 41.0159 22.6784C45.4059 19.4484 47.2259 15.6284 46.6459 12.0984C46.8259 15.3784 44.9559 18.8584 40.9159 21.8284Z" fill="white"/>
<path d="M12.9559 19.8584C12.5459 19.6784 12.2859 19.3984 12.2559 19.0784L11.3159 10.4084C11.2459 9.74843 12.1159 9.10843 13.2659 8.97843C14.4159 8.84843 15.3959 9.28843 15.4659 9.94843L16.2459 17.1384L36.8259 12.2684C37.9359 12.0084 39.0759 12.2984 39.3859 12.9184C39.6959 13.5384 39.0459 14.2584 37.9459 14.5184L14.8859 19.9684C14.2859 20.1084 13.6359 20.0984 13.1159 19.9184C13.0659 19.9084 13.0059 19.8784 12.9559 19.8584Z" fill="white"/>
</g>
<defs>
<clipPath id="clip0">
<rect width="46.92" height="41.94" fill="white" transform="translate(0.475891 0.668427)"/>
</clipPath>
</defs>
</svg>
