<svg width="82" height="105" viewBox="0 0 82 105" fill="none" xmlns="http://www.w3.org/2000/svg">
<g clip-path="url(#clip0)">
<path d="M75.9002 58.5923L35.5581 39.9775C34.7612 39.6086 33.9926 39.6587 33.3626 40.0176L33.3708 39.9968L28.9965 42.5656C28.9965 42.5656 30.7639 43.0066 31.8025 43.2731L28.8264 71.682C28.5858 73.9935 29.8428 76.5397 31.6349 77.3599L70.1949 95.1535L69.8471 98.489L74.2603 95.9065L74.2395 95.8984C74.9907 95.4381 75.5307 94.5352 75.6578 93.2884L78.6997 64.2811C78.9493 61.9587 77.6932 59.4225 75.9002 58.5923Z" fill="#8D46C1"/>
<path d="M67.5249 98.5707L27.1828 79.956C25.3897 79.1258 24.1336 76.5896 24.3742 74.2781L27.4161 45.2707C27.6567 42.9592 29.3039 41.7543 31.0969 42.5845L71.439 61.1992C73.232 62.0295 74.4881 64.5656 74.2475 66.8771L71.2056 95.8845C70.975 98.1951 69.3179 99.401 67.5249 98.5707Z" fill="#B461F2"/>
<path d="M72.2934 60.7697L31.9413 42.1559C30.9977 41.7199 30.1069 41.8616 29.4237 42.4061C29.9333 42.2691 30.5091 42.3069 31.0959 42.5746L71.438 61.1893C73.2311 62.0195 74.4881 64.5657 74.2466 66.8672L71.2046 95.8746C71.0839 96.9701 70.6488 97.8132 70.0316 98.3115C71.0808 98.0348 71.8806 97.0077 72.0401 95.4568L75.0929 66.4585C75.3434 64.1461 74.0864 61.5999 72.2934 60.7697Z" fill="white"/>
<path d="M42.5971 68.6458C42.4196 70.3289 41.0566 71.1263 39.5569 70.43C38.0573 69.7336 36.9781 67.8139 37.1556 66.1307C37.3331 64.4476 38.6962 63.6502 40.1958 64.3465C41.6954 65.0429 42.7747 66.9626 42.5971 68.6458Z" fill="white"/>
<path d="M50.8378 72.4514C50.6603 74.1345 49.2972 74.9319 47.7976 74.2356C46.298 73.5392 45.2187 71.6195 45.3962 69.9363C45.5738 68.2532 46.9368 67.4558 48.4365 68.1522C49.946 68.8476 51.0153 70.7682 50.8378 72.4514Z" fill="white"/>
<path d="M59.0884 76.2561C58.9109 77.9393 57.5478 78.7367 56.0482 78.0403C54.5486 77.3439 53.4693 75.4242 53.6469 73.741C53.8244 72.0579 55.1874 71.2605 56.6871 71.9569C58.1867 72.6532 59.2659 74.573 59.0884 76.2561Z" fill="white"/>
<path d="M55.4274 24.3438L15.0753 5.72998C14.2784 5.361 13.5197 5.41026 12.8898 5.7691L12.8979 5.74827L8.52271 8.3072C8.52271 8.3072 10.2902 8.74813 11.3288 9.01469L8.35261 37.4236C8.11204 39.7351 9.36905 42.2812 11.1612 43.1015L49.7211 60.8951L49.3733 64.2306L53.7865 61.6481L53.7657 61.64C54.5169 61.1797 55.057 60.2767 55.184 59.03L58.226 30.0226C58.4774 27.7202 57.2204 25.174 55.4274 24.3438Z" fill="#5793CE"/>
<path d="M47.052 64.3223L6.70991 45.7075C4.91689 44.8773 3.66079 42.3411 3.90136 40.0296L6.94331 11.0222C7.18388 8.71075 8.83103 7.5058 10.624 8.33602L50.9662 26.9508C52.7592 27.781 54.0153 30.3172 53.7747 32.6287L50.7328 61.636C50.4922 63.9475 48.845 65.1525 47.052 64.3223Z" fill="#D4ECFF"/>
<path d="M51.8115 26.5321L11.4694 7.91733C10.5258 7.48142 9.635 7.6231 8.95173 8.16757C9.46138 8.0306 10.0372 8.06834 10.624 8.33603L50.9661 26.9508C52.7591 27.781 54.0161 30.3271 53.7747 32.6287L50.7327 61.636C50.6219 62.7307 50.1769 63.5747 49.5597 64.073C50.6089 63.7963 51.4087 62.7692 51.5682 61.2183L54.6101 32.2109C54.8606 29.8985 53.6036 27.3523 51.8115 26.5321Z" fill="white"/>
<path d="M22.1143 34.3982C21.9368 36.0814 20.5737 36.8788 19.0741 36.1824C17.5745 35.486 16.4952 33.5663 16.6727 31.8832C16.8502 30.2 18.2133 29.4026 19.7129 30.099C21.2126 30.7954 22.2927 32.725 22.1143 34.3982Z" fill="white"/>
<path d="M30.3649 38.203C30.1874 39.8861 28.8243 40.6835 27.3247 39.9871C25.8251 39.2908 24.7458 37.371 24.9233 35.6879C25.1009 34.0047 26.4639 33.2073 27.9635 33.9037C29.4632 34.6001 30.5433 36.5298 30.3649 38.203Z" fill="white"/>
<path d="M38.6056 42.0086C38.4281 43.6917 37.065 44.4891 35.5654 43.7927C34.0657 43.0964 32.9865 41.1766 33.164 39.4935C33.3415 37.8103 34.7046 37.0129 36.2042 37.7093C37.7038 38.4057 38.784 40.3354 38.6056 42.0086Z" fill="white"/>
</g>
<defs>
<clipPath id="clip0">
<rect width="72.51" height="97.96" fill="white" transform="translate(0.742126 6.67874) rotate(-5.22315)"/>
</clipPath>
</defs>
</svg>
