<svg width="350" height="360" viewBox="0 0 350 360" fill="none" xmlns="http://www.w3.org/2000/svg">
<g clip-path="url(#clip0)">
<path opacity="0.5" d="M178.431 348.443L27.7968 272.506C23.5381 270.353 23.8215 266.171 28.4275 263.145L124.494 200.18C129.1 197.155 136.292 196.456 140.55 198.598L291.185 274.535C295.444 276.687 295.16 280.87 290.554 283.896L194.488 346.86C189.892 349.885 182.7 350.584 178.431 348.443Z" fill="#173D7A"/>
<path d="M329.697 92.7609L167.814 11.1623C165.937 10.2171 164.071 10.1527 162.466 10.8148L162.474 10.7942L162.191 10.9205C162.172 10.9316 162.142 10.9433 162.123 10.9544L156.585 13.4422L161.808 15.6398C161.793 15.7308 161.768 15.8223 161.754 15.9233L141.207 143.452C140.259 149.346 143.2 155.99 147.778 158.294L305.764 237.93L305.583 244.441L311.637 241.693C313.659 240.607 315.201 238.306 315.712 235.132L336.259 107.603C337.227 101.719 334.286 95.0746 329.697 92.7609Z" fill="#173D7A"/>
<path d="M329.697 92.7609L167.814 11.1623C165.937 10.2171 164.071 10.1528 162.466 10.8148L162.474 10.7942L162.191 10.9205C162.172 10.9316 162.142 10.9433 162.123 10.9544L156.585 13.4422L161.808 15.6398C161.793 15.7308 161.768 15.8223 161.754 15.9233L147.664 103.332L227.752 158.733L335.005 98.7398C333.813 96.0931 331.956 93.9048 329.697 92.7609Z" fill="#396CAA"/>
<path d="M324.801 110.968L336.444 105.209C336.401 100.574 334.213 95.9101 330.933 93.5321L312.494 102.551L324.801 110.968Z" fill="#274F89"/>
<path d="M300.117 244.13L138.233 162.532C133.655 160.227 130.713 153.573 131.662 147.69L152.209 20.1609C153.156 14.2678 157.639 11.3691 162.217 13.6734L324.101 95.2721C328.679 97.5764 331.62 104.23 330.672 110.114L310.125 237.643C309.178 243.546 304.695 246.444 300.117 244.13Z" fill="#D4ECFF"/>
<path d="M325.578 94.6474L163.694 13.0487C161.477 11.9326 159.291 12.0566 157.509 13.1293C158.968 12.726 160.588 12.8544 162.218 13.6834L324.101 95.282C328.679 97.5864 331.621 104.24 330.673 110.124L310.126 237.653C309.637 240.685 308.2 242.91 306.302 244.05C308.915 243.32 310.985 240.799 311.592 237.019L332.139 109.489C333.097 103.606 330.156 96.9517 325.578 94.6474Z" fill="white"/>
<path d="M296.232 235.687L143.981 158.98C139.794 156.864 137.096 150.787 137.962 145.399L156.903 27.8673C157.769 22.4796 161.875 19.8227 166.062 21.9389L318.312 98.6454C322.499 100.762 325.198 106.838 324.332 112.226L305.39 229.748C304.524 235.136 300.418 237.793 296.232 235.687Z" fill="white"/>
<path d="M296.232 235.687L143.981 158.98C139.794 156.864 137.096 150.787 137.962 145.399L156.903 27.8673C157.769 22.4796 161.875 19.8227 166.062 21.9389L318.312 98.6454C322.499 100.762 325.198 106.838 324.332 112.226L305.39 229.748C304.524 235.136 300.418 237.793 296.232 235.687Z" fill="#223D69"/>
<path d="M297.49 235.084L145.239 158.378C141.052 156.262 138.354 150.185 139.22 144.797L158.161 27.2651C158.597 24.536 159.875 22.5204 161.557 21.4533C159.255 22.185 157.452 24.4908 156.902 27.8574L137.972 145.399C137.106 150.787 139.795 156.874 143.991 158.98L296.242 235.686C298.314 236.73 300.361 236.604 302.004 235.559C300.617 235.999 299.057 235.877 297.49 235.084Z" fill="#5793CE"/>
<path d="M302.507 247.951L280.921 246.341L138.082 174.339C133.504 172.035 125.774 172.794 120.82 176.04L26.028 238.161L12.9719 237.189L13.389 244.537L13.399 244.536C13.4154 246.238 14.4668 247.821 16.632 248.91L178.515 330.509C183.093 332.813 190.823 332.054 195.777 328.808L299.019 261.15C301.8 259.319 303.116 257.101 302.922 255.089L302.517 247.95L302.507 247.951Z" fill="#173D7A"/>
<path d="M195.72 203.39L185.574 198.277L77.5383 204.408L26.018 238.161L12.962 237.189L13.379 244.538L13.389 244.537C13.4054 246.239 14.4568 247.822 16.622 248.911L178.505 330.51C180.929 331.734 184.224 332.088 187.526 331.68L195.72 203.39Z" fill="#396CAA"/>
<path d="M18.7657 237.621L12.9719 237.189L13.3889 244.537L13.3989 244.536C13.4154 246.238 14.4668 247.821 16.632 248.91L19.4882 250.351L18.7657 237.621Z" fill="#5793CE"/>
<path d="M180.135 331.158C184.429 332.517 190.419 331.827 194.78 329.416L193.849 313.022L179.153 313.856L180.135 331.158Z" fill="#274F89"/>
<path d="M178.099 323.171L16.2149 241.562C11.637 239.258 11.9423 234.753 16.8863 231.508L120.129 163.849C125.083 160.604 132.812 159.844 137.39 162.149L299.274 243.747C303.851 246.052 303.546 250.556 298.602 253.802L195.36 321.46C190.406 324.716 182.677 325.475 178.099 323.171Z" fill="#D4ECFF"/>
<path d="M298.44 251.126L195.198 318.785C190.244 322.031 182.515 322.79 177.937 320.486L16.0625 238.876C14.5573 238.121 13.5992 237.123 13.1358 236.018C12.5659 238.153 13.5652 240.23 16.2149 241.562L178.098 323.161C182.676 325.465 190.406 324.706 195.36 321.46L298.602 253.802C301.934 251.619 303.15 248.876 302.21 246.606C301.778 248.163 300.526 249.756 298.44 251.126Z" fill="white"/>
<path d="M81.1779 207.827L73.857 204.136C73.2692 203.839 73.3068 203.266 73.9442 202.849L82.0365 197.542C82.6739 197.125 83.66 197.029 84.2578 197.326L91.5787 201.017C92.1665 201.314 92.1289 201.887 91.4915 202.304L83.3986 207.601C82.7612 208.018 81.7651 208.114 81.1779 207.827Z" fill="#5793CE"/>
<path d="M92.4889 213.525L85.168 209.834C84.5802 209.537 84.6178 208.964 85.2552 208.547L93.3475 203.24C93.9849 202.823 94.9711 202.727 95.5688 203.024L102.89 206.715C103.478 207.012 103.44 207.585 102.803 208.002L94.7102 213.309C94.0728 213.726 93.0767 213.823 92.4889 213.525Z" fill="#5793CE"/>
<path d="M103.8 219.224L96.479 215.532C95.8913 215.235 95.9288 214.662 96.5663 214.245L104.659 208.938C105.296 208.522 106.282 208.426 106.88 208.722L114.201 212.413C114.789 212.711 114.751 213.284 114.114 213.7L106.021 219.007C105.384 219.424 104.388 219.521 103.8 219.224Z" fill="#5793CE"/>
<path d="M118.659 213.142L111.338 209.451C110.751 209.154 110.788 208.581 111.426 208.164L118.224 203.711C118.862 203.295 119.848 203.199 120.446 203.495L127.766 207.186C128.354 207.483 128.317 208.057 127.679 208.473L120.881 212.926C120.233 213.343 119.247 213.439 118.659 213.142Z" fill="#5793CE"/>
<path d="M129.971 218.85L122.65 215.159C122.062 214.862 122.1 214.289 122.737 213.872L129.536 209.42C130.173 209.003 131.159 208.907 131.757 209.203L139.078 212.895C139.666 213.192 139.628 213.765 138.991 214.182L132.192 218.634C131.544 219.041 130.558 219.137 129.971 218.85Z" fill="#5793CE"/>
<path d="M141.282 224.548L133.961 220.857C133.373 220.56 133.411 219.987 134.048 219.57L140.847 215.118C141.484 214.701 142.47 214.605 143.068 214.902L150.389 218.593C150.977 218.89 150.939 219.463 150.302 219.88L143.503 224.332C142.856 224.75 141.87 224.846 141.282 224.548Z" fill="#5793CE"/>
<path d="M152.593 230.247L145.272 226.556C144.684 226.258 144.722 225.685 145.359 225.269L152.158 220.816C152.795 220.399 153.781 220.303 154.379 220.6L161.7 224.291C162.288 224.588 162.25 225.161 161.613 225.578L154.814 230.03C154.167 230.448 153.181 230.544 152.593 230.247Z" fill="#5793CE"/>
<path d="M163.904 235.955L156.584 232.264C155.996 231.967 156.033 231.394 156.671 230.977L163.469 226.524C164.107 226.108 165.093 226.012 165.691 226.308L173.012 229.999C173.599 230.296 173.562 230.87 172.924 231.286L166.126 235.739C165.478 236.146 164.492 236.252 163.904 235.955Z" fill="#5793CE"/>
<path d="M175.216 241.653L167.895 237.962C167.307 237.665 167.344 237.092 167.982 236.675L174.781 232.223C175.418 231.806 176.404 231.71 177.002 232.006L184.323 235.698C184.911 235.995 184.873 236.568 184.236 236.985L177.437 241.437C176.79 241.854 175.803 241.95 175.216 241.653Z" fill="#5793CE"/>
<path d="M186.527 247.351L179.206 243.66C178.618 243.363 178.656 242.79 179.293 242.373L186.092 237.921C186.729 237.504 187.715 237.408 188.313 237.705L195.634 241.396C196.222 241.693 196.184 242.266 195.547 242.683L188.748 247.135C188.101 247.553 187.114 247.649 186.527 247.351Z" fill="#5793CE"/>
<path d="M197.838 253.06L190.517 249.369C189.93 249.071 189.967 248.498 190.605 248.082L197.403 243.629C198.041 243.212 199.027 243.116 199.624 243.413L206.945 247.104C207.533 247.401 207.496 247.974 206.858 248.391L200.06 252.843C199.412 253.261 198.426 253.357 197.838 253.06Z" fill="#5793CE"/>
<path d="M209.149 258.758L201.828 255.067C201.241 254.77 201.278 254.197 201.916 253.78L208.714 249.327C209.352 248.911 210.338 248.815 210.936 249.111L218.256 252.802C218.844 253.1 218.807 253.673 218.169 254.089L211.371 258.542C210.723 258.959 209.737 259.055 209.149 258.758Z" fill="#5793CE"/>
<path d="M220.46 264.456L213.139 260.765C212.552 260.468 212.589 259.895 213.227 259.478L220.025 255.026C220.663 254.609 221.649 254.513 222.247 254.809L229.567 258.501C230.155 258.798 230.118 259.371 229.48 259.788L222.682 264.24C222.034 264.657 221.048 264.753 220.46 264.456Z" fill="#5793CE"/>
<path d="M134.623 209.231L127.302 205.54C126.715 205.243 126.752 204.67 127.39 204.253L134.188 199.801C134.826 199.384 135.812 199.288 136.41 199.584L143.73 203.275C144.318 203.573 144.281 204.146 143.643 204.563L136.845 209.015C136.207 209.432 135.211 209.528 134.623 209.231Z" fill="#5793CE"/>
<path d="M123.147 203.452L115.827 199.761C115.239 199.464 115.276 198.891 115.914 198.474L122.712 194.022C123.35 193.605 124.336 193.509 124.934 193.805L132.255 197.496C132.842 197.794 132.805 198.367 132.167 198.783L125.369 203.236C124.721 203.643 123.735 203.739 123.147 203.452Z" fill="#5793CE"/>
<path d="M111.64 197.655L95.8647 189.706C95.2769 189.409 95.3145 188.836 95.9519 188.419L102.751 183.966C103.388 183.55 104.374 183.454 104.972 183.75L120.748 191.699C121.335 191.996 121.298 192.569 120.66 192.986L113.862 197.438C113.224 197.845 112.228 197.952 111.64 197.655Z" fill="#5793CE"/>
<path d="M118.984 189.395L106.178 182.941C105.59 182.643 105.628 182.07 106.265 181.654L113.064 177.201C113.701 176.784 114.687 176.688 115.285 176.985L128.091 183.44C128.679 183.737 128.642 184.31 128.004 184.727L121.206 189.179C120.558 189.586 119.572 189.693 118.984 189.395Z" fill="#5793CE"/>
<path d="M145.935 214.939L138.614 211.248C138.026 210.951 138.064 210.378 138.701 209.961L145.5 205.509C146.137 205.092 147.123 204.996 147.721 205.293L155.042 208.984C155.63 209.281 155.592 209.854 154.955 210.271L148.156 214.723C147.519 215.14 146.523 215.236 145.935 214.939Z" fill="#5793CE"/>
<path d="M157.246 220.638L149.925 216.946C149.337 216.649 149.375 216.076 150.012 215.659L156.811 211.207C157.448 210.79 158.434 210.694 159.032 210.991L166.353 214.682C166.941 214.979 166.903 215.552 166.266 215.969L159.467 220.421C158.83 220.838 157.834 220.935 157.246 220.638Z" fill="#5793CE"/>
<path d="M168.557 226.336L161.236 222.645C160.648 222.348 160.686 221.775 161.323 221.358L168.122 216.905C168.759 216.489 169.745 216.393 170.343 216.689L177.664 220.38C178.252 220.677 178.214 221.25 177.577 221.667L170.778 226.12C170.141 226.536 169.145 226.633 168.557 226.336Z" fill="#5793CE"/>
<path d="M179.869 232.044L172.548 228.353C171.96 228.056 171.998 227.483 172.635 227.066L179.434 222.614C180.071 222.197 181.057 222.101 181.655 222.397L188.976 226.088C189.564 226.386 189.526 226.959 188.889 227.376L182.09 231.828C181.453 232.245 180.456 232.341 179.869 232.044Z" fill="#5793CE"/>
<path d="M191.18 237.742L183.859 234.051C183.271 233.754 183.309 233.181 183.946 232.764L190.745 228.312C191.382 227.895 192.368 227.799 192.966 228.096L200.287 231.787C200.875 232.084 200.837 232.657 200.2 233.074L193.401 237.526C192.764 237.943 191.767 238.04 191.18 237.742Z" fill="#5793CE"/>
<path d="M202.491 243.451L195.17 239.759C194.583 239.462 194.62 238.889 195.258 238.472L202.056 234.02C202.694 233.603 203.68 233.507 204.278 233.804L211.598 237.495C212.186 237.792 212.149 238.365 211.511 238.782L204.713 243.234C204.075 243.641 203.078 243.738 202.491 243.451Z" fill="#5793CE"/>
<path d="M213.802 249.149L206.481 245.458C205.894 245.161 205.931 244.588 206.569 244.171L213.367 239.718C214.005 239.302 214.991 239.206 215.589 239.502L222.909 243.193C223.497 243.49 223.46 244.063 222.822 244.48L216.024 248.933C215.386 249.349 214.39 249.446 213.802 249.149Z" fill="#5793CE"/>
<path d="M225.113 254.847L217.792 251.156C217.205 250.859 217.242 250.286 217.88 249.869L224.678 245.417C225.316 245 226.302 244.904 226.9 245.2L234.22 248.892C234.808 249.189 234.771 249.762 234.133 250.179L227.335 254.631C226.697 255.048 225.701 255.144 225.113 254.847Z" fill="#5793CE"/>
<path d="M236.425 260.555L229.104 256.864C228.516 256.567 228.554 255.994 229.191 255.577L235.99 251.125C236.627 250.708 237.613 250.612 238.211 250.909L245.532 254.6C246.12 254.897 246.082 255.47 245.445 255.887L238.646 260.339C238.008 260.746 237.013 260.853 236.425 260.555Z" fill="#5793CE"/>
<path d="M256.532 270.692L240.549 262.635C239.962 262.338 239.999 261.765 240.637 261.348L247.435 256.896C248.073 256.479 249.059 256.383 249.657 256.679L265.639 264.737C266.227 265.034 266.189 265.607 265.552 266.024L258.753 270.476C258.115 270.883 257.119 270.98 256.532 270.692Z" fill="#5793CE"/>
<path d="M277.158 257.162L263.671 250.365C263.084 250.068 263.121 249.495 263.759 249.078L270.557 244.626C271.195 244.209 272.181 244.113 272.778 244.41L286.265 251.206C286.853 251.504 286.815 252.077 286.178 252.493L279.379 256.946C278.742 257.363 277.746 257.459 277.158 257.162Z" fill="#5793CE"/>
<path d="M165.044 212.613L157.723 208.922C157.135 208.625 157.173 208.052 157.81 207.635L164.609 203.182C165.246 202.766 166.232 202.67 166.83 202.966L174.151 206.657C174.739 206.954 174.701 207.527 174.064 207.944L167.265 212.397C166.628 212.813 165.632 212.91 165.044 212.613Z" fill="#5793CE"/>
<path d="M153.454 206.77L146.133 203.079C145.545 202.782 145.583 202.209 146.22 201.792L153.019 197.34C153.656 196.923 154.643 196.827 155.24 197.123L162.561 200.815C163.149 201.112 163.111 201.685 162.474 202.102L155.675 206.554C155.027 206.961 154.042 207.067 153.454 206.77Z" fill="#5793CE"/>
<path d="M141.854 200.928L134.534 197.237C133.946 196.94 133.983 196.367 134.621 195.95L141.419 191.498C142.057 191.081 143.043 190.985 143.641 191.281L150.962 194.972C151.549 195.27 151.512 195.843 150.874 196.259L144.076 200.712C143.438 201.119 142.442 201.215 141.854 200.928Z" fill="#5793CE"/>
<path d="M130.264 195.075L122.943 191.384C122.355 191.087 122.393 190.514 123.03 190.097L129.829 185.645C130.467 185.228 131.453 185.132 132.05 185.429L139.371 189.12C139.959 189.417 139.922 189.99 139.284 190.407L132.485 194.859C131.848 195.276 130.852 195.372 130.264 195.075Z" fill="#5793CE"/>
<path d="M176.355 218.311L169.034 214.62C168.446 214.323 168.484 213.75 169.121 213.333L175.92 208.881C176.557 208.464 177.543 208.368 178.141 208.664L185.462 212.356C186.05 212.653 186.012 213.226 185.375 213.643L178.576 218.095C177.939 218.512 176.943 218.608 176.355 218.311Z" fill="#5793CE"/>
<path d="M187.666 224.019L180.345 220.328C179.758 220.031 179.795 219.458 180.433 219.041L187.231 214.589C187.869 214.172 188.855 214.076 189.453 214.373L196.774 218.064C197.361 218.361 197.324 218.934 196.686 219.351L189.888 223.803C189.25 224.21 188.254 224.307 187.666 224.019Z" fill="#5793CE"/>
<path d="M198.977 229.718L191.657 226.027C191.069 225.729 191.106 225.156 191.744 224.739L198.542 220.287C199.18 219.87 200.166 219.774 200.764 220.071L208.085 223.762C208.672 224.059 208.635 224.632 207.997 225.049L201.199 229.501C200.561 229.918 199.565 230.015 198.977 229.718Z" fill="#5793CE"/>
<path d="M210.288 235.416L202.968 231.725C202.38 231.428 202.417 230.855 203.055 230.438L209.853 225.985C210.491 225.569 211.477 225.473 212.075 225.769L219.396 229.46C219.983 229.757 219.946 230.331 219.308 230.747L212.51 235.2C211.872 235.616 210.876 235.713 210.288 235.416Z" fill="#5793CE"/>
<path d="M221.6 241.124L214.279 237.433C213.691 237.136 213.729 236.563 214.366 236.146L221.165 231.694C221.802 231.277 222.789 231.181 223.386 231.477L230.707 235.169C231.295 235.466 231.257 236.039 230.62 236.456L223.821 240.908C223.183 241.315 222.188 241.421 221.6 241.124Z" fill="#5793CE"/>
<path d="M232.911 246.822L225.59 243.131C225.002 242.834 225.04 242.261 225.677 241.844L232.476 237.392C233.114 236.975 234.1 236.879 234.697 237.176L242.018 240.867C242.606 241.164 242.569 241.737 241.931 242.154L235.132 246.606C234.495 247.023 233.499 247.12 232.911 246.822Z" fill="#5793CE"/>
<path d="M244.222 252.521L236.901 248.83C236.313 248.532 236.351 247.959 236.988 247.543L243.787 243.09C244.425 242.673 245.411 242.577 246.008 242.874L253.329 246.565C253.917 246.862 253.88 247.435 253.242 247.852L246.443 252.304C245.806 252.721 244.81 252.818 244.222 252.521Z" fill="#5793CE"/>
<path d="M255.534 258.229L248.213 254.538C247.625 254.241 247.663 253.668 248.3 253.251L255.099 248.798C255.736 248.382 256.722 248.286 257.32 248.582L264.641 252.273C265.229 252.57 265.191 253.144 264.554 253.56L257.755 258.013C257.117 258.42 256.122 258.526 255.534 258.229Z" fill="#5793CE"/>
<path d="M266.845 263.927L259.524 260.236C258.936 259.939 258.974 259.366 259.611 258.949L266.41 254.497C267.047 254.08 268.033 253.984 268.631 254.28L275.952 257.972C276.54 258.269 276.502 258.842 275.865 259.259L269.066 263.711C268.429 264.128 267.433 264.224 266.845 263.927Z" fill="#5793CE"/>
<path d="M158.385 197.296L151.064 193.604C150.476 193.307 150.514 192.734 151.151 192.317L157.95 187.865C158.588 187.448 159.574 187.352 160.171 187.649L167.492 191.34C168.08 191.637 168.043 192.21 167.405 192.627L160.606 197.079C159.969 197.496 158.973 197.593 158.385 197.296Z" fill="#5793CE"/>
<path d="M147.136 191.624L139.815 187.933C139.227 187.636 139.265 187.062 139.902 186.646L146.701 182.193C147.338 181.777 148.324 181.681 148.922 181.977L156.243 185.668C156.831 185.965 156.793 186.538 156.156 186.955L149.357 191.408C148.71 191.825 147.724 191.921 147.136 191.624Z" fill="#5793CE"/>
<path d="M135.876 185.953L128.555 182.262C127.968 181.964 128.005 181.391 128.643 180.975L135.441 176.522C136.079 176.105 137.065 176.009 137.663 176.306L144.983 179.997C145.571 180.294 145.534 180.867 144.896 181.284L138.098 185.736C137.46 186.153 136.464 186.25 135.876 185.953Z" fill="#5793CE"/>
<path d="M124.627 180.281L117.306 176.59C116.718 176.293 116.756 175.72 117.393 175.303L124.192 170.85C124.829 170.434 125.815 170.338 126.413 170.634L133.734 174.325C134.322 174.623 134.284 175.196 133.647 175.612L126.848 180.065C126.2 180.472 125.215 180.578 124.627 180.281Z" fill="#5793CE"/>
<path d="M135.462 173.176L128.141 169.485C127.553 169.187 127.591 168.614 128.228 168.198L130.478 166.728C131.116 166.311 132.102 166.215 132.7 166.511L140.021 170.203C140.608 170.5 140.571 171.073 139.933 171.49L137.683 172.959C137.045 173.366 136.049 173.463 135.462 173.176Z" fill="#5793CE"/>
<path d="M150.155 180.575L142.834 176.884C142.246 176.587 142.283 176.014 142.921 175.597L145.171 174.127C145.809 173.71 146.795 173.614 147.393 173.911L154.713 177.602C155.301 177.899 155.264 178.472 154.626 178.889L152.376 180.359C151.728 180.776 150.742 180.872 150.155 180.575Z" fill="#5793CE"/>
<path d="M161.363 186.229L154.042 182.538C153.454 182.241 153.492 181.668 154.129 181.251L156.38 179.781C157.017 179.364 158.003 179.268 158.601 179.565L165.922 183.256C166.51 183.553 166.472 184.126 165.835 184.543L163.584 186.013C162.936 186.42 161.95 186.516 161.363 186.229Z" fill="#5793CE"/>
<path d="M172.571 191.873L165.25 188.182C164.662 187.885 164.7 187.312 165.337 186.895L167.587 185.425C168.225 185.008 169.211 184.912 169.809 185.209L177.13 188.9C177.717 189.197 177.68 189.77 177.042 190.187L174.792 191.657C174.145 192.074 173.159 192.17 172.571 191.873Z" fill="#5793CE"/>
<path d="M183.779 197.527L176.458 193.836C175.87 193.539 175.908 192.966 176.545 192.549L178.796 191.079C179.433 190.662 180.419 190.566 181.017 190.863L188.338 194.554C188.926 194.851 188.888 195.424 188.251 195.841L186 197.311C185.353 197.728 184.367 197.824 183.779 197.527Z" fill="#5793CE"/>
<path d="M246.346 229.063L239.026 225.371C238.438 225.074 238.475 224.501 239.113 224.084L241.363 222.615C242.001 222.198 242.987 222.102 243.584 222.398L250.905 226.09C251.493 226.387 251.456 226.96 250.818 227.377L248.568 228.846C247.93 229.263 246.934 229.36 246.346 229.063Z" fill="#5793CE"/>
<path d="M257.555 234.717L250.234 231.025C249.646 230.728 249.684 230.155 250.321 229.738L252.571 228.269C253.209 227.852 254.195 227.756 254.793 228.052L262.114 231.744C262.701 232.041 262.664 232.614 262.026 233.031L259.776 234.5C259.139 234.917 258.143 235.014 257.555 234.717Z" fill="#5793CE"/>
<path d="M268.763 240.371L261.442 236.679C260.855 236.382 260.892 235.809 261.53 235.392L263.78 233.923C264.417 233.506 265.403 233.41 266.001 233.706L273.322 237.398C273.91 237.695 273.872 238.268 273.235 238.685L270.985 240.154C270.347 240.561 269.351 240.668 268.763 240.371Z" fill="#5793CE"/>
<path d="M279.971 246.015L272.65 242.324C272.062 242.026 272.1 241.453 272.737 241.037L274.988 239.567C275.625 239.15 276.611 239.054 277.209 239.35L284.53 243.042C285.118 243.339 285.08 243.912 284.443 244.329L282.192 245.798C281.555 246.215 280.559 246.312 279.971 246.015Z" fill="#5793CE"/>
<path d="M169.697 203.004L162.376 199.313C161.788 199.015 161.826 198.442 162.463 198.026L169.262 193.573C169.899 193.156 170.885 193.06 171.483 193.357L178.804 197.048C179.392 197.345 179.354 197.918 178.717 198.335L171.918 202.788C171.28 203.194 170.284 203.291 169.697 203.004Z" fill="#5793CE"/>
<path d="M181.008 208.702L173.687 205.011C173.099 204.714 173.137 204.141 173.774 203.724L180.573 199.272C181.21 198.855 182.196 198.759 182.794 199.055L190.115 202.746C190.703 203.044 190.665 203.617 190.028 204.033L183.229 208.486C182.592 208.903 181.596 208.999 181.008 208.702Z" fill="#5793CE"/>
<path d="M192.319 214.4L184.998 210.709C184.41 210.412 184.448 209.839 185.085 209.422L191.884 204.97C192.521 204.553 193.507 204.457 194.105 204.754L201.426 208.445C202.014 208.742 201.976 209.315 201.339 209.732L194.54 214.184C193.903 214.601 192.907 214.697 192.319 214.4Z" fill="#5793CE"/>
<path d="M203.63 220.109L196.31 216.417C195.722 216.12 195.759 215.547 196.397 215.13L203.195 210.678C203.833 210.261 204.819 210.165 205.417 210.462L212.738 214.153C213.325 214.45 213.288 215.023 212.65 215.44L205.852 219.892C205.214 220.299 204.218 220.406 203.63 220.109Z" fill="#5793CE"/>
<path d="M214.941 225.807L207.621 222.116C207.033 221.819 207.07 221.245 207.708 220.829L214.506 216.376C215.144 215.96 216.13 215.863 216.728 216.16L224.049 219.851C224.636 220.148 224.599 220.721 223.961 221.138L217.163 225.591C216.525 226.007 215.529 226.104 214.941 225.807Z" fill="#5793CE"/>
<path d="M226.253 231.505L218.932 227.814C218.344 227.517 218.381 226.944 219.019 226.527L225.817 222.075C226.455 221.658 227.441 221.562 228.039 221.858L235.36 225.549C235.947 225.847 235.91 226.42 235.272 226.836L228.474 231.289C227.836 231.706 226.84 231.802 226.253 231.505Z" fill="#5793CE"/>
<path d="M237.564 237.213L230.243 233.522C229.655 233.225 229.693 232.652 230.33 232.235L237.129 227.783C237.767 227.366 238.753 227.27 239.35 227.567L246.671 231.258C247.259 231.555 247.222 232.128 246.584 232.545L239.785 236.997C239.148 237.414 238.152 237.51 237.564 237.213Z" fill="#5793CE"/>
<path d="M248.875 242.912L241.554 239.22C240.967 238.923 241.004 238.35 241.642 237.933L248.44 233.481C249.078 233.064 250.064 232.968 250.661 233.265L257.982 236.956C258.57 237.253 258.533 237.826 257.895 238.243L251.097 242.695C250.459 243.112 249.463 243.209 248.875 242.912Z" fill="#5793CE"/>
<path d="M260.186 248.61L252.865 244.919C252.278 244.622 252.315 244.048 252.953 243.632L259.751 239.179C260.389 238.763 261.375 238.667 261.973 238.963L269.293 242.654C269.881 242.951 269.844 243.524 269.206 243.941L262.408 248.394C261.77 248.81 260.784 248.906 260.186 248.61Z" fill="#5793CE"/>
<path d="M107.132 207.336L85.5609 196.46C84.9731 196.163 85.0107 195.59 85.6481 195.173L92.4467 190.721C93.0842 190.304 94.0703 190.208 94.6681 190.505L116.239 201.38C116.827 201.677 116.789 202.25 116.152 202.667L109.353 207.12C108.706 207.537 107.72 207.633 107.132 207.336Z" fill="#5793CE"/>
<path d="M246.094 277.385L224.523 266.509C223.935 266.212 223.973 265.639 224.61 265.222L231.409 260.77C232.046 260.353 233.033 260.257 233.63 260.554L255.201 271.429C255.789 271.726 255.751 272.299 255.114 272.716L248.315 277.168C247.668 277.586 246.682 277.682 246.094 277.385Z" fill="#5793CE"/>
<path d="M201.652 268.548L194.331 264.857C193.743 264.56 193.781 263.987 194.418 263.57L202.511 258.263C203.148 257.847 204.134 257.75 204.732 258.047L212.053 261.738C212.641 262.035 212.603 262.608 211.966 263.025L203.873 268.332C203.226 268.75 202.24 268.846 201.652 268.548Z" fill="#5793CE"/>
<path d="M119.504 227.137L107.79 221.231C107.202 220.934 107.24 220.361 107.877 219.944L115.97 214.637C116.607 214.22 117.593 214.124 118.191 214.42L129.904 220.326C130.492 220.623 130.455 221.196 129.817 221.613L121.725 226.92C121.087 227.337 120.091 227.434 119.504 227.137Z" fill="#5793CE"/>
<path d="M190.753 263.057L179.04 257.151C178.452 256.854 178.49 256.281 179.127 255.864L187.219 250.557C187.857 250.141 188.843 250.045 189.441 250.341L201.154 256.247C201.742 256.544 201.704 257.117 201.067 257.534L192.975 262.841C192.327 263.248 191.341 263.354 190.753 263.057Z" fill="#5793CE"/>
<path d="M135.826 235.365L124.113 229.459C123.525 229.162 123.562 228.589 124.2 228.172L132.292 222.865C132.929 222.448 133.916 222.352 134.513 222.649L146.227 228.555C146.815 228.852 146.777 229.425 146.14 229.842L138.047 235.149C137.4 235.566 136.414 235.662 135.826 235.365Z" fill="#5793CE"/>
<path d="M134.585 222.685L185.512 248.361C186.141 248.675 186.174 249.254 185.585 249.638L177.338 255.044C176.749 255.428 175.75 255.485 175.121 255.17L124.195 229.495L134.585 222.685Z" fill="#5793CE"/>
<path d="M232.903 278.273L241.059 282.388C241.544 282.631 241.511 283.103 240.989 283.444L237.677 285.615C237.155 285.955 236.339 286.041 235.864 285.798L227.708 281.683C227.223 281.44 227.257 280.968 227.778 280.628L231.091 278.456C231.612 278.116 232.429 278.03 232.903 278.273Z" fill="#5793CE"/>
<path d="M221.499 272.53L229.656 276.645C230.14 276.888 230.107 277.36 229.585 277.7L226.273 279.872C225.752 280.212 224.935 280.298 224.461 280.055L216.304 275.94C215.82 275.697 215.853 275.225 216.375 274.884L219.687 272.713C220.208 272.363 221.025 272.287 221.499 272.53Z" fill="#5793CE"/>
<path d="M210.188 266.822L218.344 270.937C218.829 271.179 218.795 271.652 218.274 271.992L214.961 274.163C214.44 274.503 213.623 274.59 213.149 274.346L204.993 270.232C204.508 269.989 204.541 269.516 205.063 269.176L208.375 267.005C208.897 266.665 209.713 266.579 210.188 266.822Z" fill="#5793CE"/>
<path d="M227.351 268.693L235.508 272.807C235.992 273.05 235.959 273.523 235.437 273.863L232.125 276.034C231.603 276.374 230.787 276.46 230.312 276.217L222.156 272.102C221.672 271.859 221.705 271.387 222.227 271.047L225.539 268.876C226.06 268.525 226.867 268.45 227.351 268.693Z" fill="#5793CE"/>
<path d="M263.619 142.845L202.681 112.139L203.222 108.262L264.16 138.969L263.619 142.845Z" fill="#D4ECFF"/>
<path d="M242.851 150.525L200.317 129.08L200.859 125.203L243.391 146.638L242.851 150.525Z" fill="#D4ECFF"/>
<path d="M238.299 139.154L201.499 120.609L202.041 116.733L238.84 135.277L238.299 139.154Z" fill="white"/>
<path d="M262.427 151.317L244.032 142.044L244.573 138.167L262.968 147.44L262.427 151.317Z" fill="#F16A51"/>
<path d="M194.502 79.0291L176.107 69.7565L176.648 65.8796L195.043 75.1522L194.502 79.0291Z" fill="#D4ECFF"/>
<path d="M193.081 88.0541L174.676 78.7821L175.217 74.9052L193.622 84.1773L193.081 88.0541Z" fill="white"/>
<path d="M287.527 206.723L269.132 197.451L269.673 193.564L288.068 202.847L287.527 206.723Z" fill="#D4ECFF"/>
<path d="M190.219 106.095L171.824 96.8227L172.365 92.9458L190.76 102.218L190.219 106.095Z" fill="#D4ECFF"/>
<path d="M228.864 106.677C228.365 107.947 226.962 108.467 225.715 107.847C224.478 107.226 223.87 105.688 224.369 104.418C224.867 103.147 226.27 102.627 227.517 103.247C228.765 103.868 229.363 105.406 228.864 106.677Z" fill="#F16A51"/>
<path d="M236.793 110.674C236.294 111.944 234.891 112.464 233.644 111.844C232.407 111.223 231.799 109.685 232.298 108.415C232.797 107.144 234.199 106.624 235.447 107.245C236.684 107.865 237.292 109.403 236.793 110.674Z" fill="white"/>
<path d="M244.712 114.661C244.213 115.932 242.81 116.452 241.563 115.832C240.326 115.211 239.718 113.673 240.217 112.403C240.715 111.132 242.118 110.612 243.365 111.232C244.613 111.863 245.211 113.391 244.712 114.661Z" fill="#D4ECFF"/>
<path d="M252.641 118.659C252.142 119.929 250.739 120.449 249.492 119.829C248.255 119.208 247.647 117.67 248.146 116.4C248.645 115.129 250.047 114.609 251.294 115.229C252.532 115.85 253.14 117.388 252.641 118.659Z" fill="#F16A51"/>
<path d="M50.831 295.574C50.831 295.574 46.9799 293.9 44.8428 296.835C42.7063 299.781 39.7978 306.597 39.9424 311.086C40.097 315.574 43.7241 315.068 45.8406 313.886C47.947 312.705 53.765 303.15 54.0518 301.321C54.3292 299.502 53.3623 297.113 52.726 296.669C52.0804 296.234 50.831 295.574 50.831 295.574Z" fill="#C361F0"/>
<path d="M51.5986 294.629L51.9882 298.493C52.0752 299.32 51.7 300.122 51.0044 300.572C50.3764 300.979 49.4344 301.323 48.1446 301.185C45.3036 300.896 44.9981 300.102 44.5786 296.239C44.1585 292.367 51.5986 294.629 51.5986 294.629Z" fill="#D4ECFF"/>
<path d="M36.6998 288.894C36.6998 288.894 32.8488 287.22 30.7117 290.155C28.5752 293.101 25.6667 299.917 25.8112 304.406C25.9658 308.894 29.593 308.388 31.7094 307.206C33.8158 306.025 39.6338 296.47 39.9206 294.641C40.2074 292.812 39.2311 290.433 38.5949 289.988C37.9492 289.554 36.6998 288.894 36.6998 288.894Z" fill="#C361F0"/>
<path d="M37.4675 287.949L37.857 291.813C37.944 292.64 37.5689 293.442 36.8733 293.892C36.2453 294.299 35.3032 294.642 34.0134 294.505C31.1724 294.216 30.867 293.422 30.4474 289.559C30.0273 285.687 37.4675 287.949 37.4675 287.949Z" fill="#D4ECFF"/>
<path d="M66.8327 214.848C64.7012 196.88 47.4548 218.612 47.4548 218.612L35.556 231.677L24.912 244.791C22.8338 247.353 21.9918 250.696 22.6064 253.936L29.1833 288.64C29.511 290.354 31.0605 291.538 32.7972 291.429C33.2864 291.402 33.8526 291.319 34.4859 291.183C38.5431 290.312 38.0226 286.435 38.0226 286.435L35.3283 253.785L58.3446 238.066C58.344 238.056 68.9636 232.806 66.8327 214.848Z" fill="#173D7A"/>
<path d="M80.9204 220.939C78.7889 202.971 61.5426 224.703 61.5426 224.703L49.6438 237.769L38.9997 250.883C36.9215 253.445 36.0796 256.788 36.6942 260.028L43.2711 294.731C43.5987 296.445 45.1483 297.629 46.8849 297.521C47.3742 297.493 47.9404 297.411 48.5737 297.275C52.6309 296.404 52.1104 292.527 52.1104 292.527L49.4893 260.814L72.4324 244.158C72.4418 244.147 83.0514 238.897 80.9204 220.939Z" fill="#173D7A"/>
<path d="M66.7433 163.681C81.0295 168.679 81.218 176.942 81.218 176.942C81.218 176.942 80.1998 207.358 82.2845 227.503C83.1532 235.927 37.9229 239.145 43.3926 216.218C49.8421 189.199 45.6359 167.853 49.1857 164.397C52.7267 160.96 63.0442 162.388 66.7433 163.681Z" fill="#C361F0"/>
<path d="M71.6514 170.744C71.0835 173.621 67.4545 175.329 63.544 174.549C59.6341 173.78 56.932 170.818 57.4999 167.941C58.0678 165.064 61.6969 163.356 65.6073 164.136C69.5178 164.915 72.2194 167.867 71.6514 170.744Z" fill="#FFC2B0"/>
<path d="M65.9857 175.392C65.147 175.44 64.2822 175.379 63.4211 175.207C61.3949 174.802 59.5976 173.842 58.359 172.49C57.0671 171.081 56.532 169.418 56.8518 167.818C57.1717 166.217 58.2978 164.881 60.0247 164.072C61.6834 163.297 63.7145 163.081 65.7407 163.487C67.767 163.893 69.5643 164.853 70.8029 166.205C72.0948 167.614 72.6298 169.276 72.31 170.877C71.9902 172.478 70.8641 173.813 69.1371 174.623C68.1808 175.068 67.1139 175.328 65.9857 175.392ZM63.2415 164.631C62.2831 164.685 61.3842 164.906 60.5836 165.272C59.247 165.899 58.3917 166.889 58.1585 168.074C57.9247 169.249 58.3461 170.497 59.3392 171.583C60.3856 172.725 61.9248 173.55 63.6769 173.891C65.4296 174.242 67.1623 174.064 68.5671 173.403C69.9038 172.776 70.759 171.786 70.9923 170.601C71.2261 169.426 70.8047 168.178 69.8116 167.092C68.7651 165.95 67.226 165.126 65.4738 164.784C64.7248 164.647 63.9703 164.589 63.2415 164.631Z" fill="white"/>
<path d="M61.1067 163.37C61.1067 163.37 61.2582 163.922 61.2696 168.358C61.2685 169.751 66.2143 170.772 67.4009 169.443C68.5874 168.113 68.014 166.834 68.045 162.084C68.0759 157.335 61.1067 163.37 61.1067 163.37Z" fill="#FFC2B0"/>
<path d="M68.0555 162.094C68.0555 162.094 67.1068 166.555 61.2915 168.567L61.1547 164.569L68.0555 162.094Z" fill="#EA9C92"/>
<path d="M71.1666 150.729C72.9806 156.396 69.8587 162.452 64.1924 164.266C58.5261 166.08 52.4695 162.958 50.6555 157.292C48.8415 151.626 51.9634 145.569 57.6297 143.755C63.296 141.941 69.3526 145.063 71.1666 150.729Z" fill="#FFC2B0"/>
<path d="M63.4045 154.265C63.4045 154.265 57.6279 157.137 53.5362 157.399C49.4445 157.661 50.1481 154.176 50.1481 154.176L62.2088 151.728L63.4045 154.265Z" fill="#EA9C92"/>
<path d="M52.1999 155.562C52.1999 155.562 57.2276 153.083 61.8018 153.735C62.872 153.884 63.8927 154.397 64.6298 155.207C64.8653 155.474 65.169 155.707 65.4925 155.759C66.3014 155.893 67.4306 152.494 68.9835 152.325C70.5365 152.157 71.6377 153.207 70.4759 155.326C69.3141 157.445 69.8732 159.707 70.481 160.003C71.0887 160.299 78.0786 154.804 71.9593 144.224C65.8394 133.634 51.1743 140.666 49.123 142.996C49.123 142.996 46.95 145.122 44.9822 143.451C44.9921 143.451 43.7928 159.204 52.1999 155.562Z" fill="#D4ECFF"/>
<path d="M74.6456 199.5L75.1097 207.677C75.1629 208.616 74.814 209.527 74.1614 210.205L58.2376 226.473L60.31 229.281L82.5915 212.792C83.5873 211.984 84.1905 210.788 84.2483 209.512L84.9646 194.247L74.6456 199.5Z" fill="#FFC2B0"/>
<path d="M79.8082 172.925C79.8082 172.925 85.3351 180.304 88.3766 200.364C88.3766 200.364 79.8304 203.673 74.7977 202.356C69.775 201.039 79.8082 172.925 79.8082 172.925Z" fill="#C361F0"/>
<path d="M72.7805 183.05C72.7805 183.05 71.3894 193.836 71.5646 198.864C71.6128 200.243 72.5223 201.444 73.8468 201.839L72.7805 183.05Z" fill="#B250DE"/>
<path d="M71.4301 236.382L67.6883 236.103L42.9416 223.626C42.1479 223.23 40.8129 223.356 39.9532 223.915L23.5269 234.683L21.2635 234.511L21.3905 236.748C21.3969 237.038 21.5731 237.318 21.9544 237.507L50.0003 251.641C50.794 252.036 52.129 251.91 52.9887 251.351L70.8732 239.629C71.356 239.311 71.5846 238.927 71.5448 238.579L71.4201 236.382L71.4301 236.382Z" fill="#5793CE"/>
<path d="M52.9328 228.658L51.17 227.776L32.4601 228.838L23.5369 234.683L21.2735 234.511L21.4005 236.747C21.4069 237.037 21.5831 237.318 21.9644 237.506L50.0103 251.64C50.4326 251.846 50.9974 251.915 51.5742 251.842L52.9328 228.658Z" fill="#396CAA"/>
<path d="M22.2793 234.584L21.2736 234.511L21.4005 236.747C21.4069 237.037 21.5831 237.318 21.9644 237.506L22.4595 237.759L22.2793 234.584Z" fill="#5793CE"/>
<path d="M50.2872 251.755C51.0319 251.993 52.0668 251.874 52.824 251.45L52.6082 247.646L50.0623 247.791L50.2872 251.755Z" fill="#5793CE"/>
<path d="M49.8839 249.414L21.838 235.28C21.0443 234.884 21.1 234.1 21.9597 233.54L39.8442 221.818C40.7039 221.259 42.0383 221.123 42.8326 221.528L70.8785 235.662C71.6722 236.058 71.6165 236.842 70.7568 237.402L52.8717 249.114C52.0126 249.683 50.6776 249.809 49.8839 249.414Z" fill="white"/>
<path d="M49.2898 247.064L25.9662 235.306C25.3062 234.973 25.3499 234.33 26.0643 233.858L35.6522 227.725C36.3666 227.254 37.4826 227.151 38.1425 227.484L61.4662 239.241C62.1261 239.574 62.0825 240.218 61.368 240.689L51.7702 246.823C51.0552 247.284 49.9498 247.397 49.2898 247.064Z" fill="#D4ECFF"/>
<path d="M40.8625 221.23L40.6895 223.122C40.5405 224.733 40.6728 226.359 41.0818 227.918L41.5048 229.547C41.7472 230.464 42.5274 231.151 43.4655 231.268C44.2017 231.357 44.8617 230.808 44.8996 230.065L45.1217 226.036C45.1217 226.036 46.2265 227.325 46.7157 227.298C47.2149 227.269 45.9389 223.315 44.682 221.113C43.4446 218.899 40.8625 221.23 40.8625 221.23Z" fill="#FFC2B0"/>
<path d="M48.3781 190.935L45.7903 196.871C45.179 198.278 44.8541 199.789 44.8504 201.312L44.702 221.112L40.8631 221.24L37.8586 199.184C37.7696 198.498 37.761 197.818 37.8423 197.132L39.1917 185.787L48.3781 190.935Z" fill="#FFC2B0"/>
<path d="M49.051 250.973L46.6058 248.127L21.8773 235.618C21.083 235.213 20.3966 234.06 20.3388 233.041L19.246 213.432L17.7662 211.713L19.0216 210.89C19.2622 210.717 19.5916 210.698 19.9629 210.887L47.9911 225.062C48.7854 225.467 49.4718 226.62 49.5296 227.639L50.721 248.986C50.7539 249.565 50.5769 249.975 50.2765 250.153L49.051 250.973Z" fill="#173D7A"/>
<path d="M31.8496 240.671L30.0963 239.779L19.8406 224.085L19.246 213.432L17.7662 211.713L19.0216 210.89C19.2622 210.717 19.5916 210.698 19.9629 210.887L47.9911 225.062C48.4141 225.278 48.7984 225.697 49.0775 226.202L31.8496 240.671Z" fill="#396CAA"/>
<path d="M18.4106 212.478L17.7563 211.713L19.0117 210.891C19.2522 210.717 19.5817 210.698 19.953 210.888L20.4481 211.14L18.4106 212.478Z" fill="#5793CE"/>
<path d="M48.241 225.228C48.8678 225.683 49.3903 226.595 49.5089 227.45L46.9398 229.128L45.5467 226.993L48.241 225.228Z" fill="#274F89"/>
<path d="M46.7357 225.884L18.7075 211.71C17.9133 211.304 17.3215 211.818 17.3793 212.837L18.5707 234.183C18.6291 235.212 19.3155 236.365 20.1092 236.76L48.1374 250.935C48.9316 251.341 49.5234 250.826 49.4657 249.808L48.2742 228.461C48.2164 227.443 47.53 226.29 46.7357 225.884Z" fill="#5793CE"/>
<path d="M60.3094 229.271L59.9211 230.194C59.4808 231.261 58.7414 232.174 57.7975 232.839L55.1959 234.649C54.3867 235.216 53.3307 235.316 52.4437 234.865C52.4127 234.847 52.3816 234.829 52.3505 234.81C51.4613 234.32 51.3117 233.097 51.9792 232.327L54.6304 229.272C54.6304 229.272 53.1115 230.571 52.645 230.116C52.2951 229.775 54.063 227.922 55.4878 227.791C56.9121 227.65 58.2265 226.454 58.2265 226.454L60.3094 229.271Z" fill="#FFC2B0"/>
<path d="M49.4635 164.351C49.4635 164.351 39.7776 176.169 36.1896 186.719C36.1896 186.719 40.0848 192.878 48.8626 194.884C57.6503 196.889 49.4635 164.351 49.4635 164.351Z" fill="#C361F0"/>
<path d="M46.8883 194.335L47.6483 178.076L44.5642 193.445C45.2835 193.765 46.0615 194.061 46.8883 194.335Z" fill="#B250DE"/>
<path d="M57.0625 161.646L54.2439 161.045C54.2439 161.045 55.6902 163.056 57.6471 163.476C59.614 163.895 59.8206 162.241 59.8206 162.241L57.0625 161.646Z" fill="white"/>
<path d="M71.6365 156.362C71.6846 157.21 71.0354 157.948 70.1768 157.997C69.3281 158.045 68.5902 157.396 68.5414 156.537C68.4933 155.689 69.1425 154.951 70.0011 154.902C70.8603 154.863 71.5883 155.513 71.6365 156.362Z" fill="white"/>
<path d="M135.21 286.642L87.4186 262.551C86.0266 261.849 86.1192 260.482 87.6257 259.495L114.636 241.786C116.142 240.799 118.483 240.566 119.875 241.268L167.667 265.359C169.059 266.061 168.966 267.429 167.459 268.416L140.449 286.124C138.953 287.111 136.602 287.334 135.21 286.642Z" fill="white"/>
<path opacity="0.5" d="M187.143 306.401L118.214 271.661C116.667 270.878 116.544 268.711 117.993 267.767L179.372 227.535L252.705 264.499C254.251 265.283 254.374 267.449 252.925 268.393L195.67 305.927C193.12 307.585 189.865 307.769 187.143 306.401Z" fill="#173D7A"/>
<path d="M179.213 200.731C178.973 196.498 175.89 194.94 172.345 197.254L111.967 236.759C110.991 237.395 110.253 238.86 110.319 240.028C110.386 241.196 111.231 241.619 112.206 240.982L172.585 201.478C174.188 200.425 175.58 201.127 175.689 203.044L176.075 210.024C177.278 209.875 178.496 209.806 179.726 209.756L179.213 200.731Z" fill="#F16A51"/>
<path d="M112.889 253.534L174.017 227.248C177.571 224.923 180.263 219.582 180.033 215.348L179.726 209.756C178.496 209.806 177.278 209.875 176.075 210.024L176.498 217.662C176.606 219.569 175.391 221.982 173.788 223.034L112.659 249.32C111.684 249.956 110.946 251.42 111.012 252.589C111.068 253.747 111.914 254.18 112.889 253.534Z" fill="#C84128"/>
<path d="M111.536 253.701L189.967 293.32L252.078 251.334L256.748 243.436L256.371 246.162L254.593 239.182L135.523 250.506L114.42 250.342L111.536 253.701Z" fill="#C54E38"/>
<path d="M113.309 240.299L113.82 249.645L189.611 287.932L191.092 278.913L113.309 240.299Z" fill="#FAD0C8"/>
<path d="M255.381 236.122L177.084 196.565L110.989 240.19L110.905 241.176L189.316 280.787L255.381 236.122Z" fill="#F16A51"/>
<path d="M232.488 260.018L249.709 248.433C251.147 247.29 252.204 245.096 252.113 243.309L252.044 241.91C251.98 240.782 251.468 240.07 250.728 239.902L216.752 261.411L189.055 278.488L189.621 287.941L232.488 260.018Z" fill="white"/>
<path d="M191.66 279.202L113.857 239.897L112.207 239.059L110.702 238.293C110.433 238.859 110.278 239.469 110.309 240.018C110.341 240.587 110.564 240.985 110.894 241.157L110.905 241.166L110.915 241.166L189.315 280.777L191.66 279.202Z" fill="#E26750"/>
<path d="M188.988 292.835L189.967 293.32L190.119 293.011L189.504 292.585L188.988 292.835Z" fill="white"/>
<path d="M188.295 280.274L189.305 280.778L189.025 280.263L188.295 280.274Z" fill="white"/>
<path d="M190.378 276.38L250.756 236.875C254.31 234.55 257.393 236.108 257.624 240.342L257.693 241.74C257.933 245.973 255.232 251.315 251.678 253.64L191.299 293.145C190.323 293.781 189.478 293.358 189.412 292.19C189.346 291.022 190.084 289.558 191.059 288.921L251.438 249.417C253.041 248.364 254.257 245.962 254.148 244.045L254.079 242.646C253.97 240.739 252.578 240.037 250.975 241.08L190.596 280.584C189.621 281.221 188.775 280.798 188.709 279.63C188.664 278.48 189.402 277.016 190.378 276.38Z" fill="#F16A51"/>
<path d="M189.422 292.199C189.356 291.031 190.094 289.567 191.07 288.931L251.448 249.426C253.051 248.374 254.267 245.971 254.158 244.054L254.089 242.656C254.018 241.408 253.396 240.672 252.531 240.611C252.831 240.964 253.02 241.474 253.058 242.133L253.127 243.532C253.235 245.439 252.02 247.851 250.417 248.904L190.039 288.408C189.063 289.045 188.325 290.509 188.391 291.677C188.441 292.556 188.938 293.018 189.603 292.91C189.492 292.716 189.438 292.479 189.422 292.199Z" fill="white"/>
<path d="M188.73 279.648C188.664 278.48 189.402 277.016 190.378 276.38L250.756 236.875C252.282 235.877 253.728 235.595 254.89 235.94C253.613 234.97 251.743 235.026 249.725 236.353L189.346 275.857C188.371 276.494 187.633 277.958 187.699 279.126C187.749 280.005 188.246 280.467 188.911 280.359C188.81 280.165 188.746 279.928 188.73 279.648Z" fill="white"/>
<path d="M157.658 242.539L190.976 220.737L221.828 236.323L188.51 258.116L157.658 242.539Z" fill="white"/>
</g>
<defs>
<clipPath id="clip0">
<rect width="330.47" height="339.92" fill="white" transform="translate(0.617859 19.6794) rotate(-3.24817)"/>
</clipPath>
</defs>
</svg>
