<svg width="118" height="212" viewBox="0 0 118 212" fill="none" xmlns="http://www.w3.org/2000/svg">
<g clip-path="url(#clip0)">
<path opacity="0.5" d="M53.416 209.76L7.22458 182.094C5.53071 181.076 5.77832 179.36 7.76638 178.252L57.6397 150.44C59.6278 149.332 62.6193 149.26 64.3134 150.267L110.505 177.933C112.199 178.95 111.951 180.666 109.963 181.775L60.0896 209.587C58.0914 210.705 55.1098 210.777 53.416 209.76Z" fill="#173D7A"/>
<path d="M111.852 160.062L62.4612 130.475C60.5394 129.324 59.0178 126.299 59.0594 123.709L60.9765 4.42462C61.0181 1.83495 62.6069 0.680332 64.5286 1.83136L113.92 31.4189C115.841 32.5699 117.363 35.5947 117.321 38.1844L115.404 157.479C115.363 160.049 113.774 161.213 111.852 160.062Z" fill="url(#paint0_linear)"/>
<path d="M113.92 31.4088L64.5287 1.82136C63.6669 1.30744 62.8776 1.25475 62.2622 1.58491L4.82188 33.506L7.34197 43.4778L56.8601 192.103L114.068 160.318C114.078 160.318 114.088 160.308 114.099 160.298L114.199 160.24C114.917 159.801 115.382 158.839 115.404 157.459L117.322 38.1644C117.363 35.5847 115.841 32.5599 113.92 31.4088Z" fill="#396CAA"/>
<path d="M113.92 31.4088L64.5287 1.82136C63.6669 1.30744 62.8776 1.25475 62.2622 1.58491L4.82188 33.506L7.34197 43.4778L20.9569 84.3518L23.6217 85.9449L116.403 34.3491C115.783 33.079 114.9 31.9947 113.92 31.4088Z" fill="#D4ECFF"/>
<path d="M54.4522 191.954L5.06127 162.366C3.13952 161.215 1.61793 158.191 1.65938 155.611L3.5766 36.3164C3.61822 33.7267 5.20698 32.5721 7.12873 33.7231L56.5198 63.3006C58.4416 64.4516 59.9632 67.4765 59.9215 70.0661L58.0043 189.361C57.9629 191.94 56.3739 193.105 54.4522 191.954Z" fill="#5793CE"/>
<path d="M51.428 184.724L8.25805 158.857C6.57402 157.85 5.2463 155.209 5.28261 152.949L7.06324 42.1531C7.09955 39.8934 8.48609 38.8756 10.1701 39.8828L53.3402 65.7398C55.0142 66.7469 56.3519 69.3887 56.3156 71.6484L54.5352 182.434C54.4985 184.714 53.1122 185.722 51.428 184.724Z" fill="url(#paint1_linear)"/>
<path d="M51.428 184.724L8.25805 158.857C6.57402 157.85 5.2463 155.209 5.28261 152.949L7.06324 42.1531C7.09955 39.8934 8.48609 38.8756 10.1701 39.8828L53.3402 65.7398C55.0142 66.7469 56.3519 69.3887 56.3156 71.6484L54.5352 182.434C54.4985 184.714 53.1122 185.722 51.428 184.724Z" fill="url(#paint2_linear)"/>
<path d="M51.428 184.724L8.25805 158.857C6.57402 157.85 5.2463 155.209 5.28261 152.949L7.06324 42.1531C7.09955 39.8934 8.48609 38.8756 10.1701 39.8828L53.3402 65.7398C55.0142 66.7469 56.3519 69.3887 56.3156 71.6484L54.5352 182.434C54.4985 184.714 53.1122 185.722 51.428 184.724Z" fill="#173D7A"/>
<path d="M52.8713 183.908L9.69138 158.04C8.01719 157.043 6.67963 154.391 6.71595 152.132L8.49641 41.3461C8.50878 40.5762 8.67873 39.9588 8.96608 39.5034C7.86638 39.4757 7.09025 40.4734 7.0631 42.1631L5.28263 152.949C5.24632 155.209 6.57388 157.86 8.25807 158.857L51.4281 184.714C52.5377 185.372 53.5113 185.158 54.0654 184.287C53.6954 184.281 53.2874 184.154 52.8713 183.908Z" fill="#396CAA"/>
<path d="M52.2457 133.851L36.198 124.242L10.1216 138.745L54.8073 165.506L55.2209 139.77C55.2572 137.51 53.9297 134.858 52.2457 133.851Z" fill="#173D7A"/>
<path d="M52.6104 111.154L36.5627 101.545L10.4865 116.038L55.1722 142.799L55.5858 117.063C55.6222 114.803 54.2944 112.161 52.6104 111.154Z" fill="#173D7A"/>
<path d="M52.9753 88.4469L36.9276 78.8378L10.8512 93.3406L55.5369 120.102L55.9505 94.3655C55.9869 92.1057 54.6593 89.4541 52.9753 88.4469Z" fill="#173D7A"/>
<path d="M53.3401 65.7498L37.2925 56.1407L11.2162 70.6336L55.902 97.3951L56.3156 71.6584C56.3519 69.3987 55.0242 66.757 53.3401 65.7498Z" fill="#173D7A"/>
<path d="M53.3401 65.7498L17.8175 44.4663L11.5911 47.9266L56.2667 74.698L56.3155 71.6584C56.3518 69.3987 55.0241 66.757 53.3401 65.7498Z" fill="#173D7A"/>
<path d="M56.2667 74.698L11.5809 47.9365L11.3503 62.2846L56.0361 89.0461L56.2667 74.698Z" fill="#5793CE"/>
<path d="M55.9019 97.3951L11.2162 70.6336L10.9856 84.9817L55.6713 111.743L55.9019 97.3951Z" fill="#5793CE"/>
<path d="M55.5369 120.102L10.8512 93.3406L10.6206 107.689L55.3063 134.45L55.5369 120.102Z" fill="#5793CE"/>
<path d="M55.1722 142.799L10.4865 116.038L10.2559 130.386L54.9416 157.147L55.1722 142.799Z" fill="#5793CE"/>
<path d="M54.8073 165.506L10.1216 138.745L9.89099 153.093L54.5767 179.854L54.8073 165.506Z" fill="#5793CE"/>
<path d="M52.1388 83.8629L18.4883 63.7095C17.5373 63.1442 16.7813 61.6418 16.8019 60.362L16.8636 56.5225C16.8842 55.2426 17.6736 54.6653 18.6244 55.2406L52.2749 75.3939C53.226 75.9593 53.9819 77.4616 53.9614 78.7415L53.8997 82.581C53.8791 83.8608 53.0897 84.4382 52.1388 83.8629Z" fill="#173D7A"/>
<path opacity="0.3" d="M20.2199 62.9973C19.2689 62.4319 18.513 60.9296 18.5335 59.6497L18.5952 55.8102C18.5984 55.6102 18.6313 55.4308 18.6641 55.2613L18.6244 55.2406C17.6733 54.6753 16.8841 55.2427 16.8636 56.5225L16.8018 60.362C16.7813 61.6418 17.5374 63.1342 18.4883 63.7095L52.1388 83.8629C52.9411 84.3458 53.6167 84.0066 53.8208 83.1298L20.2199 62.9973Z" fill="#06033E"/>
<path d="M41.6495 73.1629L21.4017 61.036C21.0648 60.8406 20.8034 60.3063 20.8106 59.8563C20.8178 59.4064 21.0912 59.2008 21.4279 59.4062L41.6757 71.5331C42.0126 71.7286 42.274 72.2628 42.2668 72.7128C42.2595 73.1627 41.9862 73.3684 41.6495 73.1629Z" fill="white"/>
<path d="M51.7761 106.43L18.1258 86.2666C17.1747 85.7012 16.4188 84.1989 16.4394 82.9191L16.5011 79.0796C16.5216 77.7997 17.311 77.2223 18.2619 77.7977L51.9124 97.951C52.8634 98.5164 53.6194 100.019 53.5988 101.299L53.5371 105.138C53.5164 106.428 52.7272 106.995 51.7761 106.43Z" fill="#173D7A"/>
<path opacity="0.3" d="M19.8572 85.5643C18.9062 84.999 18.1502 83.4966 18.1708 82.2168L18.2325 78.3773C18.2357 78.1773 18.2686 77.9978 18.3013 77.8283L18.2618 77.7977C17.3108 77.2323 16.5216 77.7997 16.501 79.0796L16.4393 82.9191C16.4187 84.1989 17.1748 85.6913 18.1257 86.2666L51.7762 106.42C52.5786 106.903 53.2541 106.564 53.4582 105.687L19.8572 85.5643Z" fill="#06033E"/>
<path d="M41.2867 95.73L21.0389 83.6031C20.702 83.4076 20.4406 82.8734 20.4478 82.4234C20.455 81.9735 20.7284 81.7679 21.0651 81.9733L41.3129 94.1002C41.6498 94.2957 41.9112 94.8299 41.904 95.2799C41.8969 95.7198 41.6236 95.9254 41.2867 95.73Z" fill="white"/>
<path d="M51.4101 129.207L17.7596 109.054C16.8085 108.488 16.0526 106.986 16.0731 105.706L16.1348 101.867C16.1554 100.587 16.9448 100.009 17.8957 100.585L51.5462 120.738C52.4972 121.303 53.2532 122.806 53.2326 124.086L53.1709 127.925C53.1505 129.195 52.3611 129.772 51.4101 129.207Z" fill="#173D7A"/>
<path opacity="0.3" d="M19.4914 108.331C18.5404 107.766 17.7844 106.264 17.805 104.984L17.8667 101.144C17.8699 100.944 17.9028 100.765 17.9355 100.595L17.896 100.565C16.945 99.9994 16.1557 100.567 16.1352 101.847L16.0735 105.686C16.0529 106.966 16.809 108.458 17.7599 109.034L51.4104 129.187C52.2127 129.67 52.8883 129.331 53.0924 128.454L19.4914 108.331Z" fill="#06033E"/>
<path d="M40.9208 118.497L20.6731 106.37C20.3362 106.175 20.0747 105.64 20.082 105.19C20.0892 104.741 20.3625 104.535 20.6993 104.74L40.947 116.867C41.2839 117.063 41.5454 117.597 41.5381 118.047C41.5309 118.497 41.2576 118.703 40.9208 118.497Z" fill="#D4ECFF"/>
<path d="M51.0408 152.184L17.3903 132.031C16.4393 131.465 15.6833 129.963 15.7039 128.683L15.7656 124.844C15.7862 123.564 16.5755 122.986 17.5264 123.562L51.1769 143.715C52.1279 144.28 52.8839 145.783 52.8633 147.063L52.8016 150.902C52.7811 152.182 51.9918 152.749 51.0408 152.184Z" fill="#173D7A"/>
<path opacity="0.3" d="M19.1219 131.318C18.1709 130.753 17.4149 129.251 17.4355 127.971L17.4972 124.131C17.5004 123.931 17.5333 123.752 17.566 123.582L17.5264 123.562C16.5753 122.996 15.7861 123.564 15.7655 124.844L15.7038 128.683C15.6833 129.963 16.4394 131.455 17.3903 132.031L51.0407 152.184C51.8431 152.667 52.5186 152.328 52.7227 151.451L19.1219 131.318Z" fill="#06033E"/>
<path d="M40.5514 141.484L20.3037 129.357C19.9668 129.162 19.7053 128.627 19.7126 128.178C19.7198 127.728 19.9932 127.522 20.3299 127.727L40.5776 139.854C40.9145 140.05 41.176 140.584 41.1688 141.034C41.1615 141.484 40.8883 141.68 40.5514 141.484Z" fill="#F16A51"/>
<path d="M50.6787 174.711L17.0282 154.558C16.0772 153.992 15.3213 152.49 15.3418 151.21L15.4035 147.371C15.4241 146.091 16.2135 145.514 17.1644 146.089L50.8148 166.242C51.7659 166.808 52.5218 168.31 52.5013 169.59L52.4396 173.429C52.419 174.709 51.6298 175.276 50.6787 174.711Z" fill="#173D7A"/>
<path opacity="0.3" d="M18.7599 153.846C17.8088 153.28 17.0529 151.778 17.0734 150.498L17.1351 146.658C17.1384 146.459 17.1712 146.279 17.204 146.11L17.1643 146.089C16.2133 145.524 15.424 146.091 15.4035 147.371L15.3418 151.21C15.3212 152.49 16.0773 153.982 17.0282 154.558L50.6787 174.711C51.481 175.194 52.1566 174.855 52.3607 173.978L18.7599 153.846Z" fill="#06033E"/>
<path d="M40.1894 164.011L19.9416 151.884C19.6047 151.689 19.3433 151.155 19.3505 150.705C19.3578 150.255 19.6311 150.049 19.9678 150.254L40.2156 162.381C40.5525 162.577 40.8139 163.111 40.8067 163.561C40.7995 164.011 40.5263 164.207 40.1894 164.011Z" fill="#D4ECFF"/>
<path opacity="0.5" d="M11.5809 47.9365L15.1075 50.0434L14.8769 64.3916L11.3503 62.2846L11.5809 47.9365Z" fill="#173D7A"/>
<path opacity="0.5" d="M11.2161 70.6336L14.7427 72.7405L14.5121 87.0886L10.9855 84.9817L11.2161 70.6336Z" fill="#173D7A"/>
<path opacity="0.5" d="M10.8512 93.3406L14.3778 95.4476L14.1472 109.796L10.6206 107.689L10.8512 93.3406Z" fill="#173D7A"/>
<path opacity="0.5" d="M10.4865 116.038L14.013 118.145L13.7825 132.493L10.2559 130.386L10.4865 116.038Z" fill="#173D7A"/>
<path opacity="0.5" d="M10.1215 138.745L13.6481 140.852L13.4175 155.2L9.89087 153.093L10.1215 138.745Z" fill="#173D7A"/>
<path d="M45.656 74.6475C45.6486 75.1074 45.3258 75.2823 44.9294 75.0559C44.5331 74.8195 44.2222 74.2544 44.2295 73.7945C44.2369 73.3345 44.5598 73.1597 44.9562 73.3861C45.3525 73.6225 45.6634 74.1876 45.656 74.6475Z" fill="#D4ECFF"/>
<path d="M48.6774 76.4563C48.67 76.9162 48.3471 77.0911 47.9507 76.8647C47.5545 76.6283 47.2435 76.0632 47.2509 75.6032C47.2583 75.1433 47.5811 74.9685 47.9776 75.1949C48.3738 75.4313 48.6848 75.9963 48.6774 76.4563Z" fill="#F16A51"/>
<path d="M51.6987 78.2651C51.6914 78.725 51.3685 78.8998 50.9721 78.6734C50.5758 78.437 50.2649 77.872 50.2723 77.412C50.2797 76.9521 50.6025 76.7772 50.9989 77.0036C51.3852 77.2399 51.7061 77.8051 51.6987 78.2651Z" fill="#D4ECFF"/>
<path d="M45.2914 97.3346C45.284 97.7945 44.9612 97.9693 44.5647 97.7429C44.1685 97.5065 43.8575 96.9415 43.8649 96.4815C43.8723 96.0216 44.1952 95.8468 44.5916 96.0732C44.9877 96.3196 45.2988 96.8746 45.2914 97.3346Z" fill="#F16A51"/>
<path d="M48.3128 99.1433C48.3054 99.6033 47.9825 99.7781 47.5861 99.5517C47.1899 99.3153 46.8789 98.7503 46.8863 98.2903C46.8937 97.8304 47.2165 97.6555 47.6129 97.8819C48.009 98.1283 48.3202 98.6834 48.3128 99.1433Z" fill="#D4ECFF"/>
<path d="M51.3341 100.952C51.3267 101.412 51.0039 101.587 50.6075 101.361C50.2112 101.124 49.9003 100.559 49.9076 100.099C49.915 99.6392 50.2379 99.4643 50.6343 99.6907C51.0204 99.937 51.3415 100.492 51.3341 100.952Z" fill="white"/>
<path d="M44.924 120.202C44.9166 120.662 44.5937 120.836 44.1973 120.61C43.8011 120.374 43.4901 119.809 43.4975 119.349C43.5049 118.889 43.8277 118.714 44.2241 118.94C44.6204 119.177 44.9314 119.742 44.924 120.202Z" fill="white"/>
<path d="M47.9453 122.01C47.9379 122.47 47.6151 122.645 47.2187 122.419C46.8224 122.182 46.5115 121.617 46.5188 121.157C46.5262 120.697 46.8491 120.523 47.2455 120.749C47.6418 120.985 47.9527 121.55 47.9453 122.01Z" fill="#F16A51"/>
<path d="M50.9666 123.819C50.9592 124.279 50.6363 124.454 50.2399 124.228C49.8437 123.991 49.5327 123.426 49.5401 122.966C49.5475 122.506 49.8703 122.331 50.2667 122.558C50.653 122.794 50.974 123.359 50.9666 123.819Z" fill="white"/>
<path d="M44.5619 142.729C44.5545 143.189 44.2317 143.363 43.8352 143.137C43.439 142.901 43.128 142.336 43.1354 141.876C43.1428 141.416 43.4657 141.241 43.8621 141.467C44.2583 141.704 44.5693 142.269 44.5619 142.729Z" fill="white"/>
<path d="M47.5833 144.537C47.5759 144.997 47.253 145.172 46.8566 144.946C46.4604 144.709 46.1494 144.144 46.1568 143.684C46.1642 143.225 46.487 143.05 46.8834 143.276C47.2797 143.512 47.5907 144.078 47.5833 144.537Z" fill="#D4ECFF"/>
<path d="M50.6045 146.346C50.5971 146.806 50.2743 146.981 49.8779 146.755C49.4816 146.518 49.1706 145.953 49.178 145.493C49.1854 145.033 49.5083 144.858 49.9047 145.085C50.2909 145.321 50.6119 145.886 50.6045 146.346Z" fill="#D4ECFF"/>
<path d="M44.1948 165.566C44.1874 166.026 43.8646 166.201 43.4682 165.974C43.0719 165.738 42.761 165.173 42.7684 164.713C42.7758 164.253 43.0986 164.078 43.495 164.304C43.8913 164.541 44.2022 165.106 44.1948 165.566Z" fill="white"/>
<path d="M47.2162 167.375C47.2088 167.834 46.886 168.009 46.4895 167.783C46.0933 167.547 45.7823 166.981 45.7897 166.522C45.7971 166.062 46.12 165.887 46.5164 166.113C46.9126 166.35 47.2236 166.915 47.2162 167.375Z" fill="#F16A51"/>
<path d="M50.2376 169.183C50.2302 169.643 49.9073 169.818 49.5109 169.592C49.1147 169.355 48.8037 168.79 48.8111 168.33C48.8185 167.87 49.1413 167.696 49.5377 167.922C49.924 168.158 50.245 168.723 50.2376 169.183Z" fill="#D4ECFF"/>
<path d="M65.7299 176.003L67.3624 74.4263L67.5743 74.3097L110.423 50.4851L108.79 152.062L108.578 152.179L65.7299 176.003ZM68.1946 74.9197L66.5933 174.557L107.958 151.559L109.559 51.9214L68.1946 74.9197Z" fill="#173D7A"/>
<path d="M98.6598 96.002L79.4456 106.685C78.1539 107.404 77.1267 106.597 77.1541 104.898L77.3236 94.3489C77.3511 92.6391 78.4228 90.6761 79.7143 89.9668L98.9285 79.2841C100.22 78.5648 101.247 79.3714 101.22 81.0712L101.05 91.6298C101.013 93.3194 99.9515 95.2826 98.6598 96.002Z" fill="#173D7A"/>
<path d="M99.3917 79.0816C99.4969 79.3833 99.5513 79.7342 99.5447 80.1441L99.375 90.7028C99.3475 92.4126 98.2758 94.3756 96.9843 95.0849L77.7701 105.768C77.6087 105.855 77.4576 105.923 77.307 105.96C77.632 106.895 78.4567 107.229 79.4356 106.684L98.6497 96.0018C99.9415 95.2825 101.013 93.3194 101.04 91.6197L101.21 81.061C101.234 79.5712 100.457 78.7686 99.3917 79.0816Z" fill="#5793CE"/>
<path d="M95.2822 89.5969C95.6354 89.4025 95.9228 89.5672 95.9162 89.9771L95.8776 92.3768C95.871 92.7868 95.5732 93.272 95.22 93.4664C94.8669 93.6607 94.5795 93.4961 94.5861 93.0861L94.6246 90.6865C94.6312 90.2765 94.929 89.7912 95.2822 89.5969Z" fill="white"/>
<path d="M92.5226 91.4228C92.8757 91.2284 93.1631 91.3931 93.1565 91.803L93.1228 93.9027C93.1162 94.3127 92.8184 94.798 92.4652 94.9923C92.112 95.1867 91.8246 95.022 91.8312 94.6121L91.865 92.5123C91.8714 92.1124 92.1692 91.6271 92.5226 91.4228Z" fill="#D4ECFF"/>
<path d="M89.8053 90.609C90.1585 90.4146 90.4459 90.5793 90.4393 90.9892L90.3678 95.4387C90.3612 95.8486 90.0633 96.3339 89.7102 96.5282C89.357 96.7226 89.0696 96.5579 89.0762 96.148L89.1475 91.7086C89.1541 91.2986 89.452 90.8133 89.8053 90.609Z" fill="#F16A51"/>
<path d="M87.0915 89.5753C87.4447 89.3809 87.7321 89.5455 87.7255 89.9555L87.6127 96.9746C87.6061 97.3845 87.3083 97.8698 86.9551 98.0642C86.6019 98.2585 86.3146 98.0939 86.3211 97.6839L86.4339 90.6648C86.4404 90.2649 86.7282 89.7794 87.0915 89.5753Z" fill="#D4ECFF"/>
<path d="M84.3246 91.8511C84.6777 91.6567 84.9651 91.8214 84.9585 92.2313L84.8576 98.5105C84.851 98.9205 84.5532 99.4057 84.2 99.6001C83.8469 99.7944 83.5595 99.6298 83.5661 99.2199L83.667 92.9407C83.6736 92.5307 83.9614 92.0453 84.3246 91.8511Z" fill="#D4ECFF"/>
<path d="M81.5137 96.2465C81.8668 96.0521 82.1542 96.2168 82.1476 96.6267L82.0928 100.036C82.0862 100.446 81.7884 100.932 81.4352 101.126C81.0821 101.32 80.7947 101.156 80.8013 100.746L80.8561 97.3361C80.8725 96.9363 81.1603 96.4508 81.5137 96.2465Z" fill="white"/>
<path d="M94.672 88.3669C94.6656 88.7669 94.943 88.9313 95.2962 88.737C95.6493 88.5426 95.9372 88.0572 95.9436 87.6572C95.95 87.2573 95.6726 87.0928 95.3195 87.2872C94.9661 87.4915 94.6784 87.967 94.672 88.3669Z" fill="#F16A51"/>
<path d="M94.7083 86.1072C94.7018 86.5071 94.9792 86.6716 95.3324 86.4773C95.6856 86.2829 95.9734 85.7975 95.9798 85.3975C95.9863 84.9976 95.7089 84.8331 95.3557 85.0275C95.0024 85.2318 94.7147 85.7072 94.7083 86.1072Z" fill="white"/>
</g>
<defs>
<linearGradient id="paint0_linear" x1="87.1544" y1="145.269" x2="144.415" y2="49.674" gradientUnits="userSpaceOnUse">
<stop stop-color="#2D0979"/>
<stop offset="1" stop-color="#5B04F7"/>
</linearGradient>
<linearGradient id="paint1_linear" x1="4.13757" y1="104.503" x2="49.5856" y2="98.215" gradientUnits="userSpaceOnUse">
<stop stop-color="#3919BB"/>
<stop offset="1" stop-color="#6507FA"/>
</linearGradient>
<linearGradient id="paint2_linear" x1="4.13757" y1="104.503" x2="49.5856" y2="98.215" gradientUnits="userSpaceOnUse">
<stop stop-color="#3919BB"/>
<stop offset="1" stop-color="#6507FA"/>
</linearGradient>
<clipPath id="clip0">
<rect width="113.76" height="209.18" fill="white" transform="translate(4.15332 0.431) rotate(0.920736)"/>
</clipPath>
</defs>
</svg>
