<svg width="64" height="63" viewBox="0 0 64 63" fill="none" xmlns="http://www.w3.org/2000/svg">
<g clip-path="url(#clip0)">
<path opacity="0.5" d="M28.9334 62.1034L1.62335 46.3334C-0.0566497 45.3634 0.15335 43.6734 2.09335 42.5634L28.4634 27.3434C30.4034 26.2234 33.3233 26.1034 35.0033 27.0734L62.3134 42.8434C63.9934 43.8134 63.7833 45.5034 61.8433 46.6234L35.4734 61.8334C33.5334 62.9534 30.6034 63.0734 28.9334 62.1034Z" fill="#173D7A"/>
<path d="M63.4334 27.7134V18.2934L42.3034 18.2834L35.0034 14.0634C33.3234 13.0934 30.4034 13.2134 28.4634 14.3334L21.6534 18.2634H0.503364V27.9534C0.453364 28.6034 0.823363 29.2434 1.62336 29.7034L28.9334 45.4734C30.6134 46.4434 33.5334 46.3234 35.4734 45.2034L61.8434 29.9834C62.9534 29.3234 63.4934 28.4934 63.4334 27.7134Z" fill="#396CAA"/>
<path d="M31.9634 13.4134C30.7334 13.4434 29.4634 13.7534 28.4634 14.3334L21.6534 18.2634H0.503364V27.9534C0.453364 28.6034 0.823363 29.2434 1.62336 29.7034L28.9334 45.4734C29.7434 45.9434 30.8334 46.1534 31.9634 46.1234V13.4134Z" fill="#396CAA"/>
<path d="M2.89336 18.2634H0.503364V27.9534C0.453364 28.6034 0.823363 29.2434 1.62336 29.7034L2.89336 30.4334V18.2634Z" fill="#5793CE"/>
<path d="M29.3534 45.6734C30.8034 46.2934 32.8934 46.2534 34.5834 45.6134V34.6134H29.3534V45.6734Z" fill="#5793CE"/>
<path d="M28.9334 35.8134L1.62335 20.0434C-0.0566497 19.0734 0.15335 17.3834 2.09335 16.2734L28.4634 1.04341C30.4034 -0.0765871 33.3233 -0.196587 35.0033 0.773413L62.3134 16.5434C63.9934 17.5134 63.7833 19.2034 61.8433 20.3134L35.4734 35.5434C33.5334 36.6534 30.6034 36.7834 28.9334 35.8134Z" fill="#D4ECFF"/>
<path d="M61.8334 18.4634L35.4734 33.6834C33.5334 34.8034 30.6134 34.9234 28.9334 33.9534L1.62337 18.1934C1.25337 17.9734 0.973375 17.7234 0.783375 17.4534C0.203375 18.3834 0.473375 19.3834 1.62337 20.0534L28.9334 35.8234C30.6134 36.7934 33.5334 36.6734 35.4734 35.5534L61.8434 20.3334C63.3434 19.4634 63.8034 18.2534 63.1534 17.3034C62.8834 17.7034 62.4434 18.1134 61.8334 18.4634Z" fill="white"/>
<path d="M53.3834 30.2034C53.3834 30.9034 52.8934 31.7634 52.2834 32.1134C51.6734 32.4634 51.1833 32.1834 51.1833 31.4734C51.1833 30.7734 51.6734 29.9134 52.2834 29.5634C52.8934 29.2134 53.3834 29.5034 53.3834 30.2034Z" fill="#D4ECFF"/>
<path d="M56.9333 28.1534C56.9333 28.8534 56.4433 29.7134 55.8333 30.0634C55.2233 30.4134 54.7333 30.1334 54.7333 29.4234C54.7333 28.7234 55.2233 27.8634 55.8333 27.5134C56.4433 27.1634 56.9333 27.4534 56.9333 28.1534Z" fill="#D4ECFF"/>
<path d="M60.4833 26.1034C60.4833 26.8034 59.9933 27.6634 59.3833 28.0134C58.7733 28.3634 58.2833 28.0834 58.2833 27.3734C58.2833 26.6734 58.7733 25.8134 59.3833 25.4634C59.9933 25.1134 60.4833 25.4034 60.4833 26.1034Z" fill="#D4ECFF"/>
<path d="M30.5434 26.0334L17.7634 18.6534C16.9834 18.2034 17.0734 17.4134 17.9834 16.8834L30.3234 9.76341C31.2334 9.24341 32.6034 9.18341 33.3834 9.63341L46.1634 17.0134C46.9434 17.4634 46.8534 18.2534 45.9434 18.7834L33.6034 25.9034C32.7034 26.4334 31.3334 26.4934 30.5434 26.0334Z" fill="#5793CE"/>
<path d="M31.7734 19.8634L30.0034 18.8434C29.8934 18.7834 29.9134 18.6734 30.0334 18.6034L31.7434 17.6134C31.8734 17.5434 32.0534 17.5334 32.1634 17.5934L33.9334 18.6134C34.0434 18.6734 34.0234 18.7834 33.9034 18.8534L32.1934 19.8434C32.0634 19.9134 31.8734 19.9234 31.7734 19.8634Z" fill="#D4ECFF"/>
<path d="M17.7634 18.6634L17.8034 18.6834C17.8634 18.6434 17.9134 18.5934 17.9834 18.5534L30.3234 11.4334C31.2334 10.9134 32.6034 10.8534 33.3834 11.3034L46.1234 18.6634C46.8434 18.1434 46.8834 17.4434 46.1634 17.0234L33.3834 9.64341C32.6034 9.19341 31.2334 9.24341 30.3234 9.77341L17.9834 16.8934C17.0834 17.4134 16.9834 18.2034 17.7634 18.6634Z" fill="#396CAA"/>
</g>
<defs>
<clipPath id="clip0">
<rect width="62.94" height="62.63" fill="white" transform="translate(0.493347 0.123413)"/>
</clipPath>
</defs>
</svg>
