<svg xmlns="http://www.w3.org/2000/svg" xmlns:xlink="http://www.w3.org/1999/xlink" width="40" height="35" viewBox="0 0 40 35"><defs><path id="8qfja" d="M701.6 7890.25c-.2.35-.57.56-.98.56H665.3a1.12 1.12 0 0 1-.98-1.68l17.66-30.38c.2-.35.57-.56.98-.56.4 0 .77.21.98.56l17.66 30.38c.2.35.2.77 0 1.12zm1.01-1.7l-17.66-30.38a2.28 2.28 0 0 0-1.99-1.14c-.83 0-1.57.43-1.99 1.14l-17.66 30.38a2.28 2.28 0 0 0 1.99 3.42h35.32a2.28 2.28 0 0 0 1.99-3.42z"/><path id="8qfjb" d="M684.71 7863.98l-1.24-2.15a.59.59 0 0 0-1.01 0L667.23 7888c-.1.18-.1.4 0 .58.1.18.3.3.5.3h2.1c.32 0 .58-.27.58-.59a.58.58 0 0 0-.59-.58h-1.07l14.2-24.43.74 1.28a.59.59 0 0 0 .8.21.58.58 0 0 0 .21-.8z"/><path id="8qfjc" d="M698.68 7888L685.9 7866a.59.59 0 0 0-.8-.21.58.58 0 0 0-.21.8l12.27 21.1h-24.83a.58.58 0 0 0-.58.59c0 .32.26.58.58.58h25.84c.21 0 .4-.11.51-.3.1-.17.1-.4 0-.57z"/><path id="8qfjd" d="M682.96 7883.72a.66.66 0 0 1-.66-.66.66.66 0 0 1 1.33 0c0 .37-.3.66-.67.66zm0-2.48c-1 0-1.83.82-1.83 1.82s.82 1.82 1.83 1.82c1.02 0 1.84-.81 1.84-1.82 0-1-.82-1.82-1.84-1.82z"/><path id="8qfje" d="M683.08 7878.76h-.25l-1.05-6.29h2.35zm2.2-7.24a.59.59 0 0 0-.45-.21h-3.75a.59.59 0 0 0-.44.2.58.58 0 0 0-.13.48l1.25 7.44c.04.28.29.49.57.49h1.25c.3 0 .53-.2.58-.49l1.25-7.44a.58.58 0 0 0-.13-.47z"/></defs><g><g transform="translate(-663 -7857)"><g><use fill="#818fff" xlink:href="#8qfja"/></g><g><use fill="#818fff" xlink:href="#8qfjb"/></g><g><use fill="#818fff" xlink:href="#8qfjc"/></g><g><use fill="#818fff" xlink:href="#8qfjd"/></g><g><use fill="#818fff" xlink:href="#8qfje"/></g></g></g></svg>