<svg xmlns="http://www.w3.org/2000/svg" xmlns:xlink="http://www.w3.org/1999/xlink" width="13" height="13" viewBox="0 0 13 13"><defs><path id="dprba" d="M291.26 26.63c0-1.06 1-1.93 2.21-1.93h.06c1.2 0 2.17.87 2.17 1.93v.45h-4.44zM300 36.6l-.85-9.2c-.01-.18-.19-.32-.4-.32h-2.26v-.45c0-1.45-1.32-2.63-2.96-2.63h-.06c-1.64 0-3 1.18-3 2.63v.45h-2.23c-.2 0-.38.14-.4.32l-.84 9.22c0 .1.03.2.1.27.08.07.19.11.3.11h12.2c.22 0 .4-.16.4-.35v-.05z"/></defs><g><g transform="translate(-287 -24)"><use fill="#00d9d9" xlink:href="#dprba"/></g></g></svg>