<svg width="43" height="42" viewBox="0 0 43 42" fill="none" xmlns="http://www.w3.org/2000/svg">
<path opacity="0.3" fill-rule="evenodd" clip-rule="evenodd" d="M40.4617 16.0671C40.0075 15.2001 39.2892 13.9332 38.2619 12.5108C37.0694 10.8596 29.0333 -0.477061 19.059 1.16141C15.3481 1.77093 12.0537 3.84676 9.46964 6.75269C5.22571 9.3445 1.97956 13.4315 1.1857 18.3348C0.185784 24.5097 3.32399 30.4458 8.19231 34.4336C12.5129 39.2785 19.4169 42.112 25.854 40.5856C28.026 40.0707 34.7848 39.6403 39.0005 33.8656C44.5984 26.1978 40.6875 16.5968 40.4617 16.0671Z" stroke="#00D9D9"/>
<path d="M19.5 16.9L23.8514 21.5L19.5 26.1L20.8243 27.5L26.5 21.5L20.8243 15.5L19.5 16.9Z" fill="#00D9D9"/>
</svg>
