<svg width="39" height="34" viewBox="0 0 39 34" fill="none" xmlns="http://www.w3.org/2000/svg">
<path d="M11.8506 28.4761L10.2753 19.3742C10.2013 18.9465 9.80563 18.6613 9.39141 18.7381C8.97727 18.8146 8.7016 19.2235 8.77571 19.6514L10.351 28.7532C10.417 29.1342 10.738 29.4018 11.0999 29.4018C11.1444 29.4018 11.1896 29.3977 11.2349 29.3894C11.6491 29.3129 11.9247 28.904 11.8506 28.4761Z" fill="#818FFF"/>
<path d="M22.5623 21.8027C22.1416 21.8027 21.8005 22.1551 21.8005 22.5898V28.6152C21.8005 29.0498 22.1416 29.4023 22.5623 29.4023C22.9829 29.4023 23.324 29.0498 23.324 28.6152V22.5898C23.324 22.1552 22.9829 21.8027 22.5623 21.8027Z" fill="#818FFF"/>
<path d="M23.1006 18.9572C22.959 18.8107 22.7625 18.7266 22.5621 18.7266C22.3617 18.7266 22.1653 18.8107 22.0236 18.9572C21.8819 19.1036 21.8004 19.3066 21.8004 19.5136C21.8004 19.7206 21.8818 19.9236 22.0236 20.07C22.1653 20.2163 22.3617 20.3006 22.5621 20.3006C22.7625 20.3006 22.959 20.2164 23.1006 20.07C23.2423 19.9236 23.3239 19.7206 23.3239 19.5136C23.3239 19.3066 23.2423 19.1036 23.1006 18.9572Z" fill="#818FFF"/>
<path d="M16.4377 18.7266C16.0171 18.7266 15.676 19.079 15.676 19.5136V28.6154C15.676 29.05 16.0171 29.4025 16.4377 29.4025C16.8584 29.4025 17.1995 29.05 17.1995 28.6154V19.5136C17.1995 19.0789 16.8584 18.7266 16.4377 18.7266Z" fill="#818FFF"/>
<path d="M29.6086 18.7391C29.1934 18.6621 28.7986 18.9474 28.7247 19.3753L27.1494 28.4771C27.0753 28.9051 27.3509 29.314 27.7651 29.3904C27.8105 29.3987 27.8556 29.4028 27.9 29.4028C28.262 29.4028 28.5831 29.1352 28.649 28.7542L30.2243 19.6524C30.2984 19.2244 30.0227 18.8155 29.6086 18.7391Z" fill="#818FFF"/>
<path d="M19.8914 32.6535C19.7498 32.5064 19.5533 32.4229 19.3529 32.4229C19.1526 32.4229 18.956 32.5064 18.8144 32.6535C18.6728 32.7998 18.5912 33.0022 18.5912 33.2099C18.5912 33.4169 18.6727 33.6199 18.8144 33.7663C18.956 33.9127 19.1526 33.9969 19.3529 33.9969C19.5533 33.9969 19.7498 33.9128 19.8914 33.7663C20.0331 33.6199 20.1146 33.4169 20.1146 33.2099C20.1146 33.0029 20.0332 32.7998 19.8914 32.6535Z" fill="#818FFF"/>
<path d="M36.7148 8.49609H34.9121C34.4915 8.49609 34.1504 8.84853 34.1504 9.28313C34.1504 9.71773 34.4915 10.0702 34.9121 10.0702H36.7148C37.1349 10.0702 37.4766 10.4232 37.4766 10.8572V13.3757C37.4766 13.8097 37.1349 14.1628 36.7148 14.1628H2.28516C1.86514 14.1628 1.52344 13.8097 1.52344 13.3757V10.8572C1.52344 10.4232 1.86514 10.0702 2.28516 10.0702H3.83396C4.25458 10.0702 4.59568 9.71773 4.59568 9.28313C4.59568 8.84853 4.25458 8.49609 3.83396 8.49609H2.28516C1.02512 8.49609 0 9.55529 0 10.8572V13.3757C0 14.505 0.771545 15.4512 1.79842 15.6824L4.52728 30.283C4.92931 32.4351 6.76086 33.997 8.88225 33.997H15.9199C16.3405 33.997 16.6816 33.6446 16.6816 33.21C16.6816 32.7754 16.3405 32.423 15.9199 32.423H8.88217C7.48945 32.423 6.287 31.3975 6.02299 29.9846L3.3604 15.7378H35.6396L32.977 29.9846C32.713 31.3975 31.5106 32.423 30.1178 32.423H22.5623C22.1417 32.423 21.8006 32.7754 21.8006 33.21C21.8006 33.6446 22.1417 33.997 22.5623 33.997H30.1178C32.2392 33.997 34.0708 32.435 34.4728 30.2831L37.2016 15.6824C38.2285 15.4512 39 14.505 39 13.3757V10.8572C39 9.55529 37.9749 8.49609 36.7148 8.49609Z" fill="#818FFF"/>
<path fill-rule="evenodd" clip-rule="evenodd" d="M32.0997 8.68555L24.3951 0.725586C23.4629 -0.238281 21.9459 -0.237305 21.0139 0.725586C20.0818 1.68848 20.0818 3.25586 21.0139 4.21875L25.1531 8.49609H13.8469L17.9862 4.21875C18.9183 3.25586 18.9183 1.68848 17.9862 0.725586C17.0542 -0.238281 15.5374 -0.237305 14.6047 0.725586L6.90027 8.68555C5.96808 9.64941 5.96814 11.2168 6.90033 12.1797C7.35199 12.6465 7.95227 12.9033 8.59094 12.9033C9.22955 12.9033 9.8299 12.6465 10.2816 12.1797L12.3235 10.0703H26.5568L26.5997 10.0684L26.6675 10.0605L28.7184 12.1797C29.1702 12.6465 29.7705 12.9033 30.4091 12.9033C31.0476 12.9033 31.6481 12.6465 32.0996 12.1797C33.0319 11.2168 33.0319 9.64941 32.0997 8.68555ZM9.20447 11.0664C9.04053 11.2363 8.82263 11.3291 8.59088 11.3291C8.35925 11.3291 8.14142 11.2363 7.97754 11.0664C7.63934 10.7168 7.63928 10.1484 7.97748 9.79883L15.6819 1.83789C15.718 1.80078 15.7565 1.76758 15.7969 1.73828C15.8304 1.71387 15.8652 1.69238 15.9011 1.67285C16.0246 1.6084 16.1601 1.57617 16.2956 1.57617C16.4126 1.57617 16.5297 1.60059 16.6389 1.64941C16.7371 1.69238 16.8289 1.75488 16.9089 1.83789C17.2472 2.1875 17.2472 2.75684 16.9089 3.10547L9.20447 11.0664ZM30.4091 11.3291C30.6407 11.3291 30.8586 11.2354 31.0225 11.0664C31.3606 10.7168 31.3607 10.1484 31.0225 9.79883L23.318 1.83789C23.1488 1.66309 22.9266 1.57617 22.7045 1.57617C22.4823 1.57617 22.2603 1.66309 22.0911 1.83789C21.7528 2.1875 21.7528 2.75684 22.0911 3.10547L29.7955 11.0664C29.9595 11.2354 30.1774 11.3291 30.4091 11.3291Z" fill="#818FFF"/>
</svg>
