<svg xmlns="http://www.w3.org/2000/svg" xmlns:xlink="http://www.w3.org/1999/xlink" width="20" height="26" viewBox="0 0 20 26"><defs><path id="4y58a" d="M183.5 751.19a.5.5 0 0 0-.5.5c0 .29.22.52.5.52a.5.5 0 0 0 .5-.51.5.5 0 0 0-.5-.51z"/><path id="4y58b" d="M186 750.17v-7.61-.05-.02a.5.5 0 0 0 0-.03v-.01a.52.52 0 0 0-.03-.09v-.02a.52.52 0 0 0-.04-.06l-.01-.01a.5.5 0 0 0-.06-.07v-.01a.5.5 0 0 0-.03-.02l-.01-.01-.01-.01-2.81-2.13h8.68l-2.6 4.83a.51.51 0 0 0 0 .49l2.6 4.83zm-1 3.05h-9.02v-10.16h9.03zm-3-12.7l2 1.53h-2zm-7.02 22.96a.5.5 0 0 1-.5.5.5.5 0 0 1-.5-.5v-21.94c0-.28.22-.5.5-.5a.5.5 0 0 1 .5.5zm15.11-18.39l2.88-5.34a.51.51 0 0 0-.01-.5.5.5 0 0 0-.43-.25H181.48a.5.5 0 0 0-.07 0 .5.5 0 0 0-.12.04l-.02.01a.5.5 0 0 0-.16.13.5.5 0 0 0-.07.11v.01l-.03.06v.02a.5.5 0 0 0 0 .05l-.01.01v2.61h-5.02v-.51a1.52 1.52 0 0 0-1.5-1.52c-.83 0-1.5.68-1.5 1.52v21.94c0 .84.67 1.52 1.5 1.52s1.5-.68 1.5-1.52v-9.25h9.53a.5.5 0 0 0 .5-.5v-2.54h6.52a.5.5 0 0 0 .43-.25.51.51 0 0 0 0-.5z"/><path id="4y58c" d="M181.5 751.19h-4.02a.5.5 0 0 0-.5.5c0 .29.23.52.5.52h4.02a.5.5 0 0 0 .5-.51.5.5 0 0 0-.5-.51z"/></defs><g><g transform="translate(-173 -739)"><g><use fill="#00d9d9" xlink:href="#4y58a"/></g><g><use fill="#00d9d9" xlink:href="#4y58b"/></g><g><use fill="#00d9d9" xlink:href="#4y58c"/></g></g></g></svg>