<svg xmlns="http://www.w3.org/2000/svg" xmlns:xlink="http://www.w3.org/1999/xlink" width="98" height="33" viewBox="0 0 98 33"><defs><path id="jsbka" d="M111 14.09h34.5v32.9H111z"/><path id="jsbkd" d="M143.17 25.32c-.18-.6-.4-1.18-.66-1.75-2.72-5.95-9.66-10.38-16.24-9.33a14.1 14.1 0 0 0-8.1 4.6c-3.6 2.13-6.34 5.5-7.01 9.52-.85 5.08 1.8 9.96 5.92 13.24 3.65 3.98 9.5 6.31 14.94 5.06.74-.17 1.45-.4 2.14-.7 3.57-.48 6.88-2.1 8.97-4.83 3.36-4.38 2.92-10.74.04-15.81zm-9.72 6.67h-3.31v3.26h-2.95v-3.26h-3.31v-2.9h3.31v-3.25h2.95v3.25h3.3z"/><path id="jsbke" d="M144.32 26.07c1.1 0 1.97.27 2.63.81.67.55 1 1.23 1 2.08 0 .83-.33 1.53-1 2.07-.66.55-1.53.81-2.63.81h-1.46v3.09h-2.94v-8.86zm-.4 3.8c.61 0 1.02-.33 1.02-.8 0-.47-.42-.78-1.01-.78h-1.07v1.58z"/><path id="jsbkf" d="M148.75 34.93v-8.86h3.22v3h3.2v-3h3.22v8.86h-3.21v-3.5h-3.2v3.5z"/><path id="jsbkg" d="M159.2 34.93l4.14-8.86h2.95l4.15 8.86h-3.32l-.72-1.65h-3.28l-.73 1.65zm4.81-3.67h1.49l-.74-2.1z"/><path id="jsbkh" d="M181.69 34.93h-3.55l-2.63-3.17h-.42v3.17h-3.04v-8.86h4.78a4.2 4.2 0 0 1 2.7.81 2.48 2.48 0 0 1 1.01 2.04c0 1.11-.67 2.04-1.8 2.54zm-5.21-5.16c.57 0 .95-.28.95-.72 0-.44-.38-.7-.95-.7h-1.4v1.42z"/><path id="jsbki" d="M182.5 34.93v-8.86h3.03l2.18 3.15 2.2-3.15h3.02v8.86H190v-4.96l-1.42 2.11h-1.65l-1.47-2.11v4.96z"/><path id="jsbkj" d="M199.7 34.93v-7.85l-2.75 1.14v-.9l2.88-1.25h1.14v8.86z"/><path id="jsbkb" d="M202.6 26.16h6.3v8.76h-6.3z"/><path id="jsbkl" d="M202.6 34.29v-.95c.75.48 1.64.73 2.68.73a3.2 3.2 0 0 0 1.84-.54c.53-.37.8-.86.8-1.49 0-1.18-1-1.96-2.55-1.96-.36 0-.71.04-1.04.13v-.63l2.89-2.6h-4.23v-.82h5.57v.68l-2.8 2.52c.81.01 1.55.27 2.18.76.64.5.96 1.13.96 1.92 0 .85-.34 1.55-1.03 2.08-.68.53-1.52.8-2.54.8-1.1 0-2-.21-2.73-.63"/><clipPath id="jsbkc"><use xlink:href="#jsbka"/></clipPath><clipPath id="jsbkk"><use xlink:href="#jsbkb"/></clipPath></defs><g><g transform="translate(-111 -14)"><g><g/><g clip-path="url(#jsbkc)"><use fill="#00d9d9" xlink:href="#jsbkd"/></g></g><g><use xlink:href="#jsbke"/></g><g><use xlink:href="#jsbkf"/></g><g><use xlink:href="#jsbkg"/></g><g><use xlink:href="#jsbkh"/></g><g><use xlink:href="#jsbki"/></g><g><use xlink:href="#jsbkj"/></g><g><g/><g clip-path="url(#jsbkk)"><use xlink:href="#jsbkl"/></g></g></g></g></svg>