<svg xmlns="http://www.w3.org/2000/svg" xmlns:xlink="http://www.w3.org/1999/xlink" width="122" height="40" viewBox="0 0 122 40"><defs><path id="3xaea" d="M20 4689.58h42.94v38.87H20z"/><path id="3xaed" d="M60.05 4702.84c-.23-.7-.5-1.39-.83-2.06-3.38-7.03-12.02-12.26-20.21-11.02-3.9.6-7.37 2.6-10.1 5.43-4.46 2.52-7.88 6.49-8.71 11.25-1.06 6 2.25 11.76 7.37 15.63 4.55 4.7 11.82 7.46 18.6 5.98.92-.2 1.8-.48 2.66-.82 4.45-.58 8.56-2.48 11.17-5.71 4.18-5.18 3.64-12.7.05-18.68zm-12.1 7.88h-4.13v3.85h-3.67v-3.85h-4.12v-3.42h4.12v-3.84h3.67v3.84h4.13z"/><path id="3xaee" d="M61.49 4703.73c1.36 0 2.45.32 3.27.96a2.95 2.95 0 0 1 1.24 2.45c0 .98-.4 1.8-1.24 2.45-.82.64-1.91.95-3.27.95h-1.83v3.65H56v-10.46zm-.5 4.48c.75 0 1.26-.38 1.26-.94 0-.55-.53-.92-1.26-.92h-1.33v1.86z"/><path id="3xaef" d="M67 4714.19v-10.46h4v3.54h4v-3.54h4v10.46h-4v-4.12h-4v4.12z"/><path id="3xaeg" d="M80 4714.19l5.16-10.46h3.67L94 4714.2h-4.14l-.9-1.95H84.9l-.92 1.95zm6-4.33h1.84l-.91-2.47z"/><path id="3xaeh" d="M108 4714.19h-4.42l-3.27-3.73h-.53v3.73H96v-10.46h5.95c1.39 0 2.51.32 3.36.96a2.88 2.88 0 0 1 1.26 2.4c0 1.32-.84 2.4-2.25 3zm-6.49-6.09c.71 0 1.19-.33 1.19-.85s-.48-.83-1.19-.83h-1.73v1.68z"/><path id="3xaei" d="M109 4714.19v-10.46h3.78l2.72 3.72 2.73-3.72H122v10.46h-3.66v-5.86l-1.76 2.5h-2.06l-1.83-2.5v5.86z"/><path id="3xaej" d="M130.41 4714.19v-9.26l-3.41 1.34v-1.06l3.59-1.48H132v10.46z"/><path id="3xaeb" d="M134.03 4703.84h7.85v10.34h-7.85z"/><path id="3xael" d="M134.03 4713.44v-1.12c.93.57 2.05.86 3.33.86.89 0 1.65-.22 2.3-.64.65-.44.99-1.02.99-1.76 0-1.4-1.24-2.3-3.17-2.3-.45 0-.88.03-1.3.14v-.74l3.6-3.07h-5.27v-.97h6.94v.8l-3.49 2.97c1.02.02 1.94.32 2.72.9.8.59 1.2 1.34 1.2 2.27 0 1-.43 1.83-1.28 2.46a5.2 5.2 0 0 1-3.17.94 7 7 0 0 1-3.4-.74"/><clipPath id="3xaec"><use xlink:href="#3xaea"/></clipPath><clipPath id="3xaek"><use xlink:href="#3xaeb"/></clipPath></defs><g><g transform="translate(-20 -4689)"><g><g/><g clip-path="url(#3xaec)"><use fill="#00d9d9" xlink:href="#3xaed"/></g></g><g><use xlink:href="#3xaee"/></g><g><use xlink:href="#3xaef"/></g><g><use xlink:href="#3xaeg"/></g><g><use xlink:href="#3xaeh"/></g><g><use xlink:href="#3xaei"/></g><g><use xlink:href="#3xaej"/></g><g><g/><g clip-path="url(#3xaek)"><use xlink:href="#3xael"/></g></g></g></g></svg>