<svg xmlns="http://www.w3.org/2000/svg" xmlns:xlink="http://www.w3.org/1999/xlink" width="123" height="43" viewBox="0 0 123 43"><defs><path id="h41pb" d="M108.98 35.5a29.87 29.87 0 0 0-2.28-3.63c-1.23-1.69-9.55-13.27-19.89-11.6-3.84.63-7.25 2.75-9.93 5.72-4.4 2.64-7.76 6.82-8.58 11.83-1.03 6.3 2.22 12.37 7.26 16.44 4.47 4.95 11.63 7.85 18.3 6.29 2.24-.53 9.24-.97 13.6-6.87 5.8-7.83 1.76-17.64 1.52-18.18zm-13.36 6.83h-4.06v4.04h-3.62v-4.04h-4.06v-3.6h4.06v-4.05h3.62v4.05h4.06z"/><path id="h41pc" d="M115.33 46.53V34.67h3.65v4.02h3.64v-4.02h3.65v11.86h-3.65v-4.68h-3.64v4.68z"/><path id="h41pd" d="M128.38 46.53l4.9-11.93h3.48l4.9 11.93h-3.92l-.85-2.22h-3.87l-.87 2.22zm5.7-4.95h1.74l-.86-2.81z"/><path id="h41pe" d="M155.35 46.53h-4.27l-3.16-4.24h-.5v4.24h-3.66V34.67h5.74a4.7 4.7 0 0 1 3.25 1.08 3.73 3.73 0 0 1-.95 6.13zm-6.27-6.9c.69 0 1.15-.37 1.15-.96 0-.6-.46-.95-1.15-.95h-1.67v1.91z"/><path id="h41pf" d="M157.27 46.53V34.67h3.62l2.6 4.22 2.62-4.22h3.6v11.86h-3.5v-6.64l-1.68 2.83h-1.98l-1.75-2.83v6.64z"/><path id="h41pg" d="M178.2 46.53v-10.5l-2.67 1.52v-1.2l2.8-1.68h1.1v11.86z"/><path id="h41pa" d="M181.98 34.67h8v12.06h-8z"/><path id="h41pi" d="M181.98 45.87v-1.3c.95.66 2.09 1 3.4 1 .9 0 1.68-.26 2.34-.75.67-.5 1-1.19 1-2.05 0-1.63-1.25-2.7-3.22-2.7-.46 0-.9.06-1.33.17v-.86l3.67-3.57h-5.37v-1.14h7.07v.93L186 39.08a4.3 4.3 0 0 1 2.77 1.05 3.27 3.27 0 0 1 1.22 2.64c0 1.17-.44 2.13-1.3 2.86a4.84 4.84 0 0 1-3.23 1.1c-1.4 0-2.55-.28-3.47-.86"/><path id="h41pj" d="M111.56 35.75a4.2 4.2 0 0 0-3.04-1.08h-5.1v11.86h3.4V42.4h1.7a4.2 4.2 0 0 0 3.04-1.09 3.65 3.65 0 0 0 1.15-2.78c0-1.13-.37-2.05-1.15-2.78m-3.5 4h-1.23v-2.11h1.23c.68 0 1.17.42 1.17 1.04 0 .62-.48 1.06-1.17 1.06"/><clipPath id="h41ph"><use xlink:href="#h41pa"/></clipPath></defs><g><g transform="translate(-67 -19)"><g><use fill="#fff" fill-opacity="0" stroke="#fff" stroke-miterlimit="50" stroke-width="1.24" xlink:href="#h41pb"/></g><g><use fill="#fff" xlink:href="#h41pc"/></g><g><use fill="#fff" xlink:href="#h41pd"/></g><g><use fill="#fff" xlink:href="#h41pe"/></g><g><use fill="#fff" xlink:href="#h41pf"/></g><g><use fill="#fff" xlink:href="#h41pg"/></g><g><g/><g clip-path="url(#h41ph)"><use fill="#fff" xlink:href="#h41pi"/></g></g><g><use fill="#fff" xlink:href="#h41pj"/></g></g></g></svg>