<svg xmlns="http://www.w3.org/2000/svg" xmlns:xlink="http://www.w3.org/1999/xlink" width="32" height="36" viewBox="0 0 32 36"><defs><path id="vjyia" d="M175.4 155H144.6a.57.57 0 0 1-.57-.56v-18c0-.3.26-.56.57-.56.32 0 .57.25.57.56v17.44h29.65v-17.44c0-.3.25-.56.57-.56.31 0 .57.25.57.56v18c0 .31-.26.56-.57.56z"/><path id="vjyib" d="M160 147.12a.58.58 0 0 1-.31-.1l-15.4-10.12a.56.56 0 0 1-.15-.78.57.57 0 0 1 .79-.16l15.4 10.13c.25.17.32.52.15.78-.11.16-.3.25-.48.25z"/><path id="vjyic" d="M160 147.12a.57.57 0 0 1-.47-.25.56.56 0 0 1 .15-.78l15.4-10.13c.26-.17.61-.1.79.16.17.26.1.6-.16.78l-15.4 10.13c-.09.06-.2.09-.3.09z"/><path id="vjyid" d="M175.4 155a.58.58 0 0 1-.32-.1l-13.69-9a.56.56 0 0 1-.15-.78.58.58 0 0 1 .79-.16l13.68 9c.26.18.33.53.16.79-.11.16-.3.25-.48.25z"/><path id="vjyie" d="M144.61 155a.57.57 0 0 1-.47-.25.56.56 0 0 1 .15-.79l13.69-9c.26-.17.61-.1.79.16.17.26.1.6-.16.78l-13.68 9c-.1.06-.21.1-.32.1z"/><path id="vjyif" d="M175.4 137a.58.58 0 0 1-.32-.1l-4.57-3a.56.56 0 0 1-.15-.78.57.57 0 0 1 .79-.16l4.56 3c.26.18.33.53.16.78-.11.17-.3.26-.48.26z"/><path id="vjyig" d="M144.61 137a.57.57 0 0 1-.47-.26.56.56 0 0 1 .15-.78l4.57-3c.26-.17.61-.1.79.16.17.26.1.6-.16.78l-4.56 3c-.1.06-.21.1-.32.1z"/><path id="vjyih" d="M149.17 140a.57.57 0 0 1-.57-.56v-19.88c0-.3.26-.56.57-.56.32 0 .57.25.57.56v19.88c0 .3-.25.56-.57.56z"/><path id="vjyii" d="M170.83 140a.57.57 0 0 1-.57-.56v-19.88c0-.3.26-.56.57-.56.32 0 .57.25.57.56v19.88c0 .3-.25.56-.57.56z"/><path id="vjyij" d="M170.84 120.13h-21.67a.57.57 0 0 1-.57-.57c0-.3.26-.56.57-.56h21.67c.31 0 .57.25.57.56 0 .31-.26.56-.57.56z"/><path id="vjyik" d="M158.86 134.18a.57.57 0 0 1-.34-.1.56.56 0 0 1-.12-.8l3.43-4.5c.18-.24.54-.3.8-.1.24.18.3.53.1.78l-3.41 4.5a.57.57 0 0 1-.46.22z"/><path id="vjyil" d="M165.7 134.18a.57.57 0 0 1-.45-.22l-3.43-4.5a.56.56 0 0 1 .12-.79c.25-.18.6-.13.8.12l3.42 4.5c.19.24.13.6-.12.78a.57.57 0 0 1-.34.11z"/><path id="vjyim" d="M155.44 134.19a.57.57 0 0 1-.36-.13.56.56 0 0 1-.08-.79l2.28-2.81c.2-.24.55-.28.8-.09.24.2.28.55.09.8l-2.28 2.8a.57.57 0 0 1-.45.22z"/><path id="vjyin" d="M159.41 133.46a.57.57 0 0 1-.44-.21l-1.7-2.09a.56.56 0 0 1 .1-.79c.24-.2.6-.15.8.1l1.69 2.08c.2.24.15.6-.1.79a.57.57 0 0 1-.35.12z"/><path id="vjyio" d="M153.73 133.06h12.54v-9h-12.54zm13.11 1.13h-13.68a.57.57 0 0 1-.57-.56V123.5c0-.3.26-.56.57-.56h13.68c.32 0 .57.25.57.56v10.13c0 .3-.25.56-.57.56z"/><path id="vjyip" d="M166.84 137h-13.68a.57.57 0 0 1-.57-.56c0-.3.26-.56.57-.56h13.68c.32 0 .57.25.57.56 0 .31-.25.56-.57.56z"/><path id="vjyiq" d="M166.84 139.25h-13.68a.57.57 0 0 1-.57-.56c0-.3.26-.56.57-.56h13.68c.32 0 .57.25.57.56 0 .31-.25.56-.57.56z"/><path id="vjyir" d="M164 141.5H156a.57.57 0 0 1-.57-.56c0-.3.26-.56.57-.56h7.98c.32 0 .57.25.57.56 0 .31-.25.56-.57.56z"/><path id="vjyis" d="M156.3 126.31a.28.28 0 0 0-.29.29c0 .15.13.28.29.28.15 0 .28-.13.28-.28a.28.28 0 0 0-.28-.28zm0 1.7c-.8 0-1.43-.64-1.43-1.41 0-.78.64-1.41 1.43-1.41.78 0 1.42.63 1.42 1.4 0 .78-.64 1.41-1.42 1.41z"/></defs><g><g transform="translate(-144 -119)"><g><use fill="#818fff" xlink:href="#vjyia"/></g><g><use fill="#818fff" xlink:href="#vjyib"/></g><g><use fill="#818fff" xlink:href="#vjyic"/></g><g><use fill="#818fff" xlink:href="#vjyid"/></g><g><use fill="#818fff" xlink:href="#vjyie"/></g><g><use fill="#818fff" xlink:href="#vjyif"/></g><g><use fill="#818fff" xlink:href="#vjyig"/></g><g><use fill="#818fff" xlink:href="#vjyih"/></g><g><use fill="#818fff" xlink:href="#vjyii"/></g><g><use fill="#818fff" xlink:href="#vjyij"/></g><g><use fill="#818fff" xlink:href="#vjyik"/></g><g><use fill="#818fff" xlink:href="#vjyil"/></g><g><use fill="#818fff" xlink:href="#vjyim"/></g><g><use fill="#818fff" xlink:href="#vjyin"/></g><g><use fill="#818fff" xlink:href="#vjyio"/></g><g><use fill="#818fff" xlink:href="#vjyip"/></g><g><use fill="#818fff" xlink:href="#vjyiq"/></g><g><use fill="#818fff" xlink:href="#vjyir"/></g><g><use fill="#818fff" xlink:href="#vjyis"/></g></g></g></svg>