<svg xmlns="http://www.w3.org/2000/svg" xmlns:xlink="http://www.w3.org/1999/xlink" width="47" height="35" viewBox="0 0 47 35"><defs><path id="x3d3a" d="M701.61 223.72l-8.04-8.08 3.5-3.51 8.03 8.08zm-4.2 2.38a3.54 3.54 0 0 0-1 1.88c-.37 2.1-1.36 4-2.85 5.5l-.58.58-4.74-4.77.3.01c.49 0 .98-.08 1.47-.28a.75.75 0 0 0-.57-1.4c-1.93.8-4.24-1.39-4.5-1.64l-.01-.01-.03-.03-.02-.02-.63-.64.71-.72c.3-.29.3-.77 0-1.06a.75.75 0 0 0-1.06 0l-1.24 1.25-2.86 2.88a1.5 1.5 0 0 1-2.58-1.08c0-.4.16-.78.45-1.07l4.93-4.96a5 5 0 0 1 3.51-1.46c.7 0 1.42.16 2.06.45 1.45.66 3.17.35 4.29-.77l1.04-1.05 6.14 6.16zm-4.74 11.24a1.01 1.01 0 0 1-1.44 0l-7.27-7.3a.75.75 0 0 0-1.06 0c-.29.29-.29.76 0 1.06l7.83 7.87a1.02 1.02 0 0 1-1.44 1.45l-1.32-1.33-.02-.02h-.01l-6.07-6.11a.75.75 0 0 0-1.06 0c-.3.3-.3.77 0 1.06l6.09 6.13a1.02 1.02 0 0 1-.01 1.44c-.4.4-1.04.4-1.44 0l-6.6-6.64a.75.75 0 0 0-1.07 0c-.29.3-.29.77 0 1.06l4.9 4.92c.2.2.3.46.3.73a1.02 1.02 0 0 1-1.21 1 2.72 2.72 0 0 0-2.67-3.1h-.06a2.71 2.71 0 0 0-2.83-2.77 2.71 2.71 0 0 0-3.3-2.77l-.53-.54a10.34 10.34 0 0 1-2.85-5.43 3.81 3.81 0 0 0-1.05-2l-1.32-1.33 7.51-7.55 1.87 1.88a3.8 3.8 0 0 0 4.05.87c.21-.07.43-.13.65-.17l-4.63 4.67a3 3 0 0 0 0 4.27 2.99 2.99 0 0 0 4.24 0l2.33-2.34.64.63.02.03.03.02.02.03 8.78 8.83a1.02 1.02 0 0 1 0 1.45zm-12.71 5.78a1.2 1.2 0 0 1-1.7 0 1.2 1.2 0 0 1 1.7-1.7 1.2 1.2 0 0 1 0 1.7zm-2.76-2.78a1.2 1.2 0 0 1-1.7 0 1.2 1.2 0 0 1 .85-2.04 1.2 1.2 0 0 1 .85 2.04zm-2.83-2.83a1.2 1.2 0 0 1-2.05-.85 1.2 1.2 0 1 1 2.05.85zm-9.07-13.05l-3.5-3.5 9.08-9.12 3.49 3.5zm41.39-4.78l-9.1-9.15a.75.75 0 0 0-1.06 0l-4.55 4.57a.76.76 0 0 0 0 1.07l.46.46-1.05 1.04c-.67.68-1.72.87-2.61.46a6.48 6.48 0 0 0-5.77.22 5.02 5.02 0 0 0-2.93.16c-.89.32-1.83.12-2.48-.52l-1.87-1.89.22-.22a.76.76 0 0 0 0-1.07l-4.54-4.57a.75.75 0 0 0-1.06 0l-10.13 10.18c-.3.3-.3.77 0 1.07l4.55 4.57a.75.75 0 0 0 1.06 0l.27-.27 1.32 1.32c.33.34.55.76.64 1.21a11.85 11.85 0 0 0 3.26 6.22l.25.25a2.7 2.7 0 0 0 .05 3.78 2.68 2.68 0 0 0 2.04.8 2.71 2.71 0 0 0 2.69 2.84h.06a2.71 2.71 0 0 0 2.7 2.77 2.67 2.67 0 0 0 2.02-.93 2.51 2.51 0 0 0 3.18-1.48l.08.08a2.5 2.5 0 0 0 4.14-.9 2.5 2.5 0 0 0 3.26-.27 2.52 2.52 0 0 0 .67-2.39 2.52 2.52 0 0 0 1.55-3.95l.6-.6a11.84 11.84 0 0 0 3.27-6.3c.07-.4.27-.77.57-1.07l2.24-2.25.4.4a.74.74 0 0 0 1.05 0l4.55-4.58a.76.76 0 0 0 0-1.06z"/></defs><g><g transform="translate(-660 -210)"><use fill="#818fff" xlink:href="#x3d3a"/></g></g></svg>