<svg xmlns="http://www.w3.org/2000/svg" xmlns:xlink="http://www.w3.org/1999/xlink" width="43" height="42" viewBox="0 0 43 42"><defs><path id="l4oya" d="M861.46 1720.07a29.33 29.33 0 0 0-2.2-3.56c-1.2-1.65-9.23-12.99-19.2-11.35-3.71.61-7 2.69-9.59 5.6-4.24 2.58-7.49 6.67-8.28 11.57-1 6.18 2.13 12.12 7 16.1 4.32 4.85 11.23 7.68 17.66 6.16 2.18-.52 8.93-.95 13.15-6.72 5.6-7.67 1.69-17.27 1.46-17.8z"/><path id="l4oyb" d="M840.5 1720.9l4.35 4.6-4.35 4.6 1.32 1.4 5.68-6-5.68-6z"/></defs><g><g transform="translate(-821 -1704)"><g opacity=".3"><use fill="#fff" fill-opacity="0" stroke="#00d9d9" stroke-miterlimit="50" xlink:href="#l4oya"/></g><g><use fill="#00d9d9" xlink:href="#l4oyb"/></g></g></g></svg>