<svg xmlns="http://www.w3.org/2000/svg" xmlns:xlink="http://www.w3.org/1999/xlink" width="11" height="11" viewBox="0 0 11 11"><defs><path id="p75ha" d="M181.98 17.52c-.03-.1-.23-.23-.6-.41a18.2 18.2 0 0 0-.91-.5 16.59 16.59 0 0 1-.9-.56.51.51 0 0 0-.22-.05c-.1 0-.23.07-.39.22s-.3.31-.43.49c-.13.17-.27.33-.41.48-.15.15-.27.22-.36.22a.53.53 0 0 1-.18-.04 1.82 1.82 0 0 1-.5-.26 8.21 8.21 0 0 1-1.83-1.36 8.2 8.2 0 0 1-1.66-2.5c0-.1.07-.22.22-.37.15-.14.3-.28.48-.41.18-.13.34-.27.49-.43.15-.16.22-.29.22-.4a.51.51 0 0 0-.05-.21l-.17-.28-.14-.2a17.2 17.2 0 0 1-.51-.91l-.24-.42c-.18-.37-.32-.57-.41-.6a.44.44 0 0 0-.17-.02 3.1 3.1 0 0 0-1.09.24c-.25.11-.53.43-.82.96a3.03 3.03 0 0 0-.16 2.68 30.16 30.16 0 0 0 .3.81c.18.52.4.97.65 1.37.4.67.97 1.36 1.68 2.07.71.71 1.4 1.27 2.07 1.68a7.09 7.09 0 0 0 1.75.8 31.33 31.33 0 0 0 .8.26 3.4 3.4 0 0 0 .86.13c.48 0 .97-.13 1.45-.4.53-.29.85-.57.96-.83a3.08 3.08 0 0 0 .22-1.25z"/></defs><g><g transform="translate(-171 -9)"><use fill="#00d9d9" xlink:href="#p75ha"/></g></g></svg>