<svg xmlns="http://www.w3.org/2000/svg" xmlns:xlink="http://www.w3.org/1999/xlink" width="35" height="35" viewBox="0 0 35 35"><defs><path id="851za" d="M699.63 8571.62l-13.43-4.1 13.43-19.4zm-13.84 1.5v-4.3l3.35 1.02zm-1.25-5.61a.68.68 0 0 0-.12.39v4.18l-3-5.46 13.26-13.75zm16.11-22.42a.68.68 0 0 0-.68 0l-12.53 7.41a.68.68 0 1 0 .7 1.18l8.98-5.32-16.74 17.38-8.32-2.55 10.86-6.43a.68.68 0 0 0-.7-1.17l-12.2 7.21a.68.68 0 0 0 .15 1.24l9.95 3.04 4.38 7.99.02.02a.68.68 0 0 0 1.06.14l5.05-4.93 9.49 2.9a.68.68 0 0 0 .88-.65v-26.87a.68.68 0 0 0-.35-.59z"/><path id="851zb" d="M677.24 8568.76a.68.68 0 0 0-.97 0l-6.38 6.38a.68.68 0 0 0 .97.97l6.38-6.38a.68.68 0 0 0 0-.97z"/><path id="851zc" d="M668.74 8577.26a.68.68 0 0 0-.97 0l-1.57 1.57a.68.68 0 0 0 .97.97l1.57-1.57a.68.68 0 0 0 0-.97z"/><path id="851zd" d="M675.75 8578.79a.69.69 0 0 0-.97 0 .69.69 0 0 0 0 .97.69.69 0 0 0 .97 0 .69.69 0 0 0 0-.97z"/><path id="851ze" d="M680.84 8573.71a.68.68 0 0 0-.97 0l-3.38 3.38a.68.68 0 0 0 .97.97l3.38-3.38a.68.68 0 0 0 0-.97z"/><path id="851zf" d="M692.5 8573.45a.68.68 0 0 0-.96 0l-3.39 3.39a.68.68 0 0 0 .97.97l3.39-3.4a.68.68 0 0 0 0-.96z"/><path id="851zg" d="M685.38 8554.32a.69.69 0 0 0-.97 0c-.13.13-.2.3-.2.48a.69.69 0 0 0 .68.69.69.69 0 0 0 .49-1.17z"/></defs><g><g transform="translate(-666 -8545)"><g><use fill="#818fff" xlink:href="#851za"/></g><g><use fill="#818fff" xlink:href="#851zb"/></g><g><use fill="#818fff" xlink:href="#851zc"/></g><g><use fill="#818fff" xlink:href="#851zd"/></g><g><use fill="#818fff" xlink:href="#851ze"/></g><g><use fill="#818fff" xlink:href="#851zf"/></g><g><use fill="#818fff" xlink:href="#851zg"/></g></g></g></svg>