<svg xmlns="http://www.w3.org/2000/svg" xmlns:xlink="http://www.w3.org/1999/xlink" width="59" height="48" viewBox="0 0 59 48"><defs><path id="99lfa" d="M36.95 3018.9c.12.44.04.88-.25 1.29-.32.45-.7.7-1.15.74-6.92.98-10.42 4.27-10.5 9.87h6.25c.45 0 .83.16 1.15.49.33.33.49.72.49 1.17v23.81a1.69 1.69 0 0 1-1.64 1.73H11.7c-.45 0-.84-.16-1.18-.5a1.64 1.64 0 0 1-.52-1.23v-20.6c0-8.14 1.96-14.35 5.89-18.63 3.92-4.28 9.83-6.62 17.72-7.03.4-.04.77.06 1.09.3.32.25.53.58.6 1zm32 0c.12.44.04.88-.25 1.29a1.7 1.7 0 0 1-1.15.74c-6.92.98-10.42 4.27-10.5 9.87h6.25c.45 0 .83.16 1.15.49.33.33.49.72.49 1.17v23.81a1.69 1.69 0 0 1-1.64 1.73H43.7c-.45 0-.84-.16-1.18-.5a1.64 1.64 0 0 1-.52-1.23v-20.6c0-8.14 1.96-14.35 5.89-18.63 3.92-4.28 9.83-6.62 17.72-7.03.4-.04.77.06 1.09.3.32.25.53.58.6 1l1.65 7.58z"/></defs><g><g opacity=".1" transform="translate(-10 -3010)"><use fill="#818fff" xlink:href="#99lfa"/></g></g></svg>