<svg xmlns="http://www.w3.org/2000/svg" xmlns:xlink="http://www.w3.org/1999/xlink" width="10" height="10" viewBox="0 0 10 10"><defs><path id="dda8a" d="M972.54 589l3.4-3.4a.2.2 0 0 0 0-.29l-1.26-1.25a.2.2 0 0 0-.3 0l-3.38 3.39-3.4-3.39a.21.21 0 0 0-.29 0l-1.25 1.25a.2.2 0 0 0 0 .3l3.39 3.39-3.39 3.39a.2.2 0 0 0 0 .29l1.25 1.25a.2.2 0 0 0 .3 0l3.39-3.39 3.39 3.4a.2.2 0 0 0 .29 0l1.25-1.26a.2.2 0 0 0 0-.3z"/></defs><g><g opacity=".4" transform="translate(-966 -584)"><use fill="#96989f" xlink:href="#dda8a"/></g></g></svg>