<svg xmlns="http://www.w3.org/2000/svg" xmlns:xlink="http://www.w3.org/1999/xlink" width="14" height="14" viewBox="0 0 14 14"><defs><path id="7hnqa" d="M1003.51 14.48a3.5 3.5 0 0 1-4.92 0 3.46 3.46 0 0 1 0-4.9 3.5 3.5 0 0 1 4.92 0 3.46 3.46 0 0 1 0 4.9zm6.31 4.55l-3.36-3.46c-.24-.25-.54-.35-.67-.22-.13.12-.43.02-.67-.23l-.05-.05a5.02 5.02 0 0 0-.45-6.6 5.06 5.06 0 0 0-7.14 0 5.02 5.02 0 0 0 0 7.12 5.06 5.06 0 0 0 6.72.38l.02.02c.24.25.33.55.2.68-.13.12-.04.43.2.68l3.36 3.46c.24.25.64.25.89.01l.94-.9a.63.63 0 0 0 .01-.9z"/></defs><g><g transform="translate(-996 -7)"><use fill="#00d9d9" xlink:href="#7hnqa"/></g></g></svg>