<svg xmlns="http://www.w3.org/2000/svg" xmlns:xlink="http://www.w3.org/1999/xlink" width="21" height="26" viewBox="0 0 21 26"><defs><path id="vbkca" d="M175.28 588.4a.47.47 0 0 0-.46.47c0 .26.2.48.46.48s.47-.22.47-.48-.21-.47-.47-.47z"/><path id="vbkcb" d="M192.79 589.54c0 2.98-.92 5.81-2.65 8.2a13.97 13.97 0 0 1-6.76 5.22c-2.51-.81-4.9-2.66-6.77-5.22a13.87 13.87 0 0 1-2.65-8.2v-6.17c2.48-.08 4.82-.82 6.96-2.2 1.2-.76 2.02-1.53 2.46-1.96 1.04 1.05 4 4 9.4 4.16zm.49-7.17c-5.4 0-8.3-2.96-9.25-3.93-.2-.2-.3-.3-.4-.36a.48.48 0 0 0-.52 0c-.07.04-.13.1-.26.24-.36.35-1.18 1.18-2.46 2a12.64 12.64 0 0 1-6.92 2.05.5.5 0 0 0-.5.5v6.67c0 3.2.99 6.24 2.85 8.8 2.02 2.79 4.65 4.79 7.4 5.64a.48.48 0 0 0 .3 0c2.75-.85 5.39-2.85 7.4-5.63a14.9 14.9 0 0 0 2.85-8.81v-6.66a.5.5 0 0 0-.5-.51z"/><path id="vbkcc" d="M191.48 584.3c-2.77-.31-5.4-1.44-7.81-3.35a.5.5 0 0 0-.62 0 16.29 16.29 0 0 1-7.79 3.33.5.5 0 0 0-.44.5v2.15c0 .28.23.5.5.5a.5.5 0 0 0 .5-.5v-1.7a17 17 0 0 0 7.53-3.25 16.15 16.15 0 0 0 7.57 3.26v4.28c0 2.52-.8 4.93-2.3 6.96a11.79 11.79 0 0 1-5.25 4.11c-2-.75-3.81-2.17-5.25-4.11a11.67 11.67 0 0 1-2.21-5.57.5.5 0 1 0-1 .12 12.69 12.69 0 0 0 2.4 6.05 12.73 12.73 0 0 0 5.9 4.53.5.5 0 0 0 .33 0c2.26-.8 4.3-2.37 5.9-4.53 1.62-2.2 2.48-4.82 2.48-7.56v-4.72a.5.5 0 0 0-.44-.5z"/><path id="vbkcd" d="M185.22 591.1a.5.5 0 0 0-.14.44l.35 2.08-1.83-.98a.48.48 0 0 0-.45 0l-1.83.98.35-2.08a.5.5 0 0 0-.14-.43l-1.48-1.48 2.04-.3c.16-.02.3-.12.37-.27l.91-1.89.92 1.9c.07.14.2.24.36.26l2.05.3zm2.98-1.96a.49.49 0 0 0-.39-.34l-2.76-.4-1.24-2.56a.48.48 0 0 0-.44-.28c-.18 0-.35.1-.43.28l-1.24 2.55-2.76.41a.49.49 0 0 0-.4.34.5.5 0 0 0 .13.5l2 2-.47 2.8a.5.5 0 0 0 .19.48.48.48 0 0 0 .51.04l2.47-1.33 2.48 1.33c.16.09.36.07.5-.04a.5.5 0 0 0 .2-.48l-.47-2.8 2-2a.5.5 0 0 0 .12-.5z"/></defs><g><g transform="translate(-173 -578)"><g><use fill="#00d9d9" xlink:href="#vbkca"/></g><g><use fill="#00d9d9" xlink:href="#vbkcb"/></g><g><use fill="#00d9d9" xlink:href="#vbkcc"/></g><g><use fill="#00d9d9" xlink:href="#vbkcd"/></g></g></g></svg>