<svg xmlns="http://www.w3.org/2000/svg" xmlns:xlink="http://www.w3.org/1999/xlink" width="26" height="26" viewBox="0 0 26 26"><defs><path id="eze9a" d="M28.94 583.39a.5.5 0 1 0 0 1.01.5.5 0 0 0 0-1.01z"/><path id="eze9b" d="M41.62 590.5a8.64 8.64 0 0 0-8.11-8.12v-1.17a9.96 9.96 0 0 1 9.28 9.28zm-8.11 10.29v-1.17a8.64 8.64 0 0 0 8.1-8.11h1.18a9.96 9.96 0 0 1-9.28 9.28zm-.51-4.21a.5.5 0 0 0-.51.5v1.51a7.62 7.62 0 0 1-7.1-7.09h1.51a.5.5 0 1 0 0-1.01h-1.5c.12-1.83.89-3.54 2.2-4.86a.5.5 0 0 0-.72-.72 8.57 8.57 0 0 0-2.5 5.58h-1.17a9.95 9.95 0 0 1 9.28-9.28v1.17a8.6 8.6 0 0 0-1.72.28.5.5 0 0 0 .27.98c.47-.13.96-.2 1.45-.24v1.5a.5.5 0 1 0 1.01 0v-1.5c3.8.25 6.84 3.3 7.1 7.09h-1.51a.5.5 0 1 0 0 1.01h1.5a7.62 7.62 0 0 1-7.09 7.1v-1.51a.5.5 0 0 0-.5-.51zm-.5 4.2a9.96 9.96 0 0 1-9.29-9.27h1.17a8.64 8.64 0 0 0 8.11 8.1zm13-10.29h-1.7a10.74 10.74 0 0 0-3.18-7.1 10.74 10.74 0 0 0-7.11-3.2v-1.68a.5.5 0 1 0-1.02 0v1.69a10.74 10.74 0 0 0-7.1 3.18 10.74 10.74 0 0 0-3.2 7.11h-1.68a.5.5 0 1 0 0 1.02h1.69a10.74 10.74 0 0 0 3.18 7.1 10.74 10.74 0 0 0 7.11 3.2v1.68a.5.5 0 1 0 1.02 0v-1.69a10.74 10.74 0 0 0 7.1-3.18 10.74 10.74 0 0 0 3.2-7.11h1.68a.5.5 0 1 0 0-1.02z"/><path id="eze9c" d="M33.51 590.5v-1.99c.99.2 1.77.99 1.97 1.98zm0 2.98v-1.97h1.97c-.2.99-.98 1.77-1.97 1.97zm-1.02-2.99h-1.98c.2-.99.99-1.77 1.98-1.98zm0 3c-.99-.2-1.77-1-1.98-1.98h1.98zm4.57-3h-.54a3.56 3.56 0 0 0-3.01-3v-.55a.5.5 0 1 0-1.02 0v.54a3.56 3.56 0 0 0-3 3.01h-.55a.5.5 0 1 0 0 1.02h.54a3.56 3.56 0 0 0 3.01 3.01v.54a.5.5 0 1 0 1.02 0v-.54a3.56 3.56 0 0 0 3.01-3.01h.54a.5.5 0 1 0 0-1.02z"/></defs><g><g transform="translate(-20 -578)"><g><use fill="#00d9d9" xlink:href="#eze9a"/></g><g><use fill="#00d9d9" xlink:href="#eze9b"/></g><g><use fill="#00d9d9" xlink:href="#eze9c"/></g></g></g></svg>