<svg xmlns="http://www.w3.org/2000/svg" xmlns:xlink="http://www.w3.org/1999/xlink" width="41" height="40" viewBox="0 0 41 40"><defs><path id="g0a3a" d="M1285.46 2181.07a29.33 29.33 0 0 0-2.2-3.56c-1.2-1.65-9.23-12.99-19.2-11.35-3.71.61-7 2.69-9.59 5.6-4.24 2.58-7.49 6.67-8.28 11.57-1 6.18 2.13 12.12 7 16.1 4.32 4.85 11.23 7.68 17.66 6.16 2.18-.52 8.93-.95 13.15-6.72 5.6-7.67 1.69-17.27 1.46-17.8z"/><path id="g0a3b" d="M1262.4 2190l4.6-4.35 4.6 4.35 1.4-1.32-6-5.68-6 5.68z"/></defs><g><g transform="translate(-1246 -2166)"><g><use fill="#00d9d9" xlink:href="#g0a3a"/></g><g><use fill="#fff" xlink:href="#g0a3b"/></g></g></g></svg>