<svg width="979" height="553" viewBox="0 0 979 553" fill="none" xmlns="http://www.w3.org/2000/svg">
<path d="M506.652 421.053C506.652 418.21 505.94 415.461 504.574 413.1L504.25 412.541H483.977L483.66 413.1C482.297 415.457 481.582 418.21 481.582 421.053C481.582 428.306 486.264 434.314 492.339 435.308V452.243C488.834 452.383 486.223 452.908 486.223 453.53C486.223 454.268 489.782 454.86 494.174 454.86C498.57 454.86 502.135 454.268 502.135 453.53C502.135 452.908 499.524 452.383 496.019 452.243V435.295C502.034 434.238 506.652 428.252 506.652 421.053ZM494.113 433.243C488.44 433.243 483.818 427.777 483.818 421.047C483.818 418.806 484.327 416.641 485.302 414.742H502.928C503.9 416.641 504.416 418.809 504.416 421.047C504.419 427.78 499.791 433.243 494.113 433.243ZM528.117 393.877H519.201V386.256H528.117V393.877ZM528.117 403.32V396.221H519.201V403.324C515.436 404.996 512.805 408.727 512.805 413.07V420.029V442.218V455.256H534.509V442.218V420.029V413.07C534.512 408.727 531.888 404.996 528.117 403.32ZM532.593 444.499H514.913V423.591H532.593V444.499ZM503.481 421.283C503.481 421.283 503.012 432.339 494.265 432.339C485.518 432.339 484.338 421.283 484.338 421.283H503.481Z" fill="#211F1D"/>
<circle cx="512" cy="497.569" r="25" fill="#F26A51"/>
<circle cx="512" cy="497.569" r="7.5" fill="#211F1D"/>
<path d="M452.486 541.761C453.243 541.943 453.814 542.268 454.198 542.737C454.592 543.196 454.79 543.788 454.79 544.513C454.79 545.484 454.432 546.236 453.718 546.769C453.014 547.303 451.984 547.569 450.63 547.569H445.51V536.369H450.326C451.552 536.369 452.507 536.62 453.19 537.121C453.883 537.612 454.23 538.321 454.23 539.249C454.23 539.857 454.075 540.375 453.766 540.801C453.467 541.228 453.04 541.548 452.486 541.761ZM447.094 541.297H450.214C450.992 541.297 451.584 541.143 451.99 540.833C452.406 540.524 452.614 540.071 452.614 539.473C452.614 538.876 452.406 538.423 451.99 538.113C451.574 537.793 450.982 537.633 450.214 537.633H447.094V541.297ZM450.598 546.305C452.315 546.305 453.174 545.665 453.174 544.385C453.174 543.745 452.955 543.276 452.518 542.977C452.091 542.668 451.451 542.513 450.598 542.513H447.094V546.305H450.598ZM461.031 541.969C462.097 541.98 462.913 542.225 463.479 542.705C464.044 543.185 464.327 543.863 464.327 544.737C464.327 545.655 464.017 546.364 463.399 546.865C462.791 547.356 461.916 547.596 460.775 547.585L457.207 547.569V539.089H458.743V541.953L461.031 541.969ZM465.591 539.089H467.127V547.569H465.591V539.089ZM460.663 546.417C461.356 546.428 461.879 546.289 462.231 546.001C462.593 545.713 462.775 545.287 462.775 544.721C462.775 544.167 462.599 543.761 462.247 543.505C461.895 543.249 461.367 543.116 460.663 543.105L458.743 543.073V546.401L460.663 546.417ZM477.969 539.089V547.569H476.433V540.433H471.649V547.569H470.113V539.089H477.969ZM488.509 539.089L484.397 548.417C484.034 549.281 483.608 549.889 483.117 550.241C482.637 550.593 482.056 550.769 481.373 550.769C480.957 550.769 480.552 550.7 480.157 550.561C479.773 550.433 479.453 550.241 479.197 549.985L479.853 548.833C480.29 549.249 480.797 549.457 481.373 549.457C481.746 549.457 482.056 549.356 482.301 549.153C482.557 548.961 482.786 548.625 482.989 548.145L483.261 547.553L479.517 539.089H481.117L484.077 545.873L487.005 539.089H488.509ZM493.543 547.665C492.679 547.665 491.906 547.479 491.223 547.105C490.551 546.732 490.023 546.22 489.639 545.569C489.255 544.908 489.063 544.161 489.063 543.329C489.063 542.497 489.255 541.756 489.639 541.105C490.023 540.444 490.551 539.932 491.223 539.569C491.906 539.196 492.679 539.009 493.543 539.009C494.311 539.009 494.994 539.164 495.591 539.473C496.199 539.783 496.669 540.231 496.999 540.817L495.831 541.569C495.565 541.164 495.234 540.86 494.839 540.657C494.445 540.455 494.007 540.353 493.527 540.353C492.973 540.353 492.471 540.476 492.023 540.721C491.586 540.967 491.239 541.319 490.983 541.777C490.738 542.225 490.615 542.743 490.615 543.329C490.615 543.927 490.738 544.455 490.983 544.913C491.239 545.361 491.586 545.708 492.023 545.953C492.471 546.199 492.973 546.321 493.527 546.321C494.007 546.321 494.445 546.22 494.839 546.017C495.234 545.815 495.565 545.511 495.831 545.105L496.999 545.841C496.669 546.428 496.199 546.881 495.591 547.201C494.994 547.511 494.311 547.665 493.543 547.665ZM502.284 543.985H500.524V547.569H498.988V539.089H500.524V542.673H502.316L505.068 539.089H506.716L503.5 543.169L506.94 547.569H505.132L502.284 543.985ZM520.703 539.089V547.569H519.167V540.433H514.383V547.569H512.847V539.089H520.703ZM528.172 539.009C528.993 539.009 529.729 539.191 530.38 539.553C531.03 539.916 531.537 540.423 531.9 541.073C532.273 541.724 532.46 542.476 532.46 543.329C532.46 544.183 532.273 544.94 531.9 545.601C531.537 546.252 531.03 546.759 530.38 547.121C529.729 547.484 528.993 547.665 528.172 547.665C527.564 547.665 527.004 547.548 526.492 547.313C525.99 547.079 525.564 546.737 525.212 546.289V550.673H523.676V539.089H525.148V540.433C525.489 539.964 525.921 539.612 526.444 539.377C526.966 539.132 527.542 539.009 528.172 539.009ZM528.044 546.321C528.588 546.321 529.073 546.199 529.5 545.953C529.937 545.697 530.278 545.345 530.524 544.897C530.78 544.439 530.908 543.916 530.908 543.329C530.908 542.743 530.78 542.225 530.524 541.777C530.278 541.319 529.937 540.967 529.5 540.721C529.073 540.476 528.588 540.353 528.044 540.353C527.51 540.353 527.025 540.481 526.588 540.737C526.161 540.983 525.82 541.329 525.564 541.777C525.318 542.225 525.196 542.743 525.196 543.329C525.196 543.916 525.318 544.439 525.564 544.897C525.809 545.345 526.15 545.697 526.588 545.953C527.025 546.199 527.51 546.321 528.044 546.321ZM538.323 547.665C537.48 547.665 536.723 547.479 536.051 547.105C535.379 546.732 534.851 546.22 534.467 545.569C534.094 544.908 533.907 544.161 533.907 543.329C533.907 542.497 534.094 541.756 534.467 541.105C534.851 540.444 535.379 539.932 536.051 539.569C536.723 539.196 537.48 539.009 538.323 539.009C539.166 539.009 539.918 539.196 540.579 539.569C541.251 539.932 541.774 540.444 542.147 541.105C542.531 541.756 542.723 542.497 542.723 543.329C542.723 544.161 542.531 544.908 542.147 545.569C541.774 546.22 541.251 546.732 540.579 547.105C539.918 547.479 539.166 547.665 538.323 547.665ZM538.323 546.321C538.867 546.321 539.352 546.199 539.779 545.953C540.216 545.697 540.558 545.345 540.803 544.897C541.048 544.439 541.171 543.916 541.171 543.329C541.171 542.743 541.048 542.225 540.803 541.777C540.558 541.319 540.216 540.967 539.779 540.721C539.352 540.476 538.867 540.353 538.323 540.353C537.779 540.353 537.288 540.476 536.851 540.721C536.424 540.967 536.083 541.319 535.827 541.777C535.582 542.225 535.459 542.743 535.459 543.329C535.459 543.916 535.582 544.439 535.827 544.897C536.083 545.345 536.424 545.697 536.851 545.953C537.288 546.199 537.779 546.321 538.323 546.321ZM552.605 543.377C552.605 543.495 552.594 543.649 552.573 543.841H545.693C545.789 544.588 546.114 545.191 546.669 545.649C547.234 546.097 547.933 546.321 548.765 546.321C549.778 546.321 550.594 545.98 551.213 545.297L552.061 546.289C551.677 546.737 551.197 547.079 550.621 547.313C550.056 547.548 549.421 547.665 548.717 547.665C547.821 547.665 547.026 547.484 546.333 547.121C545.64 546.748 545.101 546.231 544.717 545.569C544.344 544.908 544.157 544.161 544.157 543.329C544.157 542.508 544.338 541.767 544.701 541.105C545.074 540.444 545.581 539.932 546.221 539.569C546.872 539.196 547.602 539.009 548.413 539.009C549.224 539.009 549.944 539.196 550.573 539.569C551.213 539.932 551.709 540.444 552.061 541.105C552.424 541.767 552.605 542.524 552.605 543.377ZM548.413 540.305C547.677 540.305 547.058 540.529 546.557 540.977C546.066 541.425 545.778 542.012 545.693 542.737H551.133C551.048 542.023 550.754 541.441 550.253 540.993C549.762 540.535 549.149 540.305 548.413 540.305ZM558.284 543.985H556.524V547.569H554.988V539.089H556.524V542.673H558.316L561.068 539.089H562.716L559.5 543.169L562.94 547.569H561.132L558.284 543.985ZM570.73 540.433H567.626V547.569H566.09V540.433H562.986V539.089H570.73V540.433ZM575.325 539.009C576.498 539.009 577.394 539.297 578.013 539.873C578.642 540.449 578.957 541.308 578.957 542.449V547.569H577.501V546.449C577.245 546.844 576.877 547.148 576.397 547.361C575.927 547.564 575.367 547.665 574.717 547.665C573.767 547.665 573.005 547.436 572.429 546.977C571.863 546.519 571.581 545.916 571.581 545.169C571.581 544.423 571.853 543.825 572.397 543.377C572.941 542.919 573.805 542.689 574.989 542.689H577.421V542.385C577.421 541.724 577.229 541.217 576.845 540.865C576.461 540.513 575.895 540.337 575.149 540.337C574.647 540.337 574.157 540.423 573.677 540.593C573.197 540.753 572.791 540.972 572.461 541.249L571.821 540.097C572.258 539.745 572.781 539.479 573.389 539.297C573.997 539.105 574.642 539.009 575.325 539.009ZM574.973 546.481C575.559 546.481 576.066 546.353 576.493 546.097C576.919 545.831 577.229 545.457 577.421 544.977V543.793H575.053C573.751 543.793 573.101 544.231 573.101 545.105C573.101 545.532 573.266 545.868 573.597 546.113C573.927 546.359 574.386 546.481 574.973 546.481Z" fill="black"/>
<rect x="295.914" y="278.776" width="300" height="4" transform="rotate(45 295.914 278.776)" fill="url(#paint0_linear)"/>
<circle cx="282" cy="265.421" r="25" fill="#CE7EFF"/>
<circle cx="282" cy="265.421" r="7.5" fill="#211F1D"/>
<path d="M230.182 225.549C229.052 225.549 228.033 225.304 227.126 224.813C226.22 224.312 225.505 223.624 224.982 222.749C224.47 221.874 224.214 220.898 224.214 219.821C224.214 218.744 224.47 217.768 224.982 216.893C225.505 216.018 226.22 215.336 227.126 214.845C228.033 214.344 229.052 214.093 230.182 214.093C231.302 214.093 232.316 214.344 233.222 214.845C234.129 215.336 234.838 216.018 235.35 216.893C235.862 217.757 236.118 218.733 236.118 219.821C236.118 220.909 235.862 221.89 235.35 222.765C234.838 223.629 234.129 224.312 233.222 224.813C232.316 225.304 231.302 225.549 230.182 225.549ZM230.182 224.125C231.004 224.125 231.74 223.938 232.39 223.565C233.052 223.192 233.569 222.68 233.942 222.029C234.326 221.368 234.518 220.632 234.518 219.821C234.518 219.01 234.326 218.28 233.942 217.629C233.569 216.968 233.052 216.45 232.39 216.077C231.74 215.704 231.004 215.517 230.182 215.517C229.361 215.517 228.614 215.704 227.942 216.077C227.281 216.45 226.758 216.968 226.374 217.629C226.001 218.28 225.814 219.01 225.814 219.821C225.814 220.632 226.001 221.368 226.374 222.029C226.758 222.68 227.281 223.192 227.942 223.565C228.614 223.938 229.361 224.125 230.182 224.125ZM246.305 216.941V225.421H244.769V218.285H239.985V225.421H238.449V216.941H246.305ZM255.597 218.285H252.493V225.421H250.957V218.285H247.853V216.941H255.597V218.285ZM257.168 216.941H258.704V223.117L263.904 216.941H265.296V225.421H263.76V219.245L258.576 225.421H257.168V216.941ZM278.053 216.941V225.421H276.661V219.229L273.493 224.461H272.821L269.685 219.213V225.421H268.277V216.941H269.861L273.189 222.669L276.613 216.941H278.053ZM281.043 216.941H282.579V223.117L287.779 216.941H289.171V225.421H287.635V219.245L282.451 225.421H281.043V216.941ZM296.603 221.005C297.169 221.154 297.606 221.394 297.915 221.725C298.225 222.056 298.379 222.466 298.379 222.957C298.379 223.458 298.209 223.906 297.867 224.301C297.526 224.685 297.051 224.989 296.443 225.213C295.846 225.426 295.174 225.533 294.427 225.533C293.798 225.533 293.179 225.453 292.571 225.293C291.974 225.122 291.441 224.882 290.971 224.573L291.435 223.405C291.841 223.661 292.305 223.864 292.827 224.013C293.35 224.152 293.878 224.221 294.411 224.221C295.137 224.221 295.713 224.098 296.139 223.853C296.577 223.597 296.795 223.256 296.795 222.829C296.795 222.434 296.619 222.13 296.267 221.917C295.926 221.704 295.441 221.597 294.811 221.597H293.259V220.493H294.699C295.275 220.493 295.729 220.392 296.059 220.189C296.39 219.986 296.555 219.709 296.555 219.357C296.555 218.973 296.358 218.674 295.963 218.461C295.579 218.248 295.057 218.141 294.395 218.141C293.553 218.141 292.662 218.36 291.723 218.797L291.307 217.613C292.342 217.09 293.425 216.829 294.555 216.829C295.238 216.829 295.851 216.925 296.395 217.117C296.939 217.309 297.366 217.581 297.675 217.933C297.985 218.285 298.139 218.685 298.139 219.133C298.139 219.549 298.001 219.922 297.723 220.253C297.446 220.584 297.073 220.834 296.603 221.005ZM303.739 216.861C304.912 216.861 305.808 217.149 306.427 217.725C307.056 218.301 307.371 219.16 307.371 220.301V225.421H305.915V224.301C305.659 224.696 305.291 225 304.811 225.213C304.341 225.416 303.781 225.517 303.131 225.517C302.181 225.517 301.419 225.288 300.843 224.829C300.277 224.37 299.995 223.768 299.995 223.021C299.995 222.274 300.267 221.677 300.811 221.229C301.355 220.77 302.219 220.541 303.403 220.541H305.835V220.237C305.835 219.576 305.643 219.069 305.259 218.717C304.875 218.365 304.309 218.189 303.563 218.189C303.061 218.189 302.571 218.274 302.091 218.445C301.611 218.605 301.205 218.824 300.875 219.101L300.235 217.949C300.672 217.597 301.195 217.33 301.803 217.149C302.411 216.957 303.056 216.861 303.739 216.861ZM303.387 224.333C303.973 224.333 304.48 224.205 304.907 223.949C305.333 223.682 305.643 223.309 305.835 222.829V221.645H303.467C302.165 221.645 301.515 222.082 301.515 222.957C301.515 223.384 301.68 223.72 302.011 223.965C302.341 224.21 302.8 224.333 303.387 224.333ZM319.192 224.077V227.453H317.736V225.421H310.136V216.941H311.672V224.077H316.312V216.941H317.848V224.077H319.192ZM321.183 216.941H322.719V223.117L327.919 216.941H329.311V225.421H327.775V219.245L322.591 225.421H321.183V216.941ZM339.093 216.941V225.421H337.717V222.733H335.253H335.077L333.221 225.421H331.573L333.637 222.525C332.997 222.333 332.506 222.018 332.165 221.581C331.823 221.133 331.653 220.578 331.653 219.917C331.653 218.946 331.983 218.21 332.645 217.709C333.306 217.197 334.218 216.941 335.381 216.941H339.093ZM333.221 219.965C333.221 220.53 333.397 220.952 333.749 221.229C334.111 221.496 334.65 221.629 335.365 221.629H337.717V218.285H335.429C333.957 218.285 333.221 218.845 333.221 219.965Z" fill="black"/>
<rect x="305.214" y="264.023" width="414" height="4" fill="url(#paint1_linear)"/>
<circle cx="742" cy="265.421" r="25" fill="#7EC1FF"/>
<circle cx="742" cy="265.421" r="7.5" fill="#211F1D"/>
<path d="M699.721 304.221C701.172 304.221 702.313 304.568 703.145 305.261C703.977 305.954 704.393 306.909 704.393 308.125C704.393 309.341 703.977 310.296 703.145 310.989C702.313 311.682 701.172 312.029 699.721 312.029H696.953V315.421H695.353V304.221H699.721ZM699.673 310.637C700.687 310.637 701.46 310.424 701.993 309.997C702.527 309.56 702.793 308.936 702.793 308.125C702.793 307.314 702.527 306.696 701.993 306.269C701.46 305.832 700.687 305.613 699.673 305.613H696.953V310.637H699.673ZM709.309 306.861C710.482 306.861 711.378 307.149 711.997 307.725C712.626 308.301 712.941 309.16 712.941 310.301V315.421H711.485V314.301C711.229 314.696 710.861 315 710.381 315.213C709.912 315.416 709.352 315.517 708.701 315.517C707.752 315.517 706.989 315.288 706.413 314.829C705.848 314.37 705.565 313.768 705.565 313.021C705.565 312.274 705.837 311.677 706.381 311.229C706.925 310.77 707.789 310.541 708.973 310.541H711.405V310.237C711.405 309.576 711.213 309.069 710.829 308.717C710.445 308.365 709.88 308.189 709.133 308.189C708.632 308.189 708.141 308.274 707.661 308.445C707.181 308.605 706.776 308.824 706.445 309.101L705.805 307.949C706.242 307.597 706.765 307.33 707.373 307.149C707.981 306.957 708.626 306.861 709.309 306.861ZM708.957 314.333C709.544 314.333 710.05 314.205 710.477 313.949C710.904 313.682 711.213 313.309 711.405 312.829V311.645H709.037C707.736 311.645 707.085 312.082 707.085 312.957C707.085 313.384 707.25 313.72 707.581 313.965C707.912 314.21 708.37 314.333 708.957 314.333ZM720.158 311.005C720.723 311.154 721.161 311.394 721.47 311.725C721.779 312.056 721.934 312.466 721.934 312.957C721.934 313.458 721.763 313.906 721.422 314.301C721.081 314.685 720.606 314.989 719.998 315.213C719.401 315.426 718.729 315.533 717.982 315.533C717.353 315.533 716.734 315.453 716.126 315.293C715.529 315.122 714.995 314.882 714.526 314.573L714.99 313.405C715.395 313.661 715.859 313.864 716.382 314.013C716.905 314.152 717.433 314.221 717.966 314.221C718.691 314.221 719.267 314.098 719.694 313.853C720.131 313.597 720.35 313.256 720.35 312.829C720.35 312.434 720.174 312.13 719.822 311.917C719.481 311.704 718.995 311.597 718.366 311.597H716.814V310.493H718.254C718.83 310.493 719.283 310.392 719.614 310.189C719.945 309.986 720.11 309.709 720.11 309.357C720.11 308.973 719.913 308.674 719.518 308.461C719.134 308.248 718.611 308.141 717.95 308.141C717.107 308.141 716.217 308.36 715.278 308.797L714.862 307.613C715.897 307.09 716.979 306.829 718.11 306.829C718.793 306.829 719.406 306.925 719.95 307.117C720.494 307.309 720.921 307.581 721.23 307.933C721.539 308.285 721.694 308.685 721.694 309.133C721.694 309.549 721.555 309.922 721.278 310.253C721.001 310.584 720.627 310.834 720.158 311.005ZM728.765 306.861C729.587 306.861 730.323 307.042 730.973 307.405C731.624 307.768 732.131 308.274 732.493 308.925C732.867 309.576 733.053 310.328 733.053 311.181C733.053 312.034 732.867 312.792 732.493 313.453C732.131 314.104 731.624 314.61 730.973 314.973C730.323 315.336 729.587 315.517 728.765 315.517C728.157 315.517 727.597 315.4 727.085 315.165C726.584 314.93 726.157 314.589 725.805 314.141V318.525H724.269V306.941H725.741V308.285C726.083 307.816 726.515 307.464 727.037 307.229C727.56 306.984 728.136 306.861 728.765 306.861ZM728.637 314.173C729.181 314.173 729.667 314.05 730.093 313.805C730.531 313.549 730.872 313.197 731.117 312.749C731.373 312.29 731.501 311.768 731.501 311.181C731.501 310.594 731.373 310.077 731.117 309.629C730.872 309.17 730.531 308.818 730.093 308.573C729.667 308.328 729.181 308.205 728.637 308.205C728.104 308.205 727.619 308.333 727.181 308.589C726.755 308.834 726.413 309.181 726.157 309.629C725.912 310.077 725.789 310.594 725.789 311.181C725.789 311.768 725.912 312.29 726.157 312.749C726.403 313.197 726.744 313.549 727.181 313.805C727.619 314.05 728.104 314.173 728.637 314.173ZM738.231 306.861C739.404 306.861 740.3 307.149 740.919 307.725C741.548 308.301 741.863 309.16 741.863 310.301V315.421H740.407V314.301C740.151 314.696 739.783 315 739.303 315.213C738.833 315.416 738.273 315.517 737.623 315.517C736.673 315.517 735.911 315.288 735.335 314.829C734.769 314.37 734.487 313.768 734.487 313.021C734.487 312.274 734.759 311.677 735.303 311.229C735.847 310.77 736.711 310.541 737.895 310.541H740.327V310.237C740.327 309.576 740.135 309.069 739.751 308.717C739.367 308.365 738.801 308.189 738.055 308.189C737.553 308.189 737.063 308.274 736.583 308.445C736.103 308.605 735.697 308.824 735.367 309.101L734.727 307.949C735.164 307.597 735.687 307.33 736.295 307.149C736.903 306.957 737.548 306.861 738.231 306.861ZM737.879 314.333C738.465 314.333 738.972 314.205 739.399 313.949C739.825 313.682 740.135 313.309 740.327 312.829V311.645H737.959C736.657 311.645 736.007 312.082 736.007 312.957C736.007 313.384 736.172 313.72 736.503 313.965C736.833 314.21 737.292 314.333 737.879 314.333ZM748.949 307.229C749.738 307.229 750.442 307.405 751.061 307.757C751.679 308.109 752.159 308.6 752.501 309.229C752.853 309.848 753.029 310.557 753.029 311.357C753.029 312.178 752.842 312.909 752.469 313.549C752.106 314.178 751.589 314.669 750.917 315.021C750.255 315.373 749.498 315.549 748.645 315.549C747.205 315.549 746.09 315.058 745.301 314.077C744.522 313.085 744.133 311.693 744.133 309.901C744.133 308.162 744.49 306.802 745.205 305.821C745.919 304.829 747.013 304.173 748.485 303.853L752.357 302.989L752.581 304.397L749.013 305.165C747.903 305.41 747.077 305.826 746.533 306.413C745.989 307 745.679 307.842 745.605 308.941C745.967 308.397 746.437 307.976 747.013 307.677C747.589 307.378 748.234 307.229 748.949 307.229ZM748.677 314.269C749.221 314.269 749.701 314.146 750.117 313.901C750.543 313.656 750.874 313.32 751.109 312.893C751.343 312.456 751.461 311.96 751.461 311.405C751.461 310.562 751.205 309.885 750.693 309.373C750.181 308.861 749.509 308.605 748.677 308.605C747.845 308.605 747.167 308.861 746.645 309.373C746.133 309.885 745.877 310.562 745.877 311.405C745.877 311.96 745.994 312.456 746.229 312.893C746.474 313.32 746.81 313.656 747.237 313.901C747.663 314.146 748.143 314.269 748.677 314.269ZM758.854 315.517C758.012 315.517 757.254 315.33 756.582 314.957C755.91 314.584 755.382 314.072 754.998 313.421C754.625 312.76 754.438 312.013 754.438 311.181C754.438 310.349 754.625 309.608 754.998 308.957C755.382 308.296 755.91 307.784 756.582 307.421C757.254 307.048 758.012 306.861 758.854 306.861C759.697 306.861 760.449 307.048 761.11 307.421C761.782 307.784 762.305 308.296 762.678 308.957C763.062 309.608 763.254 310.349 763.254 311.181C763.254 312.013 763.062 312.76 762.678 313.421C762.305 314.072 761.782 314.584 761.11 314.957C760.449 315.33 759.697 315.517 758.854 315.517ZM758.854 314.173C759.398 314.173 759.884 314.05 760.31 313.805C760.748 313.549 761.089 313.197 761.334 312.749C761.58 312.29 761.702 311.768 761.702 311.181C761.702 310.594 761.58 310.077 761.334 309.629C761.089 309.17 760.748 308.818 760.31 308.573C759.884 308.328 759.398 308.205 758.854 308.205C758.31 308.205 757.82 308.328 757.382 308.573C756.956 308.818 756.614 309.17 756.358 309.629C756.113 310.077 755.99 310.594 755.99 311.181C755.99 311.768 756.113 312.29 756.358 312.749C756.614 313.197 756.956 313.549 757.382 313.805C757.82 314.05 758.31 314.173 758.854 314.173ZM771.48 308.285H768.376V315.421H766.84V308.285H763.736V306.941H771.48V308.285ZM776.347 311.837H774.587V315.421H773.051V306.941H774.587V310.525H776.379L779.131 306.941H780.779L777.563 311.021L781.003 315.421H779.195L776.347 311.837ZM785.481 306.861C786.654 306.861 787.55 307.149 788.169 307.725C788.798 308.301 789.113 309.16 789.113 310.301V315.421H787.657V314.301C787.401 314.696 787.033 315 786.553 315.213C786.083 315.416 785.523 315.517 784.873 315.517C783.923 315.517 783.161 315.288 782.585 314.829C782.019 314.37 781.737 313.768 781.737 313.021C781.737 312.274 782.009 311.677 782.553 311.229C783.097 310.77 783.961 310.541 785.145 310.541H787.577V310.237C787.577 309.576 787.385 309.069 787.001 308.717C786.617 308.365 786.051 308.189 785.305 308.189C784.803 308.189 784.313 308.274 783.833 308.445C783.353 308.605 782.947 308.824 782.617 309.101L781.977 307.949C782.414 307.597 782.937 307.33 783.545 307.149C784.153 306.957 784.798 306.861 785.481 306.861ZM785.129 314.333C785.715 314.333 786.222 314.205 786.649 313.949C787.075 313.682 787.385 313.309 787.577 312.829V311.645H785.209C783.907 311.645 783.257 312.082 783.257 312.957C783.257 313.384 783.422 313.72 783.753 313.965C784.083 314.21 784.542 314.333 785.129 314.333Z" fill="black"/>
<rect x="748.24" y="253.177" width="260" height="4" transform="rotate(-45 748.24 253.177)" fill="url(#paint2_linear)"/>
<circle cx="947" cy="55.7793" r="25" fill="#F98DFC"/>
<circle cx="947" cy="55.7793" r="7.5" fill="#211F1D"/>
<path d="M927.439 14.3873V18.2273H925.951V15.7793H916.735L916.719 18.2273H915.231L915.247 14.3873H915.791C916.495 14.3446 916.991 13.79 917.279 12.7233C917.567 11.646 917.743 10.1313 917.807 8.1793L917.919 4.5793H925.791V14.3873H927.439ZM919.215 8.3233C919.162 9.90196 919.034 11.2086 918.831 12.2433C918.639 13.278 918.325 13.9926 917.887 14.3873H924.207V5.9713H919.295L919.215 8.3233ZM929.371 7.2993H930.907V13.4753L936.107 7.2993H937.499V15.7793H935.963V9.6033L930.779 15.7793H929.371V7.2993ZM944.932 11.3633C945.497 11.5126 945.934 11.7526 946.244 12.0833C946.553 12.414 946.708 12.8246 946.708 13.3153C946.708 13.8166 946.537 14.2646 946.196 14.6593C945.854 15.0433 945.38 15.3473 944.772 15.5713C944.174 15.7846 943.502 15.8913 942.756 15.8913C942.126 15.8913 941.508 15.8113 940.9 15.6513C940.302 15.4806 939.769 15.2406 939.3 14.9313L939.764 13.7633C940.169 14.0193 940.633 14.222 941.156 14.3713C941.678 14.51 942.206 14.5793 942.74 14.5793C943.465 14.5793 944.041 14.4566 944.468 14.2113C944.905 13.9553 945.124 13.614 945.124 13.1873C945.124 12.7926 944.948 12.4886 944.596 12.2753C944.254 12.062 943.769 11.9553 943.14 11.9553H941.588V10.8513H943.028C943.604 10.8513 944.057 10.75 944.388 10.5473C944.718 10.3446 944.884 10.0673 944.884 9.7153C944.884 9.3313 944.686 9.03263 944.292 8.8193C943.908 8.60596 943.385 8.4993 942.724 8.4993C941.881 8.4993 940.99 8.71796 940.052 9.1553L939.636 7.9713C940.67 7.44863 941.753 7.1873 942.884 7.1873C943.566 7.1873 944.18 7.2833 944.724 7.4753C945.268 7.6673 945.694 7.9393 946.004 8.2913C946.313 8.6433 946.468 9.0433 946.468 9.4913C946.468 9.9073 946.329 10.2806 946.052 10.6113C945.774 10.942 945.401 11.1926 944.932 11.3633ZM952.067 7.2193C953.24 7.2193 954.136 7.5073 954.755 8.0833C955.384 8.6593 955.699 9.51796 955.699 10.6593V15.7793H954.243V14.6593C953.987 15.054 953.619 15.358 953.139 15.5713C952.669 15.774 952.109 15.8753 951.459 15.8753C950.509 15.8753 949.747 15.646 949.171 15.1873C948.605 14.7286 948.323 14.126 948.323 13.3793C948.323 12.6326 948.595 12.0353 949.139 11.5873C949.683 11.1286 950.547 10.8993 951.731 10.8993H954.163V10.5953C954.163 9.93396 953.971 9.4273 953.587 9.0753C953.203 8.7233 952.637 8.5473 951.891 8.5473C951.389 8.5473 950.899 8.63263 950.419 8.8033C949.939 8.9633 949.533 9.18196 949.203 9.4593L948.563 8.3073C949 7.9553 949.523 7.68863 950.131 7.5073C950.739 7.3153 951.384 7.2193 952.067 7.2193ZM951.715 14.6913C952.301 14.6913 952.808 14.5633 953.235 14.3073C953.661 14.0406 953.971 13.6673 954.163 13.1873V12.0033H951.795C950.493 12.0033 949.843 12.4406 949.843 13.3153C949.843 13.742 950.008 14.078 950.339 14.3233C950.669 14.5686 951.128 14.6913 951.715 14.6913ZM958.465 7.2993H960.001V13.4753L965.201 7.2993H966.593V15.7793H965.057V9.6033L959.873 15.7793H958.465V7.2993ZM962.433 6.1953C961.643 6.1953 961.03 6.00863 960.593 5.6353C960.155 5.2513 959.931 4.70196 959.921 3.9873H960.961C960.971 4.38196 961.105 4.70196 961.361 4.9473C961.627 5.18196 961.979 5.2993 962.417 5.2993C962.854 5.2993 963.206 5.18196 963.473 4.9473C963.739 4.70196 963.878 4.38196 963.889 3.9873H964.961C964.95 4.70196 964.721 5.2513 964.273 5.6353C963.825 6.00863 963.211 6.1953 962.433 6.1953ZM969.574 7.2993H971.11V10.8993H975.942V7.2993H977.478V15.7793H975.942V12.2273H971.11V15.7793H969.574V7.2993Z" fill="black"/>
<rect x="536.106" y="54.0234" width="386" height="4" fill="url(#paint3_linear)"/>
<circle cx="512" cy="55.7793" r="25" fill="#FFCF4F"/>
<circle cx="512" cy="55.7793" r="7.5" fill="#211F1D"/>
<path d="M428.05 105.907C426.919 105.907 425.9 105.662 424.994 105.171C424.087 104.67 423.372 103.982 422.85 103.107C422.338 102.233 422.082 101.257 422.082 100.179C422.082 99.102 422.338 98.126 422.85 97.2513C423.372 96.3766 424.087 95.694 424.994 95.2033C425.9 94.702 426.919 94.4513 428.05 94.4513C429.17 94.4513 430.183 94.702 431.09 95.2033C431.996 95.694 432.706 96.3766 433.218 97.2513C433.73 98.1153 433.986 99.0913 433.986 100.179C433.986 101.267 433.73 102.249 433.218 103.123C432.706 103.987 431.996 104.67 431.09 105.171C430.183 105.662 429.17 105.907 428.05 105.907ZM428.05 104.483C428.871 104.483 429.607 104.297 430.258 103.923C430.919 103.55 431.436 103.038 431.81 102.387C432.194 101.726 432.386 100.99 432.386 100.179C432.386 99.3686 432.194 98.638 431.81 97.9873C431.436 97.326 430.919 96.8086 430.258 96.4353C429.607 96.062 428.871 95.8753 428.05 95.8753C427.228 95.8753 426.482 96.062 425.81 96.4353C425.148 96.8086 424.626 97.326 424.242 97.9873C423.868 98.638 423.682 99.3686 423.682 100.179C423.682 100.99 423.868 101.726 424.242 102.387C424.626 103.038 425.148 103.55 425.81 103.923C426.482 104.297 427.228 104.483 428.05 104.483ZM440.636 97.5873C441.425 97.5873 442.129 97.7633 442.748 98.1153C443.367 98.4673 443.847 98.958 444.188 99.5873C444.54 100.206 444.716 100.915 444.716 101.715C444.716 102.537 444.529 103.267 444.156 103.907C443.793 104.537 443.276 105.027 442.604 105.379C441.943 105.731 441.185 105.907 440.332 105.907C438.892 105.907 437.777 105.417 436.988 104.435C436.209 103.443 435.82 102.051 435.82 100.259C435.82 98.5206 436.177 97.1606 436.892 96.1793C437.607 95.1873 438.7 94.5313 440.172 94.2113L444.044 93.3473L444.268 94.7553L440.7 95.5233C439.591 95.7686 438.764 96.1846 438.22 96.7713C437.676 97.358 437.367 98.2006 437.292 99.2993C437.655 98.7553 438.124 98.334 438.7 98.0353C439.276 97.7366 439.921 97.5873 440.636 97.5873ZM440.364 104.627C440.908 104.627 441.388 104.505 441.804 104.259C442.231 104.014 442.561 103.678 442.796 103.251C443.031 102.814 443.148 102.318 443.148 101.763C443.148 100.921 442.892 100.243 442.38 99.7313C441.868 99.2193 441.196 98.9633 440.364 98.9633C439.532 98.9633 438.855 99.2193 438.332 99.7313C437.82 100.243 437.564 100.921 437.564 101.763C437.564 102.318 437.681 102.814 437.916 103.251C438.161 103.678 438.497 104.014 438.924 104.259C439.351 104.505 439.831 104.627 440.364 104.627ZM450.606 105.875C449.742 105.875 448.969 105.689 448.286 105.315C447.614 104.942 447.086 104.43 446.702 103.779C446.318 103.118 446.126 102.371 446.126 101.539C446.126 100.707 446.318 99.966 446.702 99.3153C447.086 98.654 447.614 98.142 448.286 97.7793C448.969 97.406 449.742 97.2193 450.606 97.2193C451.374 97.2193 452.057 97.374 452.654 97.6833C453.262 97.9926 453.731 98.4406 454.062 99.0273L452.894 99.7793C452.627 99.374 452.297 99.07 451.902 98.8673C451.507 98.6646 451.07 98.5633 450.59 98.5633C450.035 98.5633 449.534 98.686 449.086 98.9313C448.649 99.1766 448.302 99.5286 448.046 99.9873C447.801 100.435 447.678 100.953 447.678 101.539C447.678 102.137 447.801 102.665 448.046 103.123C448.302 103.571 448.649 103.918 449.086 104.163C449.534 104.409 450.035 104.531 450.59 104.531C451.07 104.531 451.507 104.43 451.902 104.227C452.297 104.025 452.627 103.721 452.894 103.315L454.062 104.051C453.731 104.638 453.262 105.091 452.654 105.411C452.057 105.721 451.374 105.875 450.606 105.875ZM463.509 97.2993L459.397 106.627C459.034 107.491 458.608 108.099 458.117 108.451C457.637 108.803 457.056 108.979 456.373 108.979C455.957 108.979 455.552 108.91 455.157 108.771C454.773 108.643 454.453 108.451 454.197 108.195L454.853 107.043C455.29 107.459 455.797 107.667 456.373 107.667C456.746 107.667 457.056 107.566 457.301 107.363C457.557 107.171 457.786 106.835 457.989 106.355L458.261 105.763L454.517 97.2993H456.117L459.077 104.083L462.005 97.2993H463.509ZM472.309 102.195H470.661V105.779H469.125V102.195H467.477L465.141 105.779H463.317L466.229 101.395L463.541 97.2993H465.173L467.461 100.883H469.125V97.2993H470.661V100.883H472.325L474.613 97.2993H476.261L473.573 101.411L476.485 105.779H474.661L472.309 102.195ZM486.8 104.435V107.747H485.36V105.779H478.272V107.747H476.816V104.435H477.264C477.808 104.403 478.181 104.019 478.384 103.283C478.586 102.547 478.725 101.507 478.799 100.163L478.928 97.2993H485.503V104.435H486.8ZM480.208 100.275C480.165 101.342 480.074 102.227 479.936 102.931C479.808 103.625 479.568 104.126 479.216 104.435H483.968V98.6433H480.288L480.208 100.275ZM496.465 101.587C496.465 101.705 496.454 101.859 496.433 102.051H489.553C489.649 102.798 489.974 103.401 490.529 103.859C491.094 104.307 491.793 104.531 492.625 104.531C493.638 104.531 494.454 104.19 495.073 103.507L495.921 104.499C495.537 104.947 495.057 105.289 494.481 105.523C493.915 105.758 493.281 105.875 492.577 105.875C491.681 105.875 490.886 105.694 490.193 105.331C489.499 104.958 488.961 104.441 488.577 103.779C488.203 103.118 488.017 102.371 488.017 101.539C488.017 100.718 488.198 99.9766 488.561 99.3153C488.934 98.654 489.441 98.142 490.081 97.7793C490.731 97.406 491.462 97.2193 492.273 97.2193C493.083 97.2193 493.803 97.406 494.433 97.7793C495.073 98.142 495.569 98.654 495.921 99.3153C496.283 99.9766 496.465 100.734 496.465 101.587ZM492.273 98.5153C491.537 98.5153 490.918 98.7393 490.417 99.1873C489.926 99.6353 489.638 100.222 489.553 100.947H494.993C494.907 100.233 494.614 99.6513 494.113 99.2033C493.622 98.7446 493.009 98.5153 492.273 98.5153ZM498.847 97.2993H500.383V100.899H505.215V97.2993H506.751V105.779H505.215V102.227H500.383V105.779H498.847V97.2993ZM509.738 97.2993H511.274V103.475L516.474 97.2993H517.866V105.779H516.33V99.6033L511.146 105.779H509.738V97.2993ZM528.511 101.587C528.511 101.705 528.501 101.859 528.479 102.051H521.599C521.695 102.798 522.021 103.401 522.575 103.859C523.141 104.307 523.839 104.531 524.671 104.531C525.685 104.531 526.501 104.19 527.119 103.507L527.967 104.499C527.583 104.947 527.103 105.289 526.527 105.523C525.962 105.758 525.327 105.875 524.623 105.875C523.727 105.875 522.933 105.694 522.239 105.331C521.546 104.958 521.007 104.441 520.623 103.779C520.25 103.118 520.063 102.371 520.063 101.539C520.063 100.718 520.245 99.9766 520.607 99.3153C520.981 98.654 521.487 98.142 522.127 97.7793C522.778 97.406 523.509 97.2193 524.319 97.2193C525.13 97.2193 525.85 97.406 526.479 97.7793C527.119 98.142 527.615 98.654 527.967 99.3153C528.33 99.9766 528.511 100.734 528.511 101.587ZM524.319 98.5153C523.583 98.5153 522.965 98.7393 522.463 99.1873C521.973 99.6353 521.685 100.222 521.599 100.947H527.039C526.954 100.233 526.661 99.6513 526.159 99.2033C525.669 98.7446 525.055 98.5153 524.319 98.5153ZM543.815 104.435V107.747H542.375V105.779H535.287V107.747H533.831V104.435H534.279C534.823 104.403 535.196 104.019 535.399 103.283C535.602 102.547 535.74 101.507 535.815 100.163L535.943 97.2993H542.519V104.435H543.815ZM537.223 100.275C537.18 101.342 537.09 102.227 536.951 102.931C536.823 103.625 536.583 104.126 536.231 104.435H540.983V98.6433H537.303L537.223 100.275ZM553.48 101.587C553.48 101.705 553.469 101.859 553.448 102.051H546.568C546.664 102.798 546.989 103.401 547.544 103.859C548.109 104.307 548.808 104.531 549.64 104.531C550.653 104.531 551.469 104.19 552.088 103.507L552.936 104.499C552.552 104.947 552.072 105.289 551.496 105.523C550.931 105.758 550.296 105.875 549.592 105.875C548.696 105.875 547.901 105.694 547.208 105.331C546.515 104.958 545.976 104.441 545.592 103.779C545.219 103.118 545.032 102.371 545.032 101.539C545.032 100.718 545.213 99.9766 545.576 99.3153C545.949 98.654 546.456 98.142 547.096 97.7793C547.747 97.406 548.477 97.2193 549.288 97.2193C550.099 97.2193 550.819 97.406 551.448 97.7793C552.088 98.142 552.584 98.654 552.936 99.3153C553.299 99.9766 553.48 100.734 553.48 101.587ZM549.288 98.5153C548.552 98.5153 547.933 98.7393 547.432 99.1873C546.941 99.6353 546.653 100.222 546.568 100.947H552.008C551.923 100.233 551.629 99.6513 551.128 99.2033C550.637 98.7446 550.024 98.5153 549.288 98.5153ZM561.824 98.6433H558.72V105.779H557.184V98.6433H554.08V97.2993H561.824V98.6433ZM566.418 97.2193C567.592 97.2193 568.488 97.5073 569.106 98.0833C569.736 98.6593 570.05 99.518 570.05 100.659V105.779H568.594V104.659C568.338 105.054 567.97 105.358 567.49 105.571C567.021 105.774 566.461 105.875 565.81 105.875C564.861 105.875 564.098 105.646 563.522 105.187C562.957 104.729 562.674 104.126 562.674 103.379C562.674 102.633 562.946 102.035 563.49 101.587C564.034 101.129 564.898 100.899 566.082 100.899H568.514V100.595C568.514 99.934 568.322 99.4273 567.938 99.0753C567.554 98.7233 566.989 98.5473 566.242 98.5473C565.741 98.5473 565.25 98.6326 564.77 98.8033C564.29 98.9633 563.885 99.182 563.554 99.4593L562.914 98.3073C563.352 97.9553 563.874 97.6886 564.482 97.5073C565.09 97.3153 565.736 97.2193 566.418 97.2193ZM566.066 104.691C566.653 104.691 567.16 104.563 567.586 104.307C568.013 104.041 568.322 103.667 568.514 103.187V102.003H566.146C564.845 102.003 564.194 102.441 564.194 103.315C564.194 103.742 564.36 104.078 564.69 104.323C565.021 104.569 565.48 104.691 566.066 104.691ZM580.096 97.2993V105.779H578.56V98.6433H574.912L574.816 100.531C574.763 101.673 574.661 102.627 574.512 103.395C574.363 104.153 574.117 104.761 573.776 105.219C573.435 105.678 572.96 105.907 572.352 105.907C572.075 105.907 571.76 105.859 571.408 105.763L571.504 104.467C571.643 104.499 571.771 104.515 571.888 104.515C572.315 104.515 572.635 104.329 572.848 103.955C573.061 103.582 573.2 103.139 573.264 102.627C573.328 102.115 573.387 101.385 573.44 100.435L573.584 97.2993H580.096ZM590.73 101.587C590.73 101.705 590.719 101.859 590.698 102.051H583.818C583.914 102.798 584.239 103.401 584.794 103.859C585.359 104.307 586.058 104.531 586.89 104.531C587.903 104.531 588.719 104.19 589.338 103.507L590.186 104.499C589.802 104.947 589.322 105.289 588.746 105.523C588.181 105.758 587.546 105.875 586.842 105.875C585.946 105.875 585.151 105.694 584.458 105.331C583.765 104.958 583.226 104.441 582.842 103.779C582.469 103.118 582.282 102.371 582.282 101.539C582.282 100.718 582.463 99.9766 582.826 99.3153C583.199 98.654 583.706 98.142 584.346 97.7793C584.997 97.406 585.727 97.2193 586.538 97.2193C587.349 97.2193 588.069 97.406 588.698 97.7793C589.338 98.142 589.834 98.654 590.186 99.3153C590.549 99.9766 590.73 100.734 590.73 101.587ZM586.538 98.5153C585.802 98.5153 585.183 98.7393 584.682 99.1873C584.191 99.6353 583.903 100.222 583.818 100.947H589.258C589.173 100.233 588.879 99.6513 588.378 99.2033C587.887 98.7446 587.274 98.5153 586.538 98.5153ZM593.113 97.2993H594.649V103.475L599.849 97.2993H601.241V105.779H599.705V99.6033L594.521 105.779H593.113V97.2993ZM597.081 96.1953C596.292 96.1953 595.678 96.0086 595.241 95.6353C594.804 95.2513 594.58 94.702 594.569 93.9873H595.609C595.62 94.382 595.753 94.702 596.009 94.9473C596.276 95.182 596.628 95.2993 597.065 95.2993C597.502 95.2993 597.854 95.182 598.121 94.9473C598.388 94.702 598.526 94.382 598.537 93.9873H599.609C599.598 94.702 599.369 95.2513 598.921 95.6353C598.473 96.0086 597.86 96.1953 597.081 96.1953Z" fill="black"/>
<rect x="101.307" y="54.0234" width="386" height="4" fill="url(#paint4_linear)"/>
<circle cx="77" cy="55.7793" r="25" fill="#7FFDC0"/>
<circle cx="77" cy="55.7793" r="7.5" fill="#211F1D"/>
<path d="M12.3529 4.5793V15.7793H10.7849V5.9713H4.28894V15.7793H2.70494V4.5793H12.3529ZM20.0856 7.2193C20.9069 7.2193 21.6429 7.40063 22.2936 7.7633C22.9442 8.12596 23.4509 8.63263 23.8136 9.2833C24.1869 9.93396 24.3736 10.686 24.3736 11.5393C24.3736 12.3926 24.1869 13.15 23.8136 13.8113C23.4509 14.462 22.9442 14.9686 22.2936 15.3313C21.6429 15.694 20.9069 15.8753 20.0856 15.8753C19.4776 15.8753 18.9176 15.758 18.4056 15.5233C17.9042 15.2886 17.4776 14.9473 17.1256 14.4993V18.8833H15.5896V7.2993H17.0616V8.6433C17.4029 8.17396 17.8349 7.82196 18.3576 7.5873C18.8802 7.34196 19.4562 7.2193 20.0856 7.2193ZM19.9576 14.5313C20.5016 14.5313 20.9869 14.4086 21.4136 14.1633C21.8509 13.9073 22.1922 13.5553 22.4376 13.1073C22.6936 12.6486 22.8216 12.126 22.8216 11.5393C22.8216 10.9526 22.6936 10.4353 22.4376 9.9873C22.1922 9.52863 21.8509 9.17663 21.4136 8.9313C20.9869 8.68596 20.5016 8.5633 19.9576 8.5633C19.4242 8.5633 18.9389 8.6913 18.5016 8.9473C18.0749 9.19263 17.7336 9.5393 17.4776 9.9873C17.2322 10.4353 17.1096 10.9526 17.1096 11.5393C17.1096 12.126 17.2322 12.6486 17.4776 13.1073C17.7229 13.5553 18.0642 13.9073 18.5016 14.1633C18.9389 14.4086 19.4242 14.5313 19.9576 14.5313ZM26.6052 7.2993H28.1412V13.4753L33.3412 7.2993H34.7332V15.7793H33.1972V9.6033L28.0132 15.7793H26.6052V7.2993ZM37.7146 7.2993H39.2506V10.8993H44.0826V7.2993H45.6186V15.7793H44.0826V12.2273H39.2506V15.7793H37.7146V7.2993ZM48.6052 7.2993H50.1412V13.4753L55.3412 7.2993H56.7332V15.7793H55.1972V9.6033L50.0132 15.7793H48.6052V7.2993ZM69.4906 7.2993V15.7793H68.0986V9.5873L64.9306 14.8193H64.2586L61.1226 9.5713V15.7793H59.7146V7.2993H61.2986L64.6266 13.0273L68.0506 7.2993H69.4906ZM75.5042 7.2193C76.6775 7.2193 77.5735 7.5073 78.1922 8.0833C78.8215 8.6593 79.1362 9.51796 79.1362 10.6593V15.7793H77.6802V14.6593C77.4242 15.054 77.0562 15.358 76.5762 15.5713C76.1069 15.774 75.5469 15.8753 74.8962 15.8753C73.9469 15.8753 73.1842 15.646 72.6082 15.1873C72.0429 14.7286 71.7602 14.126 71.7602 13.3793C71.7602 12.6326 72.0322 12.0353 72.5762 11.5873C73.1202 11.1286 73.9842 10.8993 75.1682 10.8993H77.6002V10.5953C77.6002 9.93396 77.4082 9.4273 77.0242 9.0753C76.6402 8.7233 76.0749 8.5473 75.3282 8.5473C74.8269 8.5473 74.3362 8.63263 73.8562 8.8033C73.3762 8.9633 72.9709 9.18196 72.6402 9.4593L72.0002 8.3073C72.4375 7.9553 72.9602 7.68863 73.5682 7.5073C74.1762 7.3153 74.8215 7.2193 75.5042 7.2193ZM75.1522 14.6913C75.7389 14.6913 76.2455 14.5633 76.6722 14.3073C77.0989 14.0406 77.4082 13.6673 77.6002 13.1873V12.0033H75.2322C73.9309 12.0033 73.2802 12.4406 73.2802 13.3153C73.2802 13.742 73.4455 14.078 73.7762 14.3233C74.1069 14.5686 74.5655 14.6913 75.1522 14.6913ZM89.5661 11.5873C89.5661 11.7046 89.5554 11.8593 89.5341 12.0513H82.6541C82.7501 12.798 83.0754 13.4006 83.6301 13.8593C84.1954 14.3073 84.8941 14.5313 85.7261 14.5313C86.7394 14.5313 87.5554 14.19 88.1741 13.5073L89.0221 14.4993C88.6381 14.9473 88.1581 15.2886 87.5821 15.5233C87.0167 15.758 86.3821 15.8753 85.6781 15.8753C84.7821 15.8753 83.9874 15.694 83.2941 15.3313C82.6007 14.958 82.0621 14.4406 81.6781 13.7793C81.3047 13.118 81.1181 12.3713 81.1181 11.5393C81.1181 10.718 81.2994 9.97663 81.6621 9.3153C82.0354 8.65396 82.5421 8.14196 83.1821 7.7793C83.8327 7.40596 84.5634 7.2193 85.3741 7.2193C86.1847 7.2193 86.9047 7.40596 87.5341 7.7793C88.1741 8.14196 88.6701 8.65396 89.0221 9.3153C89.3847 9.97663 89.5661 10.734 89.5661 11.5873ZM85.3741 8.5153C84.6381 8.5153 84.0194 8.7393 83.5181 9.1873C83.0274 9.6353 82.7394 10.222 82.6541 10.9473H88.0941C88.0087 10.2326 87.7154 9.6513 87.2141 9.2033C86.7234 8.74463 86.1101 8.5153 85.3741 8.5153ZM101.725 7.2993V15.7793H100.333V9.5873L97.1649 14.8193H96.4929L93.3569 9.5713V15.7793H91.9489V7.2993H93.5329L96.8609 13.0273L100.285 7.2993H101.725ZM113.603 11.3633C114.169 11.5126 114.606 11.7526 114.915 12.0833C115.225 12.414 115.379 12.8246 115.379 13.3153C115.379 13.8166 115.209 14.2646 114.867 14.6593C114.526 15.0433 114.051 15.3473 113.443 15.5713C112.846 15.7846 112.174 15.8913 111.427 15.8913C110.798 15.8913 110.179 15.8113 109.571 15.6513C108.974 15.4806 108.441 15.2406 107.971 14.9313L108.435 13.7633C108.841 14.0193 109.305 14.222 109.827 14.3713C110.35 14.51 110.878 14.5793 111.411 14.5793C112.137 14.5793 112.713 14.4566 113.139 14.2113C113.577 13.9553 113.795 13.614 113.795 13.1873C113.795 12.7926 113.619 12.4886 113.267 12.2753C112.926 12.062 112.441 11.9553 111.811 11.9553H110.259V10.8513H111.699C112.275 10.8513 112.729 10.75 113.059 10.5473C113.39 10.3446 113.555 10.0673 113.555 9.7153C113.555 9.3313 113.358 9.03263 112.963 8.8193C112.579 8.60596 112.057 8.4993 111.395 8.4993C110.553 8.4993 109.662 8.71796 108.723 9.1553L108.307 7.9713C109.342 7.44863 110.425 7.1873 111.555 7.1873C112.238 7.1873 112.851 7.2833 113.395 7.4753C113.939 7.6673 114.366 7.9393 114.675 8.2913C114.985 8.6433 115.139 9.0433 115.139 9.4913C115.139 9.9073 115.001 10.2806 114.723 10.6113C114.446 10.942 114.073 11.1926 113.603 11.3633ZM120.739 7.2193C121.912 7.2193 122.808 7.5073 123.427 8.0833C124.056 8.6593 124.371 9.51796 124.371 10.6593V15.7793H122.915V14.6593C122.659 15.054 122.291 15.358 121.811 15.5713C121.341 15.774 120.781 15.8753 120.131 15.8753C119.181 15.8753 118.419 15.646 117.843 15.1873C117.277 14.7286 116.995 14.126 116.995 13.3793C116.995 12.6326 117.267 12.0353 117.811 11.5873C118.355 11.1286 119.219 10.8993 120.403 10.8993H122.835V10.5953C122.835 9.93396 122.643 9.4273 122.259 9.0753C121.875 8.7233 121.309 8.5473 120.563 8.5473C120.061 8.5473 119.571 8.63263 119.091 8.8033C118.611 8.9633 118.205 9.18196 117.875 9.4593L117.235 8.3073C117.672 7.9553 118.195 7.68863 118.803 7.5073C119.411 7.3153 120.056 7.2193 120.739 7.2193ZM120.387 14.6913C120.973 14.6913 121.48 14.5633 121.907 14.3073C122.333 14.0406 122.643 13.6673 122.835 13.1873V12.0033H120.467C119.165 12.0033 118.515 12.4406 118.515 13.3153C118.515 13.742 118.68 14.078 119.011 14.3233C119.341 14.5686 119.8 14.6913 120.387 14.6913ZM130.432 12.1953H128.672V15.7793H127.136V7.2993H128.672V10.8833H130.464L133.216 7.2993H134.864L131.648 11.3793L135.088 15.7793H133.28L130.432 12.1953ZM139.567 7.2193C140.74 7.2193 141.636 7.5073 142.255 8.0833C142.884 8.6593 143.199 9.51796 143.199 10.6593V15.7793H141.743V14.6593C141.487 15.054 141.119 15.358 140.639 15.5713C140.169 15.774 139.609 15.8753 138.959 15.8753C138.009 15.8753 137.247 15.646 136.671 15.1873C136.105 14.7286 135.823 14.126 135.823 13.3793C135.823 12.6326 136.095 12.0353 136.639 11.5873C137.183 11.1286 138.047 10.8993 139.231 10.8993H141.663V10.5953C141.663 9.93396 141.471 9.4273 141.087 9.0753C140.703 8.7233 140.137 8.5473 139.391 8.5473C138.889 8.5473 138.399 8.63263 137.919 8.8033C137.439 8.9633 137.033 9.18196 136.703 9.4593L136.063 8.3073C136.5 7.9553 137.023 7.68863 137.631 7.5073C138.239 7.3153 138.884 7.2193 139.567 7.2193ZM139.215 14.6913C139.801 14.6913 140.308 14.5633 140.735 14.3073C141.161 14.0406 141.471 13.6673 141.663 13.1873V12.0033H139.295C137.993 12.0033 137.343 12.4406 137.343 13.3153C137.343 13.742 137.508 14.078 137.839 14.3233C138.169 14.5686 138.628 14.6913 139.215 14.6913ZM150.416 11.3633C150.981 11.5126 151.419 11.7526 151.728 12.0833C152.037 12.414 152.192 12.8246 152.192 13.3153C152.192 13.8166 152.021 14.2646 151.68 14.6593C151.339 15.0433 150.864 15.3473 150.256 15.5713C149.659 15.7846 148.987 15.8913 148.24 15.8913C147.611 15.8913 146.992 15.8113 146.384 15.6513C145.787 15.4806 145.253 15.2406 144.784 14.9313L145.248 13.7633C145.653 14.0193 146.117 14.222 146.64 14.3713C147.163 14.51 147.691 14.5793 148.224 14.5793C148.949 14.5793 149.525 14.4566 149.952 14.2113C150.389 13.9553 150.608 13.614 150.608 13.1873C150.608 12.7926 150.432 12.4886 150.08 12.2753C149.739 12.062 149.253 11.9553 148.624 11.9553H147.072V10.8513H148.512C149.088 10.8513 149.541 10.75 149.872 10.5473C150.203 10.3446 150.368 10.0673 150.368 9.7153C150.368 9.3313 150.171 9.03263 149.776 8.8193C149.392 8.60596 148.869 8.4993 148.208 8.4993C147.365 8.4993 146.475 8.71796 145.536 9.1553L145.12 7.9713C146.155 7.44863 147.237 7.1873 148.368 7.1873C149.051 7.1873 149.664 7.2833 150.208 7.4753C150.752 7.6673 151.179 7.9393 151.488 8.2913C151.797 8.6433 151.952 9.0433 151.952 9.4913C151.952 9.9073 151.813 10.2806 151.536 10.6113C151.259 10.942 150.885 11.1926 150.416 11.3633Z" fill="black"/>
<defs>
<linearGradient id="paint0_linear" x1="295.914" y1="280.776" x2="600.592" y2="280.776" gradientUnits="userSpaceOnUse">
<stop stop-color="#CE7EFF"/>
<stop offset="1" stop-color="#F26A51"/>
</linearGradient>
<linearGradient id="paint1_linear" x1="305.214" y1="266.023" x2="725.671" y2="266.023" gradientUnits="userSpaceOnUse">
<stop stop-color="#CE7EFF"/>
<stop offset="1" stop-color="#7EC1FF"/>
</linearGradient>
<linearGradient id="paint2_linear" x1="748.24" y1="255.177" x2="1012.29" y2="255.177" gradientUnits="userSpaceOnUse">
<stop stop-color="#7EC1FF"/>
<stop offset="1" stop-color="#F98DFC"/>
</linearGradient>
<linearGradient id="paint3_linear" x1="536.106" y1="56.0235" x2="928.126" y2="56.0234" gradientUnits="userSpaceOnUse">
<stop stop-color="#FFCF4F"/>
<stop offset="1" stop-color="#F98DFC"/>
</linearGradient>
<linearGradient id="paint4_linear" x1="101.307" y1="56.0235" x2="493.327" y2="56.0234" gradientUnits="userSpaceOnUse">
<stop stop-color="#7FFDC0"/>
<stop offset="1" stop-color="#FFCF4F"/>
</linearGradient>
</defs>
</svg>
