<svg width="358" height="448" viewBox="0 0 358 448" fill="none" xmlns="http://www.w3.org/2000/svg">
<path d="M308.125 329.68C308.125 327.769 307.645 325.92 306.724 324.333L306.506 323.958H292.839L292.625 324.333C291.706 325.918 291.224 327.769 291.224 329.68C291.224 334.555 294.381 338.594 298.476 339.263V350.647C296.113 350.741 294.353 351.094 294.353 351.512C294.353 352.009 296.752 352.406 299.713 352.406C302.677 352.406 305.08 352.009 305.08 351.512C305.08 351.094 303.32 350.741 300.957 350.647V339.254C305.012 338.543 308.125 334.52 308.125 329.68ZM299.672 337.875C295.847 337.875 292.732 334.2 292.732 329.676C292.732 328.169 293.075 326.714 293.732 325.437H305.615C306.27 326.714 306.618 328.171 306.618 329.676C306.62 334.202 303.5 337.875 299.672 337.875ZM322.595 311.411H316.585V306.288H322.595V311.411ZM322.595 317.759V312.987H316.585V317.761C314.047 318.886 312.273 321.394 312.273 324.313V328.992V343.908V352.672H326.905V343.908V328.992V324.313C326.907 321.394 325.138 318.886 322.595 317.759ZM325.613 345.441H313.695V331.386H325.613V345.441ZM305.988 329.834C305.988 329.834 305.671 337.267 299.775 337.267C293.878 337.267 293.082 329.834 293.082 329.834H305.988Z" fill="#211F1D"/>
<path d="M289.002 421.59C289.665 421.749 290.164 422.034 290.5 422.444C290.845 422.846 291.018 423.364 291.018 423.998C291.018 424.848 290.705 425.506 290.08 425.972C289.464 426.439 288.563 426.672 287.378 426.672H282.898V416.872H287.112C288.185 416.872 289.021 417.092 289.618 417.53C290.225 417.96 290.528 418.58 290.528 419.392C290.528 419.924 290.393 420.377 290.122 420.75C289.861 421.124 289.487 421.404 289.002 421.59ZM284.284 421.184H287.014C287.695 421.184 288.213 421.049 288.568 420.778C288.932 420.508 289.114 420.111 289.114 419.588C289.114 419.066 288.932 418.669 288.568 418.398C288.204 418.118 287.686 417.978 287.014 417.978H284.284V421.184ZM287.35 425.566C288.853 425.566 289.604 425.006 289.604 423.886C289.604 423.326 289.413 422.916 289.03 422.654C288.657 422.384 288.097 422.248 287.35 422.248H284.284V425.566H287.35ZM296.479 421.772C297.412 421.782 298.126 421.996 298.621 422.416C299.116 422.836 299.363 423.429 299.363 424.194C299.363 424.997 299.092 425.618 298.551 426.056C298.019 426.486 297.254 426.696 296.255 426.686L293.133 426.672V419.252H294.477V421.758L296.479 421.772ZM300.469 419.252H301.813V426.672H300.469V419.252ZM296.157 425.664C296.764 425.674 297.221 425.552 297.529 425.3C297.846 425.048 298.005 424.675 298.005 424.18C298.005 423.695 297.851 423.34 297.543 423.116C297.235 422.892 296.773 422.776 296.157 422.766L294.477 422.738V425.65L296.157 425.664ZM311.3 419.252V426.672H309.956V420.428H305.77V426.672H304.426V419.252H311.3ZM320.523 419.252L316.925 427.414C316.607 428.17 316.234 428.702 315.805 429.01C315.385 429.318 314.876 429.472 314.279 429.472C313.915 429.472 313.56 429.412 313.215 429.29C312.879 429.178 312.599 429.01 312.375 428.786L312.949 427.778C313.331 428.142 313.775 428.324 314.279 428.324C314.605 428.324 314.876 428.236 315.091 428.058C315.315 427.89 315.515 427.596 315.693 427.176L315.931 426.658L312.655 419.252H314.055L316.645 425.188L319.207 419.252H320.523ZM324.928 426.756C324.172 426.756 323.495 426.593 322.898 426.266C322.31 425.94 321.848 425.492 321.512 424.922C321.176 424.344 321.008 423.69 321.008 422.962C321.008 422.234 321.176 421.586 321.512 421.016C321.848 420.438 322.31 419.99 322.898 419.672C323.495 419.346 324.172 419.182 324.928 419.182C325.6 419.182 326.197 419.318 326.72 419.588C327.252 419.859 327.662 420.251 327.952 420.764L326.93 421.422C326.696 421.068 326.407 420.802 326.062 420.624C325.716 420.447 325.334 420.358 324.914 420.358C324.428 420.358 323.99 420.466 323.598 420.68C323.215 420.895 322.912 421.203 322.688 421.604C322.473 421.996 322.366 422.449 322.366 422.962C322.366 423.485 322.473 423.947 322.688 424.348C322.912 424.74 323.215 425.044 323.598 425.258C323.99 425.473 324.428 425.58 324.914 425.58C325.334 425.58 325.716 425.492 326.062 425.314C326.407 425.137 326.696 424.871 326.93 424.516L327.952 425.16C327.662 425.674 327.252 426.07 326.72 426.35C326.197 426.621 325.6 426.756 324.928 426.756ZM332.576 423.536H331.036V426.672H329.692V419.252H331.036V422.388H332.604L335.012 419.252H336.454L333.64 422.822L336.65 426.672H335.068L332.576 423.536ZM287.108 436.252V443.672H285.764V437.428H281.578V443.672H280.234V436.252H287.108ZM293.642 436.182C294.361 436.182 295.005 436.341 295.574 436.658C296.144 436.976 296.587 437.419 296.904 437.988C297.231 438.558 297.394 439.216 297.394 439.962C297.394 440.709 297.231 441.372 296.904 441.95C296.587 442.52 296.144 442.963 295.574 443.28C295.005 443.598 294.361 443.756 293.642 443.756C293.11 443.756 292.62 443.654 292.172 443.448C291.734 443.243 291.36 442.944 291.052 442.552V446.388H289.708V436.252H290.996V437.428C291.295 437.018 291.673 436.71 292.13 436.504C292.588 436.29 293.092 436.182 293.642 436.182ZM293.53 442.58C294.006 442.58 294.431 442.473 294.804 442.258C295.187 442.034 295.486 441.726 295.7 441.334C295.924 440.933 296.036 440.476 296.036 439.962C296.036 439.449 295.924 438.996 295.7 438.604C295.486 438.203 295.187 437.895 294.804 437.68C294.431 437.466 294.006 437.358 293.53 437.358C293.064 437.358 292.639 437.47 292.256 437.694C291.883 437.909 291.584 438.212 291.36 438.604C291.146 438.996 291.038 439.449 291.038 439.962C291.038 440.476 291.146 440.933 291.36 441.334C291.575 441.726 291.874 442.034 292.256 442.258C292.639 442.473 293.064 442.58 293.53 442.58ZM302.525 443.756C301.788 443.756 301.125 443.593 300.537 443.266C299.949 442.94 299.487 442.492 299.151 441.922C298.824 441.344 298.661 440.69 298.661 439.962C298.661 439.234 298.824 438.586 299.151 438.016C299.487 437.438 299.949 436.99 300.537 436.672C301.125 436.346 301.788 436.182 302.525 436.182C303.262 436.182 303.92 436.346 304.499 436.672C305.087 436.99 305.544 437.438 305.871 438.016C306.207 438.586 306.375 439.234 306.375 439.962C306.375 440.69 306.207 441.344 305.871 441.922C305.544 442.492 305.087 442.94 304.499 443.266C303.92 443.593 303.262 443.756 302.525 443.756ZM302.525 442.58C303.001 442.58 303.426 442.473 303.799 442.258C304.182 442.034 304.48 441.726 304.695 441.334C304.91 440.933 305.017 440.476 305.017 439.962C305.017 439.449 304.91 438.996 304.695 438.604C304.48 438.203 304.182 437.895 303.799 437.68C303.426 437.466 303.001 437.358 302.525 437.358C302.049 437.358 301.62 437.466 301.237 437.68C300.864 437.895 300.565 438.203 300.341 438.604C300.126 438.996 300.019 439.449 300.019 439.962C300.019 440.476 300.126 440.933 300.341 441.334C300.565 441.726 300.864 442.034 301.237 442.258C301.62 442.473 302.049 442.58 302.525 442.58ZM315.022 440.004C315.022 440.107 315.012 440.242 314.994 440.41H308.974C309.058 441.064 309.342 441.591 309.828 441.992C310.322 442.384 310.934 442.58 311.662 442.58C312.548 442.58 313.262 442.282 313.804 441.684L314.546 442.552C314.21 442.944 313.79 443.243 313.286 443.448C312.791 443.654 312.236 443.756 311.62 443.756C310.836 443.756 310.14 443.598 309.534 443.28C308.927 442.954 308.456 442.501 308.12 441.922C307.793 441.344 307.63 440.69 307.63 439.962C307.63 439.244 307.788 438.595 308.106 438.016C308.432 437.438 308.876 436.99 309.436 436.672C310.005 436.346 310.644 436.182 311.354 436.182C312.063 436.182 312.693 436.346 313.244 436.672C313.804 436.99 314.238 437.438 314.546 438.016C314.863 438.595 315.022 439.258 315.022 440.004ZM311.354 437.316C310.71 437.316 310.168 437.512 309.73 437.904C309.3 438.296 309.048 438.81 308.974 439.444H313.734C313.659 438.819 313.402 438.31 312.964 437.918C312.534 437.517 311.998 437.316 311.354 437.316ZM319.991 440.536H318.451V443.672H317.107V436.252H318.451V439.388H320.019L322.427 436.252H323.869L321.055 439.822L324.065 443.672H322.483L319.991 440.536ZM330.881 437.428H328.165V443.672H326.821V437.428H324.105V436.252H330.881V437.428ZM334.901 436.182C335.928 436.182 336.712 436.434 337.253 436.938C337.804 437.442 338.079 438.194 338.079 439.192V443.672H336.805V442.692C336.581 443.038 336.259 443.304 335.839 443.49C335.428 443.668 334.938 443.756 334.369 443.756C333.538 443.756 332.871 443.556 332.367 443.154C331.872 442.753 331.625 442.226 331.625 441.572C331.625 440.919 331.863 440.396 332.339 440.004C332.815 439.603 333.571 439.402 334.607 439.402H336.735V439.136C336.735 438.558 336.567 438.114 336.231 437.806C335.895 437.498 335.4 437.344 334.747 437.344C334.308 437.344 333.879 437.419 333.459 437.568C333.039 437.708 332.684 437.9 332.395 438.142L331.835 437.134C332.218 436.826 332.675 436.593 333.207 436.434C333.739 436.266 334.304 436.182 334.901 436.182ZM334.593 442.72C335.106 442.72 335.55 442.608 335.923 442.384C336.296 442.151 336.567 441.824 336.735 441.404V440.368H334.663C333.524 440.368 332.955 440.751 332.955 441.516C332.955 441.89 333.1 442.184 333.389 442.398C333.678 442.613 334.08 442.72 334.593 442.72Z" fill="black"/>
<circle cx="309.064" cy="382.672" r="20" fill="#F26A51"/>
<circle cx="309.064" cy="382.672" r="6" fill="#211F1D"/>
<rect x="71" y="380.672" width="220" height="4" fill="url(#paint0_linear)"/>
<path d="M6.65963 426.785C5.6703 426.785 4.77897 426.57 3.98563 426.141C3.1923 425.702 2.56697 425.1 2.10963 424.335C1.66163 423.57 1.43763 422.716 1.43763 421.773C1.43763 420.83 1.66163 419.976 2.10963 419.211C2.56697 418.446 3.1923 417.848 3.98563 417.419C4.77897 416.98 5.6703 416.761 6.65963 416.761C7.63963 416.761 8.5263 416.98 9.31963 417.419C10.113 417.848 10.7336 418.446 11.1816 419.211C11.6296 419.967 11.8536 420.821 11.8536 421.773C11.8536 422.725 11.6296 423.584 11.1816 424.349C10.7336 425.105 10.113 425.702 9.31963 426.141C8.5263 426.57 7.63963 426.785 6.65963 426.785ZM6.65963 425.539C7.3783 425.539 8.0223 425.376 8.59163 425.049C9.1703 424.722 9.62297 424.274 9.94963 423.705C10.2856 423.126 10.4536 422.482 10.4536 421.773C10.4536 421.064 10.2856 420.424 9.94963 419.855C9.62297 419.276 9.1703 418.824 8.59163 418.497C8.0223 418.17 7.3783 418.007 6.65963 418.007C5.94097 418.007 5.28763 418.17 4.69963 418.497C4.12097 418.824 3.66363 419.276 3.32763 419.855C3.00097 420.424 2.83763 421.064 2.83763 421.773C2.83763 422.482 3.00097 423.126 3.32763 423.705C3.66363 424.274 4.12097 424.722 4.69963 425.049C5.28763 425.376 5.94097 425.539 6.65963 425.539ZM20.7668 419.253V426.673H19.4228V420.429H15.2368V426.673H13.8928V419.253H20.7668ZM28.8974 420.429H26.1814V426.673H24.8374V420.429H22.1214V419.253H28.8974V420.429ZM30.2717 419.253H31.6157V424.657L36.1657 419.253H37.3837V426.673H36.0397V421.269L31.5037 426.673H30.2717V419.253ZM48.5464 419.253V426.673H47.3284V421.255L44.5564 425.833H43.9684L41.2244 421.241V426.673H39.9924V419.253H41.3784L44.2904 424.265L47.2864 419.253H48.5464ZM51.1624 419.253H52.5064V424.657L57.0564 419.253H58.2744V426.673H56.9304V421.269L52.3944 426.673H51.1624V419.253ZM64.778 422.809C65.2727 422.94 65.6553 423.15 65.926 423.439C66.1967 423.728 66.332 424.088 66.332 424.517C66.332 424.956 66.1827 425.348 65.884 425.693C65.5853 426.029 65.17 426.295 64.638 426.491C64.1153 426.678 63.5273 426.771 62.874 426.771C62.3233 426.771 61.782 426.701 61.25 426.561C60.7273 426.412 60.2607 426.202 59.85 425.931L60.256 424.909C60.6107 425.133 61.0167 425.31 61.474 425.441C61.9313 425.562 62.3933 425.623 62.86 425.623C63.4947 425.623 63.9987 425.516 64.372 425.301C64.7547 425.077 64.946 424.778 64.946 424.405C64.946 424.06 64.792 423.794 64.484 423.607C64.1853 423.42 63.7607 423.327 63.21 423.327H61.852V422.361H63.112C63.616 422.361 64.0127 422.272 64.302 422.095C64.5913 421.918 64.736 421.675 64.736 421.367C64.736 421.031 64.5633 420.77 64.218 420.583C63.882 420.396 63.4247 420.303 62.846 420.303C62.1087 420.303 61.3293 420.494 60.508 420.877L60.144 419.841C61.0493 419.384 61.9967 419.155 62.986 419.155C63.5833 419.155 64.12 419.239 64.596 419.407C65.072 419.575 65.4453 419.813 65.716 420.121C65.9867 420.429 66.122 420.779 66.122 421.171C66.122 421.535 66.0007 421.862 65.758 422.151C65.5153 422.44 65.1887 422.66 64.778 422.809ZM71.0212 419.183C72.0479 419.183 72.8319 419.435 73.3732 419.939C73.9239 420.443 74.1992 421.194 74.1992 422.193V426.673H72.9252V425.693C72.7012 426.038 72.3792 426.304 71.9592 426.491C71.5486 426.668 71.0586 426.757 70.4892 426.757C69.6586 426.757 68.9912 426.556 68.4872 426.155C67.9926 425.754 67.7452 425.226 67.7452 424.573C67.7452 423.92 67.9832 423.397 68.4592 423.005C68.9352 422.604 69.6912 422.403 70.7272 422.403H72.8552V422.137C72.8552 421.558 72.6872 421.115 72.3512 420.807C72.0152 420.499 71.5206 420.345 70.8672 420.345C70.4286 420.345 69.9992 420.42 69.5792 420.569C69.1592 420.709 68.8046 420.9 68.5152 421.143L67.9552 420.135C68.3379 419.827 68.7952 419.594 69.3272 419.435C69.8592 419.267 70.4239 419.183 71.0212 419.183ZM70.7132 425.721C71.2266 425.721 71.6699 425.609 72.0432 425.385C72.4166 425.152 72.6872 424.825 72.8552 424.405V423.369H70.7832C69.6446 423.369 69.0752 423.752 69.0752 424.517C69.0752 424.89 69.2199 425.184 69.5092 425.399C69.7986 425.614 70.1999 425.721 70.7132 425.721ZM84.5434 425.497V428.451H83.2694V426.673H76.6194V419.253H77.9634V425.497H82.0234V419.253H83.3674V425.497H84.5434ZM86.2854 419.253H87.6294V424.657L92.1794 419.253H93.3974V426.673H92.0534V421.269L87.5174 426.673H86.2854V419.253ZM101.956 419.253V426.673H100.752V424.321H98.5961H98.4421L96.8181 426.673H95.3761L97.1821 424.139C96.6221 423.971 96.1928 423.696 95.8941 423.313C95.5954 422.921 95.4461 422.436 95.4461 421.857C95.4461 421.008 95.7354 420.364 96.3141 419.925C96.8928 419.477 97.6908 419.253 98.7081 419.253H101.956ZM96.8181 421.899C96.8181 422.394 96.9721 422.762 97.2801 423.005C97.5974 423.238 98.0688 423.355 98.6941 423.355H100.752V420.429H98.7501C97.4621 420.429 96.8181 420.919 96.8181 421.899Z" fill="black"/>
<circle cx="52" cy="382.673" r="20" fill="#CE7EFF"/>
<circle cx="52" cy="382.673" r="6" fill="#211F1D"/>
<rect x="50" y="364.491" width="130" height="4" transform="rotate(-90 50 364.491)" fill="url(#paint1_linear)"/>
<circle cx="52" cy="224.46" r="20" fill="#7EC1FF"/>
<circle cx="52" cy="224.46" r="6" fill="#211F1D"/>
<path d="M15.0062 180.66C16.2755 180.66 17.2742 180.963 18.0022 181.57C18.7302 182.177 19.0942 183.012 19.0942 184.076C19.0942 185.14 18.7302 185.975 18.0022 186.582C17.2742 187.189 16.2755 187.492 15.0062 187.492H12.5842V190.46H11.1842V180.66H15.0062ZM14.9642 186.274C15.8509 186.274 16.5275 186.087 16.9942 185.714C17.4609 185.331 17.6942 184.785 17.6942 184.076C17.6942 183.367 17.4609 182.825 16.9942 182.452C16.5275 182.069 15.8509 181.878 14.9642 181.878H12.5842V186.274H14.9642ZM23.3953 182.97C24.4219 182.97 25.2059 183.222 25.7473 183.726C26.2979 184.23 26.5733 184.981 26.5733 185.98V190.46H25.2993V189.48C25.0753 189.825 24.7533 190.091 24.3333 190.278C23.9226 190.455 23.4326 190.544 22.8633 190.544C22.0326 190.544 21.3653 190.343 20.8613 189.942C20.3666 189.541 20.1193 189.013 20.1193 188.36C20.1193 187.707 20.3573 187.184 20.8333 186.792C21.3093 186.391 22.0653 186.19 23.1013 186.19H25.2293V185.924C25.2293 185.345 25.0613 184.902 24.7253 184.594C24.3893 184.286 23.8946 184.132 23.2413 184.132C22.8026 184.132 22.3733 184.207 21.9533 184.356C21.5333 184.496 21.1786 184.687 20.8893 184.93L20.3293 183.922C20.7119 183.614 21.1693 183.381 21.7013 183.222C22.2333 183.054 22.7979 182.97 23.3953 182.97ZM23.0873 189.508C23.6006 189.508 24.0439 189.396 24.4173 189.172C24.7906 188.939 25.0613 188.612 25.2293 188.192V187.156H23.1573C22.0186 187.156 21.4493 187.539 21.4493 188.304C21.4493 188.677 21.5939 188.971 21.8833 189.186C22.1726 189.401 22.5739 189.508 23.0873 189.508ZM32.8884 186.596C33.383 186.727 33.7657 186.937 34.0364 187.226C34.307 187.515 34.4424 187.875 34.4424 188.304C34.4424 188.743 34.293 189.135 33.9944 189.48C33.6957 189.816 33.2804 190.082 32.7484 190.278C32.2257 190.465 31.6377 190.558 30.9844 190.558C30.4337 190.558 29.8924 190.488 29.3604 190.348C28.8377 190.199 28.371 189.989 27.9604 189.718L28.3664 188.696C28.721 188.92 29.127 189.097 29.5844 189.228C30.0417 189.349 30.5037 189.41 30.9704 189.41C31.605 189.41 32.109 189.303 32.4824 189.088C32.865 188.864 33.0564 188.565 33.0564 188.192C33.0564 187.847 32.9024 187.581 32.5944 187.394C32.2957 187.207 31.871 187.114 31.3204 187.114H29.9624V186.148H31.2224C31.7264 186.148 32.123 186.059 32.4124 185.882C32.7017 185.705 32.8464 185.462 32.8464 185.154C32.8464 184.818 32.6737 184.557 32.3284 184.37C31.9924 184.183 31.535 184.09 30.9564 184.09C30.219 184.09 29.4397 184.281 28.6184 184.664L28.2544 183.628C29.1597 183.171 30.107 182.942 31.0964 182.942C31.6937 182.942 32.2304 183.026 32.7064 183.194C33.1824 183.362 33.5557 183.6 33.8264 183.908C34.097 184.216 34.2324 184.566 34.2324 184.958C34.2324 185.322 34.111 185.649 33.8684 185.938C33.6257 186.227 33.299 186.447 32.8884 186.596ZM40.4196 182.97C41.1383 182.97 41.7823 183.129 42.3516 183.446C42.9209 183.763 43.3643 184.207 43.6816 184.776C44.0083 185.345 44.1716 186.003 44.1716 186.75C44.1716 187.497 44.0083 188.159 43.6816 188.738C43.3643 189.307 42.9209 189.751 42.3516 190.068C41.7823 190.385 41.1383 190.544 40.4196 190.544C39.8876 190.544 39.3976 190.441 38.9496 190.236C38.5109 190.031 38.1376 189.732 37.8296 189.34V193.176H36.4856V183.04H37.7736V184.216C38.0723 183.805 38.4503 183.497 38.9076 183.292C39.3649 183.077 39.8689 182.97 40.4196 182.97ZM40.3076 189.368C40.7836 189.368 41.2083 189.261 41.5816 189.046C41.9643 188.822 42.2629 188.514 42.4776 188.122C42.7016 187.721 42.8136 187.263 42.8136 186.75C42.8136 186.237 42.7016 185.784 42.4776 185.392C42.2629 184.991 41.9643 184.683 41.5816 184.468C41.2083 184.253 40.7836 184.146 40.3076 184.146C39.8409 184.146 39.4163 184.258 39.0336 184.482C38.6603 184.697 38.3616 185 38.1376 185.392C37.9229 185.784 37.8156 186.237 37.8156 186.75C37.8156 187.263 37.9229 187.721 38.1376 188.122C38.3523 188.514 38.6509 188.822 39.0336 189.046C39.4163 189.261 39.8409 189.368 40.3076 189.368ZM48.7019 182.97C49.7286 182.97 50.5126 183.222 51.0539 183.726C51.6046 184.23 51.8799 184.981 51.8799 185.98V190.46H50.6059V189.48C50.3819 189.825 50.0599 190.091 49.6399 190.278C49.2292 190.455 48.7392 190.544 48.1699 190.544C47.3392 190.544 46.6719 190.343 46.1679 189.942C45.6732 189.541 45.4259 189.013 45.4259 188.36C45.4259 187.707 45.6639 187.184 46.1399 186.792C46.6159 186.391 47.3719 186.19 48.4079 186.19H50.5359V185.924C50.5359 185.345 50.3679 184.902 50.0319 184.594C49.6959 184.286 49.2012 184.132 48.5479 184.132C48.1092 184.132 47.6799 184.207 47.2599 184.356C46.8399 184.496 46.4852 184.687 46.1959 184.93L45.6359 183.922C46.0186 183.614 46.4759 183.381 47.0079 183.222C47.5399 183.054 48.1046 182.97 48.7019 182.97ZM48.3939 189.508C48.9072 189.508 49.3506 189.396 49.7239 189.172C50.0972 188.939 50.3679 188.612 50.5359 188.192V187.156H48.4639C47.3252 187.156 46.7559 187.539 46.7559 188.304C46.7559 188.677 46.9006 188.971 47.1899 189.186C47.4792 189.401 47.8806 189.508 48.3939 189.508ZM58.08 183.292C58.7707 183.292 59.3867 183.446 59.928 183.754C60.4694 184.062 60.8894 184.491 61.188 185.042C61.496 185.583 61.65 186.204 61.65 186.904C61.65 187.623 61.4867 188.262 61.16 188.822C60.8427 189.373 60.39 189.802 59.802 190.11C59.2234 190.418 58.5607 190.572 57.814 190.572C56.554 190.572 55.5787 190.143 54.888 189.284C54.2067 188.416 53.866 187.198 53.866 185.63C53.866 184.109 54.1787 182.919 54.804 182.06C55.4294 181.192 56.386 180.618 57.674 180.338L61.062 179.582L61.258 180.814L58.136 181.486C57.1654 181.701 56.442 182.065 55.966 182.578C55.49 183.091 55.2194 183.829 55.154 184.79C55.4714 184.314 55.882 183.945 56.386 183.684C56.89 183.423 57.4547 183.292 58.08 183.292ZM57.842 189.452C58.318 189.452 58.738 189.345 59.102 189.13C59.4754 188.915 59.7647 188.621 59.97 188.248C60.1754 187.865 60.278 187.431 60.278 186.946C60.278 186.209 60.054 185.616 59.606 185.168C59.158 184.72 58.57 184.496 57.842 184.496C57.114 184.496 56.5214 184.72 56.064 185.168C55.616 185.616 55.392 186.209 55.392 186.946C55.392 187.431 55.4947 187.865 55.7 188.248C55.9147 188.621 56.2087 188.915 56.582 189.13C56.9554 189.345 57.3754 189.452 57.842 189.452ZM66.7476 190.544C66.0102 190.544 65.3476 190.381 64.7596 190.054C64.1716 189.727 63.7096 189.279 63.3736 188.71C63.0469 188.131 62.8836 187.478 62.8836 186.75C62.8836 186.022 63.0469 185.373 63.3736 184.804C63.7096 184.225 64.1716 183.777 64.7596 183.46C65.3476 183.133 66.0102 182.97 66.7476 182.97C67.4849 182.97 68.1429 183.133 68.7216 183.46C69.3096 183.777 69.7669 184.225 70.0936 184.804C70.4296 185.373 70.5976 186.022 70.5976 186.75C70.5976 187.478 70.4296 188.131 70.0936 188.71C69.7669 189.279 69.3096 189.727 68.7216 190.054C68.1429 190.381 67.4849 190.544 66.7476 190.544ZM66.7476 189.368C67.2236 189.368 67.6482 189.261 68.0216 189.046C68.4042 188.822 68.7029 188.514 68.9176 188.122C69.1322 187.721 69.2396 187.263 69.2396 186.75C69.2396 186.237 69.1322 185.784 68.9176 185.392C68.7029 184.991 68.4042 184.683 68.0216 184.468C67.6482 184.253 67.2236 184.146 66.7476 184.146C66.2716 184.146 65.8422 184.253 65.4596 184.468C65.0862 184.683 64.7876 184.991 64.5636 185.392C64.3489 185.784 64.2416 186.237 64.2416 186.75C64.2416 187.263 64.3489 187.721 64.5636 188.122C64.7876 188.514 65.0862 188.822 65.4596 189.046C65.8422 189.261 66.2716 189.368 66.7476 189.368ZM77.7949 184.216H75.0789V190.46H73.7349V184.216H71.0189V183.04H77.7949V184.216ZM82.0532 187.324H80.5132V190.46H79.1692V183.04H80.5132V186.176H82.0812L84.4892 183.04H85.9312L83.1172 186.61L86.1272 190.46H84.5452L82.0532 187.324ZM90.0457 182.97C91.0723 182.97 91.8563 183.222 92.3977 183.726C92.9483 184.23 93.2237 184.981 93.2237 185.98V190.46H91.9497V189.48C91.7257 189.825 91.4037 190.091 90.9837 190.278C90.573 190.455 90.083 190.544 89.5137 190.544C88.683 190.544 88.0157 190.343 87.5117 189.942C87.017 189.541 86.7697 189.013 86.7697 188.36C86.7697 187.707 87.0077 187.184 87.4837 186.792C87.9597 186.391 88.7157 186.19 89.7517 186.19H91.8797V185.924C91.8797 185.345 91.7117 184.902 91.3757 184.594C91.0397 184.286 90.545 184.132 89.8917 184.132C89.453 184.132 89.0237 184.207 88.6037 184.356C88.1837 184.496 87.829 184.687 87.5397 184.93L86.9797 183.922C87.3623 183.614 87.8197 183.381 88.3517 183.222C88.8837 183.054 89.4483 182.97 90.0457 182.97ZM89.7377 189.508C90.251 189.508 90.6943 189.396 91.0677 189.172C91.441 188.939 91.7117 188.612 91.8797 188.192V187.156H89.8077C88.669 187.156 88.0997 187.539 88.0997 188.304C88.0997 188.677 88.2443 188.971 88.5337 189.186C88.823 189.401 89.2243 189.508 89.7377 189.508Z" fill="black"/>
<rect x="70.5" y="222.459" width="220" height="4" fill="url(#paint2_linear)"/>
<path d="M291.949 267.241V270.601H290.647V268.459H282.583L282.569 270.601H281.267L281.281 267.241H281.757C282.373 267.204 282.807 266.719 283.059 265.785C283.311 264.843 283.465 263.517 283.521 261.809L283.619 258.659H290.507V267.241H291.949ZM284.753 261.935C284.706 263.317 284.594 264.46 284.417 265.365C284.249 266.271 283.974 266.896 283.591 267.241H289.121V259.877H284.823L284.753 261.935ZM293.639 261.039H294.983V266.443L299.533 261.039H300.751V268.459H299.407V263.055L294.871 268.459H293.639V261.039ZM307.255 264.595C307.749 264.726 308.132 264.936 308.403 265.225C308.673 265.515 308.809 265.874 308.809 266.303C308.809 266.742 308.659 267.134 308.361 267.479C308.062 267.815 307.647 268.081 307.115 268.277C306.592 268.464 306.004 268.557 305.351 268.557C304.8 268.557 304.259 268.487 303.727 268.347C303.204 268.198 302.737 267.988 302.327 267.717L302.733 266.695C303.087 266.919 303.493 267.097 303.951 267.227C304.408 267.349 304.87 267.409 305.337 267.409C305.971 267.409 306.475 267.302 306.849 267.087C307.231 266.863 307.423 266.565 307.423 266.191C307.423 265.846 307.269 265.58 306.961 265.393C306.662 265.207 306.237 265.113 305.687 265.113H304.329V264.147H305.589C306.093 264.147 306.489 264.059 306.779 263.881C307.068 263.704 307.213 263.461 307.213 263.153C307.213 262.817 307.04 262.556 306.695 262.369C306.359 262.183 305.901 262.089 305.323 262.089C304.585 262.089 303.806 262.281 302.985 262.663L302.621 261.627C303.526 261.17 304.473 260.941 305.463 260.941C306.06 260.941 306.597 261.025 307.073 261.193C307.549 261.361 307.922 261.599 308.193 261.907C308.463 262.215 308.599 262.565 308.599 262.957C308.599 263.321 308.477 263.648 308.235 263.937C307.992 264.227 307.665 264.446 307.255 264.595ZM313.498 260.969C314.524 260.969 315.308 261.221 315.85 261.725C316.4 262.229 316.676 262.981 316.676 263.979V268.459H315.402V267.479C315.178 267.825 314.856 268.091 314.436 268.277C314.025 268.455 313.535 268.543 312.966 268.543C312.135 268.543 311.468 268.343 310.964 267.941C310.469 267.54 310.222 267.013 310.222 266.359C310.222 265.706 310.46 265.183 310.936 264.791C311.412 264.39 312.168 264.189 313.204 264.189H315.332V263.923C315.332 263.345 315.164 262.901 314.828 262.593C314.492 262.285 313.997 262.131 313.344 262.131C312.905 262.131 312.476 262.206 312.056 262.355C311.636 262.495 311.281 262.687 310.992 262.929L310.432 261.921C310.814 261.613 311.272 261.38 311.804 261.221C312.336 261.053 312.9 260.969 313.498 260.969ZM313.19 267.507C313.703 267.507 314.146 267.395 314.52 267.171C314.893 266.938 315.164 266.611 315.332 266.191V265.155H313.26C312.121 265.155 311.552 265.538 311.552 266.303C311.552 266.677 311.696 266.971 311.986 267.185C312.275 267.4 312.676 267.507 313.19 267.507ZM319.096 261.039H320.44V266.443L324.99 261.039H326.208V268.459H324.864V263.055L320.328 268.459H319.096V261.039ZM322.568 260.073C321.877 260.073 321.341 259.91 320.958 259.583C320.575 259.247 320.379 258.767 320.37 258.141H321.28C321.289 258.487 321.406 258.767 321.63 258.981C321.863 259.187 322.171 259.289 322.554 259.289C322.937 259.289 323.245 259.187 323.478 258.981C323.711 258.767 323.833 258.487 323.842 258.141H324.78C324.771 258.767 324.57 259.247 324.178 259.583C323.786 259.91 323.249 260.073 322.568 260.073ZM328.817 261.039H330.161V264.189H334.389V261.039H335.733V268.459H334.389V265.351H330.161V268.459H328.817V261.039Z" fill="black"/>
<circle cx="309.064" cy="224.459" r="20" fill="#F98DFC"/>
<circle cx="309.064" cy="224.459" r="6" fill="#211F1D"/>
<rect x="312" y="79.9575" width="130" height="4" transform="rotate(90 312 79.9575)" fill="url(#paint3_linear)"/>
<circle cx="310" cy="65.6797" r="20" fill="#FCD052"/>
<circle cx="310" cy="65.6797" r="6" fill="#211F1D"/>
<path d="M268.624 14.7917C267.635 14.7917 266.744 14.577 265.95 14.1477C265.157 13.709 264.532 13.107 264.074 12.3417C263.626 11.5764 263.402 10.7224 263.402 9.77969C263.402 8.83702 263.626 7.98302 264.074 7.21769C264.532 6.45235 265.157 5.85502 265.95 5.42569C266.744 4.98702 267.635 4.76769 268.624 4.76769C269.604 4.76769 270.491 4.98702 271.284 5.42569C272.078 5.85502 272.698 6.45235 273.146 7.21769C273.594 7.97369 273.818 8.82769 273.818 9.77969C273.818 10.7317 273.594 11.5904 273.146 12.3557C272.698 13.1117 272.078 13.709 271.284 14.1477C270.491 14.577 269.604 14.7917 268.624 14.7917ZM268.624 13.5457C269.343 13.5457 269.987 13.3824 270.556 13.0557C271.135 12.729 271.588 12.281 271.914 11.7117C272.25 11.133 272.418 10.489 272.418 9.77969C272.418 9.07035 272.25 8.43102 271.914 7.86169C271.588 7.28302 271.135 6.83035 270.556 6.50369C269.987 6.17702 269.343 6.01369 268.624 6.01369C267.906 6.01369 267.252 6.17702 266.664 6.50369C266.086 6.83035 265.628 7.28302 265.292 7.86169C264.966 8.43102 264.802 9.07035 264.802 9.77969C264.802 10.489 264.966 11.133 265.292 11.7117C265.628 12.281 266.086 12.729 266.664 13.0557C267.252 13.3824 267.906 13.5457 268.624 13.5457ZM279.638 7.51169C280.328 7.51169 280.944 7.66569 281.486 7.97369C282.027 8.28169 282.447 8.71102 282.746 9.26169C283.054 9.80302 283.208 10.4237 283.208 11.1237C283.208 11.8424 283.044 12.4817 282.718 13.0417C282.4 13.5924 281.948 14.0217 281.36 14.3297C280.781 14.6377 280.118 14.7917 279.372 14.7917C278.112 14.7917 277.136 14.3624 276.446 13.5037C275.764 12.6357 275.424 11.4177 275.424 9.84969C275.424 8.32835 275.736 7.13835 276.362 6.27969C276.987 5.41169 277.944 4.83769 279.232 4.55769L282.62 3.80169L282.816 5.03369L279.694 5.70569C278.723 5.92035 278 6.28435 277.524 6.79769C277.048 7.31102 276.777 8.04835 276.712 9.00969C277.029 8.53369 277.44 8.16502 277.944 7.90369C278.448 7.64235 279.012 7.51169 279.638 7.51169ZM279.4 13.6717C279.876 13.6717 280.296 13.5644 280.66 13.3497C281.033 13.135 281.322 12.841 281.528 12.4677C281.733 12.085 281.836 11.651 281.836 11.1657C281.836 10.4284 281.612 9.83569 281.164 9.38769C280.716 8.93969 280.128 8.71569 279.4 8.71569C278.672 8.71569 278.079 8.93969 277.622 9.38769C277.174 9.83569 276.95 10.4284 276.95 11.1657C276.95 11.651 277.052 12.085 277.258 12.4677C277.472 12.841 277.766 13.135 278.14 13.3497C278.513 13.5644 278.933 13.6717 279.4 13.6717ZM288.361 14.7637C287.605 14.7637 286.929 14.6004 286.331 14.2737C285.743 13.947 285.281 13.499 284.945 12.9297C284.609 12.351 284.441 11.6977 284.441 10.9697C284.441 10.2417 284.609 9.59302 284.945 9.02369C285.281 8.44502 285.743 7.99702 286.331 7.67969C286.929 7.35302 287.605 7.18969 288.361 7.18969C289.033 7.18969 289.631 7.32502 290.153 7.59569C290.685 7.86635 291.096 8.25835 291.385 8.77169L290.363 9.42969C290.13 9.07502 289.841 8.80902 289.495 8.63169C289.15 8.45435 288.767 8.36569 288.347 8.36569C287.862 8.36569 287.423 8.47302 287.031 8.68769C286.649 8.90235 286.345 9.21035 286.121 9.61169C285.907 10.0037 285.799 10.4564 285.799 10.9697C285.799 11.4924 285.907 11.9544 286.121 12.3557C286.345 12.7477 286.649 13.051 287.031 13.2657C287.423 13.4804 287.862 13.5877 288.347 13.5877C288.767 13.5877 289.15 13.499 289.495 13.3217C289.841 13.1444 290.13 12.8784 290.363 12.5237L291.385 13.1677C291.096 13.681 290.685 14.0777 290.153 14.3577C289.631 14.6284 289.033 14.7637 288.361 14.7637ZM299.652 7.25969L296.054 15.4217C295.736 16.1777 295.363 16.7097 294.934 17.0177C294.514 17.3257 294.005 17.4797 293.408 17.4797C293.044 17.4797 292.689 17.419 292.344 17.2977C292.008 17.1857 291.728 17.0177 291.504 16.7937L292.078 15.7857C292.46 16.1497 292.904 16.3317 293.408 16.3317C293.734 16.3317 294.005 16.243 294.22 16.0657C294.444 15.8977 294.644 15.6037 294.822 15.1837L295.06 14.6657L291.784 7.25969H293.184L295.774 13.1957L298.336 7.25969H299.652ZM307.352 11.5437H305.91V14.6797H304.566V11.5437H303.124L301.08 14.6797H299.484L302.032 10.8437L299.68 7.25969H301.108L303.11 10.3957H304.566V7.25969H305.91V10.3957H307.366L309.368 7.25969H310.81L308.458 10.8577L311.006 14.6797H309.41L307.352 11.5437ZM320.031 13.5037V16.4017H318.771V14.6797H312.569V16.4017H311.295V13.5037H311.687C312.163 13.4757 312.489 13.1397 312.667 12.4957C312.844 11.8517 312.965 10.9417 313.031 9.76569L313.143 7.25969H318.897V13.5037H320.031ZM314.263 9.86369C314.225 10.797 314.146 11.5717 314.025 12.1877C313.913 12.7944 313.703 13.233 313.395 13.5037H317.553V8.43569H314.333L314.263 9.86369ZM328.487 11.0117C328.487 11.1144 328.478 11.2497 328.459 11.4177H322.439C322.523 12.071 322.808 12.5984 323.293 12.9997C323.788 13.3917 324.399 13.5877 325.127 13.5877C326.014 13.5877 326.728 13.289 327.269 12.6917L328.011 13.5597C327.675 13.9517 327.255 14.2504 326.751 14.4557C326.257 14.661 325.701 14.7637 325.085 14.7637C324.301 14.7637 323.606 14.605 322.999 14.2877C322.393 13.961 321.921 13.5084 321.585 12.9297C321.259 12.351 321.095 11.6977 321.095 10.9697C321.095 10.251 321.254 9.60235 321.571 9.02369C321.898 8.44502 322.341 7.99702 322.901 7.67969C323.471 7.35302 324.11 7.18969 324.819 7.18969C325.529 7.18969 326.159 7.35302 326.709 7.67969C327.269 7.99702 327.703 8.44502 328.011 9.02369C328.329 9.60235 328.487 10.265 328.487 11.0117ZM324.819 8.32369C324.175 8.32369 323.634 8.51969 323.195 8.91169C322.766 9.30369 322.514 9.81702 322.439 10.4517H327.199C327.125 9.82635 326.868 9.31769 326.429 8.92569C326 8.52435 325.463 8.32369 324.819 8.32369ZM330.573 7.25969H331.917V10.4097H336.145V7.25969H337.489V14.6797H336.145V11.5717H331.917V14.6797H330.573V7.25969ZM340.102 7.25969H341.446V12.6637L345.996 7.25969H347.214V14.6797H345.87V9.27569L341.334 14.6797H340.102V7.25969ZM356.529 11.0117C356.529 11.1144 356.519 11.2497 356.501 11.4177H350.481C350.565 12.071 350.849 12.5984 351.335 12.9997C351.829 13.3917 352.441 13.5877 353.169 13.5877C354.055 13.5877 354.769 13.289 355.311 12.6917L356.053 13.5597C355.717 13.9517 355.297 14.2504 354.793 14.4557C354.298 14.661 353.743 14.7637 353.127 14.7637C352.343 14.7637 351.647 14.605 351.041 14.2877C350.434 13.961 349.963 13.5084 349.627 12.9297C349.3 12.351 349.137 11.6977 349.137 10.9697C349.137 10.251 349.295 9.60235 349.613 9.02369C349.939 8.44502 350.383 7.99702 350.943 7.67969C351.512 7.35302 352.151 7.18969 352.861 7.18969C353.57 7.18969 354.2 7.35302 354.751 7.67969C355.311 7.99702 355.745 8.44502 356.053 9.02369C356.37 9.60235 356.529 10.265 356.529 11.0117ZM352.861 8.32369C352.217 8.32369 351.675 8.51969 351.237 8.91169C350.807 9.30369 350.555 9.81702 350.481 10.4517H355.241C355.166 9.82635 354.909 9.31769 354.471 8.92569C354.041 8.52435 353.505 8.32369 352.861 8.32369ZM288.647 30.5037V33.4017H287.387V31.6797H281.185V33.4017H279.911V30.5037H280.303C280.779 30.4757 281.105 30.1397 281.283 29.4957C281.46 28.8517 281.581 27.9417 281.647 26.7657L281.759 24.2597H287.513V30.5037H288.647ZM282.879 26.8637C282.841 27.797 282.762 28.5717 282.641 29.1877C282.529 29.7944 282.319 30.233 282.011 30.5037H286.169V25.4357H282.949L282.879 26.8637ZM297.104 28.0117C297.104 28.1144 297.094 28.2497 297.076 28.4177H291.056C291.14 29.071 291.424 29.5984 291.91 29.9997C292.404 30.3917 293.016 30.5877 293.744 30.5877C294.63 30.5877 295.344 30.289 295.886 29.6917L296.628 30.5597C296.292 30.9517 295.872 31.2504 295.368 31.4557C294.873 31.661 294.318 31.7637 293.702 31.7637C292.918 31.7637 292.222 31.605 291.616 31.2877C291.009 30.961 290.538 30.5084 290.202 29.9297C289.875 29.351 289.712 28.6977 289.712 27.9697C289.712 27.251 289.87 26.6024 290.188 26.0237C290.514 25.445 290.958 24.997 291.518 24.6797C292.087 24.353 292.726 24.1897 293.436 24.1897C294.145 24.1897 294.775 24.353 295.326 24.6797C295.886 24.997 296.32 25.445 296.628 26.0237C296.945 26.6024 297.104 27.265 297.104 28.0117ZM293.436 25.3237C292.792 25.3237 292.25 25.5197 291.812 25.9117C291.382 26.3037 291.13 26.817 291.056 27.4517H295.816C295.741 26.8264 295.484 26.3177 295.046 25.9257C294.616 25.5244 294.08 25.3237 293.436 25.3237ZM304.404 25.4357H301.688V31.6797H300.344V25.4357H297.628V24.2597H304.404V25.4357ZM308.425 24.1897C309.451 24.1897 310.235 24.4417 310.777 24.9457C311.327 25.4497 311.603 26.201 311.603 27.1997V31.6797H310.329V30.6997C310.105 31.045 309.783 31.311 309.363 31.4977C308.952 31.675 308.462 31.7637 307.893 31.7637C307.062 31.7637 306.395 31.563 305.891 31.1617C305.396 30.7604 305.149 30.233 305.149 29.5797C305.149 28.9264 305.387 28.4037 305.863 28.0117C306.339 27.6104 307.095 27.4097 308.131 27.4097H310.259V27.1437C310.259 26.565 310.091 26.1217 309.755 25.8137C309.419 25.5057 308.924 25.3517 308.271 25.3517C307.832 25.3517 307.403 25.4264 306.983 25.5757C306.563 25.7157 306.208 25.907 305.919 26.1497L305.359 25.1417C305.741 24.8337 306.199 24.6004 306.731 24.4417C307.263 24.2737 307.827 24.1897 308.425 24.1897ZM308.117 30.7277C308.63 30.7277 309.073 30.6157 309.447 30.3917C309.82 30.1584 310.091 29.8317 310.259 29.4117V28.3757H308.187C307.048 28.3757 306.479 28.7584 306.479 29.5237C306.479 29.897 306.623 30.191 306.913 30.4057C307.202 30.6204 307.603 30.7277 308.117 30.7277ZM320.393 24.2597V31.6797H319.049V25.4357H315.857L315.773 27.0877C315.726 28.0864 315.637 28.9217 315.507 29.5937C315.376 30.2564 315.161 30.7884 314.863 31.1897C314.564 31.591 314.149 31.7917 313.617 31.7917C313.374 31.7917 313.099 31.7497 312.791 31.6657L312.875 30.5317C312.996 30.5597 313.108 30.5737 313.211 30.5737C313.584 30.5737 313.864 30.4104 314.051 30.0837C314.237 29.757 314.359 29.3697 314.415 28.9217C314.471 28.4737 314.522 27.8344 314.569 27.0037L314.695 24.2597H320.393ZM329.697 28.0117C329.697 28.1144 329.688 28.2497 329.669 28.4177H323.649C323.733 29.071 324.018 29.5984 324.503 29.9997C324.998 30.3917 325.609 30.5877 326.337 30.5877C327.224 30.5877 327.938 30.289 328.479 29.6917L329.221 30.5597C328.885 30.9517 328.465 31.2504 327.961 31.4557C327.467 31.661 326.911 31.7637 326.295 31.7637C325.511 31.7637 324.816 31.605 324.209 31.2877C323.603 30.961 323.131 30.5084 322.795 29.9297C322.469 29.351 322.305 28.6977 322.305 27.9697C322.305 27.251 322.464 26.6024 322.781 26.0237C323.108 25.445 323.551 24.997 324.111 24.6797C324.681 24.353 325.32 24.1897 326.029 24.1897C326.739 24.1897 327.369 24.353 327.919 24.6797C328.479 24.997 328.913 25.445 329.221 26.0237C329.539 26.6024 329.697 27.265 329.697 28.0117ZM326.029 25.3237C325.385 25.3237 324.844 25.5197 324.405 25.9117C323.976 26.3037 323.724 26.817 323.649 27.4517H328.409C328.335 26.8264 328.078 26.3177 327.639 25.9257C327.21 25.5244 326.673 25.3237 326.029 25.3237ZM331.782 24.2597H333.126V29.6637L337.676 24.2597H338.894V31.6797H337.55V26.2757L333.014 31.6797H331.782V24.2597ZM335.254 23.2937C334.564 23.2937 334.027 23.1304 333.644 22.8037C333.262 22.4677 333.066 21.987 333.056 21.3617H333.966C333.976 21.707 334.092 21.987 334.316 22.2017C334.55 22.407 334.858 22.5097 335.24 22.5097C335.623 22.5097 335.931 22.407 336.164 22.2017C336.398 21.987 336.519 21.707 336.528 21.3617H337.466C337.457 21.987 337.256 22.4677 336.864 22.8037C336.472 23.1304 335.936 23.2937 335.254 23.2937Z" fill="black"/>
<rect x="70" y="63.6797" width="220" height="4" fill="url(#paint4_linear)"/>
<circle cx="52" cy="65.6797" r="20" fill="#7FFDC0"/>
<circle cx="52" cy="65.6797" r="6" fill="#211F1D"/>
<path d="M17.2268 4.87969V14.6797H15.8548V6.09769H10.1708V14.6797H8.78479V4.87969H17.2268ZM23.9928 7.18969C24.7115 7.18969 25.3555 7.34835 25.9248 7.66569C26.4942 7.98302 26.9375 8.42635 27.2548 8.99569C27.5815 9.56502 27.7448 10.223 27.7448 10.9697C27.7448 11.7164 27.5815 12.379 27.2548 12.9577C26.9375 13.527 26.4942 13.9704 25.9248 14.2877C25.3555 14.605 24.7115 14.7637 23.9928 14.7637C23.4608 14.7637 22.9708 14.661 22.5228 14.4557C22.0842 14.2504 21.7108 13.9517 21.4028 13.5597V17.3957H20.0588V7.25969H21.3468V8.43569C21.6455 8.02502 22.0235 7.71702 22.4808 7.51169C22.9382 7.29702 23.4422 7.18969 23.9928 7.18969ZM23.8808 13.5877C24.3568 13.5877 24.7815 13.4804 25.1548 13.2657C25.5375 13.0417 25.8362 12.7337 26.0508 12.3417C26.2748 11.9404 26.3868 11.483 26.3868 10.9697C26.3868 10.4564 26.2748 10.0037 26.0508 9.61169C25.8362 9.21035 25.5375 8.90235 25.1548 8.68769C24.7815 8.47302 24.3568 8.36569 23.8808 8.36569C23.4142 8.36569 22.9895 8.47769 22.6068 8.70169C22.2335 8.91635 21.9348 9.21969 21.7108 9.61169C21.4962 10.0037 21.3888 10.4564 21.3888 10.9697C21.3888 11.483 21.4962 11.9404 21.7108 12.3417C21.9255 12.7337 22.2242 13.0417 22.6068 13.2657C22.9895 13.4804 23.4142 13.5877 23.8808 13.5877ZM29.6975 7.25969H31.0415V12.6637L35.5915 7.25969H36.8095V14.6797H35.4655V9.27569L30.9295 14.6797H29.6975V7.25969ZM39.4182 7.25969H40.7622V10.4097H44.9902V7.25969H46.3342V14.6797H44.9902V11.5717H40.7622V14.6797H39.4182V7.25969ZM48.9475 7.25969H50.2915V12.6637L54.8415 7.25969H56.0595V14.6797H54.7155V9.27569L50.1795 14.6797H48.9475V7.25969ZM67.2222 7.25969V14.6797H66.0042V9.26169L63.2322 13.8397H62.6442L59.9002 9.24769V14.6797H58.6682V7.25969H60.0542L62.9662 12.2717L65.9622 7.25969H67.2222ZM72.4841 7.18969C73.5108 7.18969 74.2948 7.44169 74.8361 7.94569C75.3868 8.44969 75.6621 9.20102 75.6621 10.1997V14.6797H74.3881V13.6997C74.1641 14.045 73.8421 14.311 73.4221 14.4977C73.0115 14.675 72.5215 14.7637 71.9521 14.7637C71.1215 14.7637 70.4541 14.563 69.9501 14.1617C69.4555 13.7604 69.2081 13.233 69.2081 12.5797C69.2081 11.9264 69.4461 11.4037 69.9221 11.0117C70.3981 10.6104 71.1541 10.4097 72.1901 10.4097H74.3181V10.1437C74.3181 9.56502 74.1501 9.12169 73.8141 8.81369C73.4781 8.50569 72.9835 8.35169 72.3301 8.35169C71.8915 8.35169 71.4621 8.42635 71.0421 8.57569C70.6221 8.71569 70.2675 8.90702 69.9781 9.14969L69.4181 8.14169C69.8008 7.83369 70.2581 7.60035 70.7901 7.44169C71.3221 7.27369 71.8868 7.18969 72.4841 7.18969ZM72.1761 13.7277C72.6895 13.7277 73.1328 13.6157 73.5061 13.3917C73.8795 13.1584 74.1501 12.8317 74.3181 12.4117V11.3757H72.2461C71.1075 11.3757 70.5381 11.7584 70.5381 12.5237C70.5381 12.897 70.6828 13.191 70.9721 13.4057C71.2615 13.6204 71.6628 13.7277 72.1761 13.7277ZM84.7883 11.0117C84.7883 11.1144 84.7789 11.2497 84.7603 11.4177H78.7403C78.8243 12.071 79.1089 12.5984 79.5943 12.9997C80.0889 13.3917 80.7003 13.5877 81.4283 13.5877C82.3149 13.5877 83.0289 13.289 83.5703 12.6917L84.3123 13.5597C83.9763 13.9517 83.5563 14.2504 83.0523 14.4557C82.5576 14.661 82.0023 14.7637 81.3863 14.7637C80.6023 14.7637 79.9069 14.605 79.3003 14.2877C78.6936 13.961 78.2223 13.5084 77.8863 12.9297C77.5596 12.351 77.3963 11.6977 77.3963 10.9697C77.3963 10.251 77.5549 9.60235 77.8723 9.02369C78.1989 8.44502 78.6423 7.99702 79.2023 7.67969C79.7716 7.35302 80.4109 7.18969 81.1203 7.18969C81.8296 7.18969 82.4596 7.35302 83.0103 7.67969C83.5703 7.99702 84.0043 8.44502 84.3123 9.02369C84.6296 9.60235 84.7883 10.265 84.7883 11.0117ZM81.1203 8.32369C80.4763 8.32369 79.9349 8.51969 79.4963 8.91169C79.0669 9.30369 78.8149 9.81702 78.7403 10.4517H83.5003C83.4256 9.82635 83.1689 9.31769 82.7303 8.92569C82.3009 8.52435 81.7643 8.32369 81.1203 8.32369ZM95.4273 7.25969V14.6797H94.2093V9.26169L91.4373 13.8397H90.8493L88.1053 9.24769V14.6797H86.8733V7.25969H88.2593L91.1713 12.2717L94.1673 7.25969H95.4273ZM37.4069 27.8157C37.9016 27.9464 38.2842 28.1564 38.5549 28.4457C38.8256 28.735 38.9609 29.0944 38.9609 29.5237C38.9609 29.9624 38.8116 30.3544 38.5129 30.6997C38.2142 31.0357 37.7989 31.3017 37.2669 31.4977C36.7442 31.6844 36.1562 31.7777 35.5029 31.7777C34.9522 31.7777 34.4109 31.7077 33.8789 31.5677C33.3562 31.4184 32.8896 31.2084 32.4789 30.9377L32.8849 29.9157C33.2396 30.1397 33.6456 30.317 34.1029 30.4477C34.5602 30.569 35.0222 30.6297 35.4889 30.6297C36.1236 30.6297 36.6276 30.5224 37.0009 30.3077C37.3836 30.0837 37.5749 29.785 37.5749 29.4117C37.5749 29.0664 37.4209 28.8004 37.1129 28.6137C36.8142 28.427 36.3896 28.3337 35.8389 28.3337H34.4809V27.3677H35.7409C36.2449 27.3677 36.6416 27.279 36.9309 27.1017C37.2202 26.9244 37.3649 26.6817 37.3649 26.3737C37.3649 26.0377 37.1922 25.7764 36.8469 25.5897C36.5109 25.403 36.0536 25.3097 35.4749 25.3097C34.7376 25.3097 33.9582 25.501 33.1369 25.8837L32.7729 24.8477C33.6782 24.3904 34.6256 24.1617 35.6149 24.1617C36.2122 24.1617 36.7489 24.2457 37.2249 24.4137C37.7009 24.5817 38.0742 24.8197 38.3449 25.1277C38.6156 25.4357 38.7509 25.7857 38.7509 26.1777C38.7509 26.5417 38.6296 26.8684 38.3869 27.1577C38.1442 27.447 37.8176 27.6664 37.4069 27.8157ZM43.6501 24.1897C44.6768 24.1897 45.4608 24.4417 46.0021 24.9457C46.5528 25.4497 46.8281 26.201 46.8281 27.1997V31.6797H45.5541V30.6997C45.3301 31.045 45.0081 31.311 44.5881 31.4977C44.1775 31.675 43.6875 31.7637 43.1181 31.7637C42.2875 31.7637 41.6201 31.563 41.1161 31.1617C40.6215 30.7604 40.3741 30.233 40.3741 29.5797C40.3741 28.9264 40.6121 28.4037 41.0881 28.0117C41.5641 27.6104 42.3201 27.4097 43.3561 27.4097H45.4841V27.1437C45.4841 26.565 45.3161 26.1217 44.9801 25.8137C44.6441 25.5057 44.1495 25.3517 43.4961 25.3517C43.0575 25.3517 42.6281 25.4264 42.2081 25.5757C41.7881 25.7157 41.4335 25.907 41.1441 26.1497L40.5841 25.1417C40.9668 24.8337 41.4241 24.6004 41.9561 24.4417C42.4881 24.2737 43.0528 24.1897 43.6501 24.1897ZM43.3421 30.7277C43.8555 30.7277 44.2988 30.6157 44.6721 30.3917C45.0455 30.1584 45.3161 29.8317 45.4841 29.4117V28.3757H43.4121C42.2735 28.3757 41.7041 28.7584 41.7041 29.5237C41.7041 29.897 41.8488 30.191 42.1381 30.4057C42.4275 30.6204 42.8288 30.7277 43.3421 30.7277ZM52.1323 28.5437H50.5923V31.6797H49.2483V24.2597H50.5923V27.3957H52.1603L54.5683 24.2597H56.0103L53.1963 27.8297L56.2063 31.6797H54.6243L52.1323 28.5437ZM60.1248 24.1897C61.1514 24.1897 61.9354 24.4417 62.4768 24.9457C63.0274 25.4497 63.3028 26.201 63.3028 27.1997V31.6797H62.0288V30.6997C61.8048 31.045 61.4828 31.311 61.0628 31.4977C60.6521 31.675 60.1621 31.7637 59.5928 31.7637C58.7621 31.7637 58.0948 31.563 57.5908 31.1617C57.0961 30.7604 56.8488 30.233 56.8488 29.5797C56.8488 28.9264 57.0868 28.4037 57.5628 28.0117C58.0388 27.6104 58.7948 27.4097 59.8308 27.4097H61.9588V27.1437C61.9588 26.565 61.7908 26.1217 61.4548 25.8137C61.1188 25.5057 60.6241 25.3517 59.9708 25.3517C59.5321 25.3517 59.1028 25.4264 58.6828 25.5757C58.2628 25.7157 57.9081 25.907 57.6188 26.1497L57.0588 25.1417C57.4414 24.8337 57.8988 24.6004 58.4308 24.4417C58.9628 24.2737 59.5274 24.1897 60.1248 24.1897ZM59.8168 30.7277C60.3301 30.7277 60.7734 30.6157 61.1468 30.3917C61.5201 30.1584 61.7908 29.8317 61.9588 29.4117V28.3757H59.8868C58.7481 28.3757 58.1788 28.7584 58.1788 29.5237C58.1788 29.897 58.3234 30.191 58.6128 30.4057C58.9021 30.6204 59.3034 30.7277 59.8168 30.7277ZM69.6179 27.8157C70.1125 27.9464 70.4952 28.1564 70.7659 28.4457C71.0365 28.735 71.1719 29.0944 71.1719 29.5237C71.1719 29.9624 71.0225 30.3544 70.7239 30.6997C70.4252 31.0357 70.0099 31.3017 69.4779 31.4977C68.9552 31.6844 68.3672 31.7777 67.7139 31.7777C67.1632 31.7777 66.6219 31.7077 66.0899 31.5677C65.5672 31.4184 65.1005 31.2084 64.6899 30.9377L65.0959 29.9157C65.4505 30.1397 65.8565 30.317 66.3139 30.4477C66.7712 30.569 67.2332 30.6297 67.6999 30.6297C68.3345 30.6297 68.8385 30.5224 69.2119 30.3077C69.5945 30.0837 69.7859 29.785 69.7859 29.4117C69.7859 29.0664 69.6319 28.8004 69.3239 28.6137C69.0252 28.427 68.6005 28.3337 68.0499 28.3337H66.6919V27.3677H67.9519C68.4559 27.3677 68.8525 27.279 69.1419 27.1017C69.4312 26.9244 69.5759 26.6817 69.5759 26.3737C69.5759 26.0377 69.4032 25.7764 69.0579 25.5897C68.7219 25.403 68.2645 25.3097 67.6859 25.3097C66.9485 25.3097 66.1692 25.501 65.3479 25.8837L64.9839 24.8477C65.8892 24.3904 66.8365 24.1617 67.8259 24.1617C68.4232 24.1617 68.9599 24.2457 69.4359 24.4137C69.9119 24.5817 70.2852 24.8197 70.5559 25.1277C70.8265 25.4357 70.9619 25.7857 70.9619 26.1777C70.9619 26.5417 70.8405 26.8684 70.5979 27.1577C70.3552 27.447 70.0285 27.6664 69.6179 27.8157Z" fill="black"/>
<defs>
<linearGradient id="paint0_linear" x1="71" y1="382.672" x2="294.431" y2="382.672" gradientUnits="userSpaceOnUse">
<stop stop-color="#CE7EFF"/>
<stop offset="1" stop-color="#F26A51"/>
</linearGradient>
<linearGradient id="paint1_linear" x1="50" y1="366.491" x2="182.027" y2="366.491" gradientUnits="userSpaceOnUse">
<stop stop-color="#CE7EFF"/>
<stop offset="1" stop-color="#7EC1FF"/>
</linearGradient>
<linearGradient id="paint2_linear" x1="70.5" y1="224.46" x2="293.931" y2="224.459" gradientUnits="userSpaceOnUse">
<stop stop-color="#7EC1FF"/>
<stop offset="1" stop-color="#F98DFC"/>
</linearGradient>
<linearGradient id="paint3_linear" x1="312" y1="81.9576" x2="444.027" y2="81.9576" gradientUnits="userSpaceOnUse">
<stop stop-color="#FFCF4F"/>
<stop offset="1" stop-color="#F98DFC"/>
</linearGradient>
<linearGradient id="paint4_linear" x1="70" y1="65.6797" x2="293.431" y2="65.6797" gradientUnits="userSpaceOnUse">
<stop stop-color="#7FFDC0"/>
<stop offset="1" stop-color="#FFCF4F"/>
</linearGradient>
</defs>
</svg>
