<svg width="692" height="530" viewBox="0 0 692 530" fill="none" xmlns="http://www.w3.org/2000/svg">
<path d="M343.119 404.878C343.119 402.035 342.407 399.285 341.041 396.924L340.717 396.365H320.443L320.126 396.924C318.763 399.281 318.048 402.035 318.048 404.878C318.048 412.13 322.731 418.138 328.806 419.133V436.067C325.301 436.207 322.69 436.733 322.69 437.354C322.69 438.093 326.249 438.684 330.641 438.684C335.036 438.684 338.602 438.093 338.602 437.354C338.602 436.733 335.991 436.207 332.486 436.067V419.119C338.501 418.062 343.119 412.077 343.119 404.878ZM330.58 417.068C324.906 417.068 320.285 411.601 320.285 404.871C320.285 402.63 320.794 400.465 321.769 398.567H339.395C340.366 400.465 340.882 402.633 340.882 404.871C340.886 411.604 336.258 417.068 330.58 417.068ZM364.583 377.701H355.668V370.08H364.583V377.701ZM364.583 387.145V380.046H355.668V387.148C351.903 388.821 349.272 392.551 349.272 396.894V403.854V426.042V439.08H370.976V426.042V403.854V396.894C370.979 392.551 368.355 388.821 364.583 387.145ZM369.06 428.323H351.38V407.415H369.06V428.323ZM339.948 405.107C339.948 405.107 339.479 416.163 330.732 416.163C321.985 416.163 320.804 405.107 320.804 405.107H339.948V405.107Z" fill="#211F1D"/>
<circle cx="344.512" cy="474.08" r="25" fill="#F26A51"/>
<circle cx="344.512" cy="474.08" r="7.5" fill="#211F1D"/>
<path d="M284.998 518.272C285.755 518.453 286.326 518.779 286.71 519.248C287.104 519.707 287.302 520.299 287.302 521.024C287.302 521.995 286.944 522.747 286.23 523.28C285.526 523.813 284.496 524.08 283.142 524.08H278.022V512.88H282.838C284.064 512.88 285.019 513.131 285.702 513.632C286.395 514.123 286.742 514.832 286.742 515.76C286.742 516.368 286.587 516.885 286.278 517.312C285.979 517.739 285.552 518.059 284.998 518.272ZM279.606 517.808H282.726C283.504 517.808 284.096 517.653 284.502 517.344C284.918 517.035 285.126 516.581 285.126 515.984C285.126 515.387 284.918 514.933 284.502 514.624C284.086 514.304 283.494 514.144 282.726 514.144H279.606V517.808ZM283.11 522.816C284.827 522.816 285.686 522.176 285.686 520.896C285.686 520.256 285.467 519.787 285.03 519.488C284.603 519.179 283.963 519.024 283.11 519.024H279.606V522.816H283.11ZM293.543 518.48C294.61 518.491 295.426 518.736 295.991 519.216C296.556 519.696 296.839 520.373 296.839 521.248C296.839 522.165 296.53 522.875 295.911 523.376C295.303 523.867 294.428 524.107 293.287 524.096L289.719 524.08V515.6H291.255V518.464L293.543 518.48ZM298.103 515.6H299.639V524.08H298.103V515.6ZM293.175 522.928C293.868 522.939 294.391 522.8 294.743 522.512C295.106 522.224 295.287 521.797 295.287 521.232C295.287 520.677 295.111 520.272 294.759 520.016C294.407 519.76 293.879 519.627 293.175 519.616L291.255 519.584V522.912L293.175 522.928ZM310.481 515.6V524.08H308.945V516.944H304.161V524.08H302.625V515.6H310.481ZM321.021 515.6L316.909 524.928C316.547 525.792 316.12 526.4 315.629 526.752C315.149 527.104 314.568 527.28 313.885 527.28C313.469 527.28 313.064 527.211 312.669 527.072C312.285 526.944 311.965 526.752 311.709 526.496L312.365 525.344C312.803 525.76 313.309 525.968 313.885 525.968C314.259 525.968 314.568 525.867 314.813 525.664C315.069 525.472 315.299 525.136 315.501 524.656L315.773 524.064L312.029 515.6H313.629L316.589 522.384L319.517 515.6H321.021ZM326.056 524.176C325.192 524.176 324.418 523.989 323.736 523.616C323.064 523.243 322.536 522.731 322.152 522.08C321.768 521.419 321.576 520.672 321.576 519.84C321.576 519.008 321.768 518.267 322.152 517.616C322.536 516.955 323.064 516.443 323.736 516.08C324.418 515.707 325.192 515.52 326.056 515.52C326.824 515.52 327.506 515.675 328.104 515.984C328.712 516.293 329.181 516.741 329.512 517.328L328.344 518.08C328.077 517.675 327.746 517.371 327.352 517.168C326.957 516.965 326.52 516.864 326.04 516.864C325.485 516.864 324.984 516.987 324.536 517.232C324.098 517.477 323.752 517.829 323.496 518.288C323.25 518.736 323.128 519.253 323.128 519.84C323.128 520.437 323.25 520.965 323.496 521.424C323.752 521.872 324.098 522.219 324.536 522.464C324.984 522.709 325.485 522.832 326.04 522.832C326.52 522.832 326.957 522.731 327.352 522.528C327.746 522.325 328.077 522.021 328.344 521.616L329.512 522.352C329.181 522.939 328.712 523.392 328.104 523.712C327.506 524.021 326.824 524.176 326.056 524.176ZM334.796 520.496H333.036V524.08H331.5V515.6H333.036V519.184H334.828L337.58 515.6H339.228L336.012 519.68L339.452 524.08H337.644L334.796 520.496ZM353.216 515.6V524.08H351.68V516.944H346.896V524.08H345.36V515.6H353.216ZM360.684 515.52C361.505 515.52 362.241 515.701 362.892 516.064C363.542 516.427 364.049 516.933 364.412 517.584C364.785 518.235 364.972 518.987 364.972 519.84C364.972 520.693 364.785 521.451 364.412 522.112C364.049 522.763 363.542 523.269 362.892 523.632C362.241 523.995 361.505 524.176 360.684 524.176C360.076 524.176 359.516 524.059 359.004 523.824C358.502 523.589 358.076 523.248 357.724 522.8V527.184H356.188V515.6H357.66V516.944C358.001 516.475 358.433 516.123 358.956 515.888C359.478 515.643 360.054 515.52 360.684 515.52ZM360.556 522.832C361.1 522.832 361.585 522.709 362.012 522.464C362.449 522.208 362.79 521.856 363.036 521.408C363.292 520.949 363.42 520.427 363.42 519.84C363.42 519.253 363.292 518.736 363.036 518.288C362.79 517.829 362.449 517.477 362.012 517.232C361.585 516.987 361.1 516.864 360.556 516.864C360.022 516.864 359.537 516.992 359.1 517.248C358.673 517.493 358.332 517.84 358.076 518.288C357.83 518.736 357.708 519.253 357.708 519.84C357.708 520.427 357.83 520.949 358.076 521.408C358.321 521.856 358.662 522.208 359.1 522.464C359.537 522.709 360.022 522.832 360.556 522.832ZM370.835 524.176C369.993 524.176 369.235 523.989 368.563 523.616C367.891 523.243 367.363 522.731 366.979 522.08C366.606 521.419 366.419 520.672 366.419 519.84C366.419 519.008 366.606 518.267 366.979 517.616C367.363 516.955 367.891 516.443 368.563 516.08C369.235 515.707 369.993 515.52 370.835 515.52C371.678 515.52 372.43 515.707 373.091 516.08C373.763 516.443 374.286 516.955 374.659 517.616C375.043 518.267 375.235 519.008 375.235 519.84C375.235 520.672 375.043 521.419 374.659 522.08C374.286 522.731 373.763 523.243 373.091 523.616C372.43 523.989 371.678 524.176 370.835 524.176ZM370.835 522.832C371.379 522.832 371.865 522.709 372.291 522.464C372.729 522.208 373.07 521.856 373.315 521.408C373.561 520.949 373.683 520.427 373.683 519.84C373.683 519.253 373.561 518.736 373.315 518.288C373.07 517.829 372.729 517.477 372.291 517.232C371.865 516.987 371.379 516.864 370.835 516.864C370.291 516.864 369.801 516.987 369.363 517.232C368.937 517.477 368.595 517.829 368.339 518.288C368.094 518.736 367.971 519.253 367.971 519.84C367.971 520.427 368.094 520.949 368.339 521.408C368.595 521.856 368.937 522.208 369.363 522.464C369.801 522.709 370.291 522.832 370.835 522.832ZM385.117 519.888C385.117 520.005 385.107 520.16 385.085 520.352H378.205C378.301 521.099 378.627 521.701 379.181 522.16C379.747 522.608 380.445 522.832 381.277 522.832C382.291 522.832 383.107 522.491 383.725 521.808L384.573 522.8C384.189 523.248 383.709 523.589 383.133 523.824C382.568 524.059 381.933 524.176 381.229 524.176C380.333 524.176 379.539 523.995 378.845 523.632C378.152 523.259 377.613 522.741 377.229 522.08C376.856 521.419 376.669 520.672 376.669 519.84C376.669 519.019 376.851 518.277 377.213 517.616C377.587 516.955 378.093 516.443 378.733 516.08C379.384 515.707 380.115 515.52 380.925 515.52C381.736 515.52 382.456 515.707 383.085 516.08C383.725 516.443 384.221 516.955 384.573 517.616C384.936 518.277 385.117 519.035 385.117 519.888ZM380.925 516.816C380.189 516.816 379.571 517.04 379.069 517.488C378.579 517.936 378.291 518.523 378.205 519.248H383.645C383.56 518.533 383.267 517.952 382.765 517.504C382.275 517.045 381.661 516.816 380.925 516.816ZM390.796 520.496H389.036V524.08H387.5V515.6H389.036V519.184H390.828L393.58 515.6H395.228L392.012 519.68L395.452 524.08H393.644L390.796 520.496ZM403.242 516.944H400.138V524.08H398.602V516.944H395.498V515.6H403.242V516.944ZM407.837 515.52C409.01 515.52 409.906 515.808 410.525 516.384C411.154 516.96 411.469 517.819 411.469 518.96V524.08H410.013V522.96C409.757 523.355 409.389 523.659 408.909 523.872C408.439 524.075 407.879 524.176 407.229 524.176C406.279 524.176 405.517 523.947 404.941 523.488C404.375 523.029 404.093 522.427 404.093 521.68C404.093 520.933 404.365 520.336 404.909 519.888C405.453 519.429 406.317 519.2 407.501 519.2H409.933V518.896C409.933 518.235 409.741 517.728 409.357 517.376C408.973 517.024 408.407 516.848 407.661 516.848C407.159 516.848 406.669 516.933 406.189 517.104C405.709 517.264 405.303 517.483 404.973 517.76L404.333 516.608C404.77 516.256 405.293 515.989 405.901 515.808C406.509 515.616 407.154 515.52 407.837 515.52ZM407.485 522.992C408.071 522.992 408.578 522.864 409.005 522.608C409.431 522.341 409.741 521.968 409.933 521.488V520.304H407.565C406.263 520.304 405.613 520.741 405.613 521.616C405.613 522.043 405.778 522.379 406.109 522.624C406.439 522.869 406.898 522.992 407.485 522.992Z" fill="black"/>
<rect x="146.75" y="280.939" width="260" height="4" transform="rotate(44 146.75 280.939)" fill="url(#paint0_linear)"/>
<circle cx="126" cy="266.633" r="25" fill="#CE7EFF"/>
<circle cx="126" cy="266.633" r="7.5" fill="#211F1D"/>
<path d="M74.1824 226.761C73.0518 226.761 72.0331 226.516 71.1264 226.025C70.2198 225.524 69.5051 224.836 68.9824 223.961C68.4704 223.087 68.2144 222.111 68.2144 221.033C68.2144 219.956 68.4704 218.98 68.9824 218.105C69.5051 217.231 70.2198 216.548 71.1264 216.057C72.0331 215.556 73.0518 215.305 74.1824 215.305C75.3024 215.305 76.3158 215.556 77.2224 216.057C78.1291 216.548 78.8384 217.231 79.3504 218.105C79.8624 218.969 80.1184 219.945 80.1184 221.033C80.1184 222.121 79.8624 223.103 79.3504 223.977C78.8384 224.841 78.1291 225.524 77.2224 226.025C76.3158 226.516 75.3024 226.761 74.1824 226.761ZM74.1824 225.337C75.0038 225.337 75.7398 225.151 76.3904 224.777C77.0518 224.404 77.5691 223.892 77.9424 223.241C78.3264 222.58 78.5184 221.844 78.5184 221.033C78.5184 220.223 78.3264 219.492 77.9424 218.841C77.5691 218.18 77.0518 217.663 76.3904 217.289C75.7398 216.916 75.0038 216.729 74.1824 216.729C73.3611 216.729 72.6144 216.916 71.9424 217.289C71.2811 217.663 70.7584 218.18 70.3744 218.841C70.0011 219.492 69.8144 220.223 69.8144 221.033C69.8144 221.844 70.0011 222.58 70.3744 223.241C70.7584 223.892 71.2811 224.404 71.9424 224.777C72.6144 225.151 73.3611 225.337 74.1824 225.337ZM90.3049 218.153V226.633H88.7689V219.497H83.9849V226.633H82.4489V218.153H90.3049ZM99.5971 219.497H96.4931V226.633H94.9571V219.497H91.8531V218.153H99.5971V219.497ZM101.168 218.153H102.704V224.329L107.904 218.153H109.296V226.633H107.76V220.457L102.576 226.633H101.168V218.153ZM122.053 218.153V226.633H120.661V220.441L117.493 225.673H116.821L113.685 220.425V226.633H112.277V218.153H113.861L117.189 223.881L120.613 218.153H122.053ZM125.043 218.153H126.579V224.329L131.779 218.153H133.171V226.633H131.635V220.457L126.451 226.633H125.043V218.153ZM140.603 222.217C141.169 222.367 141.606 222.607 141.915 222.937C142.225 223.268 142.379 223.679 142.379 224.169C142.379 224.671 142.209 225.119 141.867 225.513C141.526 225.897 141.051 226.201 140.443 226.425C139.846 226.639 139.174 226.745 138.427 226.745C137.798 226.745 137.179 226.665 136.571 226.505C135.974 226.335 135.441 226.095 134.971 225.785L135.435 224.617C135.841 224.873 136.305 225.076 136.827 225.225C137.35 225.364 137.878 225.433 138.411 225.433C139.137 225.433 139.713 225.311 140.139 225.065C140.577 224.809 140.795 224.468 140.795 224.041C140.795 223.647 140.619 223.343 140.267 223.129C139.926 222.916 139.441 222.809 138.811 222.809H137.259V221.705H138.699C139.275 221.705 139.729 221.604 140.059 221.401C140.39 221.199 140.555 220.921 140.555 220.569C140.555 220.185 140.358 219.887 139.963 219.673C139.579 219.46 139.057 219.353 138.395 219.353C137.553 219.353 136.662 219.572 135.723 220.009L135.307 218.825C136.342 218.303 137.425 218.041 138.555 218.041C139.238 218.041 139.851 218.137 140.395 218.329C140.939 218.521 141.366 218.793 141.675 219.145C141.985 219.497 142.139 219.897 142.139 220.345C142.139 220.761 142.001 221.135 141.723 221.465C141.446 221.796 141.073 222.047 140.603 222.217ZM147.739 218.073C148.912 218.073 149.808 218.361 150.427 218.937C151.056 219.513 151.371 220.372 151.371 221.513V226.633H149.915V225.513C149.659 225.908 149.291 226.212 148.811 226.425C148.341 226.628 147.781 226.729 147.131 226.729C146.181 226.729 145.419 226.5 144.843 226.041C144.277 225.583 143.995 224.98 143.995 224.233C143.995 223.487 144.267 222.889 144.811 222.441C145.355 221.983 146.219 221.753 147.403 221.753H149.835V221.449C149.835 220.788 149.643 220.281 149.259 219.929C148.875 219.577 148.309 219.401 147.563 219.401C147.061 219.401 146.571 219.487 146.091 219.657C145.611 219.817 145.205 220.036 144.875 220.313L144.235 219.161C144.672 218.809 145.195 218.543 145.803 218.361C146.411 218.169 147.056 218.073 147.739 218.073ZM147.387 225.545C147.973 225.545 148.48 225.417 148.907 225.161C149.333 224.895 149.643 224.521 149.835 224.041V222.857H147.467C146.165 222.857 145.515 223.295 145.515 224.169C145.515 224.596 145.68 224.932 146.011 225.177C146.341 225.423 146.8 225.545 147.387 225.545ZM163.192 225.289V228.665H161.736V226.633H154.136V218.153H155.672V225.289H160.312V218.153H161.848V225.289H163.192ZM165.183 218.153H166.719V224.329L171.919 218.153H173.311V226.633H171.775V220.457L166.591 226.633H165.183V218.153ZM183.093 218.153V226.633H181.717V223.945H179.253H179.077L177.221 226.633H175.573L177.637 223.737C176.997 223.545 176.506 223.231 176.165 222.793C175.823 222.345 175.653 221.791 175.653 221.129C175.653 220.159 175.983 219.423 176.645 218.921C177.306 218.409 178.218 218.153 179.381 218.153H183.093ZM177.221 221.177C177.221 221.743 177.397 222.164 177.749 222.441C178.111 222.708 178.65 222.841 179.365 222.841H181.717V219.497H179.429C177.957 219.497 177.221 220.057 177.221 221.177Z" fill="black"/>
<rect x="150" y="264.633" width="393.839" height="4" fill="url(#paint1_linear)"/>
<circle cx="566" cy="266.633" r="25" fill="#7EC1FF"/>
<ellipse cx="566" cy="266.633" rx="7.13825" ry="7.39168" fill="#211F1D"/>
<path d="M523.721 305.433C525.172 305.433 526.313 305.78 527.145 306.473C527.977 307.167 528.393 308.121 528.393 309.337C528.393 310.553 527.977 311.508 527.145 312.201C526.313 312.895 525.172 313.241 523.721 313.241H520.953V316.633H519.353V305.433H523.721ZM523.673 311.849C524.687 311.849 525.46 311.636 525.993 311.209C526.527 310.772 526.793 310.148 526.793 309.337C526.793 308.527 526.527 307.908 525.993 307.481C525.46 307.044 524.687 306.825 523.673 306.825H520.953V311.849H523.673ZM533.309 308.073C534.482 308.073 535.378 308.361 535.997 308.937C536.626 309.513 536.941 310.372 536.941 311.513V316.633H535.485V315.513C535.229 315.908 534.861 316.212 534.381 316.425C533.912 316.628 533.352 316.729 532.701 316.729C531.752 316.729 530.989 316.5 530.413 316.041C529.848 315.583 529.565 314.98 529.565 314.233C529.565 313.487 529.837 312.889 530.381 312.441C530.925 311.983 531.789 311.753 532.973 311.753H535.405V311.449C535.405 310.788 535.213 310.281 534.829 309.929C534.445 309.577 533.88 309.401 533.133 309.401C532.632 309.401 532.141 309.487 531.661 309.657C531.181 309.817 530.776 310.036 530.445 310.313L529.805 309.161C530.242 308.809 530.765 308.543 531.373 308.361C531.981 308.169 532.626 308.073 533.309 308.073ZM532.957 315.545C533.544 315.545 534.05 315.417 534.477 315.161C534.904 314.895 535.213 314.521 535.405 314.041V312.857H533.037C531.736 312.857 531.085 313.295 531.085 314.169C531.085 314.596 531.25 314.932 531.581 315.177C531.912 315.423 532.37 315.545 532.957 315.545ZM544.158 312.217C544.723 312.367 545.161 312.607 545.47 312.937C545.779 313.268 545.934 313.679 545.934 314.169C545.934 314.671 545.763 315.119 545.422 315.513C545.081 315.897 544.606 316.201 543.998 316.425C543.401 316.639 542.729 316.745 541.982 316.745C541.353 316.745 540.734 316.665 540.126 316.505C539.529 316.335 538.995 316.095 538.526 315.785L538.99 314.617C539.395 314.873 539.859 315.076 540.382 315.225C540.905 315.364 541.433 315.433 541.966 315.433C542.691 315.433 543.267 315.311 543.694 315.065C544.131 314.809 544.35 314.468 544.35 314.041C544.35 313.647 544.174 313.343 543.822 313.129C543.481 312.916 542.995 312.809 542.366 312.809H540.814V311.705H542.254C542.83 311.705 543.283 311.604 543.614 311.401C543.945 311.199 544.11 310.921 544.11 310.569C544.11 310.185 543.913 309.887 543.518 309.673C543.134 309.46 542.611 309.353 541.95 309.353C541.107 309.353 540.217 309.572 539.278 310.009L538.862 308.825C539.897 308.303 540.979 308.041 542.11 308.041C542.793 308.041 543.406 308.137 543.95 308.329C544.494 308.521 544.921 308.793 545.23 309.145C545.539 309.497 545.694 309.897 545.694 310.345C545.694 310.761 545.555 311.135 545.278 311.465C545.001 311.796 544.627 312.047 544.158 312.217ZM552.765 308.073C553.587 308.073 554.323 308.255 554.973 308.617C555.624 308.98 556.131 309.487 556.493 310.137C556.867 310.788 557.053 311.54 557.053 312.393C557.053 313.247 556.867 314.004 556.493 314.665C556.131 315.316 555.624 315.823 554.973 316.185C554.323 316.548 553.587 316.729 552.765 316.729C552.157 316.729 551.597 316.612 551.085 316.377C550.584 316.143 550.157 315.801 549.805 315.353V319.737H548.269V308.153H549.741V309.497C550.083 309.028 550.515 308.676 551.037 308.441C551.56 308.196 552.136 308.073 552.765 308.073ZM552.637 315.385C553.181 315.385 553.667 315.263 554.093 315.017C554.531 314.761 554.872 314.409 555.117 313.961C555.373 313.503 555.501 312.98 555.501 312.393C555.501 311.807 555.373 311.289 555.117 310.841C554.872 310.383 554.531 310.031 554.093 309.785C553.667 309.54 553.181 309.417 552.637 309.417C552.104 309.417 551.619 309.545 551.181 309.801C550.755 310.047 550.413 310.393 550.157 310.841C549.912 311.289 549.789 311.807 549.789 312.393C549.789 312.98 549.912 313.503 550.157 313.961C550.403 314.409 550.744 314.761 551.181 315.017C551.619 315.263 552.104 315.385 552.637 315.385ZM562.231 308.073C563.404 308.073 564.3 308.361 564.919 308.937C565.548 309.513 565.863 310.372 565.863 311.513V316.633H564.407V315.513C564.151 315.908 563.783 316.212 563.303 316.425C562.833 316.628 562.273 316.729 561.623 316.729C560.673 316.729 559.911 316.5 559.335 316.041C558.769 315.583 558.487 314.98 558.487 314.233C558.487 313.487 558.759 312.889 559.303 312.441C559.847 311.983 560.711 311.753 561.895 311.753H564.327V311.449C564.327 310.788 564.135 310.281 563.751 309.929C563.367 309.577 562.801 309.401 562.055 309.401C561.553 309.401 561.063 309.487 560.583 309.657C560.103 309.817 559.697 310.036 559.367 310.313L558.727 309.161C559.164 308.809 559.687 308.543 560.295 308.361C560.903 308.169 561.548 308.073 562.231 308.073ZM561.879 315.545C562.465 315.545 562.972 315.417 563.399 315.161C563.825 314.895 564.135 314.521 564.327 314.041V312.857H561.959C560.657 312.857 560.007 313.295 560.007 314.169C560.007 314.596 560.172 314.932 560.503 315.177C560.833 315.423 561.292 315.545 561.879 315.545ZM572.949 308.441C573.738 308.441 574.442 308.617 575.061 308.969C575.679 309.321 576.159 309.812 576.501 310.441C576.853 311.06 577.029 311.769 577.029 312.569C577.029 313.391 576.842 314.121 576.469 314.761C576.106 315.391 575.589 315.881 574.917 316.233C574.255 316.585 573.498 316.761 572.645 316.761C571.205 316.761 570.09 316.271 569.301 315.289C568.522 314.297 568.133 312.905 568.133 311.113C568.133 309.375 568.49 308.015 569.205 307.033C569.919 306.041 571.013 305.385 572.485 305.065L576.357 304.201L576.581 305.609L573.013 306.377C571.903 306.623 571.077 307.039 570.533 307.625C569.989 308.212 569.679 309.055 569.605 310.153C569.967 309.609 570.437 309.188 571.013 308.889C571.589 308.591 572.234 308.441 572.949 308.441ZM572.677 315.481C573.221 315.481 573.701 315.359 574.117 315.113C574.543 314.868 574.874 314.532 575.109 314.105C575.343 313.668 575.461 313.172 575.461 312.617C575.461 311.775 575.205 311.097 574.693 310.585C574.181 310.073 573.509 309.817 572.677 309.817C571.845 309.817 571.167 310.073 570.645 310.585C570.133 311.097 569.877 311.775 569.877 312.617C569.877 313.172 569.994 313.668 570.229 314.105C570.474 314.532 570.81 314.868 571.237 315.113C571.663 315.359 572.143 315.481 572.677 315.481ZM582.854 316.729C582.012 316.729 581.254 316.543 580.582 316.169C579.91 315.796 579.382 315.284 578.998 314.633C578.625 313.972 578.438 313.225 578.438 312.393C578.438 311.561 578.625 310.82 578.998 310.169C579.382 309.508 579.91 308.996 580.582 308.633C581.254 308.26 582.012 308.073 582.854 308.073C583.697 308.073 584.449 308.26 585.11 308.633C585.782 308.996 586.305 309.508 586.678 310.169C587.062 310.82 587.254 311.561 587.254 312.393C587.254 313.225 587.062 313.972 586.678 314.633C586.305 315.284 585.782 315.796 585.11 316.169C584.449 316.543 583.697 316.729 582.854 316.729ZM582.854 315.385C583.398 315.385 583.884 315.263 584.31 315.017C584.748 314.761 585.089 314.409 585.334 313.961C585.58 313.503 585.702 312.98 585.702 312.393C585.702 311.807 585.58 311.289 585.334 310.841C585.089 310.383 584.748 310.031 584.31 309.785C583.884 309.54 583.398 309.417 582.854 309.417C582.31 309.417 581.82 309.54 581.382 309.785C580.956 310.031 580.614 310.383 580.358 310.841C580.113 311.289 579.99 311.807 579.99 312.393C579.99 312.98 580.113 313.503 580.358 313.961C580.614 314.409 580.956 314.761 581.382 315.017C581.82 315.263 582.31 315.385 582.854 315.385ZM595.48 309.497H592.376V316.633H590.84V309.497H587.736V308.153H595.48V309.497ZM600.347 313.049H598.587V316.633H597.051V308.153H598.587V311.737H600.379L603.131 308.153H604.779L601.563 312.233L605.003 316.633H603.195L600.347 313.049ZM609.481 308.073C610.654 308.073 611.55 308.361 612.169 308.937C612.798 309.513 613.113 310.372 613.113 311.513V316.633H611.657V315.513C611.401 315.908 611.033 316.212 610.553 316.425C610.083 316.628 609.523 316.729 608.873 316.729C607.923 316.729 607.161 316.5 606.585 316.041C606.019 315.583 605.737 314.98 605.737 314.233C605.737 313.487 606.009 312.889 606.553 312.441C607.097 311.983 607.961 311.753 609.145 311.753H611.577V311.449C611.577 310.788 611.385 310.281 611.001 309.929C610.617 309.577 610.051 309.401 609.305 309.401C608.803 309.401 608.313 309.487 607.833 309.657C607.353 309.817 606.947 310.036 606.617 310.313L605.977 309.161C606.414 308.809 606.937 308.543 607.545 308.361C608.153 308.169 608.798 308.073 609.481 308.073ZM609.129 315.545C609.715 315.545 610.222 315.417 610.649 315.161C611.075 314.895 611.385 314.521 611.577 314.041V312.857H609.209C607.907 312.857 607.257 313.295 607.257 314.169C607.257 314.596 607.422 314.932 607.753 315.177C608.083 315.423 608.542 315.545 609.129 315.545Z" fill="black"/>
<rect x="570.942" y="252.698" width="200" height="4" transform="rotate(-64.6343 570.942 252.698)" fill="url(#paint2_linear)"/>
<circle cx="666" cy="55.6333" r="25" fill="#F98DFC"/>
<circle cx="666" cy="55.6333" r="7.5" fill="#211F1D"/>
<path d="M639.463 14.2413V18.0813H637.975V15.6333H628.759L628.743 18.0813H627.255L627.271 14.2413H627.815C628.519 14.1986 629.015 13.644 629.303 12.5773C629.591 11.5 629.767 9.9853 629.831 8.0333L629.943 4.4333H637.815V14.2413H639.463ZM631.239 8.1773C631.186 9.75597 631.058 11.0626 630.855 12.0973C630.663 13.132 630.348 13.8466 629.911 14.2413H636.231V5.8253H631.319L631.239 8.1773ZM641.394 7.1533H642.93V13.3293L648.13 7.1533H649.522V15.6333H647.986V9.4573L642.802 15.6333H641.394V7.1533ZM656.955 11.2173C657.52 11.3666 657.958 11.6066 658.267 11.9373C658.576 12.268 658.731 12.6786 658.731 13.1693C658.731 13.6706 658.56 14.1186 658.219 14.5133C657.878 14.8973 657.403 15.2013 656.795 15.4253C656.198 15.6386 655.526 15.7453 654.779 15.7453C654.15 15.7453 653.531 15.6653 652.923 15.5053C652.326 15.3346 651.792 15.0946 651.323 14.7853L651.787 13.6173C652.192 13.8733 652.656 14.076 653.179 14.2253C653.702 14.364 654.23 14.4333 654.763 14.4333C655.488 14.4333 656.064 14.3106 656.491 14.0653C656.928 13.8093 657.147 13.468 657.147 13.0413C657.147 12.6466 656.971 12.3426 656.619 12.1293C656.278 11.916 655.792 11.8093 655.163 11.8093H653.611V10.7053H655.051C655.627 10.7053 656.08 10.604 656.411 10.4013C656.742 10.1986 656.907 9.9213 656.907 9.5693C656.907 9.1853 656.71 8.88663 656.315 8.6733C655.931 8.45997 655.408 8.3533 654.747 8.3533C653.904 8.3533 653.014 8.57197 652.075 9.0093L651.659 7.8253C652.694 7.30263 653.776 7.0413 654.907 7.0413C655.59 7.0413 656.203 7.1373 656.747 7.3293C657.291 7.5213 657.718 7.7933 658.027 8.1453C658.336 8.4973 658.491 8.8973 658.491 9.3453C658.491 9.7613 658.352 10.1346 658.075 10.4653C657.798 10.796 657.424 11.0466 656.955 11.2173ZM664.09 7.0733C665.263 7.0733 666.159 7.3613 666.778 7.9373C667.407 8.5133 667.722 9.37197 667.722 10.5133V15.6333H666.266V14.5133C666.01 14.908 665.642 15.212 665.162 15.4253C664.693 15.628 664.133 15.7293 663.482 15.7293C662.533 15.7293 661.77 15.5 661.194 15.0413C660.629 14.5826 660.346 13.98 660.346 13.2333C660.346 12.4866 660.618 11.8893 661.162 11.4413C661.706 10.9826 662.57 10.7533 663.754 10.7533H666.186V10.4493C666.186 9.78797 665.994 9.2813 665.61 8.9293C665.226 8.5773 664.661 8.4013 663.914 8.4013C663.413 8.4013 662.922 8.48663 662.442 8.6573C661.962 8.8173 661.557 9.03597 661.226 9.3133L660.586 8.1613C661.023 7.8093 661.546 7.54263 662.154 7.3613C662.762 7.1693 663.407 7.0733 664.09 7.0733ZM663.738 14.5453C664.325 14.5453 664.831 14.4173 665.258 14.1613C665.685 13.8946 665.994 13.5213 666.186 13.0413V11.8573H663.818C662.517 11.8573 661.866 12.2946 661.866 13.1693C661.866 13.596 662.031 13.932 662.362 14.1773C662.693 14.4226 663.151 14.5453 663.738 14.5453ZM670.488 7.1533H672.024V13.3293L677.224 7.1533H678.616V15.6333H677.08V9.4573L671.896 15.6333H670.488V7.1533ZM674.456 6.0493C673.667 6.0493 673.053 5.86263 672.616 5.4893C672.179 5.1053 671.955 4.55597 671.944 3.8413H672.984C672.995 4.23597 673.128 4.55597 673.384 4.8013C673.651 5.03597 674.003 5.1533 674.44 5.1533C674.877 5.1533 675.229 5.03597 675.496 4.8013C675.763 4.55597 675.901 4.23597 675.912 3.8413H676.984C676.973 4.55597 676.744 5.1053 676.296 5.4893C675.848 5.86263 675.235 6.0493 674.456 6.0493ZM681.597 7.1533H683.133V10.7533H687.965V7.1533H689.501V15.6333H687.965V12.0813H683.133V15.6333H681.597V7.1533Z" fill="black"/>
<rect x="361" y="53.6333" width="280" height="4" fill="url(#paint3_linear)"/>
<circle cx="344.512" cy="55.6333" r="25" fill="#FFCF4F"/>
<circle cx="344.512" cy="55.6333" r="7.5" fill="#211F1D"/>
<path d="M262.05 105.761C260.919 105.761 259.9 105.516 258.994 105.025C258.087 104.524 257.372 103.836 256.85 102.961C256.338 102.087 256.082 101.111 256.082 100.033C256.082 98.956 256.338 97.98 256.85 97.1053C257.372 96.2306 258.087 95.548 258.994 95.0573C259.9 94.556 260.919 94.3053 262.05 94.3053C263.17 94.3053 264.183 94.556 265.09 95.0573C265.996 95.548 266.706 96.2306 267.218 97.1053C267.73 97.9693 267.986 98.9453 267.986 100.033C267.986 101.121 267.73 102.103 267.218 102.977C266.706 103.841 265.996 104.524 265.09 105.025C264.183 105.516 263.17 105.761 262.05 105.761ZM262.05 104.337C262.871 104.337 263.607 104.151 264.258 103.777C264.919 103.404 265.436 102.892 265.81 102.241C266.194 101.58 266.386 100.844 266.386 100.033C266.386 99.2226 266.194 98.492 265.81 97.8413C265.436 97.18 264.919 96.6626 264.258 96.2893C263.607 95.916 262.871 95.7293 262.05 95.7293C261.228 95.7293 260.482 95.916 259.81 96.2893C259.148 96.6626 258.626 97.18 258.242 97.8413C257.868 98.492 257.682 99.2226 257.682 100.033C257.682 100.844 257.868 101.58 258.242 102.241C258.626 102.892 259.148 103.404 259.81 103.777C260.482 104.151 261.228 104.337 262.05 104.337ZM274.636 97.4413C275.425 97.4413 276.129 97.6173 276.748 97.9693C277.367 98.3213 277.847 98.812 278.188 99.4413C278.54 100.06 278.716 100.769 278.716 101.569C278.716 102.391 278.529 103.121 278.156 103.761C277.793 104.391 277.276 104.881 276.604 105.233C275.943 105.585 275.185 105.761 274.332 105.761C272.892 105.761 271.777 105.271 270.988 104.289C270.209 103.297 269.82 101.905 269.82 100.113C269.82 98.3746 270.177 97.0146 270.892 96.0333C271.607 95.0413 272.7 94.3853 274.172 94.0653L278.044 93.2013L278.268 94.6093L274.7 95.3773C273.591 95.6226 272.764 96.0386 272.22 96.6253C271.676 97.212 271.367 98.0546 271.292 99.1533C271.655 98.6093 272.124 98.188 272.7 97.8893C273.276 97.5906 273.921 97.4413 274.636 97.4413ZM274.364 104.481C274.908 104.481 275.388 104.359 275.804 104.113C276.231 103.868 276.561 103.532 276.796 103.105C277.031 102.668 277.148 102.172 277.148 101.617C277.148 100.775 276.892 100.097 276.38 99.5853C275.868 99.0733 275.196 98.8173 274.364 98.8173C273.532 98.8173 272.855 99.0733 272.332 99.5853C271.82 100.097 271.564 100.775 271.564 101.617C271.564 102.172 271.681 102.668 271.916 103.105C272.161 103.532 272.497 103.868 272.924 104.113C273.351 104.359 273.831 104.481 274.364 104.481ZM284.606 105.729C283.742 105.729 282.969 105.543 282.286 105.169C281.614 104.796 281.086 104.284 280.702 103.633C280.318 102.972 280.126 102.225 280.126 101.393C280.126 100.561 280.318 99.82 280.702 99.1693C281.086 98.508 281.614 97.996 282.286 97.6333C282.969 97.26 283.742 97.0733 284.606 97.0733C285.374 97.0733 286.057 97.228 286.654 97.5373C287.262 97.8466 287.731 98.2946 288.062 98.8813L286.894 99.6333C286.627 99.228 286.297 98.924 285.902 98.7213C285.507 98.5186 285.07 98.4173 284.59 98.4173C284.035 98.4173 283.534 98.54 283.086 98.7853C282.649 99.0306 282.302 99.3826 282.046 99.8413C281.801 100.289 281.678 100.807 281.678 101.393C281.678 101.991 281.801 102.519 282.046 102.977C282.302 103.425 282.649 103.772 283.086 104.017C283.534 104.263 284.035 104.385 284.59 104.385C285.07 104.385 285.507 104.284 285.902 104.081C286.297 103.879 286.627 103.575 286.894 103.169L288.062 103.905C287.731 104.492 287.262 104.945 286.654 105.265C286.057 105.575 285.374 105.729 284.606 105.729ZM297.509 97.1533L293.397 106.481C293.034 107.345 292.608 107.953 292.117 108.305C291.637 108.657 291.056 108.833 290.373 108.833C289.957 108.833 289.552 108.764 289.157 108.625C288.773 108.497 288.453 108.305 288.197 108.049L288.853 106.897C289.29 107.313 289.797 107.521 290.373 107.521C290.746 107.521 291.056 107.42 291.301 107.217C291.557 107.025 291.786 106.689 291.989 106.209L292.261 105.617L288.517 97.1533H290.117L293.077 103.937L296.005 97.1533H297.509ZM306.309 102.049H304.661V105.633H303.125V102.049H301.477L299.141 105.633H297.317L300.229 101.249L297.541 97.1533H299.173L301.461 100.737H303.125V97.1533H304.661V100.737H306.325L308.613 97.1533H310.261L307.573 101.265L310.485 105.633H308.661L306.309 102.049ZM320.8 104.289V107.601H319.36V105.633H312.272V107.601H310.816V104.289H311.264C311.808 104.257 312.181 103.873 312.384 103.137C312.586 102.401 312.725 101.361 312.799 100.017L312.928 97.1533H319.503V104.289H320.8ZM314.208 100.129C314.165 101.196 314.074 102.081 313.936 102.785C313.808 103.479 313.568 103.98 313.216 104.289H317.968V98.4973H314.288L314.208 100.129ZM330.465 101.441C330.465 101.559 330.454 101.713 330.433 101.905H323.553C323.649 102.652 323.974 103.255 324.529 103.713C325.094 104.161 325.793 104.385 326.625 104.385C327.638 104.385 328.454 104.044 329.073 103.361L329.921 104.353C329.537 104.801 329.057 105.143 328.481 105.377C327.915 105.612 327.281 105.729 326.577 105.729C325.681 105.729 324.886 105.548 324.193 105.185C323.499 104.812 322.961 104.295 322.577 103.633C322.203 102.972 322.017 102.225 322.017 101.393C322.017 100.572 322.198 99.8306 322.561 99.1693C322.934 98.508 323.441 97.996 324.081 97.6333C324.731 97.26 325.462 97.0733 326.273 97.0733C327.083 97.0733 327.803 97.26 328.433 97.6333C329.073 97.996 329.569 98.508 329.921 99.1693C330.283 99.8306 330.465 100.588 330.465 101.441ZM326.273 98.3693C325.537 98.3693 324.918 98.5933 324.417 99.0413C323.926 99.4893 323.638 100.076 323.553 100.801H328.993C328.907 100.087 328.614 99.5053 328.113 99.0573C327.622 98.5986 327.009 98.3693 326.273 98.3693ZM332.847 97.1533H334.383V100.753H339.215V97.1533H340.751V105.633H339.215V102.081H334.383V105.633H332.847V97.1533ZM343.738 97.1533H345.274V103.329L350.474 97.1533H351.866V105.633H350.33V99.4573L345.146 105.633H343.738V97.1533ZM362.511 101.441C362.511 101.559 362.501 101.713 362.479 101.905H355.599C355.695 102.652 356.021 103.255 356.575 103.713C357.141 104.161 357.839 104.385 358.671 104.385C359.685 104.385 360.501 104.044 361.119 103.361L361.967 104.353C361.583 104.801 361.103 105.143 360.527 105.377C359.962 105.612 359.327 105.729 358.623 105.729C357.727 105.729 356.933 105.548 356.239 105.185C355.546 104.812 355.007 104.295 354.623 103.633C354.25 102.972 354.063 102.225 354.063 101.393C354.063 100.572 354.245 99.8306 354.607 99.1693C354.981 98.508 355.487 97.996 356.127 97.6333C356.778 97.26 357.509 97.0733 358.319 97.0733C359.13 97.0733 359.85 97.26 360.479 97.6333C361.119 97.996 361.615 98.508 361.967 99.1693C362.33 99.8306 362.511 100.588 362.511 101.441ZM358.319 98.3693C357.583 98.3693 356.965 98.5933 356.463 99.0413C355.973 99.4893 355.685 100.076 355.599 100.801H361.039C360.954 100.087 360.661 99.5053 360.159 99.0573C359.669 98.5986 359.055 98.3693 358.319 98.3693ZM377.815 104.289V107.601H376.375V105.633H369.287V107.601H367.831V104.289H368.279C368.823 104.257 369.196 103.873 369.399 103.137C369.602 102.401 369.74 101.361 369.815 100.017L369.943 97.1533H376.519V104.289H377.815ZM371.223 100.129C371.18 101.196 371.09 102.081 370.951 102.785C370.823 103.479 370.583 103.98 370.231 104.289H374.983V98.4973H371.303L371.223 100.129ZM387.48 101.441C387.48 101.559 387.469 101.713 387.448 101.905H380.568C380.664 102.652 380.989 103.255 381.544 103.713C382.109 104.161 382.808 104.385 383.64 104.385C384.653 104.385 385.469 104.044 386.088 103.361L386.936 104.353C386.552 104.801 386.072 105.143 385.496 105.377C384.931 105.612 384.296 105.729 383.592 105.729C382.696 105.729 381.901 105.548 381.208 105.185C380.515 104.812 379.976 104.295 379.592 103.633C379.219 102.972 379.032 102.225 379.032 101.393C379.032 100.572 379.213 99.8306 379.576 99.1693C379.949 98.508 380.456 97.996 381.096 97.6333C381.747 97.26 382.477 97.0733 383.288 97.0733C384.099 97.0733 384.819 97.26 385.448 97.6333C386.088 97.996 386.584 98.508 386.936 99.1693C387.299 99.8306 387.48 100.588 387.48 101.441ZM383.288 98.3693C382.552 98.3693 381.933 98.5933 381.432 99.0413C380.941 99.4893 380.653 100.076 380.568 100.801H386.008C385.923 100.087 385.629 99.5053 385.128 99.0573C384.637 98.5986 384.024 98.3693 383.288 98.3693ZM395.824 98.4973H392.72V105.633H391.184V98.4973H388.08V97.1533H395.824V98.4973ZM400.418 97.0733C401.592 97.0733 402.488 97.3613 403.106 97.9373C403.736 98.5133 404.05 99.372 404.05 100.513V105.633H402.594V104.513C402.338 104.908 401.97 105.212 401.49 105.425C401.021 105.628 400.461 105.729 399.81 105.729C398.861 105.729 398.098 105.5 397.522 105.041C396.957 104.583 396.674 103.98 396.674 103.233C396.674 102.487 396.946 101.889 397.49 101.441C398.034 100.983 398.898 100.753 400.082 100.753H402.514V100.449C402.514 99.788 402.322 99.2813 401.938 98.9293C401.554 98.5773 400.989 98.4013 400.242 98.4013C399.741 98.4013 399.25 98.4866 398.77 98.6573C398.29 98.8173 397.885 99.036 397.554 99.3133L396.914 98.1613C397.352 97.8093 397.874 97.5426 398.482 97.3613C399.09 97.1693 399.736 97.0733 400.418 97.0733ZM400.066 104.545C400.653 104.545 401.16 104.417 401.586 104.161C402.013 103.895 402.322 103.521 402.514 103.041V101.857H400.146C398.845 101.857 398.194 102.295 398.194 103.169C398.194 103.596 398.36 103.932 398.69 104.177C399.021 104.423 399.48 104.545 400.066 104.545ZM414.096 97.1533V105.633H412.56V98.4973H408.912L408.816 100.385C408.763 101.527 408.661 102.481 408.512 103.249C408.363 104.007 408.117 104.615 407.776 105.073C407.435 105.532 406.96 105.761 406.352 105.761C406.075 105.761 405.76 105.713 405.408 105.617L405.504 104.321C405.643 104.353 405.771 104.369 405.888 104.369C406.315 104.369 406.635 104.183 406.848 103.809C407.061 103.436 407.2 102.993 407.264 102.481C407.328 101.969 407.387 101.239 407.44 100.289L407.584 97.1533H414.096ZM424.73 101.441C424.73 101.559 424.719 101.713 424.698 101.905H417.818C417.914 102.652 418.239 103.255 418.794 103.713C419.359 104.161 420.058 104.385 420.89 104.385C421.903 104.385 422.719 104.044 423.338 103.361L424.186 104.353C423.802 104.801 423.322 105.143 422.746 105.377C422.181 105.612 421.546 105.729 420.842 105.729C419.946 105.729 419.151 105.548 418.458 105.185C417.765 104.812 417.226 104.295 416.842 103.633C416.469 102.972 416.282 102.225 416.282 101.393C416.282 100.572 416.463 99.8306 416.826 99.1693C417.199 98.508 417.706 97.996 418.346 97.6333C418.997 97.26 419.727 97.0733 420.538 97.0733C421.349 97.0733 422.069 97.26 422.698 97.6333C423.338 97.996 423.834 98.508 424.186 99.1693C424.549 99.8306 424.73 100.588 424.73 101.441ZM420.538 98.3693C419.802 98.3693 419.183 98.5933 418.682 99.0413C418.191 99.4893 417.903 100.076 417.818 100.801H423.258C423.173 100.087 422.879 99.5053 422.378 99.0573C421.887 98.5986 421.274 98.3693 420.538 98.3693ZM427.113 97.1533H428.649V103.329L433.849 97.1533H435.241V105.633H433.705V99.4573L428.521 105.633H427.113V97.1533ZM431.081 96.0493C430.292 96.0493 429.678 95.8626 429.241 95.4893C428.804 95.1053 428.58 94.556 428.569 93.8413H429.609C429.62 94.236 429.753 94.556 430.009 94.8013C430.276 95.036 430.628 95.1533 431.065 95.1533C431.502 95.1533 431.854 95.036 432.121 94.8013C432.388 94.556 432.526 94.236 432.537 93.8413H433.609C433.598 94.556 433.369 95.1053 432.921 95.4893C432.473 95.8626 431.86 96.0493 431.081 96.0493Z" fill="black"/>
<rect x="47.2881" y="53.6333" width="280" height="4" fill="url(#paint4_linear)"/>
<circle cx="26" cy="55.6333" r="25" fill="#7FFDC0"/>
<circle cx="26" cy="55.6333" r="7.5" fill="#211F1D"/>
<path d="M12.392 4.4333V15.6333H10.824V5.8253H4.328V15.6333H2.744V4.4333H12.392ZM20.1246 7.0733C20.946 7.0733 21.682 7.25463 22.3326 7.6173C22.9833 7.97997 23.49 8.48663 23.8526 9.1373C24.226 9.78797 24.4126 10.54 24.4126 11.3933C24.4126 12.2466 24.226 13.004 23.8526 13.6653C23.49 14.316 22.9833 14.8226 22.3326 15.1853C21.682 15.548 20.946 15.7293 20.1246 15.7293C19.5166 15.7293 18.9566 15.612 18.4446 15.3773C17.9433 15.1426 17.5166 14.8013 17.1646 14.3533V18.7373H15.6286V7.1533H17.1006V8.4973C17.442 8.02797 17.874 7.67597 18.3966 7.4413C18.9193 7.19597 19.4953 7.0733 20.1246 7.0733ZM19.9966 14.3853C20.5406 14.3853 21.026 14.2626 21.4526 14.0173C21.89 13.7613 22.2313 13.4093 22.4766 12.9613C22.7326 12.5026 22.8606 11.98 22.8606 11.3933C22.8606 10.8066 22.7326 10.2893 22.4766 9.8413C22.2313 9.38263 21.89 9.03063 21.4526 8.7853C21.026 8.53997 20.5406 8.4173 19.9966 8.4173C19.4633 8.4173 18.978 8.5453 18.5406 8.8013C18.114 9.04663 17.7726 9.3933 17.5166 9.8413C17.2713 10.2893 17.1486 10.8066 17.1486 11.3933C17.1486 11.98 17.2713 12.5026 17.5166 12.9613C17.762 13.4093 18.1033 13.7613 18.5406 14.0173C18.978 14.2626 19.4633 14.3853 19.9966 14.3853ZM26.6443 7.1533H28.1803V13.3293L33.3802 7.1533H34.7723V15.6333H33.2362V9.4573L28.0523 15.6333H26.6443V7.1533ZM37.7536 7.1533H39.2896V10.7533H44.1216V7.1533H45.6576V15.6333H44.1216V12.0813H39.2896V15.6333H37.7536V7.1533ZM48.6443 7.1533H50.1803V13.3293L55.3802 7.1533H56.7723V15.6333H55.2362V9.4573L50.0523 15.6333H48.6443V7.1533ZM69.5296 7.1533V15.6333H68.1376V9.4413L64.9696 14.6733H64.2976L61.1616 9.4253V15.6333H59.7536V7.1533H61.3376L64.6656 12.8813L68.0896 7.1533H69.5296ZM75.5433 7.0733C76.7166 7.0733 77.6126 7.3613 78.2313 7.9373C78.8606 8.5133 79.1753 9.37197 79.1753 10.5133V15.6333H77.7193V14.5133C77.4633 14.908 77.0953 15.212 76.6153 15.4253C76.1459 15.628 75.5859 15.7293 74.9353 15.7293C73.9859 15.7293 73.2233 15.5 72.6473 15.0413C72.0819 14.5826 71.7993 13.98 71.7993 13.2333C71.7993 12.4866 72.0713 11.8893 72.6153 11.4413C73.1593 10.9826 74.0233 10.7533 75.2073 10.7533H77.6393V10.4493C77.6393 9.78797 77.4473 9.2813 77.0633 8.9293C76.6793 8.5773 76.1139 8.4013 75.3673 8.4013C74.8659 8.4013 74.3753 8.48663 73.8953 8.6573C73.4153 8.8173 73.0099 9.03597 72.6793 9.3133L72.0393 8.1613C72.4766 7.8093 72.9993 7.54263 73.6073 7.3613C74.2153 7.1693 74.8606 7.0733 75.5433 7.0733ZM75.1913 14.5453C75.7779 14.5453 76.2846 14.4173 76.7113 14.1613C77.1379 13.8946 77.4473 13.5213 77.6393 13.0413V11.8573H75.2713C73.9699 11.8573 73.3193 12.2946 73.3193 13.1693C73.3193 13.596 73.4846 13.932 73.8153 14.1773C74.1459 14.4226 74.6046 14.5453 75.1913 14.5453ZM89.6051 11.4413C89.6051 11.5586 89.5945 11.7133 89.5731 11.9053H82.6931C82.7891 12.652 83.1145 13.2546 83.6691 13.7133C84.2345 14.1613 84.9331 14.3853 85.7651 14.3853C86.7785 14.3853 87.5945 14.044 88.2131 13.3613L89.0611 14.3533C88.6771 14.8013 88.1971 15.1426 87.6211 15.3773C87.0558 15.612 86.4211 15.7293 85.7171 15.7293C84.8211 15.7293 84.0265 15.548 83.3331 15.1853C82.6398 14.812 82.1011 14.2946 81.7171 13.6333C81.3438 12.972 81.1571 12.2253 81.1571 11.3933C81.1571 10.572 81.3385 9.83063 81.7011 9.1693C82.0745 8.50797 82.5811 7.99597 83.2211 7.6333C83.8718 7.25997 84.6025 7.0733 85.4131 7.0733C86.2238 7.0733 86.9438 7.25997 87.5731 7.6333C88.2131 7.99597 88.7091 8.50797 89.0611 9.1693C89.4238 9.83063 89.6051 10.588 89.6051 11.4413ZM85.4131 8.3693C84.6771 8.3693 84.0585 8.5933 83.5571 9.0413C83.0665 9.4893 82.7785 10.076 82.6931 10.8013H88.1331C88.0478 10.0866 87.7545 9.5053 87.2531 9.0573C86.7625 8.59863 86.1491 8.3693 85.4131 8.3693ZM101.764 7.1533V15.6333H100.372V9.4413L97.204 14.6733H96.532L93.396 9.4253V15.6333H91.988V7.1533H93.572L96.9 12.8813L100.324 7.1533H101.764ZM113.643 11.2173C114.208 11.3666 114.645 11.6066 114.955 11.9373C115.264 12.268 115.419 12.6786 115.419 13.1693C115.419 13.6706 115.248 14.1186 114.907 14.5133C114.565 14.8973 114.091 15.2013 113.483 15.4253C112.885 15.6386 112.213 15.7453 111.467 15.7453C110.837 15.7453 110.219 15.6653 109.611 15.5053C109.013 15.3346 108.48 15.0946 108.011 14.7853L108.475 13.6173C108.88 13.8733 109.344 14.076 109.867 14.2253C110.389 14.364 110.917 14.4333 111.451 14.4333C112.176 14.4333 112.752 14.3106 113.179 14.0653C113.616 13.8093 113.835 13.468 113.835 13.0413C113.835 12.6466 113.659 12.3426 113.307 12.1293C112.965 11.916 112.48 11.8093 111.851 11.8093H110.299V10.7053H111.739C112.315 10.7053 112.768 10.604 113.099 10.4013C113.429 10.1986 113.595 9.9213 113.595 9.5693C113.595 9.1853 113.397 8.88663 113.003 8.6733C112.619 8.45997 112.096 8.3533 111.435 8.3533C110.592 8.3533 109.701 8.57197 108.763 9.0093L108.347 7.8253C109.381 7.30263 110.464 7.0413 111.595 7.0413C112.277 7.0413 112.891 7.1373 113.435 7.3293C113.979 7.5213 114.405 7.7933 114.715 8.1453C115.024 8.4973 115.179 8.8973 115.179 9.3453C115.179 9.7613 115.04 10.1346 114.763 10.4653C114.485 10.796 114.112 11.0466 113.643 11.2173ZM120.778 7.0733C121.951 7.0733 122.847 7.3613 123.466 7.9373C124.095 8.5133 124.41 9.37197 124.41 10.5133V15.6333H122.954V14.5133C122.698 14.908 122.33 15.212 121.85 15.4253C121.38 15.628 120.82 15.7293 120.17 15.7293C119.22 15.7293 118.458 15.5 117.882 15.0413C117.316 14.5826 117.034 13.98 117.034 13.2333C117.034 12.4866 117.306 11.8893 117.85 11.4413C118.394 10.9826 119.258 10.7533 120.442 10.7533H122.874V10.4493C122.874 9.78797 122.682 9.2813 122.298 8.9293C121.914 8.5773 121.348 8.4013 120.602 8.4013C120.1 8.4013 119.61 8.48663 119.13 8.6573C118.65 8.8173 118.244 9.03597 117.914 9.3133L117.274 8.1613C117.711 7.8093 118.234 7.54263 118.842 7.3613C119.45 7.1693 120.095 7.0733 120.778 7.0733ZM120.426 14.5453C121.012 14.5453 121.519 14.4173 121.946 14.1613C122.372 13.8946 122.682 13.5213 122.874 13.0413V11.8573H120.506C119.204 11.8573 118.554 12.2946 118.554 13.1693C118.554 13.596 118.719 13.932 119.05 14.1773C119.38 14.4226 119.839 14.5453 120.426 14.5453ZM130.472 12.0493H128.712V15.6333H127.176V7.1533H128.712V10.7373H130.504L133.256 7.1533H134.904L131.688 11.2333L135.128 15.6333H133.32L130.472 12.0493ZM139.606 7.0733C140.779 7.0733 141.675 7.3613 142.294 7.9373C142.923 8.5133 143.238 9.37197 143.238 10.5133V15.6333H141.782V14.5133C141.526 14.908 141.158 15.212 140.678 15.4253C140.208 15.628 139.648 15.7293 138.998 15.7293C138.048 15.7293 137.286 15.5 136.71 15.0413C136.144 14.5826 135.862 13.98 135.862 13.2333C135.862 12.4866 136.134 11.8893 136.678 11.4413C137.222 10.9826 138.086 10.7533 139.27 10.7533H141.702V10.4493C141.702 9.78797 141.51 9.2813 141.126 8.9293C140.742 8.5773 140.176 8.4013 139.43 8.4013C138.928 8.4013 138.438 8.48663 137.958 8.6573C137.478 8.8173 137.072 9.03597 136.742 9.3133L136.102 8.1613C136.539 7.8093 137.062 7.54263 137.67 7.3613C138.278 7.1693 138.923 7.0733 139.606 7.0733ZM139.254 14.5453C139.84 14.5453 140.347 14.4173 140.774 14.1613C141.2 13.8946 141.51 13.5213 141.702 13.0413V11.8573H139.334C138.032 11.8573 137.382 12.2946 137.382 13.1693C137.382 13.596 137.547 13.932 137.878 14.1773C138.208 14.4226 138.667 14.5453 139.254 14.5453ZM150.455 11.2173C151.02 11.3666 151.458 11.6066 151.767 11.9373C152.076 12.268 152.231 12.6786 152.231 13.1693C152.231 13.6706 152.06 14.1186 151.719 14.5133C151.378 14.8973 150.903 15.2013 150.295 15.4253C149.698 15.6386 149.026 15.7453 148.279 15.7453C147.65 15.7453 147.031 15.6653 146.423 15.5053C145.826 15.3346 145.292 15.0946 144.823 14.7853L145.287 13.6173C145.692 13.8733 146.156 14.076 146.679 14.2253C147.202 14.364 147.73 14.4333 148.263 14.4333C148.988 14.4333 149.564 14.3106 149.991 14.0653C150.428 13.8093 150.647 13.468 150.647 13.0413C150.647 12.6466 150.471 12.3426 150.119 12.1293C149.778 11.916 149.292 11.8093 148.663 11.8093H147.111V10.7053H148.551C149.127 10.7053 149.58 10.604 149.911 10.4013C150.242 10.1986 150.407 9.9213 150.407 9.5693C150.407 9.1853 150.21 8.88663 149.815 8.6733C149.431 8.45997 148.908 8.3533 148.247 8.3533C147.404 8.3533 146.514 8.57197 145.575 9.0093L145.159 7.8253C146.194 7.30263 147.276 7.0413 148.407 7.0413C149.09 7.0413 149.703 7.1373 150.247 7.3293C150.791 7.5213 151.218 7.7933 151.527 8.1453C151.836 8.4973 151.991 8.8973 151.991 9.3453C151.991 9.7613 151.852 10.1346 151.575 10.4653C151.298 10.796 150.924 11.0466 150.455 11.2173Z" fill="black"/>
<defs>
<linearGradient id="paint0_linear" x1="146.75" y1="282.939" x2="410.805" y2="282.939" gradientUnits="userSpaceOnUse">
<stop stop-color="#CE7EFF"/>
<stop offset="1" stop-color="#F26A51"/>
</linearGradient>
<linearGradient id="paint1_linear" x1="150" y1="266.633" x2="549.982" y2="266.633" gradientUnits="userSpaceOnUse">
<stop stop-color="#CE7EFF"/>
<stop offset="1" stop-color="#7EC1FF"/>
</linearGradient>
<linearGradient id="paint2_linear" x1="570.942" y1="254.698" x2="774.061" y2="254.698" gradientUnits="userSpaceOnUse">
<stop stop-color="#7EC1FF"/>
<stop offset="1" stop-color="#F98DFC"/>
</linearGradient>
<linearGradient id="paint3_linear" x1="361" y1="55.6333" x2="645.367" y2="55.6333" gradientUnits="userSpaceOnUse">
<stop stop-color="#FFCF4F"/>
<stop offset="1" stop-color="#F98DFC"/>
</linearGradient>
<linearGradient id="paint4_linear" x1="47.2881" y1="55.6333" x2="331.655" y2="55.6333" gradientUnits="userSpaceOnUse">
<stop stop-color="#7FFDC0"/>
<stop offset="1" stop-color="#FFCF4F"/>
</linearGradient>
</defs>
</svg>
