<svg width="863" height="446" viewBox="0 0 863 446" fill="none" xmlns="http://www.w3.org/2000/svg">
<path fill-rule="evenodd" clip-rule="evenodd" d="M862.389 250.883C793.207 136.603 631.122 56.4073 442.201 56.4073C253.279 56.4073 91.1944 136.603 22.0122 250.883H22.023C91.2053 365.162 253.29 445.358 442.211 445.358C631.132 445.358 793.217 365.162 862.399 250.882L862.389 250.883Z" fill="#211F1D"/>
<path fill-rule="evenodd" clip-rule="evenodd" d="M60.0793 250.883H60.0684C122.985 146.954 270.389 74.0215 442.199 74.0215C614.009 74.0215 761.413 146.954 824.33 250.882H824.341C761.424 354.811 614.02 427.744 442.21 427.744C270.4 427.744 122.995 354.811 60.0793 250.883Z" fill="#FFFEFE"/>
<ellipse cx="441.913" cy="251.448" rx="182.389" ry="175.875" fill="#F26A51"/>
<g clip-path="url(#clip0)">
<path d="M325.417 314.41L325.794 315.155C326.027 315.654 325.884 316.316 325.283 316.62L270.209 344.462C269.608 344.766 268.99 344.488 268.726 344.004L268.712 343.977C268.581 343.717 268.557 343.404 268.687 343.089L325.417 314.41Z" fill="url(#paint0_linear)"/>
<path d="M268.685 343.085C268.556 343.4 268.58 343.715 268.711 343.975L268.348 343.256L268.685 343.085Z" fill="url(#paint1_linear)"/>
<path d="M324.923 315.911L269.851 343.751C268.882 344.241 267.866 343.215 268.376 342.266L271.952 335.61C272.624 334.357 272.716 332.886 272.208 331.576L264.676 312.196L302.585 293.032L313.725 310.588C314.478 311.774 315.717 312.572 317.125 312.774L324.605 313.841C325.672 313.993 325.893 315.421 324.923 315.911Z" fill="url(#paint2_linear)"/>
<mask id="mask0" mask-type="alpha" maskUnits="userSpaceOnUse" x="268" y="314" width="58" height="31">
<path d="M325.417 314.41L325.794 315.155C326.027 315.654 325.884 316.316 325.283 316.62L270.206 344.463C269.605 344.767 268.987 344.489 268.726 344.004L268.35 343.259L325.417 314.41Z" fill="url(#paint3_linear)"/>
</mask>
<g mask="url(#mask0)">
<path d="M325.417 314.41L325.794 315.155C326.027 315.654 325.884 316.316 325.283 316.62L270.206 344.463C269.605 344.767 268.987 344.489 268.726 344.004L268.35 343.259L325.417 314.41Z" fill="url(#paint4_linear)"/>
</g>
<path d="M315.533 130.638L376.68 251.593C377.954 254.113 376.937 257.191 374.41 258.469L194.244 349.548C191.715 350.823 188.635 349.819 187.361 347.3L126.215 226.344C124.941 223.825 125.957 220.746 128.485 219.468L308.65 128.389C311.178 127.111 314.26 128.118 315.533 130.638Z" fill="#333333"/>
<path d="M315.614 130.799L376.761 251.755C378.033 254.271 377.016 257.35 374.489 258.628L194.323 349.707C191.797 350.988 188.716 349.981 187.442 347.461L126.295 226.506C125.021 223.986 126.038 220.908 128.566 219.63L308.731 128.551C311.258 127.273 314.34 128.28 315.614 130.799Z" fill="black"/>
<path d="M370.279 238.915L376.77 251.757C377.356 252.915 377.456 254.195 377.146 255.357C376.786 256.725 375.862 257.937 374.497 258.627L194.325 349.709C192.96 350.399 191.436 350.425 190.121 349.904C189 349.462 188.03 348.625 187.445 347.467L180.953 334.626L370.279 238.915Z" fill="url(#paint5_linear)"/>
<mask id="mask1" mask-type="alpha" maskUnits="userSpaceOnUse" x="190" y="255" width="188" height="96">
<path d="M377.149 255.369C376.786 256.73 375.86 257.938 374.495 258.628L194.325 349.709C192.96 350.4 191.438 350.43 190.126 349.915L377.149 255.369Z" fill="url(#paint6_linear)"/>
</mask>
<g mask="url(#mask1)">
<path d="M377.149 255.369C376.786 256.73 375.86 257.938 374.495 258.628L194.325 349.709C192.96 350.4 191.438 350.43 190.126 349.915L377.149 255.369Z" fill="url(#paint7_linear)"/>
</g>
<path d="M309.507 137.933L135.66 225.818C135.473 225.913 135.4 226.142 135.494 226.328L188.344 330.871L188.856 330.612L136.096 226.246L309.587 138.541L362.347 242.907L362.86 242.648L310.01 138.105C309.918 137.917 309.691 137.84 309.507 137.933Z" fill="#333333"/>
<path opacity="0.3" d="M370.279 238.916L180.952 334.626L181.232 335.18L370.559 239.47L370.279 238.916Z" fill="white"/>
<path d="M309.59 138.54L136.099 226.245L188.859 330.611L362.351 242.906L309.59 138.54Z" fill="url(#paint8_linear)"/>
<mask id="mask2" mask-type="alpha" maskUnits="userSpaceOnUse" x="218" y="127" width="153" height="189">
<path d="M315.532 130.637L370.267 238.91L218.523 315.621L274.674 145.567L308.65 128.391C311.176 127.111 314.258 128.117 315.532 130.637Z" fill="url(#paint9_linear)"/>
</mask>
<g mask="url(#mask2)">
<path opacity="0.2" d="M315.532 130.637L370.267 238.91L218.523 315.621L274.674 145.567L308.65 128.391C311.176 127.111 314.258 128.117 315.532 130.637Z" fill="url(#paint10_linear)"/>
</g>
<path d="M207.221 202.377L148.939 231.84L178.31 289.939L236.592 260.476L207.221 202.377Z" fill="#F16A51"/>
<path d="M305.641 166.36L222.815 208.232C220.275 209.516 217.175 208.504 215.896 205.974C214.617 203.443 215.64 200.347 218.18 199.063L301.006 157.192C303.546 155.908 306.646 156.92 307.925 159.45C309.206 161.984 308.184 165.075 305.641 166.36Z" fill="#F16A51"/>
<path d="M313.846 182.589L231.02 224.46C228.48 225.744 225.38 224.733 224.101 222.202C222.822 219.672 223.845 216.576 226.385 215.292L309.211 173.421C311.751 172.137 314.851 173.148 316.13 175.679C317.41 178.209 316.389 181.303 313.846 182.589Z" fill="#F16A51"/>
<path d="M322.052 198.817L239.226 240.689C236.686 241.973 233.586 240.961 232.307 238.431C231.027 235.9 232.051 232.804 234.591 231.52L317.417 189.649C319.957 188.365 323.057 189.377 324.336 191.907C325.615 194.438 324.595 197.532 322.052 198.817Z" fill="#F16A51"/>
<path d="M329.878 214.297L247.052 256.168C244.512 257.452 241.412 256.44 240.133 253.91C238.854 251.379 239.877 248.284 242.417 247L325.243 205.128C327.783 203.844 330.883 204.856 332.162 207.386C333.441 209.917 332.421 213.011 329.878 214.297Z" fill="#F16A51"/>
<path d="M345.559 241.519L195.245 317.508C192.705 318.792 189.605 317.78 188.326 315.249L182.145 303.022C180.866 300.491 181.889 297.395 184.429 296.111L334.743 220.123C337.283 218.839 340.383 219.851 341.662 222.381L347.843 234.608C349.122 237.139 348.102 240.233 345.559 241.519Z" fill="#F16A51"/>
</g>
<ellipse cx="442.295" cy="251.066" rx="151.482" ry="145.736" fill="#7EC1FF"/>
<g clip-path="url(#clip1)">
<path d="M676.512 270.453L533.804 220.66C531.249 219.768 528.462 221.089 527.581 223.612L494.257 319.089L494.917 319.319L528.469 223.19C528.54 222.987 528.626 222.794 528.722 222.614C528.753 222.553 528.788 222.494 528.823 222.435C528.858 222.376 528.897 222.318 528.931 222.259C528.971 222.202 529.008 222.148 529.051 222.092C529.398 221.629 529.834 221.25 530.326 220.97C530.385 220.939 530.443 220.907 530.502 220.875C530.53 220.861 530.559 220.847 530.593 220.831C530.866 220.703 531.152 220.603 531.442 220.534C531.54 220.511 531.637 220.492 531.738 220.475C531.838 220.458 531.938 220.446 532.04 220.438C532.108 220.434 532.176 220.429 532.243 220.428C532.752 220.411 533.277 220.485 533.789 220.664L676.496 270.457C677.178 270.695 677.762 271.089 678.22 271.586C678.288 271.662 678.352 271.736 678.415 271.815C678.497 271.92 678.578 272.029 678.648 272.139C678.686 272.195 678.718 272.253 678.755 272.309C678.805 272.398 678.85 272.485 678.896 272.572C678.91 272.6 678.928 272.63 678.94 272.663C678.966 272.724 678.996 272.787 679.018 272.847C679.38 273.742 679.432 274.762 679.091 275.74L645.538 371.874L646.206 372.107L679.629 276.346C680.324 273.906 678.97 271.311 676.512 270.453Z" fill="url(#paint11_linear)"/>
<path d="M527.798 222.949C528.678 220.43 531.468 219.113 534.024 220.005L676.735 269.8C679.291 270.692 680.652 273.457 679.773 275.976L679.646 276.339C680.33 273.904 678.975 271.312 676.517 270.454L533.805 220.659C531.249 219.767 528.463 221.085 527.584 223.604L527.798 222.949Z" fill="url(#paint12_linear)"/>
<path d="M646.477 369.221L495.847 316.656L494.916 319.323L645.546 371.889L646.477 369.221Z" fill="#3D3D3D"/>
<path d="M679.09 275.768L646.478 369.206L495.85 316.649L528.462 223.211C529.218 221.044 531.61 219.904 533.793 220.665L676.501 270.459C678.684 271.221 679.845 273.606 679.09 275.768Z" fill="black"/>
<path d="M646.213 372.13L646.129 372.368L645.461 372.135L494.83 319.569L494.17 319.339L494.253 319.1L646.213 372.13Z" fill="#666666"/>
<path d="M569.332 345.734L475.584 313.019L474.595 315.855L568.342 348.57L569.332 345.734Z" fill="url(#paint13_linear)"/>
<path d="M663.128 378.313L475.632 312.882L475.587 313.014L663.082 378.444L663.128 378.313Z" fill="url(#paint14_linear)"/>
<path d="M663.081 378.445L569.334 345.729L568.344 348.565L662.092 381.28L663.081 378.445Z" fill="url(#paint15_linear)"/>
<path d="M569.331 345.736L475.584 313.021L474.653 315.687L568.401 348.402L569.331 345.736Z" fill="url(#paint16_linear)"/>
<path d="M663.081 378.445L569.334 345.729L568.403 348.396L662.151 381.111L663.081 378.445Z" fill="url(#paint17_linear)"/>
<path d="M582.728 350.248C582.519 350.848 582.089 351.306 581.558 351.562C581.027 351.818 580.401 351.87 579.8 351.66L557.458 343.864C556.261 343.446 555.627 342.133 556.046 340.932L582.73 350.243L582.728 350.248Z" fill="url(#paint18_linear)"/>
<mask id="mask3" mask-type="alpha" maskUnits="userSpaceOnUse" x="555" y="340" width="28" height="12">
<path d="M582.728 350.248C582.518 350.848 582.088 351.306 581.558 351.562C581.027 351.818 580.401 351.87 579.8 351.66L557.458 343.864C556.261 343.446 555.627 342.133 556.046 340.932L555.94 340.895L555.884 341.056C555.467 342.253 556.1 343.565 557.302 343.985L579.855 351.855C581.057 352.275 582.37 351.641 582.788 350.444L582.844 350.283L582.73 350.244L582.728 350.248Z" fill="url(#paint19_linear)"/>
</mask>
<g mask="url(#mask3)">
<path d="M582.728 350.248C582.518 350.848 582.088 351.306 581.558 351.562C581.027 351.818 580.401 351.87 579.8 351.66L557.458 343.864C556.261 343.446 555.627 342.133 556.046 340.932L555.94 340.895L555.884 341.056C555.467 342.253 556.1 343.565 557.302 343.985L579.855 351.855C581.057 352.275 582.37 351.641 582.788 350.444L582.844 350.283L582.73 350.244L582.728 350.248Z" fill="url(#paint20_linear)"/>
</g>
<path d="M474.593 315.859C480.609 319.813 487.179 323.048 494.085 325.457L567.471 351.067L640.857 376.677C647.763 379.087 654.923 380.644 662.088 381.29L568.341 348.574L474.593 315.859Z" fill="url(#paint21_linear)"/>
<path d="M675.354 276.452L530.96 226.063L499.775 315.426L644.169 365.815L675.354 276.452Z" fill="url(#paint22_linear)"/>
<mask id="mask4" mask-type="alpha" maskUnits="userSpaceOnUse" x="522" y="264" width="159" height="109">
<path d="M676.732 269.799L660.352 264.083L522.797 329.328L645.459 372.128L646.128 372.361L679.767 275.981C680.647 273.458 679.288 270.69 676.732 269.799ZM678.892 272.57C678.895 272.576 678.898 272.582 678.901 272.587C678.908 272.595 678.909 272.605 678.912 272.61L678.892 272.57Z" fill="url(#paint23_linear)"/>
</mask>
<g mask="url(#mask4)">
<path opacity="0.2" d="M676.732 269.799L660.352 264.083L522.797 329.328L645.459 372.128L646.128 372.361L679.767 275.981C680.647 273.458 679.288 270.69 676.732 269.799ZM678.892 272.57C678.895 272.576 678.898 272.582 678.901 272.587C678.908 272.595 678.909 272.605 678.912 272.61L678.892 272.57Z" fill="url(#paint24_linear)"/>
</g>
<path d="M665.065 280.731L601.597 258.582L576.487 330.535L639.956 352.684L665.065 280.731Z" fill="#7EC1FF"/>
<path d="M583.962 273.748L531.069 255.29C529.317 254.678 528.392 252.761 529.003 251.009C529.614 249.257 531.532 248.332 533.284 248.943L586.177 267.401C587.929 268.013 588.854 269.931 588.243 271.682C587.63 273.438 585.714 274.359 583.962 273.748Z" fill="#7EC1FF"/>
<path d="M578.17 290.344L525.277 271.886C523.525 271.275 522.599 269.357 523.211 267.605C523.822 265.854 525.74 264.928 527.491 265.54L580.384 283.998C582.136 284.609 583.062 286.527 582.45 288.278C581.839 290.03 579.921 290.955 578.17 290.344Z" fill="#7EC1FF"/>
<path d="M573.566 307.355L520.673 288.897C518.921 288.286 517.996 286.368 518.607 284.616C519.218 282.865 521.136 281.939 522.888 282.551L575.781 301.009C577.533 301.62 578.458 303.538 577.847 305.289C577.236 307.041 575.322 307.968 573.566 307.355Z" fill="#7EC1FF"/>
</g>
<ellipse cx="442.295" cy="251.066" rx="125.535" ry="121.319" fill="#F9FC8D"/>
<ellipse cx="441.913" cy="251.448" rx="96.1547" ry="92.7063" fill="#F98DFC"/>
<rect width="11.4785" height="59.2218" rx="5" transform="matrix(0.733101 -0.68012 0.680232 0.732997 55.9199 128.022)" fill="#211F1D"/>
<rect width="11.4783" height="70.0455" rx="5" transform="matrix(0.658197 -0.752846 0.752946 0.658082 0.399414 167.928)" fill="#211F1D"/>
<rect width="11.4788" height="59.2205" rx="5" transform="matrix(0.822746 -0.568409 0.568527 0.822664 110.605 90.818)" fill="#211F1D"/>
<rect width="11.4791" height="59.2189" rx="5" transform="matrix(0.924786 -0.380487 0.380587 0.924745 171.933 57.1525)" fill="#211F1D"/>
<rect width="11.4792" height="59.2183" rx="5" transform="matrix(0.962355 -0.271796 0.271874 0.962333 231.84 35.8643)" fill="#211F1D"/>
<rect width="11.4793" height="59.2179" rx="5" transform="matrix(0.982299 -0.187322 0.187378 0.982288 290.852 18.0027)" fill="#211F1D"/>
<rect x="356.531" y="5.18793" width="11.4793" height="59.2176" rx="5" transform="rotate(-3.3377 356.531 5.18793)" fill="#211F1D"/>
<rect x="476.132" y="3.19806" width="11.4793" height="59.2176" rx="5" transform="rotate(0.978203 476.132 3.19806)" fill="#211F1D"/>
<rect x="534.923" y="5.46942" width="11.4793" height="59.2177" rx="5" transform="rotate(6.51069 534.923 5.46942)" fill="#211F1D"/>
<rect width="11.4792" height="59.2182" rx="5" transform="matrix(0.96677 0.255648 -0.255722 0.966751 593.338 15.9201)" fill="#211F1D"/>
<rect width="11.4791" height="59.2186" rx="5" transform="matrix(0.944036 0.329843 -0.329933 0.944005 651.391 34.7828)" fill="#211F1D"/>
<rect width="11.479" height="59.2191" rx="5" transform="matrix(0.912954 0.408063 -0.408168 0.912907 705.99 58.7047)" fill="#211F1D"/>
<rect width="11.4789" height="59.2201" rx="5" transform="matrix(0.851938 0.523644 -0.52376 0.851866 756.745 96.0774)" fill="#211F1D"/>
<rect width="11.4787" height="47.0314" rx="5" transform="matrix(0.782702 0.622396 -0.622514 0.782609 798.612 136.042)" fill="#211F1D"/>
<rect x="417.257" y="0.9711" width="11.4793" height="59.2176" rx="5" transform="rotate(-0.548761 417.257 0.9711)" fill="#211F1D"/>
<g clip-path="url(#clip2)">
<path d="M522.529 143.1L491.384 123.584C488.17 121.57 484.049 122.349 482.185 125.322L438.861 194.441C436.998 197.414 438.089 201.46 441.307 203.476L472.452 222.992C475.665 225.005 479.784 224.231 481.651 221.253L524.974 152.135C526.838 149.162 525.747 145.116 522.529 143.1ZM481.802 220.652C481.451 221.211 481.014 221.69 480.518 222.088C480.478 222.12 480.44 222.147 480.4 222.179C480.359 222.21 480.322 222.238 480.284 222.265C480.257 222.286 480.223 222.308 480.196 222.33C480.107 222.394 480.017 222.452 479.921 222.506C479.879 222.53 479.841 222.557 479.799 222.581C479.738 222.612 479.682 222.647 479.621 222.679C479.582 222.698 479.539 222.722 479.5 222.742C479.457 222.766 479.413 222.782 479.37 222.806C479.251 222.865 479.123 222.917 479.002 222.968C478.965 222.983 478.921 222.999 478.884 223.014C478.839 223.031 478.795 223.047 478.745 223.061C478.701 223.077 478.656 223.093 478.607 223.107C478.562 223.123 478.513 223.136 478.464 223.15C478.414 223.163 478.37 223.18 478.323 223.188C478.232 223.214 478.133 223.24 478.04 223.258C477.895 223.293 477.742 223.318 477.59 223.343C477.546 223.347 477.499 223.356 477.456 223.36C477.353 223.372 477.25 223.383 477.147 223.395C477.103 223.399 477.054 223.4 477.011 223.404C476.862 223.412 476.713 223.421 476.565 223.416C476.517 223.418 476.463 223.416 476.414 223.417C476.312 223.416 476.213 223.411 476.111 223.398C476.058 223.396 476.012 223.393 475.961 223.386C475.799 223.373 475.642 223.351 475.48 223.325C475.437 223.317 475.394 223.309 475.356 223.304C475.305 223.298 475.257 223.287 475.204 223.273C475.157 223.262 475.101 223.252 475.053 223.241C474.94 223.215 474.827 223.188 474.716 223.157C474.676 223.144 474.641 223.135 474.601 223.123C474.458 223.077 474.31 223.029 474.165 222.976C474.116 222.958 474.066 222.939 474.016 222.921C473.966 222.902 473.911 222.88 473.859 222.854C473.762 222.812 473.665 222.77 473.571 222.724L473.566 222.721C473.546 222.709 473.529 222.704 473.509 222.692C473.499 222.686 473.482 222.681 473.472 222.675C473.467 222.672 473.462 222.669 473.457 222.665C473.541 222.706 473.626 222.746 473.713 222.781C473.755 222.802 473.8 222.817 473.842 222.837C473.884 222.857 473.929 222.873 473.974 222.888C474.107 222.939 474.237 222.983 474.367 223.027C474.412 223.042 474.452 223.055 474.5 223.066C474.588 223.089 474.676 223.112 474.763 223.136C474.894 223.167 475.028 223.194 475.162 223.221C475.205 223.229 475.253 223.24 475.298 223.243C475.341 223.251 475.387 223.254 475.43 223.262C475.519 223.274 475.608 223.285 475.699 223.292C475.791 223.298 475.875 223.307 475.964 223.306C476.043 223.311 476.125 223.311 476.206 223.312C476.214 223.311 476.222 223.309 476.232 223.315C476.362 223.315 476.495 223.309 476.629 223.304C476.672 223.3 476.713 223.3 476.76 223.292C476.883 223.28 477.007 223.269 477.128 223.25C477.43 223.205 477.726 223.137 478.015 223.046C478.057 223.034 478.099 223.022 478.135 223.008C478.561 222.863 478.962 222.671 479.338 222.432C479.397 222.392 479.456 222.353 479.514 222.314C479.795 222.117 480.065 221.893 480.307 221.639C480.354 221.586 480.403 221.541 480.449 221.488C480.634 221.281 480.805 221.052 480.959 220.807L524.277 151.697C525.807 149.256 525.062 145.979 522.649 144.119C522.608 144.086 522.562 144.051 522.518 144.023C522.476 143.991 522.427 143.96 522.381 143.925C522.295 143.865 522.212 143.813 522.123 143.757L490.973 124.238C490.885 124.183 490.797 124.128 490.71 124.08L490.705 124.077C487.923 122.511 484.472 123.235 482.888 125.763L439.564 194.881C438.04 197.313 438.77 200.569 441.16 202.434C441.128 202.408 441.094 202.386 441.062 202.36L441.057 202.357C440.975 202.293 440.895 202.224 440.815 202.155C440.33 201.737 439.921 201.265 439.584 200.756C439.558 200.721 439.54 200.684 439.514 200.649C439.456 200.556 439.398 200.463 439.343 200.365C439.315 200.322 439.295 200.278 439.267 200.235C439.146 200.013 439.04 199.789 438.945 199.559C438.93 199.517 438.91 199.473 438.895 199.432C438.849 199.308 438.798 199.182 438.76 199.056C438.745 199.015 438.738 198.973 438.722 198.931C438.705 198.883 438.693 198.837 438.683 198.787C438.671 198.741 438.656 198.687 438.644 198.642C438.636 198.611 438.627 198.581 438.622 198.546C438.612 198.508 438.604 198.465 438.594 198.427C438.545 198.187 438.508 197.942 438.487 197.702C438.48 197.659 438.48 197.615 438.478 197.575C438.466 197.441 438.462 197.306 438.463 197.173C438.458 197.126 438.461 197.077 438.464 197.029C438.47 196.671 438.508 196.315 438.576 195.966C438.587 195.915 438.595 195.87 438.606 195.82C438.66 195.581 438.731 195.347 438.815 195.115C438.831 195.068 438.847 195.021 438.868 194.977C438.993 194.657 439.154 194.346 439.345 194.041L482.352 125.427C482.383 125.377 482.418 125.323 482.454 125.276C482.48 125.235 482.502 125.198 482.53 125.165C482.586 125.086 482.645 125.003 482.706 124.927C482.737 124.889 482.77 124.847 482.801 124.809C482.82 124.79 482.834 124.767 482.854 124.747C482.876 124.723 482.898 124.699 482.92 124.675C482.95 124.637 482.988 124.598 483.024 124.563C483.084 124.499 483.147 124.431 483.213 124.371C483.245 124.341 483.278 124.31 483.311 124.28C483.408 124.19 483.503 124.103 483.611 124.019C483.641 123.993 483.678 123.966 483.708 123.941C483.749 123.909 483.789 123.877 483.829 123.846C483.864 123.823 483.897 123.793 483.931 123.77C483.958 123.749 483.99 123.731 484.017 123.71C484.052 123.687 484.089 123.66 484.124 123.638C484.151 123.616 484.18 123.603 484.204 123.586C484.246 123.562 484.284 123.535 484.326 123.511C484.396 123.466 484.467 123.428 484.541 123.386C484.573 123.368 484.61 123.353 484.65 123.334C484.692 123.31 484.739 123.289 484.782 123.265C485.093 123.118 485.423 122.995 485.756 122.9C485.806 122.887 485.85 122.871 485.897 122.862C485.951 122.851 486.003 122.834 486.06 122.819C486.154 122.801 486.242 122.78 486.335 122.763C486.436 122.744 486.534 122.729 486.632 122.715C486.73 122.7 486.833 122.689 486.933 122.682C486.985 122.676 487.033 122.675 487.085 122.669C487.185 122.662 487.285 122.655 487.39 122.652C487.492 122.652 487.59 122.65 487.692 122.651C487.794 122.651 487.893 122.657 487.998 122.665C488.051 122.667 488.102 122.673 488.155 122.675C488.206 122.682 488.26 122.684 488.31 122.69C488.361 122.696 488.412 122.703 488.462 122.709C488.513 122.716 488.564 122.722 488.619 122.732C488.718 122.749 488.824 122.765 488.928 122.786C488.976 122.797 489.026 122.803 489.074 122.814C489.079 122.817 489.087 122.816 489.087 122.816C489.135 122.827 489.183 122.838 489.235 122.852C489.273 122.869 489.325 122.883 489.373 122.894C489.426 122.908 489.479 122.922 489.536 122.939C489.589 122.953 489.639 122.972 489.684 122.987C489.737 123.001 489.787 123.02 489.837 123.039C489.887 123.057 489.939 123.071 489.989 123.09C490.089 123.127 490.186 123.169 490.288 123.214C490.338 123.233 490.385 123.256 490.432 123.279C490.539 123.327 490.643 123.379 490.747 123.432C490.831 123.472 490.913 123.517 490.994 123.561C491.043 123.592 491.095 123.618 491.139 123.646C491.189 123.677 491.238 123.708 491.287 123.738L522.432 143.254C522.481 143.285 522.53 143.316 522.579 143.346C522.618 143.371 522.658 143.396 522.699 143.428C522.79 143.491 522.875 143.551 522.963 143.619L522.968 143.622C523.009 143.654 523.055 143.689 523.097 143.721C523.138 143.754 523.184 143.789 523.223 143.826C523.259 143.855 523.301 143.887 523.344 143.927C523.383 143.964 523.424 143.996 523.463 144.033C523.501 144.07 523.54 144.107 523.578 144.143C523.612 144.177 523.645 144.211 523.687 144.243C523.697 144.249 523.704 144.26 523.708 144.263C523.742 144.297 523.771 144.327 523.804 144.361C523.85 144.409 523.895 144.456 523.936 144.501C523.965 144.531 523.998 144.565 524.024 144.6C524.088 144.672 524.15 144.749 524.211 144.825C524.254 144.877 524.292 144.926 524.335 144.978C524.365 145.016 524.391 145.052 524.419 145.094C524.447 145.137 524.478 145.176 524.511 145.221C524.538 145.264 524.566 145.307 524.594 145.35C524.799 145.656 524.973 145.98 525.123 146.308C525.141 146.345 525.161 146.389 525.176 146.43C525.241 146.578 525.298 146.728 525.347 146.879C525.368 146.943 525.394 147.01 525.413 147.079C525.495 147.352 525.564 147.623 525.611 147.899C525.62 147.949 525.625 147.996 525.634 148.047C525.65 148.152 525.665 148.249 525.671 148.348C525.676 148.395 525.682 148.45 525.684 148.502C525.691 148.589 525.698 148.676 525.698 148.764C525.698 148.808 525.697 148.852 525.7 148.892C525.697 148.972 525.699 149.056 525.697 149.137C525.699 149.176 525.694 149.217 525.692 149.254C525.688 149.391 525.672 149.526 525.655 149.662C525.648 149.695 525.646 149.731 525.638 149.765C525.617 149.897 525.596 150.029 525.567 150.163C525.556 150.213 525.548 150.259 525.537 150.309C525.47 150.59 525.384 150.859 525.277 151.128C525.268 151.153 525.255 151.184 525.243 151.214C525.223 151.258 525.207 151.305 525.183 151.354C525.162 151.398 525.139 151.446 525.118 151.49C525.097 151.534 525.074 151.583 525.053 151.627C525.01 151.707 524.963 151.792 524.915 151.869C524.883 151.919 524.857 151.972 524.823 152.027L481.807 220.655L481.802 220.652Z" fill="#C7C7C7"/>
<path d="M441.187 202.461C441.146 202.429 441.104 202.397 441.058 202.361L441.053 202.358C440.971 202.294 440.891 202.225 440.811 202.156C440.327 201.739 439.918 201.267 439.581 200.758C439.555 200.723 439.537 200.687 439.511 200.651C439.454 200.558 439.396 200.465 439.341 200.367C439.313 200.324 439.293 200.28 439.265 200.237C439.144 200.016 439.039 199.792 438.944 199.561C438.928 199.52 438.908 199.476 438.893 199.435C438.848 199.311 438.797 199.184 438.759 199.059C438.744 199.018 438.736 198.976 438.721 198.934C438.704 198.886 438.692 198.84 438.682 198.79C438.67 198.744 438.655 198.69 438.643 198.645C438.635 198.614 438.627 198.584 438.621 198.549C438.611 198.511 438.603 198.468 438.593 198.43C438.545 198.191 438.507 197.945 438.487 197.705C438.479 197.662 438.48 197.618 438.477 197.578C438.465 197.444 438.462 197.309 438.462 197.177C438.458 197.129 438.461 197.081 438.464 197.032C438.47 196.675 438.508 196.319 438.577 195.969C438.588 195.919 438.596 195.873 438.606 195.823C438.66 195.585 438.732 195.351 438.816 195.119C438.832 195.072 438.847 195.025 438.868 194.981C438.994 194.66 439.154 194.349 439.345 194.045L482.041 125.929C483.799 123.124 487.633 122.329 490.707 124.078C487.928 122.514 484.478 123.239 482.894 125.767L439.569 194.888C438.034 197.326 438.776 200.602 441.187 202.461Z" fill="url(#paint25_linear)"/>
<path d="M524.499 152.534L481.805 220.658C481.455 221.217 481.017 221.696 480.522 222.095C480.481 222.126 480.444 222.154 480.403 222.185C480.363 222.217 480.325 222.244 480.288 222.271C480.261 222.292 480.226 222.315 480.199 222.336C480.111 222.401 480.02 222.458 479.925 222.512C479.883 222.536 479.845 222.564 479.803 222.588C479.742 222.619 479.686 222.654 479.625 222.685C479.586 222.705 479.543 222.729 479.504 222.748C479.461 222.772 479.417 222.789 479.374 222.813C479.255 222.872 479.127 222.924 479.006 222.975C478.969 222.99 478.925 223.006 478.888 223.021C478.844 223.038 478.799 223.054 478.75 223.067C478.705 223.084 478.656 223.097 478.611 223.114C478.562 223.127 478.518 223.144 478.468 223.157C478.419 223.17 478.374 223.187 478.328 223.196C478.237 223.221 478.138 223.248 478.045 223.265C477.899 223.301 477.747 223.326 477.595 223.35C477.551 223.355 477.505 223.364 477.461 223.368C477.358 223.379 477.255 223.391 477.152 223.402C477.109 223.407 477.06 223.408 477.016 223.412C476.868 223.42 476.719 223.428 476.571 223.424C476.522 223.425 476.469 223.424 476.42 223.425C476.318 223.424 476.219 223.419 476.118 223.406C476.072 223.403 476.018 223.401 475.968 223.394C475.805 223.381 475.648 223.359 475.486 223.333C475.443 223.325 475.4 223.318 475.362 223.313C475.312 223.306 475.264 223.295 475.211 223.281C475.163 223.27 475.108 223.261 475.06 223.25C474.947 223.223 474.834 223.197 474.723 223.165C474.683 223.153 474.648 223.144 474.608 223.131C474.465 223.086 474.318 223.038 474.173 222.985C474.123 222.967 474.073 222.948 474.023 222.929C473.974 222.911 473.919 222.889 473.867 222.863C473.77 222.821 473.673 222.779 473.579 222.733L473.574 222.73C473.527 222.707 473.48 222.684 473.428 222.658C476.152 224.016 479.425 223.256 480.955 220.815L524.272 151.696C525.83 149.209 525.033 145.866 522.52 144.019C525.336 146.049 526.231 149.77 524.499 152.534Z" fill="url(#paint26_linear)"/>
<path d="M481.804 220.66L481.49 221.16C479.682 224.045 475.67 224.803 472.549 222.847L441.402 203.327C438.282 201.372 437.214 197.43 439.022 194.545L439.335 194.045C439.148 194.345 438.989 194.663 438.859 194.981C438.843 195.028 438.822 195.072 438.806 195.119C438.723 195.351 438.651 195.585 438.598 195.823C438.587 195.873 438.579 195.919 438.568 195.969C438.499 196.318 438.461 196.674 438.456 197.032C438.453 197.08 438.458 197.128 438.454 197.176C438.454 197.309 438.458 197.444 438.47 197.578C438.472 197.618 438.477 197.665 438.479 197.704C438.505 197.948 438.538 198.19 438.586 198.43C438.596 198.468 438.604 198.51 438.614 198.548C438.622 198.579 438.628 198.614 438.636 198.644C438.649 198.69 438.663 198.744 438.675 198.789C438.688 198.835 438.702 198.888 438.715 198.934C438.727 198.98 438.737 199.018 438.753 199.059C438.791 199.184 438.836 199.308 438.887 199.434C438.902 199.476 438.917 199.517 438.938 199.561C439.033 199.792 439.138 200.016 439.26 200.238C439.28 200.282 439.308 200.325 439.336 200.367C439.391 200.465 439.449 200.559 439.506 200.652C439.532 200.687 439.55 200.724 439.576 200.759C439.914 201.268 440.331 201.738 440.808 202.157C440.888 202.226 440.968 202.295 441.05 202.36L441.055 202.363C441.138 202.427 441.226 202.495 441.316 202.558C441.358 202.59 441.407 202.621 441.453 202.656C441.539 202.716 441.627 202.772 441.715 202.827L472.863 222.347C472.951 222.403 473.04 222.458 473.131 222.509C473.175 222.537 473.227 222.563 473.279 222.589C473.356 222.631 473.432 222.673 473.512 222.71C473.531 222.722 473.549 222.727 473.568 222.739L473.573 222.742C473.667 222.788 473.764 222.83 473.861 222.872C473.916 222.894 473.968 222.92 474.018 222.939C474.068 222.957 474.118 222.976 474.168 222.994C474.313 223.047 474.458 223.1 474.603 223.141C474.643 223.153 474.683 223.166 474.719 223.175C474.829 223.206 474.942 223.233 475.056 223.26C475.103 223.271 475.156 223.285 475.207 223.291C475.255 223.302 475.31 223.312 475.358 223.323C475.401 223.331 475.444 223.339 475.482 223.343C475.641 223.374 475.801 223.391 475.964 223.405C476.015 223.411 476.06 223.415 476.114 223.417C476.213 223.422 476.317 223.43 476.417 223.436C476.465 223.434 476.516 223.441 476.568 223.435C476.718 223.435 476.869 223.434 477.013 223.423C477.057 223.419 477.105 223.418 477.149 223.414C477.252 223.402 477.355 223.391 477.458 223.379C477.502 223.375 477.548 223.366 477.592 223.362C477.744 223.337 477.892 223.309 478.042 223.277C478.138 223.255 478.234 223.233 478.325 223.208C478.375 223.194 478.424 223.181 478.466 223.169C478.515 223.156 478.56 223.139 478.609 223.126C478.653 223.11 478.703 223.096 478.747 223.08C478.797 223.067 478.841 223.05 478.886 223.034C478.927 223.022 478.967 223.002 479.004 222.987C479.13 222.94 479.253 222.884 479.372 222.826C479.419 222.805 479.459 222.785 479.501 222.761C479.541 222.742 479.583 222.718 479.623 222.698C479.684 222.667 479.74 222.632 479.8 222.601C479.843 222.577 479.885 222.553 479.923 222.526C480.013 222.468 480.107 222.407 480.197 222.35C480.229 222.332 480.259 222.306 480.286 222.285C480.323 222.258 480.364 222.226 480.401 222.199C480.439 222.172 480.479 222.14 480.52 222.109C481.021 221.701 481.453 221.219 481.804 220.66Z" fill="url(#paint27_linear)"/>
<path d="M524.819 152.037L524.506 152.537C526.209 149.82 525.363 146.17 522.65 144.122C522.608 144.089 522.562 144.054 522.518 144.026C522.476 143.994 522.427 143.963 522.381 143.928C522.295 143.868 522.212 143.816 522.123 143.76L490.975 124.242C490.886 124.187 490.798 124.131 490.712 124.084L490.707 124.08C487.63 122.329 483.793 123.121 482.036 125.925L482.349 125.425C482.381 125.375 482.415 125.321 482.451 125.274C482.477 125.233 482.5 125.196 482.527 125.163C482.583 125.084 482.643 125.001 482.704 124.926C482.734 124.888 482.768 124.845 482.798 124.808C482.817 124.788 482.831 124.765 482.851 124.746C482.873 124.721 482.895 124.697 482.917 124.673C482.947 124.635 482.985 124.596 483.021 124.561C483.081 124.498 483.144 124.43 483.21 124.369C483.242 124.339 483.275 124.309 483.307 124.279C483.405 124.188 483.5 124.102 483.608 124.018C483.638 123.992 483.675 123.965 483.705 123.939C483.745 123.908 483.786 123.876 483.826 123.844C483.861 123.822 483.893 123.792 483.928 123.769C483.955 123.748 483.987 123.73 484.014 123.709C484.048 123.686 484.086 123.659 484.121 123.637C484.148 123.615 484.177 123.602 484.201 123.585C484.243 123.561 484.281 123.534 484.323 123.51C484.392 123.465 484.464 123.428 484.538 123.386C484.575 123.371 484.612 123.356 484.651 123.336C484.694 123.312 484.741 123.291 484.783 123.267C485.094 123.12 485.424 122.998 485.758 122.903C485.807 122.89 485.851 122.873 485.898 122.865C485.952 122.854 486.005 122.836 486.062 122.822C486.155 122.804 486.243 122.783 486.336 122.766C486.437 122.747 486.535 122.732 486.633 122.718C486.731 122.703 486.834 122.692 486.934 122.685C486.986 122.679 487.035 122.678 487.086 122.672C487.186 122.666 487.286 122.659 487.391 122.655C487.494 122.656 487.591 122.653 487.693 122.654C487.795 122.655 487.895 122.66 487.999 122.668C488.052 122.67 488.103 122.677 488.157 122.679C488.207 122.685 488.261 122.687 488.312 122.694C488.362 122.7 488.413 122.706 488.464 122.713C488.514 122.719 488.565 122.726 488.621 122.735C488.719 122.753 488.826 122.769 488.929 122.789C488.977 122.8 489.028 122.807 489.075 122.818C489.08 122.821 489.088 122.819 489.088 122.819C489.136 122.83 489.184 122.841 489.237 122.856C489.274 122.873 489.327 122.887 489.374 122.898C489.427 122.912 489.48 122.926 489.538 122.943C489.59 122.957 489.64 122.976 489.685 122.991C489.738 123.005 489.788 123.024 489.838 123.043C489.888 123.061 489.941 123.075 489.991 123.094C490.09 123.131 490.187 123.173 490.289 123.218C490.339 123.236 490.386 123.26 490.433 123.283C490.54 123.331 490.644 123.383 490.748 123.436C490.832 123.476 490.914 123.521 490.995 123.565C491.045 123.596 491.097 123.622 491.141 123.65C491.19 123.681 491.239 123.712 491.288 123.742L522.437 143.26C522.486 143.291 522.535 143.322 522.584 143.353C522.623 143.377 522.663 143.402 522.704 143.434C522.795 143.497 522.88 143.557 522.968 143.625L522.973 143.628C523.014 143.66 523.061 143.696 523.102 143.728C523.143 143.76 523.19 143.795 523.228 143.832C523.265 143.861 523.306 143.894 523.349 143.934C523.388 143.97 523.429 144.003 523.468 144.039C523.506 144.076 523.545 144.113 523.583 144.15C523.617 144.183 523.651 144.217 523.692 144.249C523.702 144.256 523.709 144.266 523.714 144.269C523.747 144.303 523.776 144.334 523.81 144.367C523.855 144.415 523.901 144.462 523.941 144.507C523.97 144.538 524.004 144.571 524.029 144.606C524.094 144.678 524.155 144.755 524.217 144.831C524.26 144.884 524.297 144.932 524.34 144.985C524.371 145.023 524.397 145.058 524.424 145.101C524.452 145.144 524.483 145.182 524.516 145.228C524.544 145.271 524.572 145.313 524.6 145.356C524.805 145.662 524.978 145.986 525.129 146.314C525.147 146.351 525.167 146.395 525.182 146.436C525.247 146.584 525.304 146.734 525.353 146.885C525.374 146.949 525.4 147.016 525.419 147.085C525.501 147.357 525.571 147.629 525.617 147.905C525.626 147.955 525.631 148.002 525.64 148.052C525.657 148.157 525.671 148.255 525.677 148.354C525.682 148.401 525.689 148.456 525.69 148.508C525.698 148.594 525.705 148.681 525.704 148.769C525.704 148.814 525.704 148.858 525.706 148.897C525.704 148.978 525.706 149.062 525.703 149.142C525.706 149.182 525.701 149.223 525.698 149.259C525.695 149.396 525.678 149.531 525.662 149.667C525.655 149.7 525.652 149.737 525.645 149.77C525.624 149.902 525.603 150.035 525.573 150.168C525.563 150.218 525.555 150.264 525.544 150.314C525.477 150.595 525.391 150.864 525.284 151.132C525.275 151.158 525.263 151.188 525.25 151.219C525.23 151.263 525.214 151.31 525.19 151.358C525.17 151.402 525.146 151.451 525.125 151.495C525.105 151.539 525.081 151.587 525.06 151.631C525.017 151.711 524.97 151.796 524.922 151.874C524.885 151.933 524.851 151.987 524.819 152.037Z" fill="url(#paint28_linear)"/>
<path d="M522.384 143.92C522.298 143.861 522.21 143.805 522.121 143.75L490.976 124.234C490.888 124.179 490.8 124.123 490.713 124.075L490.708 124.072C487.926 122.506 484.475 123.231 482.891 125.758L439.564 194.882C438.006 197.368 438.805 200.711 441.316 202.557C441.357 202.589 441.406 202.62 441.452 202.655C441.538 202.715 441.626 202.771 441.715 202.826L472.86 222.342C472.948 222.397 473.036 222.453 473.128 222.504C473.172 222.531 473.224 222.557 473.276 222.584C476.029 224.043 479.394 223.303 480.953 220.816L524.277 151.697C525.859 149.162 525.003 145.746 522.384 143.92ZM480.516 220.542C479.108 222.788 476.021 223.5 473.492 222.162C473.445 222.139 473.401 222.111 473.354 222.088C473.272 222.043 473.189 221.991 473.11 221.942L441.966 202.426C441.882 202.374 441.803 202.325 441.723 202.268C441.678 202.24 441.637 202.208 441.601 202.179C439.294 200.487 438.589 197.398 439.997 195.152L483.32 126.034C484.765 123.729 487.902 123.048 490.465 124.483L490.474 124.489C490.556 124.534 490.639 124.586 490.718 124.636L521.863 144.151C521.941 144.2 522.025 144.253 522.101 144.307L522.111 144.313C524.525 145.996 525.279 149.116 523.835 151.42L480.511 220.539L480.516 220.542Z" fill="#404040"/>
<path d="M523.823 151.451L480.502 220.575C480.234 221.003 479.904 221.378 479.531 221.689C479.232 221.938 478.907 222.152 478.554 222.324C478.482 222.361 478.409 222.391 478.333 222.426C478.223 222.471 478.113 222.516 477.998 222.558C477.674 222.672 477.342 222.755 477.002 222.808C477.825 222.399 478.538 221.782 479.048 220.968L479.547 220.173C479.575 220.127 479.612 220.081 479.64 220.035L522.964 150.906C522.995 150.856 523.026 150.806 523.05 150.758L523.54 149.976C524.056 149.153 524.305 148.233 524.312 147.319C524.746 148.693 524.612 150.192 523.823 151.451Z" fill="url(#paint29_linear)"/>
<path d="M521.842 144.696L521.823 144.684C521.757 144.636 521.688 144.593 521.619 144.55L490.475 125.034C490.406 124.991 490.332 124.945 490.26 124.907L490.241 124.894L490.231 124.888C487.907 123.596 485.063 124.214 483.755 126.3L440.428 195.424C439.149 197.465 439.789 200.265 441.885 201.8C441.917 201.826 441.951 201.848 441.986 201.87L442 201.879C442.071 201.929 442.145 201.976 442.219 202.022L473.363 221.537C473.437 221.584 473.514 221.625 473.582 221.668L473.597 221.678C473.631 221.699 473.674 221.719 473.711 221.736C476.007 222.953 478.806 222.308 480.086 220.267L523.407 151.153C524.72 149.057 524.034 146.221 521.842 144.696ZM478.948 219.56C478.538 220.215 477.915 220.673 477.199 220.909C477.158 220.92 477.124 220.931 477.082 220.943C476.965 220.977 476.846 221.003 476.729 221.025C476.623 221.041 476.518 221.057 476.407 221.07C476.271 221.08 476.135 221.09 475.995 221.084C475.859 221.082 475.722 221.072 475.582 221.054C475.511 221.047 475.443 221.036 475.378 221.02C475.309 221.009 475.239 220.991 475.173 220.975C475.038 220.94 474.9 220.898 474.76 220.849C474.597 220.791 474.439 220.717 474.278 220.635C474.263 220.626 474.245 220.621 474.236 220.615L474.216 220.603L474.201 220.594L474.187 220.584C474.172 220.575 474.162 220.569 474.144 220.564C474.13 220.555 474.12 220.549 474.105 220.54C474.076 220.521 474.051 220.506 474.026 220.49L442.877 200.972C442.852 200.956 442.823 200.938 442.798 200.923C442.769 200.904 442.747 200.884 442.718 200.866L442.708 200.859L442.693 200.85L442.673 200.838C442.659 200.829 442.647 200.815 442.632 200.806C441.094 199.678 440.624 197.623 441.561 196.127L484.882 127.013C485.837 125.49 487.903 125.031 489.602 125.957L489.632 125.975L489.679 125.998C489.731 126.024 489.775 126.052 489.819 126.08L520.964 145.595C521.008 145.623 521.052 145.651 521.099 145.686L521.113 145.695L521.128 145.705C521.138 145.711 521.148 145.717 521.155 145.728C521.184 145.746 521.211 145.769 521.237 145.792C521.252 145.801 521.267 145.811 521.274 145.821C521.301 145.844 521.325 145.86 521.352 145.883C521.383 145.909 521.41 145.932 521.441 145.958L521.446 145.961C521.493 145.996 521.531 146.033 521.57 146.07C521.577 146.081 521.587 146.087 521.591 146.09C521.625 146.124 521.654 146.154 521.687 146.188C521.733 146.236 521.778 146.283 521.821 146.335C521.857 146.376 521.892 146.418 521.923 146.456C521.959 146.497 521.996 146.546 522.029 146.592C522.095 146.684 522.161 146.776 522.221 146.877C522.276 146.962 522.322 147.054 522.367 147.146C522.376 147.164 522.387 147.19 522.396 147.208C522.414 147.245 522.429 147.286 522.447 147.323C522.47 147.375 522.492 147.427 522.509 147.475C522.549 147.576 522.585 147.681 522.614 147.788C522.629 147.841 522.643 147.895 522.653 147.945C522.667 147.998 522.677 148.049 522.683 148.104C522.721 148.317 522.742 148.533 522.744 148.749C522.744 148.857 522.737 148.967 522.728 149.069C522.716 149.175 522.704 149.282 522.68 149.387C522.669 149.437 522.655 149.491 522.644 149.542C522.614 149.656 522.578 149.766 522.538 149.874C522.522 149.921 522.505 149.961 522.487 150C522.426 150.152 522.347 150.299 522.259 150.44L478.938 219.554L478.948 219.56Z" fill="black"/>
<path d="M494.191 130.682C494.193 130.657 494.197 130.628 494.199 130.604C494.199 130.591 494.202 130.587 494.203 130.575C494.201 130.611 494.193 130.645 494.191 130.682Z" fill="black"/>
<path d="M515.013 143.614C515.007 143.623 515 143.624 514.989 143.63C514.968 143.643 514.943 143.659 514.922 143.671C514.954 143.653 514.981 143.632 515.013 143.614Z" fill="black"/>
<path d="M516.475 142.789C516.211 142.642 515.886 142.692 515.713 142.913C515.699 142.935 515.688 142.954 515.669 142.973C515.61 143.056 515.546 143.137 515.477 143.214C515.455 143.238 515.433 143.262 515.408 143.291C515.375 143.321 515.35 143.35 515.318 143.38C515.288 143.406 515.258 143.431 515.231 143.452C515.221 143.458 515.218 143.463 515.207 143.469C515.202 143.478 515.194 143.479 515.183 143.485C515.178 143.494 515.17 143.496 515.167 143.5C515.156 143.507 515.143 143.517 515.137 143.526C515.124 143.537 515.113 143.543 515.1 143.553C515.073 143.574 515.041 143.592 515.014 143.613C514.982 143.632 514.955 143.653 514.923 143.671C514.921 143.675 514.913 143.677 514.91 143.681C514.907 143.686 514.907 143.686 514.907 143.686C514.883 143.702 514.854 143.716 514.83 143.732C514.809 143.744 514.785 143.761 514.759 143.77C514.751 143.771 514.745 143.78 514.737 143.782C514.727 143.788 514.716 143.794 514.701 143.797C514.682 143.804 514.669 143.815 514.65 143.822C514.648 143.827 514.64 143.828 514.64 143.828C514.632 143.83 514.629 143.834 514.621 143.836C514.611 143.842 514.6 143.848 514.585 143.851C514.574 143.857 514.559 143.86 514.548 143.866C514.537 143.872 514.527 143.878 514.514 143.876C514.506 143.878 514.503 143.882 514.496 143.884C514.48 143.886 514.47 143.892 514.459 143.898C514.448 143.904 514.441 143.906 514.433 143.907C514.422 143.913 514.407 143.916 514.391 143.919C514.388 143.924 514.383 143.921 514.381 143.925C514.378 143.93 514.373 143.927 514.373 143.927C514.357 143.93 514.344 143.94 514.328 143.943C514.321 143.945 514.318 143.949 514.31 143.951C514.292 143.958 514.276 143.961 514.261 143.964C514.237 143.968 514.219 143.976 514.196 143.98C514.177 143.988 514.154 143.992 514.131 143.996L514.128 144.001C514.112 144.004 514.102 144.01 514.086 144.013C514.071 144.016 514.055 144.019 514.04 144.022C514.024 144.025 514.009 144.028 513.993 144.03C513.967 144.039 513.939 144.041 513.915 144.045C513.892 144.049 513.877 144.052 513.853 144.057C513.838 144.06 513.83 144.061 513.814 144.064C513.783 144.07 513.755 144.071 513.727 144.073C513.699 144.074 513.671 144.075 513.64 144.081C513.619 144.081 513.604 144.084 513.588 144.087C513.568 144.087 513.547 144.087 513.527 144.086C513.506 144.086 513.486 144.086 513.465 144.086C513.458 144.087 513.445 144.086 513.437 144.087C513.404 144.085 513.371 144.084 513.343 144.085C513.315 144.086 513.289 144.083 513.269 144.083C513.236 144.081 513.203 144.079 513.172 144.073C513.16 144.071 513.147 144.07 513.134 144.068C513.129 144.065 513.127 144.07 513.127 144.07C513.101 144.066 513.081 144.066 513.055 144.063C513.035 144.063 513.017 144.058 512.992 144.055C512.972 144.055 512.954 144.05 512.936 144.045C512.924 144.044 512.919 144.041 512.906 144.039C512.898 144.041 512.889 144.034 512.881 144.036C512.833 144.025 512.79 144.017 512.742 144.006C512.699 143.998 512.659 143.986 512.614 143.97C512.566 143.959 512.521 143.944 512.476 143.928C512.386 143.897 512.291 143.863 512.207 143.823C512.17 143.806 512.133 143.789 512.095 143.772C512.085 143.765 512.081 143.762 512.073 143.764C512.04 143.75 512.011 143.731 511.982 143.713C511.944 143.696 511.91 143.674 511.875 143.653C511.866 143.647 511.851 143.637 511.841 143.631L495.567 133.433C495.557 133.427 495.547 133.421 495.532 133.412C495.498 133.39 495.466 133.364 495.432 133.343C495.402 133.324 495.376 133.301 495.346 133.283C495.336 133.277 495.331 133.273 495.329 133.266C495.298 133.24 495.266 133.214 495.235 133.188C495.16 133.122 495.09 133.059 495.022 132.991C494.989 132.958 494.955 132.924 494.924 132.886C494.896 132.855 494.87 132.82 494.836 132.786C494.806 132.748 494.78 132.713 494.749 132.674C494.742 132.664 494.737 132.661 494.735 132.653C494.728 132.642 494.723 132.639 494.716 132.628C494.704 132.615 494.695 132.596 494.683 132.583C494.669 132.561 494.657 132.547 494.648 132.529C494.634 132.508 494.625 132.489 494.611 132.468C494.606 132.465 494.606 132.465 494.609 132.46C494.602 132.45 494.595 132.439 494.588 132.428C494.569 132.404 494.553 132.375 494.537 132.346C494.523 132.324 494.51 132.303 494.503 132.28C494.487 132.251 494.471 132.222 494.46 132.196C494.458 132.188 494.451 132.178 494.449 132.17C494.44 132.152 494.431 132.133 494.422 132.115C494.413 132.097 494.404 132.078 494.395 132.06C494.386 132.042 494.382 132.027 494.377 132.011C494.366 131.985 494.355 131.959 494.347 131.929C494.336 131.903 494.328 131.872 494.316 131.847C494.312 131.831 494.31 131.824 494.306 131.808C494.3 131.786 494.291 131.767 494.29 131.747C494.278 131.721 494.275 131.694 494.269 131.671C494.265 131.656 494.261 131.641 494.257 131.625C494.252 131.61 494.248 131.595 494.244 131.58C494.24 131.564 494.236 131.549 494.237 131.537C494.233 131.522 494.23 131.514 494.231 131.502C494.226 131.467 494.218 131.437 494.212 131.401C494.208 131.386 494.207 131.366 494.203 131.351C494.201 131.344 494.198 131.336 494.201 131.331C494.197 131.316 494.196 131.296 494.197 131.284C494.192 131.281 494.195 131.277 494.195 131.277C494.197 131.272 494.193 131.269 494.195 131.264C494.191 131.249 494.192 131.237 494.188 131.222C494.186 131.214 494.187 131.202 494.185 131.194C494.18 131.179 494.181 131.167 494.182 131.155C494.18 131.147 494.183 131.143 494.181 131.135C494.182 131.123 494.177 131.108 494.175 131.1C494.171 131.085 494.172 131.073 494.173 131.06C494.174 131.048 494.174 131.036 494.17 131.021C494.168 131.013 494.171 131.009 494.169 131.001C494.172 130.996 494.17 130.989 494.17 130.989C494.168 130.969 494.167 130.949 494.171 130.933C494.172 130.92 494.167 130.905 494.168 130.893C494.166 130.885 494.167 130.873 494.17 130.869C494.171 130.844 494.168 130.817 494.172 130.788C494.172 130.756 494.176 130.727 494.181 130.698C494.184 130.694 494.184 130.694 494.179 130.691C494.177 130.683 494.179 130.679 494.182 130.674C494.185 130.638 494.192 130.604 494.194 130.568C494.197 130.531 494.204 130.498 494.211 130.464C494.215 130.448 494.215 130.435 494.219 130.419C494.22 130.407 494.224 130.39 494.229 130.381C494.227 130.373 494.233 130.364 494.236 130.359C494.236 130.347 494.239 130.343 494.24 130.331C494.241 130.318 494.244 130.314 494.244 130.302C494.255 130.264 494.265 130.226 494.272 130.192C494.285 130.15 494.295 130.112 494.313 130.072C494.32 130.039 494.335 130.004 494.347 129.974C494.401 129.888 494.446 129.795 494.495 129.706C494.509 129.683 494.521 129.665 494.535 129.642C494.658 129.39 494.561 129.076 494.314 128.902L516.475 142.789Z" fill="black"/>
<path d="M495.447 133.329C495.479 133.355 495.513 133.377 495.548 133.399C495.528 133.386 495.508 133.374 495.489 133.362C495.469 133.349 495.449 133.337 495.432 133.32C495.408 133.305 495.391 133.288 495.371 133.276C495.366 133.273 495.366 133.273 495.361 133.27C495.391 133.288 495.418 133.311 495.447 133.329Z" fill="black"/>
<path d="M512.083 143.747C512.083 143.747 512.078 143.744 512.073 143.741C512.049 143.725 512.026 143.717 512.006 143.705C511.984 143.697 511.964 143.685 511.945 143.672C511.925 143.66 511.905 143.648 511.886 143.635C511.92 143.657 511.957 143.674 511.992 143.696C512.021 143.714 512.053 143.728 512.083 143.747Z" fill="black"/>
<path d="M494.22 130.475C494.223 130.47 494.223 130.47 494.22 130.475C494.224 130.457 494.225 130.444 494.229 130.426C494.23 130.447 494.224 130.457 494.22 130.475Z" fill="black"/>
<path d="M494.191 130.682C494.193 130.657 494.197 130.628 494.199 130.604C494.199 130.591 494.202 130.587 494.203 130.575C494.201 130.611 494.193 130.645 494.191 130.682Z" fill="black"/>
<path d="M494.206 131.34C494.205 131.319 494.2 131.302 494.199 131.281C494.196 131.286 494.201 131.289 494.201 131.289C494.205 131.305 494.21 131.322 494.206 131.34Z" fill="black"/>
<path d="M494.238 131.503C494.232 131.48 494.23 131.46 494.224 131.437C494.22 131.421 494.218 131.414 494.219 131.401C494.224 131.437 494.23 131.472 494.238 131.503Z" fill="black"/>
<path d="M494.252 131.589C494.247 131.57 494.242 131.552 494.243 131.537C494.248 131.555 494.253 131.574 494.252 131.589Z" fill="black"/>
<path d="M494.391 132.006C494.38 131.979 494.369 131.953 494.357 131.926C494.353 131.911 494.344 131.892 494.34 131.876C494.335 131.861 494.328 131.85 494.329 131.837C494.338 131.869 494.349 131.895 494.36 131.921C494.369 131.953 494.38 131.979 494.391 132.006Z" fill="black"/>
<path d="M494.412 132.054C494.422 132.073 494.431 132.093 494.441 132.112C494.438 132.104 494.433 132.101 494.431 132.093C494.424 132.081 494.416 132.07 494.412 132.054Z" fill="black"/>
<path d="M494.516 132.272C494.507 132.253 494.495 132.239 494.485 132.221C494.485 132.221 494.485 132.221 494.481 132.218C494.474 132.207 494.469 132.192 494.467 132.184C494.488 132.216 494.5 132.242 494.516 132.272Z" fill="black"/>
<path d="M494.853 132.775C494.824 132.744 494.803 132.711 494.778 132.683C494.776 132.675 494.766 132.669 494.764 132.661C494.791 132.697 494.822 132.736 494.853 132.775Z" fill="black"/>
<path d="M494.937 132.877C494.968 132.915 495.001 132.949 495.035 132.983C495.013 132.963 494.989 132.935 494.968 132.915C494.959 132.897 494.944 132.888 494.937 132.877C494.92 132.86 494.908 132.846 494.891 132.829C494.875 132.813 494.861 132.791 494.849 132.777C494.877 132.808 494.906 132.839 494.937 132.877Z" fill="black"/>
<path d="M495.251 133.175C495.283 133.202 495.314 133.228 495.346 133.254C495.319 133.231 495.285 133.209 495.258 133.186C495.258 133.186 495.253 133.183 495.251 133.175C495.236 133.166 495.224 133.152 495.214 133.146C495.188 133.123 495.166 133.103 495.139 133.08C495.11 133.049 495.078 133.023 495.05 132.992C495.045 132.989 495.043 132.981 495.033 132.975C495.105 133.046 495.173 133.114 495.251 133.175Z" fill="black"/>
<path d="M495.448 133.33L495.433 133.321C495.423 133.315 495.418 133.312 495.408 133.306C495.393 133.296 495.381 133.282 495.366 133.273C495.361 133.27 495.361 133.27 495.356 133.266C495.391 133.288 495.418 133.312 495.448 133.33Z" fill="black"/>
<path d="M511.992 143.696C512.021 143.715 512.054 143.728 512.084 143.747C512.084 143.747 512.079 143.744 512.074 143.741C512.059 143.731 512.041 143.727 512.026 143.718C512.016 143.712 512.011 143.708 512.001 143.702L511.992 143.696Z" fill="black"/>
<path d="M512.218 143.806C512.31 143.845 512.398 143.881 512.488 143.912C512.48 143.913 512.471 143.907 512.466 143.904C512.425 143.892 512.388 143.874 512.348 143.862C512.315 143.848 512.288 143.837 512.255 143.823C512.247 143.824 512.232 143.815 512.218 143.806C512.213 143.803 512.205 143.804 512.205 143.804C512.172 143.79 512.14 143.776 512.105 143.755C512.148 143.775 512.185 143.792 512.218 143.806Z" fill="black"/>
<path d="M512.758 143.992C512.732 143.989 512.715 143.984 512.692 143.976C512.669 143.969 512.649 143.968 512.626 143.961C512.609 143.956 512.596 143.954 512.581 143.945C512.551 143.939 512.519 143.925 512.491 143.914C512.536 143.929 512.581 143.945 512.629 143.956C512.669 143.969 512.71 143.981 512.758 143.992Z" fill="black"/>
<path d="M512.757 143.993C512.805 144.004 512.849 144.012 512.898 144.023C512.89 144.025 512.88 144.018 512.872 144.02C512.828 144.012 512.792 144.002 512.757 143.993Z" fill="black"/>
<path d="M513.35 144.072C513.383 144.074 513.417 144.076 513.445 144.075C513.432 144.073 513.417 144.076 513.409 144.077C513.388 144.077 513.368 144.077 513.35 144.072Z" fill="black"/>
<path d="M513.598 144.075C513.581 144.078 513.568 144.077 513.552 144.08C513.544 144.081 513.538 144.078 513.53 144.08C513.555 144.075 513.576 144.075 513.598 144.075Z" fill="black"/>
<path d="M513.824 144.053C513.809 144.056 513.801 144.057 513.785 144.06C513.769 144.063 513.748 144.063 513.732 144.066C513.704 144.067 513.672 144.073 513.646 144.07C513.675 144.069 513.704 144.067 513.735 144.061C513.764 144.06 513.793 144.059 513.824 144.053Z" fill="black"/>
<path d="M514.135 144C514.116 144.004 514.103 144.011 514.084 144.015C514.103 144.011 514.122 144.007 514.135 144Z" fill="black"/>
<path d="M514.262 143.966C514.251 143.973 514.237 143.971 514.226 143.977C514.218 143.979 514.206 143.986 514.193 143.984C514.218 143.979 514.243 143.974 514.262 143.966Z" fill="black"/>
<path d="M514.382 143.927C514.362 143.935 514.342 143.943 514.326 143.946C514.342 143.943 514.362 143.935 514.373 143.929C514.379 143.932 514.382 143.927 514.382 143.927Z" fill="black"/>
<path d="M515.014 143.614C515.008 143.623 515 143.624 514.989 143.63C514.968 143.643 514.944 143.659 514.923 143.671C514.955 143.653 514.982 143.632 515.014 143.614Z" fill="black"/>
<path d="M515.138 143.527C515.126 143.533 515.112 143.545 515.106 143.554L515.102 143.559C515.112 143.545 515.123 143.538 515.138 143.527Z" fill="black"/>
<path d="M479.55 220.172L479.052 220.967C478.542 221.78 477.828 222.396 477.004 222.804C475.856 222.976 474.613 222.786 473.489 222.189C473.442 222.166 473.397 222.138 473.35 222.115C473.269 222.07 473.185 222.018 473.107 221.968L441.959 202.448C441.876 202.396 441.797 202.347 441.717 202.29C441.672 202.262 441.631 202.23 441.595 202.201C441.538 202.159 441.482 202.118 441.429 202.072C440.49 201.331 439.837 200.353 439.508 199.305C439.511 198.383 439.76 197.463 440.269 196.649L440.853 195.718C440.187 196.781 440.098 198.08 440.517 199.247C440.815 200.092 441.376 200.868 442.162 201.449C442.186 201.464 442.213 201.487 442.237 201.502L442.247 201.509L442.257 201.515C442.318 201.559 442.387 201.602 442.456 201.646L473.603 221.166C473.667 221.206 473.736 221.249 473.802 221.284L473.817 221.294L473.827 221.3C473.856 221.318 473.889 221.332 473.918 221.351C475.928 222.414 478.364 221.89 479.55 220.172Z" fill="url(#paint30_linear)"/>
<path d="M523.829 151.451L523.839 151.445C525.286 149.138 524.525 146.016 522.113 144.34L522.103 144.334C522.027 144.28 521.944 144.228 521.865 144.178L490.717 124.66C490.638 124.611 490.554 124.559 490.473 124.514L490.463 124.508C490.352 124.445 490.248 124.392 490.144 124.34C489.064 123.814 487.906 123.652 486.82 123.813C485.991 124.218 485.276 124.845 484.764 125.663L484.18 126.594C484.852 125.522 485.979 124.881 487.207 124.746C488.118 124.646 489.093 124.826 489.984 125.315L490.004 125.328L490.036 125.342C490.1 125.382 490.167 125.417 490.221 125.451L521.37 144.969C521.419 145 521.473 145.034 521.529 145.075L521.568 145.1C523.484 146.433 524.124 148.884 523.063 150.751L523.553 149.969C524.069 149.147 524.317 148.227 524.322 147.312C524.749 148.694 524.617 150.193 523.829 151.451Z" fill="url(#paint31_linear)"/>
<path d="M439.508 199.282C439.08 197.899 439.214 196.401 439.995 195.155L483.32 126.034C484.109 124.775 485.4 124 486.824 123.785C485.996 124.191 485.282 124.819 484.769 125.638L440.275 196.623C439.762 197.441 439.513 198.361 439.508 199.282Z" fill="url(#paint32_linear)"/>
<path d="M523.822 151.451L480.502 220.575C480.234 221.003 479.903 221.378 479.531 221.689C479.231 221.938 478.906 222.152 478.553 222.324C478.482 222.361 478.409 222.391 478.332 222.426C478.227 222.474 478.112 222.516 477.997 222.558C477.674 222.672 477.339 222.759 476.994 222.809C476.997 222.805 477.002 222.808 477.005 222.803C477.827 222.394 478.541 221.778 479.051 220.964L523.539 149.976C524.055 149.153 524.304 148.233 524.311 147.319C524.746 148.693 524.611 150.192 523.822 151.451Z" fill="url(#paint33_linear)"/>
<path d="M507.087 138.014L502.439 135.101C502.35 135.046 502.319 134.931 502.371 134.85L502.488 134.663C502.539 134.581 502.655 134.559 502.744 134.615L507.392 137.528C507.481 137.583 507.512 137.698 507.46 137.78L507.343 137.966C507.292 138.048 507.176 138.07 507.087 138.014Z" fill="url(#paint34_linear)"/>
<path d="M522.272 150.442L478.948 219.561C478.538 220.215 477.915 220.673 477.2 220.909C477.158 220.921 477.124 220.931 477.082 220.943C476.965 220.977 476.846 221.004 476.73 221.026C476.624 221.042 476.518 221.058 476.407 221.071C476.271 221.08 476.135 221.09 475.995 221.084C475.859 221.082 475.722 221.072 475.583 221.054C475.514 221.043 475.446 221.032 475.378 221.021C475.309 221.01 475.239 220.991 475.174 220.975C475.038 220.941 474.9 220.899 474.76 220.849C474.598 220.792 474.439 220.717 474.278 220.636C474.263 220.626 474.246 220.622 474.236 220.615L474.226 220.609L474.216 220.603L474.197 220.591L474.192 220.588C474.177 220.579 474.162 220.569 474.147 220.56C474.133 220.551 474.123 220.545 474.108 220.535C474.079 220.517 474.054 220.502 474.029 220.486L442.88 200.968C442.855 200.952 442.826 200.934 442.801 200.918C442.772 200.9 442.75 200.88 442.721 200.861L442.716 200.858L442.696 200.846L442.686 200.84L442.676 200.834C442.662 200.825 442.655 200.814 442.635 200.801C441.098 199.674 440.627 197.619 441.565 196.123L484.883 127.013C485.837 125.49 487.904 125.032 489.603 125.957L489.632 125.975L489.679 125.998C489.731 126.025 489.775 126.052 489.82 126.08L494.315 128.897C494.562 129.071 494.659 129.385 494.536 129.637C494.524 129.655 494.516 129.669 494.504 129.687L494.499 129.696C494.496 129.7 494.496 129.7 494.493 129.705C494.444 129.794 494.4 129.887 494.36 129.983C494.345 130.017 494.333 130.048 494.326 130.081C494.313 130.124 494.298 130.159 494.285 130.201C494.275 130.239 494.264 130.277 494.257 130.311C494.256 130.323 494.254 130.327 494.253 130.339C494.252 130.352 494.249 130.356 494.248 130.368C494.243 130.377 494.245 130.385 494.242 130.39C494.241 130.402 494.237 130.419 494.232 130.428C494.231 130.44 494.227 130.456 494.222 130.466L494.219 130.47C494.211 130.504 494.209 130.54 494.202 130.574C494.199 130.61 494.192 130.643 494.19 130.68C494.187 130.685 494.184 130.689 494.186 130.697C494.183 130.701 494.183 130.701 494.188 130.704C494.184 130.733 494.184 130.765 494.18 130.794C494.178 130.818 494.174 130.847 494.177 130.875C494.179 130.882 494.179 130.894 494.176 130.899C494.175 130.911 494.174 130.923 494.178 130.939C494.18 130.958 494.176 130.975 494.177 130.995C494.179 131.003 494.176 131.007 494.176 131.007C494.178 131.015 494.181 131.022 494.178 131.027C494.177 131.039 494.176 131.051 494.18 131.066C494.179 131.079 494.184 131.094 494.183 131.106C494.182 131.118 494.181 131.13 494.188 131.141C494.19 131.149 494.187 131.153 494.189 131.161C494.194 131.176 494.193 131.188 494.192 131.2C494.191 131.213 494.193 131.22 494.195 131.228C494.195 131.24 494.199 131.255 494.203 131.271C494.2 131.275 494.205 131.278 494.202 131.283C494.199 131.287 494.204 131.29 494.204 131.29C494.208 131.306 494.205 131.322 494.209 131.338C494.211 131.345 494.208 131.35 494.21 131.357C494.211 131.377 494.215 131.392 494.22 131.408C494.219 131.42 494.223 131.435 494.225 131.443C494.226 131.463 494.232 131.485 494.239 131.508C494.238 131.52 494.245 131.531 494.244 131.543C494.248 131.559 494.247 131.571 494.252 131.586C494.256 131.601 494.26 131.616 494.264 131.632C494.268 131.647 494.272 131.662 494.276 131.677C494.28 131.705 494.291 131.731 494.297 131.754C494.303 131.777 494.307 131.792 494.313 131.815C494.318 131.83 494.32 131.838 494.324 131.853C494.328 131.868 494.33 131.876 494.334 131.891C494.338 131.906 494.347 131.925 494.351 131.94C494.362 131.966 494.371 131.996 494.385 132.018C494.394 132.036 494.398 132.051 494.402 132.066C494.406 132.082 494.413 132.092 494.417 132.108C494.419 132.115 494.424 132.118 494.426 132.126C494.435 132.144 494.444 132.163 494.453 132.181C494.455 132.189 494.462 132.199 494.464 132.207C494.471 132.218 494.476 132.233 494.478 132.24C494.478 132.24 494.478 132.24 494.483 132.244C494.492 132.262 494.501 132.28 494.513 132.294C494.524 132.32 494.538 132.341 494.547 132.36C494.563 132.389 494.579 132.418 494.598 132.442C494.605 132.453 494.611 132.464 494.618 132.474C494.623 132.477 494.621 132.482 494.621 132.482C494.634 132.503 494.644 132.522 494.657 132.543C494.667 132.561 494.678 132.575 494.692 132.597C494.701 132.615 494.713 132.629 494.725 132.643C494.732 132.653 494.734 132.661 494.744 132.667C494.746 132.675 494.756 132.681 494.758 132.688C494.76 132.696 494.77 132.702 494.772 132.71C494.798 132.745 494.822 132.773 494.845 132.8C494.859 132.822 494.871 132.835 494.888 132.852C494.905 132.869 494.917 132.883 494.934 132.9C494.945 132.913 494.952 132.924 494.967 132.933C494.986 132.958 495.013 132.981 495.034 133.001C495.036 133.008 495.046 133.015 495.051 133.018C495.08 133.048 495.111 133.074 495.14 133.105C495.167 133.128 495.188 133.148 495.215 133.171C495.227 133.185 495.242 133.194 495.251 133.2C495.256 133.203 495.261 133.206 495.261 133.206C495.288 133.229 495.315 133.252 495.349 133.274C495.359 133.28 495.364 133.283 495.366 133.291C495.366 133.291 495.371 133.294 495.376 133.297C495.39 133.306 495.402 133.32 495.417 133.329C495.427 133.335 495.432 133.338 495.442 133.345C495.458 133.362 495.478 133.374 495.498 133.386C495.524 133.409 495.554 133.428 495.583 133.446C495.593 133.452 495.603 133.458 495.618 133.468L511.826 143.624C511.836 143.63 511.851 143.639 511.861 143.646C511.89 143.664 511.92 143.683 511.952 143.696C511.972 143.709 511.991 143.721 512.014 143.729C512.023 143.735 512.028 143.738 512.038 143.744C512.053 143.754 512.071 143.758 512.085 143.767C512.09 143.771 512.09 143.771 512.095 143.774C512.105 143.78 512.11 143.783 512.118 143.781C512.15 143.795 512.184 143.817 512.217 143.831C512.222 143.834 512.226 143.837 512.226 143.837C512.241 143.846 512.259 143.851 512.269 143.857C512.301 143.871 512.328 143.882 512.361 143.896C512.401 143.908 512.438 143.925 512.478 143.938C512.483 143.941 512.491 143.939 512.501 143.945C512.528 143.956 512.563 143.966 512.591 143.976C512.608 143.981 512.621 143.983 512.636 143.992C512.658 144 512.676 144.004 512.698 144.012C512.721 144.02 512.746 144.023 512.764 144.028C512.804 144.04 512.842 144.045 512.877 144.055C512.885 144.053 512.895 144.059 512.902 144.058C512.915 144.059 512.92 144.063 512.928 144.061C512.94 144.063 512.945 144.066 512.958 144.067C512.976 144.072 512.996 144.072 513.014 144.077C513.039 144.08 513.057 144.085 513.077 144.085C513.102 144.088 513.123 144.088 513.148 144.092C513.153 144.095 513.153 144.095 513.156 144.09C513.169 144.092 513.181 144.093 513.194 144.095C513.224 144.101 513.257 144.103 513.29 144.105C513.316 144.108 513.341 144.111 513.364 144.107C513.385 144.107 513.402 144.112 513.423 144.112C513.436 144.113 513.451 144.11 513.459 144.109C513.467 144.107 513.479 144.109 513.487 144.108C513.507 144.108 513.528 144.108 513.548 144.108C513.556 144.107 513.561 144.11 513.569 144.108C513.584 144.105 513.597 144.107 513.612 144.104C513.633 144.104 513.648 144.101 513.664 144.098C513.692 144.097 513.72 144.096 513.749 144.094C513.769 144.094 513.785 144.091 513.8 144.089C513.816 144.086 513.828 144.087 513.839 144.081C513.854 144.078 513.862 144.077 513.878 144.074C513.901 144.069 513.921 144.07 513.94 144.062C513.968 144.061 513.994 144.052 514.017 144.047C514.033 144.044 514.048 144.042 514.064 144.039C514.079 144.036 514.095 144.033 514.111 144.03C514.126 144.027 514.142 144.024 514.152 144.018C514.152 144.018 514.152 144.018 514.155 144.013C514.178 144.009 514.202 144.005 514.22 143.997C514.233 143.999 514.243 143.993 514.251 143.991C514.264 143.993 514.274 143.987 514.285 143.981C514.3 143.978 514.319 143.97 514.334 143.967C514.342 143.966 514.35 143.965 514.353 143.96C514.368 143.957 514.387 143.95 514.397 143.944L514.405 143.942C514.408 143.938 514.413 143.941 514.416 143.936C514.431 143.933 514.442 143.927 514.457 143.924C514.465 143.923 514.476 143.917 514.483 143.915C514.499 143.912 514.51 143.906 514.52 143.9C514.528 143.899 514.536 143.897 514.539 143.893C514.549 143.887 514.565 143.884 514.572 143.882C514.588 143.879 514.599 143.873 514.609 143.867C514.62 143.861 514.63 143.855 514.646 143.852C514.654 143.851 514.661 143.85 514.664 143.845C514.672 143.844 514.675 143.839 514.675 143.839C514.693 143.832 514.712 143.824 514.725 143.813C514.736 143.807 514.751 143.805 514.762 143.799C514.773 143.793 514.78 143.791 514.783 143.786C514.804 143.774 514.83 143.766 514.855 143.749C514.884 143.735 514.908 143.719 514.932 143.702C514.935 143.698 514.935 143.698 514.935 143.698C514.942 143.696 514.945 143.692 514.948 143.687C514.98 143.669 515.007 143.648 515.039 143.63C515.07 143.612 515.097 143.591 515.124 143.57L515.127 143.565C515.138 143.559 515.151 143.549 515.157 143.54C515.168 143.534 515.181 143.523 515.187 143.514C515.194 143.512 515.2 143.503 515.203 143.499C515.214 143.493 515.219 143.484 515.227 143.482C515.238 143.476 515.241 143.472 515.251 143.466C515.281 143.44 515.311 143.414 515.338 143.393C515.37 143.363 515.4 143.337 515.428 143.304C515.455 143.283 515.479 143.254 515.501 143.23C515.57 143.153 515.634 143.073 515.693 142.989C515.696 142.985 515.696 142.985 515.699 142.98L515.702 142.976C515.713 142.958 515.722 142.944 515.733 142.926C515.906 142.705 516.231 142.655 516.495 142.802L520.991 145.619C521.035 145.646 521.079 145.674 521.126 145.709L521.14 145.719L521.167 145.742L521.196 145.76C521.226 145.779 521.248 145.799 521.274 145.822C521.289 145.831 521.304 145.84 521.311 145.851C521.337 145.874 521.362 145.889 521.388 145.912C521.42 145.938 521.447 145.961 521.478 145.987L521.483 145.99C521.527 146.03 521.568 146.063 521.606 146.099C521.613 146.11 521.623 146.116 521.628 146.119C521.662 146.153 521.69 146.184 521.724 146.217C521.77 146.265 521.815 146.312 521.858 146.364C521.893 146.406 521.929 146.447 521.96 146.485C521.993 146.531 522.033 146.576 522.066 146.622C522.132 146.713 522.197 146.805 522.257 146.906C522.31 146.996 522.358 147.083 522.403 147.175C522.413 147.193 522.424 147.219 522.433 147.238C522.451 147.274 522.466 147.315 522.484 147.352C522.506 147.404 522.528 147.456 522.546 147.505C522.585 147.605 522.622 147.711 522.651 147.817C522.665 147.871 522.68 147.924 522.689 147.974C522.704 148.028 522.713 148.078 522.72 148.133C522.757 148.346 522.779 148.563 522.78 148.779C522.781 148.887 522.774 148.996 522.765 149.098C522.753 149.205 522.741 149.311 522.716 149.416C522.705 149.466 522.692 149.521 522.681 149.571C522.65 149.685 522.615 149.796 522.575 149.904C522.562 149.946 522.541 149.99 522.523 150.029C522.439 150.154 522.36 150.301 522.272 150.442Z" fill="url(#paint35_linear)"/>
<mask id="mask5" mask-type="alpha" maskUnits="userSpaceOnUse" x="441" y="144" width="87" height="77">
<path d="M441.831 194.529C441.834 194.525 441.837 194.52 441.835 194.512C441.837 194.52 441.834 194.525 441.836 194.532C441.836 194.532 441.836 194.532 441.831 194.529ZM441.859 196.319C441.863 196.322 441.861 196.327 441.866 196.33C441.867 196.35 441.871 196.365 441.869 196.389C441.863 196.366 441.865 196.342 441.859 196.319ZM443.001 198.941C443.017 198.957 443.029 198.971 443.051 198.991C443.053 198.999 443.058 199.002 443.06 199.009C443.041 198.985 443.022 198.96 443.001 198.941ZM476.506 220.378C476.506 220.378 476.51 220.381 476.513 220.377C476.528 220.386 476.548 220.398 476.57 220.406C476.543 220.395 476.528 220.386 476.506 220.378ZM527.77 144.77C527.771 144.757 527.769 144.75 527.765 144.735C527.773 144.765 527.779 144.788 527.793 144.821C527.783 144.803 527.782 144.783 527.77 144.77ZM480.125 220.936C480.148 220.932 480.166 220.925 480.192 220.916C480.208 220.913 480.231 220.908 480.244 220.91C480.207 220.925 480.16 220.934 480.125 220.936Z" fill="url(#paint36_linear)"/>
</mask>
<g mask="url(#mask5)">
<path d="M441.831 194.529C441.834 194.525 441.837 194.52 441.835 194.512C441.837 194.52 441.834 194.525 441.836 194.532C441.836 194.532 441.836 194.532 441.831 194.529ZM441.859 196.319C441.863 196.322 441.861 196.327 441.866 196.33C441.867 196.35 441.871 196.365 441.869 196.389C441.863 196.366 441.865 196.342 441.859 196.319ZM443.001 198.941C443.017 198.957 443.029 198.971 443.051 198.991C443.053 198.999 443.058 199.002 443.06 199.009C443.041 198.985 443.022 198.96 443.001 198.941ZM476.506 220.378C476.506 220.378 476.51 220.381 476.513 220.377C476.528 220.386 476.548 220.398 476.57 220.406C476.543 220.395 476.528 220.386 476.506 220.378ZM527.77 144.77C527.771 144.757 527.769 144.75 527.765 144.735C527.773 144.765 527.779 144.788 527.793 144.821C527.783 144.803 527.782 144.783 527.77 144.77ZM480.125 220.936C480.148 220.932 480.166 220.925 480.192 220.916C480.208 220.913 480.231 220.908 480.244 220.91C480.207 220.925 480.16 220.934 480.125 220.936Z" fill="url(#paint37_linear)"/>
</g>
<mask id="mask6" mask-type="alpha" maskUnits="userSpaceOnUse" x="437" y="141" width="89" height="84">
<path d="M517.03 165.409C517.017 165.376 516.989 165.333 516.95 165.308C516.861 165.253 516.745 165.275 516.693 165.357L524.979 152.138C526.846 149.16 525.752 145.119 522.533 143.103L520.357 141.739L465.386 152.124L438.861 194.441C436.995 197.419 438.089 201.459 441.307 203.476L472.452 222.992C475.67 225.008 479.784 224.231 481.651 221.253L511.127 174.227C511.075 174.309 511.106 174.423 511.195 174.479C511.234 174.503 511.282 174.514 511.324 174.502C511.375 174.497 511.425 174.471 511.451 174.43L517.016 165.552C517.041 165.511 517.047 165.458 517.03 165.409Z" fill="url(#paint38_linear)"/>
</mask>
<g mask="url(#mask6)">
<path opacity="0.2" d="M517.03 165.409C517.017 165.376 516.989 165.333 516.95 165.308C516.861 165.253 516.745 165.275 516.693 165.357L524.979 152.138C526.846 149.16 525.752 145.119 522.533 143.103L520.357 141.739L465.386 152.124L438.861 194.441C436.995 197.419 438.089 201.459 441.307 203.476L472.452 222.992C475.67 225.008 479.784 224.231 481.651 221.253L511.127 174.227C511.075 174.309 511.106 174.423 511.195 174.479C511.234 174.503 511.282 174.514 511.324 174.502C511.375 174.497 511.425 174.471 511.451 174.43L517.016 165.552C517.041 165.511 517.047 165.458 517.03 165.409Z" fill="url(#paint39_linear)"/>
</g>
<path d="M513.247 157.028L483.768 138.553L463.825 170.374L493.305 188.849L513.247 157.028Z" fill="#FFCF4F"/>
<path d="M483.469 197.716L458.901 182.32C457.545 181.47 457.083 179.762 457.869 178.508C458.655 177.254 460.393 176.926 461.749 177.775L486.317 193.172C487.673 194.022 488.136 195.73 487.35 196.984C486.564 198.238 484.826 198.566 483.469 197.716Z" fill="#FFCF4F"/>
<path d="M477.773 206.804L453.205 191.407C451.849 190.557 451.386 188.849 452.172 187.595C452.958 186.341 454.697 186.013 456.053 186.863L480.621 202.26C481.977 203.11 482.44 204.817 481.654 206.071C480.868 207.326 479.129 207.654 477.773 206.804Z" fill="#FFCF4F"/>
</g>
<ellipse cx="441.912" cy="251.448" rx="66.7741" ry="64.4748" fill="#7FFDC0"/>
<ellipse cx="441.914" cy="251.448" rx="37.3935" ry="35.8617" fill="#F26A51"/>
<ellipse cx="441.913" cy="251.448" rx="11.8286" ry="11.5071" fill="#211F1D"/>
<defs>
<linearGradient id="paint0_linear" x1="268.78" y1="344.113" x2="325.848" y2="315.263" gradientUnits="userSpaceOnUse">
<stop stop-color="#808080"/>
<stop offset="0.0504" stop-color="#8A8A8A"/>
<stop offset="0.1361" stop-color="#A5A5A5"/>
<stop offset="0.1607" stop-color="#AEAEAE"/>
<stop offset="0.2758" stop-color="#CACACA"/>
<stop offset="0.3866" stop-color="#E1E1E1"/>
<stop offset="0.6478" stop-color="#DCDEE0"/>
<stop offset="0.7315" stop-color="#CBCCCE"/>
<stop offset="0.8985" stop-color="#9E9F9F"/>
<stop offset="1" stop-color="#808080"/>
</linearGradient>
<linearGradient id="paint1_linear" x1="268.529" y1="343.616" x2="325.472" y2="314.83" gradientUnits="userSpaceOnUse">
<stop stop-color="#808080"/>
<stop offset="0.0504" stop-color="#8A8A8A"/>
<stop offset="0.1361" stop-color="#A5A5A5"/>
<stop offset="0.1607" stop-color="#AEAEAE"/>
<stop offset="0.2758" stop-color="#CACACA"/>
<stop offset="0.3866" stop-color="#E1E1E1"/>
<stop offset="0.6478" stop-color="#DCDEE0"/>
<stop offset="0.7315" stop-color="#CBCCCE"/>
<stop offset="0.8985" stop-color="#9E9F9F"/>
<stop offset="1" stop-color="#808080"/>
</linearGradient>
<linearGradient id="paint2_linear" x1="297.386" y1="329.83" x2="283.629" y2="302.615" gradientUnits="userSpaceOnUse">
<stop stop-color="#C7C7C7"/>
<stop offset="0.1632" stop-color="#AEAEAE"/>
<stop offset="0.1982" stop-color="#979797"/>
<stop offset="0.2386" stop-color="#808080"/>
<stop offset="0.2627" stop-color="#8A8A8A"/>
<stop offset="0.3037" stop-color="#A5A5A5"/>
<stop offset="0.3564" stop-color="#D1D1D1"/>
<stop offset="0.3866" stop-color="#EDEDED"/>
<stop offset="0.6478" stop-color="#DCDEE0"/>
<stop offset="0.7315" stop-color="#CBCCCE"/>
<stop offset="0.8985" stop-color="#9E9F9F"/>
<stop offset="1" stop-color="#808080"/>
</linearGradient>
<linearGradient id="paint3_linear" x1="297.746" y1="330.54" x2="296.884" y2="328.836" gradientUnits="userSpaceOnUse">
<stop stop-color="white"/>
<stop offset="0.0353" stop-color="#E1E1E1"/>
<stop offset="0.0985" stop-color="#B3B3B3"/>
<stop offset="0.1674" stop-color="#888888"/>
<stop offset="0.2405" stop-color="#636363"/>
<stop offset="0.3187" stop-color="#444444"/>
<stop offset="0.4037" stop-color="#2B2B2B"/>
<stop offset="0.4983" stop-color="#181818"/>
<stop offset="0.6076" stop-color="#0A0A0A"/>
<stop offset="0.7449" stop-color="#020202"/>
<stop offset="1"/>
</linearGradient>
<linearGradient id="paint4_linear" x1="297.746" y1="330.54" x2="296.884" y2="328.836" gradientUnits="userSpaceOnUse">
<stop stop-color="#666666"/>
<stop offset="0.0358" stop-color="#787878"/>
<stop offset="0.1188" stop-color="#9C9C9C"/>
<stop offset="0.2095" stop-color="#BBBBBB"/>
<stop offset="0.3081" stop-color="#D4D4D4"/>
<stop offset="0.4178" stop-color="#E7E7E7"/>
<stop offset="0.5447" stop-color="#F5F5F5"/>
<stop offset="0.704" stop-color="#FDFDFD"/>
<stop offset="1" stop-color="white"/>
</linearGradient>
<linearGradient id="paint5_linear" x1="185.35" y1="343.323" x2="374.675" y2="247.614" gradientUnits="userSpaceOnUse">
<stop stop-color="#A2A4A8"/>
<stop offset="0.084" stop-color="#B1B3B7"/>
<stop offset="0.2266" stop-color="#C4C6C9"/>
<stop offset="0.393" stop-color="#D2D4D6"/>
<stop offset="0.6031" stop-color="#DADCDE"/>
<stop offset="1" stop-color="#DCDEE0"/>
</linearGradient>
<linearGradient id="paint6_linear" x1="284.411" y1="304.168" x2="283.639" y2="302.642" gradientUnits="userSpaceOnUse">
<stop stop-color="#1A1A1A"/>
<stop offset="0.5583" stop-color="#0D0D0D"/>
<stop offset="1"/>
</linearGradient>
<linearGradient id="paint7_linear" x1="284.411" y1="304.168" x2="283.639" y2="302.642" gradientUnits="userSpaceOnUse">
<stop/>
<stop offset="0.0886" stop-color="#0C0C0C"/>
<stop offset="0.2503" stop-color="#2D2D2D"/>
<stop offset="0.4673" stop-color="#636363"/>
<stop offset="0.7313" stop-color="#ADADAD"/>
<stop offset="1" stop-color="white"/>
</linearGradient>
<linearGradient id="paint8_linear" x1="144.63" y1="200.41" x2="353.598" y2="269.414" gradientUnits="userSpaceOnUse">
<stop stop-color="#F2F3F4"/>
<stop offset="0.3559" stop-color="#EDEEEF"/>
<stop offset="0.7827" stop-color="#DFE0E0"/>
<stop offset="1" stop-color="#D5D6D6"/>
</linearGradient>
<linearGradient id="paint9_linear" x1="294.394" y1="277.264" x2="237.354" y2="164.431" gradientUnits="userSpaceOnUse">
<stop/>
<stop offset="0.3726" stop-color="#020202"/>
<stop offset="0.5069" stop-color="#090909"/>
<stop offset="0.6026" stop-color="#141414"/>
<stop offset="0.68" stop-color="#252525"/>
<stop offset="0.7463" stop-color="#3B3B3B"/>
<stop offset="0.805" stop-color="#575757"/>
<stop offset="0.8581" stop-color="#777777"/>
<stop offset="0.9069" stop-color="#9D9D9D"/>
<stop offset="0.9523" stop-color="#C8C8C8"/>
<stop offset="0.9926" stop-color="#F6F6F6"/>
<stop offset="1" stop-color="white"/>
</linearGradient>
<linearGradient id="paint10_linear" x1="294.394" y1="277.264" x2="237.354" y2="164.431" gradientUnits="userSpaceOnUse">
<stop stop-color="#EDEDED"/>
<stop offset="0.6347" stop-color="#EFEFEF"/>
<stop offset="0.8631" stop-color="#F6F6F6"/>
<stop offset="1" stop-color="white"/>
</linearGradient>
<linearGradient id="paint11_linear" x1="570.234" y1="345.604" x2="605.144" y2="245.553" gradientUnits="userSpaceOnUse">
<stop stop-color="#9A9A9A"/>
<stop offset="0.0936" stop-color="#A2A2A2"/>
<stop offset="0.2383" stop-color="#B8B8B8"/>
<stop offset="0.415" stop-color="#DBDBDB"/>
<stop offset="0.447" stop-color="#E2E2E2"/>
<stop offset="1" stop-color="#C5C5C5"/>
</linearGradient>
<linearGradient id="paint12_linear" x1="603.559" y1="250.117" x2="605.378" y2="244.902" gradientUnits="userSpaceOnUse">
<stop stop-color="#404040"/>
<stop offset="0.2805" stop-color="#434343"/>
<stop offset="0.4483" stop-color="#4B4B4B"/>
<stop offset="0.5865" stop-color="#595959"/>
<stop offset="0.7086" stop-color="#6D6D6D"/>
<stop offset="0.8201" stop-color="#888888"/>
<stop offset="0.9223" stop-color="#A7A7A7"/>
<stop offset="1" stop-color="#C5C5C5"/>
</linearGradient>
<linearGradient id="paint13_linear" x1="475.09" y1="314.437" x2="568.838" y2="347.153" gradientUnits="userSpaceOnUse">
<stop stop-color="#929292"/>
<stop offset="0.0139" stop-color="#C1C1C1"/>
<stop offset="0.0271" stop-color="#B2B2B2"/>
<stop offset="0.0487" stop-color="#9C9C9C"/>
<stop offset="0.0715" stop-color="#A4A4A4"/>
<stop offset="0.0909" stop-color="#AFAFAF"/>
<stop offset="1" stop-color="#CFCFCF"/>
</linearGradient>
<linearGradient id="paint14_linear" x1="475.609" y1="312.948" x2="663.107" y2="378.38" gradientUnits="userSpaceOnUse">
<stop offset="0.00545697" stop-color="#F8F8F8"/>
<stop offset="0.0639" stop-color="#D0D0D0"/>
<stop offset="0.5025" stop-color="#F8F8F8"/>
<stop offset="0.8664" stop-color="#D0D0D0"/>
<stop offset="0.8755" stop-color="#D3D3D3"/>
<stop offset="0.9512" stop-color="#E9E9E9"/>
<stop offset="1" stop-color="#F1F1F1"/>
</linearGradient>
<linearGradient id="paint15_linear" x1="568.84" y1="347.148" x2="662.588" y2="379.864" gradientUnits="userSpaceOnUse">
<stop stop-color="#CFCFCF"/>
<stop offset="0.9091" stop-color="#AFAFAF"/>
<stop offset="0.9285" stop-color="#A4A4A4"/>
<stop offset="0.9513" stop-color="#9C9C9C"/>
<stop offset="0.9729" stop-color="#B2B2B2"/>
<stop offset="0.9861" stop-color="#C1C1C1"/>
<stop offset="1" stop-color="#929292"/>
</linearGradient>
<linearGradient id="paint16_linear" x1="475.118" y1="314.355" x2="568.867" y2="347.071" gradientUnits="userSpaceOnUse">
<stop stop-color="#666666"/>
<stop offset="0.0139" stop-color="#D5D5D5"/>
<stop offset="0.0213" stop-color="#BDBDBD"/>
<stop offset="0.0397" stop-color="#868686"/>
<stop offset="0.0487" stop-color="#707070"/>
<stop offset="0.0572" stop-color="#787878"/>
<stop offset="0.0705" stop-color="#8E8E8E"/>
<stop offset="0.0867" stop-color="#B2B2B2"/>
<stop offset="0.0909" stop-color="#BCBCBC"/>
<stop offset="1" stop-color="#F1F1F1"/>
</linearGradient>
<linearGradient id="paint17_linear" x1="568.869" y1="347.064" x2="662.618" y2="379.78" gradientUnits="userSpaceOnUse">
<stop stop-color="#F1F1F1"/>
<stop offset="0.9091" stop-color="#BCBCBC"/>
<stop offset="0.9133" stop-color="#B2B2B2"/>
<stop offset="0.9295" stop-color="#8E8E8E"/>
<stop offset="0.9428" stop-color="#787878"/>
<stop offset="0.9513" stop-color="#707070"/>
<stop offset="0.9603" stop-color="#868686"/>
<stop offset="0.9787" stop-color="#BDBDBD"/>
<stop offset="0.9861" stop-color="#D5D5D5"/>
<stop offset="1" stop-color="#666666"/>
</linearGradient>
<linearGradient id="paint18_linear" x1="555.661" y1="342.02" x2="582.348" y2="351.333" gradientUnits="userSpaceOnUse">
<stop stop-color="#9F9F9F"/>
<stop offset="0.0395" stop-color="#ACACAC"/>
<stop offset="0.514" stop-color="#E5E5E5"/>
<stop offset="0.9628" stop-color="#ACACAC"/>
<stop offset="1" stop-color="#9F9F9F"/>
</linearGradient>
<linearGradient id="paint19_linear" x1="555.527" y1="342.064" x2="582.425" y2="351.45" gradientUnits="userSpaceOnUse">
<stop offset="0.00041222" stop-color="#CCCCCC"/>
<stop offset="0.5247" stop-color="#B3B3B3"/>
<stop offset="0.7671" stop-color="#B5B5B5"/>
<stop offset="0.891" stop-color="#BDBDBD"/>
<stop offset="0.988" stop-color="#CACACA"/>
<stop offset="1" stop-color="#CCCCCC"/>
</linearGradient>
<linearGradient id="paint20_linear" x1="555.527" y1="342.064" x2="582.425" y2="351.45" gradientUnits="userSpaceOnUse">
<stop offset="0.00041222" stop-color="#F7F7F7"/>
<stop offset="0.5247" stop-color="#F8F8F8"/>
<stop offset="1" stop-color="#F7F7F7"/>
</linearGradient>
<linearGradient id="paint21_linear" x1="567.472" y1="351.067" x2="568.342" y2="348.574" gradientUnits="userSpaceOnUse">
<stop stop-color="#575757"/>
<stop offset="0.7389" stop-color="#B9B9B9"/>
<stop offset="0.8472" stop-color="#B6B6B6"/>
<stop offset="0.9363" stop-color="#ACACAC"/>
<stop offset="1" stop-color="#9F9F9F"/>
</linearGradient>
<linearGradient id="paint22_linear" x1="549.528" y1="217.102" x2="625.642" y2="374.762" gradientUnits="userSpaceOnUse">
<stop stop-color="#F2F3F4"/>
<stop offset="0.3559" stop-color="#EDEEEF"/>
<stop offset="0.7827" stop-color="#DFE0E0"/>
<stop offset="1" stop-color="#D5D6D6"/>
</linearGradient>
<linearGradient id="paint23_linear" x1="584.463" y1="350.844" x2="619.686" y2="249.895" gradientUnits="userSpaceOnUse">
<stop/>
<stop offset="0.2797" stop-color="#020202"/>
<stop offset="0.4173" stop-color="#0A0A0A"/>
<stop offset="0.524" stop-color="#171717"/>
<stop offset="0.6147" stop-color="#2A2A2A"/>
<stop offset="0.6953" stop-color="#424242"/>
<stop offset="0.7688" stop-color="#606060"/>
<stop offset="0.8368" stop-color="#838383"/>
<stop offset="0.9006" stop-color="#ADADAD"/>
<stop offset="0.9586" stop-color="#DADADA"/>
<stop offset="1" stop-color="white"/>
</linearGradient>
<linearGradient id="paint24_linear" x1="584.463" y1="350.844" x2="619.686" y2="249.895" gradientUnits="userSpaceOnUse">
<stop stop-color="white"/>
<stop offset="0.8533" stop-color="white"/>
<stop offset="1" stop-color="white"/>
</linearGradient>
<linearGradient id="paint25_linear" x1="460.694" y1="159.977" x2="461.321" y2="160.37" gradientUnits="userSpaceOnUse">
<stop stop-color="#666666"/>
<stop offset="0.0575" stop-color="#727272"/>
<stop offset="0.3311" stop-color="#A8A8A8"/>
<stop offset="0.5675" stop-color="#D0D0D0"/>
<stop offset="0.7551" stop-color="#E8E8E8"/>
<stop offset="0.8704" stop-color="#F1F1F1"/>
<stop offset="0.9471" stop-color="#F7F7F7"/>
<stop offset="1" stop-color="white"/>
</linearGradient>
<linearGradient id="paint26_linear" x1="502.629" y1="186.26" x2="503.25" y2="186.649" gradientUnits="userSpaceOnUse">
<stop stop-color="white"/>
<stop offset="0.0529" stop-color="#F7F7F7"/>
<stop offset="0.1296" stop-color="#F1F1F1"/>
<stop offset="0.2449" stop-color="#E8E8E8"/>
<stop offset="0.4325" stop-color="#D0D0D0"/>
<stop offset="0.6689" stop-color="#A8A8A8"/>
<stop offset="0.9425" stop-color="#727272"/>
<stop offset="1" stop-color="#666666"/>
</linearGradient>
<linearGradient id="paint27_linear" x1="456.978" y1="213.086" x2="459.855" y2="208.495" gradientUnits="userSpaceOnUse">
<stop stop-color="#F1F1F1"/>
<stop offset="0.1164" stop-color="#E3E3E3"/>
<stop offset="0.3358" stop-color="#BFBFBF"/>
<stop offset="0.6347" stop-color="#848484"/>
<stop offset="1" stop-color="#333333"/>
</linearGradient>
<linearGradient id="paint28_linear" x1="504.118" y1="137.882" x2="507.711" y2="132.149" gradientUnits="userSpaceOnUse">
<stop stop-color="#333333"/>
<stop offset="0.0736" stop-color="#4C4C4C"/>
<stop offset="0.2508" stop-color="#828282"/>
<stop offset="0.4239" stop-color="#AFAFAF"/>
<stop offset="0.5891" stop-color="#D2D2D2"/>
<stop offset="0.7442" stop-color="#EBEBEB"/>
<stop offset="0.8854" stop-color="#FAFAFA"/>
<stop offset="1" stop-color="white"/>
</linearGradient>
<linearGradient id="paint29_linear" x1="500.662" y1="185.063" x2="502.167" y2="186.006" gradientUnits="userSpaceOnUse">
<stop stop-color="#F1F1F1"/>
<stop offset="0.00119236" stop-color="#F0F0F0"/>
<stop offset="0.1385" stop-color="#B7B7B7"/>
<stop offset="0.2715" stop-color="#888888"/>
<stop offset="0.397" stop-color="#636363"/>
<stop offset="0.5134" stop-color="#494949"/>
<stop offset="0.6172" stop-color="#393939"/>
<stop offset="0.6978" stop-color="#333333"/>
</linearGradient>
<linearGradient id="paint30_linear" x1="439.492" y1="197.886" x2="478.282" y2="222.196" gradientUnits="userSpaceOnUse">
<stop/>
<stop offset="0.1045" stop-color="#141414"/>
<stop offset="0.2593" stop-color="#2C2C2C"/>
<stop offset="0.4027" stop-color="#3B3B3B"/>
<stop offset="0.5229" stop-color="#404040"/>
<stop offset="0.6306" stop-color="#393939"/>
<stop offset="0.7927" stop-color="#242424"/>
<stop offset="0.9882" stop-color="#020202"/>
<stop offset="1"/>
</linearGradient>
<linearGradient id="paint31_linear" x1="485.532" y1="124.432" x2="525.188" y2="149.289" gradientUnits="userSpaceOnUse">
<stop/>
<stop offset="0.1045" stop-color="#141414"/>
<stop offset="0.2593" stop-color="#2C2C2C"/>
<stop offset="0.4027" stop-color="#3B3B3B"/>
<stop offset="0.5229" stop-color="#404040"/>
<stop offset="0.6306" stop-color="#393939"/>
<stop offset="0.7927" stop-color="#242424"/>
<stop offset="0.9882" stop-color="#020202"/>
<stop offset="1"/>
</linearGradient>
<linearGradient id="paint32_linear" x1="461.661" y1="160.591" x2="462.554" y2="161.151" gradientUnits="userSpaceOnUse">
<stop stop-color="#404040"/>
<stop offset="0.644" stop-color="#1A1A1A"/>
<stop offset="1" stop-color="#0A0A0A"/>
</linearGradient>
<linearGradient id="paint33_linear" x1="500.655" y1="185.064" x2="502.164" y2="186.01" gradientUnits="userSpaceOnUse">
<stop stop-color="#0A0A0A"/>
<stop offset="0.356" stop-color="#1A1A1A"/>
<stop offset="1" stop-color="#404040"/>
</linearGradient>
<linearGradient id="paint34_linear" x1="502.431" y1="134.757" x2="507.402" y2="137.872" gradientUnits="userSpaceOnUse">
<stop stop-color="#333333"/>
<stop offset="0.0901" stop-color="#2B2B2B"/>
<stop offset="0.2885" stop-color="#1E1E1E"/>
<stop offset="0.4787" stop-color="#1A1A1A"/>
<stop offset="0.7885" stop-color="#1C1C1C"/>
<stop offset="0.8999" stop-color="#232323"/>
<stop offset="0.9792" stop-color="#2E2E2E"/>
<stop offset="1" stop-color="#333333"/>
</linearGradient>
<linearGradient id="paint35_linear" x1="469.879" y1="128.799" x2="486.946" y2="219.099" gradientUnits="userSpaceOnUse">
<stop stop-color="#F2F3F4"/>
<stop offset="0.3559" stop-color="#EDEEEF"/>
<stop offset="0.7827" stop-color="#DFE0E0"/>
<stop offset="1" stop-color="#D5D6D6"/>
</linearGradient>
<linearGradient id="paint36_linear" x1="459.701" y1="209.849" x2="508.188" y2="132.468" gradientUnits="userSpaceOnUse">
<stop/>
<stop offset="0.292" stop-color="#020202"/>
<stop offset="0.4296" stop-color="#0A0A0A"/>
<stop offset="0.5348" stop-color="#171717"/>
<stop offset="0.6238" stop-color="#292929"/>
<stop offset="0.7023" stop-color="#414141"/>
<stop offset="0.7735" stop-color="#5E5E5E"/>
<stop offset="0.8392" stop-color="#818181"/>
<stop offset="0.9007" stop-color="#AAAAAA"/>
<stop offset="0.9565" stop-color="#D7D7D7"/>
<stop offset="1" stop-color="white"/>
</linearGradient>
<linearGradient id="paint37_linear" x1="459.701" y1="209.849" x2="508.188" y2="132.468" gradientUnits="userSpaceOnUse">
<stop stop-color="white"/>
<stop offset="0.8529" stop-color="white"/>
<stop offset="1" stop-color="white"/>
</linearGradient>
<linearGradient id="paint38_linear" x1="457.042" y1="213.336" x2="507.107" y2="133.438" gradientUnits="userSpaceOnUse">
<stop offset="0.198"/>
<stop offset="0.4968" stop-color="#020202"/>
<stop offset="0.6045" stop-color="#090909"/>
<stop offset="0.6813" stop-color="#141414"/>
<stop offset="0.7433" stop-color="#252525"/>
<stop offset="0.7965" stop-color="#3B3B3B"/>
<stop offset="0.8436" stop-color="#575757"/>
<stop offset="0.8862" stop-color="#777777"/>
<stop offset="0.9253" stop-color="#9D9D9D"/>
<stop offset="0.9618" stop-color="#C8C8C8"/>
<stop offset="0.9941" stop-color="#F6F6F6"/>
<stop offset="1" stop-color="white"/>
</linearGradient>
<linearGradient id="paint39_linear" x1="457.042" y1="213.336" x2="507.107" y2="133.438" gradientUnits="userSpaceOnUse">
<stop offset="0.198" stop-color="white"/>
<stop offset="0.8866" stop-color="white"/>
<stop offset="1" stop-color="white"/>
</linearGradient>
<clipPath id="clip0">
<rect width="212.144" height="175.499" fill="white" transform="matrix(0.892472 -0.451103 0.451214 0.892416 123.893 221.774)"/>
</clipPath>
<clipPath id="clip1">
<rect width="198.584" height="112.731" fill="white" transform="matrix(0.944176 0.329441 -0.329531 0.944145 510.869 211.926)"/>
</clipPath>
<clipPath id="clip2">
<rect width="50.8848" height="95.6875" fill="white" transform="matrix(0.847385 0.530979 -0.531096 0.847311 486.302 118.754)"/>
</clipPath>
</defs>
</svg>
