<svg width="348" height="524" viewBox="0 0 348 524" fill="none" xmlns="http://www.w3.org/2000/svg">
<path d="M300.401 419.68C300.401 417.769 299.921 415.92 299 414.333L298.782 413.958H285.115L284.901 414.333C283.982 415.918 283.5 417.769 283.5 419.68C283.5 424.555 286.656 428.594 290.752 429.263V440.647C288.389 440.741 286.629 441.094 286.629 441.512C286.629 442.009 289.028 442.406 291.989 442.406C294.952 442.406 297.356 442.009 297.356 441.512C297.356 441.094 295.596 440.741 293.233 440.647V429.254C297.288 428.543 300.401 424.52 300.401 419.68ZM291.948 427.875C288.123 427.875 285.008 424.2 285.008 419.676C285.008 418.169 285.351 416.714 286.008 415.437H297.891C298.545 416.714 298.893 418.171 298.893 419.676C298.896 424.202 295.776 427.875 291.948 427.875ZM314.871 401.411H308.861V396.288H314.871V401.411ZM314.871 407.759V402.987H308.861V407.761C306.323 408.886 304.549 411.394 304.549 414.313V418.992V433.908V442.672H319.181V433.908V418.992V414.313C319.183 411.394 317.414 408.886 314.871 407.759ZM317.889 435.441H305.97V421.386H317.889V435.441ZM298.263 419.834C298.263 419.834 297.947 427.267 292.051 427.267C286.154 427.267 285.358 419.834 285.358 419.834H298.263Z" fill="#211F1D"/>
<path d="M282.63 497.59C283.293 497.749 283.792 498.034 284.128 498.444C284.473 498.846 284.646 499.364 284.646 499.998C284.646 500.848 284.333 501.506 283.708 501.972C283.092 502.439 282.191 502.672 281.006 502.672H276.526V492.872H280.74C281.813 492.872 282.649 493.092 283.246 493.53C283.853 493.96 284.156 494.58 284.156 495.392C284.156 495.924 284.021 496.377 283.75 496.75C283.489 497.124 283.115 497.404 282.63 497.59ZM277.912 497.184H280.642C281.323 497.184 281.841 497.049 282.196 496.778C282.56 496.508 282.742 496.111 282.742 495.588C282.742 495.066 282.56 494.669 282.196 494.398C281.832 494.118 281.314 493.978 280.642 493.978H277.912V497.184ZM280.978 501.566C282.481 501.566 283.232 501.006 283.232 499.886C283.232 499.326 283.041 498.916 282.658 498.654C282.285 498.384 281.725 498.248 280.978 498.248H277.912V501.566H280.978ZM290.107 497.772C291.04 497.782 291.754 497.996 292.249 498.416C292.744 498.836 292.991 499.429 292.991 500.194C292.991 500.997 292.72 501.618 292.179 502.056C291.647 502.486 290.882 502.696 289.883 502.686L286.761 502.672V495.252H288.105V497.758L290.107 497.772ZM294.097 495.252H295.441V502.672H294.097V495.252ZM289.785 501.664C290.392 501.674 290.849 501.552 291.157 501.3C291.474 501.048 291.633 500.675 291.633 500.18C291.633 499.695 291.479 499.34 291.171 499.116C290.863 498.892 290.401 498.776 289.785 498.766L288.105 498.738V501.65L289.785 501.664ZM304.928 495.252V502.672H303.584V496.428H299.398V502.672H298.054V495.252H304.928ZM314.151 495.252L310.553 503.414C310.235 504.17 309.862 504.702 309.433 505.01C309.013 505.318 308.504 505.472 307.907 505.472C307.543 505.472 307.188 505.412 306.843 505.29C306.507 505.178 306.227 505.01 306.003 504.786L306.577 503.778C306.959 504.142 307.403 504.324 307.907 504.324C308.233 504.324 308.504 504.236 308.719 504.058C308.943 503.89 309.143 503.596 309.321 503.176L309.559 502.658L306.283 495.252H307.683L310.273 501.188L312.835 495.252H314.151ZM318.556 502.756C317.8 502.756 317.123 502.593 316.526 502.266C315.938 501.94 315.476 501.492 315.14 500.922C314.804 500.344 314.636 499.69 314.636 498.962C314.636 498.234 314.804 497.586 315.14 497.016C315.476 496.438 315.938 495.99 316.526 495.672C317.123 495.346 317.8 495.182 318.556 495.182C319.228 495.182 319.825 495.318 320.348 495.588C320.88 495.859 321.29 496.251 321.58 496.764L320.558 497.422C320.324 497.068 320.035 496.802 319.69 496.624C319.344 496.447 318.962 496.358 318.542 496.358C318.056 496.358 317.618 496.466 317.226 496.68C316.843 496.895 316.54 497.203 316.316 497.604C316.101 497.996 315.994 498.449 315.994 498.962C315.994 499.485 316.101 499.947 316.316 500.348C316.54 500.74 316.843 501.044 317.226 501.258C317.618 501.473 318.056 501.58 318.542 501.58C318.962 501.58 319.344 501.492 319.69 501.314C320.035 501.137 320.324 500.871 320.558 500.516L321.58 501.16C321.29 501.674 320.88 502.07 320.348 502.35C319.825 502.621 319.228 502.756 318.556 502.756ZM326.204 499.536H324.664V502.672H323.32V495.252H324.664V498.388H326.232L328.64 495.252H330.082L327.268 498.822L330.278 502.672H328.696L326.204 499.536ZM280.736 512.252V519.672H279.392V513.428H275.206V519.672H273.862V512.252H280.736ZM287.27 512.182C287.989 512.182 288.633 512.341 289.202 512.658C289.772 512.976 290.215 513.419 290.532 513.988C290.859 514.558 291.022 515.216 291.022 515.962C291.022 516.709 290.859 517.372 290.532 517.95C290.215 518.52 289.772 518.963 289.202 519.28C288.633 519.598 287.989 519.756 287.27 519.756C286.738 519.756 286.248 519.654 285.8 519.448C285.362 519.243 284.988 518.944 284.68 518.552V522.388H283.336V512.252H284.624V513.428C284.923 513.018 285.301 512.71 285.758 512.504C286.216 512.29 286.72 512.182 287.27 512.182ZM287.158 518.58C287.634 518.58 288.059 518.473 288.432 518.258C288.815 518.034 289.114 517.726 289.328 517.334C289.552 516.933 289.664 516.476 289.664 515.962C289.664 515.449 289.552 514.996 289.328 514.604C289.114 514.203 288.815 513.895 288.432 513.68C288.059 513.466 287.634 513.358 287.158 513.358C286.692 513.358 286.267 513.47 285.884 513.694C285.511 513.909 285.212 514.212 284.988 514.604C284.774 514.996 284.666 515.449 284.666 515.962C284.666 516.476 284.774 516.933 284.988 517.334C285.203 517.726 285.502 518.034 285.884 518.258C286.267 518.473 286.692 518.58 287.158 518.58ZM296.153 519.756C295.416 519.756 294.753 519.593 294.165 519.266C293.577 518.94 293.115 518.492 292.779 517.922C292.452 517.344 292.289 516.69 292.289 515.962C292.289 515.234 292.452 514.586 292.779 514.016C293.115 513.438 293.577 512.99 294.165 512.672C294.753 512.346 295.416 512.182 296.153 512.182C296.89 512.182 297.548 512.346 298.127 512.672C298.715 512.99 299.172 513.438 299.499 514.016C299.835 514.586 300.003 515.234 300.003 515.962C300.003 516.69 299.835 517.344 299.499 517.922C299.172 518.492 298.715 518.94 298.127 519.266C297.548 519.593 296.89 519.756 296.153 519.756ZM296.153 518.58C296.629 518.58 297.054 518.473 297.427 518.258C297.81 518.034 298.108 517.726 298.323 517.334C298.538 516.933 298.645 516.476 298.645 515.962C298.645 515.449 298.538 514.996 298.323 514.604C298.108 514.203 297.81 513.895 297.427 513.68C297.054 513.466 296.629 513.358 296.153 513.358C295.677 513.358 295.248 513.466 294.865 513.68C294.492 513.895 294.193 514.203 293.969 514.604C293.754 514.996 293.647 515.449 293.647 515.962C293.647 516.476 293.754 516.933 293.969 517.334C294.193 517.726 294.492 518.034 294.865 518.258C295.248 518.473 295.677 518.58 296.153 518.58ZM308.65 516.004C308.65 516.107 308.64 516.242 308.622 516.41H302.602C302.686 517.064 302.97 517.591 303.456 517.992C303.95 518.384 304.562 518.58 305.29 518.58C306.176 518.58 306.89 518.282 307.432 517.684L308.174 518.552C307.838 518.944 307.418 519.243 306.914 519.448C306.419 519.654 305.864 519.756 305.248 519.756C304.464 519.756 303.768 519.598 303.162 519.28C302.555 518.954 302.084 518.501 301.748 517.922C301.421 517.344 301.258 516.69 301.258 515.962C301.258 515.244 301.416 514.595 301.734 514.016C302.06 513.438 302.504 512.99 303.064 512.672C303.633 512.346 304.272 512.182 304.982 512.182C305.691 512.182 306.321 512.346 306.872 512.672C307.432 512.99 307.866 513.438 308.174 514.016C308.491 514.595 308.65 515.258 308.65 516.004ZM304.982 513.316C304.338 513.316 303.796 513.512 303.358 513.904C302.928 514.296 302.676 514.81 302.602 515.444H307.362C307.287 514.819 307.03 514.31 306.592 513.918C306.162 513.517 305.626 513.316 304.982 513.316ZM313.619 516.536H312.079V519.672H310.735V512.252H312.079V515.388H313.647L316.055 512.252H317.497L314.683 515.822L317.693 519.672H316.111L313.619 516.536ZM324.509 513.428H321.793V519.672H320.449V513.428H317.733V512.252H324.509V513.428ZM328.529 512.182C329.556 512.182 330.34 512.434 330.881 512.938C331.432 513.442 331.707 514.194 331.707 515.192V519.672H330.433V518.692C330.209 519.038 329.887 519.304 329.467 519.49C329.056 519.668 328.566 519.756 327.997 519.756C327.166 519.756 326.499 519.556 325.995 519.154C325.5 518.753 325.253 518.226 325.253 517.572C325.253 516.919 325.491 516.396 325.967 516.004C326.443 515.603 327.199 515.402 328.235 515.402H330.363V515.136C330.363 514.558 330.195 514.114 329.859 513.806C329.523 513.498 329.028 513.344 328.375 513.344C327.936 513.344 327.507 513.419 327.087 513.568C326.667 513.708 326.312 513.9 326.023 514.142L325.463 513.134C325.846 512.826 326.303 512.593 326.835 512.434C327.367 512.266 327.932 512.182 328.529 512.182ZM328.221 518.72C328.734 518.72 329.178 518.608 329.551 518.384C329.924 518.151 330.195 517.824 330.363 517.404V516.368H328.291C327.152 516.368 326.583 516.751 326.583 517.516C326.583 517.89 326.728 518.184 327.017 518.398C327.306 518.613 327.708 518.72 328.221 518.72Z" fill="black"/>
<circle cx="302.064" cy="468.672" r="20" fill="#F26A51"/>
<ellipse cx="302.064" cy="468.672" rx="7.83978" ry="7.89871" fill="#211F1D"/>
<rect x="64" y="466.672" width="220" height="4" fill="url(#paint0_linear)"/>
<path d="M7.65963 507.003C6.6703 507.003 5.77897 506.788 4.98563 506.359C4.1923 505.92 3.56697 505.318 3.10963 504.553C2.66163 503.787 2.43763 502.933 2.43763 501.991C2.43763 501.048 2.66163 500.194 3.10963 499.429C3.56697 498.663 4.1923 498.066 4.98563 497.637C5.77897 497.198 6.6703 496.979 7.65963 496.979C8.63963 496.979 9.5263 497.198 10.3196 497.637C11.113 498.066 11.7336 498.663 12.1816 499.429C12.6296 500.185 12.8536 501.039 12.8536 501.991C12.8536 502.943 12.6296 503.801 12.1816 504.567C11.7336 505.323 11.113 505.92 10.3196 506.359C9.5263 506.788 8.63963 507.003 7.65963 507.003ZM7.65963 505.757C8.3783 505.757 9.0223 505.593 9.59163 505.267C10.1703 504.94 10.623 504.492 10.9496 503.923C11.2856 503.344 11.4536 502.7 11.4536 501.991C11.4536 501.281 11.2856 500.642 10.9496 500.073C10.623 499.494 10.1703 499.041 9.59163 498.715C9.0223 498.388 8.3783 498.225 7.65963 498.225C6.94097 498.225 6.28763 498.388 5.69963 498.715C5.12097 499.041 4.66363 499.494 4.32763 500.073C4.00097 500.642 3.83763 501.281 3.83763 501.991C3.83763 502.7 4.00097 503.344 4.32763 503.923C4.66363 504.492 5.12097 504.94 5.69963 505.267C6.28763 505.593 6.94097 505.757 7.65963 505.757ZM21.7668 499.471V506.891H20.4228V500.647H16.2368V506.891H14.8928V499.471H21.7668ZM29.8974 500.647H27.1814V506.891H25.8374V500.647H23.1214V499.471H29.8974V500.647ZM31.2717 499.471H32.6157V504.875L37.1657 499.471H38.3837V506.891H37.0397V501.487L32.5037 506.891H31.2717V499.471ZM49.5464 499.471V506.891H48.3284V501.473L45.5564 506.051H44.9684L42.2244 501.459V506.891H40.9924V499.471H42.3784L45.2904 504.483L48.2864 499.471H49.5464ZM52.1624 499.471H53.5064V504.875L58.0564 499.471H59.2744V506.891H57.9304V501.487L53.3944 506.891H52.1624V499.471ZM65.778 503.027C66.2727 503.157 66.6553 503.367 66.926 503.657C67.1967 503.946 67.332 504.305 67.332 504.735C67.332 505.173 67.1827 505.565 66.884 505.911C66.5853 506.247 66.17 506.513 65.638 506.709C65.1153 506.895 64.5273 506.989 63.874 506.989C63.3233 506.989 62.782 506.919 62.25 506.779C61.7273 506.629 61.2607 506.419 60.85 506.149L61.256 505.127C61.6107 505.351 62.0167 505.528 62.474 505.659C62.9313 505.78 63.3933 505.841 63.86 505.841C64.4947 505.841 64.9987 505.733 65.372 505.519C65.7547 505.295 65.946 504.996 65.946 504.623C65.946 504.277 65.792 504.011 65.484 503.825C65.1853 503.638 64.7607 503.545 64.21 503.545H62.852V502.579H64.112C64.616 502.579 65.0127 502.49 65.302 502.313C65.5913 502.135 65.736 501.893 65.736 501.585C65.736 501.249 65.5633 500.987 65.218 500.801C64.882 500.614 64.4247 500.521 63.846 500.521C63.1087 500.521 62.3293 500.712 61.508 501.095L61.144 500.059C62.0493 499.601 62.9967 499.373 63.986 499.373C64.5833 499.373 65.12 499.457 65.596 499.625C66.072 499.793 66.4453 500.031 66.716 500.339C66.9867 500.647 67.122 500.997 67.122 501.389C67.122 501.753 67.0007 502.079 66.758 502.369C66.5153 502.658 66.1887 502.877 65.778 503.027ZM72.0212 499.401C73.0479 499.401 73.8319 499.653 74.3732 500.157C74.9239 500.661 75.1992 501.412 75.1992 502.411V506.891H73.9252V505.911C73.7012 506.256 73.3792 506.522 72.9592 506.709C72.5486 506.886 72.0586 506.975 71.4892 506.975C70.6586 506.975 69.9912 506.774 69.4872 506.373C68.9926 505.971 68.7452 505.444 68.7452 504.791C68.7452 504.137 68.9832 503.615 69.4592 503.223C69.9352 502.821 70.6912 502.621 71.7272 502.621H73.8552V502.355C73.8552 501.776 73.6872 501.333 73.3512 501.025C73.0152 500.717 72.5206 500.563 71.8672 500.563C71.4286 500.563 70.9992 500.637 70.5792 500.787C70.1592 500.927 69.8046 501.118 69.5152 501.361L68.9552 500.353C69.3379 500.045 69.7952 499.811 70.3272 499.653C70.8592 499.485 71.4239 499.401 72.0212 499.401ZM71.7132 505.939C72.2266 505.939 72.6699 505.827 73.0432 505.603C73.4166 505.369 73.6872 505.043 73.8552 504.623V503.587H71.7832C70.6446 503.587 70.0752 503.969 70.0752 504.735C70.0752 505.108 70.2199 505.402 70.5092 505.617C70.7986 505.831 71.1999 505.939 71.7132 505.939ZM85.5434 505.715V508.669H84.2694V506.891H77.6194V499.471H78.9634V505.715H83.0234V499.471H84.3674V505.715H85.5434ZM87.2854 499.471H88.6294V504.875L93.1794 499.471H94.3974V506.891H93.0534V501.487L88.5174 506.891H87.2854V499.471ZM102.956 499.471V506.891H101.752V504.539H99.5961H99.4421L97.8181 506.891H96.3761L98.1821 504.357C97.6221 504.189 97.1928 503.913 96.8941 503.531C96.5954 503.139 96.4461 502.653 96.4461 502.075C96.4461 501.225 96.7354 500.581 97.3141 500.143C97.8928 499.695 98.6908 499.471 99.7081 499.471H102.956ZM97.8181 502.117C97.8181 502.611 97.9721 502.98 98.2801 503.223C98.5974 503.456 99.0688 503.573 99.6941 503.573H101.752V500.647H99.7501C98.4621 500.647 97.8181 501.137 97.8181 502.117Z" fill="black"/>
<circle cx="45" cy="468.673" r="20" fill="#CE7EFF"/>
<ellipse cx="44.9999" cy="468.673" rx="7.83978" ry="7.89871" fill="#211F1D"/>
<rect x="43" y="450.491" width="130" height="4" transform="rotate(-90 43 450.491)" fill="url(#paint1_linear)"/>
<circle cx="45" cy="310.46" r="20" fill="#7EC1FF"/>
<ellipse cx="44.9999" cy="310.46" rx="7.83978" ry="7.89871" fill="#211F1D"/>
<path d="M8.0062 272.442C9.27554 272.442 10.2742 272.745 11.0022 273.352C11.7302 273.958 12.0942 274.794 12.0942 275.858C12.0942 276.922 11.7302 277.757 11.0022 278.364C10.2742 278.97 9.27554 279.274 8.0062 279.274H5.5842V282.242H4.1842V272.442H8.0062ZM7.9642 278.056C8.85087 278.056 9.52754 277.869 9.9942 277.496C10.4609 277.113 10.6942 276.567 10.6942 275.858C10.6942 275.148 10.4609 274.607 9.9942 274.234C9.52754 273.851 8.85087 273.66 7.9642 273.66H5.5842V278.056H7.9642ZM16.3953 274.752C17.4219 274.752 18.2059 275.004 18.7473 275.508C19.2979 276.012 19.5733 276.763 19.5733 277.762V282.242H18.2993V281.262C18.0753 281.607 17.7533 281.873 17.3333 282.06C16.9226 282.237 16.4326 282.326 15.8633 282.326C15.0326 282.326 14.3653 282.125 13.8613 281.724C13.3666 281.322 13.1193 280.795 13.1193 280.142C13.1193 279.488 13.3573 278.966 13.8333 278.574C14.3093 278.172 15.0653 277.972 16.1013 277.972H18.2293V277.706C18.2293 277.127 18.0613 276.684 17.7253 276.376C17.3893 276.068 16.8946 275.914 16.2413 275.914C15.8026 275.914 15.3733 275.988 14.9533 276.138C14.5333 276.278 14.1786 276.469 13.8893 276.712L13.3293 275.704C13.7119 275.396 14.1693 275.162 14.7013 275.004C15.2333 274.836 15.7979 274.752 16.3953 274.752ZM16.0873 281.29C16.6006 281.29 17.0439 281.178 17.4173 280.954C17.7906 280.72 18.0613 280.394 18.2293 279.974V278.938H16.1573C15.0186 278.938 14.4493 279.32 14.4493 280.086C14.4493 280.459 14.5939 280.753 14.8833 280.968C15.1726 281.182 15.5739 281.29 16.0873 281.29ZM25.8884 278.378C26.383 278.508 26.7657 278.718 27.0364 279.008C27.307 279.297 27.4424 279.656 27.4424 280.086C27.4424 280.524 27.293 280.916 26.9944 281.262C26.6957 281.598 26.2804 281.864 25.7484 282.06C25.2257 282.246 24.6377 282.34 23.9844 282.34C23.4337 282.34 22.8924 282.27 22.3604 282.13C21.8377 281.98 21.371 281.77 20.9604 281.5L21.3664 280.478C21.721 280.702 22.127 280.879 22.5844 281.01C23.0417 281.131 23.5037 281.192 23.9704 281.192C24.605 281.192 25.109 281.084 25.4824 280.87C25.865 280.646 26.0564 280.347 26.0564 279.974C26.0564 279.628 25.9024 279.362 25.5944 279.176C25.2957 278.989 24.871 278.896 24.3204 278.896H22.9624V277.93H24.2224C24.7264 277.93 25.123 277.841 25.4124 277.664C25.7017 277.486 25.8464 277.244 25.8464 276.936C25.8464 276.6 25.6737 276.338 25.3284 276.152C24.9924 275.965 24.535 275.872 23.9564 275.872C23.219 275.872 22.4397 276.063 21.6184 276.446L21.2544 275.41C22.1597 274.952 23.107 274.724 24.0964 274.724C24.6937 274.724 25.2304 274.808 25.7064 274.976C26.1824 275.144 26.5557 275.382 26.8264 275.69C27.097 275.998 27.2324 276.348 27.2324 276.74C27.2324 277.104 27.111 277.43 26.8684 277.72C26.6257 278.009 26.299 278.228 25.8884 278.378ZM33.4196 274.752C34.1383 274.752 34.7823 274.91 35.3516 275.228C35.9209 275.545 36.3643 275.988 36.6816 276.558C37.0083 277.127 37.1716 277.785 37.1716 278.532C37.1716 279.278 37.0083 279.941 36.6816 280.52C36.3643 281.089 35.9209 281.532 35.3516 281.85C34.7823 282.167 34.1383 282.326 33.4196 282.326C32.8876 282.326 32.3976 282.223 31.9496 282.018C31.5109 281.812 31.1376 281.514 30.8296 281.122V284.958H29.4856V274.822H30.7736V275.998C31.0723 275.587 31.4503 275.279 31.9076 275.074C32.3649 274.859 32.8689 274.752 33.4196 274.752ZM33.3076 281.15C33.7836 281.15 34.2083 281.042 34.5816 280.828C34.9643 280.604 35.2629 280.296 35.4776 279.904C35.7016 279.502 35.8136 279.045 35.8136 278.532C35.8136 278.018 35.7016 277.566 35.4776 277.174C35.2629 276.772 34.9643 276.464 34.5816 276.25C34.2083 276.035 33.7836 275.928 33.3076 275.928C32.8409 275.928 32.4163 276.04 32.0336 276.264C31.6603 276.478 31.3616 276.782 31.1376 277.174C30.9229 277.566 30.8156 278.018 30.8156 278.532C30.8156 279.045 30.9229 279.502 31.1376 279.904C31.3523 280.296 31.6509 280.604 32.0336 280.828C32.4163 281.042 32.8409 281.15 33.3076 281.15ZM41.7019 274.752C42.7286 274.752 43.5126 275.004 44.0539 275.508C44.6046 276.012 44.8799 276.763 44.8799 277.762V282.242H43.6059V281.262C43.3819 281.607 43.0599 281.873 42.6399 282.06C42.2292 282.237 41.7392 282.326 41.1699 282.326C40.3392 282.326 39.6719 282.125 39.1679 281.724C38.6732 281.322 38.4259 280.795 38.4259 280.142C38.4259 279.488 38.6639 278.966 39.1399 278.574C39.6159 278.172 40.3719 277.972 41.4079 277.972H43.5359V277.706C43.5359 277.127 43.3679 276.684 43.0319 276.376C42.6959 276.068 42.2012 275.914 41.5479 275.914C41.1092 275.914 40.6799 275.988 40.2599 276.138C39.8399 276.278 39.4852 276.469 39.1959 276.712L38.6359 275.704C39.0186 275.396 39.4759 275.162 40.0079 275.004C40.5399 274.836 41.1046 274.752 41.7019 274.752ZM41.3939 281.29C41.9072 281.29 42.3506 281.178 42.7239 280.954C43.0972 280.72 43.3679 280.394 43.5359 279.974V278.938H41.4639C40.3252 278.938 39.7559 279.32 39.7559 280.086C39.7559 280.459 39.9006 280.753 40.1899 280.968C40.4792 281.182 40.8806 281.29 41.3939 281.29ZM51.08 275.074C51.7707 275.074 52.3867 275.228 52.928 275.536C53.4694 275.844 53.8894 276.273 54.188 276.824C54.496 277.365 54.65 277.986 54.65 278.686C54.65 279.404 54.4867 280.044 54.16 280.604C53.8427 281.154 53.39 281.584 52.802 281.892C52.2234 282.2 51.5607 282.354 50.814 282.354C49.554 282.354 48.5787 281.924 47.888 281.066C47.2067 280.198 46.866 278.98 46.866 277.412C46.866 275.89 47.1787 274.7 47.804 273.842C48.4294 272.974 49.386 272.4 50.674 272.12L54.062 271.364L54.258 272.596L51.136 273.268C50.1654 273.482 49.442 273.846 48.966 274.36C48.49 274.873 48.2194 275.61 48.154 276.572C48.4714 276.096 48.882 275.727 49.386 275.466C49.89 275.204 50.4547 275.074 51.08 275.074ZM50.842 281.234C51.318 281.234 51.738 281.126 52.102 280.912C52.4754 280.697 52.7647 280.403 52.97 280.03C53.1754 279.647 53.278 279.213 53.278 278.728C53.278 277.99 53.054 277.398 52.606 276.95C52.158 276.502 51.57 276.278 50.842 276.278C50.114 276.278 49.5214 276.502 49.064 276.95C48.616 277.398 48.392 277.99 48.392 278.728C48.392 279.213 48.4947 279.647 48.7 280.03C48.9147 280.403 49.2087 280.697 49.582 280.912C49.9554 281.126 50.3754 281.234 50.842 281.234ZM59.7476 282.326C59.0102 282.326 58.3476 282.162 57.7596 281.836C57.1716 281.509 56.7096 281.061 56.3736 280.492C56.0469 279.913 55.8836 279.26 55.8836 278.532C55.8836 277.804 56.0469 277.155 56.3736 276.586C56.7096 276.007 57.1716 275.559 57.7596 275.242C58.3476 274.915 59.0102 274.752 59.7476 274.752C60.4849 274.752 61.1429 274.915 61.7216 275.242C62.3096 275.559 62.7669 276.007 63.0936 276.586C63.4296 277.155 63.5976 277.804 63.5976 278.532C63.5976 279.26 63.4296 279.913 63.0936 280.492C62.7669 281.061 62.3096 281.509 61.7216 281.836C61.1429 282.162 60.4849 282.326 59.7476 282.326ZM59.7476 281.15C60.2236 281.15 60.6482 281.042 61.0216 280.828C61.4042 280.604 61.7029 280.296 61.9176 279.904C62.1322 279.502 62.2396 279.045 62.2396 278.532C62.2396 278.018 62.1322 277.566 61.9176 277.174C61.7029 276.772 61.4042 276.464 61.0216 276.25C60.6482 276.035 60.2236 275.928 59.7476 275.928C59.2716 275.928 58.8422 276.035 58.4596 276.25C58.0862 276.464 57.7876 276.772 57.5636 277.174C57.3489 277.566 57.2416 278.018 57.2416 278.532C57.2416 279.045 57.3489 279.502 57.5636 279.904C57.7876 280.296 58.0862 280.604 58.4596 280.828C58.8422 281.042 59.2716 281.15 59.7476 281.15ZM70.7949 275.998H68.0789V282.242H66.7349V275.998H64.0189V274.822H70.7949V275.998ZM75.0532 279.106H73.5132V282.242H72.1692V274.822H73.5132V277.958H75.0812L77.4892 274.822H78.9312L76.1172 278.392L79.1272 282.242H77.5452L75.0532 279.106ZM83.0457 274.752C84.0723 274.752 84.8563 275.004 85.3977 275.508C85.9483 276.012 86.2237 276.763 86.2237 277.762V282.242H84.9497V281.262C84.7257 281.607 84.4037 281.873 83.9837 282.06C83.573 282.237 83.083 282.326 82.5137 282.326C81.683 282.326 81.0157 282.125 80.5117 281.724C80.017 281.322 79.7697 280.795 79.7697 280.142C79.7697 279.488 80.0077 278.966 80.4837 278.574C80.9597 278.172 81.7157 277.972 82.7517 277.972H84.8797V277.706C84.8797 277.127 84.7117 276.684 84.3757 276.376C84.0397 276.068 83.545 275.914 82.8917 275.914C82.453 275.914 82.0237 275.988 81.6037 276.138C81.1837 276.278 80.829 276.469 80.5397 276.712L79.9797 275.704C80.3623 275.396 80.8197 275.162 81.3517 275.004C81.8837 274.836 82.4483 274.752 83.0457 274.752ZM82.7377 281.29C83.251 281.29 83.6943 281.178 84.0677 280.954C84.441 280.72 84.7117 280.394 84.8797 279.974V278.938H82.8077C81.669 278.938 81.0997 279.32 81.0997 280.086C81.0997 280.459 81.2443 280.753 81.5337 280.968C81.823 281.182 82.2243 281.29 82.7377 281.29Z" fill="black"/>
<rect x="63.5" y="308.459" width="220" height="4" fill="url(#paint2_linear)"/>
<path d="M285.885 343.482V346.842H284.583V344.7H276.519L276.505 346.842H275.203L275.217 343.482H275.693C276.309 343.444 276.743 342.959 276.995 342.026C277.247 341.083 277.401 339.758 277.457 338.05L277.555 334.9H284.443V343.482H285.885ZM278.689 338.176C278.642 339.557 278.53 340.7 278.353 341.606C278.185 342.511 277.909 343.136 277.527 343.482H283.057V336.118H278.759L278.689 338.176ZM287.574 337.28H288.918V342.684L293.468 337.28H294.686V344.7H293.342V339.296L288.806 344.7H287.574V337.28ZM301.19 340.836C301.685 340.966 302.067 341.176 302.338 341.466C302.609 341.755 302.744 342.114 302.744 342.544C302.744 342.982 302.595 343.374 302.296 343.72C301.997 344.056 301.582 344.322 301.05 344.518C300.527 344.704 299.939 344.798 299.286 344.798C298.735 344.798 298.194 344.728 297.662 344.588C297.139 344.438 296.673 344.228 296.262 343.958L296.668 342.936C297.023 343.16 297.429 343.337 297.886 343.468C298.343 343.589 298.805 343.65 299.272 343.65C299.907 343.65 300.411 343.542 300.784 343.328C301.167 343.104 301.358 342.805 301.358 342.432C301.358 342.086 301.204 341.82 300.896 341.634C300.597 341.447 300.173 341.354 299.622 341.354H298.264V340.388H299.524C300.028 340.388 300.425 340.299 300.714 340.122C301.003 339.944 301.148 339.702 301.148 339.394C301.148 339.058 300.975 338.796 300.63 338.61C300.294 338.423 299.837 338.33 299.258 338.33C298.521 338.33 297.741 338.521 296.92 338.904L296.556 337.868C297.461 337.41 298.409 337.182 299.398 337.182C299.995 337.182 300.532 337.266 301.008 337.434C301.484 337.602 301.857 337.84 302.128 338.148C302.399 338.456 302.534 338.806 302.534 339.198C302.534 339.562 302.413 339.888 302.17 340.178C301.927 340.467 301.601 340.686 301.19 340.836ZM307.433 337.21C308.46 337.21 309.244 337.462 309.785 337.966C310.336 338.47 310.611 339.221 310.611 340.22V344.7H309.337V343.72C309.113 344.065 308.791 344.331 308.371 344.518C307.961 344.695 307.471 344.784 306.901 344.784C306.071 344.784 305.403 344.583 304.899 344.182C304.405 343.78 304.157 343.253 304.157 342.6C304.157 341.946 304.395 341.424 304.871 341.032C305.347 340.63 306.103 340.43 307.139 340.43H309.267V340.164C309.267 339.585 309.099 339.142 308.763 338.834C308.427 338.526 307.933 338.372 307.279 338.372C306.841 338.372 306.411 338.446 305.991 338.596C305.571 338.736 305.217 338.927 304.927 339.17L304.367 338.162C304.75 337.854 305.207 337.62 305.739 337.462C306.271 337.294 306.836 337.21 307.433 337.21ZM307.125 343.748C307.639 343.748 308.082 343.636 308.455 343.412C308.829 343.178 309.099 342.852 309.267 342.432V341.396H307.195C306.057 341.396 305.487 341.778 305.487 342.544C305.487 342.917 305.632 343.211 305.921 343.426C306.211 343.64 306.612 343.748 307.125 343.748ZM313.031 337.28H314.375V342.684L318.925 337.28H320.143V344.7H318.799V339.296L314.263 344.7H313.031V337.28ZM316.503 336.314C315.813 336.314 315.276 336.15 314.893 335.824C314.511 335.488 314.315 335.007 314.305 334.382H315.215C315.225 334.727 315.341 335.007 315.565 335.222C315.799 335.427 316.107 335.53 316.489 335.53C316.872 335.53 317.18 335.427 317.413 335.222C317.647 335.007 317.768 334.727 317.777 334.382H318.715C318.706 335.007 318.505 335.488 318.113 335.824C317.721 336.15 317.185 336.314 316.503 336.314ZM322.752 337.28H324.096V340.43H328.324V337.28H329.668V344.7H328.324V341.592H324.096V344.7H322.752V337.28Z" fill="black"/>
<circle cx="302.064" cy="310.459" r="20" fill="#F98DFC"/>
<ellipse cx="302.064" cy="310.46" rx="7.83978" ry="7.89871" fill="#211F1D"/>
<rect x="305" y="165.958" width="130" height="4" transform="rotate(90 305 165.958)" fill="url(#paint3_linear)"/>
<circle cx="303" cy="151.68" r="20" fill="#FCD052"/>
<ellipse cx="303" cy="151.679" rx="7.83978" ry="7.89871" fill="#211F1D"/>
<path d="M259.124 110.552C258.135 110.552 257.244 110.337 256.45 109.908C255.657 109.469 255.032 108.867 254.574 108.102C254.126 107.337 253.902 106.483 253.902 105.54C253.902 104.597 254.126 103.743 254.574 102.978C255.032 102.213 255.657 101.615 256.45 101.186C257.244 100.747 258.135 100.528 259.124 100.528C260.104 100.528 260.991 100.747 261.784 101.186C262.578 101.615 263.198 102.213 263.646 102.978C264.094 103.734 264.318 104.588 264.318 105.54C264.318 106.492 264.094 107.351 263.646 108.116C263.198 108.872 262.578 109.469 261.784 109.908C260.991 110.337 260.104 110.552 259.124 110.552ZM259.124 109.306C259.843 109.306 260.487 109.143 261.056 108.816C261.635 108.489 262.088 108.041 262.414 107.472C262.75 106.893 262.918 106.249 262.918 105.54C262.918 104.831 262.75 104.191 262.414 103.622C262.088 103.043 261.635 102.591 261.056 102.264C260.487 101.937 259.843 101.774 259.124 101.774C258.406 101.774 257.752 101.937 257.164 102.264C256.586 102.591 256.128 103.043 255.792 103.622C255.466 104.191 255.302 104.831 255.302 105.54C255.302 106.249 255.466 106.893 255.792 107.472C256.128 108.041 256.586 108.489 257.164 108.816C257.752 109.143 258.406 109.306 259.124 109.306ZM270.138 103.272C270.828 103.272 271.444 103.426 271.986 103.734C272.527 104.042 272.947 104.471 273.246 105.022C273.554 105.563 273.708 106.184 273.708 106.884C273.708 107.603 273.544 108.242 273.218 108.802C272.9 109.353 272.448 109.782 271.86 110.09C271.281 110.398 270.618 110.552 269.872 110.552C268.612 110.552 267.636 110.123 266.946 109.264C266.264 108.396 265.924 107.178 265.924 105.61C265.924 104.089 266.236 102.899 266.862 102.04C267.487 101.172 268.444 100.598 269.732 100.318L273.12 99.5619L273.316 100.794L270.194 101.466C269.223 101.681 268.5 102.045 268.024 102.558C267.548 103.071 267.277 103.809 267.212 104.77C267.529 104.294 267.94 103.925 268.444 103.664C268.948 103.403 269.512 103.272 270.138 103.272ZM269.9 109.432C270.376 109.432 270.796 109.325 271.16 109.11C271.533 108.895 271.822 108.601 272.028 108.228C272.233 107.845 272.336 107.411 272.336 106.926C272.336 106.189 272.112 105.596 271.664 105.148C271.216 104.7 270.628 104.476 269.9 104.476C269.172 104.476 268.579 104.7 268.122 105.148C267.674 105.596 267.45 106.189 267.45 106.926C267.45 107.411 267.552 107.845 267.758 108.228C267.972 108.601 268.266 108.895 268.64 109.11C269.013 109.325 269.433 109.432 269.9 109.432ZM278.861 110.524C278.105 110.524 277.429 110.361 276.831 110.034C276.243 109.707 275.781 109.259 275.445 108.69C275.109 108.111 274.941 107.458 274.941 106.73C274.941 106.002 275.109 105.353 275.445 104.784C275.781 104.205 276.243 103.757 276.831 103.44C277.429 103.113 278.105 102.95 278.861 102.95C279.533 102.95 280.131 103.085 280.653 103.356C281.185 103.627 281.596 104.019 281.885 104.532L280.863 105.19C280.63 104.835 280.341 104.569 279.995 104.392C279.65 104.215 279.267 104.126 278.847 104.126C278.362 104.126 277.923 104.233 277.531 104.448C277.149 104.663 276.845 104.971 276.621 105.372C276.407 105.764 276.299 106.217 276.299 106.73C276.299 107.253 276.407 107.715 276.621 108.116C276.845 108.508 277.149 108.811 277.531 109.026C277.923 109.241 278.362 109.348 278.847 109.348C279.267 109.348 279.65 109.259 279.995 109.082C280.341 108.905 280.63 108.639 280.863 108.284L281.885 108.928C281.596 109.441 281.185 109.838 280.653 110.118C280.131 110.389 279.533 110.524 278.861 110.524ZM290.152 103.02L286.554 111.182C286.236 111.938 285.863 112.47 285.434 112.778C285.014 113.086 284.505 113.24 283.908 113.24C283.544 113.24 283.189 113.179 282.844 113.058C282.508 112.946 282.228 112.778 282.004 112.554L282.578 111.546C282.96 111.91 283.404 112.092 283.908 112.092C284.234 112.092 284.505 112.003 284.72 111.826C284.944 111.658 285.144 111.364 285.322 110.944L285.56 110.426L282.284 103.02H283.684L286.274 108.956L288.836 103.02H290.152ZM297.852 107.304H296.41V110.44H295.066V107.304H293.624L291.58 110.44H289.984L292.532 106.604L290.18 103.02H291.608L293.61 106.156H295.066V103.02H296.41V106.156H297.866L299.868 103.02H301.31L298.958 106.618L301.506 110.44H299.91L297.852 107.304ZM310.531 109.264V112.162H309.271V110.44H303.069V112.162H301.795V109.264H302.187C302.663 109.236 302.989 108.9 303.167 108.256C303.344 107.612 303.465 106.702 303.531 105.526L303.643 103.02H309.397V109.264H310.531ZM304.763 105.624C304.725 106.557 304.646 107.332 304.525 107.948C304.413 108.555 304.203 108.993 303.895 109.264H308.053V104.196H304.833L304.763 105.624ZM318.987 106.772C318.987 106.875 318.978 107.01 318.959 107.178H312.939C313.023 107.831 313.308 108.359 313.793 108.76C314.288 109.152 314.899 109.348 315.627 109.348C316.514 109.348 317.228 109.049 317.769 108.452L318.511 109.32C318.175 109.712 317.755 110.011 317.251 110.216C316.757 110.421 316.201 110.524 315.585 110.524C314.801 110.524 314.106 110.365 313.499 110.048C312.893 109.721 312.421 109.269 312.085 108.69C311.759 108.111 311.595 107.458 311.595 106.73C311.595 106.011 311.754 105.363 312.071 104.784C312.398 104.205 312.841 103.757 313.401 103.44C313.971 103.113 314.61 102.95 315.319 102.95C316.029 102.95 316.659 103.113 317.209 103.44C317.769 103.757 318.203 104.205 318.511 104.784C318.829 105.363 318.987 106.025 318.987 106.772ZM315.319 104.084C314.675 104.084 314.134 104.28 313.695 104.672C313.266 105.064 313.014 105.577 312.939 106.212H317.699C317.625 105.587 317.368 105.078 316.929 104.686C316.5 104.285 315.963 104.084 315.319 104.084ZM321.073 103.02H322.417V106.17H326.645V103.02H327.989V110.44H326.645V107.332H322.417V110.44H321.073V103.02ZM330.602 103.02H331.946V108.424L336.496 103.02H337.714V110.44H336.37V105.036L331.834 110.44H330.602V103.02ZM347.029 106.772C347.029 106.875 347.019 107.01 347.001 107.178H340.981C341.065 107.831 341.349 108.359 341.835 108.76C342.329 109.152 342.941 109.348 343.669 109.348C344.555 109.348 345.269 109.049 345.811 108.452L346.553 109.32C346.217 109.712 345.797 110.011 345.293 110.216C344.798 110.421 344.243 110.524 343.627 110.524C342.843 110.524 342.147 110.365 341.541 110.048C340.934 109.721 340.463 109.269 340.127 108.69C339.8 108.111 339.637 107.458 339.637 106.73C339.637 106.011 339.795 105.363 340.113 104.784C340.439 104.205 340.883 103.757 341.443 103.44C342.012 103.113 342.651 102.95 343.361 102.95C344.07 102.95 344.7 103.113 345.251 103.44C345.811 103.757 346.245 104.205 346.553 104.784C346.87 105.363 347.029 106.025 347.029 106.772ZM343.361 104.084C342.717 104.084 342.175 104.28 341.737 104.672C341.307 105.064 341.055 105.577 340.981 106.212H345.741C345.666 105.587 345.409 105.078 344.971 104.686C344.541 104.285 344.005 104.084 343.361 104.084ZM279.147 126.264V129.162H277.887V127.44H271.685V129.162H270.411V126.264H270.803C271.279 126.236 271.605 125.9 271.783 125.256C271.96 124.612 272.081 123.702 272.147 122.526L272.259 120.02H278.013V126.264H279.147ZM273.379 122.624C273.341 123.557 273.262 124.332 273.141 124.948C273.029 125.555 272.819 125.993 272.511 126.264H276.669V121.196H273.449L273.379 122.624ZM287.604 123.772C287.604 123.875 287.594 124.01 287.576 124.178H281.556C281.64 124.831 281.924 125.359 282.41 125.76C282.904 126.152 283.516 126.348 284.244 126.348C285.13 126.348 285.844 126.049 286.386 125.452L287.128 126.32C286.792 126.712 286.372 127.011 285.868 127.216C285.373 127.421 284.818 127.524 284.202 127.524C283.418 127.524 282.722 127.365 282.116 127.048C281.509 126.721 281.038 126.269 280.702 125.69C280.375 125.111 280.212 124.458 280.212 123.73C280.212 123.011 280.37 122.363 280.688 121.784C281.014 121.205 281.458 120.757 282.018 120.44C282.587 120.113 283.226 119.95 283.936 119.95C284.645 119.95 285.275 120.113 285.826 120.44C286.386 120.757 286.82 121.205 287.128 121.784C287.445 122.363 287.604 123.025 287.604 123.772ZM283.936 121.084C283.292 121.084 282.75 121.28 282.312 121.672C281.882 122.064 281.63 122.577 281.556 123.212H286.316C286.241 122.587 285.984 122.078 285.546 121.686C285.116 121.285 284.58 121.084 283.936 121.084ZM294.904 121.196H292.188V127.44H290.844V121.196H288.128V120.02H294.904V121.196ZM298.925 119.95C299.951 119.95 300.735 120.202 301.277 120.706C301.827 121.21 302.103 121.961 302.103 122.96V127.44H300.829V126.46C300.605 126.805 300.283 127.071 299.863 127.258C299.452 127.435 298.962 127.524 298.393 127.524C297.562 127.524 296.895 127.323 296.391 126.922C295.896 126.521 295.649 125.993 295.649 125.34C295.649 124.687 295.887 124.164 296.363 123.772C296.839 123.371 297.595 123.17 298.631 123.17H300.759V122.904C300.759 122.325 300.591 121.882 300.255 121.574C299.919 121.266 299.424 121.112 298.771 121.112C298.332 121.112 297.903 121.187 297.483 121.336C297.063 121.476 296.708 121.667 296.419 121.91L295.859 120.902C296.241 120.594 296.699 120.361 297.231 120.202C297.763 120.034 298.327 119.95 298.925 119.95ZM298.617 126.488C299.13 126.488 299.573 126.376 299.947 126.152C300.32 125.919 300.591 125.592 300.759 125.172V124.136H298.687C297.548 124.136 296.979 124.519 296.979 125.284C296.979 125.657 297.123 125.951 297.413 126.166C297.702 126.381 298.103 126.488 298.617 126.488ZM310.893 120.02V127.44H309.549V121.196H306.357L306.273 122.848C306.226 123.847 306.137 124.682 306.007 125.354C305.876 126.017 305.661 126.549 305.363 126.95C305.064 127.351 304.649 127.552 304.117 127.552C303.874 127.552 303.599 127.51 303.291 127.426L303.375 126.292C303.496 126.32 303.608 126.334 303.711 126.334C304.084 126.334 304.364 126.171 304.551 125.844C304.737 125.517 304.859 125.13 304.915 124.682C304.971 124.234 305.022 123.595 305.069 122.764L305.195 120.02H310.893ZM320.197 123.772C320.197 123.875 320.188 124.01 320.169 124.178H314.149C314.233 124.831 314.518 125.359 315.003 125.76C315.498 126.152 316.109 126.348 316.837 126.348C317.724 126.348 318.438 126.049 318.979 125.452L319.721 126.32C319.385 126.712 318.965 127.011 318.461 127.216C317.967 127.421 317.411 127.524 316.795 127.524C316.011 127.524 315.316 127.365 314.709 127.048C314.103 126.721 313.631 126.269 313.295 125.69C312.969 125.111 312.805 124.458 312.805 123.73C312.805 123.011 312.964 122.363 313.281 121.784C313.608 121.205 314.051 120.757 314.611 120.44C315.181 120.113 315.82 119.95 316.529 119.95C317.239 119.95 317.869 120.113 318.419 120.44C318.979 120.757 319.413 121.205 319.721 121.784C320.039 122.363 320.197 123.025 320.197 123.772ZM316.529 121.084C315.885 121.084 315.344 121.28 314.905 121.672C314.476 122.064 314.224 122.577 314.149 123.212H318.909C318.835 122.587 318.578 122.078 318.139 121.686C317.71 121.285 317.173 121.084 316.529 121.084ZM322.282 120.02H323.626V125.424L328.176 120.02H329.394V127.44H328.05V122.036L323.514 127.44H322.282V120.02ZM325.754 119.054C325.064 119.054 324.527 118.891 324.144 118.564C323.762 118.228 323.566 117.747 323.556 117.122H324.466C324.476 117.467 324.592 117.747 324.816 117.962C325.05 118.167 325.358 118.27 325.74 118.27C326.123 118.27 326.431 118.167 326.664 117.962C326.898 117.747 327.019 117.467 327.028 117.122H327.966C327.957 117.747 327.756 118.228 327.364 118.564C326.972 118.891 326.436 119.054 325.754 119.054Z" fill="black"/>
<rect x="63" y="149.68" width="220" height="4" fill="url(#paint4_linear)"/>
<circle cx="45" cy="151.68" r="20" fill="#7FFDC0"/>
<ellipse cx="44.9999" cy="151.679" rx="7.83978" ry="7.89871" fill="#211F1D"/>
<path d="M10.2268 98.6399V108.44H8.85479V99.8579H3.17079V108.44H1.78479V98.6399H10.2268ZM16.9928 100.95C17.7115 100.95 18.3555 101.109 18.9248 101.426C19.4942 101.743 19.9375 102.187 20.2548 102.756C20.5815 103.325 20.7448 103.983 20.7448 104.73C20.7448 105.477 20.5815 106.139 20.2548 106.718C19.9375 107.287 19.4942 107.731 18.9248 108.048C18.3555 108.365 17.7115 108.524 16.9928 108.524C16.4608 108.524 15.9708 108.421 15.5228 108.216C15.0842 108.011 14.7108 107.712 14.4028 107.32V111.156H13.0588V101.02H14.3468V102.196C14.6455 101.785 15.0235 101.477 15.4808 101.272C15.9382 101.057 16.4422 100.95 16.9928 100.95ZM16.8808 107.348C17.3568 107.348 17.7815 107.241 18.1548 107.026C18.5375 106.802 18.8362 106.494 19.0508 106.102C19.2748 105.701 19.3868 105.243 19.3868 104.73C19.3868 104.217 19.2748 103.764 19.0508 103.372C18.8362 102.971 18.5375 102.663 18.1548 102.448C17.7815 102.233 17.3568 102.126 16.8808 102.126C16.4142 102.126 15.9895 102.238 15.6068 102.462C15.2335 102.677 14.9348 102.98 14.7108 103.372C14.4962 103.764 14.3888 104.217 14.3888 104.73C14.3888 105.243 14.4962 105.701 14.7108 106.102C14.9255 106.494 15.2242 106.802 15.6068 107.026C15.9895 107.241 16.4142 107.348 16.8808 107.348ZM22.6975 101.02H24.0415V106.424L28.5915 101.02H29.8095V108.44H28.4655V103.036L23.9295 108.44H22.6975V101.02ZM32.4182 101.02H33.7622V104.17H37.9902V101.02H39.3342V108.44H37.9902V105.332H33.7622V108.44H32.4182V101.02ZM41.9475 101.02H43.2915V106.424L47.8415 101.02H49.0595V108.44H47.7155V103.036L43.1795 108.44H41.9475V101.02ZM60.2222 101.02V108.44H59.0042V103.022L56.2322 107.6H55.6442L52.9002 103.008V108.44H51.6682V101.02H53.0542L55.9662 106.032L58.9622 101.02H60.2222ZM65.4841 100.95C66.5108 100.95 67.2948 101.202 67.8361 101.706C68.3868 102.21 68.6621 102.961 68.6621 103.96V108.44H67.3881V107.46C67.1641 107.805 66.8421 108.071 66.4221 108.258C66.0115 108.435 65.5215 108.524 64.9521 108.524C64.1215 108.524 63.4541 108.323 62.9501 107.922C62.4555 107.521 62.2081 106.993 62.2081 106.34C62.2081 105.687 62.4461 105.164 62.9221 104.772C63.3981 104.371 64.1541 104.17 65.1901 104.17H67.3181V103.904C67.3181 103.325 67.1501 102.882 66.8141 102.574C66.4781 102.266 65.9835 102.112 65.3301 102.112C64.8915 102.112 64.4621 102.187 64.0421 102.336C63.6221 102.476 63.2675 102.667 62.9781 102.91L62.4181 101.902C62.8008 101.594 63.2581 101.361 63.7901 101.202C64.3221 101.034 64.8868 100.95 65.4841 100.95ZM65.1761 107.488C65.6895 107.488 66.1328 107.376 66.5061 107.152C66.8795 106.919 67.1501 106.592 67.3181 106.172V105.136H65.2461C64.1075 105.136 63.5381 105.519 63.5381 106.284C63.5381 106.657 63.6828 106.951 63.9721 107.166C64.2615 107.381 64.6628 107.488 65.1761 107.488ZM77.7883 104.772C77.7883 104.875 77.7789 105.01 77.7603 105.178H71.7403C71.8243 105.831 72.1089 106.359 72.5943 106.76C73.0889 107.152 73.7003 107.348 74.4283 107.348C75.3149 107.348 76.0289 107.049 76.5703 106.452L77.3123 107.32C76.9763 107.712 76.5563 108.011 76.0523 108.216C75.5576 108.421 75.0023 108.524 74.3863 108.524C73.6023 108.524 72.9069 108.365 72.3003 108.048C71.6936 107.721 71.2223 107.269 70.8863 106.69C70.5596 106.111 70.3963 105.458 70.3963 104.73C70.3963 104.011 70.5549 103.363 70.8723 102.784C71.1989 102.205 71.6423 101.757 72.2023 101.44C72.7716 101.113 73.4109 100.95 74.1203 100.95C74.8296 100.95 75.4596 101.113 76.0103 101.44C76.5703 101.757 77.0043 102.205 77.3123 102.784C77.6296 103.363 77.7883 104.025 77.7883 104.772ZM74.1203 102.084C73.4763 102.084 72.9349 102.28 72.4963 102.672C72.0669 103.064 71.8149 103.577 71.7403 104.212H76.5003C76.4256 103.587 76.1689 103.078 75.7303 102.686C75.3009 102.285 74.7643 102.084 74.1203 102.084ZM88.4273 101.02V108.44H87.2093V103.022L84.4373 107.6H83.8493L81.1053 103.008V108.44H79.8733V101.02H81.2593L84.1713 106.032L87.1673 101.02H88.4273ZM30.4069 121.576C30.9016 121.707 31.2842 121.917 31.5549 122.206C31.8256 122.495 31.9609 122.855 31.9609 123.284C31.9609 123.723 31.8116 124.115 31.5129 124.46C31.2142 124.796 30.7989 125.062 30.2669 125.258C29.7442 125.445 29.1562 125.538 28.5029 125.538C27.9522 125.538 27.4109 125.468 26.8789 125.328C26.3562 125.179 25.8896 124.969 25.4789 124.698L25.8849 123.676C26.2396 123.9 26.6456 124.077 27.1029 124.208C27.5602 124.329 28.0222 124.39 28.4889 124.39C29.1236 124.39 29.6276 124.283 30.0009 124.068C30.3836 123.844 30.5749 123.545 30.5749 123.172C30.5749 122.827 30.4209 122.561 30.1129 122.374C29.8142 122.187 29.3896 122.094 28.8389 122.094H27.4809V121.128H28.7409C29.2449 121.128 29.6416 121.039 29.9309 120.862C30.2202 120.685 30.3649 120.442 30.3649 120.134C30.3649 119.798 30.1922 119.537 29.8469 119.35C29.5109 119.163 29.0536 119.07 28.4749 119.07C27.7376 119.07 26.9582 119.261 26.1369 119.644L25.7729 118.608C26.6782 118.151 27.6256 117.922 28.6149 117.922C29.2122 117.922 29.7489 118.006 30.2249 118.174C30.7009 118.342 31.0742 118.58 31.3449 118.888C31.6156 119.196 31.7509 119.546 31.7509 119.938C31.7509 120.302 31.6296 120.629 31.3869 120.918C31.1442 121.207 30.8176 121.427 30.4069 121.576ZM36.6501 117.95C37.6768 117.95 38.4608 118.202 39.0021 118.706C39.5528 119.21 39.8281 119.961 39.8281 120.96V125.44H38.5541V124.46C38.3301 124.805 38.0081 125.071 37.5881 125.258C37.1775 125.435 36.6875 125.524 36.1181 125.524C35.2875 125.524 34.6201 125.323 34.1161 124.922C33.6215 124.521 33.3741 123.993 33.3741 123.34C33.3741 122.687 33.6121 122.164 34.0881 121.772C34.5641 121.371 35.3201 121.17 36.3561 121.17H38.4841V120.904C38.4841 120.325 38.3161 119.882 37.9801 119.574C37.6441 119.266 37.1495 119.112 36.4961 119.112C36.0575 119.112 35.6281 119.187 35.2081 119.336C34.7881 119.476 34.4335 119.667 34.1441 119.91L33.5841 118.902C33.9668 118.594 34.4241 118.361 34.9561 118.202C35.4881 118.034 36.0528 117.95 36.6501 117.95ZM36.3421 124.488C36.8555 124.488 37.2988 124.376 37.6721 124.152C38.0455 123.919 38.3161 123.592 38.4841 123.172V122.136H36.4121C35.2735 122.136 34.7041 122.519 34.7041 123.284C34.7041 123.657 34.8488 123.951 35.1381 124.166C35.4275 124.381 35.8288 124.488 36.3421 124.488ZM45.1323 122.304H43.5923V125.44H42.2483V118.02H43.5923V121.156H45.1603L47.5683 118.02H49.0103L46.1963 121.59L49.2063 125.44H47.6243L45.1323 122.304ZM53.1248 117.95C54.1514 117.95 54.9354 118.202 55.4768 118.706C56.0274 119.21 56.3028 119.961 56.3028 120.96V125.44H55.0288V124.46C54.8048 124.805 54.4828 125.071 54.0628 125.258C53.6521 125.435 53.1621 125.524 52.5928 125.524C51.7621 125.524 51.0948 125.323 50.5908 124.922C50.0961 124.521 49.8488 123.993 49.8488 123.34C49.8488 122.687 50.0868 122.164 50.5628 121.772C51.0388 121.371 51.7948 121.17 52.8308 121.17H54.9588V120.904C54.9588 120.325 54.7908 119.882 54.4548 119.574C54.1188 119.266 53.6241 119.112 52.9708 119.112C52.5321 119.112 52.1028 119.187 51.6828 119.336C51.2628 119.476 50.9081 119.667 50.6188 119.91L50.0588 118.902C50.4414 118.594 50.8988 118.361 51.4308 118.202C51.9628 118.034 52.5274 117.95 53.1248 117.95ZM52.8168 124.488C53.3301 124.488 53.7734 124.376 54.1468 124.152C54.5201 123.919 54.7908 123.592 54.9588 123.172V122.136H52.8868C51.7481 122.136 51.1788 122.519 51.1788 123.284C51.1788 123.657 51.3234 123.951 51.6128 124.166C51.9021 124.381 52.3034 124.488 52.8168 124.488ZM62.6179 121.576C63.1125 121.707 63.4952 121.917 63.7659 122.206C64.0365 122.495 64.1719 122.855 64.1719 123.284C64.1719 123.723 64.0225 124.115 63.7239 124.46C63.4252 124.796 63.0099 125.062 62.4779 125.258C61.9552 125.445 61.3672 125.538 60.7139 125.538C60.1632 125.538 59.6219 125.468 59.0899 125.328C58.5672 125.179 58.1005 124.969 57.6899 124.698L58.0959 123.676C58.4505 123.9 58.8565 124.077 59.3139 124.208C59.7712 124.329 60.2332 124.39 60.6999 124.39C61.3345 124.39 61.8385 124.283 62.2119 124.068C62.5945 123.844 62.7859 123.545 62.7859 123.172C62.7859 122.827 62.6319 122.561 62.3239 122.374C62.0252 122.187 61.6005 122.094 61.0499 122.094H59.6919V121.128H60.9519C61.4559 121.128 61.8525 121.039 62.1419 120.862C62.4312 120.685 62.5759 120.442 62.5759 120.134C62.5759 119.798 62.4032 119.537 62.0579 119.35C61.7219 119.163 61.2645 119.07 60.6859 119.07C59.9485 119.07 59.1692 119.261 58.3479 119.644L57.9839 118.608C58.8892 118.151 59.8365 117.922 60.8259 117.922C61.4232 117.922 61.9599 118.006 62.4359 118.174C62.9119 118.342 63.2852 118.58 63.5559 118.888C63.8265 119.196 63.9619 119.546 63.9619 119.938C63.9619 120.302 63.8405 120.629 63.5979 120.918C63.3552 121.207 63.0285 121.427 62.6179 121.576Z" fill="black"/>
<defs>
<linearGradient id="paint0_linear" x1="64" y1="468.672" x2="287.431" y2="468.672" gradientUnits="userSpaceOnUse">
<stop stop-color="#CE7EFF"/>
<stop offset="1" stop-color="#F26A51"/>
</linearGradient>
<linearGradient id="paint1_linear" x1="43" y1="452.491" x2="175.027" y2="452.491" gradientUnits="userSpaceOnUse">
<stop stop-color="#CE7EFF"/>
<stop offset="1" stop-color="#7EC1FF"/>
</linearGradient>
<linearGradient id="paint2_linear" x1="63.5" y1="310.46" x2="286.931" y2="310.459" gradientUnits="userSpaceOnUse">
<stop stop-color="#7EC1FF"/>
<stop offset="1" stop-color="#F98DFC"/>
</linearGradient>
<linearGradient id="paint3_linear" x1="305" y1="167.958" x2="437.027" y2="167.958" gradientUnits="userSpaceOnUse">
<stop stop-color="#FFCF4F"/>
<stop offset="1" stop-color="#F98DFC"/>
</linearGradient>
<linearGradient id="paint4_linear" x1="63" y1="151.68" x2="286.431" y2="151.68" gradientUnits="userSpaceOnUse">
<stop stop-color="#7FFDC0"/>
<stop offset="1" stop-color="#FFCF4F"/>
</linearGradient>
</defs>
</svg>
