<svg width="128" height="67" viewBox="0 0 128 67" fill="none" xmlns="http://www.w3.org/2000/svg">
<path d="M57.8338 0.34564L47.1338 0.301285L46.9174 52.5013L57.6174 52.5456L57.8338 0.34564Z" fill="#06784E"/>
<path d="M43.6341 0.34538L32.9341 0.301025L32.7177 52.501L43.4177 52.5454L43.6341 0.34538Z" fill="#014E31"/>
<path d="M29.8338 0.345472L19.1338 0.301117L18.9174 52.5011L29.6174 52.5455L29.8338 0.345472Z" fill="#211F1D"/>
<path d="M70.7007 16.445L60.2007 16.4014L60.0506 52.6014L70.5506 52.645L70.7007 16.445Z" fill="#211F1D"/>
<path d="M80.4094 18.0741L72.4263 24.8949L95.9418 52.4178L103.925 45.597L80.4094 18.0741Z" fill="#BFFFBE"/>
<path d="M127.825 66.2221L0.125 65.5221V52.3221L127.825 52.9221V66.2221Z" fill="#BFFFBE"/>
</svg>
