<svg width="128" height="67" viewBox="0 0 128 67" fill="none" xmlns="http://www.w3.org/2000/svg">
<path d="M99.6214 0.909361L88.9214 0.865005L88.705 53.065L99.405 53.1094L99.6214 0.909361Z" fill="#9C9393"/>
<path d="M85.4217 0.909101L74.7217 0.864746L74.5053 53.0648L85.2053 53.1091L85.4217 0.909101Z" fill="#9C9393"/>
<path d="M71.6214 0.909193L60.9214 0.864838L60.705 53.0648L71.405 53.1092L71.6214 0.909193Z" fill="#847F7B"/>
<path d="M57.1548 16.9094L46.6548 16.8658L46.5047 53.0658L57.0047 53.1094L57.1548 16.9094Z" fill="#211F1D"/>
<path d="M46.5046 24.0994L37.4111 18.8493L19.3108 50.2L28.4042 55.4501L46.5046 24.0994Z" fill="#847F7B"/>
<path d="M127.7 66.1089L0 65.4089V52.2089L127.7 52.8089V66.1089Z" fill="#BFFFBE"/>
</svg>
