<svg width="80" height="81" viewBox="0 0 80 81" fill="none" xmlns="http://www.w3.org/2000/svg">
<path d="M40.2732 79.322C61.3705 79.322 78.4732 62.2193 78.4732 41.122C78.4732 20.0247 61.3705 2.92203 40.2732 2.92203C19.176 2.92203 2.07324 20.0247 2.07324 41.122C2.07324 62.2193 19.176 79.322 40.2732 79.322Z" fill="#F4F4F4"/>
<path d="M40.2732 6.42203C21.3732 6.42203 6.07324 21.822 6.07324 40.622C6.07324 59.422 21.3732 74.822 40.2732 74.822C59.0732 74.822 74.4732 59.522 74.4732 40.622C74.3732 21.822 59.0732 6.42203 40.2732 6.42203Z" fill="white"/>
<path d="M40.2732 80.222C18.3732 80.222 0.573242 62.422 0.573242 40.522C0.573242 18.622 18.3732 0.822021 40.2732 0.822021C62.1732 0.822021 79.9732 18.622 79.9732 40.522C79.8732 62.522 62.1732 80.222 40.2732 80.222ZM40.2732 6.42202C21.3732 6.42202 6.07324 21.822 6.07324 40.622C6.07324 59.422 21.3732 74.822 40.2732 74.822C59.0732 74.822 74.4732 59.522 74.4732 40.622C74.3732 21.822 59.0732 6.42202 40.2732 6.42202Z" fill="#00AB6C"/>
<path d="M40.3732 48.122C39.5732 48.122 38.8732 47.722 38.5732 47.022L29.5732 29.322C29.0732 28.322 29.4732 27.022 30.4732 26.522C31.4732 26.022 32.7732 26.422 33.2732 27.422L42.2732 45.122C42.7732 46.122 42.3732 47.422 41.3732 47.922C41.0732 48.022 40.6732 48.122 40.3732 48.122Z" fill="#211F1D"/>
<path d="M32.9734 45.722C32.4734 45.722 32.0734 45.322 31.9734 44.822C31.8734 44.222 32.2734 43.722 32.7734 43.622L66.4734 37.822C67.0734 37.722 67.5734 38.122 67.6734 38.622C67.7734 39.222 67.3734 39.722 66.8734 39.822L33.1734 45.622C33.0734 45.722 33.0734 45.722 32.9734 45.722Z" fill="#211F1D"/>
</svg>
