<svg width="116" height="139" viewBox="0 0 116 139" fill="none" xmlns="http://www.w3.org/2000/svg">
<path d="M113.4 3.02197H3.00049V136.022H113.4V3.02197Z" fill="#F4F4F4"/>
<path d="M113.4 3.02197H3.00049V136.022H113.4V3.02197Z" stroke="#F16A51" stroke-width="4.5849" stroke-miterlimit="10"/>
<path d="M94.0003 23.122H20.3003V116.522H94.0003V23.122Z" fill="#F16A51"/>
<path d="M33.5007 71.222C32.6007 70.322 32.6007 68.822 33.5007 67.822L45.3007 56.122C46.2007 55.122 47.7007 55.022 48.7007 55.922C49.7007 56.822 49.8007 58.322 48.9007 59.322C48.8007 59.422 48.8007 59.422 48.7007 59.522L38.6007 69.622L48.7007 79.722C49.6007 80.622 49.6007 82.122 48.7007 83.122C48.3007 83.622 47.6007 83.822 47.0007 83.822C46.4007 83.822 45.7007 83.622 45.3007 83.122L33.5007 71.222ZM65.6007 79.622L75.7007 69.522L65.6007 59.422C64.7007 58.522 64.7007 57.022 65.6007 56.022C66.5007 55.122 68.0007 55.122 69.0007 56.022L80.8007 67.822C81.7007 68.722 81.7007 70.222 80.8007 71.222L69.0007 83.022C68.6007 83.422 68.0007 83.722 67.3007 83.722C66.7007 83.722 66.1007 83.422 65.6007 83.022C64.8007 82.122 64.8007 80.622 65.6007 79.622ZM51.2007 82.522L57.4007 55.422C57.7007 54.122 59.0007 53.322 60.3007 53.622C61.6007 53.922 62.4007 55.222 62.1007 56.522L55.9007 83.622C55.7007 84.722 54.7007 85.522 53.6007 85.522C53.4007 85.522 53.2007 85.522 53.1007 85.522C51.7007 85.222 50.9007 83.922 51.2007 82.522C51.2007 82.522 51.2007 82.622 51.2007 82.522Z" fill="white"/>
</svg>
