<svg width="275" height="258" viewBox="0 0 275 258" fill="none" xmlns="http://www.w3.org/2000/svg">
<path d="M260.376 219.5H228.776C228.176 219.5 227.776 220 227.776 220.5V244.5C227.776 251.5 233.476 257.2 240.476 257.2H248.876C255.876 257.2 261.576 251.5 261.576 244.5V220.5C261.476 219.9 260.976 219.5 260.376 219.5Z" fill="#F16A51"/>
<path d="M256.576 253C263.676 249 275.976 237.1 273.976 228.7C273.476 226.5 272.076 224.8 269.976 223.8C265.276 221.6 258.476 224.3 257.676 224.6L259.976 229.3C261.576 228.6 265.576 227.5 267.476 228.4C267.876 228.6 268.276 228.9 268.476 229.8C269.676 234.7 260.076 245 253.676 248.6L256.576 253Z" fill="#F16A51"/>
<path d="M247.876 209.9C247.976 210.1 247.976 209.8 248.076 209.6L248.276 208.8C248.376 208.3 248.476 207.7 248.576 207.2C248.676 206.1 248.776 204.9 248.776 203.7C248.676 201.3 248.176 198.8 247.276 196.5C246.276 194.2 244.876 192.3 243.376 190.8C242.576 190 241.776 189.4 240.976 188.8L238.976 187.4C236.676 185.8 234.576 183.7 233.076 181.6C232.376 180.5 231.876 179.4 231.676 178.5C231.476 177.6 231.476 177 231.576 176.6C231.676 176.4 231.676 176.2 231.876 175.9C232.076 175.6 232.176 175.1 232.476 174.7C232.976 173.8 233.676 173 234.376 172.2C235.876 170.8 237.676 169.8 239.476 169.6C241.276 169.3 243.176 169.7 245.076 170.6C245.976 171.1 246.976 171.6 247.876 172.4C248.376 172.8 248.776 173.1 249.276 173.6C249.776 174.1 250.176 174.5 250.776 174.6L252.676 174.9C256.776 175.6 260.476 171.9 261.076 166.5C261.376 163.6 260.676 160.7 259.276 158.6C258.676 157.7 257.876 157 257.076 156.4C256.276 155.8 255.376 155.3 254.576 154.7C252.876 153.6 250.976 152.8 249.076 152.2C245.276 150.9 240.976 150.8 236.976 152.1C232.976 153.4 229.176 156.1 226.176 159.9C224.676 161.9 223.376 164 222.376 166.5C221.876 167.7 221.476 169.1 221.076 170.6C220.676 172.2 220.476 174 220.376 175.7C220.276 179.3 221.176 182.6 222.376 185.2C223.576 187.8 225.076 189.7 226.576 191.3C229.576 194.5 232.776 196.3 235.976 197.7L237.176 198.2L237.776 198.4L238.176 198.5C238.776 198.7 239.276 198.9 239.776 199.2C240.776 199.7 241.776 200.3 242.576 201.3C243.376 202.2 244.176 203.4 244.776 204.8C245.076 205.5 245.376 206.3 245.576 207.2C245.676 207.6 245.776 208.1 245.976 208.5L246.176 209.2C246.276 209.5 246.276 209.6 246.476 210.4C246.676 211.1 247.176 211.5 247.776 211.2C247.776 211.4 247.976 210.6 247.876 209.9Z" fill="#F7F7F7"/>
<path d="M125.9 120.1H80.2004C68.5004 120.1 58.9004 110.6 58.9004 98.8V52.9H145.2V100.8C145.2 111.5 136.6 120.1 125.9 120.1Z" fill="#9A1C27"/>
<path d="M169.3 187.4L38.8003 185.2V171.3C38.8003 148.6 66.7003 127.5 94.0003 127.5H114.6C138.9 127.5 169.2 148.8 169.2 168.9V187.4H169.3Z" fill="#05774D"/>
<path d="M110.7 98.9H94.0004C90.6004 98.9 87.9004 101.6 87.9004 105V131C87.9004 138.9 94.3004 145.4 102.3 145.4C110.2 145.4 116.7 139 116.7 131V104.9C116.7 101.6 114 98.9 110.7 98.9Z" fill="#FBC39D"/>
<path d="M88.0005 127.4C88.0005 127.4 89.2005 135.9 102.4 135.9C115.6 135.9 116.8 127.4 116.8 127.4H88.0005Z" fill="#F9AC7F"/>
<path d="M143.701 66.2C138.701 66.2 134.601 70.4001 134.601 75.6001C134.601 80.8001 138.701 85 143.701 85C148.701 85 152.801 80.8001 152.801 75.6001C152.801 70.4001 148.701 66.2 143.701 66.2Z" fill="#F9AC7F"/>
<path d="M61.1005 66.2C56.1005 66.2 52.0005 70.4001 52.0005 75.6001C52.0005 80.8001 56.1005 85 61.1005 85C66.1005 85 70.2005 80.8001 70.2005 75.6001C70.1005 70.4001 66.1005 66.2 61.1005 66.2Z" fill="#F9AC7F"/>
<path d="M99.0003 130.2C100 130.4 101.2 130.4 102.3 130.4C105.7 130.4 109 130 112.2 129.1V129C129.8 124.4 142.8 107.8 142.8 88.1001V38.7C142.8 15.4 124.6 19.1 102.3 19.1C79.9003 19.1 61.8003 15.4 61.8003 38.7V88.1001C61.8003 110.3 78.2003 128.5 99.0003 130.2Z" fill="#FBC39D"/>
<path d="M137.7 72V85.3H120.3C120.3 85.3 116.7 75.7 102.3 75.7C87.9003 75.7 84.3003 85.3 84.3003 85.3H67.0003V72C67.0003 66.7 65.1003 65 61.8003 64.4V88.2C61.8003 110.3 78.2003 128.4 99.0003 130.2L98.9003 130.3C100 130.4 101.1 130.5 102.3 130.5C103.4 130.5 104.6 130.4 105.7 130.3L105.6 130.2C126.4 128.4 142.8 110.3 142.8 88.2V64.4C139.6 65 137.7 66.7 137.7 72Z" fill="#3A0909"/>
<path d="M89.8003 91.1001H114.2C114.2 91.1001 112 100.7 102 100.7C92.0003 100.7 89.8003 91.1001 89.8003 91.1001Z" fill="#E6E6E6"/>
<path d="M198.1 257.2H8.0004C4.1004 257.2 0.900391 254 0.900391 250.1V249.8C0.900391 245.9 4.1004 242.7 8.0004 242.7H198.1C202 242.7 205.2 245.9 205.2 249.8V250.1C205.1 254 202 257.2 198.1 257.2Z" fill="#A1DAC5"/>
<path d="M180.701 257.2H24.2006C19.2006 257.2 15.1006 253.1 15.1006 248.1V158.3C15.1006 153.3 19.2006 149.2 24.2006 149.2H180.701C185.701 149.2 189.801 153.3 189.801 158.3V248.1C189.801 253.1 185.701 257.2 180.701 257.2Z" fill="#C7FDE9"/>
<path d="M103.201 81.3H100.901C98.1005 81.3 96.0005 78.9001 96.3005 76.1001L97.5005 66.7C97.8005 64.4 99.8005 62.7 102.101 62.7C104.401 62.7 106.401 64.4 106.701 66.7L107.901 76.1001C108.101 78.9001 105.901 81.3 103.201 81.3Z" fill="#F9AC7F"/>
<path d="M105.4 7.30005H96.9005C95.0005 7.30005 93.5005 5.80005 93.5005 3.90005V3.70004C93.5005 1.80004 95.0005 0.300049 96.9005 0.300049H105.4C107.3 0.300049 108.8 1.80004 108.8 3.70004V3.90005C108.8 5.80005 107.3 7.30005 105.4 7.30005Z" fill="#952C1B"/>
<path d="M58.9003 52.9H145.2V42.7C145.2 21.8 128.2 4.80004 107.3 4.90004H96.7003C75.8003 4.90004 58.8003 21.9 58.9003 42.8V52.9Z" fill="#F16A51"/>
<path d="M105.1 27.2H97.9002C91.4002 27.2 86.2002 32.4 86.2002 38.9V47H116.8V38.9C116.8 32.4 111.5 27.2 105.1 27.2Z" fill="#3A0909"/>
<path d="M86.7006 40.8H116.801V50.9H86.7006C83.9006 50.9 81.6006 48.6 81.6006 45.8C81.7006 43 84.0006 40.8 86.7006 40.8Z" fill="#FE969A"/>
<path d="M91.6006 46C91.6006 47.4 90.5006 48.5 89.1006 48.5C87.7006 48.5 86.6006 47.4 86.6006 46C86.6006 44.6 87.7006 43.5 89.1006 43.5C90.5006 43.5 91.6006 44.6 91.6006 46Z" fill="#FF553C"/>
<path d="M91.6006 46C91.6006 47.4 90.5006 48.5 89.1006 48.5C87.7006 48.5 86.6006 47.4 86.6006 46C86.6006 44.6 87.7006 43.5 89.1006 43.5C90.5006 43.5 91.6006 44.6 91.6006 46Z" fill="#DB3A40"/>
<path d="M99.7187 48.4567C101.08 48.2257 101.996 46.9349 101.765 45.5737C101.534 44.2125 100.243 43.2962 98.8822 43.5272C97.521 43.7582 96.6047 45.049 96.8357 46.4102C97.0667 47.7714 98.3575 48.6877 99.7187 48.4567Z" fill="#DB3A40"/>
<path d="M111.9 46C111.9 47.4 110.8 48.5 109.4 48.5C108 48.5 106.9 47.4 106.9 46C106.9 44.6 108 43.5 109.4 43.5C110.8 43.5 111.9 44.6 111.9 46Z" fill="#DB3A40"/>
<path d="M86.4005 62.7C86.4005 64.8 84.7005 66.4 82.7005 66.4C80.6005 66.4 79.0005 64.7 79.0005 62.7C79.0005 60.6 80.7005 59 82.7005 59C84.8005 58.9 86.4005 60.6 86.4005 62.7Z" fill="#111110"/>
<path d="M123.7 62.7C123.7 64.8 122 66.4 120 66.4C117.9 66.4 116.3 64.7 116.3 62.7C116.3 60.6 118 59 120 59C122 58.9 123.7 60.6 123.7 62.7Z" fill="#111110"/>
<path d="M116.9 40.7C116.9 40.7 124.3 36.3 123.7 28.9L114.2 31.6001L116.2 23.4L107.8 32.1001L116.9 40.7Z" fill="#3A0909"/>
</svg>
