<svg width="47" height="85" viewBox="0 0 47 85" fill="none" xmlns="http://www.w3.org/2000/svg">
<path d="M27.3998 51.2087H20.2998V4.5087C20.2998 2.5087 21.8998 0.908691 23.8998 0.908691C25.8998 0.908691 27.4998 2.5087 27.4998 4.5087V51.2087H27.3998Z" fill="#E6E6E6"/>
<path d="M38.1 51.2087H31V4.5087C31 2.5087 32.6 0.908691 34.6 0.908691C36.6 0.908691 38.2 2.5087 38.2 4.5087V51.2087H38.1Z" fill="#E6E6E6"/>
<path d="M16.2001 64.8087H9.1001V18.1087C9.1001 16.1087 10.7001 14.5087 12.7001 14.5087C14.7001 14.5087 16.3001 16.1087 16.3001 18.1087V64.8087H16.2001Z" fill="#E6E6E6"/>
<path d="M42.8999 37.4087H3.8999V84.4087H42.8999V37.4087Z" fill="#89EC88"/>
<path d="M47 28.6087H0V37.4087H47V28.6087Z" fill="#00AB6C"/>
</svg>
