<svg width="1883" height="846" viewBox="0 0 1883 846" fill="none" xmlns="http://www.w3.org/2000/svg">
<path d="M1350.78 314.719C1312.47 199.678 1163.97 195.004 1094.51 207.048C778.519 294.432 986.188 532.462 1088.33 525.381C1170.03 519.716 1153.65 469.502 1135.24 445.104C1129.9 421.28 1138.13 377.364 1213.78 392.289C1289.42 407.214 1274.38 482.297 1257.4 517.974C1235.82 561.837 1225.24 657.726 1355.57 690.375C1518.49 731.186 1594.89 631.722 1623.12 552.628C1645.7 489.352 1585.65 463.288 1552.81 458.165C1501.43 458.283 1389.1 429.761 1350.78 314.719Z" fill="url(#paint0_radial)"/>
<path d="M1517.57 319.317C1513.21 301.392 1527.75 259.08 1602.33 217.368C1674.01 177.285 1724.97 66.896 1748.31 40.2752C1771.64 13.6545 1806.42 4.053 1830.37 43.8844C1854.32 83.7158 1813.21 119.773 1789.66 132.823C1770.82 142.487 1729.83 165.277 1716.56 179.126C1703.29 192.976 1705 203.829 1686.3 246.193C1667.6 288.556 1652.71 300.909 1599.81 324.839C1546.9 348.769 1521.93 337.241 1517.57 319.317Z" fill="url(#paint1_linear)"/>
<ellipse cx="1637.29" cy="738.862" rx="56.8525" ry="47.8102" transform="rotate(26.6508 1637.29 738.862)" fill="url(#paint2_linear)"/>
<path d="M220.713 655.673C125.973 799.136 37.6417 755.023 9.57885 740.939C-18.484 726.855 -166.257 591.781 -154.413 568.182C-142.569 544.582 -25.61 510.857 115.146 494.616C329.259 469.911 247.781 606.95 220.713 655.673Z" fill="url(#paint3_linear)"/>
<defs>
<radialGradient id="paint0_radial" cx="0" cy="0" r="1" gradientUnits="userSpaceOnUse" gradientTransform="translate(1130.12 153.702) rotate(71.9997) scale(765.468 1842.38)">
<stop offset="0.193564" stop-color="#F16A51"/>
<stop offset="0.607265" stop-color="#F961EA"/>
<stop offset="1" stop-color="#8061F9"/>
</radialGradient>
<linearGradient id="paint1_linear" x1="1633.88" y1="132.561" x2="1718.3" y2="235.488" gradientUnits="userSpaceOnUse">
<stop stop-color="#F2695D"/>
<stop offset="1" stop-color="#B250DE"/>
</linearGradient>
<linearGradient id="paint2_linear" x1="1592.35" y1="701.951" x2="1703.04" y2="739.352" gradientUnits="userSpaceOnUse">
<stop stop-color="#D361EE"/>
<stop offset="1" stop-color="#F16A51"/>
</linearGradient>
<linearGradient id="paint3_linear" x1="234.657" y1="561.8" x2="316.808" y2="644.876" gradientUnits="userSpaceOnUse">
<stop stop-color="#D361EE"/>
<stop offset="1" stop-color="#F16A51"/>
</linearGradient>
</defs>
</svg>
