<svg width="1920" height="592" viewBox="0 0 1920 592" fill="none" xmlns="http://www.w3.org/2000/svg">
<g clip-path="url(#clip0)">
<g clip-path="url(#clip1)">
<path d="M352.843 310.793C169.249 220.477 63.0019 405.032 -16.1761 484.158C-111.923 582.114 -189.703 409.505 -99.9711 365.104C-10.2395 320.704 -106.056 163.757 -16.1761 89.8509C73.704 15.9449 156.983 79.8169 282.631 112.327C352.843 127.944 511.855 175.74 587.57 185.416C663.284 195.092 793.737 117.525 850 216.792C906.263 316.059 569.358 417.305 352.843 310.793Z" fill="url(#paint0_linear)"/>
<path d="M1590.1 373.365C1678.45 370.818 1636.18 308.063 1642.28 278.347C1649.6 249.772 1672.36 240.304 1700.62 295.598C1728.88 350.892 1723.98 376.392 1720.15 395.127C1717.27 409.238 1716.16 446.585 1655.14 466.616C1635.18 473.171 1577.59 486.96 1515.26 484.313C1452.92 481.667 1409.22 467.984 1415.95 443.276C1422.69 418.569 1485.9 376.369 1590.1 373.365Z" fill="url(#paint1_linear)"/>
<path d="M608.044 228.429V233.729C608.044 233.729 608.744 237.129 609.244 240.729C609.744 244.329 610.144 248.129 609.644 249.029C608.544 250.829 606.444 249.029 606.044 247.229C605.644 245.429 605.144 234.429 605.144 234.429L604.744 227.329L608.044 228.429Z" fill="#1D2992"/>
<path d="M613.444 227.729L612.644 232.429C612.644 232.429 611.044 245.429 611.944 247.429C612.844 249.429 615.644 248.529 615.544 245.829C615.344 243.129 616.044 233.729 616.044 233.729L617.644 228.029L613.444 227.729Z" fill="#1D2992"/>
<path d="M611.244 169.729L610.844 175.629L625.944 182.929C628.644 184.429 629.944 187.629 629.044 190.529L618.644 229.429L613.444 227.829L618.044 192.029C618.344 189.829 616.844 187.829 614.644 187.429L609.244 186.629L603.544 180.829L610.144 186.729C611.744 188.129 612.544 190.329 612.244 192.429L607.944 228.529L603.244 229.729L601.144 194.229C600.944 191.929 599.444 190.029 597.344 189.329L588.044 186.329C586.644 185.329 585.744 183.829 585.644 182.029L586.044 169.529L611.244 169.729Z" fill="#211F1D"/>
<path d="M585.144 182.829L587.644 134.329C587.644 134.329 597.944 133.729 601.044 133.729C602.744 133.729 605.544 134.529 607.844 135.229C609.944 135.929 611.744 135.829 612.744 137.829L629.644 170.229L619.244 171.229L615.744 167.229L617.544 164.529L611.244 149.629L612.444 176.729L585.144 182.829Z" fill="#F16A51"/>
<path opacity="0.5" d="M611.444 143.829L622.644 164.029L619.144 168.129C619.144 168.129 617.744 168.429 616.344 167.929L615.744 167.229L617.544 164.529L611.244 149.629L611.444 143.829Z" fill="url(#paint2_linear)"/>
<path d="M601.444 148.329C598.044 148.329 591.744 139.429 591.744 136.029C591.744 135.329 591.844 134.629 592.044 134.029C595.244 133.829 599.244 133.629 600.944 133.629C601.744 133.629 602.744 133.829 603.744 134.029C603.944 134.629 604.044 135.329 604.044 135.929C604.144 139.429 604.844 148.329 601.444 148.329Z" fill="white"/>
<path d="M586.344 142.729L585.144 183.129L601.844 179.129L586.344 142.729Z" fill="#D65E48"/>
<path d="M602.044 128.729C601.744 129.329 599.744 137.229 599.744 137.229C599.744 137.229 599.044 138.529 597.244 138.429C595.544 138.329 594.744 135.829 594.744 135.829L597.744 125.829L602.044 128.729Z" fill="#EEBCC5"/>
<path d="M591.344 123.829C591.344 129.329 597.144 135.429 602.644 135.429C608.144 135.429 611.244 129.329 611.244 123.829C611.244 118.329 606.844 113.929 601.344 113.929C595.744 113.929 591.344 118.329 591.344 123.829Z" fill="#EEBCC5"/>
<path d="M604.036 135.526C610.055 134.097 613.776 128.06 612.348 122.042C610.919 116.023 604.883 112.302 598.864 113.73C592.845 115.159 589.124 121.195 590.552 127.214C591.981 133.233 598.018 136.954 604.036 135.526Z" fill="#EEBCC5"/>
<path d="M608.844 130.729C608.644 131.129 608.644 131.529 608.944 131.729C609.244 131.929 609.644 131.729 609.844 131.329C610.044 130.929 610.044 130.529 609.744 130.329C609.444 130.129 609.044 130.329 608.844 130.729Z" fill="#3E3577"/>
<path d="M603.144 131.329C602.944 131.729 602.944 132.229 603.244 132.429C603.544 132.629 603.944 132.429 604.244 131.929C604.444 131.529 604.444 131.029 604.144 130.829C603.844 130.629 603.444 130.829 603.144 131.329Z" fill="#3E3577"/>
<path d="M599.344 178.229C599.744 178.129 603.444 176.329 606.044 176.329C608.644 176.329 611.844 179.129 611.844 179.129C611.844 179.129 612.244 180.529 610.544 180.329C608.844 180.029 610.744 181.429 610.744 181.429C610.744 181.429 610.644 181.329 608.644 181.629C606.644 181.929 598.744 181.529 598.744 181.529L599.344 178.229Z" fill="#EEBCC5"/>
<path d="M587.544 134.329L586.144 166.229L599.244 178.129L598.644 181.429L580.244 171.629C578.444 170.629 577.444 168.729 577.744 166.729L581.044 142.229C581.344 139.229 583.144 136.529 585.944 135.129L587.544 134.329Z" fill="#F16A51"/>
<path d="M598.044 184.229H631.444V181.729H598.044C597.344 181.729 596.844 182.229 596.844 182.929C596.744 183.629 597.344 184.229 598.044 184.229Z" fill="white"/>
<path d="M607.144 184.229H639.444C640.844 184.229 642.144 183.229 642.444 181.929L648.144 160.529C648.644 158.529 647.144 156.529 645.144 156.529H616.944C615.544 156.529 614.244 157.529 613.944 158.829L607.144 184.229Z" fill="#5793CE"/>
<path d="M601.444 113.429C607.144 113.429 611.944 117.729 612.544 123.329C610.644 124.729 608.044 125.429 605.644 125.029C602.844 124.529 600.344 122.629 599.144 120.029C599.244 121.229 599.344 122.529 599.144 123.729C598.944 124.929 598.444 126.129 597.444 126.929C597.344 126.029 597.244 125.129 596.844 124.429C596.344 123.729 595.444 123.129 594.644 123.429C594.044 123.629 593.644 124.229 593.644 124.929C593.544 125.529 593.744 126.129 593.944 126.729C594.344 127.629 594.844 128.529 595.544 129.229C594.244 129.429 592.844 129.629 591.544 129.429C590.844 127.929 590.444 126.329 590.444 124.629C590.244 118.429 595.244 113.429 601.444 113.429Z" fill="#1D2992"/>
<path d="M591.844 126.429C591.844 128.329 593.344 129.829 595.244 129.829C597.144 129.829 598.644 128.329 598.644 126.429C598.644 124.529 597.144 123.029 595.244 123.029C593.344 123.029 591.844 124.529 591.844 126.429Z" fill="#EEBCC5"/>
<path d="M613.444 227.729L612.844 231.329L616.444 232.429L617.344 228.929L613.444 227.729Z" fill="#EEBCC5"/>
<path d="M608.044 232.429L605.044 232.929L604.944 229.229L608.044 228.429V232.429Z" fill="#EEBCC5"/>
<path d="M588.044 109.429C588.044 113.429 591.244 116.629 595.244 116.629C599.244 116.629 602.444 113.429 602.444 109.429C602.444 105.429 599.244 102.229 595.244 102.229C591.244 102.229 588.044 105.429 588.044 109.429Z" fill="#1D2992"/>
<path d="M251.002 408.792C279.065 422.876 311.415 415.162 323.259 391.562C335.103 367.963 321.955 337.414 293.892 323.33C265.83 309.246 233.479 316.96 221.635 340.56C209.791 364.159 222.939 394.708 251.002 408.792Z" fill="url(#paint3_linear)"/>
<path d="M1825.19 385.84C1751.61 338.687 1648.48 221.522 1670.24 152.568C1709.35 43.8051 1950.87 -33.6129 2024.44 13.5411C2098.02 60.6941 2094.73 221.466 2053.3 286.114C2011.87 350.762 1898.76 432.993 1825.19 385.84Z" fill="url(#paint4_linear)"/>
<path d="M714.7 471.247C701.1 471.247 690 482.347 690 495.947V540.547C690 554.147 701.1 565.247 714.7 565.247C728.3 565.247 739.4 554.147 739.4 540.547V495.947C739.4 482.347 728.3 471.247 714.7 471.247Z" fill="#B461F2"/>
<path d="M714.8 483.247H714V592.047H714.8V483.247Z" fill="#F6D1FF"/>
<path d="M702.1 516.047L714.2 526.147L727.7 516.547L727.3 515.847L714.2 525.147L702.8 515.447L702.1 516.047Z" fill="#F6D1FF"/>
<path d="M702.1 540.247L714.2 550.347L727.7 540.747L727.3 540.047L714.2 549.347L702.8 539.647L702.1 540.247Z" fill="#F6D1FF"/>
<path d="M702.1 491.847L714.2 501.947L727.7 492.347L727.3 491.647L714.2 500.947L702.8 491.247L702.1 491.847Z" fill="#F6D1FF"/>
<path d="M721.6 592.147H708.5C708.2 592.147 708 591.947 708 591.647C708 591.347 708.2 591.147 708.5 591.147H721.6C721.9 591.147 722.1 591.347 722.1 591.647C722.1 591.847 721.9 592.147 721.6 592.147Z" fill="#B461F2"/>
</g>
</g>
<defs>
<linearGradient id="paint0_linear" x1="7.1461" y1="-27.3031" x2="413.565" y2="628.334" gradientUnits="userSpaceOnUse">
<stop offset="0.0104167" stop-color="#F16A51"/>
<stop offset="0.494792" stop-color="#B761F2"/>
<stop offset="0.979167" stop-color="#5869FF"/>
</linearGradient>
<linearGradient id="paint1_linear" x1="1713.66" y1="377.166" x2="1471.55" y2="501.207" gradientUnits="userSpaceOnUse">
<stop offset="0.0104167" stop-color="#F16A51"/>
<stop offset="0.494792" stop-color="#B761F2"/>
<stop offset="0.979167" stop-color="#5869FF"/>
</linearGradient>
<linearGradient id="paint2_linear" x1="622.626" y1="156.018" x2="611.18" y2="156.018" gradientUnits="userSpaceOnUse">
<stop stop-color="#D37897" stop-opacity="0"/>
<stop offset="0.8988" stop-color="#BC547C"/>
</linearGradient>
<linearGradient id="paint3_linear" x1="248.836" y1="312.913" x2="330.987" y2="395.989" gradientUnits="userSpaceOnUse">
<stop stop-color="#D361EE"/>
<stop offset="1" stop-color="#F16A51"/>
</linearGradient>
<linearGradient id="paint4_linear" x1="2082.24" y1="174.119" x2="1869.37" y2="374.885" gradientUnits="userSpaceOnUse">
<stop stop-color="#D361EE"/>
<stop offset="1" stop-color="#F16A51"/>
</linearGradient>
<clipPath id="clip0">
<rect width="1920" height="592" fill="white"/>
</clipPath>
<clipPath id="clip1">
<rect width="1920" height="1119" fill="white" transform="translate(0 -285)"/>
</clipPath>
</defs>
</svg>
