<svg width="391" height="329" viewBox="0 0 391 329" fill="none" xmlns="http://www.w3.org/2000/svg">
<path d="M0.947746 239.307C3.64806 225.25 19.3882 216.457 36.1044 219.668C52.8205 222.879 64.1826 236.878 61.4823 250.935C58.782 264.993 43.0418 273.786 26.3257 270.575C9.60952 267.364 -1.75256 253.365 0.947746 239.307Z" fill="url(#paint0_linear)"/>
<path d="M250.577 78.4497C231.308 20.5935 156.624 18.243 121.691 24.2997C-37.2246 68.247 0.577042 175.003 58.8004 221.858C65.3902 227.161 75.6856 241.303 70.1864 262.014C61.7767 318.85 104.629 328.929 126.685 328.929C165.63 328.929 188.016 297.675 188.016 297.675C219.771 258.065 230.514 267.373 252.985 267.373C324.675 267.373 373.34 237.875 387.537 198.098C398.896 166.275 368.696 153.167 352.177 150.591C326.339 150.65 269.846 136.306 250.577 78.4497Z" fill="url(#paint1_radial)"/>
<path d="M280.312 18.8451C290.132 -0.736832 324.144 -2.76607 334.967 2.66158C361.166 15.8007 355.285 34.5617 347.991 56.4446C342.727 72.2364 332.999 86.5243 319 82.7643C285.905 73.876 270.491 38.4271 280.312 18.8451Z" fill="url(#paint2_linear)"/>
<defs>
<linearGradient id="paint0_linear" x1="51.3665" y1="269.368" x2="-3.73639" y2="238.137" gradientUnits="userSpaceOnUse">
<stop stop-color="#D361EE"/>
<stop offset="1" stop-color="#F16A51"/>
</linearGradient>
<radialGradient id="paint1_radial" cx="0" cy="0" r="1" gradientUnits="userSpaceOnUse" gradientTransform="translate(57.7006 37.507) rotate(58.3678) scale(382.988 921.8)">
<stop offset="0.193564" stop-color="#F16A51"/>
<stop offset="0.607265" stop-color="#F961EA"/>
<stop offset="1" stop-color="#617AF9"/>
</radialGradient>
<linearGradient id="paint2_linear" x1="318.948" y1="73.2601" x2="280.731" y2="45.94" gradientUnits="userSpaceOnUse">
<stop stop-color="#D361EE"/>
<stop offset="1" stop-color="#F16A51"/>
</linearGradient>
</defs>
</svg>
