<svg width="286" height="295" viewBox="0 0 286 295" fill="none" xmlns="http://www.w3.org/2000/svg">
<g clip-path="url(#clip0)">
<path opacity="0.5" d="M246.776 249.422L218.677 232.593C217.647 231.974 217.798 230.93 219.007 230.256L249.345 213.338C250.554 212.664 252.374 212.62 253.404 213.233L281.503 230.062C282.533 230.681 282.382 231.725 281.173 232.399L250.835 249.317C249.62 249.997 247.806 250.041 246.776 249.422Z" fill="#173D7A"/>
<path d="M282.322 219.191L252.278 201.193C251.109 200.493 250.183 198.653 250.208 197.078L251.375 124.517C251.4 122.942 252.366 122.24 253.535 122.94L283.58 140.938C284.749 141.638 285.674 143.478 285.649 145.053L284.483 217.62C284.458 219.183 283.491 219.891 282.322 219.191Z" fill="url(#paint0_linear)"/>
<path d="M283.58 140.932L253.535 122.934C253.011 122.621 252.531 122.589 252.156 122.79L217.216 142.207L218.749 148.273L248.87 238.681L283.67 219.347C283.676 219.347 283.682 219.341 283.688 219.335L283.75 219.299C284.186 219.033 284.469 218.447 284.483 217.608L285.649 145.041C285.674 143.472 284.749 141.632 283.58 140.932Z" fill="#396CAA"/>
<path d="M283.58 140.932L253.535 122.934C253.011 122.621 252.531 122.589 252.156 122.79L217.216 142.207L218.749 148.273L227.031 173.137L228.652 174.106L285.09 142.72C284.713 141.948 284.176 141.288 283.58 140.932Z" fill="#D4ECFF"/>
<path d="M247.406 238.591L217.361 220.593C216.192 219.893 215.267 218.053 215.292 216.484L216.458 143.917C216.484 142.342 217.45 141.639 218.619 142.34L248.663 160.331C249.832 161.032 250.758 162.872 250.733 164.447L249.566 237.013C249.541 238.583 248.575 239.291 247.406 238.591Z" fill="#5793CE"/>
<path d="M245.566 234.193L219.306 218.458C218.282 217.846 217.474 216.239 217.496 214.864L218.579 147.468C218.601 146.093 219.445 145.474 220.469 146.086L246.729 161.815C247.748 162.428 248.561 164.035 248.539 165.409L247.456 232.8C247.434 234.187 246.591 234.8 245.566 234.193Z" fill="url(#paint1_linear)"/>
<path d="M245.566 234.193L219.306 218.458C218.282 217.846 217.474 216.239 217.496 214.864L218.579 147.468C218.601 146.093 219.445 145.474 220.469 146.086L246.729 161.815C247.748 162.428 248.561 164.035 248.539 165.409L247.456 232.8C247.434 234.187 246.591 234.8 245.566 234.193Z" fill="url(#paint2_linear)"/>
<path d="M245.566 234.193L219.306 218.458C218.282 217.846 217.474 216.239 217.496 214.864L218.579 147.468C218.601 146.093 219.445 145.474 220.469 146.086L246.729 161.815C247.748 162.428 248.561 164.035 248.539 165.409L247.456 232.8C247.434 234.187 246.591 234.8 245.566 234.193Z" fill="#173D7A"/>
<path d="M246.444 233.696L220.178 217.961C219.16 217.355 218.346 215.742 218.368 214.367L219.451 146.977C219.459 146.508 219.562 146.133 219.737 145.856C219.068 145.839 218.596 146.446 218.579 147.474L217.496 214.864C217.474 216.239 218.282 217.852 219.306 218.458L245.566 234.187C246.241 234.587 246.833 234.457 247.171 233.927C246.945 233.923 246.697 233.846 246.444 233.696Z" fill="#396CAA"/>
<path d="M246.063 203.247L236.302 197.402L220.439 206.224L247.622 222.503L247.873 206.847C247.895 205.473 247.088 203.86 246.063 203.247Z" fill="#173D7A"/>
<path d="M246.285 189.441L236.524 183.595L220.661 192.411L247.844 208.69L248.095 193.035C248.117 191.66 247.31 190.053 246.285 189.441Z" fill="#173D7A"/>
<path d="M246.507 175.628L236.745 169.783L220.883 178.605L248.065 194.884L248.317 179.228C248.339 177.854 247.532 176.241 246.507 175.628Z" fill="#173D7A"/>
<path d="M246.729 161.821L236.967 155.976L221.105 164.792L248.287 181.071L248.539 165.415C248.561 164.041 247.753 162.434 246.729 161.821Z" fill="#173D7A"/>
<path d="M246.73 161.821L225.122 148.875L221.334 150.98L248.51 167.264L248.54 165.415C248.562 164.041 247.754 162.434 246.73 161.821Z" fill="#173D7A"/>
<path d="M248.509 167.264L221.327 150.985L221.187 159.713L248.369 175.992L248.509 167.264Z" fill="#5793CE"/>
<path d="M248.287 181.071L221.105 164.792L220.965 173.52L248.147 189.799L248.287 181.071Z" fill="#5793CE"/>
<path d="M248.066 194.884L220.883 178.605L220.743 187.333L247.925 203.612L248.066 194.884Z" fill="#5793CE"/>
<path d="M247.844 208.69L220.661 192.411L220.521 201.139L247.703 217.418L247.844 208.69Z" fill="#5793CE"/>
<path d="M247.622 222.503L220.439 206.224L220.299 214.952L247.481 231.231L247.622 222.503Z" fill="#5793CE"/>
<path d="M245.999 172.839L225.529 160.58C224.951 160.236 224.491 159.322 224.503 158.544L224.541 156.208C224.553 155.43 225.033 155.079 225.612 155.429L246.081 167.688C246.66 168.032 247.12 168.946 247.107 169.724L247.07 172.06C247.057 172.838 246.577 173.189 245.999 172.839Z" fill="#173D7A"/>
<path opacity="0.3" d="M226.583 160.148C226.004 159.804 225.544 158.89 225.557 158.111L225.594 155.776C225.596 155.654 225.616 155.545 225.636 155.442L225.612 155.429C225.033 155.085 224.553 155.43 224.541 156.209L224.503 158.545C224.491 159.323 224.951 160.231 225.529 160.581L245.999 172.84C246.487 173.134 246.898 172.927 247.022 172.394L226.583 160.148Z" fill="#06033E"/>
<path d="M239.618 166.331L227.301 158.954C227.096 158.835 226.937 158.51 226.942 158.236C226.946 157.963 227.112 157.838 227.317 157.962L239.634 165.339C239.839 165.458 239.998 165.783 239.994 166.057C239.989 166.331 239.823 166.456 239.618 166.331Z" fill="white"/>
<path d="M245.778 186.567L225.308 174.302C224.73 173.958 224.27 173.044 224.283 172.265L224.32 169.93C224.333 169.151 224.813 168.8 225.391 169.15L245.861 181.409C246.439 181.753 246.899 182.667 246.887 183.446L246.849 185.781C246.836 186.566 246.356 186.911 245.778 186.567Z" fill="#173D7A"/>
<path opacity="0.3" d="M226.362 173.875C225.783 173.531 225.323 172.617 225.336 171.839L225.373 169.503C225.375 169.382 225.395 169.272 225.415 169.169L225.391 169.151C224.813 168.807 224.333 169.152 224.32 169.93L224.283 172.266C224.27 173.044 224.73 173.952 225.308 174.302L245.778 186.561C246.266 186.855 246.677 186.649 246.801 186.116L226.362 173.875Z" fill="#06033E"/>
<path d="M239.397 180.058L227.08 172.681C226.875 172.563 226.716 172.238 226.721 171.964C226.725 171.69 226.892 171.565 227.096 171.69L239.413 179.067C239.618 179.186 239.777 179.511 239.773 179.784C239.768 180.052 239.602 180.177 239.397 180.058Z" fill="white"/>
<path d="M245.555 200.423L225.086 188.164C224.507 187.82 224.047 186.906 224.06 186.128L224.097 183.792C224.11 183.014 224.59 182.662 225.169 183.012L245.638 195.272C246.217 195.615 246.676 196.529 246.664 197.308L246.626 199.643C246.614 200.416 246.134 200.767 245.555 200.423Z" fill="#173D7A"/>
<path opacity="0.3" d="M226.139 187.724C225.561 187.38 225.101 186.466 225.113 185.687L225.151 183.352C225.153 183.23 225.173 183.121 225.193 183.018L225.169 182.999C224.59 182.655 224.11 183 224.098 183.779L224.06 186.114C224.048 186.893 224.508 187.801 225.086 188.151L245.556 200.41C246.044 200.704 246.455 200.497 246.579 199.964L226.139 187.724Z" fill="#06033E"/>
<path d="M239.175 193.907L226.858 186.531C226.653 186.412 226.494 186.087 226.499 185.813C226.503 185.539 226.669 185.414 226.874 185.539L239.191 192.916C239.396 193.035 239.555 193.36 239.55 193.634C239.546 193.907 239.38 194.032 239.175 193.907Z" fill="#D4ECFF"/>
<path d="M245.331 214.399L224.861 202.14C224.283 201.796 223.823 200.882 223.835 200.103L223.873 197.768C223.885 196.989 224.366 196.638 224.944 196.988L245.413 209.247C245.992 209.591 246.452 210.505 246.439 211.284L246.402 213.619C246.389 214.398 245.909 214.743 245.331 214.399Z" fill="#173D7A"/>
<path opacity="0.3" d="M225.915 201.707C225.336 201.363 224.876 200.449 224.889 199.671L224.926 197.335C224.928 197.214 224.948 197.104 224.968 197.001L224.944 196.989C224.365 196.645 223.885 196.99 223.873 197.769L223.835 200.104C223.823 200.883 224.283 201.79 224.861 202.14L245.331 214.4C245.819 214.693 246.23 214.487 246.354 213.954L225.915 201.707Z" fill="#06033E"/>
<path d="M238.95 207.89L226.633 200.513C226.428 200.395 226.269 200.07 226.274 199.796C226.278 199.522 226.444 199.397 226.649 199.522L238.966 206.899C239.171 207.018 239.33 207.343 239.326 207.616C239.321 207.89 239.155 208.009 238.95 207.89Z" fill="#F16A51"/>
<path d="M245.11 228.102L224.641 215.843C224.062 215.499 223.603 214.585 223.615 213.807L223.653 211.471C223.665 210.693 224.145 210.341 224.724 210.691L245.193 222.951C245.772 223.294 246.232 224.208 246.219 224.987L246.182 227.322C246.169 228.101 245.689 228.446 245.11 228.102Z" fill="#173D7A"/>
<path opacity="0.3" d="M225.694 215.41C225.116 215.066 224.656 214.153 224.668 213.374L224.706 211.038C224.708 210.917 224.728 210.808 224.748 210.705L224.724 210.692C224.145 210.348 223.665 210.693 223.653 211.472L223.615 213.807C223.603 214.586 224.063 215.494 224.641 215.844L245.11 228.103C245.599 228.397 246.009 228.19 246.134 227.657L225.694 215.41Z" fill="#06033E"/>
<path d="M238.73 221.593L226.413 214.217C226.208 214.098 226.049 213.773 226.054 213.499C226.058 213.225 226.224 213.1 226.429 213.225L238.746 220.602C238.951 220.721 239.11 221.046 239.105 221.32C239.101 221.593 238.935 221.712 238.73 221.593Z" fill="#D4ECFF"/>
<path opacity="0.5" d="M221.327 150.985L223.473 152.267L223.332 160.995L221.187 159.713L221.327 150.985Z" fill="#173D7A"/>
<path opacity="0.5" d="M221.105 164.792L223.251 166.074L223.11 174.802L220.965 173.52L221.105 164.792Z" fill="#173D7A"/>
<path opacity="0.5" d="M220.883 178.605L223.029 179.886L222.888 188.614L220.743 187.333L220.883 178.605Z" fill="#173D7A"/>
<path opacity="0.5" d="M220.661 192.411L222.807 193.693L222.666 202.421L220.521 201.139L220.661 192.411Z" fill="#173D7A"/>
<path opacity="0.5" d="M220.439 206.224L222.585 207.506L222.444 216.234L220.299 214.952L220.439 206.224Z" fill="#173D7A"/>
<path d="M242.055 167.234C242.051 167.514 241.854 167.62 241.613 167.482C241.372 167.338 241.183 166.995 241.187 166.715C241.192 166.435 241.388 166.329 241.629 166.466C241.87 166.61 242.06 166.954 242.055 167.234Z" fill="#D4ECFF"/>
<path d="M243.893 168.334C243.888 168.614 243.692 168.72 243.451 168.582C243.21 168.439 243.021 168.095 243.025 167.815C243.03 167.535 243.226 167.429 243.467 167.567C243.708 167.71 243.897 168.054 243.893 168.334Z" fill="#F16A51"/>
<path d="M245.731 169.434C245.726 169.714 245.53 169.82 245.289 169.683C245.048 169.539 244.859 169.195 244.863 168.915C244.868 168.636 245.064 168.529 245.305 168.667C245.54 168.811 245.735 169.155 245.731 169.434Z" fill="#D4ECFF"/>
<path d="M241.833 181.034C241.829 181.314 241.632 181.42 241.391 181.283C241.15 181.139 240.961 180.795 240.965 180.515C240.97 180.236 241.166 180.129 241.407 180.267C241.648 180.417 241.838 180.754 241.833 181.034Z" fill="#F16A51"/>
<path d="M243.671 182.134C243.667 182.414 243.47 182.521 243.229 182.383C242.988 182.239 242.799 181.895 242.804 181.616C242.808 181.336 243.004 181.229 243.246 181.367C243.487 181.517 243.676 181.855 243.671 182.134Z" fill="#D4ECFF"/>
<path d="M245.509 183.235C245.504 183.515 245.308 183.621 245.067 183.483C244.826 183.339 244.637 182.996 244.641 182.716C244.646 182.436 244.842 182.33 245.083 182.467C245.318 182.617 245.513 182.955 245.509 183.235Z" fill="white"/>
<path d="M241.61 194.944C241.605 195.224 241.409 195.33 241.168 195.193C240.927 195.049 240.738 194.705 240.742 194.425C240.747 194.146 240.943 194.039 241.184 194.177C241.425 194.321 241.614 194.664 241.61 194.944Z" fill="white"/>
<path d="M243.448 196.044C243.443 196.324 243.247 196.431 243.006 196.293C242.765 196.149 242.575 195.805 242.58 195.526C242.584 195.246 242.781 195.139 243.022 195.277C243.263 195.421 243.452 195.765 243.448 196.044Z" fill="#F16A51"/>
<path d="M245.286 197.145C245.281 197.425 245.085 197.531 244.844 197.393C244.602 197.249 244.413 196.906 244.418 196.626C244.422 196.346 244.619 196.24 244.86 196.377C245.095 196.521 245.29 196.865 245.286 197.145Z" fill="white"/>
<path d="M241.39 208.647C241.385 208.927 241.189 209.034 240.948 208.896C240.706 208.752 240.517 208.408 240.522 208.128C240.526 207.849 240.723 207.742 240.964 207.88C241.205 208.024 241.394 208.368 241.39 208.647Z" fill="white"/>
<path d="M243.227 209.748C243.223 210.027 243.027 210.134 242.785 209.996C242.544 209.852 242.355 209.509 242.36 209.229C242.364 208.949 242.561 208.843 242.802 208.98C243.043 209.124 243.232 209.468 243.227 209.748Z" fill="#D4ECFF"/>
<path d="M245.065 210.848C245.061 211.128 244.864 211.234 244.623 211.096C244.382 210.953 244.193 210.609 244.197 210.329C244.202 210.049 244.398 209.943 244.639 210.081C244.874 210.224 245.07 210.568 245.065 210.848Z" fill="#D4ECFF"/>
<path d="M241.166 222.539C241.162 222.819 240.965 222.925 240.724 222.788C240.483 222.644 240.294 222.3 240.298 222.02C240.303 221.74 240.499 221.634 240.74 221.772C240.982 221.916 241.171 222.259 241.166 222.539Z" fill="white"/>
<path d="M243.004 223.639C243 223.919 242.803 224.025 242.562 223.888C242.321 223.744 242.132 223.4 242.136 223.12C242.141 222.841 242.337 222.734 242.578 222.872C242.819 223.016 243.009 223.36 243.004 223.639Z" fill="#F16A51"/>
<path d="M244.842 224.74C244.837 225.019 244.641 225.126 244.4 224.988C244.159 224.844 243.97 224.501 243.974 224.221C243.979 223.941 244.175 223.835 244.416 223.972C244.651 224.116 244.846 224.46 244.842 224.74Z" fill="#D4ECFF"/>
<path d="M254.266 228.888L255.259 167.099L255.388 167.028L281.452 152.536L280.459 214.325L280.331 214.396L254.266 228.888ZM255.765 167.399L254.791 228.008L279.953 214.019L280.927 153.41L255.765 167.399Z" fill="#173D7A"/>
<path d="M274.297 180.224L262.609 186.722C261.823 187.16 261.199 186.669 261.215 185.635L261.318 179.218C261.335 178.178 261.987 176.984 262.773 176.553L274.461 170.055C275.246 169.617 275.871 170.108 275.854 171.142L275.751 177.564C275.729 178.592 275.083 179.786 274.297 180.224Z" fill="#173D7A"/>
<path d="M274.742 169.931C274.806 170.114 274.839 170.328 274.835 170.577L274.732 177C274.715 178.04 274.063 179.234 273.278 179.666L261.59 186.164C261.492 186.217 261.4 186.258 261.308 186.281C261.506 186.85 262.007 187.053 262.603 186.722L274.291 180.224C275.077 179.786 275.728 178.592 275.745 177.558L275.848 171.135C275.863 170.229 275.39 169.741 274.742 169.931Z" fill="#5793CE"/>
<path d="M272.243 176.327C272.457 176.209 272.632 176.309 272.628 176.559L272.605 178.018C272.601 178.268 272.42 178.563 272.205 178.681C271.99 178.799 271.815 178.699 271.819 178.45L271.843 176.99C271.847 176.741 272.028 176.446 272.243 176.327Z" fill="white"/>
<path d="M270.564 177.438C270.779 177.32 270.954 177.42 270.95 177.669L270.929 178.947C270.925 179.196 270.744 179.491 270.529 179.609C270.314 179.728 270.139 179.628 270.143 179.378L270.164 178.101C270.168 177.858 270.349 177.562 270.564 177.438Z" fill="#D4ECFF"/>
<path d="M268.911 176.943C269.126 176.825 269.301 176.925 269.297 177.174L269.253 179.881C269.249 180.13 269.068 180.426 268.853 180.544C268.638 180.662 268.463 180.562 268.467 180.312L268.511 177.612C268.515 177.363 268.696 177.067 268.911 176.943Z" fill="#F16A51"/>
<path d="M267.26 176.314C267.475 176.196 267.65 176.296 267.646 176.546L267.577 180.815C267.573 181.065 267.392 181.36 267.177 181.478C266.962 181.596 266.788 181.496 266.792 181.247L266.86 176.977C266.864 176.734 267.039 176.438 267.26 176.314Z" fill="#D4ECFF"/>
<path d="M265.577 177.699C265.792 177.58 265.967 177.681 265.963 177.93L265.901 181.75C265.897 181.999 265.716 182.294 265.501 182.412C265.287 182.531 265.112 182.43 265.116 182.181L265.177 178.361C265.181 178.112 265.356 177.817 265.577 177.699Z" fill="#D4ECFF"/>
<path d="M263.867 180.372C264.082 180.254 264.257 180.354 264.253 180.604L264.219 182.678C264.215 182.927 264.034 183.222 263.819 183.34C263.605 183.459 263.43 183.359 263.434 183.109L263.467 181.035C263.477 180.792 263.652 180.497 263.867 180.372Z" fill="white"/>
<path d="M271.871 175.579C271.867 175.822 272.036 175.923 272.251 175.804C272.466 175.686 272.641 175.391 272.645 175.148C272.649 174.904 272.48 174.804 272.265 174.922C272.05 175.047 271.875 175.336 271.871 175.579Z" fill="#F16A51"/>
<path d="M271.893 174.205C271.889 174.448 272.058 174.548 272.273 174.43C272.488 174.312 272.663 174.016 272.667 173.773C272.671 173.53 272.502 173.43 272.287 173.548C272.072 173.672 271.897 173.961 271.893 174.205Z" fill="white"/>
</g>
<g clip-path="url(#clip1)">
<path d="M69.2997 34.482L45.5265 23.5125C45.0569 23.2951 44.604 23.3246 44.2327 23.5361L44.2375 23.5238L41.6598 25.0377C41.6598 25.0377 42.7014 25.2975 43.3134 25.4546L41.5596 42.1956C41.4178 43.5578 42.1585 45.0582 43.2146 45.5416L65.9376 56.0272L65.7326 57.9927L68.3333 56.4709L68.321 56.4661C68.7637 56.1949 69.082 55.6628 69.1568 54.9281L70.9494 37.8343C71.0965 36.4658 70.3563 34.9712 69.2997 34.482Z" fill="#8D46C1"/>
<path d="M64.3643 58.0409L40.5911 47.0714C39.5345 46.5822 38.7943 45.0876 38.9361 43.7255L40.7287 26.6317C40.8704 25.2696 41.8411 24.5595 42.8977 25.0488L66.6709 36.0183C67.7275 36.5075 68.4677 38.002 68.3259 39.3642L66.5334 56.4579C66.3975 57.8195 65.4209 58.5301 64.3643 58.0409Z" fill="#B461F2"/>
<path d="M67.1743 35.7651L43.3952 24.7962C42.8391 24.5393 42.3142 24.6228 41.9116 24.9436C42.2119 24.8629 42.5512 24.8852 42.897 25.0429L66.6702 36.0124C67.7268 36.5016 68.4676 38.002 68.3253 39.3583L66.5327 56.4521C66.4615 57.0977 66.2051 57.5945 65.8414 57.8881C66.4597 57.7251 66.931 57.1198 67.025 56.2059L68.824 39.1175C68.9716 37.7548 68.2309 36.2544 67.1743 35.7651Z" fill="white"/>
<path d="M49.6746 40.4064C49.57 41.3983 48.7668 41.8682 47.8831 41.4578C46.9993 41.0475 46.3634 39.9162 46.468 38.9243C46.5726 37.9325 47.3758 37.4626 48.2595 37.8729C49.1432 38.2833 49.7792 39.4146 49.6746 40.4064Z" fill="white"/>
<path d="M54.5308 42.649C54.4262 43.6409 53.623 44.1108 52.7393 43.7004C51.8555 43.2901 51.2196 42.1588 51.3242 41.1669C51.4288 40.1751 52.232 39.7052 53.1157 40.1155C54.0053 40.5254 54.6354 41.6572 54.5308 42.649Z" fill="white"/>
<path d="M59.3929 44.8911C59.2883 45.883 58.485 46.3529 57.6013 45.9425C56.7176 45.5321 56.0816 44.4009 56.1862 43.409C56.2908 42.4171 57.0941 41.9472 57.9778 42.3576C58.8615 42.768 59.4975 43.8992 59.3929 44.8911Z" fill="white"/>
<path d="M57.2355 14.2997L33.4564 3.33078C32.9868 3.11334 32.5397 3.14237 32.1685 3.35383L32.1733 3.34156L29.595 4.84951C29.595 4.84951 30.6366 5.10934 31.2486 5.26642L29.4948 22.0075C29.353 23.3696 30.0938 24.8701 31.1499 25.3534L53.8729 35.839L53.6679 37.8046L56.2686 36.2828L56.2563 36.278C56.699 36.0067 57.0172 35.4746 57.0921 34.74L58.8847 17.6462C59.0328 16.2894 58.2921 14.789 57.2355 14.2997Z" fill="#5793CE"/>
<path d="M52.3001 37.8586L28.5269 26.8891C27.4703 26.3999 26.7301 24.9054 26.8719 23.5432L28.6645 6.44946C28.8062 5.08732 29.7769 4.37725 30.8335 4.86649L54.6067 15.836C55.6633 16.3252 56.4035 17.8198 56.2617 19.1819L54.4692 36.2757C54.3274 37.6378 53.3567 38.3479 52.3001 37.8586Z" fill="#D4ECFF"/>
<path d="M55.1049 15.5892L31.3317 4.61976C30.7757 4.36288 30.2507 4.44637 29.8481 4.76722C30.1484 4.68651 30.4877 4.70874 30.8335 4.86649L54.6067 15.836C55.6633 16.3252 56.4041 17.8256 56.2618 19.1819L54.4692 36.2757C54.4039 36.9207 54.1417 37.4181 53.7779 37.7117C54.3962 37.5487 54.8675 36.9434 54.9615 36.0295L56.7541 18.9357C56.9017 17.573 56.161 16.0726 55.1049 15.5892Z" fill="white"/>
<path d="M37.6046 20.2247C37.4999 21.2166 36.6967 21.6865 35.813 21.2761C34.9293 20.8657 34.2933 19.7344 34.3979 18.7426C34.5025 17.7507 35.3057 17.2808 36.1895 17.6912C37.0732 18.1016 37.7097 19.2387 37.6046 20.2247Z" fill="white"/>
<path d="M42.4666 22.4668C42.362 23.4586 41.5588 23.9285 40.675 23.5182C39.7913 23.1078 39.1553 21.9765 39.26 20.9847C39.3646 19.9928 40.1678 19.5229 41.0515 19.9333C41.9352 20.3436 42.5718 21.4808 42.4666 22.4668Z" fill="white"/>
<path d="M47.3228 24.7094C47.2182 25.7012 46.415 26.1711 45.5312 25.7608C44.6475 25.3504 44.0115 24.2191 44.1162 23.2273C44.2208 22.2354 45.024 21.7655 45.9077 22.1759C46.7914 22.5862 47.428 23.7234 47.3228 24.7094Z" fill="white"/>
</g>
<g clip-path="url(#clip2)">
<path opacity="0.5" d="M108.67 248.425L8.82747 190.777C6.00488 189.144 6.36027 186.301 9.62025 184.414L77.6083 145.171C80.8683 143.285 85.8027 143.087 88.6253 144.714L188.468 202.361C191.291 203.995 190.935 206.838 187.675 208.724L119.687 247.967C116.434 249.853 111.5 250.051 108.67 248.425Z" fill="#173D7A"/>
<path d="M221.786 79.8214L114.487 17.8749C113.243 17.1573 111.971 17.0411 110.851 17.4307L110.857 17.417L110.659 17.4922C110.646 17.499 110.625 17.5058 110.611 17.5127L106.736 18.9957L110.215 20.6975C110.201 20.759 110.181 20.8205 110.167 20.8888L91.2087 107.111C90.3339 111.095 92.0835 115.743 95.118 117.492L199.834 177.949L199.458 182.384L203.695 180.744C205.117 180.081 206.258 178.571 206.73 176.425L225.688 90.2028C226.577 86.2252 224.827 81.5778 221.786 79.8214Z" fill="#173D7A"/>
<path d="M221.786 79.8214L114.486 17.8749C113.243 17.1573 111.971 17.0411 110.851 17.4307L110.857 17.417L110.659 17.4922C110.646 17.499 110.625 17.5058 110.611 17.5127L106.736 18.9957L110.215 20.6975C110.201 20.759 110.181 20.8205 110.167 20.8888L97.1682 79.9854L149.67 120.889L225.175 84.1065C224.465 82.2544 223.282 80.6894 221.786 79.8214Z" fill="#396CAA"/>
<path d="M217.74 92.0549L225.907 88.5762C226.057 85.4119 224.745 82.1451 222.599 80.3955L209.668 85.8356L217.74 92.0549Z" fill="#274F89"/>
<path d="M195.74 181.961L88.4407 120.014C85.4063 118.265 83.6567 113.61 84.5315 109.633L103.49 23.4107C104.365 19.4263 107.536 17.622 110.57 19.3716L217.87 81.3181C220.904 83.0677 222.654 87.7219 221.779 91.6995L202.82 177.922C201.946 181.913 198.774 183.717 195.74 181.961Z" fill="#D4ECFF"/>
<path d="M218.902 80.9491L111.602 19.0026C110.133 18.1551 108.636 18.1551 107.379 18.818C108.39 18.5993 109.49 18.7497 110.57 19.3784L217.87 81.3249C220.904 83.0745 222.654 87.7287 221.779 91.7063L202.82 177.928C202.369 179.979 201.303 181.441 199.964 182.145C201.775 181.749 203.285 180.109 203.845 177.553L222.804 91.3304C223.686 87.3528 221.936 82.6987 218.902 80.9491Z" fill="white"/>
<path d="M193.416 176.049L92.5005 117.814C89.7257 116.207 88.1197 111.957 88.9193 108.314L106.395 28.8508C107.194 25.2081 110.099 23.5542 112.874 25.1603L213.79 83.3958C216.564 85.0018 218.17 89.2528 217.371 92.8955L199.895 172.352C199.096 175.994 196.191 177.648 193.416 176.049Z" fill="white"/>
<path d="M193.416 176.049L92.5005 117.814C89.7257 116.207 88.1197 111.957 88.9193 108.314L106.395 28.8508C107.194 25.2081 110.099 23.5542 112.874 25.1603L213.79 83.3958C216.564 85.0018 218.17 89.2528 217.371 92.8955L199.895 172.352C199.096 175.994 196.191 177.648 193.416 176.049Z" fill="#223D69"/>
<path d="M194.298 175.687L93.3821 117.451C90.6074 115.845 89.0013 111.594 89.8009 107.952L107.276 28.4886C107.68 26.6434 108.63 25.3175 109.819 24.6546C108.22 25.0646 106.9 26.5682 106.395 28.844L88.9261 108.314C88.1265 111.957 89.7258 116.214 92.5073 117.814L193.423 176.049C194.797 176.842 196.198 176.835 197.36 176.186C196.396 176.432 195.337 176.288 194.298 175.687Z" fill="#5793CE"/>
<path d="M197.223 184.66L182.557 182.726L87.8804 128.065C84.846 126.315 79.5425 126.534 76.0365 128.557L8.95057 167.274L0.0795898 166.105V171.135H0.0864242C0.0317494 172.297 0.687847 173.418 2.12306 174.245L109.422 236.191C112.457 237.941 117.76 237.722 121.266 235.699L194.332 193.531C196.3 192.39 197.285 190.927 197.23 189.547V184.66H197.223Z" fill="#173D7A"/>
<path d="M126.084 150.12L119.359 146.238H45.405L8.94374 167.274L0.0727539 166.105V171.135H0.0795883C0.0249135 172.297 0.681011 173.418 2.11622 174.245L109.415 236.191C111.022 237.121 113.256 237.49 115.525 237.339L126.084 150.12Z" fill="#396CAA"/>
<path d="M4.01617 166.624L0.0795898 166.105V171.135H0.0864242C0.0317494 172.297 0.687847 173.418 2.12306 174.245L4.01617 175.338V166.624Z" fill="#5793CE"/>
<path d="M110.502 236.697C113.379 237.79 117.494 237.551 120.562 236.075V224.853H110.502V236.697Z" fill="#274F89"/>
<path d="M109.422 231.168L2.12302 169.215C-0.911431 167.465 -0.528708 164.403 2.97048 162.38L76.0365 120.212C79.5425 118.189 84.846 117.971 87.8804 119.72L195.18 181.667C198.214 183.416 197.831 186.478 194.332 188.501L121.266 230.669C117.76 232.699 112.457 232.918 109.422 231.168Z" fill="#D4ECFF"/>
<path d="M194.325 186.67L121.259 228.837C117.753 230.86 112.45 231.079 109.416 229.33L2.12313 167.376C1.12532 166.802 0.510228 166.085 0.236854 165.312C-0.234716 166.747 0.366706 168.203 2.12313 169.215L109.422 231.161C112.457 232.911 117.76 232.692 121.266 230.669L194.332 188.501C196.69 187.141 197.626 185.316 197.073 183.731C196.717 184.776 195.802 185.815 194.325 186.67Z" fill="white"/>
<path d="M47.7561 148.712L42.9037 145.91C42.5141 145.684 42.562 145.294 43.013 145.035L48.7402 141.727C49.1913 141.467 49.8679 141.44 50.2643 141.665L55.1167 144.467C55.5062 144.693 55.4584 145.083 55.0073 145.342L49.2801 148.643C48.8291 148.903 48.1456 148.93 47.7561 148.712Z" fill="#5793CE"/>
<path d="M55.2534 153.038L50.401 150.236C50.0114 150.01 50.0593 149.621 50.5104 149.361L56.2375 146.053C56.6886 145.793 57.3652 145.766 57.7616 145.992L62.614 148.794C63.0035 149.019 62.9557 149.409 62.5046 149.668L56.7775 152.976C56.3264 153.236 55.643 153.263 55.2534 153.038Z" fill="#5793CE"/>
<path d="M62.7507 157.364L57.8983 154.562C57.5088 154.336 57.5566 153.947 58.0077 153.687L63.7349 150.379C64.1859 150.119 64.8625 150.092 65.2589 150.318L70.1113 153.12C70.5009 153.345 70.453 153.735 70.0019 153.995L64.2748 157.302C63.8237 157.562 63.1403 157.589 62.7507 157.364Z" fill="#5793CE"/>
<path d="M73.1252 153.79L68.2728 150.987C67.8833 150.762 67.9311 150.372 68.3822 150.113L73.1936 147.338C73.6446 147.078 74.3212 147.051 74.7176 147.276L79.57 150.078C79.9596 150.304 79.9117 150.694 79.4607 150.953L74.6493 153.728C74.1914 153.988 73.5148 154.015 73.1252 153.79Z" fill="#5793CE"/>
<path d="M80.6225 158.122L75.7701 155.32C75.3806 155.095 75.4284 154.705 75.8795 154.446L80.6909 151.671C81.1419 151.411 81.8185 151.384 82.2149 151.609L87.0673 154.411C87.4569 154.637 87.409 155.027 86.958 155.286L82.1466 158.061C81.6887 158.314 81.0121 158.341 80.6225 158.122Z" fill="#5793CE"/>
<path d="M88.1196 162.449L83.2672 159.647C82.8777 159.421 82.9255 159.031 83.3766 158.772L88.1879 155.997C88.639 155.737 89.3156 155.71 89.712 155.935L94.5644 158.738C94.9539 158.963 94.9061 159.353 94.455 159.612L89.6437 162.387C89.1858 162.647 88.5092 162.674 88.1196 162.449Z" fill="#5793CE"/>
<path d="M95.6169 166.775L90.7645 163.973C90.375 163.747 90.4228 163.358 90.8739 163.098L95.6853 160.323C96.1363 160.063 96.8129 160.036 97.2093 160.262L102.062 163.064C102.451 163.289 102.403 163.679 101.952 163.939L97.141 166.713C96.6831 166.973 96.0065 167 95.6169 166.775Z" fill="#5793CE"/>
<path d="M103.114 171.108L98.2618 168.306C97.8723 168.08 97.9201 167.691 98.3712 167.431L103.183 164.656C103.634 164.396 104.31 164.369 104.707 164.595L109.559 167.397C109.949 167.622 109.901 168.012 109.45 168.271L104.638 171.046C104.18 171.299 103.504 171.333 103.114 171.108Z" fill="#5793CE"/>
<path d="M110.612 175.434L105.759 172.632C105.37 172.406 105.417 172.017 105.869 171.757L110.68 168.982C111.131 168.723 111.808 168.695 112.204 168.921L117.056 171.723C117.446 171.948 117.398 172.338 116.947 172.598L112.136 175.372C111.678 175.632 111.001 175.659 110.612 175.434Z" fill="#5793CE"/>
<path d="M118.109 179.76L113.256 176.958C112.867 176.732 112.915 176.343 113.366 176.083L118.177 173.308C118.628 173.049 119.305 173.021 119.701 173.247L124.554 176.049C124.943 176.275 124.895 176.664 124.444 176.924L119.633 179.699C119.175 179.958 118.498 179.986 118.109 179.76Z" fill="#5793CE"/>
<path d="M125.606 184.093L120.754 181.291C120.364 181.065 120.412 180.676 120.863 180.416L125.675 177.641C126.126 177.382 126.802 177.354 127.199 177.58L132.051 180.382C132.441 180.607 132.393 180.997 131.942 181.257L127.13 184.032C126.672 184.291 125.996 184.319 125.606 184.093Z" fill="#5793CE"/>
<path d="M133.103 188.419L128.251 185.617C127.862 185.392 127.909 185.002 128.36 184.742L133.172 181.968C133.623 181.708 134.299 181.68 134.696 181.906L139.548 184.708C139.938 184.934 139.89 185.323 139.439 185.583L134.628 188.358C134.17 188.617 133.493 188.645 133.103 188.419Z" fill="#5793CE"/>
<path d="M140.601 192.745L135.748 189.943C135.359 189.718 135.406 189.328 135.858 189.068L140.669 186.294C141.12 186.034 141.797 186.007 142.193 186.232L147.045 189.034C147.435 189.26 147.387 189.649 146.936 189.909L142.125 192.684C141.667 192.944 140.99 192.971 140.601 192.745Z" fill="#5793CE"/>
<path d="M84.1694 151.739L79.317 148.937C78.9275 148.712 78.9753 148.322 79.4264 148.062L84.2378 145.288C84.6888 145.028 85.3654 145.001 85.7618 145.226L90.6142 148.028C91.0038 148.254 90.9559 148.643 90.5049 148.903L85.6935 151.678C85.2424 151.937 84.559 151.965 84.1694 151.739Z" fill="#5793CE"/>
<path d="M76.5627 147.352L71.7103 144.549C71.3208 144.324 71.3686 143.934 71.8197 143.675L76.6311 140.9C77.0821 140.64 77.7587 140.613 78.1551 140.838L83.0075 143.641C83.3971 143.866 83.3492 144.256 82.8982 144.515L78.0868 147.29C77.6289 147.543 76.9523 147.57 76.5627 147.352Z" fill="#5793CE"/>
<path d="M68.9357 142.95L58.4791 136.916C58.0896 136.69 58.1374 136.3 58.5885 136.041L63.3999 133.266C63.8509 133.006 64.5275 132.979 64.9239 133.204L75.3805 139.239C75.77 139.465 75.7222 139.854 75.2711 140.114L70.4597 142.889C70.0087 143.142 69.3252 143.176 68.9357 142.95Z" fill="#5793CE"/>
<path d="M74.2665 137.599L65.7782 132.699C65.3886 132.473 65.4365 132.084 65.8876 131.824L70.6989 129.049C71.15 128.789 71.8266 128.762 72.223 128.988L80.7112 133.888C81.1008 134.113 81.053 134.503 80.6019 134.763L75.7905 137.537C75.3326 137.79 74.656 137.824 74.2665 137.599Z" fill="#5793CE"/>
<path d="M91.6667 156.072L86.8143 153.27C86.4248 153.045 86.4726 152.655 86.9237 152.395L91.7351 149.621C92.1861 149.361 92.8627 149.334 93.2591 149.559L98.1115 152.361C98.5011 152.587 98.4532 152.976 98.0022 153.236L93.1908 156.011C92.7397 156.27 92.0563 156.298 91.6667 156.072Z" fill="#5793CE"/>
<path d="M99.164 160.398L94.3117 157.596C93.9221 157.371 93.9699 156.981 94.421 156.721L99.2324 153.947C99.6835 153.687 100.36 153.66 100.756 153.885L105.609 156.687C105.998 156.913 105.951 157.302 105.499 157.562L100.688 160.337C100.237 160.597 99.5536 160.624 99.164 160.398Z" fill="#5793CE"/>
<path d="M106.661 164.724L101.809 161.922C101.419 161.697 101.467 161.307 101.918 161.048L106.73 158.273C107.181 158.013 107.857 157.986 108.254 158.211L113.106 161.013C113.496 161.239 113.448 161.629 112.997 161.888L108.185 164.663C107.734 164.923 107.051 164.95 106.661 164.724Z" fill="#5793CE"/>
<path d="M114.159 169.057L109.306 166.255C108.917 166.03 108.965 165.64 109.416 165.381L114.227 162.606C114.678 162.346 115.355 162.319 115.751 162.544L120.603 165.346C120.993 165.572 120.945 165.961 120.494 166.221L115.683 168.996C115.232 169.256 114.548 169.283 114.159 169.057Z" fill="#5793CE"/>
<path d="M121.656 173.384L116.803 170.582C116.414 170.356 116.462 169.966 116.913 169.707L121.724 166.932C122.175 166.672 122.852 166.645 123.248 166.87L128.101 169.673C128.49 169.898 128.442 170.288 127.991 170.547L123.18 173.322C122.729 173.582 122.045 173.609 121.656 173.384Z" fill="#5793CE"/>
<path d="M129.153 177.717L124.301 174.914C123.911 174.689 123.959 174.299 124.41 174.04L129.222 171.265C129.673 171.005 130.349 170.978 130.746 171.203L135.598 174.006C135.988 174.231 135.94 174.621 135.489 174.88L130.677 177.655C130.226 177.908 129.543 177.935 129.153 177.717Z" fill="#5793CE"/>
<path d="M136.65 182.043L131.798 179.241C131.408 179.015 131.456 178.626 131.907 178.366L136.719 175.591C137.17 175.331 137.846 175.304 138.243 175.53L143.095 178.332C143.485 178.557 143.437 178.947 142.986 179.206L138.174 181.981C137.723 182.241 137.04 182.268 136.65 182.043Z" fill="#5793CE"/>
<path d="M144.148 186.369L139.295 183.567C138.906 183.341 138.954 182.952 139.405 182.692L144.216 179.917C144.667 179.658 145.344 179.63 145.74 179.856L150.592 182.658C150.982 182.883 150.934 183.273 150.483 183.533L145.672 186.307C145.221 186.567 144.537 186.594 144.148 186.369Z" fill="#5793CE"/>
<path d="M151.645 190.702L146.793 187.9C146.403 187.674 146.451 187.285 146.902 187.025L151.713 184.25C152.164 183.991 152.841 183.963 153.237 184.189L158.09 186.991C158.479 187.216 158.431 187.606 157.98 187.866L153.169 190.64C152.718 190.893 152.035 190.927 151.645 190.702Z" fill="#5793CE"/>
<path d="M164.972 198.397L154.379 192.281C153.989 192.055 154.037 191.665 154.488 191.406L159.3 188.631C159.751 188.371 160.427 188.344 160.824 188.57L171.417 194.686C171.806 194.912 171.759 195.301 171.307 195.561L166.496 198.336C166.045 198.589 165.362 198.616 164.972 198.397Z" fill="#5793CE"/>
<path d="M179.57 189.964L170.631 184.804C170.241 184.578 170.289 184.189 170.74 183.929L175.551 181.154C176.003 180.895 176.679 180.867 177.076 181.093L186.015 186.253C186.404 186.478 186.357 186.868 185.905 187.127L181.094 189.902C180.643 190.162 179.96 190.189 179.57 189.964Z" fill="#5793CE"/>
<path d="M104.795 155.225L99.943 152.423C99.5534 152.197 99.6013 151.808 100.052 151.548L104.864 148.773C105.315 148.513 105.991 148.486 106.388 148.712L111.24 151.514C111.63 151.739 111.582 152.129 111.131 152.388L106.319 155.163C105.868 155.423 105.185 155.45 104.795 155.225Z" fill="#5793CE"/>
<path d="M97.1138 150.789L92.2614 147.987C91.8718 147.762 91.9196 147.372 92.3707 147.112L97.1821 144.338C97.6332 144.078 98.3098 144.051 98.7062 144.276L103.559 147.078C103.948 147.304 103.9 147.693 103.449 147.953L98.6378 150.728C98.1799 150.981 97.5033 151.015 97.1138 150.789Z" fill="#5793CE"/>
<path d="M89.425 146.354L84.5726 143.552C84.1831 143.326 84.2309 142.937 84.682 142.677L89.4934 139.902C89.9444 139.642 90.621 139.615 91.0174 139.841L95.8698 142.643C96.2594 142.868 96.2115 143.258 95.7605 143.517L90.9491 146.292C90.498 146.545 89.8146 146.572 89.425 146.354Z" fill="#5793CE"/>
<path d="M81.7434 141.911L76.891 139.109C76.5014 138.884 76.5493 138.494 77.0003 138.235L81.8117 135.46C82.2628 135.2 82.9394 135.173 83.3358 135.398L88.1882 138.2C88.5777 138.426 88.5299 138.815 88.0788 139.075L83.2675 141.85C82.8164 142.11 82.1329 142.137 81.7434 141.911Z" fill="#5793CE"/>
<path d="M112.293 159.551L107.44 156.749C107.051 156.523 107.099 156.134 107.55 155.874L112.361 153.099C112.812 152.84 113.489 152.812 113.885 153.038L118.737 155.84C119.127 156.065 119.079 156.455 118.628 156.715L113.817 159.489C113.366 159.749 112.682 159.776 112.293 159.551Z" fill="#5793CE"/>
<path d="M119.79 163.884L114.938 161.082C114.548 160.856 114.596 160.467 115.047 160.207L119.858 157.432C120.309 157.173 120.986 157.145 121.382 157.371L126.235 160.173C126.624 160.398 126.577 160.788 126.125 161.048L121.314 163.822C120.863 164.075 120.18 164.103 119.79 163.884Z" fill="#5793CE"/>
<path d="M127.287 168.21L122.435 165.408C122.045 165.182 122.093 164.793 122.544 164.533L127.356 161.758C127.807 161.499 128.483 161.471 128.88 161.697L133.732 164.499C134.122 164.724 134.074 165.114 133.623 165.374L128.811 168.149C128.36 168.408 127.677 168.436 127.287 168.21Z" fill="#5793CE"/>
<path d="M134.785 172.536L129.932 169.734C129.543 169.509 129.591 169.119 130.042 168.859L134.853 166.085C135.304 165.825 135.981 165.797 136.377 166.023L141.229 168.825C141.619 169.051 141.571 169.44 141.12 169.7L136.309 172.475C135.858 172.734 135.174 172.762 134.785 172.536Z" fill="#5793CE"/>
<path d="M142.282 176.869L137.43 174.067C137.04 173.841 137.088 173.452 137.539 173.192L142.35 170.417C142.801 170.158 143.478 170.13 143.874 170.356L148.727 173.158C149.116 173.384 149.068 173.773 148.617 174.033L143.806 176.808C143.355 177.06 142.672 177.095 142.282 176.869Z" fill="#5793CE"/>
<path d="M149.779 181.195L144.927 178.393C144.537 178.168 144.585 177.778 145.036 177.518L149.848 174.744C150.299 174.484 150.975 174.457 151.372 174.682L156.224 177.484C156.614 177.71 156.566 178.099 156.115 178.359L151.303 181.134C150.852 181.393 150.169 181.421 149.779 181.195Z" fill="#5793CE"/>
<path d="M157.276 185.521L152.424 182.719C152.034 182.494 152.082 182.104 152.533 181.845L157.345 179.07C157.796 178.81 158.472 178.783 158.869 179.008L163.721 181.81C164.111 182.036 164.063 182.425 163.612 182.685L158.8 185.46C158.349 185.72 157.666 185.747 157.276 185.521Z" fill="#5793CE"/>
<path d="M164.774 189.854L159.921 187.052C159.532 186.827 159.58 186.437 160.031 186.177L164.842 183.403C165.293 183.143 165.97 183.116 166.366 183.341L171.218 186.143C171.608 186.369 171.56 186.758 171.109 187.018L166.298 189.793C165.847 190.046 165.163 190.08 164.774 189.854Z" fill="#5793CE"/>
<path d="M172.271 194.181L167.419 191.378C167.029 191.153 167.077 190.763 167.528 190.504L172.339 187.729C172.79 187.469 173.467 187.442 173.863 187.667L178.716 190.469C179.105 190.695 179.057 191.085 178.606 191.344L173.795 194.119C173.344 194.379 172.661 194.406 172.271 194.181Z" fill="#5793CE"/>
<path d="M100.845 144.515L95.9928 141.713C95.6032 141.488 95.6511 141.098 96.1021 140.838L100.914 138.064C101.365 137.804 102.041 137.777 102.438 138.002L107.29 140.804C107.68 141.03 107.632 141.419 107.181 141.679L102.369 144.454C101.918 144.714 101.235 144.741 100.845 144.515Z" fill="#5793CE"/>
<path d="M93.3891 140.21L88.5367 137.408C88.1472 137.182 88.195 136.793 88.6461 136.533L93.4575 133.758C93.9085 133.498 94.5851 133.471 94.9815 133.697L99.8339 136.499C100.223 136.724 100.176 137.114 99.7246 137.373L94.9132 140.148C94.4553 140.408 93.7787 140.435 93.3891 140.21Z" fill="#5793CE"/>
<path d="M85.9258 135.904L81.0734 133.102C80.6838 132.876 80.7317 132.487 81.1827 132.227L85.9941 129.452C86.4452 129.193 87.1218 129.165 87.5181 129.391L92.3705 132.193C92.7601 132.419 92.7122 132.808 92.2612 133.068L87.4498 135.843C86.9987 136.102 86.3153 136.13 85.9258 135.904Z" fill="#5793CE"/>
<path d="M78.4697 131.598L73.6173 128.796C73.2278 128.571 73.2756 128.181 73.7267 127.922L78.538 125.147C78.9891 124.887 79.6657 124.86 80.0621 125.085L84.9145 127.887C85.3041 128.113 85.2562 128.502 84.8052 128.762L79.9938 131.537C79.5359 131.79 78.8593 131.824 78.4697 131.598Z" fill="#5793CE"/>
<path d="M86.1377 127.17L81.2853 124.368C80.8957 124.142 80.9436 123.753 81.3946 123.493L82.987 122.577C83.4381 122.317 84.1147 122.29 84.5111 122.516L89.3635 125.318C89.753 125.543 89.7052 125.933 89.2541 126.192L87.6617 127.108C87.2107 127.361 86.5272 127.388 86.1377 127.17Z" fill="#5793CE"/>
<path d="M95.8767 132.788L91.0243 129.986C90.6347 129.76 90.6826 129.37 91.1336 129.111L92.7261 128.195C93.1771 127.935 93.8537 127.908 94.2501 128.133L99.1025 130.935C99.492 131.161 99.4442 131.551 98.9931 131.81L97.4007 132.726C96.9428 132.986 96.2662 133.013 95.8767 132.788Z" fill="#5793CE"/>
<path d="M103.306 137.08L98.4533 134.277C98.0637 134.052 98.1115 133.662 98.5626 133.403L100.155 132.487C100.606 132.227 101.283 132.2 101.679 132.425L106.531 135.227C106.921 135.453 106.873 135.843 106.422 136.102L104.83 137.018C104.372 137.271 103.695 137.298 103.306 137.08Z" fill="#5793CE"/>
<path d="M110.735 141.365L105.882 138.563C105.493 138.337 105.54 137.948 105.992 137.688L107.584 136.772C108.035 136.512 108.712 136.485 109.108 136.711L113.96 139.513C114.35 139.738 114.302 140.128 113.851 140.387L112.259 141.303C111.801 141.563 111.124 141.59 110.735 141.365Z" fill="#5793CE"/>
<path d="M118.164 145.657L113.311 142.855C112.922 142.629 112.969 142.239 113.421 141.98L115.013 141.064C115.464 140.804 116.141 140.777 116.537 141.002L121.389 143.805C121.779 144.03 121.731 144.42 121.28 144.679L119.688 145.595C119.23 145.855 118.553 145.882 118.164 145.657Z" fill="#5793CE"/>
<path d="M159.634 169.597L154.782 166.795C154.392 166.57 154.44 166.18 154.891 165.92L156.484 165.005C156.935 164.745 157.611 164.718 158.008 164.943L162.86 167.745C163.25 167.971 163.202 168.36 162.751 168.62L161.158 169.536C160.707 169.796 160.024 169.823 159.634 169.597Z" fill="#5793CE"/>
<path d="M167.063 173.889L162.211 171.087C161.821 170.862 161.869 170.472 162.32 170.212L163.913 169.297C164.364 169.037 165.04 169.01 165.437 169.235L170.289 172.037C170.679 172.263 170.631 172.652 170.18 172.912L168.587 173.828C168.136 174.088 167.453 174.115 167.063 173.889Z" fill="#5793CE"/>
<path d="M174.492 178.181L169.64 175.379C169.25 175.154 169.298 174.764 169.749 174.504L171.342 173.589C171.793 173.329 172.469 173.302 172.866 173.527L177.718 176.329C178.108 176.555 178.06 176.944 177.609 177.204L176.016 178.12C175.565 178.373 174.882 178.407 174.492 178.181Z" fill="#5793CE"/>
<path d="M181.921 182.466L177.069 179.664C176.679 179.439 176.727 179.049 177.178 178.79L178.77 177.874C179.222 177.614 179.898 177.587 180.295 177.812L185.147 180.614C185.536 180.84 185.489 181.229 185.038 181.489L183.445 182.405C182.994 182.665 182.311 182.692 181.921 182.466Z" fill="#5793CE"/>
<path d="M108.342 148.848L103.49 146.046C103.101 145.821 103.148 145.431 103.599 145.171L108.411 142.397C108.862 142.137 109.539 142.11 109.935 142.335L114.787 145.137C115.177 145.363 115.129 145.752 114.678 146.012L109.867 148.787C109.415 149.04 108.732 149.067 108.342 148.848Z" fill="#5793CE"/>
<path d="M115.84 153.174L110.987 150.372C110.598 150.147 110.646 149.757 111.097 149.498L115.908 146.723C116.359 146.463 117.036 146.436 117.432 146.661L122.285 149.463C122.674 149.689 122.626 150.078 122.175 150.338L117.364 153.113C116.913 153.373 116.229 153.4 115.84 153.174Z" fill="#5793CE"/>
<path d="M123.337 157.501L118.485 154.698C118.095 154.473 118.143 154.083 118.594 153.824L123.405 151.049C123.857 150.789 124.533 150.762 124.93 150.987L129.782 153.79C130.171 154.015 130.124 154.405 129.673 154.664L124.861 157.439C124.41 157.699 123.727 157.726 123.337 157.501Z" fill="#5793CE"/>
<path d="M130.834 161.834L125.982 159.031C125.593 158.806 125.64 158.416 126.091 158.157L130.903 155.382C131.354 155.122 132.03 155.095 132.427 155.32L137.279 158.122C137.669 158.348 137.621 158.738 137.17 158.997L132.359 161.772C131.907 162.025 131.224 162.059 130.834 161.834Z" fill="#5793CE"/>
<path d="M138.332 166.16L133.479 163.358C133.09 163.132 133.138 162.743 133.589 162.483L138.4 159.708C138.851 159.448 139.528 159.421 139.924 159.647L144.777 162.449C145.166 162.674 145.118 163.064 144.667 163.323L139.856 166.098C139.405 166.358 138.721 166.385 138.332 166.16Z" fill="#5793CE"/>
<path d="M145.829 170.486L140.977 167.684C140.587 167.458 140.635 167.069 141.086 166.809L145.897 164.034C146.348 163.775 147.025 163.747 147.421 163.973L152.274 166.775C152.663 167 152.616 167.39 152.165 167.65L147.353 170.424C146.902 170.684 146.219 170.711 145.829 170.486Z" fill="#5793CE"/>
<path d="M153.326 174.819L148.474 172.017C148.084 171.791 148.132 171.402 148.583 171.142L153.394 168.367C153.846 168.107 154.522 168.08 154.919 168.306L159.771 171.108C160.161 171.333 160.113 171.723 159.662 171.983L154.85 174.757C154.399 175.017 153.716 175.044 153.326 174.819Z" fill="#5793CE"/>
<path d="M160.823 179.145L155.971 176.343C155.582 176.117 155.629 175.728 156.08 175.468L160.892 172.693C161.343 172.434 162.019 172.406 162.416 172.632L167.268 175.434C167.658 175.659 167.61 176.049 167.159 176.309L162.348 179.083C161.896 179.343 161.213 179.37 160.823 179.145Z" fill="#5793CE"/>
<path d="M168.321 183.471L163.468 180.669C163.079 180.443 163.127 180.054 163.578 179.794L168.389 177.019C168.84 176.76 169.517 176.732 169.913 176.958L174.766 179.76C175.155 179.986 175.107 180.375 174.656 180.635L169.845 183.41C169.394 183.669 168.717 183.697 168.321 183.471Z" fill="#5793CE"/>
<path d="M65.4843 149.381L51.1869 141.125C50.7973 140.9 50.8452 140.51 51.2962 140.251L56.1076 137.476C56.5587 137.216 57.2353 137.189 57.6317 137.414L71.9291 145.67C72.3187 145.896 72.2709 146.285 71.8198 146.545L67.0084 149.32C66.5505 149.58 65.8739 149.607 65.4843 149.381Z" fill="#5793CE"/>
<path d="M157.591 202.559L143.293 194.304C142.904 194.078 142.952 193.688 143.403 193.429L148.214 190.654C148.665 190.394 149.342 190.367 149.738 190.592L164.036 198.848C164.425 199.074 164.377 199.463 163.926 199.723L159.115 202.498C158.657 202.758 157.98 202.785 157.591 202.559Z" fill="#5793CE"/>
<path d="M127.609 194.809L122.756 192.007C122.367 191.782 122.415 191.392 122.866 191.132L128.593 187.825C129.044 187.565 129.72 187.538 130.117 187.763L134.969 190.565C135.359 190.791 135.311 191.18 134.86 191.44L129.133 194.748C128.675 195.007 127.998 195.035 127.609 194.809Z" fill="#5793CE"/>
<path d="M73.1595 163.371L65.3956 158.888C65.0061 158.662 65.0539 158.273 65.505 158.013L71.2322 154.705C71.6832 154.446 72.3598 154.418 72.7562 154.644L80.52 159.127C80.9096 159.353 80.8618 159.742 80.4107 160.002L74.6835 163.31C74.2324 163.569 73.549 163.597 73.1595 163.371Z" fill="#5793CE"/>
<path d="M120.385 190.64L112.621 186.157C112.231 185.931 112.279 185.542 112.73 185.282L118.458 181.974C118.909 181.715 119.585 181.687 119.982 181.913L127.745 186.396C128.135 186.622 128.087 187.011 127.636 187.271L121.909 190.579C121.451 190.832 120.774 190.866 120.385 190.64Z" fill="#5793CE"/>
<path d="M83.9781 169.618L76.2142 165.135C75.8247 164.909 75.8725 164.519 76.3236 164.26L82.0508 160.952C82.5018 160.692 83.1784 160.665 83.5748 160.89L91.3386 165.374C91.7282 165.599 91.6804 165.989 91.2293 166.249L85.5021 169.556C85.0442 169.816 84.3676 169.843 83.9781 169.618Z" fill="#5793CE"/>
<path d="M83.6228 160.918L117.378 180.409C117.795 180.648 117.795 181.045 117.378 181.284L111.541 184.653C111.124 184.893 110.441 184.893 110.024 184.653L76.269 165.162L83.6228 160.918Z" fill="#5793CE"/>
<path d="M148.556 202.655L153.962 205.778C154.283 205.963 154.242 206.284 153.873 206.496L151.529 207.849C151.16 208.061 150.599 208.088 150.285 207.904L144.879 204.781C144.558 204.596 144.599 204.275 144.968 204.063L147.312 202.71C147.681 202.498 148.242 202.471 148.556 202.655Z" fill="#5793CE"/>
<path d="M140.997 198.295L146.403 201.418C146.724 201.603 146.683 201.924 146.314 202.136L143.97 203.489C143.601 203.701 143.041 203.728 142.726 203.544L137.32 200.42C136.999 200.236 137.04 199.915 137.409 199.703L139.753 198.349C140.122 198.131 140.683 198.11 140.997 198.295Z" fill="#5793CE"/>
<path d="M133.5 193.962L138.906 197.085C139.227 197.27 139.186 197.591 138.817 197.803L136.473 199.156C136.104 199.368 135.543 199.395 135.229 199.211L129.823 196.087C129.502 195.903 129.543 195.582 129.912 195.37L132.256 194.017C132.625 193.805 133.185 193.777 133.5 193.962Z" fill="#5793CE"/>
<path d="M145.139 195.903L150.545 199.026C150.866 199.211 150.825 199.532 150.456 199.744L148.112 201.097C147.743 201.309 147.182 201.336 146.868 201.152L141.462 198.028C141.141 197.844 141.182 197.522 141.551 197.311L143.895 195.957C144.264 195.739 144.817 195.718 145.139 195.903Z" fill="#5793CE"/>
<path d="M174.758 111.437L134.367 88.1251L134.887 85.5007L175.278 108.813L174.758 111.437Z" fill="#D4ECFF"/>
<path d="M160.29 115.873L132.099 99.5932L132.618 96.9688L160.81 113.241L160.29 115.873Z" fill="#D4ECFF"/>
<path d="M157.625 107.938L133.233 93.8591L133.752 91.2348L158.144 105.314L157.625 107.938Z" fill="white"/>
<path d="M173.617 117.171L161.425 110.132L161.944 107.507L174.137 114.547L173.617 117.171Z" fill="#F16A51"/>
<path d="M130.069 65.2164L117.876 58.177L118.396 55.5526L130.588 62.592L130.069 65.2164Z" fill="#D4ECFF"/>
<path d="M128.75 71.3195L116.55 64.2801L117.07 61.6557L129.269 68.6951L128.75 71.3195Z" fill="white"/>
<path d="M188.598 155.949L176.406 148.91L176.925 146.279L189.117 153.325L188.598 155.949Z" fill="#D4ECFF"/>
<path d="M126.098 83.5188L113.906 76.4794L114.425 73.855L126.617 80.8944L126.098 83.5188Z" fill="#D4ECFF"/>
<path d="M152.445 85.4119C152.055 86.2594 151.078 86.5601 150.251 86.0885C149.431 85.6169 149.075 84.5439 149.465 83.6965C149.854 82.849 150.832 82.5483 151.659 83.0199C152.486 83.4915 152.834 84.5644 152.445 85.4119Z" fill="#F16A51"/>
<path d="M157.7 88.4463C157.311 89.2938 156.333 89.5945 155.506 89.1229C154.686 88.6514 154.331 87.5784 154.72 86.7309C155.11 85.8835 156.087 85.5828 156.914 86.0543C157.734 86.5259 158.09 87.5989 157.7 88.4463Z" fill="white"/>
<path d="M162.949 91.474C162.559 92.3214 161.582 92.6221 160.755 92.1506C159.935 91.679 159.58 90.606 159.969 89.7585C160.359 88.9111 161.336 88.6104 162.163 89.0819C162.99 89.5603 163.339 90.6265 162.949 91.474Z" fill="#D4ECFF"/>
<path d="M168.205 94.5084C167.815 95.3559 166.838 95.6566 166.011 95.185C165.191 94.7134 164.835 93.6404 165.225 92.793C165.614 91.9455 166.592 91.6448 167.419 92.1164C168.239 92.588 168.594 93.6609 168.205 94.5084Z" fill="#F16A51"/>
<path d="M23.6514 207.409C23.6514 207.409 21.0885 206.118 19.5166 208.038C17.9447 209.966 15.6962 214.504 15.621 217.572C15.5527 220.641 18.0472 220.436 19.5371 219.711C21.0201 218.987 25.3599 212.692 25.6265 211.455C25.8862 210.225 25.3189 208.558 24.902 208.23C24.4783 207.908 23.6514 207.409 23.6514 207.409Z" fill="#C361F0"/>
<path d="M24.2116 206.794L24.3278 209.446C24.3551 210.013 24.0681 210.546 23.576 210.827C23.1318 211.08 22.4757 211.278 21.6009 211.134C19.6736 210.827 19.4959 210.273 19.3592 207.621C19.2225 204.963 24.2116 206.794 24.2116 206.794Z" fill="#D4ECFF"/>
<path d="M14.2678 202.304C14.2678 202.304 11.7049 201.013 10.133 202.933C8.56114 204.86 6.31264 209.398 6.23746 212.467C6.16912 215.536 8.66365 215.331 10.1535 214.606C11.6366 213.882 15.9764 207.587 16.2429 206.35C16.5095 205.113 15.9354 203.452 15.5185 203.124C15.0948 202.803 14.2678 202.304 14.2678 202.304Z" fill="#C361F0"/>
<path d="M14.828 201.689L14.9442 204.341C14.9716 204.908 14.6845 205.441 14.1925 205.721C13.7482 205.974 13.0921 206.172 12.2173 206.029C10.29 205.721 10.1123 205.168 9.97566 202.516C9.83897 199.858 14.828 201.689 14.828 201.689Z" fill="#D4ECFF"/>
<path d="M37.6958 152.947C36.9372 140.604 24.3279 154.765 24.3279 154.765L15.7029 163.219L7.93225 171.755C6.41503 173.422 5.71109 175.671 6.00497 177.906L9.14877 201.84C9.30596 203.022 10.3174 203.89 11.5066 203.883C11.8415 203.883 12.2311 203.849 12.6685 203.78C15.4705 203.343 15.2655 200.678 15.2655 200.678L14.6914 178.295L31.005 168.461C31.005 168.454 38.4544 165.283 37.6958 152.947Z" fill="#173D7A"/>
<path d="M47.0725 157.649C46.3139 145.306 33.7046 159.467 33.7046 159.467L25.0796 167.921L17.309 176.457C15.7917 178.124 15.0878 180.373 15.3817 182.608L18.5255 206.542C18.6827 207.724 19.6941 208.592 20.8833 208.585C21.2182 208.585 21.6078 208.551 22.0452 208.483C24.8472 208.045 24.6422 205.38 24.6422 205.38L24.0818 183.64L40.3817 173.163C40.3885 173.156 47.8311 169.985 47.0725 157.649Z" fill="#173D7A"/>
<path d="M39.6162 118.03C49.1706 121.994 48.9793 127.639 48.9793 127.639C48.9793 127.639 47.1066 148.354 47.7491 162.18C48.0156 167.962 17.0287 168.406 21.6487 152.974C27.0957 134.788 25.0522 120.06 27.6083 117.839C30.1575 115.631 37.1422 117.005 39.6162 118.03Z" fill="#C361F0"/>
<path d="M42.6917 123.039C42.1928 124.98 39.6504 126.006 37.0123 125.322C34.3743 124.646 32.6452 122.52 33.1441 120.579C33.643 118.638 36.1854 117.613 38.8234 118.296C41.4615 118.98 43.1906 121.099 42.6917 123.039Z" fill="#FFC2B0"/>
<path d="M38.6457 125.992C38.0716 125.992 37.4839 125.917 36.9029 125.766C35.5361 125.411 34.3469 124.687 33.5541 123.716C32.7271 122.705 32.4264 121.55 32.7066 120.47C32.9868 119.39 33.807 118.522 35.0167 118.037C36.1785 117.572 37.5727 117.504 38.9396 117.859C40.3064 118.214 41.4956 118.939 42.2884 119.909C43.1154 120.921 43.4161 122.076 43.1359 123.156C42.8556 124.235 42.0355 125.103 40.8258 125.589C40.1561 125.855 39.418 125.992 38.6457 125.992ZM37.19 118.542C36.5339 118.542 35.9119 118.659 35.3515 118.877C34.4152 119.253 33.7933 119.896 33.5883 120.695C33.3832 121.488 33.6224 122.356 34.258 123.135C34.9278 123.955 35.9461 124.577 37.1285 124.878C38.3108 125.185 39.5 125.131 40.4841 124.734C41.4204 124.359 42.0424 123.716 42.2474 122.916C42.4524 122.124 42.2132 121.256 41.5776 120.477C40.9079 119.656 39.8895 119.035 38.7072 118.734C38.2015 118.611 37.6889 118.542 37.19 118.542Z" fill="white"/>
<path d="M35.7821 117.599C35.7821 117.599 35.8642 117.982 35.7001 121.01C35.6455 121.96 38.9806 122.848 39.8417 121.987C40.7029 121.126 40.3612 120.231 40.5662 116.991C40.7712 113.752 35.7821 117.599 35.7821 117.599Z" fill="#FFC2B0"/>
<path d="M40.5731 116.998C40.5731 116.998 39.753 120.005 35.707 121.153L35.7685 118.419L40.5731 116.998Z" fill="#EA9C92"/>
<path d="M43.136 109.364C44.1543 113.301 41.7896 117.312 37.853 118.331C33.9165 119.349 29.9047 116.984 28.8864 113.048C27.8681 109.111 30.2327 105.099 34.1693 104.081C38.1059 103.063 42.1177 105.427 43.136 109.364Z" fill="#FFC2B0"/>
<path d="M37.7026 111.476C37.7026 111.476 33.6498 113.212 30.8478 113.232C28.0457 113.253 28.6608 110.902 28.6608 110.902L36.985 109.699L37.7026 111.476Z" fill="#EA9C92"/>
<path d="M30.0071 111.927C30.0071 111.927 33.5337 110.43 36.6296 111.052C37.354 111.196 38.0306 111.585 38.5022 112.166C38.6526 112.357 38.8508 112.528 39.0695 112.576C39.6162 112.699 40.5184 110.423 41.5845 110.369C42.6507 110.314 43.3614 111.073 42.4866 112.474C41.6118 113.875 41.9057 115.44 42.3089 115.665C42.7122 115.891 47.6944 112.412 43.9287 104.956C40.163 97.4927 29.8841 101.723 28.3942 103.234C28.3942 103.234 26.8292 104.6 25.5511 103.384C25.558 103.384 24.1296 114.086 30.0071 111.927Z" fill="#D4ECFF"/>
<path d="M43.6212 142.777V148.374C43.6212 149.017 43.3478 149.625 42.8762 150.062L31.3809 160.546L32.6862 162.542L48.5282 152.154C49.239 151.641 49.6969 150.848 49.7858 149.98L50.8656 139.592L43.6212 142.777Z" fill="#FFC2B0"/>
<path d="M48.1728 124.844C48.1728 124.844 51.6583 130.093 52.9568 143.898C52.9568 143.898 46.9973 145.825 43.6143 144.732C40.2381 143.638 48.1728 124.844 48.1728 124.844Z" fill="#C361F0"/>
<path d="M42.9855 131.48C42.9855 131.48 41.6187 138.786 41.5435 142.223C41.523 143.167 42.0971 144.021 42.9855 144.342V131.48Z" fill="#B250DE"/>
<path d="M39.9989 167.818L37.4566 167.483L21.0541 158.011C20.5279 157.71 19.6121 157.744 19.0038 158.093L7.3786 164.804L5.84088 164.599V166.13C5.83404 166.328 5.94339 166.526 6.19626 166.67L24.7857 177.4C25.3119 177.701 26.2277 177.666 26.836 177.318L39.4932 170.012C39.8349 169.814 40.0058 169.561 39.9921 169.322V167.818H39.9989Z" fill="#5793CE"/>
<path d="M27.6766 161.831L26.5079 161.161H13.7004L7.38544 164.804L5.84771 164.599V166.13C5.84088 166.328 5.95023 166.526 6.2031 166.67L24.7925 177.4C25.0727 177.557 25.4555 177.625 25.8518 177.598L27.6766 161.831Z" fill="#396CAA"/>
<path d="M6.53115 164.688L5.84771 164.599V166.13C5.84088 166.328 5.95023 166.526 6.2031 166.67L6.53115 166.861V164.688Z" fill="#5793CE"/>
<path d="M24.9771 177.489C25.476 177.68 26.1867 177.639 26.7198 177.379V174.775H24.9771V177.489Z" fill="#5793CE"/>
<path d="M24.7932 175.876L6.20382 165.146C5.67757 164.845 5.74591 164.312 6.35417 163.964L19.0114 156.658C19.6196 156.309 20.5354 156.268 21.0617 156.576L39.6511 167.306C40.1773 167.606 40.109 168.139 39.5007 168.488L26.8435 175.787C26.2353 176.142 25.3195 176.177 24.7932 175.876Z" fill="white"/>
<path d="M24.4782 174.249L9.01894 165.324C8.58154 165.071 8.63621 164.633 9.14195 164.339L15.9216 160.526C16.4274 160.232 17.1928 160.205 17.6302 160.458L33.0895 169.383C33.5269 169.636 33.4722 170.073 32.9665 170.367L26.18 174.181C25.6742 174.468 24.9156 174.502 24.4782 174.249Z" fill="#D4ECFF"/>
<path d="M19.7282 156.295L19.5368 157.58C19.3728 158.674 19.4002 159.788 19.6189 160.868L19.8444 161.995C19.9742 162.631 20.48 163.13 21.1156 163.246C21.6145 163.335 22.0861 162.986 22.1407 162.48L22.4483 159.74C22.4483 159.74 23.1522 160.663 23.4871 160.663C23.8288 160.663 23.1112 157.915 22.3389 156.364C21.5803 154.806 19.7282 156.295 19.7282 156.295Z" fill="#FFC2B0"/>
<path d="M26.0294 135.915L24.0338 139.866C23.5623 140.802 23.282 141.82 23.2205 142.859L22.3526 156.364L19.7282 156.302L18.5322 141.137C18.498 140.665 18.5185 140.201 18.6005 139.736L19.9606 132.047L26.0294 135.915Z" fill="#FFC2B0"/>
<path d="M24.1638 176.908L22.6056 174.871L6.21685 165.378C5.6906 165.071 5.26687 164.257 5.26687 163.56L5.28054 150.138L4.3374 148.907L5.22587 148.395C5.39673 148.286 5.62226 148.286 5.8683 148.429L24.444 159.186C24.9703 159.494 25.394 160.307 25.394 161.004L25.3804 175.616C25.3804 176.013 25.2437 176.286 25.0318 176.395L24.1638 176.908Z" fill="#173D7A"/>
<path d="M12.8257 169.212L11.6638 168.536L5.27371 157.43L5.28054 150.138L4.3374 148.907L5.22587 148.395C5.39673 148.286 5.62226 148.286 5.8683 148.429L24.4441 159.186C24.7243 159.35 24.9703 159.651 25.1412 160.006L12.8257 169.212Z" fill="#396CAA"/>
<path d="M4.74746 149.454L4.33057 148.908L5.21903 148.395C5.38989 148.286 5.61542 148.286 5.86146 148.429L6.18951 148.62L4.74746 149.454Z" fill="#5793CE"/>
<path d="M24.608 159.309C25.018 159.644 25.3392 160.287 25.3871 160.874L23.5691 161.92L22.7012 160.41L24.608 159.309Z" fill="#274F89"/>
<path d="M23.5555 159.699L4.97976 148.942C4.45351 148.634 4.02978 148.962 4.02978 149.659L4.01611 164.271C4.01611 164.975 4.43984 165.788 4.96609 166.089L23.5418 176.846C24.0681 177.154 24.4918 176.826 24.4918 176.129L24.5055 161.517C24.5055 160.82 24.0818 160.006 23.5555 159.699Z" fill="#5793CE"/>
<path d="M32.6862 162.535L32.3855 163.15C32.0438 163.861 31.5039 164.456 30.8341 164.873L28.9888 166.007C28.4147 166.362 27.6903 166.39 27.1025 166.048C27.082 166.034 27.0615 166.021 27.041 166.007C26.4533 165.638 26.3986 164.797 26.8839 164.298L28.8111 162.316C28.8111 162.316 27.7245 163.143 27.4238 162.815C27.1982 162.569 28.4763 161.373 29.4536 161.339C30.4309 161.298 31.374 160.533 31.374 160.533L32.6862 162.535Z" fill="#FFC2B0"/>
<path d="M27.7997 117.818C27.7997 117.818 20.733 125.507 17.8762 132.567C17.8762 132.567 20.2956 136.92 26.2073 138.629C32.1258 140.337 27.7997 117.818 27.7997 117.818Z" fill="#C361F0"/>
<path d="M24.8815 138.178L26.0296 127.113L23.3301 137.48C23.8085 137.726 24.3279 137.959 24.8815 138.178Z" fill="#B250DE"/>
<path d="M33.0894 116.267L31.1895 115.747C31.1895 115.747 32.0984 117.176 33.4174 117.538C34.7433 117.9 34.9483 116.779 34.9483 116.779L33.0894 116.267Z" fill="white"/>
<path d="M43.2385 113.225C43.2385 113.806 42.767 114.285 42.1792 114.285C41.5983 114.285 41.1199 113.813 41.1199 113.225C41.1199 112.644 41.5914 112.166 42.1792 112.166C42.767 112.173 43.2385 112.644 43.2385 113.225Z" fill="white"/>
<path d="M81.5723 204.582L49.8951 186.294C48.9724 185.761 49.0886 184.831 50.1548 184.216L69.2704 173.179C70.3366 172.563 71.9427 172.495 72.8653 173.028L104.542 191.317C105.465 191.85 105.349 192.779 104.283 193.395L85.1671 204.432C84.1078 205.047 82.4949 205.109 81.5723 204.582Z" fill="white"/>
<path opacity="0.5" d="M116.243 220.076L70.5552 193.702C69.5301 193.108 69.5301 191.624 70.5552 191.037L113.994 165.962L162.6 194.023C163.625 194.618 163.625 196.101 162.6 196.689L122.079 220.083C120.275 221.115 118.047 221.115 116.243 220.076Z" fill="#173D7A"/>
<path d="M114.924 147.666C114.924 144.768 112.881 143.586 110.373 145.028L67.6445 169.645C66.9542 170.042 66.3938 171.012 66.3938 171.812C66.3938 172.611 66.9542 172.933 67.6445 172.536L110.373 147.919C111.507 147.263 112.43 147.796 112.43 149.108L112.423 153.885C113.25 153.831 114.084 153.831 114.924 153.844V147.666Z" fill="#F16A51"/>
<path d="M67.6233 181.127L110.352 165.558C112.867 164.109 114.91 160.569 114.917 157.671L114.924 153.844C114.083 153.831 113.249 153.831 112.422 153.885L112.416 159.113C112.416 160.419 111.493 162.018 110.358 162.674L67.6301 178.243C66.9399 178.639 66.3795 179.61 66.3795 180.409C66.3726 181.202 66.933 181.53 67.6233 181.127Z" fill="#C84128"/>
<path d="M66.6938 181.188L118.676 211.26L162.682 185.016L166.175 179.808L165.812 181.653L164.869 176.821L83.1851 179.938L68.792 179.008L66.6938 181.188Z" fill="#C54E38"/>
<path d="M68.4229 172.112L68.4092 178.509L118.642 207.569L120.002 201.473L68.4229 172.112Z" fill="#FAD0C8"/>
<path d="M165.525 174.764L113.632 144.741L66.8442 171.948L66.7485 172.618L118.717 202.682L165.525 174.764Z" fill="#F16A51"/>
<path d="M148.979 190.182L161.179 182.945C162.204 182.22 163.01 180.765 163.017 179.541L163.024 178.585C163.024 177.812 162.703 177.307 162.204 177.163L138.188 190.524L118.628 201.104L118.648 207.576L148.979 190.182Z" fill="white"/>
<path d="M120.378 201.691L68.8124 171.86L67.7189 171.224L66.7211 170.643C66.5161 171.019 66.3862 171.429 66.3862 171.805C66.3862 172.194 66.5229 172.475 66.7416 172.604L66.7484 172.611H66.7553L118.717 202.676L120.378 201.691Z" fill="#E26750"/>
<path d="M118.027 210.89L118.676 211.26L118.792 211.055L118.389 210.74L118.027 210.89Z" fill="white"/>
<path d="M118.04 202.293L118.71 202.676L118.539 202.313L118.04 202.293Z" fill="white"/>
<path d="M119.612 199.716L162.341 175.099C164.856 173.65 166.899 174.832 166.892 177.73L166.885 178.687C166.885 181.585 164.835 185.125 162.32 186.574L119.592 211.191C118.901 211.588 118.341 211.266 118.341 210.467C118.341 209.667 118.901 208.697 119.592 208.3L162.32 183.683C163.455 183.027 164.377 181.434 164.377 180.122L164.384 179.165C164.384 177.86 163.461 177.327 162.327 177.976L119.599 202.594C118.908 202.99 118.348 202.669 118.348 201.869C118.362 201.083 118.922 200.113 119.612 199.716Z" fill="#F16A51"/>
<path d="M118.348 210.474C118.348 209.674 118.908 208.703 119.598 208.307L162.327 183.69C163.461 183.034 164.384 181.441 164.384 180.129L164.391 179.172C164.391 178.318 163.994 177.792 163.407 177.717C163.598 177.969 163.707 178.325 163.707 178.776L163.7 179.733C163.7 181.038 162.778 182.637 161.643 183.293L118.915 207.911C118.225 208.307 117.664 209.278 117.664 210.077C117.664 210.679 117.986 211.014 118.443 210.966C118.375 210.829 118.348 210.665 118.348 210.474Z" fill="white"/>
<path d="M118.362 201.883C118.362 201.083 118.923 200.113 119.613 199.716L162.341 175.099C163.421 174.477 164.419 174.34 165.198 174.621C164.364 173.91 163.086 173.876 161.658 174.703L118.929 199.32C118.239 199.716 117.679 200.687 117.679 201.486C117.679 202.088 118 202.423 118.458 202.375C118.396 202.238 118.362 202.074 118.362 201.883Z" fill="white"/>
<path d="M98.5967 175.359L122.175 161.772L142.624 173.602L119.045 187.182L98.5967 175.359Z" fill="white"/>
</g>
<g clip-path="url(#clip3)">
<path opacity="0.5" d="M126.64 294.12L110.586 284.804C109.598 284.231 109.721 283.232 110.862 282.577L126.364 273.585C127.504 272.923 129.221 272.853 130.208 273.426L146.263 282.742C147.251 283.315 147.127 284.314 145.987 284.975L130.485 293.961C129.344 294.622 127.622 294.693 126.64 294.12Z" fill="#173D7A"/>
<path d="M146.921 273.804V268.239L134.5 268.233L130.208 265.74C129.221 265.167 127.504 265.238 126.364 265.899L122.36 268.221H109.927V273.946C109.898 274.33 110.115 274.708 110.586 274.979L126.64 284.296C127.628 284.869 129.344 284.798 130.485 284.136L145.987 275.145C146.639 274.755 146.957 274.265 146.921 273.804Z" fill="#396CAA"/>
<path d="M128.421 265.356C127.698 265.373 126.952 265.557 126.364 265.899L122.36 268.221H109.927V273.945C109.898 274.329 110.115 274.708 110.586 274.979L126.64 284.296C127.116 284.573 127.757 284.698 128.421 284.68V265.356Z" fill="#396CAA"/>
<path d="M111.332 268.221H109.927V273.945C109.898 274.329 110.115 274.708 110.586 274.979L111.332 275.411V268.221Z" fill="#5793CE"/>
<path d="M126.887 284.414C127.739 284.78 128.968 284.757 129.961 284.379V277.88H126.887V284.414Z" fill="#5793CE"/>
<path d="M126.639 278.588L110.584 269.271C109.597 268.698 109.72 267.7 110.86 267.044L126.362 258.047C127.503 257.385 129.219 257.314 130.207 257.887L146.261 267.204C147.249 267.777 147.126 268.775 145.985 269.431L130.483 278.428C129.343 279.084 127.62 279.161 126.639 278.588Z" fill="#D4ECFF"/>
<path d="M145.981 268.339L130.485 277.331C129.344 277.992 127.628 278.063 126.64 277.49L110.586 268.18C110.368 268.05 110.203 267.902 110.092 267.742C109.751 268.292 109.91 268.883 110.586 269.278L126.64 278.595C127.628 279.168 129.344 279.097 130.485 278.435L145.987 269.444C146.868 268.93 147.139 268.215 146.757 267.654C146.598 267.89 146.339 268.132 145.981 268.339Z" fill="white"/>
<path d="M141.013 275.275C141.013 275.688 140.725 276.196 140.367 276.403C140.008 276.61 139.72 276.444 139.72 276.025C139.72 275.611 140.008 275.103 140.367 274.897C140.725 274.69 141.013 274.861 141.013 275.275Z" fill="#D4ECFF"/>
<path d="M143.1 274.064C143.1 274.477 142.812 274.985 142.454 275.192C142.095 275.399 141.807 275.233 141.807 274.814C141.807 274.4 142.095 273.892 142.454 273.686C142.812 273.479 143.1 273.65 143.1 274.064Z" fill="#D4ECFF"/>
<path d="M145.187 272.853C145.187 273.266 144.899 273.774 144.54 273.981C144.182 274.188 143.894 274.022 143.894 273.603C143.894 273.189 144.182 272.681 144.54 272.474C144.899 272.268 145.187 272.439 145.187 272.853Z" fill="#D4ECFF"/>
<path d="M127.587 272.811L120.074 268.451C119.615 268.185 119.668 267.719 120.203 267.406L127.457 263.199C127.992 262.892 128.798 262.857 129.256 263.123L136.769 267.482C137.228 267.748 137.175 268.215 136.64 268.528L129.385 272.734C128.856 273.048 128.051 273.083 127.587 272.811Z" fill="#5793CE"/>
<path d="M128.31 269.166L127.269 268.564C127.204 268.528 127.216 268.463 127.287 268.422L128.292 267.837C128.368 267.796 128.474 267.79 128.539 267.825L129.579 268.428C129.644 268.463 129.632 268.528 129.562 268.569L128.556 269.154C128.48 269.196 128.368 269.202 128.31 269.166Z" fill="#D4ECFF"/>
<path d="M120.074 268.459L120.098 268.471C120.133 268.447 120.163 268.417 120.204 268.394L127.458 264.187C127.993 263.88 128.798 263.845 129.257 264.111L136.746 268.459C137.169 268.152 137.193 267.738 136.77 267.49L129.257 263.13C128.798 262.864 127.993 262.894 127.458 263.207L120.204 267.413C119.675 267.72 119.616 268.187 120.074 268.459Z" fill="#396CAA"/>
</g>
<defs>
<linearGradient id="paint0_linear" x1="267.298" y1="210.192" x2="302.13" y2="152.042" gradientUnits="userSpaceOnUse">
<stop stop-color="#2D0979"/>
<stop offset="1" stop-color="#5B04F7"/>
</linearGradient>
<linearGradient id="paint1_linear" x1="216.8" y1="185.395" x2="244.445" y2="181.57" gradientUnits="userSpaceOnUse">
<stop stop-color="#3919BB"/>
<stop offset="1" stop-color="#6507FA"/>
</linearGradient>
<linearGradient id="paint2_linear" x1="216.8" y1="185.395" x2="244.445" y2="181.57" gradientUnits="userSpaceOnUse">
<stop stop-color="#3919BB"/>
<stop offset="1" stop-color="#6507FA"/>
</linearGradient>
<clipPath id="clip0">
<rect width="69.1999" height="127.244" fill="white" transform="translate(216.809 122.088) rotate(0.920736)"/>
</clipPath>
<clipPath id="clip1">
<rect width="42.7294" height="57.7268" fill="white" transform="translate(25.01 3.88987) rotate(-5.22315)"/>
</clipPath>
<clipPath id="clip2">
<rect width="225.855" height="232.313" fill="white" transform="translate(0.0727539 17.212)"/>
</clipPath>
<clipPath id="clip3">
<rect width="37" height="37" fill="white" transform="translate(109.921 257.504)"/>
</clipPath>
</defs>
</svg>
