<svg width="768" height="812" viewBox="0 0 768 812" fill="none" xmlns="http://www.w3.org/2000/svg">
<g clip-path="url(#clip0)">
<g clip-path="url(#clip1)">
<path d="M622.552 430.556C598.457 358.207 505.066 355.268 461.382 362.842C262.659 417.797 309.929 551.296 382.737 609.887C390.978 616.519 403.852 634.203 396.975 660.102C386.459 731.175 440.046 743.779 467.627 743.779C516.327 743.779 544.32 704.695 544.32 704.695C584.03 655.163 597.465 666.803 625.565 666.803C715.212 666.803 776.067 629.917 793.821 580.175C808.025 540.381 770.26 523.989 749.603 520.768C717.293 520.842 646.648 502.904 622.552 430.556Z" fill="url(#paint0_radial)"/>
<path d="M39.8385 764.359C40.9466 783.74 26.848 816.205 -27.6052 815.972C-79.9317 815.748 -125.483 893.476 -143.902 906.31C-162.322 919.145 -186.711 909.668 -198.769 858.971C-210.827 808.274 -179.482 795.975 -162.302 796.162C-148.64 797.048 -118.729 797.302 -108.384 791.23C-98.0396 785.159 -98.0869 773.919 -81.1831 743.631C-64.2794 713.343 -52.998 709.561 -14.9506 715.107C23.0967 720.652 38.7304 744.977 39.8385 764.359Z" fill="url(#paint1_linear)"/>
<path d="M688.479 738.005C684.383 764.09 655.916 781.287 624.898 776.416C593.879 771.544 572.055 746.449 576.151 720.364C580.248 694.278 608.715 677.081 639.733 681.953C670.752 686.825 692.576 711.92 688.479 738.005Z" fill="url(#paint2_linear)"/>
<path d="M743.088 11.0467C748.189 0.87505 762.13 -2.45329 774.225 3.61268C786.321 9.67866 791.991 22.8419 786.89 33.0136C781.788 43.1853 767.848 46.5136 755.752 40.4476C743.657 34.3817 737.987 21.2184 743.088 11.0467Z" fill="url(#paint3_linear)"/>
<path d="M786.716 348.421C860.76 418.996 901.764 394.557 910.165 440.205C932.726 562.791 709.61 533.406 647.276 414.368C593.851 303.955 534.76 98.8514 721.38 57.9711C877.303 32.8944 712.673 277.846 786.716 348.421Z" fill="url(#paint4_linear)"/>
<path d="M8.21398 686.957C10.9143 672.9 26.6544 664.107 43.3706 667.318C60.0867 670.529 71.4488 684.528 68.7485 698.586C66.0482 712.643 50.3081 721.436 33.5919 718.225C16.8758 715.014 5.51367 701.015 8.21398 686.957Z" fill="url(#paint5_linear)"/>
</g>
</g>
<defs>
<radialGradient id="paint0_radial" cx="0" cy="0" r="1" gradientUnits="userSpaceOnUse" gradientTransform="translate(483.778 329.293) rotate(71.9996) scale(481.398 1158.66)">
<stop offset="0.193564" stop-color="#F16A51"/>
<stop offset="0.607265" stop-color="#F961EA"/>
<stop offset="1" stop-color="#8061F9"/>
</radialGradient>
<linearGradient id="paint1_linear" x1="-57.4843" y1="879.753" x2="-103.806" y2="736.696" gradientUnits="userSpaceOnUse">
<stop stop-color="#F2695D"/>
<stop offset="1" stop-color="#B250DE"/>
</linearGradient>
<linearGradient id="paint2_linear" x1="593.644" y1="685.747" x2="697.188" y2="739.868" gradientUnits="userSpaceOnUse">
<stop stop-color="#D361EE"/>
<stop offset="1" stop-color="#F16A51"/>
</linearGradient>
<linearGradient id="paint3_linear" x1="775.171" y1="44.9316" x2="739.757" y2="9.14027" gradientUnits="userSpaceOnUse">
<stop stop-color="#D361EE"/>
<stop offset="1" stop-color="#F16A51"/>
</linearGradient>
<linearGradient id="paint4_linear" x1="595.802" y1="396.632" x2="847.905" y2="308.78" gradientUnits="userSpaceOnUse">
<stop offset="0.0208333" stop-color="#616FEE"/>
<stop offset="0.48107" stop-color="#D361EE"/>
<stop offset="1" stop-color="#F16A51"/>
</linearGradient>
<linearGradient id="paint5_linear" x1="58.6329" y1="717.018" x2="3.52998" y2="685.787" gradientUnits="userSpaceOnUse">
<stop stop-color="#D361EE"/>
<stop offset="1" stop-color="#F16A51"/>
</linearGradient>
<clipPath id="clip0">
<rect width="768" height="812" fill="white"/>
</clipPath>
<clipPath id="clip1">
<rect width="768" height="912" fill="white"/>
</clipPath>
</defs>
</svg>
