<svg width="768" height="347" viewBox="0 0 768 347" fill="none" xmlns="http://www.w3.org/2000/svg">
<g clip-path="url(#clip0)">
<g clip-path="url(#clip1)">
<path d="M134.871 241.212C-9.71585 164.329 -76.7042 285.646 -142.04 346.944C-186.574 372.391 -242.241 296.048 -204.069 257.876C-165.897 219.705 -225.348 158.862 -151.583 102.009C-77.8178 45.156 -15.9777 51.498 83.7149 80.676C139.486 94.942 188.677 120.986 249 130.637C309.324 140.289 492.444 97.735 534.946 178.564C577.448 259.393 305.385 331.882 134.871 241.212Z" fill="url(#paint0_linear)"/>
<path d="M221.8 226.596C208.2 226.596 197.1 237.696 197.1 251.296V295.896C197.1 309.496 208.2 320.596 221.8 320.596C235.4 320.596 246.5 309.496 246.5 295.896V251.296C246.5 237.696 235.4 226.596 221.8 226.596Z" fill="#B461F2"/>
<path d="M221.9 238.596H221.1V347.396H221.9V238.596Z" fill="#F6D1FF"/>
<path d="M209.2 271.396L221.3 281.496L234.8 271.896L234.4 271.196L221.3 280.496L209.9 270.796L209.2 271.396Z" fill="#F6D1FF"/>
<path d="M209.2 295.596L221.3 305.696L234.8 296.096L234.4 295.396L221.3 304.696L209.9 294.996L209.2 295.596Z" fill="#F6D1FF"/>
<path d="M209.2 247.196L221.3 257.296L234.8 247.696L234.4 246.996L221.3 256.296L209.9 246.596L209.2 247.196Z" fill="#F6D1FF"/>
<path d="M228.7 347.496H215.6C215.3 347.496 215.1 347.296 215.1 346.996C215.1 346.696 215.3 346.496 215.6 346.496H228.7C229 346.496 229.2 346.696 229.2 346.996C229.2 347.196 229 347.496 228.7 347.496Z" fill="#B461F2"/>
<path d="M718.264 139.017C784.461 114.766 734.946 81.316 731.279 58.837C728.853 36.852 743.448 24.4 780.27 56.158C817.091 87.916 820.497 107.119 822.822 121.286C824.574 131.956 834.148 158.541 793.53 188.156C780.24 197.846 740.477 222.194 692.533 236.174C644.59 250.154 607.678 251.626 605.888 232.513C604.097 213.401 640.197 167.616 718.264 139.017Z" fill="url(#paint1_linear)"/>
<path d="M88.8 126.315V131.615C88.8 131.615 89.5 135.015 90 138.615C90.5 142.215 90.9 146.015 90.4 146.915C89.3 148.715 87.2 146.915 86.8 145.115C86.4 143.315 85.9 132.315 85.9 132.315L85.5 125.215L88.8 126.315Z" fill="#1D2992"/>
<path d="M94.2 125.615L93.4 130.315C93.4 130.315 91.8 143.315 92.7 145.315C93.6 147.315 96.4 146.415 96.3 143.715C96.1 141.015 96.8 131.615 96.8 131.615L98.4 125.915L94.2 125.615Z" fill="#1D2992"/>
<path d="M91.9999 67.615L91.5999 73.515L106.7 80.815C109.4 82.315 110.7 85.515 109.8 88.415L99.3999 127.315L94.1999 125.715L98.7999 89.915C99.0999 87.715 97.5999 85.715 95.3999 85.315L89.9999 84.515L84.2999 78.715L90.8999 84.615C92.4999 86.015 93.2999 88.215 92.9999 90.315L88.6999 126.415L83.9999 127.615L81.8999 92.115C81.6999 89.815 80.1999 87.915 78.0999 87.215L68.7999 84.215C67.3999 83.215 66.4999 81.715 66.3999 79.915L66.7999 67.415L91.9999 67.615Z" fill="#211F1D"/>
<path d="M65.8999 80.715L68.3999 32.215C68.3999 32.215 78.6999 31.615 81.7999 31.615C83.4999 31.615 86.2999 32.415 88.5999 33.115C90.6999 33.815 92.4999 33.715 93.4999 35.715L110.4 68.115L99.9999 69.115L96.4999 65.115L98.2999 62.415L91.9999 47.515L93.1999 74.615L65.8999 80.715Z" fill="#F16A51"/>
<path opacity="0.5" d="M92.2 41.715L103.4 61.915L99.9 66.015C99.9 66.015 98.5 66.315 97.1 65.815L96.5 65.115L98.3 62.415L92 47.515L92.2 41.715Z" fill="url(#paint2_linear)"/>
<path d="M82.2 46.215C78.8 46.215 72.5 37.315 72.5 33.915C72.5 33.215 72.6 32.515 72.8 31.915C76 31.715 80 31.515 81.7 31.515C82.5 31.515 83.5 31.715 84.5 31.915C84.7 32.515 84.8 33.215 84.8 33.815C84.9 37.315 85.6 46.215 82.2 46.215Z" fill="white"/>
<path d="M67.0999 40.615L65.8999 81.015L82.5999 77.015L67.0999 40.615Z" fill="#D65E48"/>
<path d="M82.8 26.615C82.5 27.215 80.5 35.115 80.5 35.115C80.5 35.115 79.8 36.415 78 36.315C76.3 36.215 75.5 33.715 75.5 33.715L78.5 23.715L82.8 26.615Z" fill="#EEBCC5"/>
<path d="M72.1001 21.7149C72.1001 27.2149 77.9001 33.3149 83.4001 33.3149C88.9001 33.3149 92.0001 27.2149 92.0001 21.7149C92.0001 16.2149 87.6001 11.8149 82.1001 11.8149C76.5001 11.8149 72.1001 16.2149 72.1001 21.7149Z" fill="#EEBCC5"/>
<path d="M84.7923 33.411C90.8109 31.983 94.5321 25.946 93.1038 19.928C91.6756 13.909 85.6387 10.188 79.6202 11.616C73.6016 13.044 69.8804 19.081 71.3086 25.1C72.7369 31.118 78.7737 34.84 84.7923 33.411Z" fill="#EEBCC5"/>
<path d="M89.6003 28.6149C89.4003 29.0149 89.4003 29.4149 89.7003 29.6149C90.0003 29.8149 90.4003 29.6149 90.6003 29.2149C90.8003 28.8149 90.8003 28.4149 90.5003 28.2149C90.2003 28.0149 89.8003 28.2149 89.6003 28.6149Z" fill="#3E3577"/>
<path d="M83.9001 29.2149C83.7001 29.6149 83.7001 30.115 84.0001 30.315C84.3001 30.515 84.7001 30.315 85.0001 29.815C85.2001 29.415 85.2001 28.9149 84.9001 28.7149C84.6001 28.5149 84.2001 28.7149 83.9001 29.2149Z" fill="#3E3577"/>
<path d="M80.1 76.115C80.5 76.015 84.2 74.215 86.8 74.215C89.4 74.215 92.6 77.015 92.6 77.015C92.6 77.015 93 78.415 91.3 78.215C89.6 77.915 91.5 79.315 91.5 79.315C91.5 79.315 91.4 79.215 89.4 79.515C87.4 79.815 79.5 79.415 79.5 79.415L80.1 76.115Z" fill="#EEBCC5"/>
<path d="M68.3 32.215L66.9 64.115L80 76.015L79.4 79.315L61 69.515C59.2 68.515 58.2 66.615 58.5 64.615L61.8 40.115C62.1 37.115 63.9 34.415 66.7 33.015L68.3 32.215Z" fill="#F16A51"/>
<path d="M78.7998 82.115H112.2V79.615H78.7998C78.0998 79.615 77.5998 80.115 77.5998 80.815C77.4998 81.515 78.0998 82.115 78.7998 82.115Z" fill="white"/>
<path d="M87.8999 82.115H120.2C121.6 82.115 122.9 81.115 123.2 79.815L128.9 58.415C129.4 56.415 127.9 54.415 125.9 54.415H97.6999C96.2999 54.415 94.9999 55.415 94.6999 56.715L87.8999 82.115Z" fill="#5793CE"/>
<path d="M82.2001 11.3149C87.9001 11.3149 92.7001 15.6149 93.3001 21.2149C91.4001 22.6149 88.8001 23.3149 86.4001 22.9149C83.6001 22.4149 81.1001 20.5149 79.9001 17.9149C80.0001 19.1149 80.1001 20.4149 79.9001 21.6149C79.7001 22.8149 79.2001 24.0149 78.2001 24.8149C78.1001 23.9149 78.0001 23.0149 77.6001 22.3149C77.1001 21.6149 76.2001 21.0149 75.4001 21.3149C74.8001 21.5149 74.4001 22.1149 74.4001 22.8149C74.3001 23.4149 74.5001 24.0149 74.7001 24.6149C75.1001 25.5149 75.6001 26.4149 76.3001 27.1149C75.0001 27.3149 73.6001 27.5149 72.3001 27.3149C71.6001 25.8149 71.2001 24.2149 71.2001 22.5149C71.0001 16.3149 76.0001 11.3149 82.2001 11.3149Z" fill="#1D2992"/>
<path d="M72.6001 24.315C72.6001 26.215 74.1001 27.715 76.0001 27.715C77.9001 27.715 79.4001 26.215 79.4001 24.315C79.4001 22.415 77.9001 20.915 76.0001 20.915C74.1001 20.915 72.6001 22.415 72.6001 24.315Z" fill="#EEBCC5"/>
<path d="M94.2001 125.615L93.6001 129.215L97.2001 130.315L98.1001 126.815L94.2001 125.615Z" fill="#EEBCC5"/>
<path d="M88.8002 130.315L85.8002 130.815L85.7002 127.115L88.8002 126.315V130.315Z" fill="#EEBCC5"/>
<path d="M68.7998 7.31499C68.7998 11.315 71.9998 14.515 75.9998 14.515C79.9998 14.515 83.1998 11.315 83.1998 7.31499C83.1998 3.31499 79.9998 0.11499 75.9998 0.11499C71.9998 0.11499 68.7998 3.31499 68.7998 7.31499Z" fill="#1D2992"/>
</g>
</g>
<defs>
<linearGradient id="paint0_linear" x1="-133.136" y1="-37.974" x2="175.431" y2="496.763" gradientUnits="userSpaceOnUse">
<stop offset="0.0104167" stop-color="#F16A51"/>
<stop offset="0.494792" stop-color="#B761F2"/>
<stop offset="0.979167" stop-color="#5869FF"/>
</linearGradient>
<linearGradient id="paint1_linear" x1="812.898" y1="110.286" x2="675.969" y2="269.36" gradientUnits="userSpaceOnUse">
<stop offset="0.0104167" stop-color="#F16A51"/>
<stop offset="0.494792" stop-color="#B761F2"/>
<stop offset="0.979167" stop-color="#5869FF"/>
</linearGradient>
<linearGradient id="paint2_linear" x1="103.383" y1="53.904" x2="91.9367" y2="53.904" gradientUnits="userSpaceOnUse">
<stop stop-color="#D37897" stop-opacity="0"/>
<stop offset="0.8988" stop-color="#BC547C"/>
</linearGradient>
<clipPath id="clip0">
<rect width="768" height="347" fill="white"/>
</clipPath>
<clipPath id="clip1">
<rect width="768" height="820" fill="white" transform="translate(0 -203)"/>
</clipPath>
</defs>
</svg>
