<svg width="1110" height="76" viewBox="0 0 1110 76" fill="none" xmlns="http://www.w3.org/2000/svg">
<rect y="3.87787" width="1110" height="70" fill="#211F1D"/>
<path d="M950 1.98161L1014.24 74.9392" stroke="white" stroke-width="3"/>
<path d="M928.89 1.98161L993.129 74.9392" stroke="white" stroke-width="3"/>
<path d="M415.472 38.7259C415.985 38.9592 416.377 39.2765 416.648 39.6779C416.928 40.0699 417.068 40.5319 417.068 41.0639C417.068 41.6612 416.9 42.1839 416.564 42.6319C416.237 43.0799 415.771 43.4252 415.164 43.6679C414.557 43.9012 413.853 44.0179 413.05 44.0179C412.247 44.0179 411.543 43.9012 410.936 43.6679C410.339 43.4252 409.877 43.0799 409.55 42.6319C409.223 42.1839 409.06 41.6612 409.06 41.0639C409.06 40.5319 409.195 40.0699 409.466 39.6779C409.737 39.2765 410.124 38.9592 410.628 38.7259C410.236 38.5112 409.933 38.2312 409.718 37.8859C409.513 37.5312 409.41 37.1252 409.41 36.6679C409.41 36.1172 409.559 35.6365 409.858 35.2259C410.166 34.8152 410.595 34.4979 411.146 34.2739C411.697 34.0499 412.331 33.9379 413.05 33.9379C413.778 33.9379 414.417 34.0499 414.968 34.2739C415.519 34.4979 415.948 34.8152 416.256 35.2259C416.564 35.6365 416.718 36.1172 416.718 36.6679C416.718 37.1252 416.611 37.5265 416.396 37.8719C416.181 38.2172 415.873 38.5019 415.472 38.7259ZM413.05 35.3659C412.481 35.3659 412.028 35.4872 411.692 35.7299C411.365 35.9725 411.202 36.3132 411.202 36.7519C411.202 37.1719 411.365 37.5079 411.692 37.7599C412.028 38.0025 412.481 38.1239 413.05 38.1239C413.629 38.1239 414.086 38.0025 414.422 37.7599C414.758 37.5079 414.926 37.1719 414.926 36.7519C414.926 36.3132 414.753 35.9725 414.408 35.7299C414.072 35.4872 413.619 35.3659 413.05 35.3659ZM413.05 42.5899C413.722 42.5899 414.254 42.4499 414.646 42.1699C415.038 41.8899 415.234 41.5025 415.234 41.0079C415.234 40.5225 415.038 40.1399 414.646 39.8599C414.254 39.5799 413.722 39.4399 413.05 39.4399C412.378 39.4399 411.851 39.5799 411.468 39.8599C411.085 40.1399 410.894 40.5225 410.894 41.0079C410.894 41.5025 411.085 41.8899 411.468 42.1699C411.851 42.4499 412.378 42.5899 413.05 42.5899ZM424.302 39.3559C423.602 39.3559 423.037 39.1085 422.608 38.6139C422.179 38.1192 421.964 37.4705 421.964 36.6679C421.964 35.8652 422.179 35.2165 422.608 34.7219C423.037 34.2272 423.602 33.9799 424.302 33.9799C425.002 33.9799 425.567 34.2272 425.996 34.7219C426.435 35.2072 426.654 35.8559 426.654 36.6679C426.654 37.4799 426.435 38.1332 425.996 38.6279C425.567 39.1132 425.002 39.3559 424.302 39.3559ZM430.182 34.0779H431.554L424.862 43.8779H423.49L430.182 34.0779ZM424.302 38.3759C424.685 38.3759 424.979 38.2265 425.184 37.9279C425.399 37.6292 425.506 37.2092 425.506 36.6679C425.506 36.1265 425.399 35.7065 425.184 35.4079C424.979 35.1092 424.685 34.9599 424.302 34.9599C423.938 34.9599 423.644 35.1139 423.42 35.4219C423.205 35.7205 423.098 36.1359 423.098 36.6679C423.098 37.1999 423.205 37.6199 423.42 37.9279C423.644 38.2265 423.938 38.3759 424.302 38.3759ZM430.728 43.9759C430.028 43.9759 429.463 43.7285 429.034 43.2339C428.605 42.7392 428.39 42.0905 428.39 41.2879C428.39 40.4852 428.605 39.8365 429.034 39.3419C429.463 38.8472 430.028 38.5999 430.728 38.5999C431.428 38.5999 431.993 38.8472 432.422 39.3419C432.861 39.8365 433.08 40.4852 433.08 41.2879C433.08 42.0905 432.861 42.7392 432.422 43.2339C431.993 43.7285 431.428 43.9759 430.728 43.9759ZM430.728 42.9959C431.101 42.9959 431.395 42.8465 431.61 42.5479C431.825 42.2399 431.932 41.8199 431.932 41.2879C431.932 40.7559 431.825 40.3405 431.61 40.0419C431.395 39.7339 431.101 39.5799 430.728 39.5799C430.355 39.5799 430.061 39.7292 429.846 40.0279C429.631 40.3265 429.524 40.7465 429.524 41.2879C429.524 41.8292 429.631 42.2492 429.846 42.5479C430.061 42.8465 430.355 42.9959 430.728 42.9959ZM441.924 43.9759C441.168 43.9759 440.487 43.8125 439.88 43.4859C439.273 43.1592 438.797 42.7065 438.452 42.1279C438.116 41.5399 437.948 40.8772 437.948 40.1399C437.948 39.4025 438.116 38.7445 438.452 38.1659C438.797 37.5872 439.273 37.1345 439.88 36.8079C440.487 36.4812 441.168 36.3179 441.924 36.3179C442.689 36.3179 443.375 36.4812 443.982 36.8079C444.589 37.1345 445.06 37.5872 445.396 38.1659C445.741 38.7445 445.914 39.4025 445.914 40.1399C445.914 40.8772 445.741 41.5399 445.396 42.1279C445.06 42.7065 444.589 43.1592 443.982 43.4859C443.375 43.8125 442.689 43.9759 441.924 43.9759ZM441.924 42.4779C442.568 42.4779 443.1 42.2632 443.52 41.8339C443.94 41.4045 444.15 40.8399 444.15 40.1399C444.15 39.4399 443.94 38.8752 443.52 38.4459C443.1 38.0165 442.568 37.8019 441.924 37.8019C441.28 37.8019 440.748 38.0165 440.328 38.4459C439.917 38.8752 439.712 39.4399 439.712 40.1399C439.712 40.8399 439.917 41.4045 440.328 41.8339C440.748 42.2632 441.28 42.4779 441.924 42.4779ZM453.291 37.8859H450.673V43.8779H448.923V37.8859H446.291V36.4019H453.291V37.8859ZM461.762 43.9759C461.006 43.9759 460.325 43.8125 459.718 43.4859C459.111 43.1592 458.635 42.7065 458.29 42.1279C457.954 41.5399 457.786 40.8772 457.786 40.1399C457.786 39.4025 457.954 38.7445 458.29 38.1659C458.635 37.5872 459.111 37.1345 459.718 36.8079C460.325 36.4812 461.006 36.3179 461.762 36.3179C462.527 36.3179 463.213 36.4812 463.82 36.8079C464.427 37.1345 464.898 37.5872 465.234 38.1659C465.579 38.7445 465.752 39.4025 465.752 40.1399C465.752 40.8772 465.579 41.5399 465.234 42.1279C464.898 42.7065 464.427 43.1592 463.82 43.4859C463.213 43.8125 462.527 43.9759 461.762 43.9759ZM461.762 42.4779C462.406 42.4779 462.938 42.2632 463.358 41.8339C463.778 41.4045 463.988 40.8399 463.988 40.1399C463.988 39.4399 463.778 38.8752 463.358 38.4459C462.938 38.0165 462.406 37.8019 461.762 37.8019C461.118 37.8019 460.586 38.0165 460.166 38.4459C459.755 38.8752 459.55 39.4399 459.55 40.1399C459.55 40.8399 459.755 41.4045 460.166 41.8339C460.586 42.2632 461.118 42.4779 461.762 42.4779ZM471.527 36.7659C472.236 36.7659 472.861 36.9199 473.403 37.2279C473.944 37.5265 474.364 37.9465 474.663 38.4879C474.971 39.0292 475.125 39.6499 475.125 40.3499C475.125 41.0685 474.957 41.7079 474.621 42.2679C474.285 42.8185 473.813 43.2479 473.207 43.5559C472.6 43.8639 471.909 44.0179 471.135 44.0179C469.837 44.0179 468.834 43.5885 468.125 42.7299C467.415 41.8712 467.061 40.6345 467.061 39.0199C467.061 37.5172 467.383 36.3272 468.027 35.4499C468.671 34.5725 469.655 33.9939 470.981 33.7139L474.453 32.9719L474.705 34.5399L471.555 35.1839C470.649 35.3705 469.973 35.6879 469.525 36.1359C469.077 36.5839 468.815 37.2139 468.741 38.0259C469.077 37.6245 469.483 37.3165 469.959 37.1019C470.435 36.8779 470.957 36.7659 471.527 36.7659ZM471.177 42.6039C471.821 42.6039 472.339 42.3985 472.731 41.9879C473.132 41.5679 473.333 41.0359 473.333 40.3919C473.333 39.7479 473.132 39.2299 472.731 38.8379C472.339 38.4459 471.821 38.2499 471.177 38.2499C470.523 38.2499 469.996 38.4459 469.595 38.8379C469.193 39.2299 468.993 39.7479 468.993 40.3919C468.993 41.0452 469.193 41.5772 469.595 41.9879C470.005 42.3985 470.533 42.6039 471.177 42.6039ZM480.151 43.9759C479.395 43.9759 478.713 43.8125 478.107 43.4859C477.5 43.1592 477.024 42.7065 476.679 42.1279C476.343 41.5399 476.175 40.8772 476.175 40.1399C476.175 39.4025 476.343 38.7445 476.679 38.1659C477.024 37.5872 477.5 37.1345 478.107 36.8079C478.713 36.4812 479.395 36.3179 480.151 36.3179C480.916 36.3179 481.602 36.4812 482.209 36.8079C482.815 37.1345 483.287 37.5872 483.623 38.1659C483.968 38.7445 484.141 39.4025 484.141 40.1399C484.141 40.8772 483.968 41.5399 483.623 42.1279C483.287 42.7065 482.815 43.1592 482.209 43.4859C481.602 43.8125 480.916 43.9759 480.151 43.9759ZM480.151 42.4779C480.795 42.4779 481.327 42.2632 481.747 41.8339C482.167 41.4045 482.377 40.8399 482.377 40.1399C482.377 39.4399 482.167 38.8752 481.747 38.4459C481.327 38.0165 480.795 37.8019 480.151 37.8019C479.507 37.8019 478.975 38.0165 478.555 38.4459C478.144 38.8752 477.939 39.4399 477.939 40.1399C477.939 40.8399 478.144 41.4045 478.555 41.8339C478.975 42.2632 479.507 42.4779 480.151 42.4779ZM490.013 36.3179C490.741 36.3179 491.39 36.4765 491.959 36.7939C492.538 37.1112 492.991 37.5592 493.317 38.1379C493.644 38.7165 493.807 39.3839 493.807 40.1399C493.807 40.8959 493.644 41.5679 493.317 42.1559C492.991 42.7345 492.538 43.1825 491.959 43.4999C491.39 43.8172 490.741 43.9759 490.013 43.9759C489.005 43.9759 488.207 43.6399 487.619 42.9679V46.5939H485.869V36.4019H487.535V37.3819C487.825 37.0272 488.179 36.7612 488.599 36.5839C489.029 36.4065 489.5 36.3179 490.013 36.3179ZM489.817 42.4779C490.461 42.4779 490.989 42.2632 491.399 41.8339C491.819 41.4045 492.029 40.8399 492.029 40.1399C492.029 39.4399 491.819 38.8752 491.399 38.4459C490.989 38.0165 490.461 37.8019 489.817 37.8019C489.397 37.8019 489.019 37.8999 488.683 38.0959C488.347 38.2825 488.081 38.5532 487.885 38.9079C487.689 39.2625 487.591 39.6732 487.591 40.1399C487.591 40.6065 487.689 41.0172 487.885 41.3719C488.081 41.7265 488.347 42.0019 488.683 42.1979C489.019 42.3845 489.397 42.4779 489.817 42.4779ZM498.881 43.9759C498.125 43.9759 497.444 43.8125 496.837 43.4859C496.23 43.1592 495.754 42.7065 495.409 42.1279C495.073 41.5399 494.905 40.8772 494.905 40.1399C494.905 39.4025 495.073 38.7445 495.409 38.1659C495.754 37.5872 496.23 37.1345 496.837 36.8079C497.444 36.4812 498.125 36.3179 498.881 36.3179C499.646 36.3179 500.332 36.4812 500.939 36.8079C501.546 37.1345 502.017 37.5872 502.353 38.1659C502.698 38.7445 502.871 39.4025 502.871 40.1399C502.871 40.8772 502.698 41.5399 502.353 42.1279C502.017 42.7065 501.546 43.1592 500.939 43.4859C500.332 43.8125 499.646 43.9759 498.881 43.9759ZM498.881 42.4779C499.525 42.4779 500.057 42.2632 500.477 41.8339C500.897 41.4045 501.107 40.8399 501.107 40.1399C501.107 39.4399 500.897 38.8752 500.477 38.4459C500.057 38.0165 499.525 37.8019 498.881 37.8019C498.237 37.8019 497.705 38.0165 497.285 38.4459C496.874 38.8752 496.669 39.4399 496.669 40.1399C496.669 40.8399 496.874 41.4045 497.285 41.8339C497.705 42.2632 498.237 42.4779 498.881 42.4779ZM510.248 37.8859H507.63V43.8779H505.88V37.8859H503.248V36.4019H510.248V37.8859ZM514.304 36.3179C515.405 36.3179 516.245 36.5839 516.824 37.1159C517.412 37.6385 517.706 38.4319 517.706 39.4959V43.8779H516.054V42.9679C515.839 43.2945 515.531 43.5465 515.13 43.7239C514.738 43.8919 514.262 43.9759 513.702 43.9759C513.142 43.9759 512.652 43.8825 512.232 43.6959C511.812 43.4999 511.485 43.2339 511.252 42.8979C511.028 42.5525 510.916 42.1652 510.916 41.7359C510.916 41.0639 511.163 40.5272 511.658 40.1259C512.162 39.7152 512.95 39.5099 514.024 39.5099H515.956V39.3979C515.956 38.8752 515.797 38.4739 515.48 38.1939C515.172 37.9139 514.71 37.7739 514.094 37.7739C513.674 37.7739 513.258 37.8392 512.848 37.9699C512.446 38.1005 512.106 38.2825 511.826 38.5159L511.14 37.2419C511.532 36.9432 512.003 36.7145 512.554 36.5559C513.104 36.3972 513.688 36.3179 514.304 36.3179ZM514.066 42.7019C514.504 42.7019 514.892 42.6039 515.228 42.4079C515.573 42.2025 515.816 41.9132 515.956 41.5399V40.6719H514.15C513.142 40.6719 512.638 41.0032 512.638 41.6659C512.638 41.9832 512.764 42.2352 513.016 42.4219C513.268 42.6085 513.618 42.7019 514.066 42.7019ZM523.74 36.4019H525.49V39.4399H529.256V36.4019H531.006V43.8779H529.256V40.9239H525.49V43.8779H523.74V36.4019ZM536.138 36.3179C537.239 36.3179 538.079 36.5839 538.658 37.1159C539.246 37.6385 539.54 38.4319 539.54 39.4959V43.8779H537.888V42.9679C537.673 43.2945 537.365 43.5465 536.964 43.7239C536.572 43.8919 536.096 43.9759 535.536 43.9759C534.976 43.9759 534.486 43.8825 534.066 43.6959C533.646 43.4999 533.319 43.2339 533.086 42.8979C532.862 42.5525 532.75 42.1652 532.75 41.7359C532.75 41.0639 532.997 40.5272 533.492 40.1259C533.996 39.7152 534.784 39.5099 535.858 39.5099H537.79V39.3979C537.79 38.8752 537.631 38.4739 537.314 38.1939C537.006 37.9139 536.544 37.7739 535.928 37.7739C535.508 37.7739 535.092 37.8392 534.682 37.9699C534.28 38.1005 533.94 38.2825 533.66 38.5159L532.974 37.2419C533.366 36.9432 533.837 36.7145 534.388 36.5559C534.938 36.3972 535.522 36.3179 536.138 36.3179ZM535.9 42.7019C536.338 42.7019 536.726 42.6039 537.062 42.4079C537.407 42.2025 537.65 41.9132 537.79 41.5399V40.6719H535.984C534.976 40.6719 534.472 41.0032 534.472 41.6659C534.472 41.9832 534.598 42.2352 534.85 42.4219C535.102 42.6085 535.452 42.7019 535.9 42.7019ZM548.682 40.8819H547.324V43.8779H545.574V36.4019H547.324V39.4259H548.724L550.936 36.4019H552.812L550.096 39.9999L552.994 43.8779H550.936L548.682 40.8819ZM557.315 43.9759C556.559 43.9759 555.877 43.8125 555.271 43.4859C554.664 43.1592 554.188 42.7065 553.843 42.1279C553.507 41.5399 553.339 40.8772 553.339 40.1399C553.339 39.4025 553.507 38.7445 553.843 38.1659C554.188 37.5872 554.664 37.1345 555.271 36.8079C555.877 36.4812 556.559 36.3179 557.315 36.3179C558.08 36.3179 558.766 36.4812 559.373 36.8079C559.979 37.1345 560.451 37.5872 560.787 38.1659C561.132 38.7445 561.305 39.4025 561.305 40.1399C561.305 40.8772 561.132 41.5399 560.787 42.1279C560.451 42.7065 559.979 43.1592 559.373 43.4859C558.766 43.8125 558.08 43.9759 557.315 43.9759ZM557.315 42.4779C557.959 42.4779 558.491 42.2632 558.911 41.8339C559.331 41.4045 559.541 40.8399 559.541 40.1399C559.541 39.4399 559.331 38.8752 558.911 38.4459C558.491 38.0165 557.959 37.8019 557.315 37.8019C556.671 37.8019 556.139 38.0165 555.719 38.4459C555.308 38.8752 555.103 39.4399 555.103 40.1399C555.103 40.8399 555.308 41.4045 555.719 41.8339C556.139 42.2632 556.671 42.4779 557.315 42.4779ZM563.033 36.4019H564.783V39.4399H568.549V36.4019H570.299V43.8779H568.549V40.9239H564.783V43.8779H563.033V36.4019ZM578.567 37.8859H575.949V43.8779H574.199V37.8859H571.567V36.4019H578.567V37.8859ZM586.508 40.1819C586.508 40.3032 586.499 40.4759 586.48 40.6999H580.614C580.717 41.2505 580.983 41.6892 581.412 42.0159C581.851 42.3332 582.392 42.4919 583.036 42.4919C583.857 42.4919 584.534 42.2212 585.066 41.6799L586.004 42.7579C585.668 43.1592 585.243 43.4625 584.73 43.6679C584.217 43.8732 583.638 43.9759 582.994 43.9759C582.173 43.9759 581.449 43.8125 580.824 43.4859C580.199 43.1592 579.713 42.7065 579.368 42.1279C579.032 41.5399 578.864 40.8772 578.864 40.1399C578.864 39.4119 579.027 38.7585 579.354 38.1799C579.69 37.5919 580.152 37.1345 580.74 36.8079C581.328 36.4812 581.991 36.3179 582.728 36.3179C583.456 36.3179 584.105 36.4812 584.674 36.8079C585.253 37.1252 585.701 37.5779 586.018 38.1659C586.345 38.7445 586.508 39.4165 586.508 40.1819ZM582.728 37.7179C582.168 37.7179 581.692 37.8859 581.3 38.2219C580.917 38.5485 580.684 38.9872 580.6 39.5379H584.842C584.767 38.9965 584.539 38.5579 584.156 38.2219C583.773 37.8859 583.297 37.7179 582.728 37.7179ZM591.53 40.8819H590.172V43.8779H588.422V36.4019H590.172V39.4259H591.572L593.784 36.4019H595.66L592.944 39.9999L595.842 43.8779H593.784L591.53 40.8819ZM600.232 43.9759C599.458 43.9759 598.762 43.8125 598.146 43.4859C597.53 43.1592 597.05 42.7065 596.704 42.1279C596.359 41.5399 596.186 40.8772 596.186 40.1399C596.186 39.4025 596.359 38.7445 596.704 38.1659C597.05 37.5872 597.526 37.1345 598.132 36.8079C598.748 36.4812 599.448 36.3179 600.232 36.3179C600.97 36.3179 601.614 36.4672 602.164 36.7659C602.724 37.0645 603.144 37.4939 603.424 38.0539L602.08 38.8379C601.866 38.4925 601.595 38.2359 601.268 38.0679C600.951 37.8905 600.601 37.8019 600.218 37.8019C599.565 37.8019 599.024 38.0165 598.594 38.4459C598.165 38.8659 597.95 39.4305 597.95 40.1399C597.95 40.8492 598.16 41.4185 598.58 41.8479C599.01 42.2679 599.556 42.4779 600.218 42.4779C600.601 42.4779 600.951 42.3939 601.268 42.2259C601.595 42.0485 601.866 41.7872 602.08 41.4419L603.424 42.2259C603.135 42.7859 602.71 43.2199 602.15 43.5279C601.6 43.8265 600.96 43.9759 600.232 43.9759ZM604.965 36.4019H606.715V39.4399H610.481V36.4019H612.231V43.8779H610.481V40.9239H606.715V43.8779H604.965V36.4019ZM617.908 43.9759C617.152 43.9759 616.471 43.8125 615.864 43.4859C615.258 43.1592 614.782 42.7065 614.436 42.1279C614.1 41.5399 613.932 40.8772 613.932 40.1399C613.932 39.4025 614.1 38.7445 614.436 38.1659C614.782 37.5872 615.258 37.1345 615.864 36.8079C616.471 36.4812 617.152 36.3179 617.908 36.3179C618.674 36.3179 619.36 36.4812 619.966 36.8079C620.573 37.1345 621.044 37.5872 621.38 38.1659C621.726 38.7445 621.898 39.4025 621.898 40.1399C621.898 40.8772 621.726 41.5399 621.38 42.1279C621.044 42.7065 620.573 43.1592 619.966 43.4859C619.36 43.8125 618.674 43.9759 617.908 43.9759ZM617.908 42.4779C618.552 42.4779 619.084 42.2632 619.504 41.8339C619.924 41.4045 620.134 40.8399 620.134 40.1399C620.134 39.4399 619.924 38.8752 619.504 38.4459C619.084 38.0165 618.552 37.8019 617.908 37.8019C617.264 37.8019 616.732 38.0165 616.312 38.4459C615.902 38.8752 615.696 39.4399 615.696 40.1399C615.696 40.8399 615.902 41.4045 616.312 41.8339C616.732 42.2632 617.264 42.4779 617.908 42.4779ZM623.627 36.4019H625.377V41.3299L629.507 36.4019H631.103V43.8779H629.353V38.9499L625.237 43.8779H623.627V36.4019ZM627.253 35.5199C626.497 35.5199 625.919 35.3472 625.517 35.0019C625.125 34.6472 624.925 34.1339 624.915 33.4619H626.077C626.087 33.7979 626.189 34.0639 626.385 34.2599C626.591 34.4559 626.875 34.5539 627.239 34.5539C627.594 34.5539 627.874 34.4559 628.079 34.2599C628.294 34.0639 628.406 33.7979 628.415 33.4619H629.605C629.596 34.1339 629.391 34.6472 628.989 35.0019C628.588 35.3472 628.009 35.5199 627.253 35.5199ZM641.47 36.3179C642.198 36.3179 642.847 36.4765 643.416 36.7939C643.995 37.1112 644.448 37.5592 644.774 38.1379C645.101 38.7165 645.264 39.3839 645.264 40.1399C645.264 40.8959 645.101 41.5679 644.774 42.1559C644.448 42.7345 643.995 43.1825 643.416 43.4999C642.847 43.8172 642.198 43.9759 641.47 43.9759C640.462 43.9759 639.664 43.6399 639.076 42.9679V46.5939H637.326V36.4019H638.992V37.3819C639.282 37.0272 639.636 36.7612 640.056 36.5839C640.486 36.4065 640.957 36.3179 641.47 36.3179ZM641.274 42.4779C641.918 42.4779 642.446 42.2632 642.856 41.8339C643.276 41.4045 643.486 40.8399 643.486 40.1399C643.486 39.4399 643.276 38.8752 642.856 38.4459C642.446 38.0165 641.918 37.8019 641.274 37.8019C640.854 37.8019 640.476 37.8999 640.14 38.0959C639.804 38.2825 639.538 38.5532 639.342 38.9079C639.146 39.2625 639.048 39.6732 639.048 40.1399C639.048 40.6065 639.146 41.0172 639.342 41.3719C639.538 41.7265 639.804 42.0019 640.14 42.1979C640.476 42.3845 640.854 42.4779 641.274 42.4779ZM654.006 40.1819C654.006 40.3032 653.997 40.4759 653.978 40.6999H648.112C648.215 41.2505 648.481 41.6892 648.91 42.0159C649.349 42.3332 649.89 42.4919 650.534 42.4919C651.355 42.4919 652.032 42.2212 652.564 41.6799L653.502 42.7579C653.166 43.1592 652.741 43.4625 652.228 43.6679C651.715 43.8732 651.136 43.9759 650.492 43.9759C649.671 43.9759 648.947 43.8125 648.322 43.4859C647.697 43.1592 647.211 42.7065 646.866 42.1279C646.53 41.5399 646.362 40.8772 646.362 40.1399C646.362 39.4119 646.525 38.7585 646.852 38.1799C647.188 37.5919 647.65 37.1345 648.238 36.8079C648.826 36.4812 649.489 36.3179 650.226 36.3179C650.954 36.3179 651.603 36.4812 652.172 36.8079C652.751 37.1252 653.199 37.5779 653.516 38.1659C653.843 38.7445 654.006 39.4165 654.006 40.1819ZM650.226 37.7179C649.666 37.7179 649.19 37.8859 648.798 38.2219C648.415 38.5485 648.182 38.9872 648.098 39.5379H652.34C652.265 38.9965 652.037 38.5579 651.654 38.2219C651.271 37.8859 650.795 37.7179 650.226 37.7179ZM659.028 40.8819H657.67V43.8779H655.92V36.4019H657.67V39.4259H659.07L661.282 36.4019H663.158L660.442 39.9999L663.34 43.8779H661.282L659.028 40.8819ZM671.35 36.4019V43.8779H669.6V37.8859H666.8L666.73 39.3699C666.684 40.3592 666.59 41.1899 666.45 41.8619C666.32 42.5245 666.091 43.0519 665.764 43.4439C665.447 43.8265 665.008 44.0179 664.448 44.0179C664.187 44.0179 663.865 43.9665 663.482 43.8639L663.566 42.3939C663.697 42.4219 663.809 42.4359 663.902 42.4359C664.257 42.4359 664.523 42.2959 664.7 42.0159C664.878 41.7265 664.99 41.3859 665.036 40.9939C665.092 40.5925 665.139 40.0232 665.176 39.2859L665.302 36.4019H671.35ZM676.493 36.3179C677.595 36.3179 678.435 36.5839 679.013 37.1159C679.601 37.6385 679.895 38.4319 679.895 39.4959V43.8779H678.243V42.9679C678.029 43.2945 677.721 43.5465 677.319 43.7239C676.927 43.8919 676.451 43.9759 675.891 43.9759C675.331 43.9759 674.841 43.8825 674.421 43.6959C674.001 43.4999 673.675 43.2339 673.441 42.8979C673.217 42.5525 673.105 42.1652 673.105 41.7359C673.105 41.0639 673.353 40.5272 673.847 40.1259C674.351 39.7152 675.14 39.5099 676.213 39.5099H678.145V39.3979C678.145 38.8752 677.987 38.4739 677.669 38.1939C677.361 37.9139 676.899 37.7739 676.283 37.7739C675.863 37.7739 675.448 37.8392 675.037 37.9699C674.636 38.1005 674.295 38.2825 674.015 38.5159L673.329 37.2419C673.721 36.9432 674.193 36.7145 674.743 36.5559C675.294 36.3972 675.877 36.3179 676.493 36.3179ZM676.255 42.7019C676.694 42.7019 677.081 42.6039 677.417 42.4079C677.763 42.2025 678.005 41.9132 678.145 41.5399V40.6719H676.339C675.331 40.6719 674.827 41.0032 674.827 41.6659C674.827 41.9832 674.953 42.2352 675.205 42.4219C675.457 42.6085 675.807 42.7019 676.255 42.7019ZM689.411 43.8779V38.9219L686.891 43.0939H686.135L683.657 38.9079V43.8779H682.061V36.4019H683.895L686.555 41.0779L689.341 36.4019H690.979L690.993 43.8779H689.411ZM700.34 40.1819C700.34 40.3032 700.331 40.4759 700.312 40.6999H694.446C694.549 41.2505 694.815 41.6892 695.244 42.0159C695.683 42.3332 696.224 42.4919 696.868 42.4919C697.689 42.4919 698.366 42.2212 698.898 41.6799L699.836 42.7579C699.5 43.1592 699.075 43.4625 698.562 43.6679C698.049 43.8732 697.47 43.9759 696.826 43.9759C696.005 43.9759 695.281 43.8125 694.656 43.4859C694.031 43.1592 693.545 42.7065 693.2 42.1279C692.864 41.5399 692.696 40.8772 692.696 40.1399C692.696 39.4119 692.859 38.7585 693.186 38.1799C693.522 37.5919 693.984 37.1345 694.572 36.8079C695.16 36.4812 695.823 36.3179 696.56 36.3179C697.288 36.3179 697.937 36.4812 698.506 36.8079C699.085 37.1252 699.533 37.5779 699.85 38.1659C700.177 38.7445 700.34 39.4165 700.34 40.1819ZM696.56 37.7179C696 37.7179 695.524 37.8859 695.132 38.2219C694.749 38.5485 694.516 38.9872 694.432 39.5379H698.674C698.599 38.9965 698.371 38.5579 697.988 38.2219C697.605 37.8859 697.129 37.7179 696.56 37.7179Z" fill="white"/>
<g clip-path="url(#clip0)">
<path d="M163.899 32.6254H165.374V31.305H163.899V32.6254ZM168.87 27.1885C168.792 27.1885 168.714 27.2662 168.636 27.2662C168.481 27.3438 168.326 27.4215 168.17 27.5769C168.093 27.7322 167.937 27.8875 167.86 28.0429V27.2662H166.384V32.7031H167.86V28.3536H169.491V27.1885C169.413 27.1885 169.258 27.1108 169.18 27.1108C169.103 27.1108 168.947 27.1108 168.87 27.1885ZM173.84 27.1885V31.4604H172.442C172.287 31.4604 172.132 31.3827 171.976 31.305C171.821 31.1497 171.743 30.9943 171.743 30.839V27.1885H170.268V30.9167C170.268 31.305 170.423 31.6934 170.656 32.004C170.889 32.3147 171.122 32.4701 171.51 32.5477C171.743 32.6254 172.054 32.6254 172.598 32.6254H175.394V27.1885C175.316 27.1885 173.84 27.1885 173.84 27.1885ZM128.87 48.3147L128.947 57.4798L130.967 55.538L132.831 59.8099L134.306 59.1885L132.52 54.9167L135.549 54.7613L128.87 48.3147Z" fill="#E01524"/>
<path d="M112.403 25.7905H103.238C102.151 25.7905 101.064 26.0235 100.132 26.4895C99.1219 26.9555 98.2676 27.5769 97.5685 28.3536C97.3355 28.6643 97.1025 28.9749 96.7918 29.2856C96.5588 29.674 96.4035 30.14 96.2482 30.606C96.0151 31.4604 95.8598 32.3924 95.8598 33.4021V42.8778C95.8598 43.4992 95.9375 44.0429 96.0151 44.4312C96.0928 44.8196 96.2482 45.2079 96.3258 45.441C96.7918 46.4507 97.3355 47.305 98.0346 48.0041C98.7336 48.7031 99.5103 49.2468 100.365 49.5575C100.753 49.7128 101.219 49.8681 101.763 49.9458C102.306 50.1011 102.928 50.1011 103.549 50.1011H112.326C112.559 50.1011 112.637 50.0235 112.637 49.7905V46.0623C112.637 45.8293 112.559 45.7516 112.326 45.7516H103.471C102.695 45.674 102.073 45.441 101.607 44.9749C101.141 44.5089 100.908 43.8876 100.831 43.1109V34.4895C100.831 33.3244 101.064 32.3924 101.452 31.6157C101.918 30.9167 102.539 30.4507 103.471 30.2177H112.326C112.559 30.2177 112.637 30.14 112.637 29.907V26.1011C112.714 25.8681 112.636 25.7905 112.403 25.7905ZM119.394 25.7905H115.899C115.666 25.7905 115.588 25.8681 115.588 26.1011V46.2177V46.2953V49.7905C115.588 50.0235 115.666 50.1011 115.899 50.1011H119.394C119.627 50.1011 119.704 50.0235 119.704 49.7905V46.2953V46.2177V26.1011C119.704 25.8681 119.627 25.7905 119.394 25.7905ZM126.462 32.4701H122.967C122.734 32.4701 122.656 32.5477 122.656 32.7808V49.7905C122.656 50.0235 122.734 50.1011 122.967 50.1011H126.462C126.695 50.1011 126.772 50.0235 126.772 49.7905V32.7808C126.772 32.5477 126.695 32.4701 126.462 32.4701ZM126.462 25.7905H122.967C122.734 25.7905 122.656 25.8681 122.656 26.1011V29.5963C122.656 29.8293 122.734 29.907 122.967 29.907H126.462C126.695 29.907 126.772 29.8293 126.772 29.5963V26.1011C126.772 25.8681 126.695 25.7905 126.462 25.7905ZM143.782 32.4701H137.957C136.481 32.4701 135.161 32.6254 134.073 33.0138C132.986 33.4021 132.054 33.8681 131.355 34.4895C130.656 35.1109 130.112 35.8876 129.802 36.8196C129.491 37.7516 129.336 38.7613 129.336 39.9264V42.8002C129.336 43.6545 129.491 44.5089 129.879 45.3633C130.268 46.2177 130.734 46.9944 131.433 47.771C132.132 48.5477 132.986 49.0914 133.918 49.4798C134.928 49.9458 136.015 50.1788 137.258 50.1788H143.704C143.937 50.1788 144.015 50.1011 144.015 49.8681V46.373C144.015 46.14 143.937 46.0623 143.704 46.0623H137.18C135.782 46.0623 134.772 45.674 134.151 44.9749C133.53 44.2759 133.219 43.3439 133.219 42.1788V40.7031C133.219 39.538 133.53 38.606 134.229 37.7516C134.85 36.9749 135.86 36.5866 137.18 36.5866H143.704C143.937 36.5866 144.015 36.5089 144.015 36.2759V32.7808C144.093 32.5477 144.015 32.4701 143.782 32.4701ZM162.811 49.9458L155.976 40.7808C155.899 40.7031 155.899 40.7031 155.821 40.5477C155.743 40.3924 155.743 40.3924 155.743 40.3147C155.743 40.2371 155.743 40.2371 155.821 40.1594C155.899 40.0817 155.899 40.0041 155.976 40.0041L162.423 32.7808C162.501 32.7031 162.578 32.6254 162.578 32.5477C162.578 32.4701 162.501 32.4701 162.423 32.4701H157.996C157.763 32.4701 157.53 32.5477 157.374 32.7808L151.782 38.9944C151.627 39.2274 151.471 39.4604 151.316 39.6934C151.238 39.9264 151.161 40.1594 151.161 40.3924C151.161 40.6254 151.238 40.8584 151.316 41.1691C151.394 41.4021 151.549 41.6351 151.704 41.8681L157.685 49.8681C157.84 50.1011 158.073 50.1788 158.306 50.1788H162.734C162.889 50.1788 162.967 50.1011 162.811 49.9458ZM150.151 25.7905H146.656C146.423 25.7905 146.345 25.8681 146.345 26.1011V46.2177V46.2953V49.7905C146.345 50.0235 146.423 50.1011 146.656 50.1011H150.151C150.384 50.1011 150.462 50.0235 150.462 49.7905V26.1011C150.462 25.8681 150.384 25.7905 150.151 25.7905Z" fill="white"/>
</g>
<defs>
<clipPath id="clip0">
<rect width="80" height="34.1748" fill="white" transform="translate(95.8598 25.7905)"/>
</clipPath>
</defs>
</svg>
