<svg width="68" height="165" viewBox="0 0 68 165" fill="none" xmlns="http://www.w3.org/2000/svg">
<path d="M34.0468 0.697266C15.5832 0.697266 0.513672 15.7668 0.513672 34.2304V94.78C0.513672 113.244 15.5832 128.313 34.0468 128.313C52.5103 128.313 67.5799 113.244 67.5799 94.78V34.2304C67.5799 15.7668 52.5103 0.697266 34.0468 0.697266Z" fill="#211F1D"/>
<path d="M34.1818 16.9883H33.0957V164.697H34.1818V16.9883Z" fill="#F9E2FF"/>
<path d="M16.9414 61.5167L33.3685 75.2286L51.6963 62.1955L51.1532 61.2452L33.3685 73.871L17.8917 60.7021L16.9414 61.5167Z" fill="#F9E2FF"/>
<path d="M16.9414 94.3722L33.3685 108.084L51.6963 95.051L51.1532 94.1007L33.3685 106.726L17.8917 93.5576L16.9414 94.3722Z" fill="#F9E2FF"/>
<path d="M16.9414 28.6632L33.3685 42.3751L51.6963 29.342L51.1532 28.3917L33.3685 41.0175L17.8917 27.8486L16.9414 28.6632Z" fill="#F9E2FF"/>
</svg>
