<svg width="1920" height="637" viewBox="0 0 1920 637" fill="none" xmlns="http://www.w3.org/2000/svg">
<path opacity="0.6" d="M783.62 113.56L743.62 217.06L675.32 28.1602L608.82 235.06L526.22 99.3602L435.12 349.96H875.12L783.62 113.56Z" fill="#F862DB"/>
<path opacity="0.6" d="M1346.72 105.461L1306.72 208.961L1238.42 20.0605L1171.92 226.961L1089.32 91.2605L998.218 341.861H1438.22L1346.72 105.461Z" fill="#F862DB"/>
<g filter="url(#filter0_d)">
<path d="M882.876 313.612C1133.54 387.739 1207.45 265.486 1213.07 177.922C1218.22 70.552 1283.04 56.5011 1312.9 116.718C1342.76 176.935 1329.78 224.583 1311.86 313.611C1293.93 402.64 1235.36 448.714 1191.05 478.998C1146.75 509.281 981.868 557.184 882.876 537.14C783.884 517.096 725.39 472.235 685.818 419.146C646.246 366.056 632.211 239.484 882.876 313.612Z" fill="white"/>
</g>
<g filter="url(#filter1_d)">
<path fill-rule="evenodd" clip-rule="evenodd" d="M215.065 616.951C256.558 588.773 319.596 565.031 412.858 550.181C673.961 508.606 615.647 417.437 559.857 381.775C504.066 346.112 433.486 324.837 333.803 341.099C234.12 357.361 163.837 389.384 66.1079 504.476C27.3584 550.11 10.1299 580.16 5.91309 616.951H215.065Z" fill="white"/>
</g>
<g filter="url(#filter2_d)">
<path fill-rule="evenodd" clip-rule="evenodd" d="M1721.73 616.951H1951.16C1944.17 572.866 1925.86 525.74 1889.89 474.939C1831.52 392.511 1708.98 316.759 1625.59 306.125C1534.66 294.53 1455.17 323.035 1424.28 343.81C1423.03 344.652 1421.56 345.628 1419.91 346.729C1393.8 364.123 1321.01 412.609 1308.98 452.26C1289.47 516.581 1338.25 538.98 1403.25 510.325C1408.2 508.145 1413.12 505.921 1418.05 503.7C1501.16 466.186 1582.75 429.363 1721.73 616.951Z" fill="white"/>
</g>
<path d="M1486.18 49.4504C1499.65 49.4504 1510.58 38.5261 1510.58 25.0504C1510.58 11.5747 1499.65 0.650391 1486.18 0.650391C1472.7 0.650391 1461.78 11.5747 1461.78 25.0504C1461.78 38.5261 1472.7 49.4504 1486.18 49.4504Z" fill="#EFC260"/>
<path d="M1395.53 496.049C1381.93 496.049 1370.83 507.149 1370.83 520.749V565.349C1370.83 578.949 1381.93 590.049 1395.53 590.049C1409.13 590.049 1420.23 578.949 1420.23 565.349V520.749C1420.23 507.149 1409.13 496.049 1395.53 496.049Z" fill="#B461F2"/>
<path d="M1395.63 508.049H1394.83V616.849H1395.63V508.049Z" fill="#EEBCC5"/>
<path d="M1382.93 540.848L1395.03 550.948L1408.53 541.348L1408.13 540.648L1395.03 549.948L1383.63 540.248L1382.93 540.848Z" fill="#EEBCC5"/>
<path d="M1382.93 565.049L1395.03 575.149L1408.53 565.549L1408.13 564.849L1395.03 574.149L1383.63 564.449L1382.93 565.049Z" fill="#EEBCC5"/>
<path d="M1382.93 516.649L1395.03 526.749L1408.53 517.149L1408.13 516.449L1395.03 525.749L1383.63 516.049L1382.93 516.649Z" fill="#EEBCC5"/>
<path d="M613.325 262.145C603.425 262.145 595.325 270.245 595.325 280.145V312.545C595.325 322.445 603.425 330.545 613.325 330.545C623.225 330.545 631.325 322.445 631.325 312.545V280.145C631.325 270.245 623.225 262.145 613.325 262.145Z" fill="#211F1D"/>
<path d="M613.525 270.844H612.925V350.044H613.525V270.844Z" fill="white"/>
<path d="M604.226 294.744L613.026 302.144L622.826 295.144L622.526 294.644L613.026 301.344L604.626 294.344L604.226 294.744Z" fill="white"/>
<path d="M604.226 312.345L613.026 319.745L622.826 312.745L622.526 312.245L613.026 319.045L604.626 311.945L604.226 312.345Z" fill="white"/>
<path d="M604.226 277.144L613.026 284.544L622.826 277.544L622.526 277.044L613.026 283.744L604.626 276.744L604.226 277.144Z" fill="white"/>
<g filter="url(#filter3_d)">
<path d="M1491.88 39.85C1490.28 35.45 1486.08 32.25 1481.08 32.25C1478.78 32.25 1476.68 32.95 1474.88 34.05C1472.58 28.05 1466.78 23.75 1459.98 23.75C1453.68 23.75 1448.28 27.45 1445.68 32.75C1444.68 32.45 1443.68 32.35 1442.68 32.35C1437.68 32.35 1433.48 35.55 1431.88 39.95H1491.88V39.85Z" fill="white"/>
</g>
<path d="M1049.12 149.061H867.619C862.819 149.061 858.919 152.961 858.919 157.761V415.961C858.919 420.761 862.819 424.661 867.619 424.661H1049.12C1053.92 424.661 1057.82 420.761 1057.82 415.961V157.661C1057.82 152.861 1053.92 149.061 1049.12 149.061Z" fill="#211F1D"/>
<path d="M1041.62 164.459H875.119V410.159H1041.62V164.459Z" fill="white"/>
<path d="M1041.62 159.459H875.119V405.159H1041.62V159.459Z" fill="white"/>
<path d="M900.819 159.459C900.919 166.359 906.519 172.159 913.719 172.159H1002.92C1010.12 172.159 1015.72 166.259 1015.82 159.459H900.819Z" fill="#3E3577"/>
<path d="M1013.12 142.96C1012.12 138.86 1008.52 135.96 1004.32 135.96H974.619C974.619 127.06 967.419 119.76 958.419 119.76C949.519 119.76 942.219 126.96 942.219 135.96H912.519C908.319 135.96 904.619 138.86 903.719 142.96L901.319 153.46C899.419 161.56 905.619 169.36 913.919 169.36H1002.92C1011.22 169.36 1017.42 161.66 1015.52 153.46L1013.12 142.96ZM959.919 143.56C954.419 144.56 949.719 139.86 950.719 134.36C951.319 131.26 953.719 128.86 956.819 128.26C962.319 127.26 967.019 131.96 966.019 137.46C965.419 140.46 962.919 142.96 959.919 143.56Z" fill="#211F1D"/>
<path d="M928.819 225.758H887.719V184.658H928.819V225.758ZM891.119 222.358H925.519V187.958H891.119V222.358Z" fill="#A194EF"/>
<path d="M984.419 188.959H938.619V196.159H984.419V188.959Z" fill="#A194EF"/>
<path d="M1030.12 204.26H938.619V211.46H1030.12V204.26Z" fill="#A194EF"/>
<path d="M1030.12 218.459H938.619V225.659H1030.12V218.459Z" fill="#A194EF"/>
<path d="M932.619 180.959L909.319 204.559L902.419 198.459L897.019 204.559L909.619 215.659L938.319 186.559L932.619 180.959Z" fill="#F16A51"/>
<path d="M928.819 280.36H887.719V239.26H928.819V280.36ZM891.119 276.96H925.519V242.56H891.119V276.96Z" fill="#A194EF"/>
<path d="M984.419 243.561H938.619V250.761H984.419V243.561Z" fill="#A194EF"/>
<path d="M1030.12 258.861H938.619V266.061H1030.12V258.861Z" fill="#A194EF"/>
<path d="M1030.12 273.061H938.619V280.261H1030.12V273.061Z" fill="#A194EF"/>
<path d="M932.619 235.561L916.519 251.861L921.719 257.861L938.319 241.161L932.619 235.561Z" fill="#F16A51"/>
<path d="M928.819 334.961H887.719V293.861H928.819V334.961ZM891.119 331.561H925.519V297.161H891.119V331.561Z" fill="#A194EF"/>
<path d="M984.419 298.16H938.619V305.36H984.419V298.16Z" fill="#A194EF"/>
<path d="M1030.12 313.461H938.619V320.661H1030.12V313.461Z" fill="#A194EF"/>
<path d="M1030.12 327.66H938.619V334.86H1030.12V327.66Z" fill="#A194EF"/>
<path d="M932.619 290.061L909.319 313.761L902.419 307.661L897.019 313.661L909.619 324.761L938.319 295.761L932.619 290.061Z" fill="#F16A51"/>
<path d="M928.819 390.459H887.719V349.359H928.819V390.459ZM891.119 387.159H925.519V352.659H891.119V387.159Z" fill="#A194EF"/>
<path d="M984.419 353.66H938.619V360.86H984.419V353.66Z" fill="#A194EF"/>
<path d="M1030.12 368.961H938.619V376.161H1030.12V368.961Z" fill="#A194EF"/>
<path d="M1030.12 383.16H938.619V390.36H1030.12V383.16Z" fill="#A194EF"/>
<path d="M932.619 345.66L909.319 369.26L902.419 363.16L897.019 369.26L909.619 380.36L938.319 351.26L932.619 345.66Z" fill="#F16A51"/>
<path d="M920.519 261.061L912.619 256.461C912.319 256.261 912.119 255.961 912.119 255.561C912.119 255.161 912.319 254.861 912.619 254.661L919.119 250.461C919.419 250.261 919.919 250.261 920.219 250.461L925.219 253.361C925.719 253.661 925.919 254.361 925.619 254.861L922.119 260.861C921.619 261.161 921.019 261.261 920.519 261.061Z" fill="#D05F4A"/>
<path d="M915.219 252.76L912.419 254.56C912.119 254.76 911.919 255.16 911.919 255.46C911.919 255.86 912.119 256.16 912.419 256.36L920.319 260.96C920.819 261.26 921.519 261.06 921.819 260.56L923.519 257.56L915.219 252.76Z" fill="#F16A51"/>
<path d="M1015.62 327.36L932.619 278.76C929.919 277.16 928.019 274.56 927.519 271.46C927.119 268.86 925.619 266.66 923.419 265.36L919.319 262.96C918.819 262.66 918.619 261.96 918.919 261.46L924.719 251.56C925.019 251.06 925.719 250.86 926.219 251.16L930.319 253.56C932.519 254.86 935.219 254.96 937.619 254.16C940.519 253.16 943.819 253.46 946.519 255.06L1029.52 303.66C1035.72 307.26 1037.72 315.16 1034.12 321.36L1033.32 322.66C1029.72 328.86 1021.82 330.96 1015.62 327.36Z" fill="white"/>
<path d="M945.119 255.461L932.219 277.461C931.919 277.961 932.119 278.561 932.519 278.761L1020.92 330.461C1024.12 332.361 1028.22 331.261 1030.12 328.061L1037.22 315.961C1039.12 312.761 1038.02 308.661 1034.82 306.761L946.419 255.061C946.019 254.761 945.419 254.961 945.119 255.461Z" fill="#F16A51"/>
<path opacity="0.2" d="M1034.82 306.76L946.419 255.06C943.719 253.46 940.519 253.16 937.519 254.16C935.119 254.96 932.419 254.86 930.219 253.56L926.119 251.16C925.619 250.86 924.919 251.06 924.619 251.56L921.619 256.66C944.519 270.36 1002.42 304.76 1033.02 322.96L1033.62 322.06L1034.02 321.36L1037.12 315.96C1039.12 312.76 1038.12 308.66 1034.82 306.76Z" fill="#D87D98"/>
<path d="M1079.32 392.258L1084.92 394.458L1083.42 398.058L1076.62 396.158L1079.32 392.258Z" fill="white"/>
<path d="M1031.62 430.659L1033.02 435.359L1029.12 436.159L1025.82 430.359L1031.62 430.659Z" fill="white"/>
<path d="M1010.52 315.559C1016.87 315.559 1022.02 310.41 1022.02 304.059C1022.02 297.707 1016.87 292.559 1010.52 292.559C1004.17 292.559 999.02 297.707 999.02 304.059C999.02 310.41 1004.17 315.559 1010.52 315.559Z" fill="#EEBCC5"/>
<path d="M1003.92 309.059L1007.62 320.159C1007.62 320.159 1014.92 322.559 1014.92 322.159C1014.92 321.759 1011.52 309.559 1011.52 309.559L1003.92 309.059Z" fill="#EEBCC5"/>
<path d="M971.22 286.159C971.22 287.859 969.82 289.259 968.12 289.259C966.42 289.259 965.02 287.859 965.02 286.159C965.02 284.459 966.42 283.059 968.12 283.059C969.82 283.059 971.22 284.459 971.22 286.159Z" fill="#EEBCC5"/>
<path d="M1020.92 322.159C1022.63 322.159 1024.02 320.771 1024.02 319.059C1024.02 317.347 1022.63 315.959 1020.92 315.959C1019.21 315.959 1017.82 317.347 1017.82 319.059C1017.82 320.771 1019.21 322.159 1020.92 322.159Z" fill="#EEBCC5"/>
<path d="M967.02 290.958C967.02 290.958 976.72 308.658 980.92 313.558C985.12 318.458 996.02 324.458 996.02 324.458L998.22 349.958L1025.52 348.858L1023.32 333.158C1023.32 333.158 1033.12 339.858 1038.02 339.158C1042.92 338.458 1048.22 333.858 1040.22 328.258C1032.12 322.658 1024.42 319.458 1024.42 319.458L1021.62 321.558C1021.62 321.558 1005.82 315.258 1002.32 314.858C998.82 314.458 973.92 288.258 973.92 288.258L967.02 290.958Z" fill="#5869FF"/>
<path d="M998.22 349.959C998.22 349.959 1005.42 378.959 1009.72 392.559C1014.12 406.159 1021.92 431.959 1021.92 431.959L1031.72 430.759L1014.72 362.159L1045.72 394.059L1076.82 400.859L1079.42 392.359L1050.72 382.659L1025.62 349.059L998.22 349.959Z" fill="#EFC260"/>
<path d="M1014.62 361.959L1024.12 359.559L1021.52 368.959L1014.62 361.959Z" fill="url(#paint0_linear)"/>
<path d="M1027.42 293.958C1027.42 297.058 1024.92 299.658 1021.72 299.658C1018.62 299.658 1016.02 297.158 1016.02 293.958C1016.02 290.758 1018.52 288.258 1021.72 288.258C1024.82 288.258 1027.42 290.858 1027.42 293.958Z" fill="#1D2992"/>
<path d="M1022.02 304.059C1022.02 297.759 1016.92 292.559 1010.52 292.559C1007.32 292.559 1004.42 293.859 1002.42 295.959C1002.62 301.859 1006.72 308.359 1009.92 312.459C1010.72 313.459 1011.62 314.459 1012.62 315.259C1017.92 314.359 1022.02 309.659 1022.02 304.059Z" fill="#1D2992"/>
<path d="M1011.92 306.158C1011.92 308.558 1009.92 310.558 1007.52 310.558C1005.12 310.558 1003.12 308.558 1003.12 306.158C1003.12 303.758 1005.12 301.758 1007.52 301.758C1009.92 301.758 1011.92 303.758 1011.92 306.158Z" fill="#EEBCC5"/>
<path d="M1033.02 435.359L1029.12 436.159L1027.52 439.459L1022.52 440.559V442.559L1035.52 441.959L1033.02 435.359Z" fill="#1D2992"/>
<path d="M1083.42 398.059L1084.92 394.459L1089.42 395.859L1089.72 408.159L1087.82 408.259C1087.82 408.259 1085.82 401.959 1085.62 401.759C1085.32 401.659 1083.42 398.059 1083.42 398.059Z" fill="#1D2992"/>
<path d="M1001.72 353.658C1001.72 353.658 1002.22 358.058 1007.12 362.958" stroke="#3F58FA" stroke-miterlimit="10"/>
<path d="M1021.12 425.158L1029.42 424.258" stroke="#3F58FA" stroke-miterlimit="10"/>
<path d="M1071.92 391.059L1070.32 397.659" stroke="#3F58FA" stroke-miterlimit="10"/>
<path d="M860.369 419.602L828.869 419.802L828.669 388.402C828.669 386.102 830.469 384.302 832.769 384.302L856.069 384.102C858.369 384.102 860.169 385.902 860.169 388.202L860.369 419.602Z" fill="#C361F0"/>
<path d="M844.169 391C842.069 391 840.269 389.3 840.269 387.2L840.169 375.5C840.169 375.2 840.369 375 840.669 375L847.269 374.9C847.569 374.9 847.769 375.1 847.769 375.4L847.869 387.1C847.969 389.2 846.269 391 844.169 391Z" fill="#EEBCC5"/>
<path d="M857.469 372.801C857.469 372.701 857.469 372.501 857.469 372.401C857.469 371.201 857.369 370.101 857.069 369.001V367.501C857.069 360.201 851.069 354.201 843.769 354.201C836.469 354.201 830.469 360.201 830.469 367.501V372.701H857.469V372.801Z" fill="#D4ECFF"/>
<path d="M856.069 369.102V367.802C856.069 361.102 850.569 355.502 843.769 355.502C837.069 355.502 831.469 361.002 831.469 367.802V372.802C831.469 373.102 831.469 373.502 831.569 373.802C832.369 379.902 837.569 384.602 843.969 384.602C850.869 384.602 856.469 379.002 856.469 372.102C856.469 371.102 856.369 370.102 856.069 369.102Z" fill="#EEBCC5"/>
<path d="M839.069 375.302C839.566 375.302 839.969 374.899 839.969 374.402C839.969 373.905 839.566 373.502 839.069 373.502C838.572 373.502 838.169 373.905 838.169 374.402C838.169 374.899 838.572 375.302 839.069 375.302Z" fill="#3E3577"/>
<path d="M848.969 374.402C848.969 374.902 848.569 375.302 848.069 375.302C847.569 375.302 847.169 374.902 847.169 374.402C847.169 373.902 847.569 373.502 848.069 373.502C848.569 373.502 848.969 373.902 848.969 374.402Z" fill="#3E3577"/>
<path d="M835.068 374.002C835.068 375.902 833.468 377.502 831.568 377.502C829.668 377.502 828.068 375.902 828.068 374.002C828.068 372.102 829.668 370.502 831.568 370.502C833.468 370.502 835.068 372.002 835.068 374.002Z" fill="#EEBCC5"/>
<path d="M859.568 374.002C859.568 375.902 857.968 377.502 856.068 377.502C854.168 377.502 852.568 375.902 852.568 374.002C852.568 372.102 854.168 370.502 856.068 370.502C857.968 370.502 859.568 372.002 859.568 374.002Z" fill="#EEBCC5"/>
<path d="M831.468 371.701C830.268 371.801 829.368 372.801 829.368 374.001C829.368 375.201 830.268 376.201 831.468 376.301V371.701Z" fill="#D98E9D"/>
<path d="M855.868 371.701C857.068 371.801 857.968 372.801 857.968 374.001C857.968 375.201 857.068 376.201 855.868 376.301V371.701Z" fill="#D98E9D"/>
<path d="M852.469 369.101C852.769 370.201 853.269 371.401 854.369 371.701C855.169 371.901 856.069 371.501 856.769 371.001C857.169 370.701 857.569 370.401 857.669 369.901C857.769 369.501 857.569 369.101 857.369 368.801C856.669 367.401 855.869 366.101 854.869 364.901C853.969 363.901 852.269 362.201 851.369 364.001C850.569 365.101 852.069 367.901 852.469 369.101Z" fill="#D4ECFF"/>
<path d="M853.669 361.3C850.969 359.3 847.569 358.1 843.969 358.1L844.069 355.9C840.469 355.9 836.969 359.3 834.269 361.3C836.669 364 840.069 366.5 843.969 366.5C847.869 366.4 851.369 363.9 853.669 361.3Z" fill="#D4ECFF"/>
<path d="M810.268 411.002C809.768 410.302 809.668 409.502 809.868 408.702C811.668 401.602 825.468 387.202 825.968 386.502C826.768 385.402 831.168 384.502 831.168 384.502L831.668 396.002L819.068 407.202C818.268 408.102 818.168 409.302 818.668 410.402L830.568 428.602L827.068 431.302L810.268 411.002Z" fill="#C361F0"/>
<path d="M879.569 411.6C879.969 411 880.069 410.2 879.969 409.5C878.569 402.6 863.269 387.1 862.669 386.4C861.869 385.3 857.469 384.4 857.469 384.4L856.969 395.9L870.869 407.8C871.569 408.7 871.669 409.8 871.269 410.9L857.369 429.3L861.569 430.8L879.569 411.6Z" fill="#C361F0"/>
<path d="M835.269 369.101C834.969 370.201 834.469 371.401 833.369 371.701C832.569 371.901 831.669 371.501 830.969 371.001C830.569 370.701 830.169 370.401 830.069 369.901C829.969 369.501 830.169 369.101 830.369 368.801C831.069 367.401 831.869 366.101 832.869 364.901C833.769 363.901 835.469 362.201 836.369 364.001C837.169 365.101 835.669 367.901 835.269 369.101Z" fill="#D4ECFF"/>
<path d="M831.068 431.102C831.068 433.302 829.268 435.102 827.068 435.102C824.868 435.102 823.068 433.302 823.068 431.102C823.068 428.902 824.868 427.102 827.068 427.102C829.268 427.102 831.068 428.902 831.068 431.102Z" fill="#EEBCC5"/>
<path d="M836.469 430.102C824.769 428.602 812.869 427.902 801.069 428.002C798.269 428.002 794.769 428.502 793.669 431.102C792.469 434.002 795.169 436.902 797.769 438.702C810.169 446.902 825.969 447.302 840.869 447.402C841.569 444.802 842.169 442.202 842.369 439.502C841.369 438.302 846.669 435.002 845.669 433.802C844.269 432.002 836.169 432.302 836.469 430.102Z" fill="#173D7A"/>
<path d="M846.869 430.102C858.569 428.602 870.469 427.902 882.269 428.002C885.069 428.002 888.569 428.502 889.669 431.102C890.869 434.002 888.169 436.902 885.569 438.702C873.169 446.902 857.369 447.302 842.469 447.402C841.769 444.802 841.169 442.202 840.969 439.502C841.969 438.302 842.769 437.202 843.769 436.002C845.169 434.202 847.169 432.302 846.869 430.102Z" fill="#173D7A"/>
<path d="M861.969 435.602C864.178 435.602 865.969 433.811 865.969 431.602C865.969 429.392 864.178 427.602 861.969 427.602C859.76 427.602 857.969 429.392 857.969 431.602C857.969 433.811 859.76 435.602 861.969 435.602Z" fill="#EEBCC5"/>
<path d="M837.669 442.9L844.769 443.1C844.769 443.1 855.469 451.8 855.369 454.7C855.269 457.5 850.469 455.6 848.469 453.7C846.469 451.8 842.169 448 842.169 448L837.269 446.1L837.669 442.9Z" fill="#C361F0"/>
<path d="M848.169 443.301L841.069 442.701C841.069 442.701 829.369 450.201 829.169 453.001C828.969 455.801 833.869 454.501 836.169 452.801C838.369 451.101 843.069 447.901 843.069 447.901L848.169 446.601V443.301Z" fill="#C361F0"/>
<path d="M826.569 435.802H862.869C864.269 435.802 865.469 434.902 865.769 433.502L868.869 420.402C869.369 417.902 867.369 415.502 864.769 415.502L823.269 415.802C820.669 415.802 818.769 418.202 819.269 420.702L823.869 433.802C824.269 435.002 825.369 435.802 826.569 435.802Z" fill="#5793CE"/>
<path d="M848.769 415.701L823.169 415.901C820.569 415.901 818.669 418.301 819.169 420.801L823.769 433.901C824.169 435.101 825.269 435.901 826.569 435.901H833.069L848.769 415.701Z" fill="url(#paint1_linear)"/>
<path d="M846.468 360.901C846.868 361.001 847.268 361.101 847.668 361.301C848.568 361.701 849.168 362.401 849.868 363.101C851.568 364.901 853.468 366.401 855.368 367.901C855.468 368.001 855.668 368.101 855.768 368.101C855.868 368.101 855.968 368.001 856.068 368.001C856.768 367.501 856.668 366.501 856.468 365.701C855.968 363.501 855.368 361.101 853.868 359.501C853.268 358.901 852.668 358.401 851.968 357.901C850.568 356.901 849.168 355.901 847.568 355.401C846.768 355.201 845.968 355.001 845.168 354.901C843.968 354.801 842.668 354.701 841.468 354.901C840.968 355.001 840.468 355.201 839.968 355.401C838.368 356.001 836.768 356.701 835.368 357.701C832.368 360.001 830.968 364.001 831.168 367.801C831.168 368.301 831.368 369.001 831.868 369.001C832.168 369.001 832.368 368.801 832.568 368.601C834.068 367.001 834.768 365.001 836.368 363.601C838.068 362.101 840.268 361.101 842.468 360.801C843.868 360.601 845.168 360.601 846.468 360.901Z" fill="#D4ECFF"/>
<path d="M856.769 397.602H848.169V398.502H856.769V397.602Z" fill="white"/>
<defs>
<filter id="filter0_d" x="643.499" y="61.2793" width="707.172" height="500.617" filterUnits="userSpaceOnUse" color-interpolation-filters="sRGB">
<feFlood flood-opacity="0" result="BackgroundImageFix"/>
<feColorMatrix in="SourceAlpha" type="matrix" values="0 0 0 0 0 0 0 0 0 0 0 0 0 0 0 0 0 0 127 0"/>
<feOffset/>
<feGaussianBlur stdDeviation="10"/>
<feColorMatrix type="matrix" values="0 0 0 0 0.45 0 0 0 0 0.44625 0 0 0 0 0.4425 0 0 0 0.1 0"/>
<feBlend mode="normal" in2="BackgroundImageFix" result="effect1_dropShadow"/>
<feBlend mode="normal" in="SourceGraphic" in2="effect1_dropShadow" result="shape"/>
</filter>
<filter id="filter1_d" x="-14.0869" y="315.553" width="641.73" height="321.398" filterUnits="userSpaceOnUse" color-interpolation-filters="sRGB">
<feFlood flood-opacity="0" result="BackgroundImageFix"/>
<feColorMatrix in="SourceAlpha" type="matrix" values="0 0 0 0 0 0 0 0 0 0 0 0 0 0 0 0 0 0 127 0"/>
<feOffset/>
<feGaussianBlur stdDeviation="10"/>
<feColorMatrix type="matrix" values="0 0 0 0 0.45 0 0 0 0 0.44625 0 0 0 0 0.4425 0 0 0 0.1 0"/>
<feBlend mode="normal" in2="BackgroundImageFix" result="effect1_dropShadow"/>
<feBlend mode="normal" in="SourceGraphic" in2="effect1_dropShadow" result="shape"/>
</filter>
<filter id="filter2_d" x="1284.64" y="283.443" width="686.521" height="353.508" filterUnits="userSpaceOnUse" color-interpolation-filters="sRGB">
<feFlood flood-opacity="0" result="BackgroundImageFix"/>
<feColorMatrix in="SourceAlpha" type="matrix" values="0 0 0 0 0 0 0 0 0 0 0 0 0 0 0 0 0 0 127 0"/>
<feOffset/>
<feGaussianBlur stdDeviation="10"/>
<feColorMatrix type="matrix" values="0 0 0 0 0.45 0 0 0 0 0.44625 0 0 0 0 0.4425 0 0 0 0.1 0"/>
<feBlend mode="normal" in2="BackgroundImageFix" result="effect1_dropShadow"/>
<feBlend mode="normal" in="SourceGraphic" in2="effect1_dropShadow" result="shape"/>
</filter>
<filter id="filter3_d" x="1411.88" y="3.75" width="100" height="56.2" filterUnits="userSpaceOnUse" color-interpolation-filters="sRGB">
<feFlood flood-opacity="0" result="BackgroundImageFix"/>
<feColorMatrix in="SourceAlpha" type="matrix" values="0 0 0 0 0 0 0 0 0 0 0 0 0 0 0 0 0 0 127 0"/>
<feOffset/>
<feGaussianBlur stdDeviation="10"/>
<feColorMatrix type="matrix" values="0 0 0 0 0.45 0 0 0 0 0.44625 0 0 0 0 0.4425 0 0 0 0.1 0"/>
<feBlend mode="normal" in2="BackgroundImageFix" result="effect1_dropShadow"/>
<feBlend mode="normal" in="SourceGraphic" in2="effect1_dropShadow" result="shape"/>
</filter>
<linearGradient id="paint0_linear" x1="1031.11" y1="368.477" x2="1010.98" y2="358.168" gradientUnits="userSpaceOnUse">
<stop stop-color="#484EC2" stop-opacity="0"/>
<stop offset="0.9826" stop-color="#1F40E5" stop-opacity="0.5"/>
</linearGradient>
<linearGradient id="paint1_linear" x1="838.123" y1="425.62" x2="800.563" y2="426.507" gradientUnits="userSpaceOnUse">
<stop stop-color="#484EC2" stop-opacity="0"/>
<stop offset="1" stop-color="#444BCC" stop-opacity="0.5"/>
</linearGradient>
</defs>
</svg>
