<svg width="514" height="489" viewBox="0 0 514 489" fill="none" xmlns="http://www.w3.org/2000/svg">
<path opacity="0.6" d="M283.063 70.0813L250.618 154.032L195.219 0.811523L141.279 168.633L74.2806 58.5634L0.387451 261.83H357.281L283.063 70.0813Z" fill="#F862DB"/>
<g filter="url(#filter0_d)">
<path d="M229.548 333.581C390.369 332.666 331.525 223.463 313.403 170.776C290.125 106.601 382.089 25.8057 414.981 53.7495C447.874 81.6933 478.355 171.599 489.384 228.168C500.413 284.736 490.136 335.633 469.248 372.395C452.166 402.461 372.458 458.941 285.673 466.179C198.888 473.417 173.156 465.22 136.135 443.838C99.1133 422.456 112.092 334.249 229.548 333.581Z" fill="white"/>
</g>
<path d="M223.23 78.1785C222.33 75.5785 219.83 73.6785 216.83 73.6785C215.53 73.6785 214.23 74.0785 213.23 74.7785C211.93 71.1785 208.43 68.6785 204.43 68.6785C200.73 68.6785 197.53 70.8785 196.03 73.9785C195.43 73.7785 194.83 73.7785 194.23 73.7785C191.33 73.7785 188.83 75.6785 187.83 78.2785H223.23V78.1785Z" fill="white"/>
<path d="M329.275 95.9062C337.89 95.9062 344.875 88.9218 344.875 80.3061C344.875 71.6904 337.89 64.7061 329.275 64.7061C320.659 64.7061 313.675 71.6904 313.675 80.3061C313.675 88.9218 320.659 95.9062 329.275 95.9062Z" fill="#EFC260"/>
<path d="M101.175 261.467C87.5746 261.467 76.4746 272.567 76.4746 286.167V330.767C76.4746 344.367 87.5746 355.467 101.175 355.467C114.775 355.467 125.875 344.367 125.875 330.767V286.167C125.875 272.567 114.775 261.467 101.175 261.467Z" fill="#B461F2"/>
<path d="M101.275 273.467H100.475V382.267H101.275V273.467Z" fill="white"/>
<path d="M88.5747 306.266L100.675 316.366L114.175 306.766L113.775 306.066L100.675 315.366L89.2747 305.667L88.5747 306.266Z" fill="white"/>
<path d="M88.5747 330.466L100.675 340.566L114.175 330.966L113.775 330.266L100.675 339.566L89.2747 329.866L88.5747 330.466Z" fill="white"/>
<path d="M88.5747 282.067L100.675 292.167L114.175 282.567L113.775 281.867L100.675 291.167L89.2747 281.467L88.5747 282.067Z" fill="white"/>
<path d="M108.075 382.366H94.9746C94.6746 382.366 94.4746 382.166 94.4746 381.866C94.4746 381.566 94.6746 381.366 94.9746 381.366H108.075C108.375 381.366 108.575 381.566 108.575 381.866C108.575 382.066 108.375 382.366 108.075 382.366Z" fill="#B461F2"/>
<path d="M168.735 199.307C158.835 199.307 150.735 207.407 150.735 217.307V249.707C150.735 259.607 158.835 267.707 168.735 267.707C178.635 267.707 186.735 259.607 186.735 249.707V217.307C186.735 207.407 178.635 199.307 168.735 199.307Z" fill="#B461F2"/>
<path d="M168.935 208.007H168.335V287.207H168.935V208.007Z" fill="white"/>
<path d="M159.635 231.907L168.435 239.307L178.235 232.307L177.935 231.807L168.435 238.507L160.035 231.507L159.635 231.907Z" fill="white"/>
<path d="M159.635 249.507L168.435 256.907L178.235 249.907L177.935 249.407L168.435 256.207L160.035 249.107L159.635 249.507Z" fill="white"/>
<path d="M159.635 214.307L168.435 221.707L178.235 214.707L177.935 214.207L168.435 220.907L160.035 213.907L159.635 214.307Z" fill="white"/>
<path d="M173.835 287.307H164.335C164.135 287.307 164.035 287.107 164.035 287.007C164.035 286.807 164.235 286.707 164.335 286.707H173.835C174.035 286.707 174.135 286.907 174.135 287.007C174.135 287.207 174.035 287.307 173.835 287.307Z" fill="#B461F2"/>
<g filter="url(#filter1_d)">
<path d="M330.369 90.6217C329.142 87.2483 325.922 84.795 322.089 84.795C320.326 84.795 318.716 85.3317 317.336 86.175C315.572 81.575 311.126 78.2783 305.912 78.2783C301.082 78.2783 296.942 81.115 294.949 85.1783C294.182 84.9483 293.416 84.8717 292.649 84.8717C288.816 84.8717 285.596 87.325 284.369 90.6983H330.369V90.6217Z" fill="white"/>
</g>
<path d="M371.256 138.168H207.55C203.221 138.168 199.703 141.686 199.703 146.015V378.901C199.703 383.23 203.221 386.748 207.55 386.748H371.256C375.585 386.748 379.103 383.23 379.103 378.901V145.925C379.103 141.595 375.585 138.168 371.256 138.168Z" fill="#211F1D"/>
<path d="M364.491 152.058H214.315V373.669H364.491V152.058Z" fill="white"/>
<path d="M364.491 147.548H214.315V369.159H364.491V147.548Z" fill="white"/>
<path d="M237.495 147.548C237.585 153.772 242.636 159.003 249.13 159.003H329.585C336.079 159.003 341.13 153.681 341.22 147.548H237.495Z" fill="#3E3577"/>
<path d="M338.785 132.666C337.883 128.968 334.636 126.352 330.848 126.352H304.06C304.06 118.325 297.566 111.74 289.448 111.74C281.421 111.74 274.836 118.235 274.836 126.352H248.048C244.26 126.352 240.923 128.968 240.111 132.666L237.946 142.137C236.232 149.442 241.825 156.478 249.311 156.478H329.585C337.071 156.478 342.664 149.533 340.95 142.137L338.785 132.666ZM290.801 133.207C285.84 134.109 281.601 129.87 282.503 124.909C283.044 122.113 285.209 119.948 288.005 119.407C292.966 118.505 297.205 122.744 296.303 127.705C295.762 130.411 293.507 132.666 290.801 133.207Z" fill="#211F1D"/>
<path d="M262.75 207.348H225.679V170.278H262.75V207.348ZM228.746 204.282H259.773V173.254H228.746V204.282Z" fill="#A194EF"/>
<path d="M312.899 174.156H271.589V180.65H312.899V174.156Z" fill="#A194EF"/>
<path d="M354.118 187.956H271.589V194.45H354.118V187.956Z" fill="#A194EF"/>
<path d="M354.118 200.764H271.589V207.258H354.118V200.764Z" fill="#A194EF"/>
<path d="M266.177 166.94L245.161 188.227L238.938 182.725L234.067 188.227L245.432 198.238L271.318 171.991L266.177 166.94Z" fill="#F16A51"/>
<path d="M262.75 256.595H225.679V219.525H262.75V256.595ZM228.746 253.529H259.774V222.501H228.746V253.529Z" fill="#A194EF"/>
<path d="M312.899 223.403H271.59V229.897H312.899V223.403Z" fill="#A194EF"/>
<path d="M354.118 237.203H271.589V243.697H354.118V237.203Z" fill="#A194EF"/>
<path d="M354.118 250.011H271.589V256.505H354.118V250.011Z" fill="#A194EF"/>
<path d="M266.177 216.187L251.656 230.889L256.346 236.301L271.318 221.238L266.177 216.187Z" fill="#F16A51"/>
<path d="M262.75 305.842H225.679V268.772H262.75V305.842ZM228.746 302.776H259.773V271.748H228.746V302.776Z" fill="#A194EF"/>
<path d="M312.899 272.65H271.589V279.144H312.899V272.65Z" fill="#A194EF"/>
<path d="M354.118 286.45H271.589V292.944H354.118V286.45Z" fill="#A194EF"/>
<path d="M354.118 299.258H271.589V305.752H354.118V299.258Z" fill="#A194EF"/>
<path d="M266.177 265.344L245.161 286.721L238.938 281.219L234.067 286.63L245.432 296.642L271.318 270.485L266.177 265.344Z" fill="#F16A51"/>
<path d="M262.75 355.901H225.679V318.83H262.75V355.901ZM228.746 352.924H259.773V321.807H228.746V352.924Z" fill="#A194EF"/>
<path d="M312.899 322.709H271.589V329.203H312.899V322.709Z" fill="#A194EF"/>
<path d="M354.118 336.509H271.589V343.003H354.118V336.509Z" fill="#A194EF"/>
<path d="M354.118 349.317H271.589V355.811H354.118V349.317Z" fill="#A194EF"/>
<path d="M266.177 315.493L245.161 336.779L238.938 331.277L234.067 336.779L245.432 346.791L271.318 320.544L266.177 315.493Z" fill="#F16A51"/>
<path d="M255.262 239.187L248.137 235.038C247.866 234.857 247.686 234.587 247.686 234.226C247.686 233.865 247.866 233.595 248.137 233.414L253.999 229.626C254.27 229.446 254.721 229.446 254.991 229.626L259.501 232.242C259.952 232.512 260.133 233.144 259.862 233.595L256.705 239.006C256.254 239.277 255.713 239.367 255.262 239.187Z" fill="#D05F4A"/>
<path d="M250.483 231.701L247.958 233.324C247.687 233.505 247.507 233.865 247.507 234.136C247.507 234.497 247.687 234.767 247.958 234.948L255.083 239.097C255.534 239.367 256.165 239.187 256.436 238.736L257.969 236.03L250.483 231.701Z" fill="#F16A51"/>
<path d="M341.04 298.987L266.177 255.152C263.742 253.708 262.028 251.363 261.577 248.567C261.216 246.222 259.863 244.238 257.879 243.065L254.181 240.901C253.73 240.63 253.55 239.999 253.82 239.548L259.052 230.618C259.322 230.167 259.954 229.987 260.405 230.258L264.103 232.422C266.087 233.595 268.522 233.685 270.687 232.963C273.303 232.061 276.279 232.332 278.714 233.775L353.577 277.61C359.169 280.857 360.973 287.983 357.726 293.575L357.004 294.748C353.757 300.34 346.632 302.234 341.04 298.987Z" fill="white"/>
<path d="M277.452 234.136L265.816 253.979C265.546 254.43 265.726 254.971 266.087 255.152L345.82 301.783C348.706 303.497 352.404 302.504 354.118 299.618L360.522 288.704C362.236 285.818 361.244 282.12 358.357 280.406L278.624 233.775C278.263 233.504 277.722 233.685 277.452 234.136Z" fill="#F16A51"/>
<path opacity="0.2" d="M358.357 280.406L278.624 233.775C276.189 232.332 273.302 232.061 270.597 232.963C268.432 233.685 265.997 233.595 264.012 232.422L260.314 230.258C259.863 229.987 259.232 230.167 258.961 230.618L256.255 235.218C276.91 247.575 329.134 278.603 356.734 295.018L357.275 294.206L357.636 293.575L360.432 288.704C362.236 285.818 361.334 282.12 358.357 280.406Z" fill="#D87D98"/>
<path d="M398.495 357.524L403.546 359.508L402.193 362.755L396.059 361.042L398.495 357.524Z" fill="white"/>
<path d="M355.471 392.159L356.734 396.398L353.216 397.12L350.24 391.889L355.471 392.159Z" fill="white"/>
<path d="M336.44 288.344C342.168 288.344 346.812 283.7 346.812 277.971C346.812 272.243 342.168 267.599 336.44 267.599C330.711 267.599 326.067 272.243 326.067 277.971C326.067 283.7 330.711 288.344 336.44 288.344Z" fill="#EEBCC5"/>
<path d="M330.487 282.481L333.824 292.493C333.824 292.493 340.408 294.657 340.408 294.297C340.408 293.936 337.342 282.932 337.342 282.932L330.487 282.481Z" fill="#EEBCC5"/>
<path d="M300.993 261.826C300.993 263.359 299.73 264.622 298.197 264.622C296.663 264.622 295.401 263.359 295.401 261.826C295.401 260.293 296.663 259.03 298.197 259.03C299.73 259.03 300.993 260.293 300.993 261.826Z" fill="#EEBCC5"/>
<path d="M345.82 294.297C347.364 294.297 348.616 293.045 348.616 291.501C348.616 289.956 347.364 288.705 345.82 288.705C344.276 288.705 343.024 289.956 343.024 291.501C343.024 293.045 344.276 294.297 345.82 294.297Z" fill="#EEBCC5"/>
<path d="M297.205 266.155C297.205 266.155 305.954 282.12 309.742 286.54C313.53 290.959 323.361 296.371 323.361 296.371L325.346 319.371L349.969 318.379L347.985 304.218C347.985 304.218 356.824 310.261 361.244 309.63C365.663 308.999 370.444 304.85 363.228 299.799C355.922 294.748 348.977 291.861 348.977 291.861L346.452 293.755C346.452 293.755 332.201 288.073 329.044 287.712C325.887 287.352 303.428 263.72 303.428 263.72L297.205 266.155Z" fill="#5869FF"/>
<path d="M325.346 319.371C325.346 319.371 331.84 345.528 335.718 357.795C339.687 370.061 346.722 393.332 346.722 393.332L355.561 392.249L340.228 330.375L368.189 359.147L396.24 365.281L398.585 357.614L372.699 348.865L350.059 318.559L325.346 319.371Z" fill="#EFC260"/>
<path d="M340.138 330.194L348.707 328.03L346.361 336.508L340.138 330.194Z" fill="url(#paint0_linear)"/>
<path d="M351.683 268.861C351.683 271.657 349.428 274.003 346.542 274.003C343.746 274.003 341.401 271.748 341.401 268.861C341.401 265.975 343.656 263.72 346.542 263.72C349.338 263.72 351.683 266.065 351.683 268.861Z" fill="#1D2992"/>
<path d="M346.812 277.971C346.812 272.289 342.212 267.599 336.44 267.599C333.553 267.599 330.938 268.771 329.134 270.665C329.314 275.987 333.012 281.85 335.898 285.548C336.62 286.45 337.432 287.352 338.334 288.073C343.114 287.261 346.812 283.022 346.812 277.971Z" fill="#1D2992"/>
<path d="M337.702 279.865C337.702 282.03 335.898 283.834 333.734 283.834C331.569 283.834 329.765 282.03 329.765 279.865C329.765 277.701 331.569 275.897 333.734 275.897C335.898 275.897 337.702 277.701 337.702 279.865Z" fill="#EEBCC5"/>
<path d="M356.734 396.398L353.216 397.12L351.773 400.096L347.263 401.089V402.893L358.989 402.351L356.734 396.398Z" fill="#1D2992"/>
<path d="M402.192 362.755L403.545 359.508L407.604 360.771L407.875 371.865L406.161 371.955C406.161 371.955 404.357 366.273 404.177 366.092C403.906 366.002 402.192 362.755 402.192 362.755Z" fill="#1D2992"/>
<path d="M328.502 322.708C328.502 322.708 328.953 326.677 333.373 331.097" stroke="#3F58FA" stroke-miterlimit="10"/>
<path d="M346.001 387.198L353.487 386.387" stroke="#3F58FA" stroke-miterlimit="10"/>
<path d="M391.82 356.442L390.377 362.395" stroke="#3F58FA" stroke-miterlimit="10"/>
<path d="M203.601 396.354L175.19 396.534L175.009 368.213C175.009 366.138 176.633 364.515 178.707 364.515L199.723 364.334C201.797 364.334 203.421 365.958 203.421 368.032L203.601 396.354Z" fill="#C361F0"/>
<path d="M188.989 370.558C187.095 370.558 185.472 369.024 185.472 367.13L185.382 356.577C185.382 356.307 185.562 356.126 185.833 356.126L191.785 356.036C192.056 356.036 192.236 356.217 192.236 356.487L192.327 367.04C192.417 368.934 190.884 370.558 188.989 370.558Z" fill="#EEBCC5"/>
<path d="M200.985 354.142C200.985 354.052 200.985 353.871 200.985 353.781C200.985 352.699 200.895 351.707 200.625 350.714V349.362C200.625 342.777 195.213 337.365 188.629 337.365C182.044 337.365 176.633 342.777 176.633 349.362V354.052H200.985V354.142Z" fill="#D4ECFF"/>
<path d="M199.723 350.805V349.632C199.723 343.589 194.762 338.538 188.629 338.538C182.586 338.538 177.535 343.499 177.535 349.632V354.142C177.535 354.413 177.535 354.773 177.625 355.044C178.346 360.546 183.037 364.785 188.809 364.785C195.033 364.785 200.084 359.734 200.084 353.511C200.084 352.609 199.993 351.707 199.723 350.805Z" fill="#EEBCC5"/>
<path d="M184.389 356.397C184.838 356.397 185.201 356.034 185.201 355.585C185.201 355.137 184.838 354.773 184.389 354.773C183.941 354.773 183.578 355.137 183.578 355.585C183.578 356.034 183.941 356.397 184.389 356.397Z" fill="#3E3577"/>
<path d="M193.319 355.585C193.319 356.036 192.958 356.397 192.507 356.397C192.056 356.397 191.695 356.036 191.695 355.585C191.695 355.134 192.056 354.773 192.507 354.773C192.958 354.773 193.319 355.134 193.319 355.585Z" fill="#3E3577"/>
<path d="M180.782 355.224C180.782 356.938 179.339 358.381 177.625 358.381C175.911 358.381 174.468 356.938 174.468 355.224C174.468 353.511 175.911 352.067 177.625 352.067C179.339 352.067 180.782 353.42 180.782 355.224Z" fill="#EEBCC5"/>
<path d="M202.88 355.224C202.88 356.938 201.436 358.381 199.723 358.381C198.009 358.381 196.566 356.938 196.566 355.224C196.566 353.511 198.009 352.067 199.723 352.067C201.436 352.067 202.88 353.42 202.88 355.224Z" fill="#EEBCC5"/>
<path d="M177.535 353.15C176.452 353.24 175.641 354.142 175.641 355.224C175.641 356.307 176.452 357.209 177.535 357.299V353.15Z" fill="#D98E9D"/>
<path d="M199.542 353.15C200.625 353.24 201.437 354.142 201.437 355.224C201.437 356.307 200.625 357.209 199.542 357.299V353.15Z" fill="#D98E9D"/>
<path d="M196.476 350.805C196.746 351.797 197.197 352.879 198.189 353.15C198.911 353.33 199.723 352.969 200.354 352.518C200.715 352.248 201.076 351.977 201.166 351.526C201.256 351.165 201.076 350.805 200.895 350.534C200.264 349.271 199.542 348.099 198.64 347.016C197.829 346.114 196.295 344.581 195.484 346.205C194.762 347.197 196.115 349.722 196.476 350.805Z" fill="#D4ECFF"/>
<path d="M197.558 343.77C195.123 341.966 192.056 340.883 188.809 340.883L188.899 338.899C185.652 338.899 182.495 341.966 180.06 343.77C182.225 346.205 185.291 348.46 188.809 348.46C192.327 348.37 195.484 346.115 197.558 343.77Z" fill="#D4ECFF"/>
<path d="M158.413 388.597C157.962 387.965 157.872 387.244 158.052 386.522C159.676 380.118 172.123 367.13 172.574 366.499C173.295 365.507 177.264 364.695 177.264 364.695L177.715 375.067L166.35 385.169C165.629 385.981 165.538 387.063 165.989 388.056L176.723 404.471L173.566 406.907L158.413 388.597Z" fill="#C361F0"/>
<path d="M220.919 389.138C221.279 388.597 221.37 387.875 221.279 387.244C220.017 381.02 206.217 367.04 205.676 366.408C204.954 365.416 200.985 364.604 200.985 364.604L200.534 374.977L213.072 385.71C213.703 386.522 213.793 387.514 213.432 388.506L200.895 405.102L204.683 406.455L220.919 389.138Z" fill="#C361F0"/>
<path d="M180.962 350.805C180.692 351.797 180.241 352.879 179.249 353.15C178.527 353.33 177.715 352.969 177.084 352.518C176.723 352.248 176.362 351.977 176.272 351.526C176.182 351.165 176.362 350.805 176.543 350.534C177.174 349.271 177.896 348.099 178.798 347.016C179.609 346.114 181.143 344.581 181.954 346.205C182.676 347.197 181.323 349.722 180.962 350.805Z" fill="#D4ECFF"/>
<path d="M177.174 406.726C177.174 408.711 175.55 410.334 173.566 410.334C171.582 410.334 169.958 408.711 169.958 406.726C169.958 404.742 171.582 403.118 173.566 403.118C175.55 403.118 177.174 404.742 177.174 406.726Z" fill="#EEBCC5"/>
<path d="M182.044 405.824C171.491 404.471 160.758 403.84 150.115 403.93C147.59 403.93 144.433 404.381 143.441 406.726C142.358 409.342 144.793 411.958 147.139 413.581C158.323 420.977 172.574 421.338 186.013 421.428C186.644 419.083 187.186 416.738 187.366 414.303C186.464 413.22 191.244 410.244 190.342 409.161C189.08 407.538 181.774 407.808 182.044 405.824Z" fill="#173D7A"/>
<path d="M191.425 405.824C201.978 404.471 212.711 403.84 223.354 403.93C225.88 403.93 229.037 404.381 230.029 406.726C231.111 409.342 228.676 411.958 226.331 413.581C215.146 420.977 200.895 421.338 187.456 421.428C186.825 419.083 186.284 416.738 186.103 414.303C187.005 413.22 187.727 412.228 188.629 411.146C189.892 409.522 191.695 407.808 191.425 405.824Z" fill="#173D7A"/>
<path d="M205.044 410.785C207.037 410.785 208.652 409.17 208.652 407.177C208.652 405.185 207.037 403.569 205.044 403.569C203.052 403.569 201.436 405.185 201.436 407.177C201.436 409.17 203.052 410.785 205.044 410.785Z" fill="#EEBCC5"/>
<path d="M183.127 417.369L189.531 417.55C189.531 417.55 199.182 425.397 199.092 428.012C199.001 430.538 194.672 428.824 192.868 427.11C191.064 425.397 187.186 421.969 187.186 421.969L182.766 420.255L183.127 417.369Z" fill="#C361F0"/>
<path d="M192.597 417.73L186.193 417.189C186.193 417.189 175.64 423.954 175.46 426.479C175.28 429.005 179.699 427.832 181.774 426.299C183.758 424.765 187.997 421.879 187.997 421.879L192.597 420.707V417.73Z" fill="#C361F0"/>
<path d="M173.115 410.966H205.856C207.119 410.966 208.201 410.154 208.472 408.891L211.268 397.075C211.719 394.82 209.915 392.656 207.57 392.656L170.139 392.926C167.794 392.926 166.08 395.091 166.531 397.346L170.68 409.162C171.041 410.244 172.033 410.966 173.115 410.966Z" fill="#5793CE"/>
<path d="M193.138 392.835L170.048 393.015C167.703 393.015 165.989 395.18 166.44 397.435L170.589 409.25C170.95 410.333 171.942 411.054 173.115 411.054H178.978L193.138 392.835Z" fill="url(#paint1_linear)"/>
<path d="M191.064 343.409C191.425 343.499 191.786 343.589 192.147 343.77C192.958 344.13 193.499 344.762 194.131 345.393C195.664 347.017 197.378 348.37 199.092 349.722C199.182 349.813 199.362 349.903 199.452 349.903C199.543 349.903 199.633 349.813 199.723 349.813C200.354 349.362 200.264 348.46 200.084 347.738C199.633 345.754 199.092 343.589 197.739 342.146C197.198 341.605 196.656 341.154 196.025 340.703C194.762 339.801 193.499 338.899 192.056 338.448C191.335 338.268 190.613 338.087 189.892 337.997C188.809 337.907 187.637 337.817 186.554 337.997C186.103 338.087 185.652 338.268 185.201 338.448C183.758 338.989 182.315 339.62 181.052 340.522C178.347 342.597 177.084 346.205 177.264 349.632C177.264 350.083 177.445 350.715 177.896 350.715C178.166 350.715 178.347 350.534 178.527 350.354C179.88 348.911 180.511 347.107 181.954 345.844C183.488 344.491 185.472 343.589 187.456 343.319C188.719 343.138 189.892 343.138 191.064 343.409Z" fill="#D4ECFF"/>
<path d="M200.354 376.51H192.597V377.322H200.354V376.51Z" fill="white"/>
<defs>
<filter id="filter0_d" x="97.7358" y="28.063" width="416.136" height="460.691" filterUnits="userSpaceOnUse" color-interpolation-filters="sRGB">
<feFlood flood-opacity="0" result="BackgroundImageFix"/>
<feColorMatrix in="SourceAlpha" type="matrix" values="0 0 0 0 0 0 0 0 0 0 0 0 0 0 0 0 0 0 127 0"/>
<feOffset/>
<feGaussianBlur stdDeviation="10"/>
<feColorMatrix type="matrix" values="0 0 0 0 0.45 0 0 0 0 0.44625 0 0 0 0 0.4425 0 0 0 0.1 0"/>
<feBlend mode="normal" in2="BackgroundImageFix" result="effect1_dropShadow"/>
<feBlend mode="normal" in="SourceGraphic" in2="effect1_dropShadow" result="shape"/>
</filter>
<filter id="filter1_d" x="264.369" y="58.2783" width="86.0001" height="52.42" filterUnits="userSpaceOnUse" color-interpolation-filters="sRGB">
<feFlood flood-opacity="0" result="BackgroundImageFix"/>
<feColorMatrix in="SourceAlpha" type="matrix" values="0 0 0 0 0 0 0 0 0 0 0 0 0 0 0 0 0 0 127 0"/>
<feOffset/>
<feGaussianBlur stdDeviation="10"/>
<feColorMatrix type="matrix" values="0 0 0 0 0.45 0 0 0 0 0.44625 0 0 0 0 0.4425 0 0 0 0.1 0"/>
<feBlend mode="normal" in2="BackgroundImageFix" result="effect1_dropShadow"/>
<feBlend mode="normal" in="SourceGraphic" in2="effect1_dropShadow" result="shape"/>
</filter>
<linearGradient id="paint0_linear" x1="355.01" y1="336.074" x2="336.855" y2="326.775" gradientUnits="userSpaceOnUse">
<stop stop-color="#484EC2" stop-opacity="0"/>
<stop offset="0.9826" stop-color="#1F40E5" stop-opacity="0.5"/>
</linearGradient>
<linearGradient id="paint1_linear" x1="183.536" y1="401.781" x2="149.659" y2="402.581" gradientUnits="userSpaceOnUse">
<stop stop-color="#484EC2" stop-opacity="0"/>
<stop offset="1" stop-color="#444BCC" stop-opacity="0.5"/>
</linearGradient>
</defs>
</svg>
