<svg width="382" height="231" viewBox="0 0 382 231" fill="none" xmlns="http://www.w3.org/2000/svg">
<path d="M348.934 89.3203L344.765 94.4168L342.68 98.7412L340.749 104.224C340.749 104.224 337.351 107.39 337.583 107.39C337.738 107.467 337.351 111.251 337.738 111.791C338.124 112.332 341.907 116.888 341.907 116.888C341.907 116.888 345.614 119.282 347.081 119.591C348.548 119.899 355.962 123.143 355.962 123.143L360.517 118.818L358.741 116.579C358.741 116.579 363.452 113.722 364.07 113.336C364.61 112.95 366.927 110.71 366.927 110.71C366.927 110.71 366.85 108.703 366.463 107.467C366.155 106.154 363.838 99.8995 363.838 99.8995C363.838 99.8995 360.826 95.5751 360.44 94.8029C360.054 94.0307 358.355 91.5597 358.355 91.5597L348.934 89.3203Z" fill="#37354C"/>
<path d="M367.312 149.475L338.278 149.706L338.046 120.131C338.046 118.355 339.436 116.965 341.212 116.965L363.992 116.811C365.768 116.811 367.158 118.201 367.158 119.977L367.312 149.475Z" fill="#F16A51"/>
<path d="M347.004 116.964C347.004 116.964 349.166 119.513 349.166 124.841C349.166 130.169 349.398 139.899 349.398 139.899H355.884V124.532C355.884 124.532 355.344 119.281 359.514 115.266L352.409 115.42L347.004 116.964Z" fill="#37354C"/>
<path d="M352.332 123.143C350.402 123.143 348.78 121.598 348.78 119.668L348.703 108.857C348.703 108.625 348.935 108.394 349.166 108.394L355.267 108.316C355.498 108.316 355.73 108.548 355.73 108.78L355.807 119.513C355.807 121.521 354.263 123.143 352.332 123.143Z" fill="#EEBCC5"/>
<path d="M364.61 106.386C364.61 106.232 364.61 106.154 364.61 106C364.61 104.919 364.456 103.915 364.224 102.911V101.521C364.224 94.803 358.741 89.2432 351.946 89.2432C345.228 89.2432 339.668 94.7258 339.668 101.521V106.309H364.61V106.386Z" fill="#9B5342"/>
<path d="M363.297 102.988V101.83C363.297 95.575 358.201 90.4785 352.023 90.4785C345.768 90.4785 340.749 95.575 340.749 101.753V106.386C340.749 106.695 340.749 107.004 340.826 107.312C341.598 112.95 346.386 117.274 352.178 117.274C358.51 117.274 363.683 112.1 363.683 105.768C363.683 104.841 363.529 103.915 363.297 102.988Z" fill="#EEBCC5"/>
<path d="M348.548 107.853C348.548 108.317 348.162 108.703 347.699 108.703C347.236 108.703 346.85 108.317 346.85 107.853C346.85 107.39 347.236 107.004 347.699 107.004C348.162 107.004 348.548 107.39 348.548 107.853Z" fill="#37354C"/>
<path d="M356.811 107.853C356.811 108.317 356.425 108.703 355.962 108.703C355.498 108.703 355.112 108.317 355.112 107.853C355.112 107.39 355.498 107.004 355.962 107.004C356.425 107.004 356.811 107.39 356.811 107.853Z" fill="#37354C"/>
<path d="M343.915 107.467C343.915 109.243 342.448 110.633 340.749 110.633C338.973 110.633 337.583 109.166 337.583 107.467C337.583 105.768 339.05 104.301 340.749 104.301C342.525 104.224 343.915 105.691 343.915 107.467Z" fill="#EEBCC5"/>
<path d="M366.464 107.467C366.464 109.243 364.997 110.633 363.298 110.633C361.522 110.633 360.132 109.166 360.132 107.467C360.132 105.768 361.599 104.301 363.298 104.301C365.074 104.224 366.464 105.691 366.464 107.467Z" fill="#EEBCC5"/>
<path d="M352.873 162.602L338.587 169.32L341.213 212.795H336.116L325.846 168.239C325.383 166.308 326.232 164.224 327.931 163.142L341.444 154.88L352.873 162.602Z" fill="#666461"/>
<path d="M340.672 105.382C339.591 105.459 338.741 106.386 338.741 107.467C338.741 108.548 339.591 109.475 340.672 109.552V105.382Z" fill="#D98E9D"/>
<path d="M363.065 105.382C364.147 105.459 364.996 106.386 364.996 107.467C364.996 108.548 364.147 109.475 363.065 109.552V105.382Z" fill="#D98E9D"/>
<path d="M355.884 125.845H349.32V160.903H355.884V125.845Z" fill="#37354C"/>
<path d="M359.9 102.988C360.209 103.992 360.672 105.073 361.599 105.382C362.371 105.613 363.143 105.15 363.838 104.764C364.224 104.532 364.61 104.224 364.61 103.76C364.688 103.374 364.456 103.065 364.302 102.679C363.607 101.444 362.912 100.131 361.985 99.127C361.136 98.2004 359.591 96.656 358.742 98.2776C358.201 99.2815 359.591 101.907 359.9 102.988Z" fill="#37354C"/>
<path d="M361.136 95.7292C358.587 93.8759 355.499 92.7948 352.178 92.7948L352.333 90.7871C349.012 90.7871 345.769 93.8759 343.298 95.7292C345.46 98.2002 348.703 100.517 352.255 100.517C355.73 100.517 358.974 98.2002 361.136 95.7292Z" fill="#37354C"/>
<path d="M322.139 143.683C321.676 143.065 321.599 142.293 321.753 141.521C323.375 134.957 335.112 119.59 335.575 118.972C336.348 117.969 340.363 117.119 340.363 117.119L340.826 127.698L330.247 140.131C329.552 140.98 329.398 142.061 329.861 143.065L338.201 160.054L333.799 161.289L322.139 143.683Z" fill="#F16A51"/>
<path d="M360.209 154.88L373.722 163.142C375.421 164.224 376.271 166.231 375.807 168.239L365.46 212.795H360.363L362.989 169.32L348.703 162.602L360.209 154.88Z" fill="#666461"/>
<path d="M381.289 143.374C381.598 142.756 381.753 142.061 381.598 141.443C380.363 134.957 369.861 119.59 369.32 118.972C368.548 117.969 364.533 117.119 364.533 117.119L364.146 127.698L373.258 139.822C373.876 140.671 374.031 141.675 373.645 142.679L366.695 159.976L371.096 161.212L381.289 143.374Z" fill="#F16A51"/>
<path d="M344.147 102.988C343.838 103.992 343.374 105.073 342.448 105.382C341.676 105.613 340.903 105.15 340.208 104.764C339.822 104.532 339.436 104.224 339.436 103.76C339.359 103.374 339.591 103.065 339.745 102.679C340.44 101.444 341.135 100.131 342.062 99.127C342.911 98.2004 344.456 96.656 345.305 98.2776C345.846 99.2815 344.456 101.907 344.147 102.988Z" fill="#37354C"/>
<path d="M340.286 160.13C340.286 162.138 338.665 163.837 336.58 163.837C334.495 163.837 332.873 162.215 332.873 160.13C332.873 158.123 334.495 156.424 336.58 156.424C338.665 156.424 340.286 158.123 340.286 160.13Z" fill="#EEBCC5"/>
<path d="M362.216 92.7178C360.672 88.7796 352.255 87.3896 352.178 87.3896C352.101 87.3896 343.606 88.7796 342.139 92.7178C340.595 96.7333 336.116 107.853 336.27 110.942C336.425 113.953 341.985 117.042 341.985 117.042H347.081C347.081 117.042 339.514 111.946 338.742 109.629C337.969 107.39 340.826 104.919 341.599 104.301C344.765 98.8954 347.854 95.575 349.861 93.7217C351.174 92.4862 353.259 92.4862 354.572 93.7217C356.579 95.575 359.668 98.8954 362.834 104.301C363.606 104.919 366.386 107.39 365.691 109.629C364.919 111.868 358.124 116.965 358.124 116.965H362.448C362.448 116.965 367.931 113.953 368.162 110.865C368.24 107.853 363.761 96.6561 362.216 92.7178Z" fill="#F16A51"/>
<path d="M372.409 160.826C372.563 158.818 371.019 157.042 368.934 156.965C366.926 156.81 365.15 158.355 365.073 160.44C364.919 162.447 366.463 164.223 368.548 164.301C370.479 164.378 372.255 162.833 372.409 160.826Z" fill="#EEBCC5"/>
<path d="M366.927 144.146V159.977C366.927 159.977 357.969 163.297 356.734 163.143C355.421 162.988 355.421 149.089 355.421 149.089L357.043 144.841L366.927 144.146Z" fill="#C6523D"/>
<path d="M338.278 144.146V159.977C338.278 159.977 347.236 163.297 348.471 163.143C349.784 162.988 349.784 149.089 349.784 149.089L348.162 144.841L338.278 144.146Z" fill="#C6523D"/>
<path d="M341.213 212.795L341.908 219.281C341.908 219.281 335.344 230.169 332.719 230.478C330.093 230.71 331.251 226.154 332.719 224.069C334.186 221.984 337.12 217.583 337.12 217.583L338.201 212.872H341.213V212.795Z" fill="#C6523D"/>
<path d="M361.367 212.795L360.672 219.281C360.672 219.281 367.236 230.169 369.861 230.478C372.487 230.71 371.328 226.154 369.861 224.069C368.394 221.984 365.46 217.583 365.46 217.583L364.378 212.872H361.367V212.795Z" fill="#C6523D"/>
<path d="M336.116 164.456H369.553C370.788 164.456 371.946 163.606 372.178 162.371L375.035 150.247C375.421 147.931 373.645 145.769 371.251 145.769L333.027 146.077C330.634 146.077 328.858 148.24 329.321 150.633L333.568 162.68C333.954 163.761 334.958 164.456 336.116 164.456Z" fill="#E0E0E0"/>
<path d="M356.58 145.923L333.027 146.077C330.634 146.077 328.858 148.239 329.321 150.633L333.568 162.68C333.954 163.761 334.958 164.456 336.116 164.456H342.139L356.58 145.923Z" fill="url(#paint0_linear)"/>
<path d="M160.533 0.179688C142.07 0.179688 127 15.2492 127 33.7128V94.2624C127 112.726 142.07 127.795 160.533 127.795C178.997 127.795 194.066 112.726 194.066 94.2624V33.7128C194.066 15.2492 178.997 0.179688 160.533 0.179688Z" fill="#F16A51"/>
<path d="M160.669 16.4707H159.583V164.179H160.669V16.4707Z" fill="#F9E2FF"/>
<path d="M143.427 60.9991L159.854 74.711L178.182 61.6779L177.639 60.7276L159.854 73.3534L144.377 60.1846L143.427 60.9991Z" fill="#F9E2FF"/>
<path d="M143.427 93.8546L159.854 107.567L178.182 94.5334L177.639 93.5831L159.854 106.209L144.377 93.04L143.427 93.8546Z" fill="#F9E2FF"/>
<path d="M143.427 28.1456L159.854 41.8576L178.182 28.8244L177.639 27.8741L159.854 40.4999L144.377 27.3311L143.427 28.1456Z" fill="#F9E2FF"/>
<path d="M34.2704 0.179688C15.8068 0.179688 0.737305 15.2492 0.737305 33.7128V94.2624C0.737305 112.726 15.8068 127.795 34.2704 127.795C52.734 127.795 67.8035 112.726 67.8035 94.2624V33.7128C67.8035 15.2492 52.734 0.179688 34.2704 0.179688Z" fill="#211F1D"/>
<path d="M34.4064 16.4707H33.3203V164.179H34.4064V16.4707Z" fill="#F9E2FF"/>
<path d="M17.1641 60.9991L33.5912 74.711L51.919 61.6779L51.3759 60.7276L33.5912 73.3534L18.1143 60.1846L17.1641 60.9991Z" fill="#F9E2FF"/>
<path d="M17.1641 93.8546L33.5912 107.567L51.919 94.5334L51.3759 93.5831L33.5912 106.209L18.1143 93.04L17.1641 93.8546Z" fill="#F9E2FF"/>
<path d="M17.1641 28.1456L33.5912 41.8576L51.919 28.8244L51.3759 27.8741L33.5912 40.4999L18.1143 27.3311L17.1641 28.1456Z" fill="#F9E2FF"/>
<defs>
<linearGradient id="paint0_linear" x1="346.753" y1="155.073" x2="312.126" y2="155.891" gradientUnits="userSpaceOnUse">
<stop stop-color="#484EC2" stop-opacity="0"/>
<stop offset="1" stop-color="#444BCC" stop-opacity="0.5"/>
</linearGradient>
</defs>
</svg>
