<svg width="541" height="561" viewBox="0 0 541 561" fill="none" xmlns="http://www.w3.org/2000/svg">
<path fill-rule="evenodd" clip-rule="evenodd" d="M517.38 504.887C542.019 443.546 558.342 346.063 504.958 308.883C465.498 281.401 420.31 289.186 384.961 295.277C358.64 299.811 337.774 303.406 328.79 290.802C320.685 279.433 322.372 264.14 324.589 244.045C328.131 211.945 333.025 167.589 301.522 107.387C266.734 40.908 218.218 0.0270667 165.732 0.0273438C57.5307 0.0279149 9.91792 48.3359 -49.6017 204.763C-82.6611 291.649 -102.343 453.796 -67.2406 560.729H488.803C499.831 543.475 509.375 524.818 517.38 504.887Z" fill="url(#paint0_linear)"/>
<defs>
<linearGradient id="paint0_linear" x1="-0.721343" y1="98.0542" x2="589.79" y2="172.55" gradientUnits="userSpaceOnUse">
<stop offset="0.232963" stop-color="#F16A51"/>
<stop offset="0.656448" stop-color="#B761F2"/>
<stop offset="0.979167" stop-color="#5869FF"/>
</linearGradient>
</defs>
</svg>
