<svg width="25" height="25" viewBox="0 0 25 25" fill="none" xmlns="http://www.w3.org/2000/svg">
<g clip-path="url(#clip0)">
<path d="M7.86914 10.8281H16.5078V15.0858H7.86914V10.8281Z" fill="#211F1D"/>
<path d="M22.9313 9.67188H22.332V15.9506H22.9313C23.624 15.9497 24.1854 15.3885 24.1861 14.6956V10.9264C24.1852 10.2337 23.6238 9.67252 22.9313 9.67188Z" fill="#211F1D"/>
<path d="M19.9817 7.01758H17.6016V18.9011H19.9817C20.6743 18.9003 21.2358 18.3391 21.2364 17.6464V8.27229C21.2358 7.57965 20.6743 7.01843 19.9817 7.01758Z" fill="#211F1D"/>
<path d="M3.13672 8.27229V17.6464C3.13736 18.3391 3.69879 18.9005 4.39143 18.9011H6.77156V7.01758H4.39143C3.69879 7.01843 3.13736 7.57965 3.13672 8.27229Z" fill="#211F1D"/>
<path d="M0.1875 10.9266V14.6956C0.188142 15.3885 0.749572 15.9497 1.44221 15.9506H2.04152V9.67188H1.44221C0.749572 9.67252 0.188356 10.2339 0.1875 10.9266Z" fill="#211F1D"/>
</g>
<defs>
<clipPath id="clip0">
<rect width="24" height="24" fill="white" transform="translate(0.1875 0.933594)"/>
</clipPath>
</defs>
</svg>
