<svg width="1726" height="305" viewBox="0 0 1726 305" fill="none" xmlns="http://www.w3.org/2000/svg">
<path fill-rule="evenodd" clip-rule="evenodd" d="M1370.37 237.967H1089.54C1087.45 235.294 1085.39 232.465 1083.36 229.473C981.558 78.9678 1338.95 15.5396 1396.28 6.45033C1456.61 -3.11499 1566.11 -5.65486 1659.14 38.0196C1739.02 75.5215 1808.92 159.261 1757.92 237.967H1468.22C1444.16 218.949 1417.98 206.891 1383.22 229.473C1378.74 232.384 1374.48 235.219 1370.37 237.967Z" fill="url(#paint0_linear)"/>
<path d="M998.246 163.146L994.076 168.243L991.991 172.567L990.061 178.05C990.061 178.05 986.663 181.216 986.895 181.216C987.049 181.293 986.663 185.077 987.049 185.618C987.435 186.158 991.219 190.714 991.219 190.714C991.219 190.714 994.926 193.108 996.393 193.417C997.86 193.726 1005.27 196.969 1005.27 196.969L1009.83 192.645L1008.05 190.405C1008.05 190.405 1012.76 187.548 1013.38 187.162C1013.92 186.776 1016.24 184.536 1016.24 184.536C1016.24 184.536 1016.16 182.529 1015.77 181.293C1015.47 179.98 1013.15 173.726 1013.15 173.726C1013.15 173.726 1010.14 169.401 1009.75 168.629C1009.37 167.857 1007.67 165.386 1007.67 165.386L998.246 163.146Z" fill="#37354C"/>
<path d="M1016.62 223.303L987.589 223.534L987.357 193.959C987.357 192.183 988.747 190.793 990.523 190.793L1013.3 190.639C1015.08 190.639 1016.47 192.029 1016.47 193.805L1016.62 223.303Z" fill="#6F67FC"/>
<path d="M996.314 190.793C996.314 190.793 998.477 193.341 998.477 198.669C998.477 203.997 998.708 213.727 998.708 213.727H1005.19V198.36C1005.19 198.36 1004.65 193.109 1008.82 189.094L1001.72 189.248L996.314 190.793Z" fill="#37354C"/>
<path d="M1001.64 196.969C999.713 196.969 998.091 195.424 998.091 193.494L998.014 182.683C998.014 182.451 998.245 182.22 998.477 182.22L1004.58 182.143C1004.81 182.143 1005.04 182.374 1005.04 182.606L1005.12 193.339C1005.12 195.347 1003.57 196.969 1001.64 196.969Z" fill="#EEBCC5"/>
<path d="M1013.92 180.213C1013.92 180.059 1013.92 179.982 1013.92 179.827C1013.92 178.746 1013.77 177.742 1013.54 176.738V175.348C1013.54 168.63 1008.05 163.07 1001.26 163.07C994.54 163.07 988.98 168.553 988.98 175.348V180.136H1013.92V180.213Z" fill="#9B5342"/>
<path d="M1012.61 176.814V175.656C1012.61 169.401 1007.51 164.305 1001.33 164.305C995.08 164.305 990.061 169.401 990.061 175.579V180.212C990.061 180.521 990.061 180.83 990.138 181.139C990.91 186.776 995.698 191.1 1001.49 191.1C1007.82 191.1 1012.99 185.926 1012.99 179.594C1012.99 178.668 1012.84 177.741 1012.61 176.814Z" fill="#EEBCC5"/>
<path d="M997.859 181.679C997.859 182.143 997.473 182.529 997.01 182.529C996.546 182.529 996.16 182.143 996.16 181.679C996.16 181.216 996.546 180.83 997.01 180.83C997.473 180.83 997.859 181.216 997.859 181.679Z" fill="#37354C"/>
<path d="M1006.12 181.679C1006.12 182.143 1005.74 182.529 1005.27 182.529C1004.81 182.529 1004.42 182.143 1004.42 181.679C1004.42 181.216 1004.81 180.83 1005.27 180.83C1005.74 180.83 1006.12 181.216 1006.12 181.679Z" fill="#37354C"/>
<path d="M993.227 181.294C993.227 183.07 991.759 184.46 990.061 184.46C988.284 184.46 986.895 182.993 986.895 181.294C986.895 179.595 988.362 178.128 990.061 178.128C991.837 178.051 993.227 179.518 993.227 181.294Z" fill="#EEBCC5"/>
<path d="M1015.78 181.294C1015.78 183.07 1014.31 184.46 1012.61 184.46C1010.83 184.46 1009.44 182.993 1009.44 181.294C1009.44 179.595 1010.91 178.128 1012.61 178.128C1014.39 178.051 1015.78 179.518 1015.78 181.294Z" fill="#EEBCC5"/>
<path d="M1002.18 236.429L987.898 243.147L990.523 286.622H985.427L975.157 242.066C974.693 240.136 975.543 238.051 977.242 236.97L990.755 228.707L1002.18 236.429Z" fill="#C361F0"/>
<path d="M989.983 179.209C988.902 179.286 988.053 180.213 988.053 181.294C988.053 182.375 988.902 183.302 989.983 183.379V179.209Z" fill="#D98E9D"/>
<path d="M1012.38 179.209C1013.46 179.286 1014.31 180.213 1014.31 181.294C1014.31 182.375 1013.46 183.302 1012.38 183.379V179.209Z" fill="#D98E9D"/>
<path d="M1005.2 199.672H998.633V234.73H1005.2V199.672Z" fill="#37354C"/>
<path d="M1009.21 176.815C1009.52 177.819 1009.98 178.9 1010.91 179.209C1011.68 179.441 1012.45 178.977 1013.15 178.591C1013.54 178.36 1013.92 178.051 1013.92 177.587C1014 177.201 1013.77 176.892 1013.61 176.506C1012.92 175.271 1012.22 173.958 1011.3 172.954C1010.45 172.028 1008.9 170.483 1008.05 172.105C1007.51 173.109 1008.9 175.734 1009.21 176.815Z" fill="#37354C"/>
<path d="M1010.45 169.557C1007.9 167.704 1004.81 166.623 1001.49 166.623L1001.64 164.615C998.324 164.615 995.08 167.704 992.609 169.557C994.772 172.028 998.015 174.345 1001.57 174.345C1005.04 174.345 1008.29 172.028 1010.45 169.557Z" fill="#37354C"/>
<path d="M971.451 217.511C970.987 216.893 970.91 216.121 971.064 215.349C972.686 208.785 984.424 193.418 984.887 192.801C985.659 191.797 989.675 190.947 989.675 190.947L990.138 201.526L979.559 213.959C978.864 214.808 978.709 215.889 979.173 216.893L987.512 233.882L983.111 235.117L971.451 217.511Z" fill="#6F67FC"/>
<path d="M1009.52 228.707L1023.03 236.97C1024.73 238.051 1025.58 240.058 1025.12 242.066L1014.77 286.622H1009.67L1012.3 243.147L998.014 236.429L1009.52 228.707Z" fill="#C361F0"/>
<path d="M1030.6 217.202C1030.91 216.584 1031.07 215.889 1030.91 215.272C1029.68 208.785 1019.17 193.418 1018.63 192.801C1017.86 191.797 1013.85 190.947 1013.85 190.947L1013.46 201.526L1022.57 213.65C1023.19 214.499 1023.34 215.503 1022.96 216.507L1016.01 233.804L1020.41 235.04L1030.6 217.202Z" fill="#6F67FC"/>
<path d="M993.458 176.815C993.149 177.819 992.686 178.9 991.759 179.209C990.987 179.441 990.215 178.977 989.52 178.591C989.134 178.36 988.748 178.051 988.748 177.587C988.671 177.201 988.902 176.892 989.057 176.506C989.752 175.271 990.447 173.958 991.373 172.954C992.223 172.028 993.767 170.483 994.616 172.105C995.157 173.109 993.767 175.734 993.458 176.815Z" fill="#37354C"/>
<path d="M989.597 233.959C989.597 235.966 987.975 237.665 985.89 237.665C983.805 237.665 982.184 236.043 982.184 233.959C982.184 231.951 983.805 230.252 985.89 230.252C987.975 230.252 989.597 231.951 989.597 233.959Z" fill="#EEBCC5"/>
<path d="M1011.53 166.545C1009.98 162.607 1001.57 161.217 1001.49 161.217C1001.41 161.217 992.918 162.607 991.451 166.545C989.906 170.56 985.428 181.68 985.582 184.769C985.736 187.781 991.296 190.869 991.296 190.869H996.393C996.393 190.869 988.825 185.773 988.053 183.456C987.281 181.217 990.138 178.746 990.91 178.128C994.076 172.723 997.165 169.402 999.173 167.549C1000.49 166.313 1002.57 166.313 1003.88 167.549C1005.89 169.402 1008.98 172.723 1012.15 178.128C1012.92 178.746 1015.7 181.217 1015 183.456C1014.23 185.696 1007.44 190.792 1007.44 190.792H1011.76C1011.76 190.792 1017.24 187.781 1017.47 184.692C1017.55 181.68 1013.07 170.483 1011.53 166.545Z" fill="#6F67FC"/>
<path d="M1021.72 234.653C1021.88 232.645 1020.33 230.869 1018.25 230.792C1016.24 230.637 1014.46 232.182 1014.39 234.267C1014.23 236.275 1015.78 238.051 1017.86 238.128C1019.79 238.205 1021.57 236.661 1021.72 234.653Z" fill="#EEBCC5"/>
<path d="M1016.24 217.973V233.803C1016.24 233.803 1007.28 237.123 1006.05 236.969C1004.73 236.814 1004.73 222.915 1004.73 222.915L1006.35 218.668L1016.24 217.973Z" fill="#737AFB"/>
<path d="M987.59 217.973V233.803C987.59 233.803 996.547 237.123 997.783 236.969C999.096 236.814 999.096 222.915 999.096 222.915L997.474 218.668L987.59 217.973Z" fill="#737AFB"/>
<path d="M990.523 286.623L991.218 293.11C991.218 293.11 984.655 303.998 982.029 304.306C979.404 304.538 980.562 299.982 982.029 297.897C983.496 295.812 986.431 291.411 986.431 291.411L987.512 286.7H990.523V286.623Z" fill="#2D2C56"/>
<path d="M1010.68 286.623L1009.98 293.11C1009.98 293.11 1016.55 303.998 1019.17 304.306C1021.8 304.538 1020.64 299.982 1019.17 297.897C1017.7 295.812 1014.77 291.411 1014.77 291.411L1013.69 286.7H1010.68V286.623Z" fill="#2D2C56"/>
<path d="M985.428 238.283H1018.86C1020.1 238.283 1021.26 237.434 1021.49 236.198L1024.35 224.074C1024.73 221.758 1022.96 219.596 1020.56 219.596L982.339 219.905C979.945 219.905 978.169 222.067 978.632 224.461L982.879 236.507C983.266 237.588 984.269 238.283 985.428 238.283Z" fill="white"/>
<path d="M1005.89 219.75L982.339 219.904C979.945 219.904 978.169 222.067 978.632 224.46L982.879 236.507C983.266 237.588 984.269 238.283 985.428 238.283H991.451L1005.89 219.75Z" fill="url(#paint1_linear)"/>
<path d="M1117.95 73.916C1099.49 73.916 1084.42 88.9856 1084.42 107.449V167.999C1084.42 186.462 1099.49 201.532 1117.95 201.532C1136.42 201.532 1151.49 186.462 1151.49 167.999V107.449C1151.49 88.9856 1136.42 73.916 1117.95 73.916Z" fill="#F16A51"/>
<path d="M1118.09 90.207H1117V237.916H1118.09V90.207Z" fill="#F9E2FF"/>
<path d="M1100.85 134.734L1117.28 148.446L1135.6 135.413L1135.06 134.463L1117.28 147.089L1101.8 133.92L1100.85 134.734Z" fill="#F9E2FF"/>
<path d="M1100.85 167.592L1117.28 181.304L1135.6 168.271L1135.06 167.32L1117.28 179.946L1101.8 166.777L1100.85 167.592Z" fill="#F9E2FF"/>
<path d="M1100.85 101.883L1117.28 115.595L1135.6 102.562L1135.06 101.611L1117.28 114.237L1101.8 101.068L1100.85 101.883Z" fill="#F9E2FF"/>
<path d="M33.9491 73.916C15.4856 73.916 0.416016 88.9856 0.416016 107.449V167.999C0.416016 186.462 15.4856 201.532 33.9491 201.532C52.4127 201.532 67.4822 186.462 67.4822 167.999V107.449C67.4822 88.9856 52.4127 73.916 33.9491 73.916Z" fill="#211F1D"/>
<path d="M34.0841 90.207H32.998V237.916H34.0841V90.207Z" fill="#F9E2FF"/>
<path d="M16.8438 134.734L33.2709 148.446L51.5987 135.413L51.0556 134.463L33.2709 147.089L17.794 133.92L16.8438 134.734Z" fill="#F9E2FF"/>
<path d="M16.8438 167.592L33.2709 181.304L51.5987 168.271L51.0556 167.32L33.2709 179.946L17.794 166.777L16.8438 167.592Z" fill="#F9E2FF"/>
<path d="M16.8438 101.883L33.2709 115.595L51.5987 102.562L51.0556 101.611L33.2709 114.237L17.794 101.068L16.8438 101.883Z" fill="#F9E2FF"/>
<defs>
<linearGradient id="paint0_linear" x1="1792.13" y1="17.6224" x2="1253.41" y2="502.345" gradientUnits="userSpaceOnUse">
<stop offset="0.232963" stop-color="#F16A51"/>
<stop offset="0.656448" stop-color="#B761F2"/>
<stop offset="0.979167" stop-color="#5869FF"/>
</linearGradient>
<linearGradient id="paint1_linear" x1="996.065" y1="228.901" x2="961.438" y2="229.718" gradientUnits="userSpaceOnUse">
<stop stop-color="#484EC2" stop-opacity="0"/>
<stop offset="1" stop-color="#444BCC" stop-opacity="0.5"/>
</linearGradient>
</defs>
</svg>
