<svg width="281" height="865" viewBox="0 0 281 865" fill="none" xmlns="http://www.w3.org/2000/svg">
<path d="M194.839 423.667C210.844 439.623 203.509 504.764 191.658 523.513C176.638 547.274 149.653 571.249 133.647 555.294C117.642 539.338 110.365 504.524 124.35 482.707C145.478 449.749 178.214 407.963 194.839 423.667Z" fill="url(#paint0_linear)"/>
<path fill-rule="evenodd" clip-rule="evenodd" d="M0.988281 864.889C39.4098 831.145 68.1605 799.256 80.6575 778.75C118.176 717.189 112.713 652.964 107.786 595.036C103.295 542.237 99.2483 494.669 128.595 459.113C151.069 431.885 172.084 409.699 190.886 389.851C250.938 326.455 288.41 286.895 278.712 182.98C272.729 118.884 231.41 71.4413 144.68 38.266C123.937 30.3315 71.5316 14.8048 0.988281 0.519531V864.889Z" fill="url(#paint1_linear)"/>
<defs>
<linearGradient id="paint0_linear" x1="99.416" y1="517.003" x2="188.972" y2="472.51" gradientUnits="userSpaceOnUse">
<stop stop-color="#D361EE"/>
<stop offset="1" stop-color="#F16A51"/>
</linearGradient>
<linearGradient id="paint1_linear" x1="470.373" y1="323.283" x2="-579.574" y2="574.519" gradientUnits="userSpaceOnUse">
<stop offset="0.232963" stop-color="#F16A51"/>
<stop offset="0.656448" stop-color="#B761F2"/>
<stop offset="0.979167" stop-color="#5869FF"/>
</linearGradient>
</defs>
</svg>
