<svg width="150" height="23" viewBox="0 0 150 23" fill="none" xmlns="http://www.w3.org/2000/svg">
<path fill-rule="evenodd" clip-rule="evenodd" d="M0 11.5844C0.300422 12.0945 5.99809 17.6902 6.5575 17.9074C7.51056 18.2761 8.27716 17.67 8.40665 16.9428C8.60348 15.862 6.72325 14.4984 5.52674 13.3217C4.99323 12.7965 4.23181 12.2106 3.93139 11.5793C4.56331 10.6804 6.34513 9.1299 7.23604 8.26629C7.66595 7.85216 8.55168 7.22087 8.5206 6.37746C8.48952 5.52396 7.67631 4.91791 6.67145 5.19568C6.02917 5.3775 0.502431 10.847 0 11.5844Z" fill="#F16A51"/>
<path fill-rule="evenodd" clip-rule="evenodd" d="M136.3 1.78389C135.383 2.23337 135.497 2.62225 135.088 4.02624L132.834 11.9856C132.332 13.7583 131.866 15.4198 131.343 17.2531C131.167 17.8642 130.633 19.4853 130.612 20.0156C130.576 21.0863 131.581 21.8994 132.658 21.3338C133.554 20.859 135.523 12.5916 135.973 11.0816C136.502 9.32405 136.921 7.63219 137.475 5.81911C137.641 5.27368 138.18 3.53636 138.18 3.06163C138.18 1.98085 137.273 1.3041 136.3 1.78389Z" fill="#F16A51"/>
<path fill-rule="evenodd" clip-rule="evenodd" d="M146.053 11.5793C145.571 12.4934 143.748 13.9833 142.888 14.8166C142.427 15.261 141.49 15.8569 141.557 16.7811C141.624 17.6751 142.489 18.3013 143.463 17.9074C143.862 17.7458 149.591 12.0944 150 11.5742C149.518 10.7611 144.017 5.38757 143.334 5.19061C142.339 4.90274 141.526 5.51383 141.474 6.37744C141.397 7.67538 144.504 9.61976 146.053 11.5793Z" fill="#F16A51"/>
<path d="M18.1669 6.17411H20.956V17.7914H18.1669V6.17411ZM19.5726 4.25965C19.0669 4.25965 18.6429 4.10736 18.3008 3.80279C17.9587 3.48372 17.7876 3.09212 17.7876 2.62801C17.7876 2.1639 17.9587 1.77956 18.3008 1.47498C18.6429 1.15591 19.0669 0.996368 19.5726 0.996368C20.0784 0.996368 20.5023 1.14865 20.8444 1.45323C21.1865 1.7433 21.3576 2.11314 21.3576 2.56274C21.3576 3.04136 21.1865 3.44746 20.8444 3.78104C20.5172 4.10011 20.0932 4.25965 19.5726 4.25965Z" fill="#211F1D"/>
<path d="M34.0101 17.1605C33.6829 17.4216 33.2813 17.6174 32.8053 17.7479C32.3442 17.8784 31.8533 17.9437 31.3327 17.9437C30.0237 17.9437 29.0122 17.6101 28.2982 16.9429C27.5842 16.2758 27.2272 15.3041 27.2272 14.0277V8.43665H25.2637V6.26113H27.2272V3.607H30.0162V6.26113H33.2069V8.43665H30.0162V13.9625C30.0162 14.5281 30.1575 14.9632 30.4402 15.2678C30.7228 15.5579 31.1318 15.7029 31.6673 15.7029C32.2921 15.7029 32.8127 15.5434 33.2292 15.2243L34.0101 17.1605Z" fill="#211F1D"/>
<path d="M45.1402 6.04358C46.3005 6.04358 47.3343 6.29014 48.2416 6.78326C49.1639 7.27638 49.8853 7.97254 50.406 8.87176C50.9266 9.77098 51.1869 10.808 51.1869 11.9828C51.1869 13.1575 50.9266 14.2018 50.406 15.1155C49.8853 16.0147 49.1639 16.7109 48.2416 17.204C47.3343 17.6971 46.3005 17.9437 45.1402 17.9437C43.5337 17.9437 42.2619 17.4216 41.3248 16.3773V22.0119H38.5357V6.17411H41.1909V7.69698C41.652 7.14584 42.2173 6.7325 42.8867 6.45693C43.5709 6.18136 44.3221 6.04358 45.1402 6.04358ZM44.8278 15.6159C45.8542 15.6159 46.6947 15.2823 47.3492 14.6151C48.0185 13.948 48.3532 13.0705 48.3532 11.9828C48.3532 10.895 48.0185 10.0175 47.3492 9.35037C46.6947 8.68321 45.8542 8.34963 44.8278 8.34963C44.1585 8.34963 43.556 8.50192 43.0205 8.80649C42.485 9.09656 42.0611 9.51716 41.7487 10.0683C41.4364 10.6194 41.2802 11.2576 41.2802 11.9828C41.2802 12.7079 41.4364 13.3461 41.7487 13.8972C42.0611 14.4483 42.485 14.8762 43.0205 15.1808C43.556 15.4708 44.1585 15.6159 44.8278 15.6159Z" fill="#211F1D"/>
<path d="M58.7184 7.87102C59.5216 6.65273 60.9347 6.04358 62.9577 6.04358V8.63245C62.7197 8.58894 62.5041 8.56719 62.3107 8.56719C61.2248 8.56719 60.3769 8.87901 59.7671 9.50266C59.1572 10.1118 58.8523 10.9965 58.8523 12.1568V17.7914H56.0632V6.17411H58.7184V7.87102Z" fill="#211F1D"/>
<path d="M72.801 17.9437C71.5961 17.9437 70.5103 17.6899 69.5434 17.1823C68.5765 16.6746 67.8179 15.9712 67.2675 15.072C66.732 14.1583 66.4643 13.1285 66.4643 11.9828C66.4643 10.837 66.732 9.81449 67.2675 8.91527C67.8179 8.01605 68.5765 7.31263 69.5434 6.80501C70.5103 6.29739 71.5961 6.04358 72.801 6.04358C74.0208 6.04358 75.1141 6.29739 76.0809 6.80501C77.0478 7.31263 77.799 8.01605 78.3345 8.91527C78.8849 9.81449 79.1601 10.837 79.1601 11.9828C79.1601 13.1285 78.8849 14.1583 78.3345 15.072C77.799 15.9712 77.0478 16.6746 76.0809 17.1823C75.1141 17.6899 74.0208 17.9437 72.801 17.9437ZM72.801 15.6159C73.8274 15.6159 74.6753 15.2823 75.3446 14.6151C76.014 13.948 76.3487 13.0705 76.3487 11.9828C76.3487 10.895 76.014 10.0175 75.3446 9.35037C74.6753 8.68321 73.8274 8.34963 72.801 8.34963C71.7746 8.34963 70.9268 8.68321 70.2574 9.35037C69.6029 10.0175 69.2756 10.895 69.2756 11.9828C69.2756 13.0705 69.6029 13.948 70.2574 14.6151C70.9268 15.2823 71.7746 15.6159 72.801 15.6159Z" fill="#211F1D"/>
<path d="M95.8839 6.17411V16.0292C95.8839 20.1192 93.7419 22.1642 89.458 22.1642C88.3126 22.1642 87.2267 22.0192 86.2003 21.7291C85.174 21.4535 84.3261 21.0474 83.6567 20.5108L84.9062 18.4658C85.4268 18.8864 86.0813 19.22 86.8697 19.4666C87.6729 19.7276 88.4836 19.8581 89.3018 19.8581C90.6108 19.8581 91.5702 19.5681 92.1801 18.9879C92.7899 18.4078 93.0949 17.5231 93.0949 16.3338V15.7247C92.6189 16.2323 92.0388 16.6166 91.3545 16.8777C90.6703 17.1387 89.9191 17.2693 89.101 17.2693C87.9704 17.2693 86.9441 17.0372 86.0218 16.5731C85.1145 16.0945 84.393 15.4273 83.8575 14.5716C83.3369 13.7159 83.0766 12.7369 83.0766 11.6347C83.0766 10.5324 83.3369 9.56067 83.8575 8.71947C84.393 7.86377 85.1145 7.20386 86.0218 6.73975C86.9441 6.27564 87.9704 6.04358 89.101 6.04358C89.9637 6.04358 90.7446 6.18136 91.4438 6.45693C92.1578 6.7325 92.7528 7.1531 93.2288 7.71873V6.17411H95.8839ZM89.5249 14.9632C90.581 14.9632 91.4438 14.6586 92.1131 14.0495C92.7974 13.4259 93.1395 12.6209 93.1395 11.6347C93.1395 10.6629 92.7974 9.8725 92.1131 9.26335C91.4438 8.65421 90.581 8.34963 89.5249 8.34963C88.4539 8.34963 87.5763 8.65421 86.892 9.26335C86.2226 9.8725 85.888 10.6629 85.888 11.6347C85.888 12.6209 86.2226 13.4259 86.892 14.0495C87.5763 14.6586 88.4539 14.9632 89.5249 14.9632Z" fill="#211F1D"/>
<path d="M112.983 12.048C112.983 12.2366 112.968 12.5049 112.938 12.853H103.589C103.753 13.7087 104.177 14.3903 104.861 14.898C105.56 15.3911 106.423 15.6376 107.449 15.6376C108.758 15.6376 109.837 15.217 110.685 14.3758L112.18 16.051C111.644 16.6746 110.967 17.146 110.149 17.4651C109.331 17.7841 108.409 17.9437 107.382 17.9437C106.073 17.9437 104.921 17.6899 103.924 17.1823C102.927 16.6746 102.154 15.9712 101.603 15.072C101.068 14.1583 100.8 13.1285 100.8 11.9828C100.8 10.8515 101.06 9.83624 101.581 8.93703C102.117 8.02331 102.853 7.31263 103.79 6.80501C104.727 6.29739 105.783 6.04358 106.958 6.04358C108.119 6.04358 109.152 6.29739 110.06 6.80501C110.982 7.29813 111.696 8.00155 112.202 8.91527C112.722 9.81449 112.983 10.8587 112.983 12.048ZM106.958 8.2191C106.066 8.2191 105.307 8.48017 104.683 9.00229C104.073 9.50991 103.701 10.1916 103.567 11.0473H110.328C110.209 10.2061 109.844 9.52442 109.234 9.00229C108.624 8.48017 107.866 8.2191 106.958 8.2191Z" fill="#211F1D"/>
<path d="M120.548 7.87102C121.351 6.65273 122.765 6.04358 124.788 6.04358V8.63245C124.55 8.58894 124.334 8.56719 124.141 8.56719C123.055 8.56719 122.207 8.87901 121.597 9.50266C120.987 10.1118 120.682 10.9965 120.682 12.1568V17.7914H117.893V6.17411H120.548V7.87102Z" fill="#211F1D"/>
</svg>
