<svg width="516" height="409" viewBox="0 0 516 409" fill="none" xmlns="http://www.w3.org/2000/svg">
<g clip-path="url(#clip0)">
<path opacity="0.5" d="M283.784 324.303L148.438 256.074C144.612 254.14 144.866 250.382 149.005 247.663L235.321 191.089C239.459 188.37 245.921 187.743 249.747 189.667L385.093 257.897C388.92 259.831 388.665 263.589 384.527 266.308L298.21 322.881C294.081 325.6 287.619 326.227 283.784 324.303Z" fill="#173D7A"/>
<path d="M419.697 94.5723L274.244 21.2557C272.558 20.4064 270.881 20.3486 269.438 20.9434L269.446 20.925L269.192 21.0384C269.174 21.0484 269.148 21.0589 269.131 21.0689L264.155 23.3042L268.847 25.2787C268.834 25.3605 268.812 25.4427 268.799 25.5334L250.337 140.119C249.486 145.414 252.129 151.383 256.242 153.454L398.193 225.007L398.03 230.857L403.469 228.389C405.286 227.413 406.671 225.345 407.131 222.493L425.592 107.908C426.462 102.621 423.819 96.6512 419.697 94.5723Z" fill="#173D7A"/>
<path d="M419.697 94.5723L274.244 21.2557C272.558 20.4064 270.881 20.3486 269.438 20.9434L269.446 20.925L269.192 21.0384C269.174 21.0484 269.148 21.0589 269.131 21.0689L264.155 23.3042L268.847 25.2787C268.834 25.3605 268.812 25.4427 268.799 25.5334L256.139 104.071L328.098 153.849L424.465 99.9443C423.394 97.5663 421.726 95.6001 419.697 94.5723Z" fill="#396CAA"/>
<path d="M415.297 110.931L425.758 105.757C425.72 101.592 423.754 97.4019 420.807 95.2652L404.24 103.369L415.297 110.931Z" fill="#274F89"/>
<path d="M393.118 230.578L247.665 157.261C243.552 155.191 240.909 149.212 241.761 143.926L260.223 29.341C261.074 24.046 265.102 21.4415 269.215 23.5119L414.668 96.8286C418.781 98.899 421.425 104.878 420.573 110.164L402.111 224.749C401.26 230.053 397.232 232.657 393.118 230.578Z" fill="#D4ECFF"/>
<path d="M415.995 96.2673L270.542 22.9506C268.55 21.9477 266.586 22.0592 264.985 23.0231C266.296 22.6607 267.752 22.776 269.216 23.5209L414.669 96.8375C418.782 98.908 421.425 104.887 420.573 110.173L402.111 224.758C401.672 227.483 400.382 229.482 398.676 230.506C401.024 229.85 402.884 227.585 403.429 224.188L421.891 109.603C422.752 104.316 420.108 98.3377 415.995 96.2673Z" fill="white"/>
<path d="M389.628 222.992L252.83 154.07C249.068 152.169 246.643 146.709 247.422 141.868L264.44 36.2652C265.218 31.4243 268.908 29.0371 272.669 30.9385L409.467 99.8596C413.229 101.761 415.654 107.221 414.876 112.062L397.857 217.656C397.078 222.497 393.389 224.884 389.628 222.992Z" fill="white"/>
<path d="M389.628 222.992L252.83 154.07C249.068 152.169 246.643 146.709 247.422 141.868L264.44 36.2652C265.218 31.4243 268.908 29.0371 272.669 30.9385L409.467 99.8596C413.229 101.761 415.654 107.221 414.876 112.062L397.857 217.656C397.078 222.497 393.389 224.884 389.628 222.992Z" fill="#223D69"/>
<path d="M390.758 222.45L253.96 153.529C250.198 151.628 247.774 146.168 248.552 141.327L265.57 35.7241C265.962 33.272 267.11 31.4609 268.622 30.5022C266.553 31.1596 264.934 33.2314 264.44 36.2562L247.431 141.868C246.652 146.709 249.069 152.178 252.839 154.07L389.637 222.991C391.499 223.929 393.337 223.816 394.814 222.877C393.568 223.272 392.166 223.163 390.758 222.45Z" fill="#5793CE"/>
<path d="M395.266 234.011L375.871 232.565L247.53 167.871C243.416 165.8 236.471 166.482 232.02 169.399L146.849 225.214L135.118 224.341L135.493 230.944L135.502 230.943C135.516 232.472 136.461 233.895 138.406 234.873L283.859 308.19C287.973 310.26 294.918 309.578 299.369 306.662L392.132 245.87C394.631 244.225 395.814 242.232 395.639 240.424L395.275 234.01L395.266 234.011Z" fill="#173D7A"/>
<path d="M299.318 193.973L290.202 189.378L193.131 194.887L146.84 225.215L135.109 224.342L135.484 230.944L135.493 230.944C135.507 232.473 136.452 233.895 138.397 234.874L283.85 308.19C286.028 309.291 288.988 309.608 291.956 309.242L299.318 193.973Z" fill="#396CAA"/>
<path d="M140.324 224.73L135.118 224.341L135.493 230.944L135.502 230.943C135.516 232.472 136.461 233.895 138.406 234.873L140.973 236.167L140.324 224.73Z" fill="#5793CE"/>
<path d="M285.314 308.773C289.172 309.994 294.555 309.374 298.473 307.207L297.637 292.478L284.432 293.227L285.314 308.773Z" fill="#274F89"/>
<path d="M283.485 301.596L138.032 228.271C133.918 226.2 134.193 222.153 138.635 219.237L231.399 158.446C235.85 155.529 242.795 154.847 246.908 156.917L392.361 230.234C396.474 232.305 396.2 236.352 391.758 239.268L298.994 300.059C294.543 302.985 287.598 303.667 283.485 301.596Z" fill="#D4ECFF"/>
<path d="M391.612 236.864L298.849 297.656C294.397 300.572 287.452 301.254 283.339 299.184L137.895 225.858C136.542 225.178 135.682 224.282 135.265 223.289C134.753 225.208 135.651 227.074 138.032 228.271L283.485 301.587C287.598 303.658 294.543 302.976 298.994 300.059L391.757 239.268C394.751 237.307 395.844 234.842 394.999 232.802C394.611 234.201 393.486 235.633 391.612 236.864Z" fill="white"/>
<path d="M196.401 197.96L189.823 194.643C189.295 194.376 189.329 193.861 189.902 193.487L197.173 188.718C197.745 188.344 198.631 188.258 199.168 188.524L205.746 191.841C206.274 192.108 206.241 192.622 205.668 192.997L198.396 197.756C197.824 198.131 196.929 198.218 196.401 197.96Z" fill="#5793CE"/>
<path d="M206.564 203.08L199.986 199.763C199.458 199.496 199.492 198.981 200.065 198.607L207.336 193.838C207.908 193.464 208.794 193.378 209.332 193.644L215.909 196.961C216.438 197.228 216.404 197.742 215.831 198.117L208.56 202.885C207.987 203.26 207.092 203.347 206.564 203.08Z" fill="#5793CE"/>
<path d="M216.727 208.199L210.149 204.883C209.621 204.616 209.655 204.101 210.228 203.727L217.499 198.958C218.071 198.584 218.957 198.497 219.494 198.764L226.072 202.08C226.6 202.347 226.567 202.862 225.994 203.237L218.723 208.005C218.15 208.38 217.255 208.466 216.727 208.199Z" fill="#5793CE"/>
<path d="M230.078 202.735L223.5 199.419C222.972 199.152 223.006 198.637 223.579 198.262L229.687 194.262C230.26 193.887 231.146 193.801 231.683 194.067L238.261 197.384C238.789 197.651 238.755 198.166 238.183 198.54L232.074 202.541C231.492 202.916 230.606 203.002 230.078 202.735Z" fill="#5793CE"/>
<path d="M240.242 207.864L233.664 204.547C233.136 204.28 233.17 203.766 233.742 203.391L239.851 199.391C240.424 199.016 241.31 198.93 241.847 199.196L248.425 202.513C248.953 202.78 248.919 203.295 248.346 203.669L242.238 207.67C241.655 208.036 240.769 208.122 240.242 207.864Z" fill="#5793CE"/>
<path d="M250.405 212.984L243.827 209.667C243.299 209.4 243.333 208.885 243.905 208.511L250.014 204.51C250.587 204.136 251.473 204.05 252.01 204.316L258.588 207.633C259.116 207.9 259.082 208.415 258.509 208.789L252.401 212.79C251.819 213.165 250.933 213.251 250.405 212.984Z" fill="#5793CE"/>
<path d="M260.568 218.104L253.99 214.787C253.462 214.52 253.496 214.005 254.068 213.631L260.177 209.63C260.75 209.256 261.636 209.17 262.173 209.436L268.751 212.753C269.279 213.02 269.245 213.535 268.672 213.909L262.564 217.909C261.982 218.284 261.096 218.371 260.568 218.104Z" fill="#5793CE"/>
<path d="M270.731 223.233L264.153 219.916C263.625 219.649 263.659 219.134 264.232 218.76L270.34 214.759C270.913 214.385 271.799 214.298 272.336 214.565L278.914 217.881C279.442 218.148 279.408 218.663 278.836 219.038L272.727 223.038C272.145 223.404 271.259 223.5 270.731 223.233Z" fill="#5793CE"/>
<path d="M280.894 228.352L274.317 225.036C273.788 224.769 273.822 224.254 274.395 223.88L280.504 219.879C281.076 219.505 281.962 219.418 282.499 219.685L289.077 223.001C289.605 223.268 289.572 223.783 288.999 224.158L282.89 228.158C282.309 228.533 281.423 228.619 280.894 228.352Z" fill="#5793CE"/>
<path d="M291.057 233.472L284.479 230.156C283.951 229.889 283.985 229.374 284.558 229L290.666 224.999C291.239 224.625 292.125 224.538 292.662 224.805L299.24 228.121C299.768 228.388 299.734 228.903 299.162 229.278L293.053 233.278C292.471 233.653 291.585 233.739 291.057 233.472Z" fill="#5793CE"/>
<path d="M301.221 238.601L294.643 235.285C294.115 235.018 294.149 234.503 294.721 234.128L300.83 230.128C301.403 229.753 302.289 229.667 302.826 229.934L309.404 233.25C309.932 233.517 309.898 234.032 309.325 234.407L303.217 238.407C302.635 238.782 301.749 238.868 301.221 238.601Z" fill="#5793CE"/>
<path d="M311.384 243.721L304.806 240.405C304.278 240.138 304.312 239.623 304.884 239.248L310.993 235.248C311.566 234.873 312.452 234.787 312.989 235.054L319.567 238.37C320.095 238.637 320.061 239.152 319.488 239.526L313.38 243.527C312.798 243.902 311.912 243.988 311.384 243.721Z" fill="#5793CE"/>
<path d="M321.547 248.841L314.969 245.525C314.441 245.258 314.475 244.743 315.047 244.368L321.156 240.368C321.729 239.993 322.615 239.907 323.152 240.173L329.73 243.49C330.258 243.757 330.224 244.272 329.651 244.646L323.543 248.647C322.961 249.022 322.075 249.108 321.547 248.841Z" fill="#5793CE"/>
<path d="M244.422 199.221L237.844 195.905C237.316 195.638 237.35 195.123 237.922 194.748L244.031 190.748C244.604 190.373 245.49 190.287 246.027 190.554L252.605 193.87C253.133 194.137 253.099 194.652 252.526 195.026L246.418 199.027C245.845 199.401 244.95 199.488 244.422 199.221Z" fill="#5793CE"/>
<path d="M234.111 194.029L227.533 190.712C227.005 190.445 227.039 189.93 227.611 189.556L233.72 185.555C234.293 185.181 235.179 185.095 235.716 185.361L242.294 188.678C242.822 188.945 242.788 189.459 242.215 189.834L236.107 193.834C235.525 194.2 234.639 194.287 234.111 194.029Z" fill="#5793CE"/>
<path d="M223.772 188.82L209.597 181.678C209.069 181.411 209.103 180.896 209.676 180.521L215.784 176.521C216.357 176.146 217.243 176.06 217.78 176.326L231.955 183.469C232.483 183.736 232.449 184.251 231.876 184.625L225.768 188.625C225.194 188.991 224.3 189.087 223.772 188.82Z" fill="#5793CE"/>
<path d="M230.37 181.399L218.864 175.599C218.336 175.332 218.369 174.817 218.942 174.443L225.051 170.442C225.623 170.068 226.509 169.981 227.046 170.248L238.553 176.048C239.081 176.315 239.047 176.829 238.475 177.204L232.366 181.204C231.784 181.57 230.898 181.666 230.37 181.399Z" fill="#5793CE"/>
<path d="M254.586 204.35L248.008 201.034C247.48 200.767 247.513 200.252 248.086 199.877L254.195 195.877C254.767 195.502 255.653 195.416 256.191 195.682L262.768 198.999C263.297 199.266 263.263 199.781 262.69 200.155L256.581 204.156C256.009 204.53 255.114 204.617 254.586 204.35Z" fill="#5793CE"/>
<path d="M264.749 209.47L258.171 206.153C257.643 205.886 257.676 205.372 258.249 204.997L264.358 200.997C264.93 200.622 265.817 200.536 266.354 200.802L272.931 204.119C273.46 204.386 273.426 204.901 272.853 205.275L266.745 209.276C266.172 209.65 265.277 209.737 264.749 209.47Z" fill="#5793CE"/>
<path d="M274.911 214.59L268.334 211.273C267.806 211.006 267.839 210.491 268.412 210.117L274.521 206.116C275.093 205.742 275.979 205.656 276.516 205.922L283.094 209.239C283.622 209.506 283.589 210.021 283.016 210.395L276.907 214.396C276.335 214.77 275.44 214.857 274.911 214.59Z" fill="#5793CE"/>
<path d="M285.075 219.719L278.497 216.402C277.969 216.135 278.003 215.62 278.576 215.246L284.684 211.245C285.257 210.871 286.143 210.785 286.68 211.051L293.258 214.368C293.786 214.635 293.752 215.149 293.18 215.524L287.071 219.524C286.498 219.899 285.603 219.986 285.075 219.719Z" fill="#5793CE"/>
<path d="M295.238 224.839L288.66 221.522C288.132 221.255 288.166 220.74 288.739 220.366L294.847 216.365C295.42 215.991 296.306 215.905 296.843 216.171L303.421 219.487C303.949 219.754 303.915 220.269 303.343 220.644L297.234 224.644C296.661 225.019 295.766 225.106 295.238 224.839Z" fill="#5793CE"/>
<path d="M305.401 229.967L298.824 226.651C298.295 226.384 298.329 225.869 298.902 225.495L305.011 221.494C305.583 221.12 306.469 221.033 307.006 221.3L313.584 224.616C314.112 224.883 314.079 225.398 313.506 225.773L307.397 229.773C306.824 230.139 305.929 230.226 305.401 229.967Z" fill="#5793CE"/>
<path d="M315.565 235.087L308.987 231.771C308.459 231.504 308.492 230.989 309.065 230.615L315.174 226.614C315.746 226.24 316.632 226.153 317.17 226.42L323.747 229.736C324.276 230.003 324.242 230.518 323.669 230.893L317.56 234.893C316.988 235.268 316.093 235.354 315.565 235.087Z" fill="#5793CE"/>
<path d="M325.728 240.207L319.15 236.891C318.622 236.624 318.655 236.109 319.228 235.734L325.337 231.734C325.909 231.359 326.796 231.273 327.333 231.54L333.91 234.856C334.439 235.123 334.405 235.638 333.832 236.013L327.723 240.013C327.151 240.387 326.256 240.474 325.728 240.207Z" fill="#5793CE"/>
<path d="M335.891 245.336L329.313 242.02C328.785 241.753 328.819 241.238 329.391 240.863L335.5 236.863C336.073 236.488 336.959 236.402 337.496 236.669L344.074 239.985C344.602 240.252 344.568 240.767 343.995 241.141L337.887 245.142C337.314 245.507 336.419 245.603 335.891 245.336Z" fill="#5793CE"/>
<path d="M353.957 254.444L339.597 247.205C339.069 246.938 339.103 246.423 339.675 246.048L345.784 242.048C346.357 241.673 347.243 241.587 347.78 241.854L362.14 249.093C362.668 249.36 362.634 249.875 362.062 250.25L355.953 254.25C355.38 254.616 354.485 254.702 353.957 254.444Z" fill="#5793CE"/>
<path d="M372.49 242.287L360.372 236.18C359.844 235.913 359.878 235.398 360.451 235.024L366.559 231.023C367.132 230.649 368.018 230.563 368.555 230.829L380.673 236.936C381.201 237.203 381.167 237.718 380.595 238.092L374.486 242.093C373.913 242.467 373.018 242.554 372.49 242.287Z" fill="#5793CE"/>
<path d="M271.755 202.26L265.177 198.943C264.649 198.676 264.683 198.161 265.255 197.787L271.364 193.786C271.937 193.412 272.823 193.326 273.36 193.592L279.938 196.909C280.466 197.176 280.432 197.69 279.859 198.065L273.751 202.065C273.178 202.44 272.283 202.527 271.755 202.26Z" fill="#5793CE"/>
<path d="M261.342 197.01L254.764 193.693C254.236 193.426 254.269 192.912 254.842 192.537L260.951 188.537C261.523 188.162 262.41 188.076 262.947 188.342L269.525 191.659C270.053 191.926 270.019 192.441 269.446 192.815L263.338 196.816C262.755 197.182 261.87 197.277 261.342 197.01Z" fill="#5793CE"/>
<path d="M250.919 191.761L244.341 188.444C243.813 188.177 243.847 187.662 244.42 187.288L250.528 183.287C251.101 182.913 251.987 182.827 252.524 183.093L259.102 186.41C259.63 186.677 259.596 187.192 259.024 187.566L252.915 191.567C252.342 191.932 251.447 192.019 250.919 191.761Z" fill="#5793CE"/>
<path d="M240.505 186.502L233.927 183.186C233.399 182.919 233.433 182.404 234.006 182.029L240.114 178.029C240.687 177.654 241.573 177.568 242.11 177.835L248.688 181.151C249.216 181.418 249.182 181.933 248.61 182.307L242.501 186.308C241.928 186.682 241.033 186.769 240.505 186.502Z" fill="#5793CE"/>
<path d="M281.918 207.38L275.34 204.063C274.812 203.796 274.846 203.281 275.418 202.907L281.527 198.906C282.1 198.532 282.986 198.445 283.523 198.712L290.101 202.028C290.629 202.295 290.595 202.81 290.022 203.185L283.914 207.185C283.341 207.56 282.446 207.647 281.918 207.38Z" fill="#5793CE"/>
<path d="M292.081 212.508L285.504 209.192C284.975 208.925 285.009 208.41 285.582 208.036L291.691 204.035C292.263 203.661 293.149 203.574 293.686 203.841L300.264 207.157C300.792 207.424 300.759 207.939 300.186 208.314L294.077 212.314C293.504 212.68 292.609 212.766 292.081 212.508Z" fill="#5793CE"/>
<path d="M302.244 217.628L295.667 214.312C295.139 214.045 295.172 213.53 295.745 213.155L301.854 209.155C302.426 208.781 303.312 208.694 303.849 208.961L310.427 212.277C310.955 212.544 310.922 213.059 310.349 213.434L304.24 217.434C303.668 217.809 302.773 217.895 302.244 217.628Z" fill="#5793CE"/>
<path d="M312.407 222.748L305.829 219.432C305.301 219.165 305.335 218.65 305.908 218.275L312.016 214.275C312.589 213.9 313.475 213.814 314.012 214.081L320.59 217.397C321.118 217.664 321.085 218.179 320.512 218.554L314.403 222.554C313.83 222.928 312.935 223.015 312.407 222.748Z" fill="#5793CE"/>
<path d="M322.571 227.877L315.993 224.561C315.465 224.294 315.499 223.779 316.071 223.404L322.18 219.404C322.753 219.029 323.639 218.943 324.176 219.21L330.754 222.526C331.282 222.793 331.248 223.308 330.675 223.682L324.567 227.683C323.994 228.048 323.099 228.144 322.571 227.877Z" fill="#5793CE"/>
<path d="M332.734 232.997L326.156 229.681C325.628 229.414 325.662 228.899 326.235 228.524L332.343 224.524C332.916 224.149 333.802 224.063 334.339 224.329L340.917 227.646C341.445 227.913 341.411 228.428 340.838 228.802L334.73 232.803C334.157 233.177 333.262 233.264 332.734 232.997Z" fill="#5793CE"/>
<path d="M342.897 238.117L336.319 234.8C335.791 234.533 335.825 234.019 336.398 233.644L342.506 229.644C343.079 229.269 343.965 229.183 344.502 229.449L351.08 232.766C351.608 233.033 351.574 233.548 351.002 233.922L344.893 237.923C344.32 238.297 343.425 238.384 342.897 238.117Z" fill="#5793CE"/>
<path d="M353.06 243.246L346.483 239.929C345.954 239.662 345.988 239.147 346.561 238.773L352.67 234.772C353.242 234.398 354.128 234.312 354.665 234.578L361.243 237.895C361.771 238.162 361.738 238.677 361.165 239.051L355.056 243.052C354.483 243.417 353.589 243.513 353.06 243.246Z" fill="#5793CE"/>
<path d="M363.223 248.366L356.646 245.049C356.118 244.782 356.151 244.267 356.724 243.893L362.833 239.892C363.405 239.518 364.291 239.432 364.828 239.698L371.406 243.015C371.934 243.282 371.901 243.797 371.328 244.171L365.219 248.171C364.647 248.546 363.752 248.633 363.223 248.366Z" fill="#5793CE"/>
<path d="M265.772 188.497L259.194 185.181C258.666 184.914 258.7 184.399 259.273 184.024L265.381 180.024C265.954 179.649 266.84 179.563 267.377 179.829L273.955 183.146C274.483 183.413 274.449 183.928 273.877 184.302L267.768 188.303C267.195 188.677 266.3 188.764 265.772 188.497Z" fill="#5793CE"/>
<path d="M255.664 183.401L249.087 180.084C248.558 179.817 248.592 179.303 249.165 178.928L255.274 174.928C255.846 174.553 256.732 174.467 257.269 174.733L263.847 178.05C264.375 178.317 264.342 178.832 263.769 179.206L257.66 183.207C257.079 183.582 256.193 183.668 255.664 183.401Z" fill="#5793CE"/>
<path d="M245.548 178.305L238.97 174.989C238.442 174.722 238.476 174.207 239.048 173.833L245.157 169.832C245.73 169.458 246.616 169.371 247.153 169.638L253.731 172.954C254.259 173.221 254.225 173.736 253.652 174.111L247.544 178.111C246.971 178.486 246.076 178.572 245.548 178.305Z" fill="#5793CE"/>
<path d="M235.44 173.209L228.862 169.893C228.334 169.626 228.368 169.111 228.941 168.736L235.049 164.736C235.622 164.362 236.508 164.275 237.045 164.542L243.623 167.858C244.151 168.125 244.117 168.64 243.545 169.015L237.436 173.015C236.854 173.381 235.968 173.476 235.44 173.209Z" fill="#5793CE"/>
<path d="M245.175 166.825L238.597 163.509C238.069 163.242 238.103 162.727 238.676 162.352L240.698 161.032C241.271 160.657 242.157 160.571 242.694 160.837L249.272 164.154C249.8 164.421 249.766 164.936 249.193 165.31L247.171 166.631C246.598 166.996 245.703 167.083 245.175 166.825Z" fill="#5793CE"/>
<path d="M258.377 173.474L251.799 170.157C251.271 169.89 251.305 169.375 251.878 169.001L253.899 167.68C254.472 167.306 255.358 167.219 255.895 167.486L262.473 170.802C263.001 171.069 262.968 171.584 262.395 171.959L260.373 173.279C259.791 173.654 258.905 173.741 258.377 173.474Z" fill="#5793CE"/>
<path d="M268.448 178.554L261.87 175.237C261.342 174.97 261.375 174.455 261.948 174.081L263.97 172.76C264.543 172.386 265.429 172.299 265.966 172.566L272.544 175.882C273.072 176.149 273.038 176.664 272.465 177.039L270.443 178.359C269.861 178.725 268.975 178.812 268.448 178.554Z" fill="#5793CE"/>
<path d="M278.518 183.625L271.94 180.308C271.412 180.041 271.446 179.527 272.018 179.152L274.04 177.831C274.613 177.457 275.499 177.371 276.036 177.637L282.614 180.954C283.142 181.221 283.108 181.735 282.536 182.11L280.514 183.431C279.932 183.806 279.046 183.892 278.518 183.625Z" fill="#5793CE"/>
<path d="M288.589 188.705L282.011 185.389C281.483 185.122 281.516 184.607 282.089 184.232L284.111 182.911C284.684 182.537 285.57 182.451 286.107 182.717L292.685 186.034C293.213 186.301 293.179 186.816 292.606 187.19L290.585 188.511C290.003 188.886 289.117 188.972 288.589 188.705Z" fill="#5793CE"/>
<path d="M344.806 217.04L338.228 213.723C337.7 213.456 337.734 212.941 338.306 212.567L340.328 211.246C340.901 210.872 341.787 210.786 342.324 211.052L348.902 214.369C349.43 214.636 349.396 215.15 348.824 215.525L346.802 216.846C346.229 217.22 345.334 217.307 344.806 217.04Z" fill="#5793CE"/>
<path d="M354.876 222.12L348.298 218.803C347.77 218.536 347.804 218.022 348.377 217.647L350.399 216.326C350.971 215.952 351.857 215.866 352.395 216.132L358.972 219.449C359.501 219.716 359.467 220.231 358.894 220.605L356.872 221.926C356.299 222.3 355.404 222.387 354.876 222.12Z" fill="#5793CE"/>
<path d="M364.947 227.2L358.369 223.884C357.841 223.617 357.875 223.102 358.448 222.727L360.47 221.407C361.042 221.032 361.928 220.946 362.465 221.212L369.043 224.529C369.571 224.796 369.538 225.311 368.965 225.685L366.943 227.006C366.37 227.371 365.475 227.467 364.947 227.2Z" fill="#5793CE"/>
<path d="M375.017 232.271L368.44 228.955C367.911 228.688 367.945 228.173 368.518 227.798L370.54 226.478C371.113 226.103 371.999 226.017 372.536 226.283L379.114 229.6C379.642 229.867 379.608 230.382 379.035 230.756L377.013 232.077C376.441 232.452 375.546 232.538 375.017 232.271Z" fill="#5793CE"/>
<path d="M275.936 193.626L269.358 190.309C268.83 190.042 268.863 189.527 269.436 189.153L275.545 185.153C276.117 184.778 277.004 184.692 277.541 184.958L284.118 188.275C284.647 188.542 284.613 189.057 284.04 189.431L277.932 193.432C277.358 193.797 276.463 193.884 275.936 193.626Z" fill="#5793CE"/>
<path d="M286.099 198.746L279.521 195.429C278.993 195.162 279.027 194.647 279.599 194.273L285.708 190.272C286.281 189.898 287.167 189.812 287.704 190.078L294.282 193.395C294.81 193.662 294.776 194.177 294.203 194.551L288.095 198.552C287.522 198.926 286.627 199.013 286.099 198.746Z" fill="#5793CE"/>
<path d="M296.262 203.866L289.684 200.549C289.156 200.282 289.189 199.767 289.762 199.393L295.871 195.392C296.443 195.018 297.329 194.932 297.867 195.198L304.444 198.515C304.973 198.782 304.939 199.296 304.366 199.671L298.257 203.671C297.685 204.046 296.79 204.133 296.262 203.866Z" fill="#5793CE"/>
<path d="M306.425 208.995L299.847 205.678C299.319 205.411 299.353 204.896 299.926 204.522L306.034 200.521C306.607 200.147 307.493 200.06 308.03 200.327L314.608 203.643C315.136 203.91 315.102 204.425 314.53 204.8L308.421 208.8C307.848 209.166 306.953 209.262 306.425 208.995Z" fill="#5793CE"/>
<path d="M316.588 214.114L310.01 210.798C309.482 210.531 309.516 210.016 310.089 209.642L316.197 205.641C316.77 205.267 317.656 205.18 318.193 205.447L324.771 208.763C325.299 209.03 325.265 209.545 324.693 209.92L318.584 213.92C318.011 214.295 317.116 214.382 316.588 214.114Z" fill="#5793CE"/>
<path d="M326.751 219.234L320.173 215.918C319.645 215.651 319.679 215.136 320.252 214.762L326.36 210.761C326.933 210.387 327.819 210.3 328.356 210.567L334.934 213.883C335.462 214.15 335.428 214.665 334.856 215.04L328.747 219.04C328.174 219.415 327.279 219.501 326.751 219.234Z" fill="#5793CE"/>
<path d="M336.915 224.363L330.337 221.047C329.809 220.78 329.842 220.265 330.415 219.89L336.524 215.89C337.096 215.515 337.983 215.429 338.52 215.696L345.097 219.012C345.626 219.279 345.592 219.794 345.019 220.169L338.911 224.169C338.338 224.543 337.443 224.63 336.915 224.363Z" fill="#5793CE"/>
<path d="M347.078 229.483L340.5 226.167C339.972 225.9 340.006 225.385 340.578 225.01L346.687 221.01C347.26 220.635 348.146 220.549 348.683 220.816L355.261 224.132C355.789 224.399 355.755 224.914 355.182 225.288L349.074 229.289C348.501 229.663 347.606 229.75 347.078 229.483Z" fill="#5793CE"/>
<path d="M357.241 234.603L350.663 231.287C350.135 231.02 350.169 230.505 350.741 230.13L356.85 226.13C357.423 225.755 358.309 225.669 358.846 225.935L365.424 229.252C365.952 229.519 365.918 230.034 365.345 230.408L359.237 234.409C358.664 234.783 357.778 234.87 357.241 234.603Z" fill="#5793CE"/>
<path d="M219.721 197.518L200.339 187.747C199.811 187.48 199.845 186.965 200.418 186.59L206.526 182.59C207.099 182.215 207.985 182.129 208.522 182.396L227.904 192.167C228.432 192.434 228.398 192.949 227.825 193.323L221.717 197.324C221.135 197.699 220.249 197.785 219.721 197.518Z" fill="#5793CE"/>
<path d="M344.579 260.457L325.197 250.686C324.669 250.419 324.703 249.904 325.276 249.529L331.384 245.529C331.957 245.154 332.843 245.068 333.38 245.335L352.762 255.106C353.29 255.373 353.256 255.888 352.683 256.263L346.575 260.263C345.993 260.638 345.107 260.724 344.579 260.457Z" fill="#5793CE"/>
<path d="M304.647 252.518L298.07 249.202C297.542 248.935 297.575 248.42 298.148 248.045L305.419 243.277C305.992 242.902 306.878 242.816 307.415 243.082L313.993 246.399C314.521 246.666 314.487 247.181 313.914 247.555L306.643 252.324C306.062 252.699 305.176 252.785 304.647 252.518Z" fill="#5793CE"/>
<path d="M230.837 215.309L220.312 210.003C219.784 209.736 219.818 209.221 220.391 208.847L227.662 204.078C228.234 203.704 229.12 203.617 229.657 203.884L240.182 209.19C240.71 209.457 240.676 209.972 240.104 210.347L232.833 215.115C232.26 215.489 231.365 215.576 230.837 215.309Z" fill="#5793CE"/>
<path d="M294.855 247.584L284.33 242.278C283.802 242.011 283.836 241.496 284.409 241.121L291.68 236.353C292.252 235.978 293.138 235.892 293.676 236.159L304.2 241.465C304.728 241.732 304.694 242.247 304.122 242.621L296.851 247.39C296.269 247.756 295.383 247.851 294.855 247.584Z" fill="#5793CE"/>
<path d="M245.503 222.702L234.978 217.396C234.45 217.129 234.484 216.614 235.056 216.24L242.327 211.471C242.9 211.097 243.786 211.011 244.323 211.277L254.848 216.583C255.376 216.85 255.342 217.365 254.769 217.74L247.499 222.508C246.917 222.883 246.031 222.969 245.503 222.702Z" fill="#5793CE"/>
<path d="M244.388 211.309L290.146 234.379C290.711 234.662 290.74 235.182 290.211 235.527L282.801 240.385C282.272 240.73 281.375 240.781 280.809 240.498L235.052 217.428L244.388 211.309Z" fill="#5793CE"/>
<path d="M332.727 261.256L340.055 264.953C340.49 265.171 340.461 265.596 339.992 265.901L337.016 267.852C336.547 268.158 335.814 268.235 335.387 268.016L328.059 264.32C327.624 264.101 327.653 263.677 328.122 263.371L331.098 261.42C331.567 261.115 332.3 261.037 332.727 261.256Z" fill="#5793CE"/>
<path d="M322.481 256.096L329.809 259.793C330.244 260.011 330.214 260.435 329.746 260.741L326.77 262.692C326.301 262.997 325.567 263.075 325.141 262.856L317.813 259.159C317.377 258.941 317.407 258.516 317.876 258.211L320.852 256.26C321.32 255.946 322.054 255.877 322.481 256.096Z" fill="#5793CE"/>
<path d="M312.317 250.967L319.645 254.664C320.081 254.882 320.051 255.307 319.582 255.612L316.606 257.563C316.138 257.869 315.404 257.946 314.978 257.727L307.649 254.031C307.214 253.812 307.244 253.388 307.712 253.082L310.688 251.131C311.157 250.826 311.891 250.748 312.317 250.967Z" fill="#5793CE"/>
<path d="M327.739 252.647L335.067 256.344C335.502 256.563 335.472 256.987 335.004 257.293L332.028 259.244C331.559 259.549 330.826 259.627 330.399 259.408L323.071 255.711C322.635 255.493 322.665 255.068 323.134 254.763L326.11 252.812C326.578 252.497 327.303 252.429 327.739 252.647Z" fill="#5793CE"/>
<path d="M360.325 139.573L305.572 111.983L306.059 108.5L360.811 136.09L360.325 139.573Z" fill="#D4ECFF"/>
<path d="M341.665 146.473L303.448 127.205L303.935 123.722L342.151 142.981L341.665 146.473Z" fill="#D4ECFF"/>
<path d="M337.575 136.257L304.51 119.594L304.997 116.111L338.062 132.773L337.575 136.257Z" fill="white"/>
<path d="M359.254 147.185L342.726 138.853L343.213 135.37L359.74 143.701L359.254 147.185Z" fill="#F16A51"/>
<path d="M298.223 82.2342L281.695 73.9028L282.182 70.4194L298.71 78.7508L298.223 82.2342Z" fill="#D4ECFF"/>
<path d="M296.947 90.3432L280.41 82.0123L280.896 78.5289L297.433 86.8598L296.947 90.3432Z" fill="white"/>
<path d="M381.806 196.968L365.279 188.636L365.764 185.144L382.293 193.485L381.806 196.968Z" fill="#D4ECFF"/>
<path d="M294.375 106.553L277.847 98.2218L278.333 94.7384L294.861 103.07L294.375 106.553Z" fill="#D4ECFF"/>
<path d="M329.097 107.076C328.649 108.217 327.389 108.684 326.268 108.127C325.157 107.569 324.61 106.187 325.058 105.046C325.507 103.905 326.767 103.437 327.888 103.994C329.008 104.552 329.546 105.934 329.097 107.076Z" fill="#F16A51"/>
<path d="M336.222 110.667C335.774 111.808 334.513 112.276 333.393 111.719C332.281 111.161 331.735 109.779 332.183 108.637C332.631 107.496 333.891 107.028 335.012 107.586C336.124 108.144 336.67 109.526 336.222 110.667Z" fill="white"/>
<path d="M343.337 114.25C342.889 115.391 341.628 115.859 340.508 115.302C339.396 114.744 338.85 113.362 339.298 112.22C339.746 111.079 341.006 110.611 342.127 111.169C343.248 111.735 343.785 113.109 343.337 114.25Z" fill="#D4ECFF"/>
<path d="M350.461 117.841C350.013 118.983 348.753 119.45 347.632 118.893C346.52 118.335 345.974 116.953 346.422 115.812C346.87 114.67 348.131 114.203 349.251 114.76C350.363 115.318 350.909 116.7 350.461 117.841Z" fill="#F16A51"/>
<path d="M169.134 276.801C169.134 276.801 165.674 275.296 163.754 277.934C161.834 280.581 159.221 286.705 159.351 290.738C159.49 294.771 162.749 294.316 164.65 293.254C166.543 292.193 171.77 283.608 172.028 281.964C172.277 280.33 171.409 278.183 170.837 277.784C170.257 277.394 169.134 276.801 169.134 276.801Z" fill="#C361F0"/>
<path d="M169.824 275.952L170.174 279.424C170.252 280.166 169.915 280.887 169.29 281.292C168.726 281.657 167.88 281.966 166.721 281.842C164.168 281.582 163.893 280.869 163.517 277.398C163.139 273.919 169.824 275.952 169.824 275.952Z" fill="#D4ECFF"/>
<path d="M156.437 270.799C156.437 270.799 152.977 269.294 151.057 271.932C149.137 274.579 146.524 280.703 146.654 284.736C146.793 288.769 150.052 288.314 151.953 287.252C153.846 286.191 159.073 277.606 159.331 275.962C159.589 274.319 158.712 272.181 158.14 271.782C157.56 271.392 156.437 270.799 156.437 270.799Z" fill="#C361F0"/>
<path d="M157.127 269.95L157.477 273.421C157.555 274.164 157.218 274.885 156.593 275.29C156.029 275.655 155.182 275.964 154.024 275.84C151.471 275.58 151.196 274.867 150.82 271.396C150.442 267.917 157.127 269.95 157.127 269.95Z" fill="#D4ECFF"/>
<path d="M183.512 204.268C181.597 188.123 166.101 207.65 166.101 207.65L155.41 219.389L145.846 231.172C143.979 233.474 143.222 236.478 143.774 239.389L149.684 270.57C149.978 272.11 151.37 273.174 152.931 273.077C153.37 273.052 153.879 272.978 154.448 272.855C158.094 272.073 157.626 268.589 157.626 268.589L155.205 239.253L175.885 225.129C175.885 225.12 185.426 220.403 183.512 204.268Z" fill="#173D7A"/>
<path d="M196.17 209.741C194.255 193.597 178.759 213.123 178.759 213.123L168.068 224.862L158.504 236.645C156.637 238.947 155.88 241.951 156.432 244.862L162.342 276.043C162.636 277.583 164.028 278.647 165.589 278.55C166.028 278.525 166.537 278.451 167.106 278.329C170.751 277.546 170.284 274.063 170.284 274.063L167.929 245.569L188.543 230.603C188.552 230.593 198.084 225.876 196.17 209.741Z" fill="#173D7A"/>
<path d="M183.431 158.294C196.268 162.785 196.437 170.209 196.437 170.209C196.437 170.209 195.522 197.538 197.395 215.638C198.176 223.207 157.536 226.099 162.451 205.499C168.246 181.223 164.466 162.043 167.656 158.937C170.837 155.85 180.108 157.133 183.431 158.294Z" fill="#C361F0"/>
<path d="M187.841 164.64C187.331 167.225 184.07 168.76 180.557 168.06C177.044 167.368 174.616 164.707 175.126 162.122C175.637 159.537 178.897 158.002 182.411 158.703C185.924 159.403 188.352 162.055 187.841 164.64Z" fill="#FFC2B0"/>
<path d="M182.751 168.817C181.997 168.86 181.22 168.805 180.447 168.651C178.626 168.286 177.011 167.424 175.898 166.209C174.737 164.943 174.257 163.449 174.544 162.011C174.831 160.573 175.843 159.373 177.395 158.646C178.885 157.949 180.71 157.755 182.531 158.12C184.351 158.485 185.966 159.347 187.079 160.562C188.24 161.828 188.721 163.321 188.433 164.76C188.146 166.198 187.134 167.398 185.582 168.125C184.723 168.525 183.765 168.759 182.751 168.817ZM180.285 159.147C179.424 159.196 178.616 159.395 177.897 159.724C176.696 160.287 175.928 161.177 175.718 162.241C175.508 163.297 175.887 164.419 176.779 165.394C177.719 166.421 179.102 167.161 180.676 167.468C182.251 167.783 183.808 167.623 185.07 167.029C186.271 166.466 187.04 165.577 187.249 164.512C187.459 163.456 187.081 162.335 186.188 161.359C185.248 160.333 183.865 159.592 182.291 159.286C181.618 159.162 180.94 159.11 180.285 159.147Z" fill="white"/>
<path d="M178.367 158.014C178.367 158.014 178.503 158.511 178.513 162.497C178.512 163.748 182.956 164.666 184.022 163.471C185.088 162.277 184.573 161.127 184.601 156.86C184.629 152.592 178.367 158.014 178.367 158.014Z" fill="#FFC2B0"/>
<path d="M184.61 156.868C184.61 156.868 183.758 160.876 178.533 162.685L178.41 159.092L184.61 156.868Z" fill="#EA9C92"/>
<path d="M187.406 146.657C189.036 151.748 186.231 157.19 181.14 158.82C176.048 160.45 170.607 157.645 168.977 152.554C167.347 147.462 170.152 142.021 175.243 140.391C180.334 138.761 185.776 141.566 187.406 146.657Z" fill="#FFC2B0"/>
<path d="M180.432 149.834C180.432 149.834 175.241 152.414 171.565 152.65C167.888 152.885 168.521 149.754 168.521 149.754L179.357 147.555L180.432 149.834Z" fill="#EA9C92"/>
<path d="M170.364 150.999C170.364 150.999 174.882 148.772 178.992 149.357C179.953 149.492 180.87 149.953 181.533 150.68C181.744 150.92 182.017 151.13 182.308 151.176C183.034 151.297 184.049 148.242 185.444 148.091C186.84 147.94 187.829 148.883 186.785 150.787C185.741 152.691 186.244 154.724 186.79 154.99C187.336 155.255 193.616 150.318 188.118 140.812C182.619 131.297 169.443 137.615 167.6 139.709C167.6 139.709 165.647 141.619 163.879 140.118C163.888 140.117 162.81 154.272 170.364 150.999Z" fill="#D4ECFF"/>
<path d="M190.532 190.478L190.949 197.825C190.997 198.668 190.683 199.487 190.097 200.096L175.789 214.713L177.651 217.236L197.671 202.42C198.566 201.695 199.108 200.62 199.16 199.474L199.803 185.758L190.532 190.478Z" fill="#FFC2B0"/>
<path d="M195.17 166.6C195.17 166.6 200.136 173.23 202.869 191.254C202.869 191.254 195.19 194.228 190.668 193.044C186.156 191.86 195.17 166.6 195.17 166.6Z" fill="#C361F0"/>
<path d="M188.856 175.697C188.856 175.697 187.606 185.388 187.763 189.906C187.807 191.146 188.624 192.224 189.814 192.58L188.856 175.697Z" fill="#B250DE"/>
<path d="M187.643 223.616L184.281 223.366L162.046 212.155C161.333 211.799 160.133 211.912 159.361 212.415L144.602 222.09L142.568 221.936L142.682 223.945C142.688 224.206 142.846 224.458 143.189 224.627L168.388 237.326C169.101 237.682 170.301 237.569 171.073 237.066L187.142 226.533C187.576 226.248 187.782 225.903 187.746 225.59L187.634 223.617L187.643 223.616Z" fill="#5793CE"/>
<path d="M171.023 216.676L169.439 215.884L152.628 216.838L144.61 222.09L142.577 221.935L142.691 223.944C142.697 224.205 142.855 224.457 143.198 224.627L168.397 237.326C168.776 237.511 169.284 237.572 169.802 237.507L171.023 216.676Z" fill="#396CAA"/>
<path d="M143.48 222.001L142.577 221.935L142.691 223.944C142.697 224.205 142.855 224.457 143.198 224.627L143.642 224.853L143.48 222.001Z" fill="#5793CE"/>
<path d="M168.646 237.429C169.315 237.643 170.245 237.536 170.925 237.155L170.731 233.737L168.444 233.867L168.646 237.429Z" fill="#5793CE"/>
<path d="M168.283 235.325L143.084 222.626C142.371 222.271 142.421 221.566 143.193 221.063L159.263 210.531C160.035 210.028 161.234 209.906 161.948 210.27L187.147 222.969C187.86 223.325 187.81 224.03 187.038 224.533L170.968 235.056C170.196 235.568 168.997 235.681 168.283 235.325Z" fill="white"/>
<path d="M167.75 233.214L146.793 222.65C146.2 222.35 146.239 221.772 146.881 221.349L155.496 215.838C156.138 215.415 157.141 215.322 157.734 215.621L178.69 226.185C179.283 226.485 179.244 227.063 178.602 227.486L169.978 232.997C169.336 233.412 168.343 233.513 167.75 233.214Z" fill="#D4ECFF"/>
<path d="M160.178 210.002L160.022 211.703C159.888 213.15 160.007 214.61 160.375 216.011L160.755 217.475C160.973 218.299 161.674 218.916 162.516 219.022C163.178 219.101 163.771 218.608 163.805 217.94L164.005 214.32C164.005 214.32 164.997 215.479 165.437 215.454C165.885 215.429 164.739 211.876 163.61 209.897C162.498 207.908 160.178 210.002 160.178 210.002Z" fill="#FFC2B0"/>
<path d="M166.93 182.782L164.605 188.116C164.056 189.38 163.764 190.737 163.761 192.105L163.627 209.896L160.178 210.011L157.479 190.194C157.399 189.578 157.391 188.966 157.464 188.35L158.676 178.157L166.93 182.782Z" fill="#FFC2B0"/>
<path d="M167.535 236.727L165.338 234.17L143.119 222.93C142.406 222.566 141.789 221.53 141.737 220.615L140.755 202.996L139.425 201.451L140.553 200.712C140.769 200.556 141.065 200.539 141.399 200.709L166.583 213.445C167.296 213.81 167.913 214.845 167.965 215.76L169.035 234.941C169.065 235.461 168.906 235.83 168.636 235.989L167.535 236.727Z" fill="#173D7A"/>
<path d="M152.079 227.47L150.504 226.669L141.289 212.568L140.755 202.996L139.425 201.451L140.553 200.712C140.769 200.556 141.065 200.539 141.399 200.709L166.583 213.445C166.963 213.64 167.308 214.016 167.559 214.47L152.079 227.47Z" fill="#396CAA"/>
<path d="M140.004 202.138L139.416 201.452L140.544 200.713C140.76 200.556 141.056 200.54 141.39 200.71L141.835 200.936L140.004 202.138Z" fill="#5793CE"/>
<path d="M166.807 213.594C167.37 214.003 167.84 214.823 167.946 215.591L165.638 217.098L164.386 215.181L166.807 213.594Z" fill="#274F89"/>
<path d="M165.454 214.184L140.271 201.448C139.557 201.084 139.026 201.546 139.078 202.461L140.148 221.641C140.201 222.565 140.817 223.601 141.53 223.956L166.714 236.692C167.427 237.057 167.959 236.595 167.907 235.68L166.837 216.499C166.785 215.584 166.168 214.549 165.454 214.184Z" fill="#5793CE"/>
<path d="M177.651 217.227L177.302 218.056C176.906 219.015 176.242 219.835 175.394 220.433L173.056 222.059C172.329 222.568 171.38 222.658 170.583 222.253C170.555 222.237 170.527 222.221 170.5 222.204C169.701 221.764 169.566 220.664 170.166 219.973L172.548 217.228C172.548 217.228 171.183 218.395 170.764 217.986C170.45 217.68 172.038 216.015 173.318 215.898C174.598 215.771 175.779 214.696 175.779 214.696L177.651 217.227Z" fill="#FFC2B0"/>
<path d="M167.906 158.896C167.906 158.896 159.203 169.514 155.979 178.994C155.979 178.994 159.479 184.528 167.366 186.33C175.262 188.132 167.906 158.896 167.906 158.896Z" fill="#C361F0"/>
<path d="M165.592 185.837L166.275 171.228L163.504 185.037C164.15 185.325 164.849 185.591 165.592 185.837Z" fill="#B250DE"/>
<path d="M174.733 156.466L172.201 155.925C172.201 155.925 173.5 157.733 175.258 158.11C177.026 158.486 177.211 157 177.211 157L174.733 156.466Z" fill="white"/>
<path d="M187.828 151.718C187.871 152.48 187.288 153.143 186.517 153.187C185.754 153.23 185.091 152.647 185.047 151.876C185.004 151.113 185.587 150.45 186.359 150.406C187.131 150.371 187.785 150.955 187.828 151.718Z" fill="white"/>
<path d="M244.949 268.775L202.008 247.13C200.758 246.499 200.841 245.27 202.195 244.383L226.463 228.472C227.817 227.585 229.92 227.376 231.17 228.007L274.111 249.652C275.362 250.283 275.279 251.512 273.925 252.399L249.657 268.31C248.312 269.196 246.2 269.397 244.949 268.775Z" fill="white"/>
<path opacity="0.5" d="M291.611 286.529L229.678 255.315C228.289 254.611 228.178 252.664 229.48 251.816L284.629 215.667L350.518 248.88C351.908 249.584 352.019 251.53 350.717 252.378L299.273 286.103C296.982 287.592 294.057 287.758 291.611 286.529Z" fill="#173D7A"/>
<path d="M284.487 191.584C284.271 187.78 281.501 186.38 278.316 188.46L224.066 223.955C223.189 224.527 222.526 225.842 222.586 226.892C222.645 227.941 223.405 228.321 224.281 227.75L278.532 192.255C279.972 191.309 281.223 191.94 281.32 193.662L281.667 199.933C282.749 199.8 283.843 199.738 284.947 199.693L284.487 191.584Z" fill="#F16A51"/>
<path d="M224.893 239.027L279.818 215.409C283.011 213.32 285.429 208.521 285.222 204.717L284.946 199.693C283.842 199.738 282.748 199.8 281.666 199.933L282.047 206.796C282.144 208.51 281.052 210.678 279.612 211.623L224.687 235.241C223.811 235.813 223.147 237.128 223.207 238.178C223.257 239.219 224.017 239.608 224.893 239.027Z" fill="#C84128"/>
<path d="M223.678 239.177L294.148 274.776L349.955 237.05L354.151 229.955L353.813 232.404L352.215 226.132L245.231 236.307L226.269 236.159L223.678 239.177Z" fill="#C54E38"/>
<path d="M225.271 227.135L225.73 235.533L293.829 269.934L295.16 261.831L225.271 227.135Z" fill="#FAD0C8"/>
<path d="M352.923 223.383L282.573 187.841L223.187 227.038L223.111 227.924L293.563 263.515L352.923 223.383Z" fill="#F16A51"/>
<path d="M332.354 244.853L347.827 234.444C349.119 233.417 350.069 231.446 349.987 229.84L349.924 228.584C349.867 227.57 349.407 226.93 348.742 226.779L318.215 246.105L293.329 261.449L293.838 269.943L332.354 244.853Z" fill="white"/>
<path d="M295.669 262.09L225.764 226.775L224.281 226.022L222.928 225.334C222.687 225.842 222.547 226.39 222.575 226.883C222.604 227.395 222.804 227.752 223.101 227.907L223.111 227.915L223.12 227.915L293.563 263.505L295.669 262.09Z" fill="#E26750"/>
<path d="M293.269 274.34L294.148 274.776L294.285 274.498L293.733 274.115L293.269 274.34Z" fill="white"/>
<path d="M292.646 263.054L293.554 263.506L293.302 263.043L292.646 263.054Z" fill="white"/>
<path d="M294.517 259.555L348.768 224.06C351.961 221.97 354.731 223.37 354.938 227.174L355.001 228.431C355.216 232.234 352.789 237.034 349.596 239.123L295.345 274.618C294.469 275.189 293.709 274.81 293.65 273.76C293.59 272.71 294.253 271.395 295.13 270.823L349.38 235.328C350.821 234.382 351.913 232.224 351.815 230.501L351.753 229.245C351.656 227.531 350.405 226.9 348.964 227.837L294.714 263.332C293.837 263.904 293.078 263.524 293.018 262.474C292.978 261.442 293.641 260.126 294.517 259.555Z" fill="#F16A51"/>
<path d="M293.659 273.768C293.599 272.719 294.263 271.403 295.139 270.832L349.39 235.337C350.83 234.391 351.922 232.232 351.825 230.51L351.762 229.253C351.699 228.132 351.139 227.471 350.362 227.416C350.632 227.734 350.802 228.192 350.836 228.784L350.898 230.04C350.995 231.754 349.903 233.922 348.463 234.867L294.213 270.362C293.336 270.934 292.673 272.25 292.732 273.299C292.777 274.089 293.224 274.504 293.821 274.407C293.721 274.233 293.673 274.02 293.659 273.768Z" fill="white"/>
<path d="M293.038 262.491C292.979 261.442 293.642 260.126 294.518 259.555L348.769 224.06C350.14 223.163 351.439 222.909 352.483 223.219C351.335 222.348 349.655 222.398 347.842 223.59L293.592 259.085C292.715 259.657 292.052 260.972 292.111 262.022C292.156 262.811 292.603 263.227 293.2 263.13C293.109 262.955 293.052 262.743 293.038 262.491Z" fill="white"/>
<path d="M265.118 229.149L295.055 209.559L322.776 223.564L292.839 243.145L265.118 229.149Z" fill="white"/>
</g>
<g clip-path="url(#clip1)">
<path opacity="0.5" d="M26.4829 298.662L1.94473 284.493C0.435244 283.621 0.62393 282.103 2.36703 281.105L26.0606 267.43C27.8037 266.424 30.4273 266.316 31.9368 267.187L56.4749 281.357C57.9844 282.228 57.7957 283.747 56.0526 284.753L32.3591 298.419C30.616 299.426 27.9834 299.534 26.4829 298.662Z" fill="#173D7A"/>
<path d="M57.4811 267.763V259.299L38.4958 259.29L31.9367 255.498C30.4272 254.626 27.8036 254.734 26.0605 255.741L19.9417 259.272H0.938335V267.978C0.89341 268.562 1.22586 269.137 1.94466 269.551L26.4828 283.72C27.9923 284.591 30.6159 284.484 32.359 283.477L56.0525 269.802C57.0499 269.209 57.5351 268.463 57.4811 267.763Z" fill="#396CAA"/>
<path d="M29.2052 254.914C28.1001 254.941 26.959 255.219 26.0605 255.741L19.9417 259.272H0.938335V267.978C0.89341 268.562 1.22586 269.137 1.94466 269.551L26.4828 283.72C27.2106 284.142 28.1899 284.331 29.2052 284.304V254.914Z" fill="#396CAA"/>
<path d="M3.08576 259.272H0.938335V267.978C0.89341 268.562 1.22586 269.137 1.94466 269.551L3.08576 270.206V259.272Z" fill="#5793CE"/>
<path d="M26.8601 283.9C28.1629 284.457 30.0408 284.421 31.5593 283.846V273.962H26.8601V283.9Z" fill="#5793CE"/>
<path d="M26.4824 275.04L1.94424 260.87C0.434756 259.999 0.623442 258.48 2.36654 257.483L26.0601 243.799C27.8032 242.793 30.4268 242.685 31.9363 243.556L56.4744 257.726C57.9839 258.597 57.7952 260.116 56.0521 261.113L32.3586 274.797C30.6155 275.795 27.9829 275.911 26.4824 275.04Z" fill="#D4ECFF"/>
<path d="M56.0436 259.451L32.359 273.127C30.6159 274.133 27.9923 274.241 26.4828 273.369L1.9447 259.209C1.61225 259.011 1.36067 258.786 1.18995 258.544C0.66882 259.379 0.911416 260.278 1.9447 260.88L26.4828 275.049C27.9923 275.921 30.6159 275.813 32.359 274.807L56.0526 261.132C57.4003 260.35 57.8136 259.263 57.2296 258.409C56.987 258.769 56.5917 259.137 56.0436 259.451Z" fill="white"/>
<path d="M48.4513 270C48.4513 270.629 48.0111 271.401 47.463 271.716C46.9149 272.03 46.4746 271.779 46.4746 271.141C46.4746 270.512 46.9149 269.739 47.463 269.425C48.0111 269.11 48.4513 269.371 48.4513 270Z" fill="#D4ECFF"/>
<path d="M51.641 268.158C51.641 268.787 51.2007 269.56 50.6527 269.874C50.1046 270.188 49.6643 269.937 49.6643 269.299C49.6643 268.67 50.1046 267.897 50.6527 267.583C51.2007 267.268 51.641 267.529 51.641 268.158Z" fill="#D4ECFF"/>
<path d="M54.8307 266.316C54.8307 266.945 54.3904 267.718 53.8424 268.032C53.2943 268.347 52.854 268.095 52.854 267.457C52.854 266.828 53.2943 266.055 53.8424 265.741C54.3904 265.426 54.8307 265.687 54.8307 266.316Z" fill="#D4ECFF"/>
<path d="M27.9294 266.253L16.4466 259.622C15.7457 259.218 15.8266 258.508 16.6442 258.032L27.7318 251.634C28.5494 251.167 29.7804 251.113 30.4812 251.518L41.9641 258.149C42.6649 258.553 42.584 259.263 41.7664 259.739L30.6789 266.136C29.8702 266.612 28.6393 266.666 27.9294 266.253Z" fill="#5793CE"/>
<path d="M29.0347 260.709L27.4443 259.793C27.3455 259.739 27.3635 259.64 27.4713 259.577L29.0077 258.688C29.1245 258.625 29.2863 258.616 29.3851 258.67L30.9754 259.586C31.0743 259.64 31.0563 259.739 30.9485 259.802L29.412 260.691C29.2952 260.754 29.1245 260.763 29.0347 260.709Z" fill="#D4ECFF"/>
<path d="M16.447 259.632L16.4829 259.65C16.5368 259.614 16.5817 259.569 16.6446 259.533L27.7322 253.136C28.5498 252.668 29.7807 252.614 30.4816 253.019L41.9285 259.632C42.5754 259.165 42.6114 258.536 41.9644 258.158L30.4816 251.527C29.7807 251.123 28.5498 251.168 27.7322 251.644L16.6446 258.041C15.836 258.509 15.7461 259.218 16.447 259.632Z" fill="#396CAA"/>
</g>
<g clip-path="url(#clip2)">
<path opacity="0.5" d="M292.545 407.855C302.602 406.741 310.233 401.133 309.59 395.328C308.947 389.523 300.273 385.72 290.217 386.834C280.16 387.948 272.529 393.557 273.172 399.362C273.815 405.167 282.489 408.969 292.545 407.855Z" fill="#173D7A"/>
<path d="M311.104 386.059L310.457 380.246L309.361 380.371C308.184 378.781 306.369 377.37 303.88 376.274C295.273 372.501 282.164 373.956 274.589 379.518C272.397 381.126 270.932 382.905 270.133 384.72L269.036 384.846L269.674 390.632C269.998 393.705 272.361 396.553 276.683 398.449C285.29 402.223 298.399 400.767 305.974 395.206C309.757 392.402 311.446 389.123 311.104 386.059Z" fill="#833DB8"/>
<path d="M291.071 394.495C302.508 393.228 311.187 386.847 310.455 380.243C309.724 373.639 299.859 369.312 288.421 370.579C276.984 371.846 268.305 378.227 269.037 384.831C269.768 391.435 279.633 395.762 291.071 394.495Z" fill="#B461F2"/>
<path d="M305.327 389.374C297.753 394.945 284.644 396.392 276.036 392.618C271.912 390.812 269.594 388.126 269.108 385.214C269.288 388.422 271.642 391.414 276.126 393.382C284.733 397.155 297.843 395.7 305.417 390.138C309.361 387.236 310.997 383.804 310.475 380.632C310.637 383.579 308.957 386.706 305.327 389.374Z" fill="white"/>
<path d="M280.205 387.604C279.836 387.443 279.603 387.191 279.576 386.904L278.731 379.113C278.668 378.52 279.45 377.945 280.483 377.829C281.517 377.712 282.397 378.107 282.46 378.7L283.161 385.16L301.652 380.785C302.649 380.551 303.674 380.812 303.952 381.369C304.231 381.926 303.647 382.573 302.658 382.806L281.939 387.703C281.4 387.829 280.816 387.82 280.349 387.658C280.304 387.649 280.25 387.622 280.205 387.604Z" fill="white"/>
</g>
<g clip-path="url(#clip3)">
<path opacity="0.5" d="M478.493 135.736L464.719 127.785L478.493 119.833L492.267 127.785L478.493 135.736Z" fill="#173D7A"/>
<path d="M492.267 117.685L478.493 125.637V109.734L492.267 101.782V117.685Z" fill="#173D7A"/>
<path d="M478.493 109.734L464.719 101.782L478.493 93.8302L492.267 101.782L478.493 109.734Z" fill="#D4ECFF"/>
<path d="M478.493 125.637L464.719 117.685V101.782L478.493 109.734V125.637Z" fill="#5793CE"/>
<path d="M473.533 117.047L469.678 114.819V110.372L473.533 112.6V117.047Z" fill="white"/>
</g>
<g clip-path="url(#clip4)">
<path d="M232.596 52.8228L196.349 36.0973C195.633 35.7658 194.942 35.8109 194.376 36.1333L194.384 36.1146L190.453 38.4227C190.453 38.4227 192.041 38.8189 192.974 39.0584L190.3 64.5839C190.084 66.6608 191.214 68.9485 192.824 69.6855L227.47 85.6731L227.158 88.6701L231.123 86.3497L231.104 86.3424C231.779 85.9288 232.264 85.1175 232.379 83.9973L235.112 57.9341C235.336 55.8475 234.207 53.5687 232.596 52.8228Z" fill="#8D46C1"/>
<path d="M225.071 88.7435L188.824 72.0181C187.213 71.2721 186.084 68.9934 186.3 66.9165L189.033 40.8533C189.25 38.7764 190.73 37.6937 192.341 38.4397L228.588 55.1651C230.199 55.9111 231.328 58.1898 231.112 60.2667L228.378 86.3299C228.171 88.406 226.682 89.4895 225.071 88.7435Z" fill="#B461F2"/>
<path d="M229.356 54.7791L193.099 38.0545C192.252 37.6629 191.451 37.7902 190.837 38.2794C191.295 38.1563 191.813 38.1902 192.34 38.4307L228.587 55.1562C230.198 55.9021 231.328 58.1898 231.111 60.2578L228.378 86.321C228.269 87.3053 227.878 88.0629 227.324 88.5106C228.266 88.262 228.985 87.3391 229.128 85.9456L231.871 59.8905C232.096 57.8128 230.967 55.5251 229.356 54.7791Z" fill="white"/>
<path d="M202.674 61.8558C202.514 63.3682 201.289 64.0846 199.942 63.4589C198.595 62.8332 197.625 61.1084 197.784 59.596C197.944 58.0837 199.169 57.3673 200.516 57.993C201.863 58.6187 202.833 60.3435 202.674 61.8558Z" fill="white"/>
<path d="M210.078 65.2752C209.918 66.7875 208.694 67.504 207.346 66.8783C205.999 66.2526 205.029 64.5277 205.189 63.0154C205.348 61.5031 206.573 60.7866 207.92 61.4123C209.277 62.0372 210.237 63.7629 210.078 65.2752Z" fill="white"/>
<path d="M217.491 68.6937C217.332 70.2061 216.107 70.9225 214.759 70.2968C213.412 69.6711 212.442 67.9463 212.602 66.4339C212.761 64.9216 213.986 64.2052 215.333 64.8309C216.681 65.4565 217.651 67.1814 217.491 68.6937Z" fill="white"/>
<path d="M214.201 22.0504L177.945 5.3258C177.229 4.99427 176.547 5.03854 175.981 5.36095L175.989 5.34224L172.057 7.64144C172.057 7.64144 173.645 8.03762 174.579 8.27712L171.905 33.8026C171.688 35.8795 172.818 38.1672 174.428 38.9042L209.074 54.8918L208.762 57.8888L212.727 55.5684L212.708 55.5611C213.383 55.1475 213.869 54.3362 213.983 53.216L216.716 27.1528C216.942 25.0841 215.812 22.7964 214.201 22.0504Z" fill="#5793CE"/>
<path d="M206.676 57.9712L170.429 41.2458C168.818 40.4998 167.689 38.221 167.905 36.1441L170.638 10.0809C170.855 8.00403 172.335 6.92138 173.946 7.66733L210.193 24.3928C211.804 25.1387 212.933 27.4175 212.717 29.4944L209.983 55.5576C209.767 57.6345 208.287 58.7171 206.676 57.9712Z" fill="#D4ECFF"/>
<path d="M210.953 24.0165L174.705 7.29113C173.857 6.89947 173.057 7.02677 172.443 7.51597C172.901 7.39291 173.418 7.42681 173.945 7.66734L210.193 24.3928C211.804 25.1387 212.933 27.4264 212.716 29.4944L209.983 55.5576C209.884 56.5411 209.484 57.2995 208.929 57.7471C209.872 57.4986 210.591 56.5757 210.734 55.1822L213.467 29.119C213.692 27.0413 212.563 24.7536 210.953 24.0165Z" fill="white"/>
<path d="M184.27 31.0843C184.11 32.5966 182.885 33.3131 181.538 32.6874C180.191 32.0617 179.221 30.3368 179.38 28.8245C179.54 27.3122 180.765 26.5957 182.112 27.2214C183.459 27.8471 184.43 29.5809 184.27 31.0843Z" fill="white"/>
<path d="M191.683 34.5028C191.523 36.0152 190.298 36.7316 188.951 36.1059C187.604 35.4802 186.634 33.7554 186.793 32.243C186.953 30.7307 188.178 30.0143 189.525 30.64C190.872 31.2657 191.843 32.9995 191.683 34.5028Z" fill="white"/>
<path d="M199.087 37.9222C198.927 39.4345 197.703 40.151 196.355 39.5253C195.008 38.8996 194.038 37.1747 194.198 35.6624C194.357 34.1501 195.582 33.4336 196.929 34.0593C198.277 34.685 199.247 36.4188 199.087 37.9222Z" fill="white"/>
</g>
<g clip-path="url(#clip5)">
<path opacity="0.5" d="M457.757 397.086L416.254 372.228C414.732 371.314 414.954 369.772 416.74 368.776L461.552 343.787C463.338 342.791 466.026 342.727 467.548 343.632L509.051 368.489C510.573 369.404 510.351 370.946 508.564 371.941L463.753 396.931C461.958 397.935 459.279 398 457.757 397.086Z" fill="#173D7A"/>
<path d="M510.262 352.433L465.884 325.848C464.157 324.814 462.79 322.096 462.827 319.769L464.55 212.592C464.587 210.265 466.015 209.227 467.741 210.262L512.119 236.846C513.846 237.88 515.213 240.598 515.176 242.925L513.453 350.112C513.416 352.42 511.988 353.467 510.262 352.433Z" fill="url(#paint0_linear)"/>
<path d="M512.12 236.837L467.742 210.253C466.967 209.791 466.258 209.744 465.705 210.04L414.095 238.721L416.359 247.681L460.851 381.221L512.253 352.662C512.262 352.662 512.271 352.654 512.28 352.645L512.371 352.592C513.015 352.198 513.434 351.333 513.454 350.094L515.176 242.907C515.213 240.589 513.846 237.871 512.12 236.837Z" fill="#396CAA"/>
<path d="M512.12 236.837L467.742 210.253C466.967 209.791 466.258 209.744 465.705 210.04L414.095 238.721L416.359 247.681L428.592 284.407L430.987 285.838L514.351 239.479C513.794 238.338 513.001 237.364 512.12 236.837Z" fill="#D4ECFF"/>
<path d="M458.688 381.087L414.31 354.503C412.583 353.469 411.216 350.751 411.253 348.433L412.976 241.247C413.013 238.92 414.441 237.882 416.167 238.916L460.546 265.492C462.272 266.526 463.639 269.244 463.602 271.571L461.879 378.757C461.842 381.075 460.414 382.122 458.688 381.087Z" fill="#5793CE"/>
<path d="M455.97 374.592L417.182 351.35C415.669 350.445 414.476 348.072 414.509 346.041L416.109 246.491C416.141 244.461 417.387 243.546 418.9 244.451L457.689 267.684C459.193 268.588 460.395 270.962 460.362 272.992L458.762 372.534C458.729 374.582 457.484 375.488 455.97 374.592Z" fill="url(#paint1_linear)"/>
<path d="M455.97 374.592L417.182 351.35C415.669 350.445 414.476 348.072 414.509 346.041L416.109 246.491C416.141 244.461 417.387 243.546 418.9 244.451L457.689 267.684C459.193 268.588 460.395 270.962 460.362 272.992L458.762 372.534C458.729 374.582 457.484 375.488 455.97 374.592Z" fill="url(#paint2_linear)"/>
<path d="M455.97 374.592L417.182 351.35C415.669 350.445 414.476 348.072 414.509 346.041L416.109 246.491C416.141 244.461 417.387 243.546 418.9 244.451L457.689 267.684C459.193 268.588 460.395 270.962 460.362 272.992L458.762 372.534C458.729 374.582 457.484 375.488 455.97 374.592Z" fill="#173D7A"/>
<path d="M457.267 373.858L418.47 350.616C416.966 349.72 415.764 347.337 415.797 345.307L417.396 245.766C417.408 245.074 417.56 244.519 417.818 244.11C416.83 244.085 416.133 244.982 416.109 246.5L414.509 346.041C414.476 348.072 415.669 350.454 417.182 351.35L455.971 374.583C456.968 375.174 457.842 374.981 458.34 374.198C458.008 374.193 457.641 374.079 457.267 373.858Z" fill="#396CAA"/>
<path d="M456.705 328.882L442.286 320.248L418.857 333.279L459.007 357.324L459.379 334.2C459.411 332.169 458.218 329.787 456.705 328.882Z" fill="#173D7A"/>
<path d="M457.033 308.488L442.614 299.855L419.185 312.876L459.335 336.922L459.707 313.797C459.739 311.767 458.546 309.393 457.033 308.488Z" fill="#173D7A"/>
<path d="M457.361 288.086L442.942 279.452L419.512 292.483L459.663 316.528L460.034 293.404C460.067 291.373 458.874 288.991 457.361 288.086Z" fill="#173D7A"/>
<path d="M457.689 267.693L443.27 259.059L419.84 272.081L459.99 296.126L460.362 273.001C460.395 270.971 459.202 268.598 457.689 267.693Z" fill="#173D7A"/>
<path d="M457.689 267.693L425.772 248.569L420.177 251.678L460.318 275.733L460.362 273.001C460.395 270.971 459.202 268.598 457.689 267.693Z" fill="#173D7A"/>
<path d="M460.318 275.733L420.168 251.687L419.961 264.579L460.111 288.624L460.318 275.733Z" fill="#5793CE"/>
<path d="M459.99 296.126L419.84 272.081L419.633 284.973L459.783 309.018L459.99 296.126Z" fill="#5793CE"/>
<path d="M459.662 316.528L419.512 292.483L419.305 305.375L459.455 329.42L459.662 316.528Z" fill="#5793CE"/>
<path d="M459.335 336.922L419.185 312.876L418.977 325.768L459.128 349.814L459.335 336.922Z" fill="#5793CE"/>
<path d="M459.007 357.324L418.857 333.279L418.65 346.171L458.8 370.216L459.007 357.324Z" fill="#5793CE"/>
<path d="M456.609 283.967L426.374 265.859C425.52 265.351 424.84 264.002 424.859 262.852L424.914 259.402C424.933 258.252 425.642 257.733 426.496 258.25L456.731 276.358C457.586 276.866 458.265 278.216 458.247 279.366L458.191 282.815C458.173 283.965 457.464 284.484 456.609 283.967Z" fill="#173D7A"/>
<path opacity="0.3" d="M427.93 265.22C427.076 264.712 426.396 263.362 426.415 262.212L426.47 258.762C426.473 258.583 426.503 258.421 426.532 258.269L426.496 258.25C425.642 257.743 424.933 258.252 424.914 259.402L424.859 262.852C424.84 264.002 425.52 265.343 426.374 265.86L456.609 283.968C457.33 284.402 457.937 284.097 458.121 283.309L427.93 265.22Z" fill="#06033E"/>
<path d="M447.184 274.353L428.992 263.457C428.689 263.282 428.454 262.802 428.461 262.397C428.467 261.993 428.713 261.808 429.015 261.993L447.208 272.889C447.511 273.065 447.745 273.545 447.739 273.949C447.732 274.353 447.487 274.538 447.184 274.353Z" fill="white"/>
<path d="M456.283 304.244L426.048 286.127C425.194 285.619 424.515 284.269 424.533 283.119L424.589 279.669C424.607 278.519 425.316 278.001 426.171 278.518L456.406 296.625C457.26 297.133 457.94 298.483 457.921 299.633L457.866 303.083C457.847 304.242 457.138 304.752 456.283 304.244Z" fill="#173D7A"/>
<path opacity="0.3" d="M427.604 285.496C426.75 284.988 426.071 283.639 426.089 282.489L426.144 279.039C426.147 278.859 426.177 278.698 426.206 278.546L426.171 278.518C425.316 278.01 424.607 278.52 424.589 279.67L424.533 283.12C424.515 284.27 425.194 285.61 426.049 286.127L456.284 304.235C457.004 304.669 457.611 304.364 457.795 303.577L427.604 285.496Z" fill="#06033E"/>
<path d="M446.859 294.63L428.666 283.734C428.363 283.558 428.128 283.078 428.135 282.674C428.141 282.27 428.387 282.085 428.689 282.269L446.882 293.166C447.185 293.341 447.42 293.821 447.413 294.225C447.407 294.621 447.161 294.805 446.859 294.63Z" fill="white"/>
<path d="M455.954 324.71L425.719 306.602C424.865 306.094 424.186 304.744 424.204 303.594L424.26 300.144C424.278 298.994 424.987 298.475 425.842 298.992L456.077 317.1C456.931 317.608 457.61 318.958 457.592 320.108L457.537 323.558C457.518 324.699 456.809 325.218 455.954 324.71Z" fill="#173D7A"/>
<path opacity="0.3" d="M427.275 305.952C426.421 305.444 425.742 304.094 425.76 302.945L425.816 299.495C425.818 299.315 425.848 299.154 425.877 299.001L425.842 298.974C424.987 298.466 424.278 298.976 424.26 300.126L424.204 303.575C424.186 304.725 424.865 306.066 425.72 306.583L455.955 324.691C456.676 325.125 457.283 324.82 457.466 324.032L427.275 305.952Z" fill="#06033E"/>
<path d="M446.53 315.086L428.337 304.19C428.034 304.014 427.799 303.534 427.806 303.13C427.812 302.726 428.058 302.541 428.361 302.726L446.553 313.622C446.856 313.797 447.091 314.277 447.084 314.682C447.078 315.086 446.832 315.271 446.53 315.086Z" fill="#D4ECFF"/>
<path d="M455.623 345.354L425.388 327.246C424.533 326.738 423.854 325.388 423.872 324.238L423.928 320.789C423.946 319.639 424.655 319.12 425.51 319.637L455.745 337.745C456.599 338.253 457.279 339.602 457.26 340.752L457.205 344.202C457.186 345.352 456.477 345.862 455.623 345.354Z" fill="#173D7A"/>
<path opacity="0.3" d="M426.944 326.607C426.089 326.099 425.41 324.749 425.428 323.599L425.484 320.149C425.487 319.969 425.516 319.808 425.546 319.656L425.51 319.637C424.655 319.129 423.946 319.639 423.928 320.789L423.872 324.239C423.854 325.389 424.533 326.73 425.388 327.247L455.623 345.354C456.344 345.788 456.951 345.484 457.134 344.696L426.944 326.607Z" fill="#06033E"/>
<path d="M446.198 335.74L428.005 324.844C427.702 324.668 427.467 324.188 427.474 323.784C427.48 323.38 427.726 323.195 428.029 323.38L446.221 334.276C446.524 334.451 446.759 334.931 446.752 335.336C446.746 335.74 446.5 335.916 446.198 335.74Z" fill="#F16A51"/>
<path d="M455.297 365.595L425.062 347.487C424.208 346.979 423.529 345.629 423.547 344.479L423.603 341.029C423.621 339.879 424.33 339.361 425.185 339.877L455.42 357.985C456.274 358.493 456.953 359.843 456.935 360.993L456.88 364.443C456.861 365.593 456.152 366.103 455.297 365.595Z" fill="#173D7A"/>
<path opacity="0.3" d="M426.618 346.847C425.764 346.339 425.085 344.989 425.103 343.84L425.159 340.39C425.161 340.21 425.191 340.049 425.22 339.896L425.185 339.878C424.33 339.37 423.621 339.88 423.603 341.03L423.547 344.479C423.529 345.629 424.208 346.97 425.062 347.487L455.297 365.595C456.018 366.029 456.625 365.724 456.809 364.936L426.618 346.847Z" fill="#06033E"/>
<path d="M445.873 355.981L427.68 345.085C427.377 344.909 427.142 344.429 427.149 344.025C427.155 343.62 427.401 343.436 427.703 343.62L445.896 354.516C446.199 354.692 446.434 355.172 446.427 355.576C446.421 355.981 446.175 356.156 445.873 355.981Z" fill="#D4ECFF"/>
<path opacity="0.5" d="M420.168 251.687L423.336 253.58L423.129 266.472L419.961 264.579L420.168 251.687Z" fill="#173D7A"/>
<path opacity="0.5" d="M419.84 272.081L423.009 273.974L422.802 286.866L419.633 284.972L419.84 272.081Z" fill="#173D7A"/>
<path opacity="0.5" d="M419.512 292.483L422.681 294.376L422.474 307.268L419.305 305.375L419.512 292.483Z" fill="#173D7A"/>
<path opacity="0.5" d="M419.185 312.876L422.353 314.769L422.146 327.661L418.977 325.768L419.185 312.876Z" fill="#173D7A"/>
<path opacity="0.5" d="M418.856 333.279L422.025 335.172L421.818 348.064L418.649 346.171L418.856 333.279Z" fill="#173D7A"/>
<path d="M450.785 275.687C450.778 276.1 450.488 276.258 450.132 276.054C449.776 275.842 449.496 275.334 449.503 274.921C449.509 274.507 449.8 274.35 450.156 274.554C450.512 274.766 450.791 275.274 450.785 275.687Z" fill="#D4ECFF"/>
<path d="M453.499 277.312C453.492 277.726 453.202 277.883 452.846 277.679C452.49 277.467 452.211 276.959 452.217 276.546C452.224 276.133 452.514 275.976 452.87 276.179C453.226 276.391 453.506 276.899 453.499 277.312Z" fill="#F16A51"/>
<path d="M456.214 278.938C456.207 279.351 455.917 279.508 455.561 279.305C455.205 279.092 454.925 278.584 454.932 278.171C454.939 277.758 455.229 277.601 455.585 277.804C455.932 278.016 456.22 278.524 456.214 278.938Z" fill="#D4ECFF"/>
<path d="M450.457 296.072C450.45 296.485 450.16 296.642 449.804 296.439C449.448 296.226 449.169 295.718 449.175 295.305C449.182 294.892 449.472 294.735 449.828 294.938C450.184 295.16 450.464 295.658 450.457 296.072Z" fill="#F16A51"/>
<path d="M453.171 297.697C453.165 298.11 452.875 298.267 452.519 298.064C452.163 297.851 451.883 297.344 451.89 296.93C451.896 296.517 452.187 296.36 452.543 296.563C452.899 296.785 453.178 297.284 453.171 297.697Z" fill="#D4ECFF"/>
<path d="M455.886 299.322C455.88 299.735 455.59 299.892 455.233 299.689C454.877 299.477 454.598 298.969 454.605 298.556C454.611 298.142 454.901 297.985 455.258 298.189C455.604 298.41 455.893 298.909 455.886 299.322Z" fill="white"/>
<path d="M450.127 316.618C450.12 317.031 449.83 317.188 449.474 316.985C449.118 316.772 448.838 316.265 448.845 315.851C448.852 315.438 449.142 315.281 449.498 315.484C449.854 315.697 450.133 316.204 450.127 316.618Z" fill="white"/>
<path d="M452.841 318.243C452.835 318.656 452.545 318.813 452.189 318.61C451.832 318.397 451.553 317.89 451.56 317.476C451.566 317.063 451.856 316.906 452.213 317.11C452.569 317.322 452.848 317.83 452.841 318.243Z" fill="#F16A51"/>
<path d="M455.556 319.868C455.549 320.281 455.259 320.438 454.903 320.235C454.547 320.023 454.268 319.515 454.274 319.102C454.281 318.688 454.571 318.531 454.927 318.735C455.274 318.947 455.563 319.455 455.556 319.868Z" fill="white"/>
<path d="M449.801 336.858C449.795 337.272 449.505 337.429 449.148 337.225C448.792 337.013 448.513 336.505 448.52 336.092C448.526 335.679 448.816 335.522 449.173 335.725C449.529 335.937 449.808 336.445 449.801 336.858Z" fill="white"/>
<path d="M452.516 338.484C452.509 338.897 452.219 339.054 451.863 338.85C451.507 338.638 451.228 338.13 451.234 337.717C451.241 337.304 451.531 337.147 451.887 337.35C452.243 337.563 452.523 338.07 452.516 338.484Z" fill="#D4ECFF"/>
<path d="M455.231 340.109C455.224 340.522 454.934 340.679 454.578 340.476C454.222 340.263 453.942 339.756 453.949 339.342C453.956 338.929 454.246 338.772 454.602 338.975C454.949 339.188 455.237 339.695 455.231 340.109Z" fill="#D4ECFF"/>
<path d="M449.472 357.378C449.465 357.791 449.175 357.948 448.819 357.744C448.463 357.532 448.183 357.024 448.19 356.611C448.196 356.198 448.487 356.041 448.843 356.244C449.199 356.457 449.478 356.964 449.472 357.378Z" fill="white"/>
<path d="M452.186 359.003C452.18 359.416 451.89 359.573 451.533 359.37C451.177 359.157 450.898 358.65 450.905 358.236C450.911 357.823 451.201 357.666 451.558 357.869C451.914 358.082 452.193 358.589 452.186 359.003Z" fill="#F16A51"/>
<path d="M454.901 360.628C454.894 361.041 454.604 361.198 454.248 360.995C453.892 360.782 453.613 360.275 453.619 359.861C453.626 359.448 453.916 359.291 454.272 359.495C454.619 359.707 454.908 360.215 454.901 360.628Z" fill="#D4ECFF"/>
<path d="M468.821 366.756L470.288 275.488L470.478 275.384L508.977 253.977L507.511 345.244L507.32 345.349L468.821 366.756ZM471.035 275.932L469.597 365.456L506.763 344.792L508.202 255.268L471.035 275.932Z" fill="#173D7A"/>
<path d="M498.408 294.875L481.145 304.473C479.984 305.12 479.061 304.395 479.086 302.868L479.238 293.39C479.263 291.853 480.225 290.09 481.386 289.452L498.65 279.854C499.811 279.208 500.733 279.932 500.709 281.46L500.556 290.947C500.523 292.465 499.569 294.229 498.408 294.875Z" fill="#173D7A"/>
<path d="M499.066 279.671C499.161 279.942 499.21 280.258 499.204 280.626L499.051 290.113C499.026 291.649 498.064 293.413 496.903 294.05L479.639 303.649C479.494 303.727 479.358 303.788 479.223 303.822C479.515 304.662 480.256 304.962 481.136 304.472L498.4 294.874C499.56 294.228 500.523 292.464 500.548 290.937L500.7 281.45C500.722 280.111 500.023 279.39 499.066 279.671Z" fill="#5793CE"/>
<path d="M495.374 289.119C495.691 288.945 495.949 289.093 495.943 289.461L495.909 291.617C495.903 291.985 495.635 292.421 495.318 292.596C495.001 292.771 494.742 292.623 494.748 292.254L494.783 290.098C494.789 289.73 495.056 289.294 495.374 289.119Z" fill="white"/>
<path d="M492.894 290.76C493.212 290.585 493.47 290.733 493.464 291.101L493.434 292.988C493.428 293.356 493.16 293.792 492.843 293.967C492.525 294.142 492.267 293.994 492.273 293.625L492.303 291.739C492.309 291.379 492.577 290.943 492.894 290.76Z" fill="#D4ECFF"/>
<path d="M490.453 290.029C490.77 289.854 491.028 290.002 491.022 290.37L490.958 294.368C490.952 294.736 490.684 295.172 490.367 295.347C490.05 295.522 489.792 295.374 489.798 295.005L489.862 291.017C489.868 290.648 490.135 290.212 490.453 290.029Z" fill="#F16A51"/>
<path d="M488.014 289.1C488.332 288.925 488.59 289.073 488.584 289.441L488.483 295.748C488.477 296.116 488.209 296.553 487.892 296.727C487.574 296.902 487.316 296.754 487.322 296.385L487.424 290.079C487.429 289.719 487.688 289.283 488.014 289.1Z" fill="#D4ECFF"/>
<path d="M485.528 291.145C485.846 290.97 486.104 291.118 486.098 291.486L486.007 297.128C486.001 297.497 485.734 297.933 485.416 298.107C485.099 298.282 484.841 298.134 484.847 297.766L484.937 292.124C484.943 291.755 485.202 291.319 485.528 291.145Z" fill="#D4ECFF"/>
<path d="M483.003 295.094C483.32 294.919 483.578 295.067 483.572 295.436L483.523 298.499C483.517 298.867 483.25 299.303 482.932 299.478C482.615 299.653 482.357 299.505 482.363 299.136L482.412 296.073C482.427 295.714 482.685 295.278 483.003 295.094Z" fill="white"/>
<path d="M494.825 288.014C494.82 288.373 495.069 288.521 495.386 288.347C495.703 288.172 495.962 287.736 495.968 287.376C495.974 287.017 495.724 286.869 495.407 287.044C495.09 287.228 494.831 287.655 494.825 288.014Z" fill="#F16A51"/>
<path d="M494.858 285.984C494.852 286.343 495.101 286.491 495.419 286.316C495.736 286.142 495.995 285.706 496.001 285.346C496.006 284.987 495.757 284.839 495.44 285.014C495.122 285.197 494.864 285.624 494.858 285.984Z" fill="white"/>
</g>
<defs>
<linearGradient id="paint0_linear" x1="488.071" y1="339.14" x2="539.52" y2="253.248" gradientUnits="userSpaceOnUse">
<stop stop-color="#2D0979"/>
<stop offset="1" stop-color="#5B04F7"/>
</linearGradient>
<linearGradient id="paint1_linear" x1="413.48" y1="302.512" x2="454.315" y2="296.863" gradientUnits="userSpaceOnUse">
<stop stop-color="#3919BB"/>
<stop offset="1" stop-color="#6507FA"/>
</linearGradient>
<linearGradient id="paint2_linear" x1="413.48" y1="302.512" x2="454.315" y2="296.863" gradientUnits="userSpaceOnUse">
<stop stop-color="#3919BB"/>
<stop offset="1" stop-color="#6507FA"/>
</linearGradient>
<clipPath id="clip0">
<rect width="296.928" height="305.419" fill="white" transform="translate(124.018 28.9083) rotate(-3.24817)"/>
</clipPath>
<clipPath id="clip1">
<rect width="56.5518" height="56.2733" fill="white" transform="translate(0.929443 242.973)"/>
</clipPath>
<clipPath id="clip2">
<rect width="42.1578" height="37.6832" fill="white" transform="translate(268.991 370.362)"/>
</clipPath>
<clipPath id="clip3">
<rect width="27.5481" height="41.9062" fill="white" transform="translate(464.719 93.8302)"/>
</clipPath>
<clipPath id="clip4">
<rect width="65.1505" height="88.0174" fill="white" transform="translate(165.067 6.17826) rotate(-5.22315)"/>
</clipPath>
<clipPath id="clip5">
<rect width="102.214" height="187.949" fill="white" transform="translate(413.494 209.003) rotate(0.920736)"/>
</clipPath>
</defs>
</svg>
