<svg width="375" height="77" viewBox="0 0 375 77" fill="none" xmlns="http://www.w3.org/2000/svg">
<rect y="4.37579" width="375" height="69.0812" fill="#211F1D"/>
<path d="M319.507 2.0576L341.645 75.5044" stroke="white" stroke-width="3"/>
<path d="M312.232 2.0576L334.37 75.5044" stroke="white" stroke-width="3"/>
<path d="M137.536 30.5124C138.016 30.6964 138.384 30.9604 138.64 31.3044C138.896 31.6484 139.024 32.0604 139.024 32.5404C139.024 33.0444 138.888 33.4844 138.616 33.8604C138.344 34.2284 137.956 34.5124 137.452 34.7124C136.948 34.9124 136.356 35.0124 135.676 35.0124C135.004 35.0124 134.416 34.9124 133.912 34.7124C133.416 34.5124 133.032 34.2284 132.76 33.8604C132.488 33.4844 132.352 33.0444 132.352 32.5404C132.352 32.0604 132.476 31.6484 132.724 31.3044C132.98 30.9604 133.348 30.6964 133.828 30.5124C133.444 30.3284 133.152 30.0844 132.952 29.7804C132.752 29.4764 132.652 29.1164 132.652 28.7004C132.652 28.2364 132.776 27.8324 133.024 27.4884C133.28 27.1444 133.636 26.8804 134.092 26.6964C134.548 26.5124 135.076 26.4204 135.676 26.4204C136.284 26.4204 136.816 26.5124 137.272 26.6964C137.736 26.8804 138.092 27.1444 138.34 27.4884C138.596 27.8324 138.724 28.2364 138.724 28.7004C138.724 29.1084 138.62 29.4684 138.412 29.7804C138.212 30.0844 137.92 30.3284 137.536 30.5124ZM135.676 27.3924C135.108 27.3924 134.66 27.5164 134.332 27.7644C134.004 28.0044 133.84 28.3324 133.84 28.7484C133.84 29.1644 134 29.4924 134.32 29.7324C134.648 29.9724 135.1 30.0924 135.676 30.0924C136.26 30.0924 136.716 29.9724 137.044 29.7324C137.38 29.4924 137.548 29.1644 137.548 28.7484C137.548 28.3324 137.376 28.0044 137.032 27.7644C136.696 27.5164 136.244 27.3924 135.676 27.3924ZM135.676 34.0404C136.34 34.0404 136.864 33.9044 137.248 33.6324C137.632 33.3524 137.824 32.9764 137.824 32.5044C137.824 32.0404 137.632 31.6764 137.248 31.4124C136.864 31.1404 136.34 31.0044 135.676 31.0044C135.012 31.0044 134.492 31.1404 134.116 31.4124C133.74 31.6764 133.552 32.0404 133.552 32.5044C133.552 32.9764 133.74 33.3524 134.116 33.6324C134.492 33.9044 135.012 34.0404 135.676 34.0404ZM145.17 31.0284C144.586 31.0284 144.114 30.8164 143.754 30.3924C143.394 29.9684 143.214 29.4164 143.214 28.7364C143.214 28.0564 143.394 27.5044 143.754 27.0804C144.114 26.6564 144.586 26.4444 145.17 26.4444C145.754 26.4444 146.222 26.6564 146.574 27.0804C146.934 27.4964 147.114 28.0484 147.114 28.7364C147.114 29.4244 146.934 29.9804 146.574 30.4044C146.222 30.8204 145.754 31.0284 145.17 31.0284ZM150.234 26.5164H151.158L145.422 34.9164H144.498L150.234 26.5164ZM145.17 30.3444C145.538 30.3444 145.826 30.2044 146.034 29.9244C146.242 29.6364 146.346 29.2404 146.346 28.7364C146.346 28.2324 146.242 27.8404 146.034 27.5604C145.826 27.2724 145.538 27.1284 145.17 27.1284C144.81 27.1284 144.522 27.2724 144.306 27.5604C144.098 27.8484 143.994 28.2404 143.994 28.7364C143.994 29.2324 144.098 29.6244 144.306 29.9124C144.522 30.2004 144.81 30.3444 145.17 30.3444ZM150.486 34.9884C149.902 34.9884 149.43 34.7804 149.07 34.3644C148.718 33.9404 148.542 33.3844 148.542 32.6964C148.542 32.0084 148.718 31.4564 149.07 31.0404C149.43 30.6164 149.902 30.4044 150.486 30.4044C151.07 30.4044 151.542 30.6164 151.902 31.0404C152.262 31.4644 152.442 32.0164 152.442 32.6964C152.442 33.3764 152.262 33.9284 151.902 34.3524C151.542 34.7764 151.07 34.9884 150.486 34.9884ZM150.486 34.3044C150.846 34.3044 151.13 34.1604 151.338 33.8724C151.554 33.5844 151.662 33.1924 151.662 32.6964C151.662 32.2004 151.554 31.8084 151.338 31.5204C151.13 31.2324 150.846 31.0884 150.486 31.0884C150.118 31.0884 149.83 31.2324 149.622 31.5204C149.414 31.8004 149.31 32.1924 149.31 32.6964C149.31 33.2004 149.414 33.5964 149.622 33.8844C149.83 34.1644 150.118 34.3044 150.486 34.3044ZM159.945 34.9884C159.313 34.9884 158.745 34.8484 158.241 34.5684C157.737 34.2884 157.341 33.9044 157.053 33.4164C156.773 32.9204 156.633 32.3604 156.633 31.7364C156.633 31.1124 156.773 30.5564 157.053 30.0684C157.341 29.5724 157.737 29.1884 158.241 28.9164C158.745 28.6364 159.313 28.4964 159.945 28.4964C160.577 28.4964 161.141 28.6364 161.637 28.9164C162.141 29.1884 162.533 29.5724 162.813 30.0684C163.101 30.5564 163.245 31.1124 163.245 31.7364C163.245 32.3604 163.101 32.9204 162.813 33.4164C162.533 33.9044 162.141 34.2884 161.637 34.5684C161.141 34.8484 160.577 34.9884 159.945 34.9884ZM159.945 33.9804C160.353 33.9804 160.717 33.8884 161.037 33.7044C161.365 33.5124 161.621 33.2484 161.805 32.9124C161.989 32.5684 162.081 32.1764 162.081 31.7364C162.081 31.2964 161.989 30.9084 161.805 30.5724C161.621 30.2284 161.365 29.9644 161.037 29.7804C160.717 29.5964 160.353 29.5044 159.945 29.5044C159.537 29.5044 159.169 29.5964 158.841 29.7804C158.521 29.9644 158.265 30.2284 158.073 30.5724C157.889 30.9084 157.797 31.2964 157.797 31.7364C157.797 32.1764 157.889 32.5684 158.073 32.9124C158.265 33.2484 158.521 33.5124 158.841 33.7044C159.169 33.8884 159.537 33.9804 159.945 33.9804ZM169.415 29.5644H167.087V34.9164H165.935V29.5644H163.607V28.5564H169.415V29.5644ZM176.539 34.9884C175.907 34.9884 175.339 34.8484 174.835 34.5684C174.331 34.2884 173.935 33.9044 173.647 33.4164C173.367 32.9204 173.227 32.3604 173.227 31.7364C173.227 31.1124 173.367 30.5564 173.647 30.0684C173.935 29.5724 174.331 29.1884 174.835 28.9164C175.339 28.6364 175.907 28.4964 176.539 28.4964C177.171 28.4964 177.735 28.6364 178.231 28.9164C178.735 29.1884 179.127 29.5724 179.407 30.0684C179.695 30.5564 179.839 31.1124 179.839 31.7364C179.839 32.3604 179.695 32.9204 179.407 33.4164C179.127 33.9044 178.735 34.2884 178.231 34.5684C177.735 34.8484 177.171 34.9884 176.539 34.9884ZM176.539 33.9804C176.947 33.9804 177.311 33.8884 177.631 33.7044C177.959 33.5124 178.215 33.2484 178.399 32.9124C178.583 32.5684 178.675 32.1764 178.675 31.7364C178.675 31.2964 178.583 30.9084 178.399 30.5724C178.215 30.2284 177.959 29.9644 177.631 29.7804C177.311 29.5964 176.947 29.5044 176.539 29.5044C176.131 29.5044 175.763 29.5964 175.435 29.7804C175.115 29.9644 174.859 30.2284 174.667 30.5724C174.483 30.9084 174.391 31.2964 174.391 31.7364C174.391 32.1764 174.483 32.5684 174.667 32.9124C174.859 33.2484 175.115 33.5124 175.435 33.7044C175.763 33.8884 176.131 33.9804 176.539 33.9804ZM184.743 28.7724C185.335 28.7724 185.863 28.9044 186.327 29.1684C186.791 29.4324 187.151 29.8004 187.407 30.2724C187.671 30.7364 187.803 31.2684 187.803 31.8684C187.803 32.4844 187.663 33.0324 187.383 33.5124C187.111 33.9844 186.723 34.3524 186.219 34.6164C185.723 34.8804 185.155 35.0124 184.515 35.0124C183.435 35.0124 182.599 34.6444 182.007 33.9084C181.423 33.1644 181.131 32.1204 181.131 30.7764C181.131 29.4724 181.399 28.4524 181.935 27.7164C182.471 26.9724 183.291 26.4804 184.395 26.2404L187.299 25.5924L187.467 26.6484L184.791 27.2244C183.959 27.4084 183.339 27.7204 182.931 28.1604C182.523 28.6004 182.291 29.2324 182.235 30.0564C182.507 29.6484 182.859 29.3324 183.291 29.1084C183.723 28.8844 184.207 28.7724 184.743 28.7724ZM184.539 34.0524C184.947 34.0524 185.307 33.9604 185.619 33.7764C185.939 33.5924 186.187 33.3404 186.363 33.0204C186.539 32.6924 186.627 32.3204 186.627 31.9044C186.627 31.2724 186.435 30.7644 186.051 30.3804C185.667 29.9964 185.163 29.8044 184.539 29.8044C183.915 29.8044 183.407 29.9964 183.015 30.3804C182.631 30.7644 182.439 31.2724 182.439 31.9044C182.439 32.3204 182.527 32.6924 182.703 33.0204C182.887 33.3404 183.139 33.5924 183.459 33.7764C183.779 33.9604 184.139 34.0524 184.539 34.0524ZM192.172 34.9884C191.54 34.9884 190.972 34.8484 190.468 34.5684C189.964 34.2884 189.568 33.9044 189.28 33.4164C189 32.9204 188.86 32.3604 188.86 31.7364C188.86 31.1124 189 30.5564 189.28 30.0684C189.568 29.5724 189.964 29.1884 190.468 28.9164C190.972 28.6364 191.54 28.4964 192.172 28.4964C192.804 28.4964 193.368 28.6364 193.864 28.9164C194.368 29.1884 194.76 29.5724 195.04 30.0684C195.328 30.5564 195.472 31.1124 195.472 31.7364C195.472 32.3604 195.328 32.9204 195.04 33.4164C194.76 33.9044 194.368 34.2884 193.864 34.5684C193.368 34.8484 192.804 34.9884 192.172 34.9884ZM192.172 33.9804C192.58 33.9804 192.944 33.8884 193.264 33.7044C193.592 33.5124 193.848 33.2484 194.032 32.9124C194.216 32.5684 194.308 32.1764 194.308 31.7364C194.308 31.2964 194.216 30.9084 194.032 30.5724C193.848 30.2284 193.592 29.9644 193.264 29.7804C192.944 29.5964 192.58 29.5044 192.172 29.5044C191.764 29.5044 191.396 29.5964 191.068 29.7804C190.748 29.9644 190.492 30.2284 190.3 30.5724C190.116 30.9084 190.024 31.2964 190.024 31.7364C190.024 32.1764 190.116 32.5684 190.3 32.9124C190.492 33.2484 190.748 33.5124 191.068 33.7044C191.396 33.8884 191.764 33.9804 192.172 33.9804ZM200.508 28.4964C201.124 28.4964 201.676 28.6324 202.164 28.9044C202.652 29.1764 203.032 29.5564 203.304 30.0444C203.584 30.5324 203.724 31.0964 203.724 31.7364C203.724 32.3764 203.584 32.9444 203.304 33.4404C203.032 33.9284 202.652 34.3084 202.164 34.5804C201.676 34.8524 201.124 34.9884 200.508 34.9884C200.052 34.9884 199.632 34.9004 199.248 34.7244C198.872 34.5484 198.552 34.2924 198.288 33.9564V37.2444H197.136V28.5564H198.24V29.5644C198.496 29.2124 198.82 28.9484 199.212 28.7724C199.604 28.5884 200.036 28.4964 200.508 28.4964ZM200.412 33.9804C200.82 33.9804 201.184 33.8884 201.504 33.7044C201.832 33.5124 202.088 33.2484 202.272 32.9124C202.464 32.5684 202.56 32.1764 202.56 31.7364C202.56 31.2964 202.464 30.9084 202.272 30.5724C202.088 30.2284 201.832 29.9644 201.504 29.7804C201.184 29.5964 200.82 29.5044 200.412 29.5044C200.012 29.5044 199.648 29.6004 199.32 29.7924C199 29.9764 198.744 30.2364 198.552 30.5724C198.368 30.9084 198.276 31.2964 198.276 31.7364C198.276 32.1764 198.368 32.5684 198.552 32.9124C198.736 33.2484 198.992 33.5124 199.32 33.7044C199.648 33.8884 200.012 33.9804 200.412 33.9804ZM208.121 34.9884C207.489 34.9884 206.921 34.8484 206.417 34.5684C205.913 34.2884 205.517 33.9044 205.229 33.4164C204.949 32.9204 204.809 32.3604 204.809 31.7364C204.809 31.1124 204.949 30.5564 205.229 30.0684C205.517 29.5724 205.913 29.1884 206.417 28.9164C206.921 28.6364 207.489 28.4964 208.121 28.4964C208.753 28.4964 209.317 28.6364 209.813 28.9164C210.317 29.1884 210.709 29.5724 210.989 30.0684C211.277 30.5564 211.421 31.1124 211.421 31.7364C211.421 32.3604 211.277 32.9204 210.989 33.4164C210.709 33.9044 210.317 34.2884 209.813 34.5684C209.317 34.8484 208.753 34.9884 208.121 34.9884ZM208.121 33.9804C208.529 33.9804 208.893 33.8884 209.213 33.7044C209.541 33.5124 209.797 33.2484 209.981 32.9124C210.165 32.5684 210.257 32.1764 210.257 31.7364C210.257 31.2964 210.165 30.9084 209.981 30.5724C209.797 30.2284 209.541 29.9644 209.213 29.7804C208.893 29.5964 208.529 29.5044 208.121 29.5044C207.713 29.5044 207.345 29.5964 207.017 29.7804C206.697 29.9644 206.441 30.2284 206.249 30.5724C206.065 30.9084 205.973 31.2964 205.973 31.7364C205.973 32.1764 206.065 32.5684 206.249 32.9124C206.441 33.2484 206.697 33.5124 207.017 33.7044C207.345 33.8884 207.713 33.9804 208.121 33.9804ZM217.59 29.5644H215.262V34.9164H214.11V29.5644H211.782V28.5564H217.59V29.5644ZM221.036 28.4964C221.916 28.4964 222.588 28.7124 223.052 29.1444C223.524 29.5764 223.76 30.2204 223.76 31.0764V34.9164H222.668V34.0764C222.476 34.3724 222.2 34.6004 221.84 34.7604C221.488 34.9124 221.068 34.9884 220.58 34.9884C219.868 34.9884 219.296 34.8164 218.864 34.4724C218.44 34.1284 218.228 33.6764 218.228 33.1164C218.228 32.5564 218.432 32.1084 218.84 31.7724C219.248 31.4284 219.896 31.2564 220.784 31.2564H222.608V31.0284C222.608 30.5324 222.464 30.1524 222.176 29.8884C221.888 29.6244 221.464 29.4924 220.904 29.4924C220.528 29.4924 220.16 29.5564 219.8 29.6844C219.44 29.8044 219.136 29.9684 218.888 30.1764L218.408 29.3124C218.736 29.0484 219.128 28.8484 219.584 28.7124C220.04 28.5684 220.524 28.4964 221.036 28.4964ZM220.772 34.1004C221.212 34.1004 221.592 34.0044 221.912 33.8124C222.232 33.6124 222.464 33.3324 222.608 32.9724V32.0844H220.832C219.856 32.0844 219.368 32.4124 219.368 33.0684C219.368 33.3884 219.492 33.6404 219.74 33.8244C219.988 34.0084 220.332 34.1004 220.772 34.1004ZM229.057 28.5564H230.209V31.2564H233.833V28.5564H234.985V34.9164H233.833V32.2524H230.209V34.9164H229.057V28.5564ZM239.493 28.4964C240.373 28.4964 241.045 28.7124 241.509 29.1444C241.981 29.5764 242.217 30.2204 242.217 31.0764V34.9164H241.125V34.0764C240.933 34.3724 240.657 34.6004 240.297 34.7604C239.945 34.9124 239.525 34.9884 239.037 34.9884C238.325 34.9884 237.753 34.8164 237.321 34.4724C236.897 34.1284 236.685 33.6764 236.685 33.1164C236.685 32.5564 236.889 32.1084 237.297 31.7724C237.705 31.4284 238.353 31.2564 239.241 31.2564H241.065V31.0284C241.065 30.5324 240.921 30.1524 240.633 29.8884C240.345 29.6244 239.921 29.4924 239.361 29.4924C238.985 29.4924 238.617 29.5564 238.257 29.6844C237.897 29.8044 237.593 29.9684 237.345 30.1764L236.865 29.3124C237.193 29.0484 237.585 28.8484 238.041 28.7124C238.497 28.5684 238.981 28.4964 239.493 28.4964ZM239.229 34.1004C239.669 34.1004 240.049 34.0044 240.369 33.8124C240.689 33.6124 240.921 33.3324 241.065 32.9724V32.0844H239.289C238.313 32.0844 237.825 32.4124 237.825 33.0684C237.825 33.3884 237.949 33.6404 238.197 33.8244C238.445 34.0084 238.789 34.1004 239.229 34.1004ZM125.065 46.2284H123.745V48.9164H122.593V42.5564H123.745V45.2444H125.089L127.153 42.5564H128.389L125.977 45.6164L128.557 48.9164H127.201L125.065 46.2284ZM132.278 48.9884C131.646 48.9884 131.078 48.8484 130.574 48.5684C130.07 48.2884 129.674 47.9044 129.386 47.4164C129.106 46.9204 128.966 46.3604 128.966 45.7364C128.966 45.1124 129.106 44.5564 129.386 44.0684C129.674 43.5724 130.07 43.1884 130.574 42.9164C131.078 42.6364 131.646 42.4964 132.278 42.4964C132.91 42.4964 133.474 42.6364 133.97 42.9164C134.474 43.1884 134.866 43.5724 135.146 44.0684C135.434 44.5564 135.578 45.1124 135.578 45.7364C135.578 46.3604 135.434 46.9204 135.146 47.4164C134.866 47.9044 134.474 48.2884 133.97 48.5684C133.474 48.8484 132.91 48.9884 132.278 48.9884ZM132.278 47.9804C132.686 47.9804 133.05 47.8884 133.37 47.7044C133.698 47.5124 133.954 47.2484 134.138 46.9124C134.322 46.5684 134.414 46.1764 134.414 45.7364C134.414 45.2964 134.322 44.9084 134.138 44.5724C133.954 44.2284 133.698 43.9644 133.37 43.7804C133.05 43.5964 132.686 43.5044 132.278 43.5044C131.87 43.5044 131.502 43.5964 131.174 43.7804C130.854 43.9644 130.598 44.2284 130.406 44.5724C130.222 44.9084 130.13 45.2964 130.13 45.7364C130.13 46.1764 130.222 46.5684 130.406 46.9124C130.598 47.2484 130.854 47.5124 131.174 47.7044C131.502 47.8884 131.87 47.9804 132.278 47.9804ZM137.241 42.5564H138.393V45.2564H142.017V42.5564H143.169V48.9164H142.017V46.2524H138.393V48.9164H137.241V42.5564ZM150.149 43.5644H147.821V48.9164H146.669V43.5644H144.341V42.5564H150.149V43.5644ZM156.794 45.7724C156.794 45.8604 156.786 45.9764 156.77 46.1204H151.61C151.682 46.6804 151.926 47.1324 152.342 47.4764C152.766 47.8124 153.29 47.9804 153.914 47.9804C154.674 47.9804 155.286 47.7244 155.75 47.2124L156.386 47.9564C156.098 48.2924 155.738 48.5484 155.306 48.7244C154.882 48.9004 154.406 48.9884 153.878 48.9884C153.206 48.9884 152.61 48.8524 152.09 48.5804C151.57 48.3004 151.166 47.9124 150.878 47.4164C150.598 46.9204 150.458 46.3604 150.458 45.7364C150.458 45.1204 150.594 44.5644 150.866 44.0684C151.146 43.5724 151.526 43.1884 152.006 42.9164C152.494 42.6364 153.042 42.4964 153.65 42.4964C154.258 42.4964 154.798 42.6364 155.27 42.9164C155.75 43.1884 156.122 43.5724 156.386 44.0684C156.658 44.5644 156.794 45.1324 156.794 45.7724ZM153.65 43.4684C153.098 43.4684 152.634 43.6364 152.258 43.9724C151.89 44.3084 151.674 44.7484 151.61 45.2924H155.69C155.626 44.7564 155.406 44.3204 155.03 43.9844C154.662 43.6404 154.202 43.4684 153.65 43.4684ZM161.053 46.2284H159.733V48.9164H158.581V42.5564H159.733V45.2444H161.077L163.141 42.5564H164.377L161.965 45.6164L164.545 48.9164H163.189L161.053 46.2284ZM168.314 48.9884C167.666 48.9884 167.086 48.8484 166.574 48.5684C166.07 48.2884 165.674 47.9044 165.386 47.4164C165.098 46.9204 164.954 46.3604 164.954 45.7364C164.954 45.1124 165.098 44.5564 165.386 44.0684C165.674 43.5724 166.07 43.1884 166.574 42.9164C167.086 42.6364 167.666 42.4964 168.314 42.4964C168.89 42.4964 169.402 42.6124 169.85 42.8444C170.306 43.0764 170.658 43.4124 170.906 43.8524L170.03 44.4164C169.83 44.1124 169.582 43.8844 169.286 43.7324C168.99 43.5804 168.662 43.5044 168.302 43.5044C167.886 43.5044 167.51 43.5964 167.174 43.7804C166.846 43.9644 166.586 44.2284 166.394 44.5724C166.21 44.9084 166.118 45.2964 166.118 45.7364C166.118 46.1844 166.21 46.5804 166.394 46.9244C166.586 47.2604 166.846 47.5204 167.174 47.7044C167.51 47.8884 167.886 47.9804 168.302 47.9804C168.662 47.9804 168.99 47.9044 169.286 47.7524C169.582 47.6004 169.83 47.3724 170.03 47.0684L170.906 47.6204C170.658 48.0604 170.306 48.4004 169.85 48.6404C169.402 48.8724 168.89 48.9884 168.314 48.9884ZM172.397 42.5564H173.549V45.2564H177.173V42.5564H178.325V48.9164H177.173V46.2524H173.549V48.9164H172.397V42.5564ZM183.289 48.9884C182.657 48.9884 182.089 48.8484 181.585 48.5684C181.081 48.2884 180.685 47.9044 180.397 47.4164C180.117 46.9204 179.977 46.3604 179.977 45.7364C179.977 45.1124 180.117 44.5564 180.397 44.0684C180.685 43.5724 181.081 43.1884 181.585 42.9164C182.089 42.6364 182.657 42.4964 183.289 42.4964C183.921 42.4964 184.485 42.6364 184.981 42.9164C185.485 43.1884 185.877 43.5724 186.157 44.0684C186.445 44.5564 186.589 45.1124 186.589 45.7364C186.589 46.3604 186.445 46.9204 186.157 47.4164C185.877 47.9044 185.485 48.2884 184.981 48.5684C184.485 48.8484 183.921 48.9884 183.289 48.9884ZM183.289 47.9804C183.697 47.9804 184.061 47.8884 184.381 47.7044C184.709 47.5124 184.965 47.2484 185.149 46.9124C185.333 46.5684 185.425 46.1764 185.425 45.7364C185.425 45.2964 185.333 44.9084 185.149 44.5724C184.965 44.2284 184.709 43.9644 184.381 43.7804C184.061 43.5964 183.697 43.5044 183.289 43.5044C182.881 43.5044 182.513 43.5964 182.185 43.7804C181.865 43.9644 181.609 44.2284 181.417 44.5724C181.233 44.9084 181.141 45.2964 181.141 45.7364C181.141 46.1764 181.233 46.5684 181.417 46.9124C181.609 47.2484 181.865 47.5124 182.185 47.7044C182.513 47.8884 182.881 47.9804 183.289 47.9804ZM188.253 42.5564H189.405V47.1884L193.305 42.5564H194.349V48.9164H193.197V44.2844L189.309 48.9164H188.253V42.5564ZM191.229 41.7284C190.637 41.7284 190.177 41.5884 189.849 41.3084C189.521 41.0204 189.353 40.6084 189.345 40.0724H190.125C190.133 40.3684 190.233 40.6084 190.425 40.7924C190.625 40.9684 190.889 41.0564 191.217 41.0564C191.545 41.0564 191.809 40.9684 192.009 40.7924C192.209 40.6084 192.313 40.3684 192.321 40.0724H193.125C193.117 40.6084 192.945 41.0204 192.609 41.3084C192.273 41.5884 191.813 41.7284 191.229 41.7284ZM203.179 42.4964C203.795 42.4964 204.347 42.6324 204.835 42.9044C205.323 43.1764 205.703 43.5564 205.975 44.0444C206.255 44.5324 206.395 45.0964 206.395 45.7364C206.395 46.3764 206.255 46.9444 205.975 47.4404C205.703 47.9284 205.323 48.3084 204.835 48.5804C204.347 48.8524 203.795 48.9884 203.179 48.9884C202.723 48.9884 202.303 48.9004 201.919 48.7244C201.543 48.5484 201.223 48.2924 200.959 47.9564V51.2444H199.807V42.5564H200.911V43.5644C201.167 43.2124 201.491 42.9484 201.883 42.7724C202.275 42.5884 202.707 42.4964 203.179 42.4964ZM203.083 47.9804C203.491 47.9804 203.855 47.8884 204.175 47.7044C204.503 47.5124 204.759 47.2484 204.943 46.9124C205.135 46.5684 205.231 46.1764 205.231 45.7364C205.231 45.2964 205.135 44.9084 204.943 44.5724C204.759 44.2284 204.503 43.9644 204.175 43.7804C203.855 43.5964 203.491 43.5044 203.083 43.5044C202.683 43.5044 202.319 43.6004 201.991 43.7924C201.671 43.9764 201.415 44.2364 201.223 44.5724C201.039 44.9084 200.947 45.2964 200.947 45.7364C200.947 46.1764 201.039 46.5684 201.223 46.9124C201.407 47.2484 201.663 47.5124 201.991 47.7044C202.319 47.8884 202.683 47.9804 203.083 47.9804ZM213.817 45.7724C213.817 45.8604 213.809 45.9764 213.793 46.1204H208.633C208.705 46.6804 208.949 47.1324 209.365 47.4764C209.789 47.8124 210.313 47.9804 210.937 47.9804C211.697 47.9804 212.309 47.7244 212.773 47.2124L213.409 47.9564C213.121 48.2924 212.761 48.5484 212.329 48.7244C211.905 48.9004 211.429 48.9884 210.901 48.9884C210.229 48.9884 209.633 48.8524 209.113 48.5804C208.593 48.3004 208.189 47.9124 207.901 47.4164C207.621 46.9204 207.481 46.3604 207.481 45.7364C207.481 45.1204 207.617 44.5644 207.889 44.0684C208.169 43.5724 208.549 43.1884 209.029 42.9164C209.517 42.6364 210.065 42.4964 210.673 42.4964C211.281 42.4964 211.821 42.6364 212.293 42.9164C212.773 43.1884 213.145 43.5724 213.409 44.0684C213.681 44.5644 213.817 45.1324 213.817 45.7724ZM210.673 43.4684C210.121 43.4684 209.657 43.6364 209.281 43.9724C208.913 44.3084 208.697 44.7484 208.633 45.2924H212.713C212.649 44.7564 212.429 44.3204 212.053 43.9844C211.685 43.6404 211.225 43.4684 210.673 43.4684ZM218.076 46.2284H216.756V48.9164H215.604V42.5564H216.756V45.2444H218.1L220.164 42.5564H221.4L218.988 45.6164L221.568 48.9164H220.212L218.076 46.2284ZM228.236 42.5564V48.9164H227.084V43.5644H224.348L224.276 44.9804C224.236 45.8364 224.16 46.5524 224.048 47.1284C223.936 47.6964 223.752 48.1524 223.496 48.4964C223.24 48.8404 222.884 49.0124 222.428 49.0124C222.22 49.0124 221.984 48.9764 221.72 48.9044L221.792 47.9324C221.896 47.9564 221.992 47.9684 222.08 47.9684C222.4 47.9684 222.64 47.8284 222.8 47.5484C222.96 47.2684 223.064 46.9364 223.112 46.5524C223.16 46.1684 223.204 45.6204 223.244 44.9084L223.352 42.5564H228.236ZM232.732 42.4964C233.612 42.4964 234.284 42.7124 234.748 43.1444C235.22 43.5764 235.456 44.2204 235.456 45.0764V48.9164H234.364V48.0764C234.172 48.3724 233.896 48.6004 233.536 48.7604C233.184 48.9124 232.764 48.9884 232.276 48.9884C231.564 48.9884 230.992 48.8164 230.56 48.4724C230.136 48.1284 229.924 47.6764 229.924 47.1164C229.924 46.5564 230.128 46.1084 230.536 45.7724C230.944 45.4284 231.592 45.2564 232.48 45.2564H234.304V45.0284C234.304 44.5324 234.16 44.1524 233.872 43.8884C233.584 43.6244 233.16 43.4924 232.6 43.4924C232.224 43.4924 231.856 43.5564 231.496 43.6844C231.136 43.8044 230.832 43.9684 230.584 44.1764L230.104 43.3124C230.432 43.0484 230.824 42.8484 231.28 42.7124C231.736 42.5684 232.22 42.4964 232.732 42.4964ZM232.468 48.1004C232.908 48.1004 233.288 48.0044 233.608 47.8124C233.928 47.6124 234.16 47.3324 234.304 46.9724V46.0844H232.528C231.552 46.0844 231.064 46.4124 231.064 47.0684C231.064 47.3884 231.188 47.6404 231.436 47.8244C231.684 48.0084 232.028 48.1004 232.468 48.1004ZM244.862 42.5564V48.9164H243.818V44.2724L241.442 48.1964H240.938L238.586 44.2604V48.9164H237.53V42.5564H238.718L241.214 46.8524L243.782 42.5564H244.862ZM252.852 45.7724C252.852 45.8604 252.844 45.9764 252.828 46.1204H247.668C247.74 46.6804 247.984 47.1324 248.4 47.4764C248.824 47.8124 249.348 47.9804 249.972 47.9804C250.732 47.9804 251.344 47.7244 251.808 47.2124L252.444 47.9564C252.156 48.2924 251.796 48.5484 251.364 48.7244C250.94 48.9004 250.464 48.9884 249.936 48.9884C249.264 48.9884 248.668 48.8524 248.148 48.5804C247.628 48.3004 247.224 47.9124 246.936 47.4164C246.656 46.9204 246.516 46.3604 246.516 45.7364C246.516 45.1204 246.652 44.5644 246.924 44.0684C247.204 43.5724 247.584 43.1884 248.064 42.9164C248.552 42.6364 249.1 42.4964 249.708 42.4964C250.316 42.4964 250.856 42.6364 251.328 42.9164C251.808 43.1884 252.18 43.5724 252.444 44.0684C252.716 44.5644 252.852 45.1324 252.852 45.7724ZM249.708 43.4684C249.156 43.4684 248.692 43.6364 248.316 43.9724C247.948 44.3084 247.732 44.7484 247.668 45.2924H251.748C251.684 44.7564 251.464 44.3204 251.088 43.9844C250.72 43.6404 250.26 43.4684 249.708 43.4684Z" fill="white"/>
<path d="M83.1085 31.3419H84.5858V30.0215H83.1085V31.3419ZM88.0845 25.905C88.0067 25.905 87.929 25.9826 87.8512 25.9826C87.6957 26.0603 87.5402 26.138 87.3847 26.2933C87.307 26.4487 87.1515 26.604 87.0737 26.7593V25.9826H85.5965V31.4195H87.0737V27.07H88.7065V25.905C88.6287 25.905 88.4732 25.8273 88.3955 25.8273C88.3177 25.8273 88.1622 25.8273 88.0845 25.905ZM93.0605 25.905V30.1768H91.661C91.5055 30.1768 91.35 30.0991 91.1945 30.0215C91.039 29.8661 90.9612 29.7108 90.9612 29.5555V25.905H89.484V29.6331C89.484 30.0215 89.6395 30.4098 89.8727 30.7205C90.106 31.0312 90.3392 31.1865 90.728 31.2642C90.9612 31.3419 91.2722 31.3419 91.8165 31.3419H94.6155V25.905C94.5377 25.905 93.0605 25.905 93.0605 25.905ZM48.0435 47.0312L48.1212 56.1962L50.1427 54.2545L52.0087 58.5263L53.4859 57.905L51.6977 53.6331L54.7299 53.4778L48.0435 47.0312Z" fill="#E01524"/>
<path d="M31.5607 24.5069H22.3862C21.2977 24.5069 20.2092 24.7399 19.2762 25.2059C18.2655 25.6719 17.4102 26.2933 16.7105 27.07C16.4772 27.3807 16.244 27.6914 15.933 28.002C15.6997 28.3904 15.5442 28.8564 15.3887 29.3224C15.1555 30.1768 15 31.1088 15 32.1185V41.5943C15 42.2156 15.0777 42.7593 15.1555 43.1477C15.2332 43.536 15.3887 43.9244 15.4665 44.1574C15.933 45.1671 16.4772 46.0215 17.177 46.7205C17.8767 47.4195 18.6542 47.9632 19.5095 48.2739C19.8982 48.4292 20.3647 48.5846 20.909 48.6622C21.4532 48.8176 22.0752 48.8176 22.6972 48.8176H31.4829C31.7162 48.8176 31.7939 48.7399 31.7939 48.5069V44.7787C31.7939 44.5457 31.7162 44.4681 31.4829 44.4681H22.6195C21.842 44.3904 21.22 44.1574 20.7535 43.6914C20.287 43.2253 20.0537 42.604 19.976 41.8273V33.2059C19.976 32.0409 20.2092 31.1088 20.598 30.3321C21.0645 29.6331 21.6865 29.1671 22.6195 28.9341H31.4829C31.7162 28.9341 31.7939 28.8564 31.7939 28.6234V24.8176C31.8717 24.5846 31.7939 24.5069 31.5607 24.5069ZM38.5581 24.5069H35.0594C34.8261 24.5069 34.7484 24.5846 34.7484 24.8176V44.9341V45.0118V48.5069C34.7484 48.7399 34.8261 48.8176 35.0594 48.8176H38.5581C38.7914 48.8176 38.8691 48.7399 38.8691 48.5069V45.0118V44.9341V24.8176C38.8691 24.5846 38.7914 24.5069 38.5581 24.5069ZM45.6333 31.1865H42.1346C41.9014 31.1865 41.8236 31.2642 41.8236 31.4972V48.5069C41.8236 48.7399 41.9014 48.8176 42.1346 48.8176H45.6333C45.8666 48.8176 45.9443 48.7399 45.9443 48.5069V31.4972C45.9443 31.2642 45.8666 31.1865 45.6333 31.1865ZM45.6333 24.5069H42.1346C41.9014 24.5069 41.8236 24.5846 41.8236 24.8176V28.3127C41.8236 28.5457 41.9014 28.6234 42.1346 28.6234H45.6333C45.8666 28.6234 45.9443 28.5457 45.9443 28.3127V24.8176C45.9443 24.5846 45.8666 24.5069 45.6333 24.5069ZM62.9715 31.1865H57.1403C55.663 31.1865 54.3413 31.3418 53.2528 31.7302C52.1643 32.1185 51.2313 32.5846 50.5316 33.2059C49.8318 33.8273 49.2876 34.604 48.9766 35.536C48.6656 36.4681 48.5101 37.4778 48.5101 38.6428V41.5166C48.5101 42.371 48.6656 43.2253 49.0543 44.0797C49.4431 44.9341 49.9096 45.7108 50.6093 46.4875C51.3091 47.2642 52.1643 47.8079 53.0973 48.1962C54.108 48.6622 55.1965 48.8952 56.4405 48.8952H62.8937C63.127 48.8952 63.2047 48.8176 63.2047 48.5846V45.0894C63.2047 44.8564 63.127 44.7787 62.8937 44.7787H56.3628C54.9633 44.7787 53.9525 44.3904 53.3305 43.6914C52.7085 42.9923 52.3975 42.0603 52.3975 40.8952V39.4195C52.3975 38.2545 52.7085 37.3224 53.4083 36.4681C54.0303 35.6914 55.041 35.303 56.3628 35.303H62.8937C63.127 35.303 63.2047 35.2253 63.2047 34.9923V31.4972C63.2825 31.2642 63.2047 31.1865 62.9715 31.1865ZM82.0201 48.6622L75.1782 39.4972C75.1004 39.4195 75.1004 39.4195 75.0227 39.2642C74.9449 39.1088 74.9449 39.1088 74.9449 39.0312C74.9449 38.9535 74.9449 38.9535 75.0227 38.8758C75.1004 38.7982 75.1004 38.7205 75.1782 38.7205L81.6314 31.4972C81.7091 31.4195 81.7869 31.3418 81.7869 31.2642C81.7869 31.1865 81.7091 31.1865 81.6314 31.1865H77.1997C76.9664 31.1865 76.7332 31.2642 76.5777 31.4972L70.9797 37.7108C70.8242 37.9438 70.6687 38.1768 70.5132 38.4098C70.4355 38.6428 70.3577 38.8758 70.3577 39.1088C70.3577 39.3418 70.4355 39.5749 70.5132 39.8855C70.591 40.1185 70.7464 40.3516 70.902 40.5846L76.8887 48.5846C77.0442 48.8176 77.2774 48.8952 77.5107 48.8952H81.9424C82.0979 48.8952 82.1756 48.8176 82.0201 48.6622ZM69.347 24.5069H65.8482C65.615 24.5069 65.5372 24.5846 65.5372 24.8176V44.9341V45.0118V48.5069C65.5372 48.7399 65.615 48.8176 65.8482 48.8176H69.347C69.5802 48.8176 69.658 48.7399 69.658 48.5069V24.8176C69.658 24.5846 69.5802 24.5069 69.347 24.5069Z" fill="white"/>
</svg>
