<svg width="203" height="171" viewBox="0 0 203 171" fill="none" xmlns="http://www.w3.org/2000/svg">
<path fill-rule="evenodd" clip-rule="evenodd" d="M163.286 147.396H24.7324C19.6812 143.287 15.0668 138.142 10.7163 131.711C-49.2196 43.1045 168.606 10.7453 202.468 6.1389L203.388 6.01364C240.713 0.933909 295.372 -6.50475 349.692 18.9971C398.928 42.1117 441.717 95.0631 403.141 143.213C379.25 173.032 334.466 174.476 281.27 166.547C269.298 164.762 258.891 155.524 248.343 146.16C230.929 130.701 213.127 114.898 187.249 131.711C183.841 133.925 180.651 136.064 177.593 138.114C172.592 141.467 167.947 144.581 163.286 147.396Z" fill="url(#paint0_linear)"/>
<defs>
<linearGradient id="paint0_linear" x1="427.984" y1="6.98847" x2="110.825" y2="292.358" gradientUnits="userSpaceOnUse">
<stop offset="0.232963" stop-color="#F16A51"/>
<stop offset="0.656448" stop-color="#B761F2"/>
<stop offset="0.979167" stop-color="#5869FF"/>
</linearGradient>
</defs>
</svg>
