<svg width="640" height="497" viewBox="0 0 640 497" fill="none" xmlns="http://www.w3.org/2000/svg">
<g clip-path="url(#clip0)">
<path opacity="0.5" d="M370.431 396.443L219.797 320.506C215.538 318.353 215.822 314.171 220.427 311.145L316.494 248.18C321.1 245.155 328.292 244.456 332.55 246.598L483.185 322.535C487.444 324.687 487.16 328.87 482.554 331.896L386.488 394.86C381.892 397.885 374.7 398.584 370.431 396.443Z" fill="#173D7A"/>
<path d="M521.697 140.761L359.814 59.1623C357.937 58.2171 356.071 58.1527 354.466 58.8148L354.474 58.7942L354.191 58.9205C354.172 58.9316 354.142 58.9433 354.123 58.9544L348.585 61.4422L353.808 63.6398C353.793 63.7308 353.768 63.8223 353.754 63.9233L333.207 191.452C332.259 197.346 335.2 203.99 339.778 206.294L497.764 285.93L497.583 292.441L503.637 289.693C505.659 288.607 507.201 286.306 507.712 283.132L528.259 155.603C529.227 149.719 526.286 143.075 521.697 140.761Z" fill="#173D7A"/>
<path d="M521.697 140.761L359.814 59.1623C357.937 58.2171 356.071 58.1528 354.466 58.8148L354.474 58.7942L354.191 58.9205C354.172 58.9316 354.142 58.9433 354.123 58.9544L348.585 61.4422L353.808 63.6398C353.793 63.7308 353.768 63.8223 353.754 63.9233L339.664 151.332L419.752 206.733L527.005 146.74C525.813 144.093 523.956 141.905 521.697 140.761Z" fill="#396CAA"/>
<path d="M516.801 158.968L528.444 153.209C528.401 148.574 526.213 143.91 522.933 141.532L504.494 150.551L516.801 158.968Z" fill="#274F89"/>
<path d="M492.117 292.13L330.233 210.532C325.655 208.227 322.713 201.573 323.662 195.69L344.209 68.1609C345.156 62.2678 349.639 59.3691 354.217 61.6734L516.101 143.272C520.679 145.576 523.62 152.23 522.672 158.114L502.125 285.643C501.178 291.546 496.695 294.444 492.117 292.13Z" fill="#D4ECFF"/>
<path d="M517.578 142.647L355.694 61.0487C353.477 59.9326 351.291 60.0566 349.509 61.1293C350.968 60.726 352.588 60.8544 354.218 61.6834L516.101 143.282C520.679 145.586 523.621 152.24 522.673 158.124L502.126 285.653C501.637 288.685 500.2 290.91 498.302 292.05C500.915 291.32 502.985 288.799 503.592 285.019L524.139 157.489C525.097 151.606 522.156 144.952 517.578 142.647Z" fill="white"/>
<path d="M488.232 283.687L335.981 206.98C331.794 204.864 329.096 198.787 329.962 193.399L348.903 75.8673C349.769 70.4796 353.875 67.8227 358.062 69.9389L510.312 146.645C514.499 148.762 517.198 154.838 516.332 160.226L497.39 277.748C496.524 283.136 492.418 285.793 488.232 283.687Z" fill="white"/>
<path d="M488.232 283.687L335.981 206.98C331.794 204.864 329.096 198.787 329.962 193.399L348.903 75.8673C349.769 70.4796 353.875 67.8227 358.062 69.9389L510.312 146.645C514.499 148.762 517.198 154.838 516.332 160.226L497.39 277.748C496.524 283.136 492.418 285.793 488.232 283.687Z" fill="#223D69"/>
<path d="M489.49 283.084L337.239 206.378C333.052 204.262 330.354 198.185 331.22 192.797L350.161 75.2651C350.597 72.536 351.875 70.5204 353.557 69.4533C351.255 70.185 349.452 72.4908 348.902 75.8574L329.972 193.399C329.106 198.787 331.795 204.874 335.991 206.98L488.242 283.686C490.314 284.73 492.361 284.604 494.004 283.559C492.617 283.999 491.057 283.877 489.49 283.084Z" fill="#5793CE"/>
<path d="M494.507 295.951L472.921 294.341L330.082 222.339C325.504 220.035 317.774 220.794 312.82 224.04L218.028 286.161L204.972 285.189L205.389 292.537L205.399 292.536C205.415 294.238 206.467 295.821 208.632 296.91L370.515 378.509C375.093 380.813 382.823 380.054 387.777 376.808L491.019 309.15C493.8 307.319 495.116 305.101 494.922 303.089L494.517 295.95L494.507 295.951Z" fill="#173D7A"/>
<path d="M387.72 251.39L377.574 246.277L269.538 252.408L218.018 286.161L204.962 285.189L205.379 292.538L205.389 292.537C205.405 294.239 206.457 295.822 208.622 296.911L370.505 378.51C372.929 379.734 376.224 380.088 379.526 379.68L387.72 251.39Z" fill="#396CAA"/>
<path d="M210.766 285.621L204.972 285.189L205.389 292.537L205.399 292.536C205.415 294.238 206.467 295.821 208.632 296.91L211.488 298.351L210.766 285.621Z" fill="#5793CE"/>
<path d="M372.135 379.158C376.429 380.517 382.419 379.827 386.78 377.416L385.849 361.022L371.153 361.856L372.135 379.158Z" fill="#274F89"/>
<path d="M370.099 371.171L208.215 289.562C203.637 287.258 203.942 282.753 208.886 279.508L312.129 211.849C317.083 208.604 324.812 207.844 329.39 210.149L491.274 291.747C495.851 294.052 495.546 298.556 490.602 301.802L387.36 369.46C382.406 372.716 374.677 373.475 370.099 371.171Z" fill="#D4ECFF"/>
<path d="M490.44 299.126L387.198 366.785C382.244 370.031 374.515 370.79 369.937 368.486L208.063 286.876C206.557 286.121 205.599 285.123 205.136 284.018C204.566 286.153 205.565 288.23 208.215 289.562L370.098 371.161C374.676 373.465 382.406 372.706 387.36 369.46L490.602 301.802C493.934 299.619 495.15 296.876 494.21 294.606C493.778 296.163 492.526 297.756 490.44 299.126Z" fill="white"/>
<path d="M273.178 255.827L265.857 252.136C265.269 251.839 265.307 251.266 265.944 250.849L274.036 245.542C274.674 245.125 275.66 245.029 276.258 245.326L283.579 249.017C284.166 249.314 284.129 249.887 283.491 250.304L275.399 255.601C274.761 256.018 273.765 256.114 273.178 255.827Z" fill="#5793CE"/>
<path d="M284.489 261.525L277.168 257.834C276.58 257.537 276.618 256.964 277.255 256.547L285.348 251.24C285.985 250.823 286.971 250.727 287.569 251.024L294.89 254.715C295.478 255.012 295.44 255.585 294.803 256.002L286.71 261.309C286.073 261.726 285.077 261.823 284.489 261.525Z" fill="#5793CE"/>
<path d="M295.8 267.224L288.479 263.532C287.891 263.235 287.929 262.662 288.566 262.245L296.659 256.938C297.296 256.522 298.282 256.426 298.88 256.722L306.201 260.413C306.789 260.711 306.751 261.284 306.114 261.7L298.021 267.007C297.384 267.424 296.388 267.521 295.8 267.224Z" fill="#5793CE"/>
<path d="M310.659 261.142L303.338 257.451C302.751 257.154 302.788 256.581 303.426 256.164L310.224 251.711C310.862 251.295 311.848 251.199 312.446 251.495L319.766 255.186C320.354 255.483 320.317 256.057 319.679 256.473L312.881 260.926C312.233 261.343 311.247 261.439 310.659 261.142Z" fill="#5793CE"/>
<path d="M321.971 266.85L314.65 263.159C314.062 262.862 314.1 262.289 314.737 261.872L321.536 257.42C322.173 257.003 323.159 256.907 323.757 257.203L331.078 260.895C331.666 261.192 331.628 261.765 330.991 262.182L324.192 266.634C323.544 267.041 322.558 267.137 321.971 266.85Z" fill="#5793CE"/>
<path d="M333.282 272.548L325.961 268.857C325.373 268.56 325.411 267.987 326.048 267.57L332.847 263.118C333.484 262.701 334.47 262.605 335.068 262.902L342.389 266.593C342.977 266.89 342.939 267.463 342.302 267.88L335.503 272.332C334.856 272.75 333.87 272.846 333.282 272.548Z" fill="#5793CE"/>
<path d="M344.593 278.247L337.272 274.556C336.684 274.258 336.722 273.685 337.359 273.269L344.158 268.816C344.795 268.399 345.781 268.303 346.379 268.6L353.7 272.291C354.288 272.588 354.25 273.161 353.613 273.578L346.814 278.03C346.167 278.448 345.181 278.544 344.593 278.247Z" fill="#5793CE"/>
<path d="M355.904 283.955L348.584 280.264C347.996 279.967 348.033 279.394 348.671 278.977L355.469 274.524C356.107 274.108 357.093 274.012 357.691 274.308L365.012 277.999C365.599 278.296 365.562 278.87 364.924 279.286L358.126 283.739C357.478 284.146 356.492 284.252 355.904 283.955Z" fill="#5793CE"/>
<path d="M367.216 289.653L359.895 285.962C359.307 285.665 359.344 285.092 359.982 284.675L366.781 280.223C367.418 279.806 368.404 279.71 369.002 280.006L376.323 283.698C376.911 283.995 376.873 284.568 376.236 284.985L369.437 289.437C368.79 289.854 367.803 289.95 367.216 289.653Z" fill="#5793CE"/>
<path d="M378.527 295.351L371.206 291.66C370.618 291.363 370.656 290.79 371.293 290.373L378.092 285.921C378.729 285.504 379.715 285.408 380.313 285.705L387.634 289.396C388.222 289.693 388.184 290.266 387.547 290.683L380.748 295.135C380.101 295.553 379.114 295.649 378.527 295.351Z" fill="#5793CE"/>
<path d="M389.838 301.06L382.517 297.369C381.93 297.071 381.967 296.498 382.605 296.082L389.403 291.629C390.041 291.212 391.027 291.116 391.624 291.413L398.945 295.104C399.533 295.401 399.496 295.974 398.858 296.391L392.06 300.843C391.412 301.261 390.426 301.357 389.838 301.06Z" fill="#5793CE"/>
<path d="M401.149 306.758L393.828 303.067C393.241 302.77 393.278 302.197 393.916 301.78L400.714 297.327C401.352 296.911 402.338 296.815 402.936 297.111L410.256 300.802C410.844 301.1 410.807 301.673 410.169 302.089L403.371 306.542C402.723 306.959 401.737 307.055 401.149 306.758Z" fill="#5793CE"/>
<path d="M412.46 312.456L405.139 308.765C404.552 308.468 404.589 307.895 405.227 307.478L412.025 303.026C412.663 302.609 413.649 302.513 414.247 302.809L421.567 306.501C422.155 306.798 422.118 307.371 421.48 307.788L414.682 312.24C414.034 312.657 413.048 312.753 412.46 312.456Z" fill="#5793CE"/>
<path d="M326.623 257.231L319.302 253.54C318.715 253.243 318.752 252.67 319.39 252.253L326.188 247.801C326.826 247.384 327.812 247.288 328.41 247.584L335.73 251.275C336.318 251.573 336.281 252.146 335.643 252.563L328.845 257.015C328.207 257.432 327.211 257.528 326.623 257.231Z" fill="#5793CE"/>
<path d="M315.147 251.452L307.827 247.761C307.239 247.464 307.276 246.891 307.914 246.474L314.712 242.022C315.35 241.605 316.336 241.509 316.934 241.805L324.255 245.496C324.842 245.794 324.805 246.367 324.167 246.783L317.369 251.236C316.721 251.643 315.735 251.739 315.147 251.452Z" fill="#5793CE"/>
<path d="M303.64 245.655L287.865 237.706C287.277 237.409 287.315 236.836 287.952 236.419L294.751 231.966C295.388 231.55 296.374 231.454 296.972 231.75L312.748 239.699C313.335 239.996 313.298 240.569 312.66 240.986L305.862 245.438C305.224 245.845 304.228 245.952 303.64 245.655Z" fill="#5793CE"/>
<path d="M310.984 237.395L298.178 230.941C297.59 230.643 297.628 230.07 298.265 229.654L305.064 225.201C305.701 224.784 306.687 224.688 307.285 224.985L320.091 231.44C320.679 231.737 320.642 232.31 320.004 232.727L313.206 237.179C312.558 237.586 311.572 237.693 310.984 237.395Z" fill="#5793CE"/>
<path d="M337.935 262.939L330.614 259.248C330.026 258.951 330.064 258.378 330.701 257.961L337.5 253.509C338.137 253.092 339.123 252.996 339.721 253.293L347.042 256.984C347.63 257.281 347.592 257.854 346.955 258.271L340.156 262.723C339.519 263.14 338.523 263.236 337.935 262.939Z" fill="#5793CE"/>
<path d="M349.246 268.638L341.925 264.946C341.337 264.649 341.375 264.076 342.012 263.659L348.811 259.207C349.448 258.79 350.434 258.694 351.032 258.991L358.353 262.682C358.941 262.979 358.903 263.552 358.266 263.969L351.467 268.421C350.83 268.838 349.834 268.935 349.246 268.638Z" fill="#5793CE"/>
<path d="M360.557 274.336L353.236 270.645C352.648 270.348 352.686 269.775 353.323 269.358L360.122 264.905C360.759 264.489 361.745 264.393 362.343 264.689L369.664 268.38C370.252 268.677 370.214 269.25 369.577 269.667L362.778 274.12C362.141 274.536 361.145 274.633 360.557 274.336Z" fill="#5793CE"/>
<path d="M371.869 280.044L364.548 276.353C363.96 276.056 363.998 275.483 364.635 275.066L371.434 270.614C372.071 270.197 373.057 270.101 373.655 270.397L380.976 274.088C381.564 274.386 381.526 274.959 380.889 275.376L374.09 279.828C373.453 280.245 372.456 280.341 371.869 280.044Z" fill="#5793CE"/>
<path d="M383.18 285.742L375.859 282.051C375.271 281.754 375.309 281.181 375.946 280.764L382.745 276.312C383.382 275.895 384.368 275.799 384.966 276.096L392.287 279.787C392.875 280.084 392.837 280.657 392.2 281.074L385.401 285.526C384.764 285.943 383.767 286.04 383.18 285.742Z" fill="#5793CE"/>
<path d="M394.491 291.451L387.17 287.759C386.583 287.462 386.62 286.889 387.258 286.472L394.056 282.02C394.694 281.603 395.68 281.507 396.278 281.804L403.598 285.495C404.186 285.792 404.149 286.365 403.511 286.782L396.713 291.234C396.075 291.641 395.078 291.738 394.491 291.451Z" fill="#5793CE"/>
<path d="M405.802 297.149L398.481 293.458C397.894 293.161 397.931 292.588 398.569 292.171L405.367 287.718C406.005 287.302 406.991 287.206 407.589 287.502L414.909 291.193C415.497 291.49 415.46 292.063 414.822 292.48L408.024 296.933C407.386 297.349 406.39 297.446 405.802 297.149Z" fill="#5793CE"/>
<path d="M417.113 302.847L409.792 299.156C409.205 298.859 409.242 298.286 409.88 297.869L416.678 293.417C417.316 293 418.302 292.904 418.9 293.2L426.22 296.892C426.808 297.189 426.771 297.762 426.133 298.179L419.335 302.631C418.697 303.048 417.701 303.144 417.113 302.847Z" fill="#5793CE"/>
<path d="M428.425 308.555L421.104 304.864C420.516 304.567 420.554 303.994 421.191 303.577L427.99 299.125C428.627 298.708 429.613 298.612 430.211 298.909L437.532 302.6C438.12 302.897 438.082 303.47 437.445 303.887L430.646 308.339C430.008 308.746 429.013 308.853 428.425 308.555Z" fill="#5793CE"/>
<path d="M448.532 318.692L432.549 310.635C431.962 310.338 431.999 309.765 432.637 309.348L439.435 304.896C440.073 304.479 441.059 304.383 441.657 304.679L457.639 312.737C458.227 313.034 458.189 313.607 457.552 314.024L450.753 318.476C450.115 318.883 449.119 318.98 448.532 318.692Z" fill="#5793CE"/>
<path d="M469.158 305.162L455.671 298.365C455.084 298.068 455.121 297.495 455.759 297.078L462.557 292.626C463.195 292.209 464.181 292.113 464.778 292.41L478.265 299.206C478.853 299.504 478.815 300.077 478.178 300.493L471.379 304.946C470.742 305.363 469.746 305.459 469.158 305.162Z" fill="#5793CE"/>
<path d="M357.044 260.613L349.723 256.922C349.135 256.625 349.173 256.052 349.81 255.635L356.609 251.182C357.246 250.766 358.232 250.67 358.83 250.966L366.151 254.657C366.739 254.954 366.701 255.527 366.064 255.944L359.265 260.397C358.628 260.813 357.632 260.91 357.044 260.613Z" fill="#5793CE"/>
<path d="M345.454 254.77L338.133 251.079C337.545 250.782 337.583 250.209 338.22 249.792L345.019 245.34C345.656 244.923 346.643 244.827 347.24 245.123L354.561 248.815C355.149 249.112 355.111 249.685 354.474 250.102L347.675 254.554C347.027 254.961 346.042 255.067 345.454 254.77Z" fill="#5793CE"/>
<path d="M333.854 248.928L326.534 245.237C325.946 244.94 325.983 244.367 326.621 243.95L333.419 239.498C334.057 239.081 335.043 238.985 335.641 239.281L342.962 242.972C343.549 243.27 343.512 243.843 342.874 244.259L336.076 248.712C335.438 249.119 334.442 249.215 333.854 248.928Z" fill="#5793CE"/>
<path d="M322.264 243.075L314.943 239.384C314.355 239.087 314.393 238.514 315.03 238.097L321.829 233.645C322.467 233.228 323.453 233.132 324.05 233.429L331.371 237.12C331.959 237.417 331.922 237.99 331.284 238.407L324.485 242.859C323.848 243.276 322.852 243.372 322.264 243.075Z" fill="#5793CE"/>
<path d="M368.355 266.311L361.034 262.62C360.446 262.323 360.484 261.75 361.121 261.333L367.92 256.881C368.557 256.464 369.543 256.368 370.141 256.664L377.462 260.356C378.05 260.653 378.012 261.226 377.375 261.643L370.576 266.095C369.939 266.512 368.943 266.608 368.355 266.311Z" fill="#5793CE"/>
<path d="M379.666 272.019L372.345 268.328C371.758 268.031 371.795 267.458 372.433 267.041L379.231 262.589C379.869 262.172 380.855 262.076 381.453 262.373L388.774 266.064C389.361 266.361 389.324 266.934 388.686 267.351L381.888 271.803C381.25 272.21 380.254 272.307 379.666 272.019Z" fill="#5793CE"/>
<path d="M390.977 277.718L383.657 274.027C383.069 273.729 383.106 273.156 383.744 272.739L390.542 268.287C391.18 267.87 392.166 267.774 392.764 268.071L400.085 271.762C400.672 272.059 400.635 272.632 399.997 273.049L393.199 277.501C392.561 277.918 391.565 278.015 390.977 277.718Z" fill="#5793CE"/>
<path d="M402.288 283.416L394.968 279.725C394.38 279.428 394.417 278.855 395.055 278.438L401.853 273.985C402.491 273.569 403.477 273.473 404.075 273.769L411.396 277.46C411.983 277.757 411.946 278.331 411.308 278.747L404.51 283.2C403.872 283.616 402.876 283.713 402.288 283.416Z" fill="#5793CE"/>
<path d="M413.6 289.124L406.279 285.433C405.691 285.136 405.729 284.563 406.366 284.146L413.165 279.694C413.802 279.277 414.789 279.181 415.386 279.477L422.707 283.169C423.295 283.466 423.257 284.039 422.62 284.456L415.821 288.908C415.183 289.315 414.188 289.421 413.6 289.124Z" fill="#5793CE"/>
<path d="M424.911 294.822L417.59 291.131C417.002 290.834 417.04 290.261 417.677 289.844L424.476 285.392C425.114 284.975 426.1 284.879 426.697 285.176L434.018 288.867C434.606 289.164 434.569 289.737 433.931 290.154L427.132 294.606C426.495 295.023 425.499 295.12 424.911 294.822Z" fill="#5793CE"/>
<path d="M436.222 300.521L428.901 296.83C428.313 296.532 428.351 295.959 428.988 295.543L435.787 291.09C436.425 290.673 437.411 290.577 438.008 290.874L445.329 294.565C445.917 294.862 445.88 295.435 445.242 295.852L438.443 300.304C437.806 300.721 436.81 300.818 436.222 300.521Z" fill="#5793CE"/>
<path d="M447.534 306.229L440.213 302.538C439.625 302.241 439.663 301.668 440.3 301.251L447.099 296.798C447.736 296.382 448.722 296.286 449.32 296.582L456.641 300.273C457.229 300.57 457.191 301.144 456.554 301.56L449.755 306.013C449.117 306.42 448.122 306.526 447.534 306.229Z" fill="#5793CE"/>
<path d="M458.845 311.927L451.524 308.236C450.936 307.939 450.974 307.366 451.611 306.949L458.41 302.497C459.047 302.08 460.033 301.984 460.631 302.28L467.952 305.972C468.54 306.269 468.502 306.842 467.865 307.259L461.066 311.711C460.429 312.128 459.433 312.224 458.845 311.927Z" fill="#5793CE"/>
<path d="M350.385 245.296L343.064 241.604C342.476 241.307 342.514 240.734 343.151 240.317L349.95 235.865C350.588 235.448 351.574 235.352 352.171 235.649L359.492 239.34C360.08 239.637 360.043 240.21 359.405 240.627L352.606 245.079C351.969 245.496 350.973 245.593 350.385 245.296Z" fill="#5793CE"/>
<path d="M339.136 239.624L331.815 235.933C331.227 235.636 331.265 235.062 331.902 234.646L338.701 230.193C339.338 229.777 340.324 229.681 340.922 229.977L348.243 233.668C348.831 233.965 348.793 234.538 348.156 234.955L341.357 239.408C340.71 239.825 339.724 239.921 339.136 239.624Z" fill="#5793CE"/>
<path d="M327.876 233.953L320.555 230.262C319.968 229.964 320.005 229.391 320.643 228.975L327.441 224.522C328.079 224.105 329.065 224.009 329.663 224.306L336.983 227.997C337.571 228.294 337.534 228.867 336.896 229.284L330.098 233.736C329.46 234.153 328.464 234.25 327.876 233.953Z" fill="#5793CE"/>
<path d="M316.627 228.281L309.306 224.59C308.718 224.293 308.756 223.72 309.393 223.303L316.192 218.85C316.829 218.434 317.815 218.338 318.413 218.634L325.734 222.325C326.322 222.623 326.284 223.196 325.647 223.612L318.848 228.065C318.2 228.472 317.215 228.578 316.627 228.281Z" fill="#5793CE"/>
<path d="M327.462 221.176L320.141 217.485C319.553 217.187 319.591 216.614 320.228 216.198L322.478 214.728C323.116 214.311 324.102 214.215 324.7 214.511L332.021 218.203C332.608 218.5 332.571 219.073 331.933 219.49L329.683 220.959C329.045 221.366 328.049 221.463 327.462 221.176Z" fill="#5793CE"/>
<path d="M342.155 228.575L334.834 224.884C334.246 224.587 334.283 224.014 334.921 223.597L337.171 222.127C337.809 221.71 338.795 221.614 339.393 221.911L346.713 225.602C347.301 225.899 347.264 226.472 346.626 226.889L344.376 228.359C343.728 228.776 342.742 228.872 342.155 228.575Z" fill="#5793CE"/>
<path d="M353.363 234.229L346.042 230.538C345.454 230.241 345.492 229.668 346.129 229.251L348.38 227.781C349.017 227.364 350.003 227.268 350.601 227.565L357.922 231.256C358.51 231.553 358.472 232.126 357.835 232.543L355.584 234.013C354.936 234.42 353.95 234.516 353.363 234.229Z" fill="#5793CE"/>
<path d="M364.571 239.873L357.25 236.182C356.662 235.885 356.7 235.312 357.337 234.895L359.587 233.425C360.225 233.008 361.211 232.912 361.809 233.209L369.13 236.9C369.717 237.197 369.68 237.77 369.042 238.187L366.792 239.657C366.145 240.074 365.159 240.17 364.571 239.873Z" fill="#5793CE"/>
<path d="M375.779 245.527L368.458 241.836C367.87 241.539 367.908 240.966 368.545 240.549L370.796 239.079C371.433 238.662 372.419 238.566 373.017 238.863L380.338 242.554C380.926 242.851 380.888 243.424 380.251 243.841L378 245.311C377.353 245.728 376.367 245.824 375.779 245.527Z" fill="#5793CE"/>
<path d="M438.346 277.063L431.026 273.371C430.438 273.074 430.475 272.501 431.113 272.084L433.363 270.615C434.001 270.198 434.987 270.102 435.584 270.398L442.905 274.09C443.493 274.387 443.456 274.96 442.818 275.377L440.568 276.846C439.93 277.263 438.934 277.36 438.346 277.063Z" fill="#5793CE"/>
<path d="M449.555 282.717L442.234 279.025C441.646 278.728 441.684 278.155 442.321 277.738L444.571 276.269C445.209 275.852 446.195 275.756 446.793 276.052L454.114 279.744C454.701 280.041 454.664 280.614 454.026 281.031L451.776 282.5C451.139 282.917 450.143 283.014 449.555 282.717Z" fill="#5793CE"/>
<path d="M460.763 288.371L453.442 284.679C452.855 284.382 452.892 283.809 453.53 283.392L455.78 281.923C456.417 281.506 457.403 281.41 458.001 281.706L465.322 285.398C465.91 285.695 465.872 286.268 465.235 286.685L462.985 288.154C462.347 288.561 461.351 288.668 460.763 288.371Z" fill="#5793CE"/>
<path d="M471.971 294.015L464.65 290.324C464.062 290.026 464.1 289.453 464.737 289.037L466.988 287.567C467.625 287.15 468.611 287.054 469.209 287.35L476.53 291.042C477.118 291.339 477.08 291.912 476.443 292.329L474.192 293.798C473.555 294.215 472.559 294.312 471.971 294.015Z" fill="#5793CE"/>
<path d="M361.697 251.004L354.376 247.313C353.788 247.015 353.826 246.442 354.463 246.026L361.262 241.573C361.899 241.156 362.885 241.06 363.483 241.357L370.804 245.048C371.392 245.345 371.354 245.918 370.717 246.335L363.918 250.788C363.28 251.194 362.284 251.291 361.697 251.004Z" fill="#5793CE"/>
<path d="M373.008 256.702L365.687 253.011C365.099 252.714 365.137 252.141 365.774 251.724L372.573 247.272C373.21 246.855 374.196 246.759 374.794 247.055L382.115 250.746C382.703 251.044 382.665 251.617 382.028 252.033L375.229 256.486C374.592 256.903 373.596 256.999 373.008 256.702Z" fill="#5793CE"/>
<path d="M384.319 262.4L376.998 258.709C376.41 258.412 376.448 257.839 377.085 257.422L383.884 252.97C384.521 252.553 385.507 252.457 386.105 252.754L393.426 256.445C394.014 256.742 393.976 257.315 393.339 257.732L386.54 262.184C385.903 262.601 384.907 262.697 384.319 262.4Z" fill="#5793CE"/>
<path d="M395.63 268.109L388.31 264.417C387.722 264.12 387.759 263.547 388.397 263.13L395.195 258.678C395.833 258.261 396.819 258.165 397.417 258.462L404.738 262.153C405.325 262.45 405.288 263.023 404.65 263.44L397.852 267.892C397.214 268.299 396.218 268.406 395.63 268.109Z" fill="#5793CE"/>
<path d="M406.941 273.807L399.621 270.116C399.033 269.819 399.07 269.245 399.708 268.829L406.506 264.376C407.144 263.96 408.13 263.863 408.728 264.16L416.049 267.851C416.636 268.148 416.599 268.721 415.961 269.138L409.163 273.591C408.525 274.007 407.529 274.104 406.941 273.807Z" fill="#5793CE"/>
<path d="M418.253 279.505L410.932 275.814C410.344 275.517 410.381 274.944 411.019 274.527L417.817 270.075C418.455 269.658 419.441 269.562 420.039 269.858L427.36 273.549C427.947 273.847 427.91 274.42 427.272 274.836L420.474 279.289C419.836 279.706 418.84 279.802 418.253 279.505Z" fill="#5793CE"/>
<path d="M429.564 285.213L422.243 281.522C421.655 281.225 421.693 280.652 422.33 280.235L429.129 275.783C429.767 275.366 430.753 275.27 431.35 275.567L438.671 279.258C439.259 279.555 439.222 280.128 438.584 280.545L431.785 284.997C431.148 285.414 430.152 285.51 429.564 285.213Z" fill="#5793CE"/>
<path d="M440.875 290.912L433.554 287.22C432.967 286.923 433.004 286.35 433.642 285.933L440.44 281.481C441.078 281.064 442.064 280.968 442.661 281.265L449.982 284.956C450.57 285.253 450.533 285.826 449.895 286.243L443.097 290.695C442.459 291.112 441.463 291.209 440.875 290.912Z" fill="#5793CE"/>
<path d="M452.186 296.61L444.865 292.919C444.278 292.622 444.315 292.048 444.953 291.632L451.751 287.179C452.389 286.763 453.375 286.667 453.973 286.963L461.293 290.654C461.881 290.951 461.844 291.524 461.206 291.941L454.408 296.394C453.77 296.81 452.784 296.906 452.186 296.61Z" fill="#5793CE"/>
<path d="M299.132 255.336L277.561 244.46C276.973 244.163 277.011 243.59 277.648 243.173L284.447 238.721C285.084 238.304 286.07 238.208 286.668 238.505L308.239 249.38C308.827 249.677 308.789 250.25 308.152 250.667L301.353 255.12C300.706 255.537 299.72 255.633 299.132 255.336Z" fill="#5793CE"/>
<path d="M438.094 325.385L416.523 314.509C415.935 314.212 415.973 313.639 416.61 313.222L423.409 308.77C424.046 308.353 425.033 308.257 425.63 308.554L447.201 319.429C447.789 319.726 447.751 320.299 447.114 320.716L440.315 325.168C439.668 325.586 438.682 325.682 438.094 325.385Z" fill="#5793CE"/>
<path d="M393.652 316.548L386.331 312.857C385.743 312.56 385.781 311.987 386.418 311.57L394.511 306.263C395.148 305.847 396.134 305.75 396.732 306.047L404.053 309.738C404.641 310.035 404.603 310.608 403.966 311.025L395.873 316.332C395.226 316.75 394.24 316.846 393.652 316.548Z" fill="#5793CE"/>
<path d="M311.504 275.137L299.79 269.231C299.202 268.934 299.24 268.361 299.877 267.944L307.97 262.637C308.607 262.22 309.593 262.124 310.191 262.42L321.904 268.326C322.492 268.623 322.455 269.196 321.817 269.613L313.725 274.92C313.087 275.337 312.091 275.434 311.504 275.137Z" fill="#5793CE"/>
<path d="M382.753 311.057L371.04 305.151C370.452 304.854 370.49 304.281 371.127 303.864L379.219 298.557C379.857 298.141 380.843 298.045 381.441 298.341L393.154 304.247C393.742 304.544 393.704 305.117 393.067 305.534L384.975 310.841C384.327 311.248 383.341 311.354 382.753 311.057Z" fill="#5793CE"/>
<path d="M327.826 283.365L316.113 277.459C315.525 277.162 315.562 276.589 316.2 276.172L324.292 270.865C324.929 270.448 325.916 270.352 326.513 270.649L338.227 276.555C338.815 276.852 338.777 277.425 338.14 277.842L330.047 283.149C329.4 283.566 328.414 283.662 327.826 283.365Z" fill="#5793CE"/>
<path d="M326.585 270.685L377.512 296.361C378.141 296.675 378.174 297.254 377.585 297.638L369.338 303.044C368.749 303.428 367.75 303.485 367.121 303.17L316.195 277.495L326.585 270.685Z" fill="#5793CE"/>
<path d="M424.903 326.273L433.059 330.388C433.544 330.631 433.511 331.103 432.989 331.444L429.677 333.615C429.155 333.955 428.339 334.041 427.864 333.798L419.708 329.683C419.223 329.44 419.257 328.968 419.778 328.628L423.091 326.456C423.612 326.116 424.429 326.03 424.903 326.273Z" fill="#5793CE"/>
<path d="M413.499 320.53L421.656 324.645C422.14 324.888 422.107 325.36 421.585 325.7L418.273 327.872C417.752 328.212 416.935 328.298 416.461 328.055L408.304 323.94C407.82 323.697 407.853 323.225 408.375 322.884L411.687 320.713C412.208 320.363 413.025 320.287 413.499 320.53Z" fill="#5793CE"/>
<path d="M402.188 314.822L410.344 318.937C410.829 319.179 410.795 319.652 410.274 319.992L406.961 322.163C406.44 322.503 405.623 322.59 405.149 322.346L396.993 318.232C396.508 317.989 396.541 317.516 397.063 317.176L400.375 315.005C400.897 314.665 401.713 314.579 402.188 314.822Z" fill="#5793CE"/>
<path d="M419.351 316.693L427.508 320.807C427.992 321.05 427.959 321.523 427.437 321.863L424.125 324.034C423.603 324.374 422.787 324.46 422.312 324.217L414.156 320.102C413.672 319.859 413.705 319.387 414.227 319.047L417.539 316.876C418.06 316.525 418.867 316.45 419.351 316.693Z" fill="#5793CE"/>
<path d="M455.619 190.845L394.681 160.139L395.222 156.262L456.16 186.969L455.619 190.845Z" fill="#D4ECFF"/>
<path d="M434.851 198.525L392.317 177.08L392.859 173.203L435.391 194.638L434.851 198.525Z" fill="#D4ECFF"/>
<path d="M430.299 187.154L393.499 168.609L394.041 164.733L430.84 183.277L430.299 187.154Z" fill="white"/>
<path d="M454.427 199.317L436.032 190.044L436.573 186.167L454.968 195.44L454.427 199.317Z" fill="#F16A51"/>
<path d="M386.502 127.029L368.107 117.757L368.648 113.88L387.043 123.152L386.502 127.029Z" fill="#D4ECFF"/>
<path d="M385.081 136.054L366.676 126.782L367.217 122.905L385.622 132.177L385.081 136.054Z" fill="white"/>
<path d="M479.527 254.723L461.132 245.451L461.673 241.564L480.068 250.847L479.527 254.723Z" fill="#D4ECFF"/>
<path d="M382.219 154.095L363.824 144.823L364.365 140.946L382.76 150.218L382.219 154.095Z" fill="#D4ECFF"/>
<path d="M420.864 154.677C420.365 155.947 418.962 156.467 417.715 155.847C416.478 155.226 415.87 153.688 416.369 152.418C416.867 151.147 418.27 150.627 419.517 151.247C420.765 151.868 421.363 153.406 420.864 154.677Z" fill="#F16A51"/>
<path d="M428.793 158.674C428.294 159.944 426.891 160.464 425.644 159.844C424.407 159.223 423.799 157.685 424.298 156.415C424.797 155.144 426.199 154.624 427.447 155.245C428.684 155.865 429.292 157.403 428.793 158.674Z" fill="white"/>
<path d="M436.712 162.661C436.213 163.932 434.81 164.452 433.563 163.832C432.326 163.211 431.718 161.673 432.217 160.403C432.715 159.132 434.118 158.612 435.365 159.232C436.613 159.863 437.211 161.391 436.712 162.661Z" fill="#D4ECFF"/>
<path d="M444.641 166.659C444.142 167.929 442.739 168.449 441.492 167.829C440.255 167.208 439.647 165.67 440.146 164.4C440.645 163.129 442.047 162.609 443.294 163.229C444.532 163.85 445.14 165.388 444.641 166.659Z" fill="#F16A51"/>
<path d="M242.831 343.574C242.831 343.574 238.98 341.9 236.843 344.835C234.706 347.781 231.798 354.597 231.942 359.086C232.097 363.574 235.724 363.068 237.841 361.886C239.947 360.705 245.765 351.15 246.052 349.321C246.329 347.502 245.362 345.113 244.726 344.669C244.08 344.234 242.831 343.574 242.831 343.574Z" fill="#C361F0"/>
<path d="M243.599 342.629L243.988 346.493C244.075 347.32 243.7 348.122 243.004 348.572C242.376 348.979 241.434 349.323 240.145 349.185C237.304 348.896 236.998 348.102 236.579 344.239C236.159 340.367 243.599 342.629 243.599 342.629Z" fill="#D4ECFF"/>
<path d="M228.7 336.894C228.7 336.894 224.849 335.22 222.712 338.155C220.575 341.101 217.667 347.917 217.811 352.406C217.966 356.894 221.593 356.388 223.709 355.206C225.816 354.025 231.634 344.47 231.921 342.641C232.207 340.812 231.231 338.433 230.595 337.988C229.949 337.554 228.7 336.894 228.7 336.894Z" fill="#C361F0"/>
<path d="M229.467 335.949L229.857 339.813C229.944 340.64 229.569 341.442 228.873 341.892C228.245 342.299 227.303 342.642 226.013 342.505C223.172 342.216 222.867 341.422 222.447 337.559C222.027 333.687 229.467 335.949 229.467 335.949Z" fill="#D4ECFF"/>
<path d="M258.833 262.848C256.701 244.88 239.455 266.612 239.455 266.612L227.556 279.677L216.912 292.791C214.834 295.353 213.992 298.696 214.606 301.936L221.183 336.64C221.511 338.354 223.061 339.538 224.797 339.429C225.286 339.402 225.853 339.319 226.486 339.183C230.543 338.312 230.023 334.435 230.023 334.435L227.328 301.785L250.345 286.066C250.344 286.056 260.964 280.806 258.833 262.848Z" fill="#173D7A"/>
<path d="M272.92 268.939C270.789 250.971 253.543 272.703 253.543 272.703L241.644 285.769L231 298.883C228.922 301.445 228.08 304.788 228.694 308.028L235.271 342.731C235.599 344.445 237.148 345.629 238.885 345.521C239.374 345.493 239.94 345.411 240.574 345.275C244.631 344.404 244.11 340.527 244.11 340.527L241.489 308.814L264.432 292.158C264.442 292.147 275.051 286.897 272.92 268.939Z" fill="#173D7A"/>
<path d="M258.743 211.681C273.03 216.679 273.218 224.942 273.218 224.942C273.218 224.942 272.2 255.358 274.285 275.503C275.153 283.927 229.923 287.145 235.393 264.218C241.842 237.199 237.636 215.853 241.186 212.397C244.727 208.96 255.044 210.388 258.743 211.681Z" fill="#C361F0"/>
<path d="M263.651 218.744C263.084 221.621 259.455 223.329 255.544 222.549C251.634 221.78 248.932 218.818 249.5 215.941C250.068 213.064 253.697 211.356 257.607 212.136C261.518 212.915 264.219 215.867 263.651 218.744Z" fill="#FFC2B0"/>
<path d="M257.986 223.392C257.147 223.44 256.282 223.379 255.421 223.207C253.395 222.802 251.598 221.842 250.359 220.49C249.067 219.081 248.532 217.418 248.852 215.818C249.172 214.217 250.298 212.881 252.025 212.072C253.683 211.297 255.714 211.081 257.741 211.487C259.767 211.893 261.564 212.853 262.803 214.205C264.095 215.614 264.63 217.276 264.31 218.877C263.99 220.478 262.864 221.813 261.137 222.623C260.181 223.068 259.114 223.328 257.986 223.392ZM255.242 212.631C254.283 212.685 253.384 212.906 252.584 213.272C251.247 213.899 250.392 214.889 250.158 216.074C249.925 217.249 250.346 218.497 251.339 219.583C252.386 220.725 253.925 221.55 255.677 221.891C257.43 222.242 259.162 222.064 260.567 221.403C261.904 220.776 262.759 219.786 262.992 218.601C263.226 217.426 262.805 216.178 261.812 215.092C260.765 213.95 259.226 213.126 257.474 212.784C256.725 212.647 255.97 212.589 255.242 212.631Z" fill="white"/>
<path d="M253.107 211.37C253.107 211.37 253.258 211.922 253.27 216.358C253.268 217.751 258.214 218.772 259.401 217.443C260.587 216.113 260.014 214.834 260.045 210.084C260.076 205.335 253.107 211.37 253.107 211.37Z" fill="#FFC2B0"/>
<path d="M260.056 210.094C260.056 210.094 259.107 214.555 253.291 216.567L253.155 212.569L260.056 210.094Z" fill="#EA9C92"/>
<path d="M263.167 198.729C264.981 204.396 261.859 210.452 256.192 212.266C250.526 214.08 244.469 210.958 242.656 205.292C240.842 199.626 243.963 193.569 249.63 191.755C255.296 189.941 261.353 193.063 263.167 198.729Z" fill="#FFC2B0"/>
<path d="M255.404 202.265C255.404 202.265 249.628 205.137 245.536 205.399C241.444 205.661 242.148 202.176 242.148 202.176L254.209 199.728L255.404 202.265Z" fill="#EA9C92"/>
<path d="M244.2 203.562C244.2 203.562 249.228 201.083 253.802 201.735C254.872 201.884 255.893 202.397 256.63 203.207C256.865 203.474 257.169 203.707 257.492 203.759C258.301 203.893 259.431 200.494 260.984 200.325C262.537 200.157 263.638 201.207 262.476 203.326C261.314 205.445 261.873 207.707 262.481 208.003C263.089 208.299 270.079 202.804 263.959 192.224C257.839 181.634 243.174 188.666 241.123 190.996C241.123 190.996 238.95 193.122 236.982 191.451C236.992 191.451 235.793 207.204 244.2 203.562Z" fill="#D4ECFF"/>
<path d="M266.646 247.5L267.11 255.677C267.163 256.616 266.814 257.527 266.161 258.205L250.238 274.473L252.31 277.281L274.591 260.792C275.587 259.984 276.191 258.788 276.248 257.512L276.965 242.247L266.646 247.5Z" fill="#FFC2B0"/>
<path d="M271.808 220.925C271.808 220.925 277.335 228.304 280.377 248.364C280.377 248.364 271.83 251.673 266.798 250.356C261.775 249.039 271.808 220.925 271.808 220.925Z" fill="#C361F0"/>
<path d="M264.78 231.05C264.78 231.05 263.389 241.836 263.565 246.864C263.613 248.243 264.522 249.444 265.847 249.839L264.78 231.05Z" fill="#B250DE"/>
<path d="M263.43 284.382L259.688 284.103L234.942 271.626C234.148 271.23 232.813 271.356 231.953 271.915L215.527 282.683L213.264 282.511L213.39 284.748C213.397 285.038 213.573 285.318 213.954 285.507L242 299.641C242.794 300.036 244.129 299.91 244.989 299.351L262.873 287.629C263.356 287.311 263.585 286.927 263.545 286.579L263.42 284.382L263.43 284.382Z" fill="#5793CE"/>
<path d="M244.933 276.658L243.17 275.776L224.46 276.838L215.537 282.683L213.274 282.511L213.4 284.747C213.407 285.037 213.583 285.318 213.964 285.506L242.01 299.64C242.433 299.846 242.997 299.915 243.574 299.842L244.933 276.658Z" fill="#396CAA"/>
<path d="M214.279 282.584L213.274 282.511L213.4 284.747C213.407 285.037 213.583 285.318 213.964 285.506L214.46 285.759L214.279 282.584Z" fill="#5793CE"/>
<path d="M242.287 299.755C243.032 299.993 244.067 299.874 244.824 299.45L244.608 295.646L242.062 295.791L242.287 299.755Z" fill="#5793CE"/>
<path d="M241.884 297.414L213.838 283.28C213.044 282.884 213.1 282.1 213.96 281.54L231.844 269.818C232.704 269.259 234.038 269.123 234.833 269.528L262.878 283.662C263.672 284.058 263.617 284.842 262.757 285.402L244.872 297.114C244.013 297.683 242.678 297.809 241.884 297.414Z" fill="white"/>
<path d="M241.29 295.064L217.966 283.306C217.306 282.973 217.35 282.33 218.064 281.858L227.652 275.725C228.367 275.254 229.483 275.151 230.143 275.484L253.466 287.241C254.126 287.574 254.082 288.218 253.368 288.689L243.77 294.823C243.055 295.284 241.95 295.397 241.29 295.064Z" fill="#D4ECFF"/>
<path d="M232.863 269.23L232.689 271.122C232.541 272.733 232.673 274.359 233.082 275.918L233.505 277.547C233.747 278.464 234.527 279.151 235.465 279.268C236.202 279.357 236.862 278.808 236.9 278.065L237.122 274.036C237.122 274.036 238.227 275.325 238.716 275.298C239.215 275.269 237.939 271.315 236.682 269.113C235.445 266.899 232.863 269.23 232.863 269.23Z" fill="#FFC2B0"/>
<path d="M240.378 238.935L237.79 244.871C237.179 246.278 236.854 247.789 236.85 249.312L236.702 269.112L232.863 269.24L229.859 247.184C229.77 246.498 229.761 245.818 229.842 245.132L231.192 233.787L240.378 238.935Z" fill="#FFC2B0"/>
<path d="M241.051 298.973L238.606 296.127L213.877 283.618C213.083 283.213 212.397 282.06 212.339 281.041L211.246 261.432L209.766 259.713L211.022 258.89C211.262 258.717 211.592 258.698 211.963 258.887L239.991 273.062C240.785 273.467 241.472 274.62 241.53 275.639L242.721 296.986C242.754 297.565 242.577 297.975 242.276 298.153L241.051 298.973Z" fill="#173D7A"/>
<path d="M223.85 288.671L222.096 287.779L211.841 272.085L211.246 261.432L209.766 259.713L211.022 258.89C211.262 258.717 211.592 258.698 211.963 258.887L239.991 273.062C240.414 273.278 240.798 273.697 241.077 274.202L223.85 288.671Z" fill="#396CAA"/>
<path d="M210.411 260.478L209.756 259.713L211.012 258.891C211.252 258.717 211.582 258.698 211.953 258.888L212.448 259.14L210.411 260.478Z" fill="#5793CE"/>
<path d="M240.241 273.228C240.868 273.683 241.39 274.595 241.509 275.45L238.94 277.128L237.547 274.993L240.241 273.228Z" fill="#274F89"/>
<path d="M238.736 273.884L210.708 259.71C209.913 259.304 209.321 259.818 209.379 260.837L210.571 282.183C210.629 283.212 211.316 284.365 212.109 284.76L240.137 298.935C240.932 299.341 241.523 298.826 241.466 297.808L240.274 276.461C240.216 275.443 239.53 274.29 238.736 273.884Z" fill="#5793CE"/>
<path d="M252.309 277.271L251.921 278.194C251.481 279.261 250.741 280.174 249.798 280.839L247.196 282.649C246.387 283.216 245.331 283.316 244.444 282.865C244.413 282.847 244.382 282.829 244.35 282.81C243.461 282.32 243.312 281.097 243.979 280.327L246.63 277.272C246.63 277.272 245.111 278.571 244.645 278.116C244.295 277.775 246.063 275.922 247.488 275.791C248.912 275.65 250.226 274.454 250.226 274.454L252.309 277.271Z" fill="#FFC2B0"/>
<path d="M241.464 212.351C241.464 212.351 231.778 224.169 228.19 234.719C228.19 234.719 232.085 240.878 240.863 242.884C249.65 244.889 241.464 212.351 241.464 212.351Z" fill="#C361F0"/>
<path d="M238.888 242.335L239.648 226.076L236.564 241.445C237.283 241.765 238.062 242.061 238.888 242.335Z" fill="#B250DE"/>
<path d="M249.062 209.646L246.244 209.045C246.244 209.045 247.69 211.056 249.647 211.476C251.614 211.895 251.821 210.241 251.821 210.241L249.062 209.646Z" fill="white"/>
<path d="M263.636 204.362C263.685 205.21 263.035 205.948 262.177 205.997C261.328 206.045 260.59 205.396 260.541 204.537C260.493 203.689 261.143 202.951 262.001 202.902C262.86 202.863 263.588 203.513 263.636 204.362Z" fill="white"/>
<path d="M327.21 334.642L279.419 310.551C278.027 309.849 278.119 308.482 279.626 307.495L306.636 289.786C308.142 288.799 310.483 288.566 311.875 289.268L359.667 313.359C361.059 314.061 360.966 315.429 359.459 316.416L332.449 334.124C330.953 335.111 328.602 335.334 327.21 334.642Z" fill="white"/>
<path opacity="0.5" d="M379.143 354.401L310.214 319.661C308.667 318.878 308.544 316.711 309.993 315.767L371.372 275.535L444.705 312.499C446.251 313.283 446.374 315.449 444.925 316.393L387.67 353.927C385.12 355.585 381.865 355.769 379.143 354.401Z" fill="#173D7A"/>
<path d="M371.213 248.731C370.973 244.498 367.89 242.94 364.345 245.254L303.967 284.759C302.991 285.395 302.253 286.86 302.319 288.028C302.386 289.196 303.231 289.619 304.206 288.982L364.585 249.478C366.188 248.425 367.58 249.127 367.689 251.044L368.075 258.024C369.278 257.875 370.496 257.806 371.726 257.756L371.213 248.731Z" fill="#F16A51"/>
<path d="M304.889 301.534L366.017 275.248C369.571 272.923 372.263 267.582 372.033 263.348L371.726 257.756C370.496 257.806 369.278 257.875 368.075 258.024L368.498 265.662C368.606 267.569 367.391 269.982 365.788 271.034L304.659 297.32C303.684 297.956 302.946 299.42 303.012 300.589C303.068 301.747 303.914 302.18 304.889 301.534Z" fill="#C84128"/>
<path d="M303.536 301.701L381.967 341.32L444.078 299.334L448.748 291.436L448.371 294.162L446.593 287.182L327.523 298.506L306.42 298.342L303.536 301.701Z" fill="#C54E38"/>
<path d="M305.309 288.299L305.82 297.645L381.611 335.932L383.092 326.913L305.309 288.299Z" fill="#FAD0C8"/>
<path d="M447.381 284.122L369.084 244.565L302.989 288.19L302.905 289.176L381.316 328.787L447.381 284.122Z" fill="#F16A51"/>
<path d="M424.488 308.018L441.709 296.433C443.147 295.29 444.204 293.096 444.113 291.309L444.044 289.91C443.98 288.782 443.468 288.07 442.728 287.902L408.752 309.411L381.055 326.488L381.621 335.941L424.488 308.018Z" fill="white"/>
<path d="M383.66 327.202L305.857 287.897L304.207 287.059L302.702 286.293C302.433 286.859 302.278 287.469 302.309 288.018C302.341 288.587 302.564 288.985 302.894 289.157L302.905 289.166L302.915 289.166L381.315 328.777L383.66 327.202Z" fill="#E26750"/>
<path d="M380.988 340.835L381.967 341.32L382.119 341.011L381.504 340.585L380.988 340.835Z" fill="white"/>
<path d="M380.295 328.274L381.305 328.778L381.025 328.263L380.295 328.274Z" fill="white"/>
<path d="M382.378 324.38L442.756 284.875C446.31 282.55 449.393 284.108 449.624 288.342L449.693 289.74C449.933 293.973 447.232 299.315 443.678 301.64L383.299 341.145C382.323 341.781 381.478 341.358 381.412 340.19C381.346 339.022 382.084 337.558 383.059 336.921L443.438 297.417C445.041 296.364 446.257 293.962 446.148 292.045L446.079 290.646C445.97 288.739 444.578 288.037 442.975 289.08L382.596 328.584C381.621 329.221 380.775 328.798 380.709 327.63C380.664 326.48 381.402 325.016 382.378 324.38Z" fill="#F16A51"/>
<path d="M381.422 340.199C381.356 339.031 382.094 337.567 383.07 336.931L443.448 297.426C445.051 296.374 446.267 293.971 446.158 292.054L446.089 290.656C446.018 289.408 445.396 288.672 444.531 288.611C444.831 288.964 445.02 289.474 445.058 290.133L445.127 291.532C445.235 293.439 444.02 295.851 442.417 296.904L382.039 336.408C381.063 337.045 380.325 338.509 380.391 339.677C380.441 340.556 380.938 341.018 381.603 340.91C381.492 340.716 381.438 340.479 381.422 340.199Z" fill="white"/>
<path d="M380.73 327.648C380.664 326.48 381.402 325.016 382.378 324.38L442.756 284.875C444.282 283.877 445.728 283.595 446.89 283.94C445.613 282.97 443.743 283.026 441.725 284.353L381.346 323.857C380.371 324.494 379.633 325.958 379.699 327.126C379.749 328.005 380.246 328.467 380.911 328.359C380.81 328.165 380.746 327.928 380.73 327.648Z" fill="white"/>
<path d="M349.658 290.539L382.976 268.737L413.828 284.323L380.51 306.116L349.658 290.539Z" fill="white"/>
</g>
<g clip-path="url(#clip1)">
<path opacity="0.5" d="M28.9334 369.103L1.62335 353.333C-0.0566497 352.363 0.15335 350.673 2.09335 349.563L28.4634 334.343C30.4034 333.223 33.3233 333.103 35.0033 334.073L62.3134 349.843C63.9934 350.813 63.7833 352.503 61.8433 353.623L35.4734 368.833C33.5334 369.953 30.6034 370.073 28.9334 369.103Z" fill="#173D7A"/>
<path d="M63.4334 334.713V325.293L42.3034 325.283L35.0034 321.063C33.3234 320.093 30.4034 320.213 28.4634 321.333L21.6534 325.263H0.503364V334.953C0.453364 335.603 0.823363 336.243 1.62336 336.703L28.9334 352.473C30.6134 353.443 33.5334 353.323 35.4734 352.203L61.8434 336.983C62.9534 336.323 63.4934 335.493 63.4334 334.713Z" fill="#396CAA"/>
<path d="M31.9634 320.413C30.7334 320.443 29.4634 320.753 28.4634 321.333L21.6534 325.263H0.503364V334.953C0.453364 335.603 0.823363 336.243 1.62336 336.703L28.9334 352.473C29.7434 352.943 30.8334 353.153 31.9634 353.123V320.413Z" fill="#396CAA"/>
<path d="M2.89336 325.263H0.503364V334.953C0.453364 335.603 0.823363 336.243 1.62336 336.703L2.89336 337.433V325.263Z" fill="#5793CE"/>
<path d="M29.3534 352.673C30.8034 353.293 32.8934 353.253 34.5834 352.613V341.613H29.3534V352.673Z" fill="#5793CE"/>
<path d="M28.9334 342.813L1.62335 327.043C-0.0566497 326.073 0.15335 324.383 2.09335 323.273L28.4634 308.043C30.4034 306.923 33.3233 306.803 35.0033 307.773L62.3134 323.543C63.9934 324.513 63.7833 326.203 61.8433 327.313L35.4734 342.543C33.5334 343.653 30.6034 343.783 28.9334 342.813Z" fill="#D4ECFF"/>
<path d="M61.8334 325.463L35.4734 340.683C33.5334 341.803 30.6134 341.923 28.9334 340.953L1.62337 325.193C1.25337 324.973 0.973375 324.723 0.783375 324.453C0.203375 325.383 0.473375 326.383 1.62337 327.053L28.9334 342.823C30.6134 343.793 33.5334 343.673 35.4734 342.553L61.8434 327.333C63.3434 326.463 63.8034 325.253 63.1534 324.303C62.8834 324.703 62.4434 325.113 61.8334 325.463Z" fill="white"/>
<path d="M53.3834 337.203C53.3834 337.903 52.8934 338.763 52.2834 339.113C51.6734 339.463 51.1833 339.183 51.1833 338.473C51.1833 337.773 51.6734 336.913 52.2834 336.563C52.8934 336.213 53.3834 336.503 53.3834 337.203Z" fill="#D4ECFF"/>
<path d="M56.9333 335.153C56.9333 335.853 56.4433 336.713 55.8333 337.063C55.2233 337.413 54.7333 337.133 54.7333 336.423C54.7333 335.723 55.2233 334.863 55.8333 334.513C56.4433 334.163 56.9333 334.453 56.9333 335.153Z" fill="#D4ECFF"/>
<path d="M60.4833 333.103C60.4833 333.803 59.9933 334.663 59.3833 335.013C58.7733 335.363 58.2833 335.083 58.2833 334.373C58.2833 333.673 58.7733 332.813 59.3833 332.463C59.9933 332.113 60.4833 332.403 60.4833 333.103Z" fill="#D4ECFF"/>
<path d="M30.5434 333.033L17.7634 325.653C16.9834 325.203 17.0734 324.413 17.9834 323.883L30.3234 316.763C31.2334 316.243 32.6034 316.183 33.3834 316.633L46.1634 324.013C46.9434 324.463 46.8534 325.253 45.9434 325.783L33.6034 332.903C32.7034 333.433 31.3334 333.493 30.5434 333.033Z" fill="#5793CE"/>
<path d="M31.7734 326.863L30.0034 325.843C29.8934 325.783 29.9134 325.673 30.0334 325.603L31.7434 324.613C31.8734 324.543 32.0534 324.533 32.1634 324.593L33.9334 325.613C34.0434 325.673 34.0234 325.783 33.9034 325.853L32.1934 326.843C32.0634 326.913 31.8734 326.923 31.7734 326.863Z" fill="#D4ECFF"/>
<path d="M17.7634 325.663L17.8034 325.683C17.8634 325.643 17.9134 325.593 17.9834 325.553L30.3234 318.433C31.2334 317.913 32.6034 317.853 33.3834 318.303L46.1234 325.663C46.8434 325.143 46.8834 324.443 46.1634 324.023L33.3834 316.643C32.6034 316.193 31.2334 316.243 30.3234 316.773L17.9834 323.893C17.0834 324.413 16.9834 325.203 17.7634 325.663Z" fill="#396CAA"/>
</g>
<g clip-path="url(#clip2)">
<path opacity="0.5" d="M164.691 489.397C175.883 488.157 184.376 481.915 183.66 475.454C182.945 468.993 173.291 464.761 162.099 466.001C150.907 467.241 142.413 473.483 143.129 479.944C143.845 486.405 153.498 490.637 164.691 489.397Z" fill="#173D7A"/>
<path d="M185.346 465.138L184.626 458.668L183.406 458.808C182.096 457.038 180.076 455.468 177.306 454.248C167.726 450.048 153.136 451.668 144.706 457.858C142.266 459.648 140.636 461.628 139.746 463.648L138.526 463.788L139.236 470.228C139.596 473.648 142.226 476.818 147.036 478.928C156.616 483.128 171.206 481.508 179.636 475.318C183.846 472.198 185.726 468.548 185.346 465.138Z" fill="#833DB8"/>
<path d="M163.049 474.527C175.778 473.117 185.438 466.015 184.623 458.665C183.809 451.315 172.83 446.5 160.101 447.91C147.371 449.32 137.712 456.422 138.526 463.772C139.341 471.122 150.32 475.937 163.049 474.527Z" fill="#B461F2"/>
<path d="M178.916 468.828C170.486 475.028 155.896 476.638 146.316 472.438C141.726 470.428 139.146 467.438 138.606 464.198C138.806 467.768 141.426 471.098 146.416 473.288C155.996 477.488 170.586 475.868 179.016 469.678C183.406 466.448 185.226 462.628 184.646 459.098C184.826 462.378 182.956 465.858 178.916 468.828Z" fill="white"/>
<path d="M150.956 466.858C150.546 466.678 150.286 466.398 150.256 466.078L149.316 457.408C149.246 456.748 150.116 456.108 151.266 455.978C152.416 455.848 153.396 456.288 153.466 456.948L154.246 464.138L174.826 459.268C175.936 459.008 177.076 459.298 177.386 459.918C177.696 460.538 177.046 461.258 175.946 461.518L152.886 466.968C152.286 467.108 151.636 467.098 151.116 466.918C151.066 466.908 151.006 466.878 150.956 466.858Z" fill="white"/>
</g>
<g clip-path="url(#clip3)">
<path opacity="0.5" d="M373.331 496.868L358.001 488.018L373.331 479.168L388.661 488.018L373.331 496.868Z" fill="#173D7A"/>
<path d="M388.661 476.778L373.331 485.628V467.928L388.661 459.078V476.778Z" fill="#173D7A"/>
<path d="M373.331 467.928L358.001 459.078L373.331 450.228L388.661 459.078L373.331 467.928Z" fill="#D4ECFF"/>
<path d="M373.331 485.628L358.001 476.778V459.078L373.331 467.928V485.628Z" fill="#5793CE"/>
<path d="M367.811 476.068L363.521 473.588V468.638L367.811 471.118V476.068Z" fill="white"/>
</g>
<g clip-path="url(#clip4)">
<path opacity="0.5" d="M575.416 417.76L529.225 390.094C527.531 389.076 527.778 387.36 529.766 386.252L579.64 358.44C581.628 357.332 584.619 357.26 586.313 358.267L632.505 385.933C634.199 386.95 633.951 388.666 631.963 389.775L582.09 417.587C580.091 418.705 577.11 418.777 575.416 417.76Z" fill="#173D7A"/>
<path d="M633.852 368.062L584.461 338.475C582.539 337.324 581.018 334.299 581.059 331.709L582.977 212.425C583.018 209.835 584.607 208.68 586.529 209.831L635.92 239.419C637.841 240.57 639.363 243.595 639.321 246.184L637.404 365.479C637.363 368.049 635.774 369.213 633.852 368.062Z" fill="url(#paint0_linear)"/>
<path d="M635.92 239.409L586.529 209.821C585.667 209.307 584.878 209.255 584.262 209.585L526.822 241.506L529.342 251.478L578.86 400.103L636.068 368.318C636.078 368.318 636.088 368.308 636.099 368.298L636.199 368.24C636.917 367.801 637.382 366.839 637.404 365.459L639.322 246.164C639.363 243.585 637.841 240.56 635.92 239.409Z" fill="#396CAA"/>
<path d="M635.92 239.409L586.529 209.821C585.667 209.307 584.878 209.255 584.262 209.585L526.822 241.506L529.342 251.478L542.957 292.352L545.622 293.945L638.403 242.349C637.783 241.079 636.9 239.995 635.92 239.409Z" fill="#D4ECFF"/>
<path d="M576.452 399.954L527.061 370.366C525.14 369.215 523.618 366.191 523.659 363.611L525.577 244.316C525.618 241.727 527.207 240.572 529.129 241.723L578.52 271.301C580.442 272.452 581.963 275.476 581.922 278.066L580.004 397.361C579.963 399.94 578.374 401.105 576.452 399.954Z" fill="#5793CE"/>
<path d="M573.428 392.724L530.258 366.857C528.574 365.85 527.246 363.209 527.283 360.949L529.063 250.153C529.1 247.893 530.486 246.876 532.17 247.883L575.34 273.74C577.014 274.747 578.352 277.389 578.316 279.648L576.535 390.434C576.499 392.714 575.112 393.722 573.428 392.724Z" fill="url(#paint1_linear)"/>
<path d="M573.428 392.724L530.258 366.857C528.574 365.85 527.246 363.209 527.283 360.949L529.063 250.153C529.1 247.893 530.486 246.876 532.17 247.883L575.34 273.74C577.014 274.747 578.352 277.389 578.316 279.648L576.535 390.434C576.499 392.714 575.112 393.722 573.428 392.724Z" fill="url(#paint2_linear)"/>
<path d="M573.428 392.724L530.258 366.857C528.574 365.85 527.246 363.209 527.283 360.949L529.063 250.153C529.1 247.893 530.486 246.876 532.17 247.883L575.34 273.74C577.014 274.747 578.352 277.389 578.316 279.648L576.535 390.434C576.499 392.714 575.112 393.722 573.428 392.724Z" fill="#173D7A"/>
<path d="M574.871 391.908L531.691 366.04C530.017 365.043 528.68 362.391 528.716 360.132L530.496 249.346C530.509 248.576 530.679 247.959 530.966 247.503C529.866 247.476 529.09 248.473 529.063 250.163L527.283 360.949C527.246 363.209 528.574 365.86 530.258 366.857L573.428 392.714C574.538 393.372 575.511 393.158 576.065 392.287C575.695 392.281 575.287 392.154 574.871 391.908Z" fill="#396CAA"/>
<path d="M574.246 341.851L558.198 332.242L532.122 346.745L576.807 373.506L577.221 347.77C577.257 345.51 575.93 342.858 574.246 341.851Z" fill="#173D7A"/>
<path d="M574.61 319.154L558.563 309.545L532.486 324.038L577.172 350.799L577.586 325.063C577.622 322.803 576.294 320.161 574.61 319.154Z" fill="#173D7A"/>
<path d="M574.975 296.447L558.928 286.838L532.851 301.341L577.537 328.102L577.951 302.365C577.987 300.106 576.659 297.454 574.975 296.447Z" fill="#173D7A"/>
<path d="M575.34 273.75L559.292 264.141L533.216 278.634L577.902 305.395L578.316 279.658C578.352 277.399 577.024 274.757 575.34 273.75Z" fill="#173D7A"/>
<path d="M575.34 273.75L539.818 252.466L533.591 255.927L578.267 282.698L578.316 279.658C578.352 277.399 577.024 274.757 575.34 273.75Z" fill="#173D7A"/>
<path d="M578.267 282.698L533.581 255.936L533.35 270.285L578.036 297.046L578.267 282.698Z" fill="#5793CE"/>
<path d="M577.902 305.395L533.216 278.634L532.986 292.982L577.671 319.743L577.902 305.395Z" fill="#5793CE"/>
<path d="M577.537 328.102L532.851 301.341L532.621 315.689L577.306 342.45L577.537 328.102Z" fill="#5793CE"/>
<path d="M577.172 350.799L532.486 324.038L532.256 338.386L576.942 365.147L577.172 350.799Z" fill="#5793CE"/>
<path d="M576.807 373.506L532.122 346.745L531.891 361.093L576.577 387.854L576.807 373.506Z" fill="#5793CE"/>
<path d="M574.139 291.863L540.488 271.71C539.537 271.144 538.781 269.642 538.802 268.362L538.864 264.522C538.884 263.243 539.674 262.665 540.624 263.241L574.275 283.394C575.226 283.959 575.982 285.462 575.961 286.741L575.9 290.581C575.879 291.861 575.09 292.438 574.139 291.863Z" fill="#173D7A"/>
<path opacity="0.3" d="M542.22 270.997C541.269 270.432 540.513 268.93 540.534 267.65L540.595 263.81C540.598 263.61 540.631 263.431 540.664 263.261L540.624 263.241C539.673 262.675 538.884 263.243 538.864 264.522L538.802 268.362C538.781 269.642 539.537 271.134 540.488 271.71L574.139 291.863C574.941 292.346 575.617 292.007 575.821 291.13L542.22 270.997Z" fill="#06033E"/>
<path d="M563.649 281.163L543.402 269.036C543.065 268.841 542.803 268.306 542.811 267.856C542.818 267.406 543.091 267.201 543.428 267.406L563.676 279.533C564.013 279.729 564.274 280.263 564.267 280.713C564.26 281.163 563.986 281.368 563.649 281.163Z" fill="white"/>
<path d="M573.776 314.43L540.126 294.267C539.175 293.701 538.419 292.199 538.439 290.919L538.501 287.08C538.522 285.8 539.311 285.222 540.262 285.798L573.912 305.951C574.863 306.516 575.619 308.019 575.599 309.299L575.537 313.138C575.516 314.428 574.727 314.995 573.776 314.43Z" fill="#173D7A"/>
<path opacity="0.3" d="M541.857 293.564C540.906 292.999 540.15 291.497 540.171 290.217L540.233 286.377C540.236 286.177 540.269 285.998 540.301 285.828L540.262 285.798C539.311 285.232 538.522 285.8 538.501 287.08L538.439 290.919C538.419 292.199 539.175 293.691 540.126 294.267L573.776 314.42C574.579 314.903 575.254 314.564 575.458 313.687L541.857 293.564Z" fill="#06033E"/>
<path d="M563.287 303.73L543.039 291.603C542.702 291.408 542.441 290.873 542.448 290.423C542.455 289.973 542.728 289.768 543.065 289.973L563.313 302.1C563.65 302.296 563.911 302.83 563.904 303.28C563.897 303.72 563.624 303.925 563.287 303.73Z" fill="white"/>
<path d="M573.41 337.207L539.76 317.054C538.809 316.488 538.053 314.986 538.073 313.706L538.135 309.867C538.155 308.587 538.945 308.009 539.896 308.585L573.546 328.738C574.497 329.303 575.253 330.806 575.233 332.086L575.171 335.925C575.15 337.195 574.361 337.772 573.41 337.207Z" fill="#173D7A"/>
<path opacity="0.3" d="M541.491 316.331C540.54 315.766 539.784 314.264 539.805 312.984L539.867 309.144C539.87 308.944 539.903 308.765 539.936 308.595L539.896 308.565C538.945 307.999 538.156 308.567 538.135 309.847L538.073 313.686C538.053 314.966 538.809 316.458 539.76 317.034L573.41 337.187C574.213 337.67 574.888 337.331 575.092 336.454L541.491 316.331Z" fill="#06033E"/>
<path d="M562.921 326.497L542.673 314.37C542.336 314.175 542.075 313.64 542.082 313.19C542.089 312.741 542.363 312.535 542.699 312.74L562.947 324.867C563.284 325.063 563.545 325.597 563.538 326.047C563.531 326.497 563.258 326.703 562.921 326.497Z" fill="#D4ECFF"/>
<path d="M573.041 360.184L539.39 340.031C538.439 339.465 537.683 337.963 537.704 336.683L537.766 332.844C537.786 331.564 538.576 330.986 539.526 331.562L573.177 351.715C574.128 352.28 574.884 353.783 574.863 355.063L574.802 358.902C574.781 360.182 573.992 360.749 573.041 360.184Z" fill="#173D7A"/>
<path opacity="0.3" d="M541.122 339.318C540.171 338.753 539.415 337.251 539.435 335.971L539.497 332.131C539.5 331.931 539.533 331.752 539.566 331.582L539.526 331.562C538.575 330.996 537.786 331.564 537.766 332.844L537.704 336.683C537.683 337.963 538.439 339.455 539.39 340.031L573.041 360.184C573.843 360.667 574.519 360.328 574.723 359.451L541.122 339.318Z" fill="#06033E"/>
<path d="M562.551 349.484L542.304 337.357C541.967 337.162 541.705 336.627 541.713 336.178C541.72 335.728 541.993 335.522 542.33 335.727L562.578 347.854C562.915 348.05 563.176 348.584 563.169 349.034C563.162 349.484 562.888 349.68 562.551 349.484Z" fill="#F16A51"/>
<path d="M572.679 382.711L539.028 362.558C538.077 361.992 537.321 360.49 537.342 359.21L537.404 355.371C537.424 354.091 538.213 353.514 539.164 354.089L572.815 374.242C573.766 374.808 574.522 376.31 574.501 377.59L574.44 381.429C574.419 382.709 573.63 383.276 572.679 382.711Z" fill="#173D7A"/>
<path opacity="0.3" d="M540.76 361.846C539.809 361.28 539.053 359.778 539.073 358.498L539.135 354.658C539.138 354.459 539.171 354.279 539.204 354.11L539.164 354.089C538.213 353.524 537.424 354.091 537.403 355.371L537.342 359.21C537.321 360.49 538.077 361.982 539.028 362.558L572.679 382.711C573.481 383.194 574.157 382.855 574.361 381.978L540.76 361.846Z" fill="#06033E"/>
<path d="M562.189 372.011L541.942 359.884C541.605 359.689 541.343 359.155 541.351 358.705C541.358 358.255 541.631 358.049 541.968 358.254L562.216 370.381C562.552 370.577 562.814 371.111 562.807 371.561C562.799 372.011 562.526 372.207 562.189 372.011Z" fill="#D4ECFF"/>
<path opacity="0.5" d="M533.581 255.936L537.108 258.043L536.877 272.392L533.35 270.285L533.581 255.936Z" fill="#173D7A"/>
<path opacity="0.5" d="M533.216 278.634L536.743 280.74L536.512 295.089L532.985 292.982L533.216 278.634Z" fill="#173D7A"/>
<path opacity="0.5" d="M532.851 301.341L536.378 303.448L536.147 317.796L532.621 315.689L532.851 301.341Z" fill="#173D7A"/>
<path opacity="0.5" d="M532.486 324.038L536.013 326.145L535.782 340.493L532.256 338.386L532.486 324.038Z" fill="#173D7A"/>
<path opacity="0.5" d="M532.121 346.745L535.648 348.852L535.417 363.2L531.891 361.093L532.121 346.745Z" fill="#173D7A"/>
<path d="M567.656 282.647C567.649 283.107 567.326 283.282 566.929 283.056C566.533 282.819 566.222 282.254 566.23 281.794C566.237 281.335 566.56 281.16 566.956 281.386C567.352 281.622 567.663 282.188 567.656 282.647Z" fill="#D4ECFF"/>
<path d="M570.677 284.456C570.67 284.916 570.347 285.091 569.951 284.865C569.554 284.628 569.244 284.063 569.251 283.603C569.258 283.143 569.581 282.968 569.978 283.195C570.374 283.431 570.685 283.996 570.677 284.456Z" fill="#F16A51"/>
<path d="M573.699 286.265C573.691 286.725 573.369 286.9 572.972 286.673C572.576 286.437 572.265 285.872 572.272 285.412C572.28 284.952 572.603 284.777 572.999 285.004C573.385 285.24 573.706 285.805 573.699 286.265Z" fill="#D4ECFF"/>
<path d="M567.291 305.335C567.284 305.795 566.961 305.969 566.565 305.743C566.168 305.507 565.858 304.941 565.865 304.482C565.872 304.022 566.195 303.847 566.592 304.073C566.988 304.32 567.299 304.875 567.291 305.335Z" fill="#F16A51"/>
<path d="M570.313 307.143C570.305 307.603 569.983 307.778 569.586 307.552C569.19 307.315 568.879 306.75 568.886 306.29C568.894 305.83 569.217 305.656 569.613 305.882C570.009 306.128 570.32 306.683 570.313 307.143Z" fill="#D4ECFF"/>
<path d="M573.334 308.952C573.327 309.412 573.004 309.587 572.607 309.361C572.211 309.124 571.9 308.559 571.908 308.099C571.915 307.639 572.238 307.464 572.634 307.691C573.02 307.937 573.342 308.492 573.334 308.952Z" fill="white"/>
<path d="M566.924 328.202C566.917 328.662 566.594 328.836 566.197 328.61C565.801 328.374 565.49 327.809 565.497 327.349C565.505 326.889 565.828 326.714 566.224 326.94C566.62 327.177 566.931 327.742 566.924 328.202Z" fill="white"/>
<path d="M569.945 330.01C569.938 330.47 569.615 330.645 569.219 330.419C568.822 330.182 568.511 329.617 568.519 329.157C568.526 328.697 568.849 328.523 569.246 328.749C569.642 328.985 569.953 329.55 569.945 330.01Z" fill="#F16A51"/>
<path d="M572.967 331.819C572.959 332.279 572.636 332.454 572.24 332.228C571.844 331.991 571.533 331.426 571.54 330.966C571.547 330.506 571.87 330.331 572.267 330.558C572.653 330.794 572.974 331.359 572.967 331.819Z" fill="white"/>
<path d="M566.562 350.729C566.555 351.189 566.232 351.363 565.835 351.137C565.439 350.901 565.128 350.336 565.135 349.876C565.143 349.416 565.466 349.241 565.862 349.467C566.258 349.704 566.569 350.269 566.562 350.729Z" fill="white"/>
<path d="M569.583 352.537C569.576 352.997 569.253 353.172 568.857 352.946C568.46 352.709 568.149 352.144 568.157 351.684C568.164 351.225 568.487 351.05 568.883 351.276C569.28 351.512 569.591 352.078 569.583 352.537Z" fill="#D4ECFF"/>
<path d="M572.605 354.346C572.597 354.806 572.274 354.981 571.878 354.755C571.482 354.518 571.171 353.953 571.178 353.493C571.185 353.033 571.508 352.858 571.905 353.085C572.291 353.321 572.612 353.886 572.605 354.346Z" fill="#D4ECFF"/>
<path d="M566.195 373.566C566.187 374.026 565.865 374.201 565.468 373.974C565.072 373.738 564.761 373.173 564.768 372.713C564.776 372.253 565.099 372.078 565.495 372.304C565.891 372.541 566.202 373.106 566.195 373.566Z" fill="white"/>
<path d="M569.216 375.375C569.209 375.834 568.886 376.009 568.49 375.783C568.093 375.547 567.782 374.981 567.79 374.522C567.797 374.062 568.12 373.887 568.516 374.113C568.913 374.35 569.224 374.915 569.216 375.375Z" fill="#F16A51"/>
<path d="M572.238 377.183C572.23 377.643 571.907 377.818 571.511 377.592C571.115 377.355 570.804 376.79 570.811 376.33C570.818 375.87 571.141 375.696 571.538 375.922C571.924 376.158 572.245 376.723 572.238 377.183Z" fill="#D4ECFF"/>
<path d="M587.73 384.003L589.362 282.426L589.574 282.31L632.423 258.485L630.79 360.062L630.578 360.179L587.73 384.003ZM590.195 282.92L588.593 382.557L629.958 359.559L631.559 259.921L590.195 282.92Z" fill="#173D7A"/>
<path d="M620.66 304.002L601.446 314.685C600.154 315.404 599.127 314.597 599.154 312.898L599.324 302.349C599.351 300.639 600.423 298.676 601.714 297.967L620.928 287.284C622.22 286.565 623.247 287.371 623.22 289.071L623.05 299.63C623.013 301.319 621.952 303.283 620.66 304.002Z" fill="#173D7A"/>
<path d="M621.392 287.082C621.497 287.383 621.551 287.734 621.545 288.144L621.375 298.703C621.348 300.413 620.276 302.376 618.984 303.085L599.77 313.768C599.609 313.855 599.458 313.923 599.307 313.96C599.632 314.895 600.457 315.229 601.436 314.684L620.65 304.002C621.941 303.282 623.013 301.319 623.04 299.62L623.21 289.061C623.234 287.571 622.457 286.769 621.392 287.082Z" fill="#5793CE"/>
<path d="M617.282 297.597C617.635 297.403 617.923 297.567 617.916 297.977L617.878 300.377C617.871 300.787 617.573 301.272 617.22 301.466C616.867 301.661 616.579 301.496 616.586 301.086L616.625 298.686C616.631 298.277 616.929 297.791 617.282 297.597Z" fill="white"/>
<path d="M614.523 299.423C614.876 299.228 615.163 299.393 615.157 299.803L615.123 301.903C615.116 302.313 614.818 302.798 614.465 302.992C614.112 303.187 613.825 303.022 613.831 302.612L613.865 300.512C613.871 300.112 614.169 299.627 614.523 299.423Z" fill="#D4ECFF"/>
<path d="M611.805 298.609C612.158 298.415 612.446 298.579 612.439 298.989L612.368 303.439C612.361 303.849 612.063 304.334 611.71 304.528C611.357 304.723 611.07 304.558 611.076 304.148L611.148 299.709C611.154 299.299 611.452 298.813 611.805 298.609Z" fill="#F16A51"/>
<path d="M609.092 297.575C609.445 297.381 609.732 297.546 609.726 297.955L609.613 304.975C609.606 305.385 609.308 305.87 608.955 306.064C608.602 306.259 608.315 306.094 608.321 305.684L608.434 298.665C608.44 298.265 608.728 297.779 609.092 297.575Z" fill="#D4ECFF"/>
<path d="M606.325 299.851C606.678 299.657 606.965 299.821 606.959 300.231L606.858 306.511C606.851 306.92 606.553 307.406 606.2 307.6C605.847 307.794 605.559 307.63 605.566 307.22L605.667 300.941C605.674 300.531 605.961 300.045 606.325 299.851Z" fill="#D4ECFF"/>
<path d="M603.514 304.246C603.867 304.052 604.154 304.217 604.148 304.627L604.093 308.036C604.086 308.446 603.788 308.932 603.435 309.126C603.082 309.32 602.795 309.156 602.801 308.746L602.856 305.336C602.872 304.936 603.16 304.451 603.514 304.246Z" fill="white"/>
<path d="M616.672 296.367C616.666 296.767 616.943 296.931 617.296 296.737C617.649 296.543 617.937 296.057 617.944 295.657C617.95 295.257 617.673 295.093 617.319 295.287C616.966 295.492 616.678 295.967 616.672 296.367Z" fill="#F16A51"/>
<path d="M616.708 294.107C616.702 294.507 616.979 294.672 617.332 294.477C617.686 294.283 617.973 293.797 617.98 293.398C617.986 292.998 617.709 292.833 617.356 293.027C617.002 293.232 616.715 293.707 616.708 294.107Z" fill="white"/>
</g>
<g clip-path="url(#clip5)">
<path d="M279.9 58.5923L239.558 39.9775C238.761 39.6086 237.993 39.6587 237.363 40.0176L237.371 39.9968L232.996 42.5656C232.996 42.5656 234.764 43.0066 235.803 43.2731L232.826 71.682C232.586 73.9935 233.843 76.5397 235.635 77.3599L274.195 95.1535L273.847 98.489L278.26 95.9065L278.239 95.8984C278.991 95.4381 279.531 94.5352 279.658 93.2884L282.7 64.2811C282.949 61.9587 281.693 59.4225 279.9 58.5923Z" fill="#8D46C1"/>
<path d="M271.525 98.5707L231.183 79.956C229.39 79.1258 228.134 76.5896 228.374 74.2781L231.416 45.2707C231.657 42.9592 233.304 41.7543 235.097 42.5845L275.439 61.1992C277.232 62.0295 278.488 64.5656 278.248 66.8771L275.206 95.8845C274.975 98.1951 273.318 99.401 271.525 98.5707Z" fill="#B461F2"/>
<path d="M276.293 60.7697L235.941 42.1559C234.998 41.7199 234.107 41.8616 233.424 42.4061C233.933 42.2691 234.509 42.3069 235.096 42.5746L275.438 61.1893C277.231 62.0195 278.488 64.5657 278.247 66.8672L275.205 95.8746C275.084 96.9701 274.649 97.8132 274.032 98.3115C275.081 98.0348 275.881 97.0077 276.04 95.4568L279.093 66.4585C279.343 64.1461 278.086 61.5999 276.293 60.7697Z" fill="white"/>
<path d="M246.597 68.6458C246.42 70.3289 245.057 71.1263 243.557 70.43C242.057 69.7336 240.978 67.8139 241.156 66.1307C241.333 64.4476 242.696 63.6502 244.196 64.3465C245.695 65.0429 246.775 66.9626 246.597 68.6458Z" fill="white"/>
<path d="M254.838 72.4514C254.66 74.1345 253.297 74.9319 251.798 74.2356C250.298 73.5392 249.219 71.6195 249.396 69.9363C249.574 68.2532 250.937 67.4558 252.436 68.1522C253.946 68.8476 255.015 70.7682 254.838 72.4514Z" fill="white"/>
<path d="M263.088 76.2561C262.911 77.9393 261.548 78.7367 260.048 78.0403C258.549 77.3439 257.469 75.4242 257.647 73.741C257.824 72.0579 259.187 71.2605 260.687 71.9569C262.187 72.6532 263.266 74.573 263.088 76.2561Z" fill="white"/>
<path d="M259.427 24.3438L219.075 5.72998C218.278 5.361 217.52 5.41026 216.89 5.7691L216.898 5.74827L212.523 8.3072C212.523 8.3072 214.29 8.74813 215.329 9.01469L212.353 37.4236C212.112 39.7351 213.369 42.2812 215.161 43.1015L253.721 60.8951L253.373 64.2306L257.787 61.6481L257.766 61.64C258.517 61.1797 259.057 60.2767 259.184 59.03L262.226 30.0226C262.477 27.7202 261.22 25.174 259.427 24.3438Z" fill="#5793CE"/>
<path d="M251.052 64.3223L210.71 45.7075C208.917 44.8773 207.661 42.3411 207.901 40.0296L210.943 11.0222C211.184 8.71075 212.831 7.5058 214.624 8.33602L254.966 26.9508C256.759 27.781 258.015 30.3172 257.775 32.6287L254.733 61.636C254.492 63.9475 252.845 65.1525 251.052 64.3223Z" fill="#D4ECFF"/>
<path d="M255.812 26.5321L215.469 7.91733C214.526 7.48142 213.635 7.6231 212.952 8.16757C213.461 8.0306 214.037 8.06834 214.624 8.33603L254.966 26.9508C256.759 27.781 258.016 30.3271 257.775 32.6287L254.733 61.636C254.622 62.7307 254.177 63.5747 253.56 64.073C254.609 63.7963 255.409 62.7692 255.568 61.2183L258.61 32.2109C258.861 29.8985 257.604 27.3523 255.812 26.5321Z" fill="white"/>
<path d="M226.114 34.3982C225.937 36.0814 224.574 36.8788 223.074 36.1824C221.574 35.486 220.495 33.5663 220.673 31.8832C220.85 30.2 222.213 29.4026 223.713 30.099C225.213 30.7954 226.293 32.725 226.114 34.3982Z" fill="white"/>
<path d="M234.365 38.203C234.187 39.8861 232.824 40.6835 231.325 39.9871C229.825 39.2908 228.746 37.371 228.923 35.6879C229.101 34.0047 230.464 33.2073 231.964 33.9037C233.463 34.6001 234.543 36.5298 234.365 38.203Z" fill="white"/>
<path d="M242.606 42.0086C242.428 43.6917 241.065 44.4891 239.565 43.7927C238.066 43.0964 236.986 41.1766 237.164 39.4935C237.342 37.8103 238.705 37.0129 240.204 37.7093C241.704 38.4057 242.784 40.3354 242.606 42.0086Z" fill="white"/>
</g>
<defs>
<linearGradient id="paint0_linear" x1="609.154" y1="353.269" x2="666.415" y2="257.674" gradientUnits="userSpaceOnUse">
<stop stop-color="#2D0979"/>
<stop offset="1" stop-color="#5B04F7"/>
</linearGradient>
<linearGradient id="paint1_linear" x1="526.138" y1="312.503" x2="571.586" y2="306.215" gradientUnits="userSpaceOnUse">
<stop stop-color="#3919BB"/>
<stop offset="1" stop-color="#6507FA"/>
</linearGradient>
<linearGradient id="paint2_linear" x1="526.138" y1="312.503" x2="571.586" y2="306.215" gradientUnits="userSpaceOnUse">
<stop stop-color="#3919BB"/>
<stop offset="1" stop-color="#6507FA"/>
</linearGradient>
<clipPath id="clip0">
<rect width="330.47" height="339.92" fill="white" transform="translate(192.618 67.6794) rotate(-3.24817)"/>
</clipPath>
<clipPath id="clip1">
<rect width="62.94" height="62.63" fill="white" transform="translate(0.493347 307.123)"/>
</clipPath>
<clipPath id="clip2">
<rect width="46.92" height="41.94" fill="white" transform="translate(138.476 447.668)"/>
</clipPath>
<clipPath id="clip3">
<rect width="30.66" height="46.64" fill="white" transform="translate(358.001 450.228)"/>
</clipPath>
<clipPath id="clip4">
<rect width="113.76" height="209.18" fill="white" transform="translate(526.153 208.431) rotate(0.920736)"/>
</clipPath>
<clipPath id="clip5">
<rect width="72.51" height="97.96" fill="white" transform="translate(204.742 6.67874) rotate(-5.22315)"/>
</clipPath>
</defs>
</svg>
