<svg width="768" height="76" viewBox="0 0 768 76" fill="none" xmlns="http://www.w3.org/2000/svg">
<rect y="3.4873" width="768" height="70" fill="#211F1D"/>
<path d="M657.297 1.59105L701.743 74.5487" stroke="white" stroke-width="3"/>
<path d="M642.692 1.59105L687.138 74.5487" stroke="white" stroke-width="3"/>
<path d="M244.322 37.9179C244.835 38.1512 245.227 38.4686 245.498 38.8699C245.778 39.2619 245.918 39.7239 245.918 40.2559C245.918 40.8532 245.75 41.3759 245.414 41.8239C245.087 42.2719 244.621 42.6172 244.014 42.8599C243.407 43.0932 242.703 43.2099 241.9 43.2099C241.097 43.2099 240.393 43.0932 239.786 42.8599C239.189 42.6172 238.727 42.2719 238.4 41.8239C238.073 41.3759 237.91 40.8532 237.91 40.2559C237.91 39.7239 238.045 39.2619 238.316 38.8699C238.587 38.4686 238.974 38.1512 239.478 37.9179C239.086 37.7032 238.783 37.4232 238.568 37.0779C238.363 36.7232 238.26 36.3172 238.26 35.8599C238.26 35.3092 238.409 34.8286 238.708 34.4179C239.016 34.0072 239.445 33.6899 239.996 33.4659C240.547 33.2419 241.181 33.1299 241.9 33.1299C242.628 33.1299 243.267 33.2419 243.818 33.4659C244.369 33.6899 244.798 34.0072 245.106 34.4179C245.414 34.8286 245.568 35.3092 245.568 35.8599C245.568 36.3172 245.461 36.7186 245.246 37.0639C245.031 37.4092 244.723 37.6939 244.322 37.9179ZM241.9 34.5579C241.331 34.5579 240.878 34.6792 240.542 34.9219C240.215 35.1646 240.052 35.5052 240.052 35.9439C240.052 36.3639 240.215 36.6999 240.542 36.9519C240.878 37.1946 241.331 37.3159 241.9 37.3159C242.479 37.3159 242.936 37.1946 243.272 36.9519C243.608 36.6999 243.776 36.3639 243.776 35.9439C243.776 35.5052 243.603 35.1646 243.258 34.9219C242.922 34.6792 242.469 34.5579 241.9 34.5579ZM241.9 41.7819C242.572 41.7819 243.104 41.6419 243.496 41.3619C243.888 41.0819 244.084 40.6946 244.084 40.1999C244.084 39.7146 243.888 39.3319 243.496 39.0519C243.104 38.7719 242.572 38.6319 241.9 38.6319C241.228 38.6319 240.701 38.7719 240.318 39.0519C239.935 39.3319 239.744 39.7146 239.744 40.1999C239.744 40.6946 239.935 41.0819 240.318 41.3619C240.701 41.6419 241.228 41.7819 241.9 41.7819ZM253.152 38.5479C252.452 38.5479 251.887 38.3006 251.458 37.8059C251.028 37.3112 250.814 36.6626 250.814 35.8599C250.814 35.0572 251.028 34.4086 251.458 33.9139C251.887 33.4192 252.452 33.1719 253.152 33.1719C253.852 33.1719 254.416 33.4192 254.846 33.9139C255.284 34.3992 255.504 35.0479 255.504 35.8599C255.504 36.6719 255.284 37.3252 254.846 37.8199C254.416 38.3052 253.852 38.5479 253.152 38.5479ZM259.032 33.2699H260.404L253.712 43.0699H252.34L259.032 33.2699ZM253.152 37.5679C253.534 37.5679 253.828 37.4186 254.034 37.1199C254.248 36.8212 254.356 36.4012 254.356 35.8599C254.356 35.3186 254.248 34.8986 254.034 34.5999C253.828 34.3012 253.534 34.1519 253.152 34.1519C252.788 34.1519 252.494 34.3059 252.27 34.6139C252.055 34.9126 251.948 35.3279 251.948 35.8599C251.948 36.3919 252.055 36.8119 252.27 37.1199C252.494 37.4186 252.788 37.5679 253.152 37.5679ZM259.578 43.1679C258.878 43.1679 258.313 42.9206 257.884 42.4259C257.454 41.9312 257.24 41.2826 257.24 40.4799C257.24 39.6772 257.454 39.0286 257.884 38.5339C258.313 38.0392 258.878 37.7919 259.578 37.7919C260.278 37.7919 260.842 38.0392 261.272 38.5339C261.71 39.0286 261.93 39.6772 261.93 40.4799C261.93 41.2826 261.71 41.9312 261.272 42.4259C260.842 42.9206 260.278 43.1679 259.578 43.1679ZM259.578 42.1879C259.951 42.1879 260.245 42.0386 260.46 41.7399C260.674 41.4319 260.782 41.0119 260.782 40.4799C260.782 39.9479 260.674 39.5326 260.46 39.2339C260.245 38.9259 259.951 38.7719 259.578 38.7719C259.204 38.7719 258.91 38.9212 258.696 39.2199C258.481 39.5186 258.374 39.9386 258.374 40.4799C258.374 41.0212 258.481 41.4412 258.696 41.7399C258.91 42.0386 259.204 42.1879 259.578 42.1879ZM270.774 43.1679C270.018 43.1679 269.337 43.0046 268.73 42.6779C268.123 42.3512 267.647 41.8986 267.302 41.3199C266.966 40.7319 266.798 40.0692 266.798 39.3319C266.798 38.5946 266.966 37.9366 267.302 37.3579C267.647 36.7792 268.123 36.3266 268.73 35.9999C269.337 35.6732 270.018 35.5099 270.774 35.5099C271.539 35.5099 272.225 35.6732 272.832 35.9999C273.439 36.3266 273.91 36.7792 274.246 37.3579C274.591 37.9366 274.764 38.5946 274.764 39.3319C274.764 40.0692 274.591 40.7319 274.246 41.3199C273.91 41.8986 273.439 42.3512 272.832 42.6779C272.225 43.0046 271.539 43.1679 270.774 43.1679ZM270.774 41.6699C271.418 41.6699 271.95 41.4552 272.37 41.0259C272.79 40.5966 273 40.0319 273 39.3319C273 38.6319 272.79 38.0672 272.37 37.6379C271.95 37.2086 271.418 36.9939 270.774 36.9939C270.13 36.9939 269.598 37.2086 269.178 37.6379C268.767 38.0672 268.562 38.6319 268.562 39.3319C268.562 40.0319 268.767 40.5966 269.178 41.0259C269.598 41.4552 270.13 41.6699 270.774 41.6699ZM282.141 37.0779H279.523V43.0699H277.773V37.0779H275.141V35.5939H282.141V37.0779ZM290.612 43.1679C289.856 43.1679 289.174 43.0046 288.568 42.6779C287.961 42.3512 287.485 41.8986 287.14 41.3199C286.804 40.7319 286.636 40.0692 286.636 39.3319C286.636 38.5946 286.804 37.9366 287.14 37.3579C287.485 36.7792 287.961 36.3266 288.568 35.9999C289.174 35.6732 289.856 35.5099 290.612 35.5099C291.377 35.5099 292.063 35.6732 292.67 35.9999C293.276 36.3266 293.748 36.7792 294.084 37.3579C294.429 37.9366 294.602 38.5946 294.602 39.3319C294.602 40.0692 294.429 40.7319 294.084 41.3199C293.748 41.8986 293.276 42.3512 292.67 42.6779C292.063 43.0046 291.377 43.1679 290.612 43.1679ZM290.612 41.6699C291.256 41.6699 291.788 41.4552 292.208 41.0259C292.628 40.5966 292.838 40.0319 292.838 39.3319C292.838 38.6319 292.628 38.0672 292.208 37.6379C291.788 37.2086 291.256 36.9939 290.612 36.9939C289.968 36.9939 289.436 37.2086 289.016 37.6379C288.605 38.0672 288.4 38.6319 288.4 39.3319C288.4 40.0319 288.605 40.5966 289.016 41.0259C289.436 41.4552 289.968 41.6699 290.612 41.6699ZM300.377 35.9579C301.086 35.9579 301.711 36.1119 302.253 36.4199C302.794 36.7186 303.214 37.1386 303.513 37.6799C303.821 38.2212 303.975 38.8419 303.975 39.5419C303.975 40.2606 303.807 40.8999 303.471 41.4599C303.135 42.0106 302.663 42.4399 302.057 42.7479C301.45 43.0559 300.759 43.2099 299.985 43.2099C298.687 43.2099 297.684 42.7806 296.975 41.9219C296.265 41.0632 295.911 39.8266 295.911 38.2119C295.911 36.7092 296.233 35.5192 296.877 34.6419C297.521 33.7646 298.505 33.1859 299.831 32.9059L303.303 32.1639L303.555 33.7319L300.405 34.3759C299.499 34.5626 298.823 34.8799 298.375 35.3279C297.927 35.7759 297.665 36.4059 297.591 37.2179C297.927 36.8166 298.333 36.5086 298.809 36.2939C299.285 36.0699 299.807 35.9579 300.377 35.9579ZM300.027 41.7959C300.671 41.7959 301.189 41.5906 301.581 41.1799C301.982 40.7599 302.183 40.2279 302.183 39.5839C302.183 38.9399 301.982 38.4219 301.581 38.0299C301.189 37.6379 300.671 37.4419 300.027 37.4419C299.373 37.4419 298.846 37.6379 298.445 38.0299C298.043 38.4219 297.843 38.9399 297.843 39.5839C297.843 40.2372 298.043 40.7692 298.445 41.1799C298.855 41.5906 299.383 41.7959 300.027 41.7959ZM309 43.1679C308.244 43.1679 307.563 43.0046 306.956 42.6779C306.35 42.3512 305.874 41.8986 305.528 41.3199C305.192 40.7319 305.024 40.0692 305.024 39.3319C305.024 38.5946 305.192 37.9366 305.528 37.3579C305.874 36.7792 306.35 36.3266 306.956 35.9999C307.563 35.6732 308.244 35.5099 309 35.5099C309.766 35.5099 310.452 35.6732 311.058 35.9999C311.665 36.3266 312.136 36.7792 312.472 37.3579C312.818 37.9366 312.99 38.5946 312.99 39.3319C312.99 40.0692 312.818 40.7319 312.472 41.3199C312.136 41.8986 311.665 42.3512 311.058 42.6779C310.452 43.0046 309.766 43.1679 309 43.1679ZM309 41.6699C309.644 41.6699 310.176 41.4552 310.596 41.0259C311.016 40.5966 311.226 40.0319 311.226 39.3319C311.226 38.6319 311.016 38.0672 310.596 37.6379C310.176 37.2086 309.644 36.9939 309 36.9939C308.356 36.9939 307.824 37.2086 307.404 37.6379C306.994 38.0672 306.788 38.6319 306.788 39.3319C306.788 40.0319 306.994 40.5966 307.404 41.0259C307.824 41.4552 308.356 41.6699 309 41.6699ZM318.863 35.5099C319.591 35.5099 320.24 35.6686 320.809 35.9859C321.388 36.3032 321.841 36.7512 322.167 37.3299C322.494 37.9086 322.657 38.5759 322.657 39.3319C322.657 40.0879 322.494 40.7599 322.167 41.3479C321.841 41.9266 321.388 42.3746 320.809 42.6919C320.24 43.0092 319.591 43.1679 318.863 43.1679C317.855 43.1679 317.057 42.8319 316.469 42.1599V45.7859H314.719V35.5939H316.385V36.5739C316.675 36.2192 317.029 35.9532 317.449 35.7759C317.879 35.5986 318.35 35.5099 318.863 35.5099ZM318.667 41.6699C319.311 41.6699 319.839 41.4552 320.249 41.0259C320.669 40.5966 320.879 40.0319 320.879 39.3319C320.879 38.6319 320.669 38.0672 320.249 37.6379C319.839 37.2086 319.311 36.9939 318.667 36.9939C318.247 36.9939 317.869 37.0919 317.533 37.2879C317.197 37.4746 316.931 37.7452 316.735 38.0999C316.539 38.4546 316.441 38.8652 316.441 39.3319C316.441 39.7986 316.539 40.2092 316.735 40.5639C316.931 40.9186 317.197 41.1939 317.533 41.3899C317.869 41.5766 318.247 41.6699 318.667 41.6699ZM327.731 43.1679C326.975 43.1679 326.294 43.0046 325.687 42.6779C325.08 42.3512 324.604 41.8986 324.259 41.3199C323.923 40.7319 323.755 40.0692 323.755 39.3319C323.755 38.5946 323.923 37.9366 324.259 37.3579C324.604 36.7792 325.08 36.3266 325.687 35.9999C326.294 35.6732 326.975 35.5099 327.731 35.5099C328.496 35.5099 329.182 35.6732 329.789 35.9999C330.396 36.3266 330.867 36.7792 331.203 37.3579C331.548 37.9366 331.721 38.5946 331.721 39.3319C331.721 40.0692 331.548 40.7319 331.203 41.3199C330.867 41.8986 330.396 42.3512 329.789 42.6779C329.182 43.0046 328.496 43.1679 327.731 43.1679ZM327.731 41.6699C328.375 41.6699 328.907 41.4552 329.327 41.0259C329.747 40.5966 329.957 40.0319 329.957 39.3319C329.957 38.6319 329.747 38.0672 329.327 37.6379C328.907 37.2086 328.375 36.9939 327.731 36.9939C327.087 36.9939 326.555 37.2086 326.135 37.6379C325.724 38.0672 325.519 38.6319 325.519 39.3319C325.519 40.0319 325.724 40.5966 326.135 41.0259C326.555 41.4552 327.087 41.6699 327.731 41.6699ZM339.098 37.0779H336.48V43.0699H334.73V37.0779H332.098V35.5939H339.098V37.0779ZM343.154 35.5099C344.255 35.5099 345.095 35.7759 345.674 36.3079C346.262 36.8306 346.556 37.6239 346.556 38.6879V43.0699H344.904V42.1599C344.689 42.4866 344.381 42.7386 343.98 42.9159C343.588 43.0839 343.112 43.1679 342.552 43.1679C341.992 43.1679 341.502 43.0746 341.082 42.8879C340.662 42.6919 340.335 42.4259 340.102 42.0899C339.878 41.7446 339.766 41.3572 339.766 40.9279C339.766 40.2559 340.013 39.7192 340.508 39.3179C341.012 38.9072 341.8 38.7019 342.874 38.7019H344.806V38.5899C344.806 38.0672 344.647 37.6659 344.33 37.3859C344.022 37.1059 343.56 36.9659 342.944 36.9659C342.524 36.9659 342.108 37.0312 341.698 37.1619C341.296 37.2926 340.956 37.4746 340.676 37.7079L339.99 36.4339C340.382 36.1352 340.853 35.9066 341.404 35.7479C341.954 35.5892 342.538 35.5099 343.154 35.5099ZM342.916 41.8939C343.354 41.8939 343.742 41.7959 344.078 41.5999C344.423 41.3946 344.666 41.1052 344.806 40.7319V39.8639H343C341.992 39.8639 341.488 40.1952 341.488 40.8579C341.488 41.1752 341.614 41.4272 341.866 41.6139C342.118 41.8006 342.468 41.8939 342.916 41.8939ZM352.59 35.5939H354.34V38.6319H358.106V35.5939H359.856V43.0699H358.106V40.1159H354.34V43.0699H352.59V35.5939ZM364.988 35.5099C366.089 35.5099 366.929 35.7759 367.508 36.3079C368.096 36.8306 368.39 37.6239 368.39 38.6879V43.0699H366.738V42.1599C366.523 42.4866 366.215 42.7386 365.814 42.9159C365.422 43.0839 364.946 43.1679 364.386 43.1679C363.826 43.1679 363.336 43.0746 362.916 42.8879C362.496 42.6919 362.169 42.4259 361.936 42.0899C361.712 41.7446 361.6 41.3572 361.6 40.9279C361.6 40.2559 361.847 39.7192 362.342 39.3179C362.846 38.9072 363.634 38.7019 364.708 38.7019H366.64V38.5899C366.64 38.0672 366.481 37.6659 366.164 37.3859C365.856 37.1059 365.394 36.9659 364.778 36.9659C364.358 36.9659 363.942 37.0312 363.532 37.1619C363.13 37.2926 362.79 37.4746 362.51 37.7079L361.824 36.4339C362.216 36.1352 362.687 35.9066 363.238 35.7479C363.788 35.5892 364.372 35.5099 364.988 35.5099ZM364.75 41.8939C365.188 41.8939 365.576 41.7959 365.912 41.5999C366.257 41.3946 366.5 41.1052 366.64 40.7319V39.8639H364.834C363.826 39.8639 363.322 40.1952 363.322 40.8579C363.322 41.1752 363.448 41.4272 363.7 41.6139C363.952 41.8006 364.302 41.8939 364.75 41.8939ZM377.532 40.0739H376.174V43.0699H374.424V35.5939H376.174V38.6179H377.574L379.786 35.5939H381.662L378.946 39.1919L381.844 43.0699H379.786L377.532 40.0739ZM386.164 43.1679C385.408 43.1679 384.727 43.0046 384.12 42.6779C383.514 42.3512 383.038 41.8986 382.692 41.3199C382.356 40.7319 382.188 40.0692 382.188 39.3319C382.188 38.5946 382.356 37.9366 382.692 37.3579C383.038 36.7792 383.514 36.3266 384.12 35.9999C384.727 35.6732 385.408 35.5099 386.164 35.5099C386.93 35.5099 387.616 35.6732 388.222 35.9999C388.829 36.3266 389.3 36.7792 389.636 37.3579C389.982 37.9366 390.154 38.5946 390.154 39.3319C390.154 40.0692 389.982 40.7319 389.636 41.3199C389.3 41.8986 388.829 42.3512 388.222 42.6779C387.616 43.0046 386.93 43.1679 386.164 43.1679ZM386.164 41.6699C386.808 41.6699 387.34 41.4552 387.76 41.0259C388.18 40.5966 388.39 40.0319 388.39 39.3319C388.39 38.6319 388.18 38.0672 387.76 37.6379C387.34 37.2086 386.808 36.9939 386.164 36.9939C385.52 36.9939 384.988 37.2086 384.568 37.6379C384.158 38.0672 383.952 38.6319 383.952 39.3319C383.952 40.0319 384.158 40.5966 384.568 41.0259C384.988 41.4552 385.52 41.6699 386.164 41.6699ZM391.883 35.5939H393.633V38.6319H397.399V35.5939H399.149V43.0699H397.399V40.1159H393.633V43.0699H391.883V35.5939ZM407.417 37.0779H404.799V43.0699H403.049V37.0779H400.417V35.5939H407.417V37.0779ZM415.358 39.3739C415.358 39.4952 415.349 39.6679 415.33 39.8919H409.464C409.567 40.4426 409.833 40.8812 410.262 41.2079C410.701 41.5252 411.242 41.6839 411.886 41.6839C412.707 41.6839 413.384 41.4132 413.916 40.8719L414.854 41.9499C414.518 42.3512 414.093 42.6546 413.58 42.8599C413.067 43.0652 412.488 43.1679 411.844 43.1679C411.023 43.1679 410.299 43.0046 409.674 42.6779C409.049 42.3512 408.563 41.8986 408.218 41.3199C407.882 40.7319 407.714 40.0692 407.714 39.3319C407.714 38.6039 407.877 37.9506 408.204 37.3719C408.54 36.7839 409.002 36.3266 409.59 35.9999C410.178 35.6732 410.841 35.5099 411.578 35.5099C412.306 35.5099 412.955 35.6732 413.524 35.9999C414.103 36.3172 414.551 36.7699 414.868 37.3579C415.195 37.9366 415.358 38.6086 415.358 39.3739ZM411.578 36.9099C411.018 36.9099 410.542 37.0779 410.15 37.4139C409.767 37.7406 409.534 38.1792 409.45 38.7299H413.692C413.617 38.1886 413.389 37.7499 413.006 37.4139C412.623 37.0779 412.147 36.9099 411.578 36.9099ZM420.38 40.0739H419.022V43.0699H417.272V35.5939H419.022V38.6179H420.422L422.634 35.5939H424.51L421.794 39.1919L424.692 43.0699H422.634L420.38 40.0739ZM429.082 43.1679C428.307 43.1679 427.612 43.0046 426.996 42.6779C426.38 42.3512 425.899 41.8986 425.554 41.3199C425.209 40.7319 425.036 40.0692 425.036 39.3319C425.036 38.5946 425.209 37.9366 425.554 37.3579C425.899 36.7792 426.375 36.3266 426.982 35.9999C427.598 35.6732 428.298 35.5099 429.082 35.5099C429.819 35.5099 430.463 35.6592 431.014 35.9579C431.574 36.2566 431.994 36.6859 432.274 37.2459L430.93 38.0299C430.715 37.6846 430.445 37.4279 430.118 37.2599C429.801 37.0826 429.451 36.9939 429.068 36.9939C428.415 36.9939 427.873 37.2086 427.444 37.6379C427.015 38.0579 426.8 38.6226 426.8 39.3319C426.8 40.0412 427.01 40.6106 427.43 41.0399C427.859 41.4599 428.405 41.6699 429.068 41.6699C429.451 41.6699 429.801 41.5859 430.118 41.4179C430.445 41.2406 430.715 40.9792 430.93 40.6339L432.274 41.4179C431.985 41.9779 431.56 42.4119 431 42.7199C430.449 43.0186 429.81 43.1679 429.082 43.1679ZM433.815 35.5939H435.565V38.6319H439.331V35.5939H441.081V43.0699H439.331V40.1159H435.565V43.0699H433.815V35.5939ZM446.758 43.1679C446.002 43.1679 445.321 43.0046 444.714 42.6779C444.108 42.3512 443.632 41.8986 443.286 41.3199C442.95 40.7319 442.782 40.0692 442.782 39.3319C442.782 38.5946 442.95 37.9366 443.286 37.3579C443.632 36.7792 444.108 36.3266 444.714 35.9999C445.321 35.6732 446.002 35.5099 446.758 35.5099C447.524 35.5099 448.21 35.6732 448.816 35.9999C449.423 36.3266 449.894 36.7792 450.23 37.3579C450.576 37.9366 450.748 38.5946 450.748 39.3319C450.748 40.0692 450.576 40.7319 450.23 41.3199C449.894 41.8986 449.423 42.3512 448.816 42.6779C448.21 43.0046 447.524 43.1679 446.758 43.1679ZM446.758 41.6699C447.402 41.6699 447.934 41.4552 448.354 41.0259C448.774 40.5966 448.984 40.0319 448.984 39.3319C448.984 38.6319 448.774 38.0672 448.354 37.6379C447.934 37.2086 447.402 36.9939 446.758 36.9939C446.114 36.9939 445.582 37.2086 445.162 37.6379C444.752 38.0672 444.546 38.6319 444.546 39.3319C444.546 40.0319 444.752 40.5966 445.162 41.0259C445.582 41.4552 446.114 41.6699 446.758 41.6699ZM452.477 35.5939H454.227V40.5219L458.357 35.5939H459.953V43.0699H458.203V38.1419L454.087 43.0699H452.477V35.5939ZM456.103 34.7119C455.347 34.7119 454.768 34.5392 454.367 34.1939C453.975 33.8392 453.774 33.3259 453.765 32.6539H454.927C454.936 32.9899 455.039 33.2559 455.235 33.4519C455.44 33.6479 455.725 33.7459 456.089 33.7459C456.444 33.7459 456.724 33.6479 456.929 33.4519C457.144 33.2559 457.256 32.9899 457.265 32.6539H458.455C458.446 33.3259 458.24 33.8392 457.839 34.1939C457.438 34.5392 456.859 34.7119 456.103 34.7119ZM470.32 35.5099C471.048 35.5099 471.697 35.6686 472.266 35.9859C472.845 36.3032 473.298 36.7512 473.624 37.3299C473.951 37.9086 474.114 38.5759 474.114 39.3319C474.114 40.0879 473.951 40.7599 473.624 41.3479C473.298 41.9266 472.845 42.3746 472.266 42.6919C471.697 43.0092 471.048 43.1679 470.32 43.1679C469.312 43.1679 468.514 42.8319 467.926 42.1599V45.7859H466.176V35.5939H467.842V36.5739C468.132 36.2192 468.486 35.9532 468.906 35.7759C469.336 35.5986 469.807 35.5099 470.32 35.5099ZM470.124 41.6699C470.768 41.6699 471.296 41.4552 471.706 41.0259C472.126 40.5966 472.336 40.0319 472.336 39.3319C472.336 38.6319 472.126 38.0672 471.706 37.6379C471.296 37.2086 470.768 36.9939 470.124 36.9939C469.704 36.9939 469.326 37.0919 468.99 37.2879C468.654 37.4746 468.388 37.7452 468.192 38.0999C467.996 38.4546 467.898 38.8652 467.898 39.3319C467.898 39.7986 467.996 40.2092 468.192 40.5639C468.388 40.9186 468.654 41.1939 468.99 41.3899C469.326 41.5766 469.704 41.6699 470.124 41.6699ZM482.856 39.3739C482.856 39.4952 482.847 39.6679 482.828 39.8919H476.962C477.065 40.4426 477.331 40.8812 477.76 41.2079C478.199 41.5252 478.74 41.6839 479.384 41.6839C480.205 41.6839 480.882 41.4132 481.414 40.8719L482.352 41.9499C482.016 42.3512 481.591 42.6546 481.078 42.8599C480.565 43.0652 479.986 43.1679 479.342 43.1679C478.521 43.1679 477.797 43.0046 477.172 42.6779C476.547 42.3512 476.061 41.8986 475.716 41.3199C475.38 40.7319 475.212 40.0692 475.212 39.3319C475.212 38.6039 475.375 37.9506 475.702 37.3719C476.038 36.7839 476.5 36.3266 477.088 35.9999C477.676 35.6732 478.339 35.5099 479.076 35.5099C479.804 35.5099 480.453 35.6732 481.022 35.9999C481.601 36.3172 482.049 36.7699 482.366 37.3579C482.693 37.9366 482.856 38.6086 482.856 39.3739ZM479.076 36.9099C478.516 36.9099 478.04 37.0779 477.648 37.4139C477.265 37.7406 477.032 38.1792 476.948 38.7299H481.19C481.115 38.1886 480.887 37.7499 480.504 37.4139C480.121 37.0779 479.645 36.9099 479.076 36.9099ZM487.878 40.0739H486.52V43.0699H484.77V35.5939H486.52V38.6179H487.92L490.132 35.5939H492.008L489.292 39.1919L492.19 43.0699H490.132L487.878 40.0739ZM500.2 35.5939V43.0699H498.45V37.0779H495.65L495.58 38.5619C495.534 39.5512 495.44 40.3819 495.3 41.0539C495.17 41.7166 494.941 42.2439 494.614 42.6359C494.297 43.0186 493.858 43.2099 493.298 43.2099C493.037 43.2099 492.715 43.1586 492.332 43.0559L492.416 41.5859C492.547 41.6139 492.659 41.6279 492.752 41.6279C493.107 41.6279 493.373 41.4879 493.55 41.2079C493.728 40.9186 493.84 40.5779 493.886 40.1859C493.942 39.7846 493.989 39.2152 494.026 38.4779L494.152 35.5939H500.2ZM505.343 35.5099C506.444 35.5099 507.284 35.7759 507.863 36.3079C508.451 36.8306 508.745 37.6239 508.745 38.6879V43.0699H507.093V42.1599C506.878 42.4866 506.57 42.7386 506.169 42.9159C505.777 43.0839 505.301 43.1679 504.741 43.1679C504.181 43.1679 503.691 43.0746 503.271 42.8879C502.851 42.6919 502.524 42.4259 502.291 42.0899C502.067 41.7446 501.955 41.3572 501.955 40.9279C501.955 40.2559 502.202 39.7192 502.697 39.3179C503.201 38.9072 503.99 38.7019 505.063 38.7019H506.995V38.5899C506.995 38.0672 506.836 37.6659 506.519 37.3859C506.211 37.1059 505.749 36.9659 505.133 36.9659C504.713 36.9659 504.298 37.0312 503.887 37.1619C503.486 37.2926 503.145 37.4746 502.865 37.7079L502.179 36.4339C502.571 36.1352 503.042 35.9066 503.593 35.7479C504.144 35.5892 504.727 35.5099 505.343 35.5099ZM505.105 41.8939C505.544 41.8939 505.931 41.7959 506.267 41.5999C506.612 41.3946 506.855 41.1052 506.995 40.7319V39.8639H505.189C504.181 39.8639 503.677 40.1952 503.677 40.8579C503.677 41.1752 503.803 41.4272 504.055 41.6139C504.307 41.8006 504.657 41.8939 505.105 41.8939ZM518.261 43.0699V38.1139L515.741 42.2859H514.985L512.507 38.0999V43.0699H510.911V35.5939H512.745L515.405 40.2699L518.191 35.5939H519.829L519.843 43.0699H518.261ZM529.19 39.3739C529.19 39.4952 529.181 39.6679 529.162 39.8919H523.296C523.399 40.4426 523.665 40.8812 524.094 41.2079C524.533 41.5252 525.074 41.6839 525.718 41.6839C526.539 41.6839 527.216 41.4132 527.748 40.8719L528.686 41.9499C528.35 42.3512 527.925 42.6546 527.412 42.8599C526.899 43.0652 526.32 43.1679 525.676 43.1679C524.855 43.1679 524.131 43.0046 523.506 42.6779C522.881 42.3512 522.395 41.8986 522.05 41.3199C521.714 40.7319 521.546 40.0692 521.546 39.3319C521.546 38.6039 521.709 37.9506 522.036 37.3719C522.372 36.7839 522.834 36.3266 523.422 35.9999C524.01 35.6732 524.673 35.5099 525.41 35.5099C526.138 35.5099 526.787 35.6732 527.356 35.9999C527.935 36.3172 528.383 36.7699 528.7 37.3579C529.027 37.9366 529.19 38.6086 529.19 39.3739ZM525.41 36.9099C524.85 36.9099 524.374 37.0779 523.982 37.4139C523.599 37.7406 523.366 38.1792 523.282 38.7299H527.524C527.449 38.1886 527.221 37.7499 526.838 37.4139C526.455 37.0779 525.979 36.9099 525.41 36.9099Z" fill="white"/>
<path d="M110.24 28.3125H111.718V26.9921H110.24V28.3125ZM115.216 22.8756C115.139 22.8756 115.061 22.9533 114.983 22.9533C114.828 23.0309 114.672 23.1086 114.517 23.2639C114.439 23.4193 114.283 23.5746 114.206 23.73V22.9533H112.728V28.3901H114.206V24.0406H115.838V22.8756C115.761 22.8756 115.605 22.7979 115.527 22.7979C115.45 22.7979 115.294 22.7979 115.216 22.8756ZM120.192 22.8756V27.1474H118.793C118.637 27.1474 118.482 27.0698 118.326 26.9921C118.171 26.8367 118.093 26.6814 118.093 26.5261V22.8756H116.616V26.6037C116.616 26.9921 116.771 27.3804 117.005 27.6911C117.238 28.0018 117.471 28.1571 117.86 28.2348C118.093 28.3125 118.404 28.3125 118.948 28.3125H121.747V22.8756C121.67 22.8756 120.192 22.8756 120.192 22.8756ZM75.1753 44.0018L75.253 53.1668L77.2745 51.2251L79.1405 55.4969L80.6178 54.8756L78.8295 50.6037L81.8618 50.4484L75.1753 44.0018Z" fill="#E01524"/>
<path d="M58.6924 21.4775H49.5179C48.4294 21.4775 47.3409 21.7105 46.4079 22.1766C45.3972 22.6426 44.542 23.2639 43.8422 24.0406C43.609 24.3513 43.3757 24.662 43.0647 24.9727C42.8315 25.361 42.676 25.8271 42.5205 26.2931C42.2872 27.1474 42.1317 28.0795 42.1317 29.0892V38.5649C42.1317 39.1863 42.2095 39.73 42.2872 40.1183C42.365 40.5067 42.5205 40.895 42.5982 41.128C43.0647 42.1377 43.609 42.9921 44.3087 43.6911C45.0084 44.3902 45.7859 44.9339 46.6412 45.2445C47.0299 45.3999 47.4964 45.5552 48.0407 45.6329C48.5849 45.7882 49.2069 45.7882 49.8289 45.7882H58.6146C58.8479 45.7882 58.9256 45.7106 58.9256 45.4775V41.7494C58.9256 41.5164 58.8479 41.4387 58.6146 41.4387H49.7512C48.9737 41.361 48.3517 41.128 47.8852 40.662C47.4187 40.196 47.1854 39.5746 47.1077 38.7979V30.1766C47.1077 29.0115 47.3409 28.0795 47.7297 27.3028C48.1962 26.6038 48.8182 26.1377 49.7512 25.9047H58.6146C58.8479 25.9047 58.9256 25.8271 58.9256 25.594V21.7882C59.0034 21.5552 58.9256 21.4775 58.6924 21.4775ZM65.6898 21.4775H62.1911C61.9579 21.4775 61.8801 21.5552 61.8801 21.7882V41.9047V41.9824V45.4775C61.8801 45.7106 61.9579 45.7882 62.1911 45.7882H65.6898C65.9231 45.7882 66.0008 45.7106 66.0008 45.4775V41.9824V41.9047V21.7882C66.0008 21.5552 65.9231 21.4775 65.6898 21.4775ZM72.765 28.1572H69.2663C69.0331 28.1572 68.9553 28.2348 68.9553 28.4678V45.4775C68.9553 45.7106 69.0331 45.7882 69.2663 45.7882H72.765C72.9983 45.7882 73.076 45.7106 73.076 45.4775V28.4678C73.076 28.2348 72.9983 28.1572 72.765 28.1572ZM72.765 21.4775H69.2663C69.0331 21.4775 68.9553 21.5552 68.9553 21.7882V25.2834C68.9553 25.5164 69.0331 25.594 69.2663 25.594H72.765C72.9983 25.594 73.076 25.5164 73.076 25.2834V21.7882C73.076 21.5552 72.9983 21.4775 72.765 21.4775ZM90.1032 28.1572H84.272C82.7947 28.1572 81.473 28.3125 80.3845 28.7008C79.296 29.0892 78.363 29.5552 77.6633 30.1766C76.9635 30.7979 76.4193 31.5746 76.1083 32.5067C75.7973 33.4387 75.6418 34.4484 75.6418 35.6135V38.4872C75.6418 39.3416 75.7973 40.196 76.186 41.0504C76.5748 41.9047 77.0413 42.6814 77.741 43.4581C78.4408 44.2348 79.296 44.7785 80.229 45.1669C81.2398 45.6329 82.3282 45.8659 83.5722 45.8659H90.0255C90.2587 45.8659 90.3365 45.7882 90.3365 45.5552V42.0601C90.3365 41.8271 90.2587 41.7494 90.0255 41.7494H83.4945C82.095 41.7494 81.0843 41.361 80.4623 40.662C79.8403 39.963 79.5293 39.0309 79.5293 37.8659V36.3902C79.5293 35.2251 79.8403 34.2931 80.54 33.4387C81.162 32.662 82.1727 32.2737 83.4945 32.2737H90.0255C90.2587 32.2737 90.3365 32.196 90.3365 31.963V28.4678C90.4142 28.2348 90.3365 28.1572 90.1032 28.1572ZM109.152 45.6329L102.31 36.4678C102.232 36.3902 102.232 36.3902 102.154 36.2348C102.077 36.0795 102.077 36.0795 102.077 36.0018C102.077 35.9241 102.077 35.9241 102.154 35.8465C102.232 35.7688 102.232 35.6911 102.31 35.6911L108.763 28.4678C108.841 28.3902 108.919 28.3125 108.919 28.2348C108.919 28.1572 108.841 28.1572 108.763 28.1572H104.331C104.098 28.1572 103.865 28.2348 103.709 28.4678L98.1114 34.6814C97.9559 34.9144 97.8004 35.1474 97.6449 35.3805C97.5672 35.6135 97.4894 35.8465 97.4894 36.0795C97.4894 36.3125 97.5672 36.5455 97.6449 36.8562C97.7227 37.0892 97.8782 37.3222 98.0337 37.5552L104.02 45.5552C104.176 45.7882 104.409 45.8659 104.642 45.8659H109.074C109.23 45.8659 109.307 45.7882 109.152 45.6329ZM96.4787 21.4775H92.9799C92.7467 21.4775 92.6689 21.5552 92.6689 21.7882V41.9047V41.9824V45.4775C92.6689 45.7106 92.7467 45.7882 92.9799 45.7882H96.4787C96.7119 45.7882 96.7897 45.7106 96.7897 45.4775V21.7882C96.7897 21.5552 96.7119 21.4775 96.4787 21.4775Z" fill="white"/>
</svg>
