<svg width="309" height="159" viewBox="0 0 309 159" fill="none" xmlns="http://www.w3.org/2000/svg">
<path fill-rule="evenodd" clip-rule="evenodd" d="M33.4642 158.763H-114.799C-120.407 154.279 -125.514 148.631 -130.323 141.522C-194.889 46.0701 39.7647 11.2109 76.243 6.24861L77.2346 6.11368C117.443 0.64149 176.324 -7.37187 234.842 20.1002C287.881 45.0006 333.977 102.043 292.42 153.913C291.057 155.614 289.63 157.23 288.143 158.763H127.551C126.922 158.206 126.292 157.647 125.662 157.088C106.903 140.434 87.7256 123.41 59.8485 141.522C56.177 143.907 52.7402 146.212 49.4467 148.42C43.8554 152.168 38.677 155.64 33.4642 158.763Z" fill="url(#paint0_linear)"/>
<path d="M224 36.4971C210.235 36.4971 199 47.7319 199 61.4971V106.639C199 120.404 210.235 131.639 224 131.639C237.765 131.639 249 120.404 249 106.639V61.4971C249 47.7319 237.765 36.4971 224 36.4971Z" fill="#211F1D"/>
<path d="M224.101 48.6426H223.291V158.764H224.101V48.6426Z" fill="#F9E2FF"/>
<path d="M211.247 81.8407L223.494 92.0633L237.158 82.3467L236.753 81.6383L223.494 91.0512L211.956 81.2334L211.247 81.8407Z" fill="#F9E2FF"/>
<path d="M211.247 106.336L223.494 116.558L237.158 106.842L236.753 106.133L223.494 115.546L211.956 105.729L211.247 106.336Z" fill="#F9E2FF"/>
<path d="M211.247 57.3466L223.494 67.5692L237.158 57.8526L236.753 57.1441L223.494 66.5571L211.956 56.7393L211.247 57.3466Z" fill="#F9E2FF"/>
<defs>
<linearGradient id="paint0_linear" x1="319.182" y1="7.16382" x2="-22.48" y2="314.58" gradientUnits="userSpaceOnUse">
<stop offset="0.232963" stop-color="#F16A51"/>
<stop offset="0.656448" stop-color="#B761F2"/>
<stop offset="0.979167" stop-color="#5869FF"/>
</linearGradient>
</defs>
</svg>
