<svg width="400" height="123" viewBox="0 0 400 123" fill="none" xmlns="http://www.w3.org/2000/svg">
<path fill-rule="evenodd" clip-rule="evenodd" d="M438.783 122.559H0.777344C34.3923 67.2205 180.355 42.9585 208.679 39.1055C248.908 33.6331 311.331 29.2127 370.332 56.9116C400.08 70.8774 427.644 94.9543 438.783 122.559Z" fill="url(#paint0_linear)"/>
<path d="M335.988 0.291016C322.223 0.291016 310.988 11.5258 310.988 25.291V70.4327C310.988 84.1978 322.223 95.4327 335.988 95.4327C349.753 95.4327 360.988 84.1978 360.988 70.4327V25.291C360.988 11.5258 349.753 0.291016 335.988 0.291016Z" fill="#211F1D"/>
<path d="M336.089 12.4375H335.279V122.559H336.089V12.4375Z" fill="#F9E2FF"/>
<path d="M323.234 45.6346L335.481 55.8573L349.145 46.1407L348.74 45.4322L335.481 54.8451L323.943 45.0273L323.234 45.6346Z" fill="#F9E2FF"/>
<path d="M323.234 70.1288L335.481 80.3514L349.145 70.6349L348.74 69.9263L335.481 79.3393L323.943 69.5215L323.234 70.1288Z" fill="#F9E2FF"/>
<path d="M323.234 21.1405L335.481 31.3632L349.145 21.6466L348.74 20.9381L335.481 30.351L323.943 20.5332L323.234 21.1405Z" fill="#F9E2FF"/>
<defs>
<linearGradient id="paint0_linear" x1="454.672" y1="43.9753" x2="113.01" y2="351.392" gradientUnits="userSpaceOnUse">
<stop offset="0.232963" stop-color="#F16A51"/>
<stop offset="0.656448" stop-color="#B761F2"/>
<stop offset="0.979167" stop-color="#5869FF"/>
</linearGradient>
</defs>
</svg>
