<svg width="79" height="79" viewBox="0 0 79 79" fill="none" xmlns="http://www.w3.org/2000/svg">
<path d="M65.4587 66.1903H3.6655C2.3228 66.1903 1.23438 65.1019 1.23438 63.7592V25.4565H67.8898V63.7592C67.8898 65.1019 66.8014 66.1903 65.4587 66.1903Z" fill="#D8D8D8"/>
<path d="M27.3089 51.0584C28.932 52.8227 31.5849 53.8363 34.5628 53.8469C37.5109 53.837 40.1391 52.8418 41.7671 51.1121C42.2319 50.612 42.2029 49.8315 41.7036 49.3675C41.2042 48.9034 40.423 48.9317 39.959 49.4317C38.9758 50.511 36.9374 51.3882 34.5621 51.3783C32.1634 51.3889 30.1073 50.4926 29.1369 49.3992C28.6785 48.8942 27.898 48.8568 27.393 49.3152C26.8887 49.7729 26.8512 50.5541 27.3089 51.0584Z" fill="#211F1D"/>
<path d="M25.9215 37.8001C25.9215 39.1633 24.8161 40.2687 23.4529 40.2687C22.0898 40.2687 20.9844 39.1633 20.9844 37.8001C20.9844 36.4362 22.0898 35.3315 23.4529 35.3315C24.8161 35.3315 25.9215 36.4362 25.9215 37.8001Z" fill="#211F1D"/>
<path d="M48.1398 37.8001C48.1398 39.1633 47.0351 40.2687 45.6712 40.2687C44.308 40.2687 43.2026 39.1633 43.2026 37.8001C43.2026 36.4362 44.308 35.3315 45.6712 35.3315C47.0351 35.3315 48.1398 36.4362 48.1398 37.8001Z" fill="#211F1D"/>
<path d="M59.2496 45.2065C59.2496 46.5697 58.1442 47.675 56.7811 47.675C55.4172 47.675 54.3125 46.5697 54.3125 45.2065C54.3125 43.8426 55.4172 42.7372 56.7811 42.7372C58.1442 42.7372 59.2496 43.8426 59.2496 45.2065Z" fill="#FF927D"/>
<path d="M17.2816 45.2065C17.2816 46.5697 16.1762 47.675 14.813 47.675C13.4491 47.675 12.3438 46.5697 12.3438 45.2065C12.3438 43.8426 13.4491 42.7372 14.813 42.7372C16.1762 42.7372 17.2816 43.8426 17.2816 45.2065Z" fill="#FF927D"/>
<path d="M0 11.8761H69.1247V26.6922H0V11.8761Z" fill="#FFF35F"/>
<path d="M21.601 18.0503C19.8967 18.0503 18.5151 16.6688 18.5151 14.9644V7.55805C18.5151 5.85371 19.8967 4.47217 21.601 4.47217C23.306 4.47217 24.6876 5.85371 24.6876 7.55805V14.9644C24.6876 16.6688 23.306 18.0503 21.601 18.0503Z" fill="#FF927D"/>
<path d="M46.2885 18.0503C44.5842 18.0503 43.2026 16.6688 43.2026 14.9644V7.55805C43.2026 5.85371 44.5842 4.47217 46.2885 4.47217C47.9928 4.47217 49.3744 5.85371 49.3744 7.55805V14.9644C49.3744 16.6688 47.9928 18.0503 46.2885 18.0503Z" fill="#FF927D"/>
<path d="M77.7649 64.9565H50.6094V26.8665C50.6094 24.7242 52.3462 22.9874 54.487 22.9874H73.8873C76.0288 22.9874 77.7649 24.7242 77.7649 26.8658V64.9565Z" fill="#FF927D"/>
<path d="M73.8873 74.8314H54.487C52.3462 74.8314 50.6094 73.0946 50.6094 70.953V64.9564H77.7657V70.953C77.765 73.0953 76.0281 74.8314 73.8873 74.8314Z" fill="#999999"/>
<path d="M66.6561 69.8935C66.6561 71.2567 65.5507 72.362 64.1875 72.362C62.8236 72.362 61.7183 71.2567 61.7183 69.8935C61.7183 68.5303 62.8236 67.4249 64.1875 67.4249C65.5507 67.4249 66.6561 68.5303 66.6561 69.8935Z" fill="#FF927D"/>
<path d="M58.3771 28.2861L54.0566 32.6066C53.5742 33.089 53.5742 33.8702 54.0566 34.3526C54.5383 34.8343 55.3202 34.8343 55.8019 34.3526L60.1224 30.0321C60.6049 29.5504 60.6049 28.7685 60.1224 28.2861C59.64 27.8044 58.8589 27.8044 58.3771 28.2861Z" fill="#FFF35F"/>
</svg>
