<svg width="79" height="79" viewBox="0 0 79 79" fill="none" xmlns="http://www.w3.org/2000/svg">
<path d="M73.373 57.033H5.62772C3.21252 57.033 1.25439 55.0749 1.25439 52.6597V15.0097C1.25439 12.5945 3.21252 10.6364 5.62772 10.6364H73.373C75.7882 10.6364 77.7463 12.5945 77.7463 15.0097V52.6597C77.7463 55.0749 75.7882 57.033 73.373 57.033Z" fill="#8065C4"/>
<path d="M33.8569 57.0331H45.1429V68.3191H33.8569V57.0331Z" fill="#999999"/>
<path d="M26.3331 69.5724H51.4128C52.1052 69.5724 52.6663 69.0113 52.6663 68.3189C52.6663 67.6258 52.1052 67.0647 51.4128 67.0647H26.3331C25.6407 67.0647 25.0796 67.6258 25.0796 68.3189C25.0796 69.0113 25.6407 69.5724 26.3331 69.5724Z" fill="#211F1D"/>
<path d="M61.4449 57.0329C61.4449 44.5673 51.3393 34.4617 38.873 34.4617C26.4074 34.4617 16.3018 44.5673 16.3018 57.0329H61.4449Z" fill="#FFF35F"/>
<path d="M51.413 43.2393C51.4123 40.8148 49.4484 38.8509 47.0239 38.8502C44.5994 38.8509 42.6355 40.8148 42.6348 43.2393C42.6348 43.9317 43.1966 44.4936 43.889 44.4936C44.5814 44.4936 45.1432 43.9317 45.1432 43.2393C45.1447 42.2011 45.9856 41.3601 47.0239 41.358C48.0622 41.3601 48.9031 42.2011 48.9045 43.2393C48.9045 43.9317 49.4664 44.4936 50.1588 44.4936C50.8512 44.4936 51.413 43.9317 51.413 43.2393Z" fill="#211F1D"/>
<path d="M36.3649 43.2393C36.3642 40.8148 34.401 38.8509 31.9758 38.8502C29.5513 38.8509 27.5881 40.8148 27.5874 43.2393C27.5874 43.9317 28.1485 44.4936 28.8409 44.4936C29.5341 44.4936 30.0952 43.9317 30.0952 43.2393C30.0973 42.2011 30.9375 41.3601 31.9758 41.358C33.0148 41.3601 33.855 42.2011 33.8572 43.2393C33.8572 43.9317 34.4183 44.4936 35.1114 44.4936C35.8038 44.4936 36.3649 43.9317 36.3649 43.2393Z" fill="#211F1D"/>
<path d="M28.1412 50.9104C29.3251 52.0534 30.908 52.9417 32.747 53.5616C34.5867 54.1794 36.6884 54.5246 38.9235 54.5246C41.1851 54.5246 43.3104 54.1715 45.1659 53.5387C47.0207 52.9044 48.6115 51.9967 49.7897 50.8264C50.2805 50.3378 50.2819 49.5435 49.7933 49.0534C49.3039 48.5626 48.5103 48.5619 48.0195 49.0505C47.1973 49.8728 45.928 50.6313 44.3566 51.1651C42.7866 51.7011 40.9218 52.0175 38.9235 52.0175C36.9488 52.0175 35.1048 51.709 33.5463 51.1845C31.9879 50.6621 30.72 49.9195 29.8862 49.1087C29.389 48.6265 28.5947 48.6394 28.1132 49.1374C27.631 49.6346 27.644 50.4289 28.1412 50.9104Z" fill="#211F1D"/>
<path d="M66.8653 21.3748C66.8653 21.7896 66.7914 22.1677 66.6436 22.5107C66.4958 22.8551 66.3071 23.1701 66.076 23.4564C65.8442 23.7441 65.5867 24.0074 65.3032 24.2464C65.0205 24.4867 64.745 24.7056 64.4781 24.9058C64.2104 25.1052 63.9636 25.2904 63.7362 25.4611C63.5087 25.6326 63.3394 25.7941 63.2281 25.9462C63.1794 26.01 63.1241 26.1083 63.0602 26.2389C62.9964 26.3717 62.9648 26.5202 62.9648 26.6888C62.9648 27.1193 62.8306 27.4745 62.5637 27.7529C62.2961 28.0335 61.8799 28.172 61.3138 28.172C60.9701 28.172 60.6888 28.1181 60.47 28.0112C60.2504 27.9036 60.0746 27.7701 59.9433 27.6094C59.8113 27.4501 59.7194 27.2786 59.6685 27.0949C59.6161 26.9113 59.5896 26.7441 59.5896 26.5927C59.5896 26.0509 59.6814 25.5946 59.8651 25.2287C60.0488 24.8613 60.2798 24.5441 60.5597 24.2772C60.8388 24.0103 61.138 23.7764 61.4566 23.5769C61.7759 23.3774 62.0751 23.1701 62.3542 22.9548C62.6333 22.7396 62.8651 22.4985 63.0488 22.2308C63.2317 21.9639 63.3236 21.631 63.3236 21.2313C63.3236 20.8166 63.254 20.4894 63.1141 20.2505C62.9749 20.0108 62.8034 19.8329 62.5996 19.7181C62.3958 19.6018 62.1849 19.5308 61.9653 19.5021C61.7457 19.4741 61.5599 19.4605 61.4092 19.4605C61.0103 19.4605 60.691 19.5186 60.452 19.6334C60.2124 19.7496 60.0308 19.8953 59.9074 20.0711C59.7833 20.2462 59.7036 20.4392 59.6685 20.6516C59.6319 20.8632 59.614 21.0641 59.614 21.255C59.614 21.5671 59.5544 21.8319 59.4346 22.0515C59.3147 22.2717 59.1655 22.4482 58.9861 22.5839C58.806 22.7195 58.6109 22.8185 58.3992 22.8823C58.1882 22.9476 57.9945 22.9792 57.8187 22.9792C57.2763 22.9792 56.8378 22.8285 56.5028 22.53C56.1677 22.2308 56.0005 21.8462 56.0005 21.3748C56.0005 21.1682 56.0242 20.9013 56.0722 20.5726C56.1196 20.2454 56.2114 19.8996 56.3471 19.5322C56.4834 19.1656 56.6742 18.7982 56.9211 18.4308C57.1686 18.0649 57.4922 17.7327 57.8905 17.4378C58.2901 17.1429 58.7766 16.9039 59.3506 16.7202C59.9254 16.5365 60.6113 16.4447 61.4085 16.4447C62.3097 16.4447 63.1019 16.5674 63.7835 16.8092C64.4659 17.0532 65.0349 17.3926 65.4891 17.8274C65.944 18.2622 66.287 18.7795 66.518 19.3823C66.7491 19.985 66.8653 20.6487 66.8653 21.3748ZM63.3709 31.4503C63.3709 32.1291 63.1994 32.6285 62.8565 32.9521C62.5135 33.275 62.0306 33.4372 61.4085 33.4372C60.7706 33.4372 60.2798 33.275 59.9368 32.9521C59.5946 32.6285 59.4224 32.1291 59.4224 31.4503C59.4224 30.7644 59.5939 30.2664 59.9368 29.9543C60.2798 29.6436 60.7706 29.4879 61.4085 29.4879C62.0708 29.4879 62.5637 29.6436 62.8866 29.9543C63.2095 30.2664 63.3709 30.7644 63.3709 31.4503Z" fill="#FFF35F"/>
</svg>
