<svg width="79" height="79" viewBox="0 0 79 79" fill="none" xmlns="http://www.w3.org/2000/svg">
<path d="M73.0536 72.3169H5.94662C3.41441 72.3169 1.3623 70.2648 1.3623 67.7326V43.7136H77.638V67.7326C77.638 70.2648 75.5851 72.3169 73.0536 72.3169Z" fill="#AAAAAA"/>
<path d="M77.638 43.7135H1.3623L13.6204 20.5581H65.3791L77.638 43.7135Z" fill="#D8D8D8"/>
<path d="M22.5193 61.1647C24.3703 62.5637 26.8448 63.6533 29.7488 64.421C32.652 65.1848 35.9846 65.6142 39.5347 65.6142C43.1269 65.6142 46.4977 65.1739 49.4258 64.3929C52.354 63.6081 54.841 62.4944 56.6826 61.0626C57.2758 60.5997 57.381 59.7447 56.9188 59.1508C56.4558 58.5585 55.6001 58.4525 55.007 58.9154C53.5799 60.0331 51.3922 61.0517 48.7228 61.761C46.0527 62.4749 42.9024 62.8911 39.5347 62.8911C36.2067 62.8911 33.0916 62.4842 30.4424 61.7867C27.7933 61.0922 25.6118 60.0954 24.1653 58.9949C23.566 58.5405 22.7118 58.6575 22.2574 59.2576C21.803 59.8561 21.9199 60.7103 22.5193 61.1647Z" fill="#211F1D"/>
<path d="M23.1557 51.8862C23.1557 53.3904 21.936 54.6102 20.431 54.6102C18.9268 54.6102 17.707 53.3904 17.707 51.8862C17.707 50.3812 18.9268 49.1615 20.431 49.1615C21.936 49.1615 23.1557 50.3812 23.1557 51.8862Z" fill="#211F1D"/>
<path d="M61.2931 51.8862C61.2931 53.3904 60.0733 54.6102 58.5691 54.6102C57.0649 54.6102 55.8452 53.3904 55.8452 51.8862C55.8452 50.3812 57.0649 49.1615 58.5691 49.1615C60.0733 49.1615 61.2931 50.3812 61.2931 51.8862Z" fill="#211F1D"/>
<path d="M49.7657 25.625C48.8023 24.4691 47.0846 24.3148 45.9288 25.2766L42.2236 28.3629V9.66168C42.2236 8.15747 41.0038 6.93774 39.4996 6.93774C37.9954 6.93774 36.7757 8.15747 36.7757 9.66168V28.3629L33.0713 25.2766C31.9147 24.3148 30.1977 24.4691 29.2344 25.625C28.2711 26.7808 28.4278 28.4985 29.5836 29.4611L37.7554 36.2713L37.8754 36.3547L38.064 36.4856L38.3158 36.622L38.5098 36.7109L38.8138 36.8052L38.9915 36.8519C39.1598 36.8839 39.329 36.9034 39.4996 36.9034C39.6695 36.9034 39.8395 36.8839 40.0078 36.8519L40.1847 36.8052L40.4887 36.7109L40.6827 36.622L40.9353 36.4856L41.1231 36.3547L41.2431 36.2713L49.4157 29.4611C50.5723 28.4985 50.7282 26.7808 49.7657 25.625Z" fill="#31D887"/>
<path d="M72.1891 64.1443C72.1891 65.6493 70.9694 66.8683 69.4652 66.8683C67.9609 66.8683 66.7412 65.6493 66.7412 64.1443C66.7412 62.6401 67.9609 61.4204 69.4652 61.4204C70.9694 61.4204 72.1891 62.6401 72.1891 64.1443Z" fill="#31D887"/>
<path d="M10.8966 64.1443C10.8966 65.6493 9.67687 66.8683 8.17266 66.8683C6.66768 66.8683 5.44873 65.6493 5.44873 64.1443C5.44873 62.6401 6.66768 61.4204 8.17266 61.4204C9.67687 61.4204 10.8966 62.6401 10.8966 64.1443Z" fill="#FF927D"/>
<path d="M62.6551 26.0068H54.4825C53.7304 26.0068 53.1201 26.6163 53.1201 27.3684C53.1201 28.1205 53.7304 28.7308 54.4825 28.7308H62.6551C63.4072 28.7308 64.0167 28.1205 64.0167 27.3684C64.0167 26.6163 63.4072 26.0068 62.6551 26.0068Z" fill="#AAAAAA"/>
<path d="M65.3789 30.0931H57.2063C56.4542 30.0931 55.8447 30.7026 55.8447 31.4547C55.8447 32.2068 56.4542 32.8171 57.2063 32.8171H65.3789C66.131 32.8171 66.7412 32.2068 66.7412 31.4547C66.7412 30.7026 66.131 30.0931 65.3789 30.0931Z" fill="#AAAAAA"/>
<path d="M68.103 34.1787H59.9312C59.1783 34.1787 58.5688 34.7882 58.5688 35.5411C58.5688 36.2932 59.1783 36.9034 59.9312 36.9034H68.103C68.8551 36.9034 69.4654 36.2932 69.4654 35.5411C69.4654 34.789 68.8551 34.1787 68.103 34.1787Z" fill="#AAAAAA"/>
<path d="M16.3453 28.7308H24.5171C25.2692 28.7308 25.8794 28.1205 25.8794 27.3684C25.8794 26.6163 25.2692 26.0068 24.5171 26.0068H16.3453C15.5924 26.0068 14.9829 26.6163 14.9829 27.3684C14.9829 28.1205 15.5924 28.7308 16.3453 28.7308Z" fill="#AAAAAA"/>
<path d="M13.6204 32.8171H21.7929C22.5451 32.8171 23.1553 32.2068 23.1553 31.4547C23.1553 30.7026 22.5451 30.0931 21.7929 30.0931H13.6204C12.8683 30.0931 12.2588 30.7026 12.2588 31.4547C12.2588 32.2068 12.8683 32.8171 13.6204 32.8171Z" fill="#AAAAAA"/>
<path d="M10.8965 36.9034H19.0691C19.8212 36.9034 20.4307 36.2932 20.4307 35.5411C20.4307 34.7882 19.8212 34.1787 19.0691 34.1787H10.8965C10.1444 34.1787 9.53418 34.7882 9.53418 35.5411C9.53418 36.2932 10.1444 36.9034 10.8965 36.9034Z" fill="#AAAAAA"/>
</svg>
