<svg width="80" height="79" viewBox="0 0 80 79" fill="none" xmlns="http://www.w3.org/2000/svg">
<path d="M41.7583 67.1002H1.58936V5.69756C1.58936 3.37376 3.47261 1.48975 5.79641 1.48975H37.5512C39.875 1.48975 41.7583 3.37376 41.7583 5.69756V67.1002Z" fill="#FF927D"/>
<path d="M37.5512 77.8119H5.79641C3.47261 77.8119 1.58936 75.9287 1.58936 73.6049V67.1001H41.7583V73.6049C41.7583 75.9287 39.875 77.8119 37.5512 77.8119Z" fill="#999999"/>
<path d="M24.3516 72.4556C24.3516 73.9351 23.1526 75.1341 21.6739 75.1341C20.1952 75.1341 18.9961 73.9351 18.9961 72.4556C18.9961 70.9769 20.1952 69.7778 21.6739 69.7778C23.1526 69.7778 24.3516 70.9769 24.3516 72.4556Z" fill="#FF927D"/>
<path d="M28.3687 27.6002C28.3702 26.8616 28.9694 26.2624 29.708 26.2609C30.4466 26.2624 31.0457 26.8616 31.0465 27.6002C31.0465 28.3395 31.6464 28.9394 32.3857 28.9394C33.1251 28.9394 33.725 28.3395 33.725 27.6002C33.7235 25.3806 31.9268 23.5839 29.708 23.5831C27.4891 23.5839 25.6917 25.3806 25.6909 27.6002C25.6909 28.3395 26.2901 28.9394 27.0302 28.9394C27.7695 28.9394 28.3687 28.3395 28.3687 27.6002Z" fill="#211F1D"/>
<path d="M12.3011 27.6002C12.3019 26.8616 12.901 26.2624 13.6396 26.2609C14.379 26.2624 14.9773 26.8616 14.9789 27.6002C14.9789 28.3395 15.578 28.9394 16.3181 28.9394C17.0575 28.9394 17.6566 28.3395 17.6566 27.6002C17.6559 25.3806 15.8592 23.5839 13.6396 23.5831C11.4208 23.5839 9.62409 25.3806 9.62256 27.6002C9.62256 28.3395 10.2225 28.9394 10.9618 28.9394C11.7012 28.9394 12.3011 28.3395 12.3011 27.6002Z" fill="#211F1D"/>
<path d="M12.3008 34.2949C12.3008 36.1437 10.8021 37.6423 8.95337 37.6423C7.10459 37.6423 5.60596 36.1437 5.60596 34.2949C5.60596 32.4461 7.10459 30.9475 8.95337 30.9475C10.8021 30.9475 12.3008 32.4461 12.3008 34.2949Z" fill="#FF927D"/>
<path d="M37.7415 34.2949C37.7415 36.1437 36.2421 37.6423 34.3933 37.6423C32.5453 37.6423 31.0459 36.1437 31.0459 34.2949C31.0459 32.4461 32.5453 30.9475 34.3933 30.9475C36.2421 30.9475 37.7415 32.4461 37.7415 34.2949Z" fill="#FF927D"/>
<path d="M10.0147 5.89898L5.99843 9.91602C5.47513 10.4385 5.47513 11.2867 5.99843 11.8092C6.52096 12.3325 7.36911 12.3325 7.89164 11.8092L11.9087 7.79219C12.4312 7.26966 12.4312 6.42151 11.9087 5.89898C11.3854 5.37645 10.538 5.37645 10.0147 5.89898Z" fill="#FFF35F"/>
<path d="M18.0493 5.89898L6.66778 17.2805C6.14525 17.803 6.14525 18.6511 6.66778 19.1737C7.19107 19.697 8.03922 19.697 8.56175 19.1737L19.9432 7.79219C20.4658 7.26966 20.4658 6.42151 19.9432 5.89898C19.4199 5.37645 18.5726 5.37645 18.0493 5.89898Z" fill="#FFF35F"/>
<path d="M13.805 41.313C15.5664 43.2262 18.4434 44.3256 21.6736 44.3371C24.8716 44.3264 27.7225 43.2469 29.4885 41.3705C29.9919 40.8288 29.9613 39.9814 29.4188 39.4781C28.8771 38.9747 28.0297 39.0061 27.5264 39.5478C26.4606 40.7185 24.2494 41.6701 21.6736 41.6593C19.0709 41.6708 16.8421 40.6993 15.7871 39.5125C15.2898 38.9647 14.4424 38.9241 13.8954 39.4214C13.3483 39.9186 13.3077 40.766 13.805 41.313Z" fill="#211F1D"/>
<path d="M61.6889 63.083H39.9043C38.7106 63.083 37.7422 62.1146 37.7422 60.9201V46.8609C37.7422 37.9013 45.0047 30.6379 53.9636 30.6379H61.6889C70.6485 30.6379 77.911 37.9013 77.911 46.8609C77.911 55.8197 70.6485 63.083 61.6889 63.083Z" fill="#9AF43B"/>
<path d="M51.1317 47.0149C51.1317 48.4944 49.9326 49.6934 48.4539 49.6934C46.9744 49.6934 45.7754 48.4944 45.7754 47.0149C45.7754 45.5362 46.9744 44.3372 48.4539 44.3372C49.9326 44.3372 51.1317 45.5362 51.1317 47.0149Z" fill="#211F1D"/>
<path d="M59.1659 47.0149C59.1659 48.4944 57.9668 49.6934 56.4874 49.6934C55.0086 49.6934 53.8096 48.4944 53.8096 47.0149C53.8096 45.5362 55.0086 44.3372 56.4874 44.3372C57.9668 44.3372 59.1659 45.5362 59.1659 47.0149Z" fill="#211F1D"/>
<path d="M67.1988 47.0149C67.1988 48.4944 65.9997 49.6934 64.521 49.6934C63.0423 49.6934 61.8433 48.4944 61.8433 47.0149C61.8433 45.5362 63.0423 44.3372 64.521 44.3372C65.9997 44.3372 67.1988 45.5362 67.1988 47.0149Z" fill="#211F1D"/>
</svg>
