<svg width="79" height="79" viewBox="0 0 79 79" fill="none" xmlns="http://www.w3.org/2000/svg">
<g clip-path="url(#clip0)">
<path d="M56.2844 49.9345C56.2844 65.115 43.9778 77.4224 28.7965 77.4224C13.6152 77.4224 1.30859 65.115 1.30859 49.9345C1.30859 34.7532 13.6152 22.4458 28.7965 22.4458C43.9778 22.4458 56.2844 34.7532 56.2844 49.9345Z" fill="#FFF35F"/>
<path d="M21.1049 54.2127C22.826 56.0837 25.64 57.1585 28.797 57.1697C31.9233 57.1592 34.711 56.1039 36.4374 54.2696C36.9295 53.7393 36.8988 52.9117 36.3693 52.4196C35.8397 51.9276 35.0114 51.9575 34.5193 52.4878C33.4767 53.6322 31.3151 54.5625 28.7962 54.552C26.2527 54.5632 24.0731 53.6128 23.0432 52.4533C22.5572 51.9186 21.7295 51.8781 21.1947 52.3642C20.6592 52.8496 20.6188 53.6779 21.1049 54.2127Z" fill="#211F1D"/>
<path d="M19.634 38.1535C19.634 39.599 18.4626 40.7713 17.0162 40.7713C15.5706 40.7713 14.3984 39.599 14.3984 38.1535C14.3984 36.7079 15.5706 35.5356 17.0162 35.5356C18.4626 35.5356 19.634 36.7079 19.634 38.1535Z" fill="#211F1D"/>
<path d="M43.1953 38.1535C43.1953 39.599 42.0231 40.7713 40.5768 40.7713C39.1312 40.7713 37.959 39.599 37.959 38.1535C37.959 36.7079 39.1312 35.5356 40.5768 35.5356C42.0231 35.5356 43.1953 36.7079 43.1953 38.1535Z" fill="#211F1D"/>
<path d="M43.1953 46.0077C43.1953 47.4533 42.0231 48.6255 40.5768 48.6255C39.1312 48.6255 37.959 47.4533 37.959 46.0077C37.959 44.5614 39.1312 43.3892 40.5768 43.3892C42.0231 43.3892 43.1953 44.5614 43.1953 46.0077Z" fill="#FF927D"/>
<path d="M19.634 46.0077C19.634 47.4533 18.4626 48.6255 17.0162 48.6255C15.5706 48.6255 14.3984 47.4533 14.3984 46.0077C14.3984 44.5614 15.5706 43.3892 17.0162 43.3892C18.4626 43.3892 19.634 44.5614 19.634 46.0077Z" fill="#FF927D"/>
<path d="M61.5206 25.0642C61.5206 27.2325 59.7627 28.9911 57.5944 28.9911C55.4254 28.9911 53.6675 27.2325 53.6675 25.0642C53.6675 22.8951 55.4254 21.1372 57.5944 21.1372C59.7627 21.1372 61.5206 22.8951 61.5206 25.0642Z" fill="#31D887"/>
<path d="M68.5168 20.6436C66.7694 16.3265 62.5361 13.2848 57.5943 13.2833C52.7154 13.2848 48.5255 16.2486 46.74 20.4781C46.4583 21.144 46.7699 21.9124 47.4358 22.194C48.1016 22.4749 48.8701 22.1633 49.151 21.4975C50.5426 18.2087 53.7977 15.8995 57.5943 15.9003C61.4389 15.8988 64.7292 18.2693 66.0901 21.6256C66.362 22.2959 67.1244 22.6195 67.7948 22.3476C68.4651 22.0772 68.788 21.314 68.5168 20.6436Z" fill="#211F1D"/>
<path d="M73.1919 16.9444C70.5682 10.936 64.5696 6.74015 57.5942 6.73865C50.6196 6.74015 44.621 10.9352 41.9958 16.9421C41.7059 17.6042 42.0085 18.3764 42.6706 18.667C43.3335 18.9562 44.1049 18.6543 44.3948 17.9922C46.6193 12.9088 51.6915 9.35487 57.5942 9.35636C63.4985 9.35487 68.5699 12.9088 70.7937 17.993C71.0828 18.6543 71.8542 18.9569 72.5171 18.6678C73.1792 18.3787 73.481 17.6065 73.1919 16.9444Z" fill="#211F1D"/>
<path d="M78.8067 12.0738C74.4363 4.94943 66.5675 0.194092 57.5946 0.194092C47.97 0.194841 39.6173 5.66321 35.4866 13.6624C35.1548 14.3043 35.4065 15.0937 36.0491 15.4263C36.691 15.7581 37.4812 15.5057 37.813 14.8638C41.513 7.70421 48.9797 2.81106 57.5946 2.81181C65.6267 2.81181 72.6575 7.06382 76.5755 13.443C76.9537 14.0594 77.7596 14.2519 78.376 13.8744C78.9917 13.4961 79.1849 12.6902 78.8067 12.0738Z" fill="#211F1D"/>
</g>
<defs>
<clipPath id="clip0">
<rect width="79" height="79" fill="white" transform="translate(0 -0.000488281)"/>
</clipPath>
</defs>
</svg>
