<svg width="21" height="21" viewBox="0 0 21 21" fill="none" xmlns="http://www.w3.org/2000/svg">
<g clip-path="url(#clip0)">
<path d="M20.9246 18.593L15.0201 12.6885C16.0002 11.3806 16.5883 9.76313 16.5883 8.00692C16.5883 3.6882 13.0752 0.175049 8.75644 0.175049C4.43772 0.175049 0.924561 3.6882 0.924561 8.00692C0.924561 12.3256 4.43772 15.8388 8.75644 15.8388C10.5126 15.8388 12.1301 15.2507 13.438 14.2706L19.3425 20.175L20.9246 18.593ZM1.67045 8.00692C1.67045 4.09956 4.84908 0.920942 8.75644 0.920942C12.6638 0.920942 15.8424 4.09956 15.8424 8.00692C15.8424 11.9143 12.6638 15.0929 8.75644 15.0929C4.84908 15.0929 1.67045 11.9143 1.67045 8.00692Z" fill="#211F1D"/>
</g>
<defs>
<clipPath id="clip0">
<rect width="20" height="20" fill="white" transform="translate(0.924561 0.175049)"/>
</clipPath>
</defs>
</svg>
