<svg width="51" height="51" viewBox="0 0 51 51" fill="none" xmlns="http://www.w3.org/2000/svg">
<g clip-path="url(#clip0)">
<path d="M25.1192 50.129C38.9263 50.129 50.1192 38.9361 50.1192 25.129C50.1192 11.3218 38.9263 0.128906 25.1192 0.128906C11.312 0.128906 0.119141 11.3218 0.119141 25.129C0.119141 38.9361 11.312 50.129 25.1192 50.129Z" fill="#FFC107"/>
<path d="M17.5181 24.758C19.6865 24.758 21.4444 21.4427 21.4444 17.3531C21.4444 13.2635 19.6865 9.94824 17.5181 9.94824C15.3497 9.94824 13.5918 13.2635 13.5918 17.3531C13.5918 21.4427 15.3497 24.758 17.5181 24.758Z" fill="white"/>
<path d="M32.3658 24.758C34.5342 24.758 36.2921 21.4427 36.2921 17.3531C36.2921 13.2635 34.5342 9.94824 32.3658 9.94824C30.1973 9.94824 28.4395 13.2635 28.4395 17.3531C28.4395 21.4427 30.1973 24.758 32.3658 24.758Z" fill="white"/>
<path d="M25.1144 38.929C26.6155 38.929 27.8323 37.7121 27.8323 36.2111C27.8323 34.71 26.6155 33.4932 25.1144 33.4932C23.6133 33.4932 22.3965 34.71 22.3965 36.2111C22.3965 37.7121 23.6133 38.929 25.1144 38.929Z" fill="#211F1D"/>
<path d="M18.355 20.6547C19.8067 20.6547 20.9835 19.1766 20.9835 17.3532C20.9835 15.5299 19.8067 14.0518 18.355 14.0518C16.9034 14.0518 15.7266 15.5299 15.7266 17.3532C15.7266 19.1766 16.9034 20.6547 18.355 20.6547Z" fill="#211F1D"/>
<path d="M31.8707 20.6547C33.3223 20.6547 34.4991 19.1766 34.4991 17.3532C34.4991 15.5299 33.3223 14.0518 31.8707 14.0518C30.419 14.0518 29.2422 15.5299 29.2422 17.3532C29.2422 19.1766 30.419 20.6547 31.8707 20.6547Z" fill="#211F1D"/>
</g>
<defs>
<clipPath id="clip0">
<rect width="50" height="50" fill="white" transform="translate(0.119141 0.128906)"/>
</clipPath>
</defs>
</svg>
