<svg width="132" height="188" viewBox="0 0 132 188" fill="none" xmlns="http://www.w3.org/2000/svg">
<g clip-path="url(#clip0)">
<path d="M87.9818 120.698H42.1818C30.4818 120.698 20.8818 111.198 20.8818 99.398V53.498H107.182V101.398C107.282 112.098 98.5818 120.698 87.9818 120.698Z" fill="#8F2B19"/>
<path d="M131.382 187.998L0.881836 185.798L0.881836 171.898C0.881836 149.198 28.7818 128.098 56.0818 128.098H76.6818C100.982 128.098 131.282 149.398 131.282 169.498V187.998H131.382Z" fill="#383F45"/>
<path d="M72.6819 99.498H56.0819C52.6819 99.498 49.9819 102.198 49.9819 105.598V131.698C49.9819 139.598 56.3819 146.098 64.3819 146.098C72.2819 146.098 78.7819 139.698 78.7819 131.698V105.598C78.7819 102.198 76.0819 99.498 72.6819 99.498Z" fill="#FBC39D"/>
<path d="M49.9819 127.998C49.9819 127.998 51.1819 136.498 64.3819 136.498C77.5819 136.498 78.7819 127.998 78.7819 127.998H49.9819Z" fill="#F9AC7F"/>
<path d="M105.682 66.7979C100.682 66.7979 96.582 70.9979 96.582 76.1979C96.582 81.3979 100.682 85.5978 105.682 85.5978C110.682 85.5978 114.782 81.3979 114.782 76.1979C114.782 70.9979 110.682 66.7979 105.682 66.7979Z" fill="#F9AC7F"/>
<path d="M23.0819 66.7979C18.0819 66.7979 13.9819 70.9979 13.9819 76.1979C13.9819 81.3979 18.0819 85.5978 23.0819 85.5978C28.0819 85.5978 32.1819 81.3979 32.1819 76.1979C32.1819 70.9979 28.0819 66.7979 23.0819 66.7979Z" fill="#F9AC7F"/>
<path d="M61.0818 130.798C62.0818 130.998 63.2818 130.998 64.3818 130.998C67.7818 130.998 71.0818 130.598 74.2818 129.698V129.598C91.8818 125.098 104.882 108.498 104.882 88.798V39.398C104.882 16.198 86.7818 19.898 64.3818 19.898C41.9818 19.898 23.8818 16.198 23.8818 39.498V88.898C23.7818 110.898 40.1818 129.098 61.0818 130.798Z" fill="#FBC39D"/>
<path d="M99.6817 72.598V85.898H82.3817C82.3817 85.898 78.7817 76.298 64.3817 76.298C49.9817 76.298 46.3817 85.898 46.3817 85.898H28.9817V72.598C28.9817 67.298 27.0817 65.598 23.7817 64.998V88.798C23.7817 110.898 40.1817 128.998 60.9817 130.798L60.8817 130.898C61.9817 130.998 63.0817 131.098 64.2817 131.098C65.3817 131.098 66.5817 130.998 67.6817 130.898L67.5817 130.798C88.3817 128.998 104.782 110.898 104.782 88.798V64.998C101.682 65.598 99.6817 67.298 99.6817 72.598Z" fill="#3A0909"/>
<path d="M51.7817 91.698H76.1817C76.1817 91.698 73.9817 101.298 63.9817 101.298C53.9817 101.298 51.7817 91.698 51.7817 91.698Z" fill="#E6E6E6"/>
<path d="M65.182 81.8979H62.882C60.082 81.8979 57.982 79.4979 58.282 76.6979L59.482 67.2979C59.782 64.9979 61.782 63.2979 64.082 63.2979C66.382 63.2979 68.382 64.9979 68.682 67.2979L69.882 76.6979C70.082 79.4979 67.982 81.8979 65.182 81.8979Z" fill="#F9AC7F"/>
<path d="M67.3819 7.89795H58.8819C56.9819 7.89795 55.4819 6.39795 55.4819 4.49795V4.29795C55.4819 2.39795 56.9819 0.897949 58.8819 0.897949H67.3819C69.2819 0.897949 70.7819 2.39795 70.7819 4.29795V4.49795C70.7819 6.39795 69.2819 7.89795 67.3819 7.89795Z" fill="#952C1B"/>
<path d="M20.9819 53.498H107.282V43.298C107.282 22.398 90.2819 5.398 69.3819 5.498H58.7819C37.8819 5.498 20.8819 22.398 20.9819 43.398V53.498Z" fill="#F16A51"/>
<path d="M67.0816 27.7979H59.8816C53.3816 27.7979 48.1816 32.9979 48.1816 39.4979V47.5979H78.7816V39.4979C78.7816 32.9979 73.5816 27.7979 67.0816 27.7979Z" fill="#3A0909"/>
<path d="M48.7816 41.3979H78.8816V51.4979H48.7816C45.9816 51.4979 43.6816 49.1979 43.6816 46.3979C43.6816 43.5979 45.9816 41.3979 48.7816 41.3979Z" fill="#F9AB9C"/>
<path d="M53.6816 46.5979C53.6816 47.9979 52.5816 49.0979 51.1816 49.0979C49.7816 49.0979 48.6816 47.9979 48.6816 46.5979C48.6816 45.1979 49.7816 44.0979 51.1816 44.0979C52.5816 44.0979 53.6816 45.1979 53.6816 46.5979Z" fill="#FF553C"/>
<path d="M53.6816 46.5979C53.6816 47.9979 52.5816 49.0979 51.1816 49.0979C49.7816 49.0979 48.6816 47.9979 48.6816 46.5979C48.6816 45.1979 49.7816 44.0979 51.1816 44.0979C52.5816 44.0979 53.6816 45.1979 53.6816 46.5979Z" fill="#DB3A40"/>
<path d="M61.6997 49.065C63.0609 48.834 63.9772 47.5432 63.7462 46.182C63.5152 44.8207 62.2244 43.9045 60.8632 44.1355C59.5019 44.3665 58.5857 45.6572 58.8167 47.0185C59.0477 48.3797 60.3384 49.296 61.6997 49.065Z" fill="#DB3A40"/>
<path d="M73.8818 46.5979C73.8818 47.9979 72.7818 49.0979 71.3818 49.0979C69.9818 49.0979 68.8818 47.9979 68.8818 46.5979C68.8818 45.1979 69.9818 44.0979 71.3818 44.0979C72.7818 44.0979 73.8818 45.1979 73.8818 46.5979Z" fill="#DB3A40"/>
<path d="M48.482 63.2979C48.482 65.3979 46.782 66.9979 44.782 66.9979C42.782 66.9979 41.082 65.2979 41.082 63.2979C41.082 61.1979 42.782 59.5979 44.782 59.5979C46.782 59.5979 48.482 61.1979 48.482 63.2979Z" fill="#111110"/>
<path d="M85.6817 63.2979C85.6817 65.3979 83.9817 66.9979 81.9817 66.9979C79.8817 66.9979 78.2817 65.2979 78.2817 63.2979C78.2817 61.1979 79.9817 59.5979 81.9817 59.5979C84.0817 59.4979 85.6817 61.1979 85.6817 63.2979Z" fill="#111110"/>
<path d="M78.8817 41.298C78.8817 41.298 86.2817 36.898 85.6817 29.498L76.1817 32.198L78.1817 23.998L69.7817 32.698L78.8817 41.298Z" fill="#3A0909"/>
</g>
<defs>
<clipPath id="clip0">
<rect width="130.5" height="187.1" fill="white" transform="translate(0.881836 0.897949)"/>
</clipPath>
</defs>
</svg>
