<svg width="609" height="505" viewBox="0 0 609 505" fill="none" xmlns="http://www.w3.org/2000/svg">
<path d="M8.36029 379.094C9.78829 379.094 10.8243 379.346 11.4683 379.85C12.1123 380.345 12.4343 381.049 12.4343 381.964C12.4343 382.524 12.3036 383.023 12.0423 383.462C11.7903 383.891 11.4076 384.232 10.8943 384.484C10.381 384.736 9.75096 384.862 9.00429 384.862C8.29496 384.862 7.62762 384.741 7.00229 384.498C6.38629 384.255 5.90562 383.938 5.56029 383.546L5.92429 383C6.23229 383.355 6.65696 383.644 7.19829 383.868C7.74896 384.092 8.34629 384.204 8.99029 384.204C9.86762 384.204 10.5396 384.003 11.0063 383.602C11.4823 383.201 11.7203 382.664 11.7203 381.992C11.7203 381.255 11.4496 380.695 10.9083 380.312C10.3763 379.929 9.47562 379.738 8.20629 379.738H6.21829L6.73629 374.992H11.9303V375.636H7.33829L6.96029 379.094H8.36029ZM17.6089 384.862C16.8623 384.862 16.1949 384.661 15.6069 384.26C15.0283 383.849 14.5756 383.271 14.2489 382.524C13.9316 381.777 13.7729 380.9 13.7729 379.892C13.7729 378.884 13.9316 378.007 14.2489 377.26C14.5756 376.513 15.0283 375.939 15.6069 375.538C16.1949 375.127 16.8623 374.922 17.6089 374.922C18.3556 374.922 19.0183 375.127 19.5969 375.538C20.1849 375.939 20.6376 376.513 20.9549 377.26C21.2816 378.007 21.4449 378.884 21.4449 379.892C21.4449 380.9 21.2816 381.777 20.9549 382.524C20.6376 383.271 20.1849 383.849 19.5969 384.26C19.0183 384.661 18.3556 384.862 17.6089 384.862ZM17.6089 384.204C18.2249 384.204 18.7663 384.036 19.2329 383.7C19.7089 383.355 20.0776 382.86 20.3389 382.216C20.6003 381.563 20.7309 380.788 20.7309 379.892C20.7309 378.996 20.6003 378.226 20.3389 377.582C20.0776 376.929 19.7089 376.434 19.2329 376.098C18.7663 375.753 18.2249 375.58 17.6089 375.58C16.9929 375.58 16.4469 375.753 15.9709 376.098C15.5043 376.434 15.1403 376.929 14.8789 377.582C14.6176 378.226 14.4869 378.996 14.4869 379.892C14.4869 380.788 14.6176 381.563 14.8789 382.216C15.1403 382.86 15.5043 383.355 15.9709 383.7C16.4469 384.036 16.9929 384.204 17.6089 384.204ZM26.8238 384.862C26.0771 384.862 25.4098 384.661 24.8218 384.26C24.2431 383.849 23.7904 383.271 23.4638 382.524C23.1464 381.777 22.9878 380.9 22.9878 379.892C22.9878 378.884 23.1464 378.007 23.4638 377.26C23.7904 376.513 24.2431 375.939 24.8218 375.538C25.4098 375.127 26.0771 374.922 26.8238 374.922C27.5704 374.922 28.2331 375.127 28.8118 375.538C29.3998 375.939 29.8524 376.513 30.1698 377.26C30.4964 378.007 30.6598 378.884 30.6598 379.892C30.6598 380.9 30.4964 381.777 30.1698 382.524C29.8524 383.271 29.3998 383.849 28.8118 384.26C28.2331 384.661 27.5704 384.862 26.8238 384.862ZM26.8238 384.204C27.4398 384.204 27.9811 384.036 28.4478 383.7C28.9238 383.355 29.2924 382.86 29.5538 382.216C29.8151 381.563 29.9458 380.788 29.9458 379.892C29.9458 378.996 29.8151 378.226 29.5538 377.582C29.2924 376.929 28.9238 376.434 28.4478 376.098C27.9811 375.753 27.4398 375.58 26.8238 375.58C26.2078 375.58 25.6618 375.753 25.1858 376.098C24.7191 376.434 24.3551 376.929 24.0938 377.582C23.8324 378.226 23.7018 378.996 23.7018 379.892C23.7018 380.788 23.8324 381.563 24.0938 382.216C24.3551 382.86 24.7191 383.355 25.1858 383.7C25.6618 384.036 26.2078 384.204 26.8238 384.204ZM39.2446 382.272C39.2446 382.729 39.1233 383.149 38.8806 383.532C38.6473 383.905 38.288 384.213 37.8026 384.456C37.3173 384.699 36.7153 384.834 35.9966 384.862V386.472H35.4786V384.862C34.7973 384.834 34.1533 384.699 33.5466 384.456C32.9493 384.213 32.4826 383.905 32.1466 383.532L32.4686 383C32.7953 383.336 33.2293 383.621 33.7706 383.854C34.312 384.078 34.8813 384.204 35.4786 384.232V380.172C34.8346 380.013 34.3026 379.845 33.8826 379.668C33.4626 379.491 33.1126 379.229 32.8326 378.884C32.5526 378.539 32.4126 378.086 32.4126 377.526C32.4126 376.826 32.6693 376.233 33.1826 375.748C33.7053 375.263 34.4706 374.992 35.4786 374.936V373.312H35.9966V374.922C36.5286 374.941 37.042 375.029 37.5366 375.188C38.0406 375.337 38.4746 375.543 38.8386 375.804L38.5726 376.378C38.19 376.117 37.7746 375.921 37.3266 375.79C36.8786 375.65 36.4353 375.571 35.9966 375.552V379.612C36.706 379.789 37.2753 379.962 37.7046 380.13C38.134 380.298 38.498 380.555 38.7966 380.9C39.0953 381.236 39.2446 381.693 39.2446 382.272ZM33.1266 377.512C33.1266 378.081 33.3273 378.506 33.7286 378.786C34.13 379.057 34.7133 379.29 35.4786 379.486V375.566C34.704 375.622 34.116 375.832 33.7146 376.196C33.3226 376.551 33.1266 376.989 33.1266 377.512ZM35.9966 384.232C36.8366 384.195 37.4666 383.999 37.8866 383.644C38.316 383.289 38.5306 382.846 38.5306 382.314C38.5306 381.903 38.4186 381.572 38.1946 381.32C37.9706 381.059 37.686 380.858 37.3406 380.718C36.9953 380.578 36.5473 380.438 35.9966 380.298V384.232Z" fill="white"/>
<path d="M4.93029 285.276V295.076H4.21629V285.92H1.82229V285.276H4.93029ZM11.2378 295.146C10.4912 295.146 9.82384 294.946 9.23584 294.544C8.65717 294.134 8.2045 293.555 7.87784 292.808C7.5605 292.062 7.40184 291.184 7.40184 290.176C7.40184 289.168 7.5605 288.291 7.87784 287.544C8.2045 286.798 8.65717 286.224 9.23584 285.822C9.82384 285.412 10.4912 285.206 11.2378 285.206C11.9845 285.206 12.6472 285.412 13.2258 285.822C13.8138 286.224 14.2665 286.798 14.5838 287.544C14.9105 288.291 15.0738 289.168 15.0738 290.176C15.0738 291.184 14.9105 292.062 14.5838 292.808C14.2665 293.555 13.8138 294.134 13.2258 294.544C12.6472 294.946 11.9845 295.146 11.2378 295.146ZM11.2378 294.488C11.8538 294.488 12.3952 294.32 12.8618 293.984C13.3378 293.639 13.7065 293.144 13.9678 292.5C14.2292 291.847 14.3598 291.072 14.3598 290.176C14.3598 289.28 14.2292 288.51 13.9678 287.866C13.7065 287.213 13.3378 286.718 12.8618 286.382C12.3952 286.037 11.8538 285.864 11.2378 285.864C10.6218 285.864 10.0758 286.037 9.59984 286.382C9.13317 286.718 8.76917 287.213 8.50784 287.866C8.2465 288.51 8.11584 289.28 8.11584 290.176C8.11584 291.072 8.2465 291.847 8.50784 292.5C8.76917 293.144 9.13317 293.639 9.59984 293.984C10.0758 294.32 10.6218 294.488 11.2378 294.488ZM20.4527 295.146C19.706 295.146 19.0387 294.946 18.4507 294.544C17.872 294.134 17.4193 293.555 17.0927 292.808C16.7753 292.062 16.6167 291.184 16.6167 290.176C16.6167 289.168 16.7753 288.291 17.0927 287.544C17.4193 286.798 17.872 286.224 18.4507 285.822C19.0387 285.412 19.706 285.206 20.4527 285.206C21.1993 285.206 21.862 285.412 22.4407 285.822C23.0287 286.224 23.4813 286.798 23.7987 287.544C24.1253 288.291 24.2887 289.168 24.2887 290.176C24.2887 291.184 24.1253 292.062 23.7987 292.808C23.4813 293.555 23.0287 294.134 22.4407 294.544C21.862 294.946 21.1993 295.146 20.4527 295.146ZM20.4527 294.488C21.0687 294.488 21.61 294.32 22.0767 293.984C22.5527 293.639 22.9213 293.144 23.1827 292.5C23.444 291.847 23.5747 291.072 23.5747 290.176C23.5747 289.28 23.444 288.51 23.1827 287.866C22.9213 287.213 22.5527 286.718 22.0767 286.382C21.61 286.037 21.0687 285.864 20.4527 285.864C19.8367 285.864 19.2907 286.037 18.8147 286.382C18.348 286.718 17.984 287.213 17.7227 287.866C17.4613 288.51 17.3307 289.28 17.3307 290.176C17.3307 291.072 17.4613 291.847 17.7227 292.5C17.984 293.144 18.348 293.639 18.8147 293.984C19.2907 294.32 19.8367 294.488 20.4527 294.488ZM29.6675 295.146C28.9209 295.146 28.2535 294.946 27.6655 294.544C27.0869 294.134 26.6342 293.555 26.3075 292.808C25.9902 292.062 25.8315 291.184 25.8315 290.176C25.8315 289.168 25.9902 288.291 26.3075 287.544C26.6342 286.798 27.0869 286.224 27.6655 285.822C28.2535 285.412 28.9209 285.206 29.6675 285.206C30.4142 285.206 31.0769 285.412 31.6555 285.822C32.2435 286.224 32.6962 286.798 33.0135 287.544C33.3402 288.291 33.5035 289.168 33.5035 290.176C33.5035 291.184 33.3402 292.062 33.0135 292.808C32.6962 293.555 32.2435 294.134 31.6555 294.544C31.0769 294.946 30.4142 295.146 29.6675 295.146ZM29.6675 294.488C30.2835 294.488 30.8249 294.32 31.2915 293.984C31.7675 293.639 32.1362 293.144 32.3975 292.5C32.6589 291.847 32.7895 291.072 32.7895 290.176C32.7895 289.28 32.6589 288.51 32.3975 287.866C32.1362 287.213 31.7675 286.718 31.2915 286.382C30.8249 286.037 30.2835 285.864 29.6675 285.864C29.0515 285.864 28.5055 286.037 28.0295 286.382C27.5629 286.718 27.1989 287.213 26.9375 287.866C26.6762 288.51 26.5455 289.28 26.5455 290.176C26.5455 291.072 26.6762 291.847 26.9375 292.5C27.1989 293.144 27.5629 293.639 28.0295 293.984C28.5055 294.32 29.0515 294.488 29.6675 294.488ZM42.0884 292.556C42.0884 293.014 41.967 293.434 41.7244 293.816C41.491 294.19 41.1317 294.498 40.6464 294.74C40.161 294.983 39.559 295.118 38.8404 295.146V296.756H38.3224V295.146C37.641 295.118 36.997 294.983 36.3904 294.74C35.793 294.498 35.3264 294.19 34.9904 293.816L35.3124 293.284C35.639 293.62 36.073 293.905 36.6144 294.138C37.1557 294.362 37.725 294.488 38.3224 294.516V290.456C37.6784 290.298 37.1464 290.13 36.7264 289.952C36.3064 289.775 35.9564 289.514 35.6764 289.168C35.3964 288.823 35.2564 288.37 35.2564 287.81C35.2564 287.11 35.513 286.518 36.0264 286.032C36.549 285.547 37.3144 285.276 38.3224 285.22V283.596H38.8404V285.206C39.3724 285.225 39.8857 285.314 40.3804 285.472C40.8844 285.622 41.3184 285.827 41.6824 286.088L41.4164 286.662C41.0337 286.401 40.6184 286.205 40.1704 286.074C39.7224 285.934 39.279 285.855 38.8404 285.836V289.896C39.5497 290.074 40.119 290.246 40.5484 290.414C40.9777 290.582 41.3417 290.839 41.6404 291.184C41.939 291.52 42.0884 291.978 42.0884 292.556ZM35.9704 287.796C35.9704 288.366 36.171 288.79 36.5724 289.07C36.9737 289.341 37.557 289.574 38.3224 289.77V285.85C37.5477 285.906 36.9597 286.116 36.5584 286.48C36.1664 286.835 35.9704 287.274 35.9704 287.796ZM38.8404 294.516C39.6804 294.479 40.3104 294.283 40.7304 293.928C41.1597 293.574 41.3744 293.13 41.3744 292.598C41.3744 292.188 41.2624 291.856 41.0384 291.604C40.8144 291.343 40.5297 291.142 40.1844 291.002C39.839 290.862 39.391 290.722 38.8404 290.582V294.516Z" fill="white"/>
<path d="M7.50429 113.501V114.145H0.770289V113.641L4.91429 109.525C5.45562 108.984 5.81962 108.522 6.00629 108.139C6.20229 107.747 6.30029 107.346 6.30029 106.935C6.30029 106.31 6.08562 105.82 5.65629 105.465C5.23629 105.11 4.62496 104.933 3.82229 104.933C3.20629 104.933 2.66496 105.026 2.19829 105.213C1.74096 105.4 1.34429 105.684 1.00829 106.067L0.504289 105.619C0.877622 105.19 1.34896 104.858 1.91829 104.625C2.49696 104.392 3.15029 104.275 3.87829 104.275C4.83962 104.275 5.60496 104.508 6.17429 104.975C6.74362 105.442 7.02829 106.072 7.02829 106.865C7.02829 107.369 6.91629 107.85 6.69229 108.307C6.46829 108.764 6.04829 109.296 5.43229 109.903L1.82029 113.501H7.50429ZM12.6363 114.215C11.8896 114.215 11.2223 114.014 10.6343 113.613C10.0556 113.202 9.60294 112.624 9.27627 111.877C8.95894 111.13 8.80027 110.253 8.80027 109.245C8.80027 108.237 8.95894 107.36 9.27627 106.613C9.60294 105.866 10.0556 105.292 10.6343 104.891C11.2223 104.48 11.8896 104.275 12.6363 104.275C13.3829 104.275 14.0456 104.48 14.6243 104.891C15.2123 105.292 15.6649 105.866 15.9823 106.613C16.3089 107.36 16.4723 108.237 16.4723 109.245C16.4723 110.253 16.3089 111.13 15.9823 111.877C15.6649 112.624 15.2123 113.202 14.6243 113.613C14.0456 114.014 13.3829 114.215 12.6363 114.215ZM12.6363 113.557C13.2523 113.557 13.7936 113.389 14.2603 113.053C14.7363 112.708 15.1049 112.213 15.3663 111.569C15.6276 110.916 15.7583 110.141 15.7583 109.245C15.7583 108.349 15.6276 107.579 15.3663 106.935C15.1049 106.282 14.7363 105.787 14.2603 105.451C13.7936 105.106 13.2523 104.933 12.6363 104.933C12.0203 104.933 11.4743 105.106 10.9983 105.451C10.5316 105.787 10.1676 106.282 9.90627 106.935C9.64494 107.579 9.51427 108.349 9.51427 109.245C9.51427 110.141 9.64494 110.916 9.90627 111.569C10.1676 112.213 10.5316 112.708 10.9983 113.053C11.4743 113.389 12.0203 113.557 12.6363 113.557ZM21.8511 114.215C21.1045 114.215 20.4371 114.014 19.8491 113.613C19.2705 113.202 18.8178 112.624 18.4911 111.877C18.1738 111.13 18.0151 110.253 18.0151 109.245C18.0151 108.237 18.1738 107.36 18.4911 106.613C18.8178 105.866 19.2705 105.292 19.8491 104.891C20.4371 104.48 21.1045 104.275 21.8511 104.275C22.5978 104.275 23.2605 104.48 23.8391 104.891C24.4271 105.292 24.8798 105.866 25.1971 106.613C25.5238 107.36 25.6871 108.237 25.6871 109.245C25.6871 110.253 25.5238 111.13 25.1971 111.877C24.8798 112.624 24.4271 113.202 23.8391 113.613C23.2605 114.014 22.5978 114.215 21.8511 114.215ZM21.8511 113.557C22.4671 113.557 23.0085 113.389 23.4751 113.053C23.9511 112.708 24.3198 112.213 24.5811 111.569C24.8425 110.916 24.9731 110.141 24.9731 109.245C24.9731 108.349 24.8425 107.579 24.5811 106.935C24.3198 106.282 23.9511 105.787 23.4751 105.451C23.0085 105.106 22.4671 104.933 21.8511 104.933C21.2351 104.933 20.6891 105.106 20.2131 105.451C19.7465 105.787 19.3825 106.282 19.1211 106.935C18.8598 107.579 18.7291 108.349 18.7291 109.245C18.7291 110.141 18.8598 110.916 19.1211 111.569C19.3825 112.213 19.7465 112.708 20.2131 113.053C20.6891 113.389 21.2351 113.557 21.8511 113.557ZM31.066 114.215C30.3193 114.215 29.652 114.014 29.064 113.613C28.4853 113.202 28.0326 112.624 27.706 111.877C27.3886 111.13 27.23 110.253 27.23 109.245C27.23 108.237 27.3886 107.36 27.706 106.613C28.0326 105.866 28.4853 105.292 29.064 104.891C29.652 104.48 30.3193 104.275 31.066 104.275C31.8126 104.275 32.4753 104.48 33.054 104.891C33.642 105.292 34.0946 105.866 34.412 106.613C34.7386 107.36 34.902 108.237 34.902 109.245C34.902 110.253 34.7386 111.13 34.412 111.877C34.0946 112.624 33.642 113.202 33.054 113.613C32.4753 114.014 31.8126 114.215 31.066 114.215ZM31.066 113.557C31.682 113.557 32.2233 113.389 32.69 113.053C33.166 112.708 33.5346 112.213 33.796 111.569C34.0573 110.916 34.188 110.141 34.188 109.245C34.188 108.349 34.0573 107.579 33.796 106.935C33.5346 106.282 33.166 105.787 32.69 105.451C32.2233 105.106 31.682 104.933 31.066 104.933C30.45 104.933 29.904 105.106 29.428 105.451C28.9613 105.787 28.5973 106.282 28.336 106.935C28.0746 107.579 27.944 108.349 27.944 109.245C27.944 110.141 28.0746 110.916 28.336 111.569C28.5973 112.213 28.9613 112.708 29.428 113.053C29.904 113.389 30.45 113.557 31.066 113.557ZM43.4868 111.625C43.4868 112.082 43.3655 112.502 43.1228 112.885C42.8895 113.258 42.5301 113.566 42.0448 113.809C41.5595 114.052 40.9575 114.187 40.2388 114.215V115.825H39.7208V114.215C39.0395 114.187 38.3955 114.052 37.7888 113.809C37.1915 113.566 36.7248 113.258 36.3888 112.885L36.7108 112.353C37.0375 112.689 37.4715 112.974 38.0128 113.207C38.5541 113.431 39.1235 113.557 39.7208 113.585V109.525C39.0768 109.366 38.5448 109.198 38.1248 109.021C37.7048 108.844 37.3548 108.582 37.0748 108.237C36.7948 107.892 36.6548 107.439 36.6548 106.879C36.6548 106.179 36.9115 105.586 37.4248 105.101C37.9475 104.616 38.7128 104.345 39.7208 104.289V102.665H40.2388V104.275C40.7708 104.294 41.2841 104.382 41.7788 104.541C42.2828 104.69 42.7168 104.896 43.0808 105.157L42.8148 105.731C42.4321 105.47 42.0168 105.274 41.5688 105.143C41.1208 105.003 40.6775 104.924 40.2388 104.905V108.965C40.9481 109.142 41.5175 109.315 41.9468 109.483C42.3761 109.651 42.7401 109.908 43.0388 110.253C43.3375 110.589 43.4868 111.046 43.4868 111.625ZM37.3688 106.865C37.3688 107.434 37.5695 107.859 37.9708 108.139C38.3721 108.41 38.9555 108.643 39.7208 108.839V104.919C38.9461 104.975 38.3581 105.185 37.9568 105.549C37.5648 105.904 37.3688 106.342 37.3688 106.865ZM40.2388 113.585C41.0788 113.548 41.7088 113.352 42.1288 112.997C42.5581 112.642 42.7728 112.199 42.7728 111.667C42.7728 111.256 42.6608 110.925 42.4368 110.673C42.2128 110.412 41.9281 110.211 41.5828 110.071C41.2375 109.931 40.7895 109.791 40.2388 109.651V113.585Z" fill="white"/>
<path d="M5.93029 195.561V205.361H5.21629V196.205H2.82229V195.561H5.93029ZM10.7958 199.663C12.2238 199.663 13.2598 199.915 13.9038 200.419C14.5478 200.913 14.8698 201.618 14.8698 202.533C14.8698 203.093 14.7392 203.592 14.4778 204.031C14.2258 204.46 13.8432 204.801 13.3298 205.053C12.8165 205.305 12.1865 205.431 11.4398 205.431C10.7305 205.431 10.0632 205.309 9.43784 205.067C8.82184 204.824 8.34117 204.507 7.99584 204.115L8.35984 203.569C8.66784 203.923 9.0925 204.213 9.63384 204.437C10.1845 204.661 10.7818 204.773 11.4258 204.773C12.3032 204.773 12.9752 204.572 13.4418 204.171C13.9178 203.769 14.1558 203.233 14.1558 202.561C14.1558 201.823 13.8852 201.263 13.3438 200.881C12.8118 200.498 11.9112 200.307 10.6418 200.307H8.65384L9.17184 195.561H14.3658V196.205H9.77384L9.39584 199.663H10.7958ZM20.0445 205.431C19.2978 205.431 18.6305 205.23 18.0425 204.829C17.4638 204.418 17.0111 203.839 16.6845 203.093C16.3671 202.346 16.2085 201.469 16.2085 200.461C16.2085 199.453 16.3671 198.575 16.6845 197.829C17.0111 197.082 17.4638 196.508 18.0425 196.107C18.6305 195.696 19.2978 195.491 20.0445 195.491C20.7911 195.491 21.4538 195.696 22.0325 196.107C22.6205 196.508 23.0731 197.082 23.3905 197.829C23.7171 198.575 23.8805 199.453 23.8805 200.461C23.8805 201.469 23.7171 202.346 23.3905 203.093C23.0731 203.839 22.6205 204.418 22.0325 204.829C21.4538 205.23 20.7911 205.431 20.0445 205.431ZM20.0445 204.773C20.6605 204.773 21.2018 204.605 21.6685 204.269C22.1445 203.923 22.5131 203.429 22.7745 202.785C23.0358 202.131 23.1665 201.357 23.1665 200.461C23.1665 199.565 23.0358 198.795 22.7745 198.151C22.5131 197.497 22.1445 197.003 21.6685 196.667C21.2018 196.321 20.6605 196.149 20.0445 196.149C19.4285 196.149 18.8825 196.321 18.4065 196.667C17.9398 197.003 17.5758 197.497 17.3145 198.151C17.0531 198.795 16.9225 199.565 16.9225 200.461C16.9225 201.357 17.0531 202.131 17.3145 202.785C17.5758 203.429 17.9398 203.923 18.4065 204.269C18.8825 204.605 19.4285 204.773 20.0445 204.773ZM29.2593 205.431C28.5127 205.431 27.8453 205.23 27.2573 204.829C26.6787 204.418 26.226 203.839 25.8993 203.093C25.582 202.346 25.4233 201.469 25.4233 200.461C25.4233 199.453 25.582 198.575 25.8993 197.829C26.226 197.082 26.6787 196.508 27.2573 196.107C27.8453 195.696 28.5127 195.491 29.2593 195.491C30.006 195.491 30.6687 195.696 31.2473 196.107C31.8353 196.508 32.288 197.082 32.6053 197.829C32.932 198.575 33.0953 199.453 33.0953 200.461C33.0953 201.469 32.932 202.346 32.6053 203.093C32.288 203.839 31.8353 204.418 31.2473 204.829C30.6687 205.23 30.006 205.431 29.2593 205.431ZM29.2593 204.773C29.8753 204.773 30.4167 204.605 30.8833 204.269C31.3593 203.923 31.728 203.429 31.9893 202.785C32.2507 202.131 32.3813 201.357 32.3813 200.461C32.3813 199.565 32.2507 198.795 31.9893 198.151C31.728 197.497 31.3593 197.003 30.8833 196.667C30.4167 196.321 29.8753 196.149 29.2593 196.149C28.6433 196.149 28.0973 196.321 27.6213 196.667C27.1547 197.003 26.7907 197.497 26.5293 198.151C26.268 198.795 26.1373 199.565 26.1373 200.461C26.1373 201.357 26.268 202.131 26.5293 202.785C26.7907 203.429 27.1547 203.923 27.6213 204.269C28.0973 204.605 28.6433 204.773 29.2593 204.773ZM41.6802 202.841C41.6802 203.298 41.5588 203.718 41.3162 204.101C41.0828 204.474 40.7235 204.782 40.2382 205.025C39.7528 205.267 39.1508 205.403 38.4322 205.431V207.041H37.9142V205.431C37.2328 205.403 36.5888 205.267 35.9822 205.025C35.3848 204.782 34.9182 204.474 34.5822 204.101L34.9042 203.569C35.2308 203.905 35.6648 204.189 36.2062 204.423C36.7475 204.647 37.3168 204.773 37.9142 204.801V200.741C37.2702 200.582 36.7382 200.414 36.3182 200.237C35.8982 200.059 35.5482 199.798 35.2682 199.453C34.9882 199.107 34.8482 198.655 34.8482 198.095C34.8482 197.395 35.1048 196.802 35.6182 196.317C36.1408 195.831 36.9062 195.561 37.9142 195.505V193.881H38.4322V195.491C38.9642 195.509 39.4775 195.598 39.9722 195.757C40.4762 195.906 40.9102 196.111 41.2742 196.373L41.0082 196.947C40.6255 196.685 40.2102 196.489 39.7622 196.359C39.3142 196.219 38.8708 196.139 38.4322 196.121V200.181C39.1415 200.358 39.7108 200.531 40.1402 200.699C40.5695 200.867 40.9335 201.123 41.2322 201.469C41.5308 201.805 41.6802 202.262 41.6802 202.841ZM35.5622 198.081C35.5622 198.65 35.7628 199.075 36.1642 199.355C36.5655 199.625 37.1488 199.859 37.9142 200.055V196.135C37.1395 196.191 36.5515 196.401 36.1502 196.765C35.7582 197.119 35.5622 197.558 35.5622 198.081ZM38.4322 204.801C39.2722 204.763 39.9022 204.567 40.3222 204.213C40.7515 203.858 40.9662 203.415 40.9662 202.883C40.9662 202.472 40.8542 202.141 40.6302 201.889C40.4062 201.627 40.1215 201.427 39.7762 201.287C39.4308 201.147 38.9828 201.007 38.4322 200.867V204.801Z" fill="white"/>
<path d="M154.448 453.256C155.531 453.284 156.352 453.55 156.912 454.054C157.482 454.549 157.766 455.207 157.766 456.028C157.766 456.579 157.636 457.069 157.374 457.498C157.113 457.918 156.721 458.249 156.198 458.492C155.685 458.735 155.064 458.856 154.336 458.856C153.627 458.856 152.96 458.739 152.334 458.506C151.709 458.263 151.224 457.941 150.878 457.54L151.242 456.994C151.56 457.349 151.989 457.638 152.53 457.862C153.081 458.086 153.683 458.198 154.336 458.198C155.204 458.198 155.872 458.007 156.338 457.624C156.805 457.232 157.038 456.7 157.038 456.028C157.038 455.347 156.8 454.815 156.324 454.432C155.848 454.049 155.134 453.858 154.182 453.858H153.566V453.34L156.464 449.63H151.242V448.986H157.388V449.49L154.448 453.256Z" fill="white"/>
<path d="M251.386 452.99C252.03 452.99 252.6 453.111 253.094 453.354C253.598 453.587 253.986 453.928 254.256 454.376C254.527 454.815 254.662 455.323 254.662 455.902C254.662 456.49 254.522 457.008 254.242 457.456C253.962 457.904 253.575 458.249 253.08 458.492C252.586 458.735 252.026 458.856 251.4 458.856C250.131 458.856 249.156 458.427 248.474 457.568C247.802 456.7 247.466 455.491 247.466 453.942C247.466 452.859 247.644 451.945 247.998 451.198C248.362 450.442 248.871 449.873 249.524 449.49C250.178 449.107 250.943 448.916 251.82 448.916C252.744 448.916 253.486 449.084 254.046 449.42L253.752 449.994C253.286 449.695 252.642 449.546 251.82 449.546C250.691 449.546 249.8 449.915 249.146 450.652C248.502 451.38 248.18 452.439 248.18 453.83C248.18 454.259 248.208 454.651 248.264 455.006C248.46 454.371 248.838 453.877 249.398 453.522C249.968 453.167 250.63 452.99 251.386 452.99ZM251.372 458.24C252.138 458.24 252.758 458.03 253.234 457.61C253.71 457.181 253.948 456.616 253.948 455.916C253.948 455.216 253.71 454.656 253.234 454.236C252.758 453.816 252.11 453.606 251.288 453.606C250.766 453.606 250.294 453.709 249.874 453.914C249.464 454.119 249.142 454.399 248.908 454.754C248.684 455.109 248.572 455.505 248.572 455.944C248.572 456.336 248.68 456.709 248.894 457.064C249.118 457.419 249.44 457.703 249.86 457.918C250.28 458.133 250.784 458.24 251.372 458.24Z" fill="white"/>
<path d="M344.93 448.986V458.786H344.216V449.63H341.822V448.986H344.93ZM353.94 458.142V458.786H347.206V458.282L351.35 454.166C351.891 453.625 352.255 453.163 352.442 452.78C352.638 452.388 352.736 451.987 352.736 451.576C352.736 450.951 352.521 450.461 352.092 450.106C351.672 449.751 351.061 449.574 350.258 449.574C349.642 449.574 349.101 449.667 348.634 449.854C348.177 450.041 347.78 450.325 347.444 450.708L346.94 450.26C347.313 449.831 347.785 449.499 348.354 449.266C348.933 449.033 349.586 448.916 350.314 448.916C351.275 448.916 352.041 449.149 352.61 449.616C353.179 450.083 353.464 450.713 353.464 451.506C353.464 452.01 353.352 452.491 353.128 452.948C352.904 453.405 352.484 453.937 351.868 454.544L348.256 458.142H353.94Z" fill="white"/>
<path d="M439.93 448.986V458.786H439.216V449.63H436.822V448.986H439.93ZM447.652 453.662C448.324 453.839 448.842 454.138 449.206 454.558C449.579 454.978 449.766 455.491 449.766 456.098C449.766 456.957 449.435 457.633 448.772 458.128C448.109 458.613 447.199 458.856 446.042 458.856C444.894 458.856 443.989 458.613 443.326 458.128C442.673 457.633 442.346 456.957 442.346 456.098C442.346 455.482 442.523 454.969 442.878 454.558C443.242 454.138 443.76 453.839 444.432 453.662C443.872 453.475 443.443 453.195 443.144 452.822C442.845 452.449 442.696 451.991 442.696 451.45C442.696 450.666 442.999 450.05 443.606 449.602C444.213 449.145 445.025 448.916 446.042 448.916C447.059 448.916 447.876 449.145 448.492 449.602C449.108 450.059 449.416 450.675 449.416 451.45C449.416 451.982 449.262 452.439 448.954 452.822C448.655 453.195 448.221 453.475 447.652 453.662ZM443.41 451.464C443.41 452.052 443.639 452.519 444.096 452.864C444.563 453.209 445.211 453.382 446.042 453.382C446.873 453.382 447.521 453.214 447.988 452.878C448.464 452.533 448.702 452.066 448.702 451.478C448.702 450.881 448.459 450.409 447.974 450.064C447.498 449.709 446.854 449.532 446.042 449.532C445.23 449.532 444.586 449.705 444.11 450.05C443.643 450.395 443.41 450.867 443.41 451.464ZM446.042 458.24C446.985 458.24 447.722 458.049 448.254 457.666C448.786 457.283 449.052 456.761 449.052 456.098C449.052 455.445 448.786 454.927 448.254 454.544C447.722 454.161 446.985 453.97 446.042 453.97C445.109 453.97 444.376 454.161 443.844 454.544C443.321 454.927 443.06 455.445 443.06 456.098C443.06 456.761 443.321 457.283 443.844 457.666C444.367 458.049 445.099 458.24 446.042 458.24Z" fill="white"/>
<path d="M539.004 458.142V458.786H532.27V458.282L536.414 454.166C536.956 453.625 537.32 453.163 537.506 452.78C537.702 452.388 537.8 451.987 537.8 451.576C537.8 450.951 537.586 450.461 537.156 450.106C536.736 449.751 536.125 449.574 535.322 449.574C534.706 449.574 534.165 449.667 533.698 449.854C533.241 450.041 532.844 450.325 532.508 450.708L532.004 450.26C532.378 449.831 532.849 449.499 533.418 449.266C533.997 449.033 534.65 448.916 535.378 448.916C536.34 448.916 537.105 449.149 537.674 449.616C538.244 450.083 538.528 450.713 538.528 451.506C538.528 452.01 538.416 452.491 538.192 452.948C537.968 453.405 537.548 453.937 536.932 454.544L533.32 458.142H539.004ZM548.162 456.07H546.104V458.786H545.404V456.07H539.818V455.552L545.138 448.986H545.936L540.714 455.44H545.418V453.046H546.104V455.44H548.162V456.07Z" fill="white"/>
<path d="M36.3323 63.2955C36.463 62.8008 36.673 62.4181 36.9623 62.1475C37.2516 61.8768 37.611 61.7415 38.0403 61.7415C38.479 61.7415 38.871 61.8908 39.2163 62.1895C39.5523 62.4881 39.8183 62.9035 40.0143 63.4355C40.201 63.9581 40.2943 64.5461 40.2943 65.1995C40.2943 65.7501 40.2243 66.2915 40.0843 66.8235C39.935 67.3461 39.725 67.8128 39.4543 68.2235L38.4323 67.8175C38.6563 67.4628 38.8336 67.0568 38.9643 66.5995C39.0856 66.1421 39.1463 65.6801 39.1463 65.2135C39.1463 64.5788 39.039 64.0748 38.8243 63.7015C38.6003 63.3188 38.3016 63.1275 37.9283 63.1275C37.583 63.1275 37.317 63.2815 37.1303 63.5895C36.9436 63.8881 36.8503 64.3128 36.8503 64.8635V66.2215H35.8843V64.9615C35.8843 64.4575 35.7956 64.0608 35.6183 63.7715C35.441 63.4821 35.1983 63.3375 34.8903 63.3375C34.5543 63.3375 34.293 63.5101 34.1063 63.8555C33.9196 64.1915 33.8263 64.6488 33.8263 65.2275C33.8263 65.9648 34.0176 66.7441 34.4003 67.5655L33.3643 67.9295C32.907 67.0241 32.6783 66.0768 32.6783 65.0875C32.6783 64.4901 32.7623 63.9535 32.9303 63.4775C33.0983 63.0015 33.3363 62.6281 33.6443 62.3575C33.9523 62.0868 34.3023 61.9515 34.6943 61.9515C35.0583 61.9515 35.385 62.0728 35.6743 62.3155C35.9636 62.5581 36.183 62.8848 36.3323 63.2955ZM32.7063 57.0522C32.7063 56.0256 32.9583 55.2416 33.4623 54.7002C33.9663 54.1496 34.7176 53.8742 35.7163 53.8742H40.1963V55.1482H39.2163C39.5616 55.3722 39.8276 55.6942 40.0143 56.1142C40.1916 56.5249 40.2803 57.0149 40.2803 57.5842C40.2803 58.4149 40.0796 59.0822 39.6783 59.5862C39.277 60.0809 38.7496 60.3282 38.0963 60.3282C37.443 60.3282 36.9203 60.0902 36.5283 59.6142C36.127 59.1382 35.9263 58.3822 35.9263 57.3462V55.2182H35.6603C35.0816 55.2182 34.6383 55.3862 34.3303 55.7222C34.0223 56.0582 33.8683 56.5529 33.8683 57.2062C33.8683 57.6449 33.943 58.0742 34.0923 58.4942C34.2323 58.9142 34.4236 59.2689 34.6663 59.5582L33.6583 60.1182C33.3503 59.7356 33.117 59.2782 32.9583 58.7462C32.7903 58.2142 32.7063 57.6496 32.7063 57.0522ZM39.2443 57.3602C39.2443 56.8469 39.1323 56.4036 38.9083 56.0302C38.675 55.6569 38.3483 55.3862 37.9283 55.2182H36.8923V57.2902C36.8923 58.4289 37.275 58.9982 38.0403 58.9982C38.4136 58.9982 38.7076 58.8536 38.9223 58.5642C39.137 58.2749 39.2443 57.8736 39.2443 57.3602ZM32.7063 47.5201C32.7063 46.8014 32.865 46.1574 33.1823 45.5881C33.4996 45.0188 33.943 44.5754 34.5123 44.2581C35.0816 43.9314 35.7396 43.7681 36.4863 43.7681C37.233 43.7681 37.8956 43.9314 38.4743 44.2581C39.0436 44.5754 39.487 45.0188 39.8043 45.5881C40.1216 46.1574 40.2803 46.8014 40.2803 47.5201C40.2803 48.0521 40.1776 48.5421 39.9723 48.9901C39.767 49.4288 39.4683 49.8021 39.0763 50.1101H42.9123V51.4541H32.7763V50.1661H33.9523C33.5416 49.8674 33.2336 49.4894 33.0283 49.0321C32.8136 48.5748 32.7063 48.0708 32.7063 47.5201ZM39.1043 47.6321C39.1043 47.1561 38.997 46.7314 38.7823 46.3581C38.5583 45.9754 38.2503 45.6768 37.8583 45.4621C37.457 45.2381 36.9996 45.1261 36.4863 45.1261C35.973 45.1261 35.5203 45.2381 35.1283 45.4621C34.727 45.6768 34.419 45.9754 34.2043 46.3581C33.9896 46.7314 33.8823 47.1561 33.8823 47.6321C33.8823 48.0988 33.9943 48.5234 34.2183 48.9061C34.433 49.2794 34.7363 49.5781 35.1283 49.8021C35.5203 50.0168 35.973 50.1241 36.4863 50.1241C36.9996 50.1241 37.457 50.0168 37.8583 49.8021C38.2503 49.5874 38.5583 49.2888 38.7823 48.9061C38.997 48.5234 39.1043 48.0988 39.1043 47.6321ZM32.7763 34.9414H40.1963V36.2854H33.9523V40.4714H40.1963V41.8154H32.7763V34.9414ZM32.7763 25.9708H40.1963V27.3148H33.9523V30.5068L35.6043 30.5908C36.603 30.6375 37.4383 30.7262 38.1103 30.8568C38.773 30.9875 39.305 31.2022 39.7063 31.5008C40.1076 31.7995 40.3083 32.2148 40.3083 32.7468C40.3083 32.9895 40.2663 33.2648 40.1823 33.5728L39.0483 33.4888C39.0763 33.3675 39.0903 33.2555 39.0903 33.1528C39.0903 32.7795 38.927 32.4995 38.6003 32.3128C38.2736 32.1262 37.8863 32.0048 37.4383 31.9488C36.9903 31.8928 36.351 31.8415 35.5203 31.7948L32.7763 31.6688V25.9708ZM32.7063 20.7261C32.7063 19.6994 32.9583 18.9154 33.4623 18.3741C33.9663 17.8234 34.7176 17.5481 35.7163 17.5481H40.1963V18.8221H39.2163C39.5616 19.0461 39.8276 19.3681 40.0143 19.7881C40.1916 20.1987 40.2803 20.6887 40.2803 21.2581C40.2803 22.0887 40.0796 22.7561 39.6783 23.2601C39.277 23.7547 38.7496 24.0021 38.0963 24.0021C37.443 24.0021 36.9203 23.7641 36.5283 23.2881C36.127 22.8121 35.9263 22.0561 35.9263 21.0201V18.8921H35.6603C35.0816 18.8921 34.6383 19.0601 34.3303 19.3961C34.0223 19.7321 33.8683 20.2267 33.8683 20.8801C33.8683 21.3187 33.943 21.7481 34.0923 22.1681C34.2323 22.5881 34.4236 22.9427 34.6663 23.2321L33.6583 23.7921C33.3503 23.4094 33.117 22.9521 32.9583 22.4201C32.7903 21.8881 32.7063 21.3234 32.7063 20.7261ZM39.2443 21.0341C39.2443 20.5207 39.1323 20.0774 38.9083 19.7041C38.675 19.3307 38.3483 19.0601 37.9283 18.8921H36.8923V20.9641C36.8923 22.1027 37.275 22.6721 38.0403 22.6721C38.4136 22.6721 38.7076 22.5274 38.9223 22.2381C39.137 21.9487 39.2443 21.5474 39.2443 21.0341ZM33.9523 9.59793V12.3139H40.1963V13.6579H33.9523V16.3739H32.7763V9.59793H33.9523ZM32.7063 5.57763C32.7063 4.55097 32.9583 3.76697 33.4623 3.22563C33.9663 2.67497 34.7176 2.39963 35.7163 2.39963H40.1963V3.67363H39.2163C39.5616 3.89763 39.8276 4.21963 40.0143 4.63963C40.1916 5.0503 40.2803 5.5403 40.2803 6.10963C40.2803 6.9403 40.0796 7.60763 39.6783 8.11163C39.277 8.6063 38.7496 8.85363 38.0963 8.85363C37.443 8.85363 36.9203 8.61563 36.5283 8.13963C36.127 7.66363 35.9263 6.90763 35.9263 5.87163V3.74363H35.6603C35.0816 3.74363 34.6383 3.91163 34.3303 4.24763C34.0223 4.58363 33.8683 5.0783 33.8683 5.73163C33.8683 6.1703 33.943 6.59963 34.0923 7.01963C34.2323 7.43963 34.4236 7.7943 34.6663 8.08363L33.6583 8.64363C33.3503 8.26097 33.117 7.80363 32.9583 7.27163C32.7903 6.73963 32.7063 6.17497 32.7063 5.57763ZM39.2443 5.88563C39.2443 5.3723 39.1323 4.92897 38.9083 4.55563C38.675 4.1823 38.3483 3.91163 37.9283 3.74363H36.8923V5.81563C36.8923 6.9543 37.275 7.52363 38.0403 7.52363C38.4136 7.52363 38.7076 7.37897 38.9223 7.08963C39.137 6.8003 39.2443 6.39897 39.2443 5.88563Z" fill="#F16A51"/>
<path d="M503.005 492.661V500.081H501.787V494.663L499.015 499.241H498.427L495.683 494.649V500.081H494.451V492.661H495.837L498.749 497.673L501.745 492.661H503.005ZM512.327 496.413C512.327 496.516 512.318 496.651 512.299 496.819H506.279C506.363 497.473 506.648 498 507.133 498.401C507.628 498.793 508.239 498.989 508.967 498.989C509.854 498.989 510.568 498.691 511.109 498.093L511.851 498.961C511.515 499.353 511.095 499.652 510.591 499.857C510.097 500.063 509.541 500.165 508.925 500.165C508.141 500.165 507.446 500.007 506.839 499.689C506.233 499.363 505.761 498.91 505.425 498.331C505.099 497.753 504.935 497.099 504.935 496.371C504.935 495.653 505.094 495.004 505.411 494.425C505.738 493.847 506.181 493.399 506.741 493.081C507.311 492.755 507.95 492.591 508.659 492.591C509.369 492.591 509.999 492.755 510.549 493.081C511.109 493.399 511.543 493.847 511.851 494.425C512.169 495.004 512.327 495.667 512.327 496.413ZM508.659 493.725C508.015 493.725 507.474 493.921 507.035 494.313C506.606 494.705 506.354 495.219 506.279 495.853H511.039C510.965 495.228 510.708 494.719 510.269 494.327C509.84 493.926 509.303 493.725 508.659 493.725ZM517.646 500.165C516.89 500.165 516.214 500.002 515.616 499.675C515.028 499.349 514.566 498.901 514.23 498.331C513.894 497.753 513.726 497.099 513.726 496.371C513.726 495.643 513.894 494.995 514.23 494.425C514.566 493.847 515.028 493.399 515.616 493.081C516.214 492.755 516.89 492.591 517.646 492.591C518.318 492.591 518.916 492.727 519.438 492.997C519.97 493.268 520.381 493.66 520.67 494.173L519.648 494.831C519.415 494.477 519.126 494.211 518.78 494.033C518.435 493.856 518.052 493.767 517.632 493.767C517.147 493.767 516.708 493.875 516.316 494.089C515.934 494.304 515.63 494.612 515.406 495.013C515.192 495.405 515.084 495.858 515.084 496.371C515.084 496.894 515.192 497.356 515.406 497.757C515.63 498.149 515.934 498.453 516.316 498.667C516.708 498.882 517.147 498.989 517.632 498.989C518.052 498.989 518.435 498.901 518.78 498.723C519.126 498.546 519.415 498.28 519.648 497.925L520.67 498.569C520.381 499.083 519.97 499.479 519.438 499.759C518.916 500.03 518.318 500.165 517.646 500.165ZM528.128 492.661V500.081H526.924V497.729H524.768H524.614L522.99 500.081H521.548L523.354 497.547C522.794 497.379 522.365 497.104 522.066 496.721C521.767 496.329 521.618 495.844 521.618 495.265C521.618 494.416 521.907 493.772 522.486 493.333C523.065 492.885 523.863 492.661 524.88 492.661H528.128ZM522.99 495.307C522.99 495.802 523.144 496.171 523.452 496.413C523.769 496.647 524.241 496.763 524.866 496.763H526.924V493.837H524.922C523.634 493.837 522.99 494.327 522.99 495.307ZM538.674 498.905V501.859H537.4V500.081H530.75V492.661H532.094V498.905H536.154V492.661H537.498V498.905H538.674ZM543.762 495.181C544.696 495.191 545.41 495.405 545.904 495.825C546.399 496.245 546.646 496.838 546.646 497.603C546.646 498.406 546.376 499.027 545.834 499.465C545.302 499.895 544.537 500.105 543.538 500.095L540.416 500.081V492.661H541.76V495.167L543.762 495.181ZM547.752 492.661H549.096V500.081H547.752V492.661ZM543.44 499.073C544.047 499.083 544.504 498.961 544.812 498.709C545.13 498.457 545.288 498.084 545.288 497.589C545.288 497.104 545.134 496.749 544.826 496.525C544.518 496.301 544.056 496.185 543.44 496.175L541.76 496.147V499.059L543.44 499.073ZM559.403 492.591C560.122 492.591 560.766 492.75 561.335 493.067C561.904 493.385 562.348 493.828 562.665 494.397C562.992 494.967 563.155 495.625 563.155 496.371C563.155 497.118 562.992 497.781 562.665 498.359C562.348 498.929 561.904 499.372 561.335 499.689C560.766 500.007 560.122 500.165 559.403 500.165C558.871 500.165 558.381 500.063 557.933 499.857C557.494 499.652 557.121 499.353 556.813 498.961V502.797H555.469V492.661H556.757V493.837C557.056 493.427 557.434 493.119 557.891 492.913C558.348 492.699 558.852 492.591 559.403 492.591ZM559.291 498.989C559.767 498.989 560.192 498.882 560.565 498.667C560.948 498.443 561.246 498.135 561.461 497.743C561.685 497.342 561.797 496.885 561.797 496.371C561.797 495.858 561.685 495.405 561.461 495.013C561.246 494.612 560.948 494.304 560.565 494.089C560.192 493.875 559.767 493.767 559.291 493.767C558.824 493.767 558.4 493.879 558.017 494.103C557.644 494.318 557.345 494.621 557.121 495.013C556.906 495.405 556.799 495.858 556.799 496.371C556.799 496.885 556.906 497.342 557.121 497.743C557.336 498.135 557.634 498.443 558.017 498.667C558.4 498.882 558.824 498.989 559.291 498.989ZM567.685 492.591C568.712 492.591 569.496 492.843 570.037 493.347C570.588 493.851 570.863 494.603 570.863 495.601V500.081H569.589V499.101C569.365 499.447 569.043 499.713 568.623 499.899C568.213 500.077 567.723 500.165 567.153 500.165C566.323 500.165 565.655 499.965 565.151 499.563C564.657 499.162 564.409 498.635 564.409 497.981C564.409 497.328 564.647 496.805 565.123 496.413C565.599 496.012 566.355 495.811 567.391 495.811H569.519V495.545C569.519 494.967 569.351 494.523 569.015 494.215C568.679 493.907 568.185 493.753 567.531 493.753C567.093 493.753 566.663 493.828 566.243 493.977C565.823 494.117 565.469 494.309 565.179 494.551L564.619 493.543C565.002 493.235 565.459 493.002 565.991 492.843C566.523 492.675 567.088 492.591 567.685 492.591ZM567.377 499.129C567.891 499.129 568.334 499.017 568.707 498.793C569.081 498.56 569.351 498.233 569.519 497.813V496.777H567.447C566.309 496.777 565.739 497.16 565.739 497.925C565.739 498.299 565.884 498.593 566.173 498.807C566.463 499.022 566.864 499.129 567.377 499.129ZM577.063 492.913C577.754 492.913 578.37 493.067 578.911 493.375C579.453 493.683 579.873 494.113 580.171 494.663C580.479 495.205 580.633 495.825 580.633 496.525C580.633 497.244 580.47 497.883 580.143 498.443C579.826 498.994 579.373 499.423 578.785 499.731C578.207 500.039 577.544 500.193 576.797 500.193C575.537 500.193 574.562 499.764 573.871 498.905C573.19 498.037 572.849 496.819 572.849 495.251C572.849 493.73 573.162 492.54 573.787 491.681C574.413 490.813 575.369 490.239 576.657 489.959L580.045 489.203L580.241 490.435L577.119 491.107C576.149 491.322 575.425 491.686 574.949 492.199C574.473 492.713 574.203 493.45 574.137 494.411C574.455 493.935 574.865 493.567 575.369 493.305C575.873 493.044 576.438 492.913 577.063 492.913ZM576.825 499.073C577.301 499.073 577.721 498.966 578.085 498.751C578.459 498.537 578.748 498.243 578.953 497.869C579.159 497.487 579.261 497.053 579.261 496.567C579.261 495.83 579.037 495.237 578.589 494.789C578.141 494.341 577.553 494.117 576.825 494.117C576.097 494.117 575.505 494.341 575.047 494.789C574.599 495.237 574.375 495.83 574.375 496.567C574.375 497.053 574.478 497.487 574.683 497.869C574.898 498.243 575.192 498.537 575.565 498.751C575.939 498.966 576.359 499.073 576.825 499.073ZM585.731 500.165C584.994 500.165 584.331 500.002 583.743 499.675C583.155 499.349 582.693 498.901 582.357 498.331C582.03 497.753 581.867 497.099 581.867 496.371C581.867 495.643 582.03 494.995 582.357 494.425C582.693 493.847 583.155 493.399 583.743 493.081C584.331 492.755 584.994 492.591 585.731 492.591C586.468 492.591 587.126 492.755 587.705 493.081C588.293 493.399 588.75 493.847 589.077 494.425C589.413 494.995 589.581 495.643 589.581 496.371C589.581 497.099 589.413 497.753 589.077 498.331C588.75 498.901 588.293 499.349 587.705 499.675C587.126 500.002 586.468 500.165 585.731 500.165ZM585.731 498.989C586.207 498.989 586.632 498.882 587.005 498.667C587.388 498.443 587.686 498.135 587.901 497.743C588.116 497.342 588.223 496.885 588.223 496.371C588.223 495.858 588.116 495.405 587.901 495.013C587.686 494.612 587.388 494.304 587.005 494.089C586.632 493.875 586.207 493.767 585.731 493.767C585.255 493.767 584.826 493.875 584.443 494.089C584.07 494.304 583.771 494.612 583.547 495.013C583.332 495.405 583.225 495.858 583.225 496.371C583.225 496.885 583.332 497.342 583.547 497.743C583.771 498.135 584.07 498.443 584.443 498.667C584.826 498.882 585.255 498.989 585.731 498.989ZM596.778 493.837H594.062V500.081H592.718V493.837H590.002V492.661H596.778V493.837ZM601.499 495.181C602.432 495.191 603.146 495.405 603.641 495.825C604.135 496.245 604.383 496.838 604.383 497.603C604.383 498.406 604.112 499.027 603.571 499.465C603.039 499.895 602.273 500.105 601.275 500.095L598.153 500.081V492.661H599.497V495.167L601.499 495.181ZM605.489 492.661H606.833V500.081H605.489V492.661ZM601.177 499.073C601.783 499.083 602.241 498.961 602.549 498.709C602.866 498.457 603.025 498.084 603.025 497.589C603.025 497.104 602.871 496.749 602.563 496.525C602.255 496.301 601.793 496.185 601.177 496.175L599.497 496.147V499.059L601.177 499.073Z" fill="#F16A51"/>
<path d="M591.232 470.969C591.427 470.774 591.427 470.457 591.232 470.262L588.05 467.08C587.855 466.885 587.538 466.885 587.343 467.08C587.148 467.275 587.148 467.592 587.343 467.787L590.171 470.615L587.343 473.444C587.148 473.639 587.148 473.956 587.343 474.151C587.538 474.346 587.855 474.346 588.05 474.151L591.232 470.969ZM56.6963 471.115H590.879V470.115H56.6963V471.115Z" fill="white"/>
<path d="M57.0498 10.262C56.8546 10.0667 56.538 10.0667 56.3427 10.262L53.1608 13.4439C52.9655 13.6392 52.9655 13.9558 53.1608 14.151C53.356 14.3463 53.6726 14.3463 53.8679 14.151L56.6963 11.3226L59.5247 14.151C59.72 14.3463 60.0366 14.3463 60.2318 14.151C60.4271 13.9558 60.4271 13.6392 60.2318 13.4439L57.0498 10.262ZM57.1963 470.615L57.1963 10.6155H56.1963L56.1963 470.615H57.1963Z" fill="white"/>
<path d="M153.534 380.476L246.987 326.472L343.887 257.149L444.234 202.379L536 111.99L597.411 59.4063" stroke="url(#paint0_linear)" stroke-width="2"/>
<circle cx="56.6963" cy="380.476" r="3" fill="white"/>
<circle cx="56.6963" cy="291.184" r="3" fill="white"/>
<circle cx="56.6963" cy="201.977" r="3" fill="white"/>
<circle cx="56.6963" cy="111.753" r="3" fill="white"/>
<circle cx="154.696" cy="470.615" r="3" fill="white"/>
<circle cx="249.696" cy="470.615" r="3" fill="white"/>
<circle cx="344.696" cy="470.615" r="3" fill="white"/>
<circle cx="441.696" cy="470.615" r="3" fill="white"/>
<circle cx="534.696" cy="470.615" r="3" fill="white"/>
<circle cx="154.696" cy="380.9" r="11" fill="white"/>
<circle cx="154.696" cy="380.9" r="3" fill="#F16A51"/>
<circle cx="249.696" cy="324.112" r="11" fill="white"/>
<circle cx="249.696" cy="324.112" r="3" fill="#F16A51"/>
<circle cx="344.696" cy="257.407" r="11" fill="white"/>
<circle cx="344.696" cy="257.407" r="3" fill="#F16A51"/>
<path d="M452.696 201.977C452.696 208.052 447.771 212.977 441.696 212.977C435.621 212.977 430.696 208.052 430.696 201.977C430.696 195.902 435.621 190.977 441.696 190.977C447.771 190.977 452.696 195.902 452.696 201.977Z" fill="white"/>
<circle cx="441.696" cy="201.977" r="3" fill="#F16A51"/>
<circle cx="534.696" cy="111.753" r="11" fill="white"/>
<circle cx="534.696" cy="111.753" r="3" fill="#F16A51"/>
<path d="M154.696 397.448V405.021" stroke="white" stroke-opacity="0.5"/>
<path d="M154.696 409.685V417.257" stroke="white" stroke-opacity="0.5"/>
<path d="M154.696 421.921V429.494" stroke="white" stroke-opacity="0.5"/>
<path d="M154.696 434.157V441.73" stroke="white" stroke-opacity="0.5"/>
<path d="M441.696 219.941V227.514" stroke="white" stroke-opacity="0.5"/>
<path d="M441.696 232.172V239.744" stroke="white" stroke-opacity="0.5"/>
<path d="M441.696 244.402V251.975" stroke="white" stroke-opacity="0.5"/>
<path d="M441.696 256.632V264.205" stroke="white" stroke-opacity="0.5"/>
<path d="M441.696 268.863V276.436" stroke="white" stroke-opacity="0.5"/>
<path d="M441.696 281.093V288.666" stroke="white" stroke-opacity="0.5"/>
<path d="M441.696 293.323V300.896" stroke="white" stroke-opacity="0.5"/>
<path d="M441.696 305.554V313.127" stroke="white" stroke-opacity="0.5"/>
<path d="M441.696 317.829V325.402" stroke="white" stroke-opacity="0.5"/>
<path d="M441.696 330.059V337.632" stroke="white" stroke-opacity="0.5"/>
<path d="M441.696 342.29V349.862" stroke="white" stroke-opacity="0.5"/>
<path d="M441.696 354.52V362.093" stroke="white" stroke-opacity="0.5"/>
<path d="M441.696 366.75V374.323" stroke="white" stroke-opacity="0.5"/>
<path d="M441.696 378.981V386.554" stroke="white" stroke-opacity="0.5"/>
<path d="M441.696 391.855V399.428" stroke="white" stroke-opacity="0.5"/>
<path d="M441.696 404.085V411.658" stroke="white" stroke-opacity="0.5"/>
<path d="M441.696 416.315V423.888" stroke="white" stroke-opacity="0.5"/>
<path d="M441.696 428.546V436.119" stroke="white" stroke-opacity="0.5"/>
<path d="M423.872 201.977H416.299" stroke="white" stroke-opacity="0.5"/>
<path d="M411.642 201.977H404.069" stroke="white" stroke-opacity="0.5"/>
<path d="M399.412 201.977H391.839" stroke="white" stroke-opacity="0.5"/>
<path d="M387.182 201.977H379.609" stroke="white" stroke-opacity="0.5"/>
<path d="M374.952 201.977H367.379" stroke="white" stroke-opacity="0.5"/>
<path d="M362.722 201.977H355.149" stroke="white" stroke-opacity="0.5"/>
<path d="M350.492 201.977H342.919" stroke="white" stroke-opacity="0.5"/>
<path d="M338.262 201.977H330.689" stroke="white" stroke-opacity="0.5"/>
<path d="M325.988 201.977H318.415" stroke="white" stroke-opacity="0.5"/>
<path d="M313.758 201.977H306.185" stroke="white" stroke-opacity="0.5"/>
<path d="M301.528 201.977H293.955" stroke="white" stroke-opacity="0.5"/>
<path d="M289.298 201.977H281.725" stroke="white" stroke-opacity="0.5"/>
<path d="M277.068 201.977H269.495" stroke="white" stroke-opacity="0.5"/>
<path d="M264.838 201.977H257.265" stroke="white" stroke-opacity="0.5"/>
<path d="M251.964 201.977H244.392" stroke="white" stroke-opacity="0.5"/>
<path d="M239.734 201.977H232.162" stroke="white" stroke-opacity="0.5"/>
<path d="M227.505 201.977H219.932" stroke="white" stroke-opacity="0.5"/>
<path d="M215.275 201.977H207.702" stroke="white" stroke-opacity="0.5"/>
<path d="M202.237 201.977H194.665" stroke="white" stroke-opacity="0.5"/>
<path d="M190.007 201.977H182.434" stroke="white" stroke-opacity="0.5"/>
<path d="M177.777 201.977H170.205" stroke="white" stroke-opacity="0.5"/>
<path d="M165.547 201.977H157.974" stroke="white" stroke-opacity="0.5"/>
<path d="M153.317 201.977H145.745" stroke="white" stroke-opacity="0.5"/>
<path d="M141.087 201.977H133.514" stroke="white" stroke-opacity="0.5"/>
<path d="M128.857 201.977H121.285" stroke="white" stroke-opacity="0.5"/>
<path d="M116.627 201.977H109.054" stroke="white" stroke-opacity="0.5"/>
<path d="M104.353 201.977H96.7798" stroke="white" stroke-opacity="0.5"/>
<path d="M92.123 201.977H84.5503" stroke="white" stroke-opacity="0.5"/>
<path d="M79.8926 201.977H72.3198" stroke="white" stroke-opacity="0.5"/>
<path d="M67.6631 201.977H60.0903" stroke="white" stroke-opacity="0.5"/>
<path d="M138.372 380.476H130.799" stroke="white" stroke-opacity="0.5"/>
<path d="M125.855 380.476H118.282" stroke="white" stroke-opacity="0.5"/>
<path d="M113.338 380.476H105.765" stroke="white" stroke-opacity="0.5"/>
<path d="M100.821 380.476H93.248" stroke="white" stroke-opacity="0.5"/>
<path d="M88.3037 380.476H80.731" stroke="white" stroke-opacity="0.5"/>
<path d="M75.7861 380.476H68.2134" stroke="white" stroke-opacity="0.5"/>
<path d="M63.269 380.476H55.6963" stroke="white" stroke-opacity="0.5"/>
<g clip-path="url(#clip0)">
<path d="M151.862 312.64L155.603 311.685L156.24 314.179C153.59 314.857 151.316 316.554 149.913 318.902C149.515 318.453 149.229 317.917 149.077 317.337C148.549 315.271 149.796 313.168 151.862 312.64Z" fill="#7E7C79"/>
<path d="M156.558 315.426C157.09 317.485 155.852 319.585 153.793 320.117C152.374 320.483 150.871 320.013 149.913 318.903C151.316 316.555 153.59 314.857 156.24 314.179L156.558 315.426Z" fill="#FFD33F"/>
<path d="M140.592 346.515L135.302 354.453C134.672 355.397 134.868 356.665 135.752 357.376C136.696 358.134 138.076 357.984 138.834 357.04C138.852 357.017 138.871 356.992 138.889 356.967L144.767 348.99L148.48 342.728L156.405 346.017L157.452 355.662C157.578 356.82 158.62 357.658 159.778 357.531C159.876 357.52 159.974 357.503 160.071 357.478L160.121 357.465C161.135 357.212 161.823 356.27 161.756 355.227C161.516 351.464 160.968 343.08 160.968 343.08L152.831 338.96L144.287 336.715L140.592 346.515Z" fill="#EA3836"/>
<path d="M162.244 327.759L160.895 328.929L154.208 323.553L148.37 321.503L137.139 322.601L133.662 328.439L136.895 330.658L139.863 326.333L146.107 326.509L144.287 336.715L152.83 338.96L153.819 328.966L161.338 334.13L164.918 331.314L162.244 327.759Z" fill="#91CECE"/>
<path d="M166.731 327.196L166.696 327.149C165.966 326.139 164.555 325.912 163.544 326.642C163.49 326.682 163.437 326.723 163.387 326.767L162.244 327.759L164.917 331.314L166.319 330.213C167.245 329.483 167.428 328.149 166.731 327.196Z" fill="#FFD33F"/>
<path d="M132.519 330.359C131.977 331.25 132.26 332.41 133.15 332.952C134.011 333.476 135.132 333.231 135.696 332.396L136.895 330.657L133.662 328.439L132.519 330.359Z" fill="#FFD33F"/>
<path d="M130.895 322.425L120.088 325.187L120.513 326.849L131.32 324.088L130.895 322.425Z" fill="white" fill-opacity="0.4"/>
<path d="M118.426 325.611L116.763 326.036L117.188 327.699L118.851 327.274L118.426 325.611Z" fill="white" fill-opacity="0.4"/>
<path d="M126.775 330.562L125.112 330.987L125.537 332.65L127.2 332.225L126.775 330.562Z" fill="white" fill-opacity="0.4"/>
<path d="M123.45 331.412L116.799 333.111L117.224 334.774L123.874 333.075L123.45 331.412Z" fill="white" fill-opacity="0.4"/>
<path d="M130.968 336.576L122.655 338.7L123.08 340.363L131.393 338.239L130.968 336.576Z" fill="white" fill-opacity="0.4"/>
<path d="M135.992 342.376L121.86 345.987L122.285 347.65L136.417 344.039L135.992 342.376Z" fill="white" fill-opacity="0.4"/>
<path d="M131.872 350.514L125.222 352.213L125.646 353.875L132.297 352.176L131.872 350.514Z" fill="white" fill-opacity="0.4"/>
<path d="M123.559 352.638L121.896 353.062L122.321 354.725L123.984 354.3L123.559 352.638Z" fill="white" fill-opacity="0.4"/>
<path d="M131.078 357.801L125.259 359.288L125.684 360.95L131.503 359.464L131.078 357.801Z" fill="white" fill-opacity="0.4"/>
<path d="M133.297 333.007C134.139 333.43 135.164 333.168 135.699 332.393L136.895 330.658L135.656 329.807L133.297 333.007Z" fill="#FFAC3E"/>
<path d="M139.438 324.671L135.654 329.807L136.893 330.658L139.863 326.333L146.107 326.509L146.513 324.634L139.438 324.671Z" fill="#83B2B7"/>
<path d="M161.331 331.971L154.226 327.091L153.819 328.966L161.337 334.13L164.917 331.314L163.884 329.94L161.331 331.971Z" fill="#83B2B7"/>
<path d="M163.884 329.937L164.917 331.312L166.318 330.211C167.132 329.57 167.385 328.447 166.925 327.518L163.884 329.937Z" fill="#FFAC3E"/>
<path d="M148.48 337.817L152.831 338.96L153.82 328.966L154.226 327.091L148.48 337.817Z" fill="#83B2B7"/>
<path d="M158.092 356.948C158.046 356.904 158.001 356.858 157.96 356.81C158.001 356.856 158.046 356.903 158.092 356.948Z" fill="#EA3836"/>
<path d="M158.788 357.396C158.719 357.367 158.651 357.335 158.586 357.298C158.652 357.335 158.719 357.367 158.788 357.396Z" fill="#EA3836"/>
<path d="M158.419 357.207C158.361 357.17 158.31 357.127 158.252 357.086C158.307 357.131 158.361 357.17 158.419 357.207Z" fill="#EA3836"/>
<path d="M157.817 356.621C157.784 356.574 157.75 356.527 157.721 356.476C157.75 356.527 157.784 356.574 157.817 356.621Z" fill="#EA3836"/>
<path d="M157.603 356.226C157.586 356.181 157.563 356.138 157.548 356.091C157.563 356.138 157.585 356.181 157.603 356.226Z" fill="#EA3836"/>
<path d="M159.563 357.54C159.35 357.539 159.14 357.505 158.938 357.441C159.14 357.506 159.351 357.54 159.563 357.54Z" fill="#EA3836"/>
<path d="M157.96 356.81C157.908 356.75 157.86 356.687 157.816 356.621C157.86 356.687 157.908 356.75 157.96 356.81Z" fill="#D62121"/>
<path d="M158.585 357.299C158.529 357.27 158.471 357.239 158.419 357.207C158.475 357.24 158.529 357.269 158.585 357.299Z" fill="#D62121"/>
<path d="M158.937 357.441C158.887 357.426 158.836 357.415 158.788 357.396C158.836 357.415 158.888 357.426 158.937 357.441Z" fill="#D62121"/>
<path d="M157.721 356.476C157.676 356.395 157.637 356.312 157.604 356.225C157.637 356.312 157.676 356.395 157.721 356.476Z" fill="#D62121"/>
<path d="M157.547 356.091C157.501 355.952 157.469 355.808 157.452 355.662C157.469 355.808 157.501 355.953 157.547 356.091Z" fill="#D62121"/>
<path d="M158.252 357.086C158.196 357.044 158.143 356.998 158.092 356.95C158.147 356.995 158.196 357.042 158.252 357.086Z" fill="#D62121"/>
<path d="M152.831 338.96L148.559 337.837L159.518 344.336L159.793 357.517C159.886 357.511 159.98 357.498 160.071 357.478L160.122 357.465C161.135 357.211 161.823 356.269 161.757 355.226C161.516 351.463 160.968 343.08 160.968 343.08L152.831 338.96Z" fill="#D62121"/>
<path d="M142.891 348.583L135.888 357.464C136.858 358.137 138.187 357.917 138.89 356.968L144.767 348.99L148.48 342.728L146.605 342.321L142.891 348.583Z" fill="#D62121"/>
<path d="M155.42 314.432L155.515 314.807C156.043 316.872 154.796 318.976 152.73 319.503C151.946 319.703 151.118 319.645 150.369 319.34C151.996 320.704 154.42 320.491 155.784 318.865C156.584 317.911 156.873 316.629 156.559 315.426L156.241 314.179C155.962 314.25 155.69 314.339 155.42 314.432Z" fill="#FFAC3E"/>
<path d="M155.603 311.685C155.874 312.593 155.809 313.568 155.42 314.432C155.69 314.339 155.962 314.25 156.24 314.178L155.603 311.685Z" fill="#202033"/>
</g>
<defs>
<linearGradient id="paint0_linear" x1="161.278" y1="380.476" x2="597.411" y2="59.4062" gradientUnits="userSpaceOnUse">
<stop stop-color="#F16A51"/>
<stop offset="0.887161" stop-color="#F16A51"/>
<stop offset="1" stop-color="#F16A51" stop-opacity="0"/>
</linearGradient>
<clipPath id="clip0">
<rect width="50" height="50" fill="white" transform="translate(113.478 320.112) rotate(-14.3322)"/>
</clipPath>
</defs>
</svg>
