<svg width="51" height="35" viewBox="0 0 51 35" fill="none" xmlns="http://www.w3.org/2000/svg">
<path d="M0.298828 11.6769C0.298828 13.5499 1.8172 15.0695 3.69143 15.0695H20.4234C19.4869 15.0695 18.6379 15.4491 18.0235 16.0635C17.9161 16.1709 17.8162 16.2845 17.7251 16.4056C17.2881 16.9762 17.0296 17.6892 17.0296 18.4634C17.0296 20.3364 18.5492 21.856 20.4234 21.856H22.7647C21.8269 21.856 20.9791 22.2356 20.3648 22.8499C19.7504 23.4643 19.3708 24.3134 19.3708 25.2498C19.3708 27.1241 20.8904 28.6425 22.7647 28.6425L24.3592 28.6437C22.7435 28.6437 21.3799 29.9186 21.3549 31.5343C21.3412 32.3647 21.6734 33.1164 22.2153 33.6596C22.7459 34.1902 23.4814 34.5199 24.293 34.5199H39.1396C39.92 34.5199 40.6979 34.4649 41.4683 34.3538C42.2387 34.2439 43.0017 34.0779 43.7496 33.8593C44.8135 33.5484 45.8961 33.3137 46.9911 33.1576C48.085 33.0015 49.19 32.9229 50.2988 32.9229V10.2897H46.8176C46.2544 10.2897 45.7188 10.1274 45.263 9.83767C44.806 9.54798 44.4301 9.13093 44.1904 8.62147C43.9594 8.13075 43.5636 7.49144 43.1677 6.89583C42.431 5.78577 41.4009 4.90047 40.1947 4.33483L32.0859 0.535163C30.6987 -0.116636 29.0592 0.104377 27.8942 1.09956L26.3745 2.39691C25.493 3.14985 24.3317 3.49074 23.1855 3.33465C23.0481 3.31592 22.912 3.30594 22.7784 3.30594C21.1689 3.30594 19.8178 4.61453 19.8178 6.27275C19.8178 6.50125 19.8341 6.72601 19.864 6.94577C19.9277 7.41527 20.0576 7.86354 20.2436 8.28184H3.69143C2.75369 8.28184 1.90585 8.66143 1.29151 9.27702C0.67842 9.89136 0.298828 10.7404 0.298828 11.6769Z" fill="#FCD09F"/>
<path d="M19.8643 6.9458C19.9279 7.4153 20.0578 7.86356 20.2438 8.28186H32.9552C32.9552 7.91226 32.8053 7.57887 32.5631 7.33663C32.3209 7.09564 31.9875 6.9458 31.6179 6.9458H19.8643Z" fill="#E2B991"/>
</svg>
