<svg width="46" height="52" viewBox="0 0 46 52" fill="none" xmlns="http://www.w3.org/2000/svg">
<path d="M1.28074 0.809692C0.811367 0.809692 0.461682 1.19219 0.503373 1.65957L4.46012 46.0413C4.50181 46.5088 4.90576 46.994 5.35817 47.1196L22.1487 51.7816C22.601 51.9071 23.3409 51.9071 23.7934 51.7819L40.6349 47.1122C41.0872 46.9867 41.4917 46.5016 41.5333 46.0342L45.4966 1.65957C45.5386 1.19219 45.1885 0.809692 44.7191 0.809692L1.28074 0.809692ZM37.0701 10.9885C37.0327 11.4054 36.9681 12.1292 36.9264 12.5967L36.8222 13.7611C36.7802 14.2284 36.7204 14.8967 36.6889 15.2461C36.6575 15.5956 36.6277 15.8816 36.6222 15.8816C36.6169 15.8816 36.2284 15.8816 35.7592 15.8816L23.8533 15.8816C23.3839 15.8816 22.996 15.8816 22.991 15.8816C22.9859 15.8816 22.5976 15.8816 22.1282 15.8816H15.8578C15.3884 15.8816 15.0388 16.2641 15.0804 16.7314L15.4462 20.8198C15.4879 21.287 15.9062 21.6696 16.3755 21.6696H22.1283C22.5977 21.6696 22.9859 21.6696 22.9911 21.6696C22.9962 21.6696 23.3841 21.6696 23.8534 21.6696H33.7417C34.2111 21.6696 34.9374 21.6696 35.3557 21.6696C35.7737 21.6696 36.085 22.0108 36.0471 22.4277C36.009 22.8447 35.944 23.5687 35.9024 24.0359L34.7264 37.2165C34.6844 37.6839 34.6313 38.2811 34.6085 38.5436C34.5851 38.8059 34.1961 39.1232 33.7438 39.2486L23.8224 41.9997C23.3701 42.1249 22.9943 42.2287 22.9873 42.2302C22.9803 42.2317 22.6047 42.1302 22.1521 42.0048L12.2201 39.2488C11.7678 39.1234 11.3637 38.6382 11.3221 38.1708L10.6827 30.995C10.6411 30.5276 10.9911 30.1451 11.4605 30.1451H12.3669C12.8363 30.1451 13.6043 30.1451 14.0736 30.1451H15.4252C15.8946 30.1451 16.3125 30.5276 16.3545 30.995L16.6053 33.8041C16.6469 34.2716 17.0516 34.754 17.5048 34.8764L22.1505 36.131C22.6035 36.2534 22.9759 36.3535 22.978 36.3535C22.9801 36.3535 23.3523 36.2532 23.8054 36.1308L28.4595 34.8732C28.9125 34.7508 29.3175 34.2682 29.3595 33.8009L29.8642 28.1729C29.9062 27.7054 29.5565 27.3229 29.0871 27.3229H23.8534C23.384 27.3229 22.9961 27.3229 22.9911 27.3229C22.986 27.3229 22.5977 27.3229 22.1283 27.3229H11.2075C10.7381 27.3229 10.3202 26.9403 10.2785 26.4731L9.04014 12.5968C8.99845 12.1293 8.93382 11.4057 8.89642 10.9886C8.85942 10.5717 9.21279 10.2305 9.68216 10.2305H22.1283C22.5977 10.2305 22.9859 10.2305 22.9911 10.2305C22.9962 10.2305 23.3841 10.2305 23.8534 10.2305L36.2845 10.2305C36.7538 10.2303 37.1073 10.5714 37.0701 10.9885Z" fill="#F16A51"/>
</svg>
