<svg width="59" height="43" viewBox="0 0 59 43" fill="none" xmlns="http://www.w3.org/2000/svg">
<path d="M12.1708 42.1979C9.72679 42.1979 7.47216 41.6943 5.40684 40.6871C3.37594 39.6411 1.70647 38.169 0.398438 36.2708L5.04541 29.995C7.00746 32.9779 9.24489 34.4694 11.7577 34.4694C15.1655 34.4694 16.8694 32.2225 16.8694 27.7287V8.37824H4.16764V0.824018H25.1823V27.2057C25.1823 32.2031 24.0808 35.9609 21.8778 38.4789C19.6747 40.9583 16.4391 42.1979 12.1708 42.1979Z" fill="#FFC107"/>
<path d="M43.4095 42.1979C40.5525 42.1979 37.7815 41.7718 35.0966 40.9195C32.4461 40.0285 30.3119 38.8857 28.6941 37.4911L31.5339 30.4017C33.0829 31.6801 34.9245 32.7067 37.0587 33.4815C39.1928 34.2563 41.327 34.6437 43.4611 34.6437C45.8363 34.6437 47.5918 34.2563 48.7277 33.4815C49.8636 32.668 50.4316 31.6027 50.4316 30.2855C50.4316 29.317 50.0874 28.5229 49.3989 27.903C48.7449 27.2444 47.8844 26.7215 46.8173 26.3341C45.7846 25.9467 44.3733 25.5205 42.5834 25.0557C39.8296 24.3196 37.575 23.5836 35.8195 22.8475C34.0639 22.1114 32.5494 20.9299 31.2758 19.3028C30.0366 17.6758 29.417 15.5063 29.417 12.7946C29.417 10.4314 29.9849 8.30077 31.1209 6.40253C32.2568 4.46555 33.9607 2.93533 36.2325 1.81188C38.5388 0.688433 41.3442 0.126709 44.6487 0.126709C46.955 0.126709 49.2096 0.436625 51.4126 1.05646C53.6156 1.67629 55.5433 2.56731 57.1955 3.72949L54.6139 10.877C51.2749 8.74628 47.936 7.68094 44.5971 7.68094C42.2564 7.68094 40.5181 8.10707 39.3821 8.95934C38.2806 9.81161 37.7299 10.9351 37.7299 12.3297C37.7299 13.7243 38.3667 14.7703 39.6403 15.4676C40.9483 16.1262 42.9276 16.7847 45.5781 17.4433C48.3319 18.1794 50.5865 18.9154 52.342 19.6515C54.0975 20.3875 55.5949 21.5497 56.8341 23.138C58.1077 24.7264 58.7445 26.8764 58.7445 29.5882C58.7445 31.9126 58.1593 34.0433 56.989 35.9802C55.8531 37.8785 54.132 39.3893 51.8257 40.5128C49.5194 41.6362 46.714 42.1979 43.4095 42.1979Z" fill="#FFC107"/>
</svg>
