<svg xmlns="http://www.w3.org/2000/svg" xmlns:xlink="http://www.w3.org/1999/xlink" width="22" height="21" viewBox="0 0 22 21"><defs><path id="tadya" d="M1218.386 36.047l-.313 1.296h-1.818l.386-1.884h1.3c.195 0 .309.112.359.182.055.07.136.215.086.406zm-1.127 4.611h-1.695l.359-1.725h1.759zm-.704 2.896a.46.46 0 0 1-.446.358h-1.218l.34-1.639h1.637zm-4.532-6.216v-1.874h3l-.387 1.874zm1.922 3.32h-1.922v-1.725h2.282zm-.672 3.249h-1.25v-1.638h1.586zm-2.837-6.57h-2.536l-.405-1.873h2.941zm0 3.321h-1.818l-.373-1.725h2.191zm-1.115 3.249l-.357-1.638h1.478v1.638zm-3.285-.344l-.359-1.3h1.668l.355 1.64h-1.223v.004a.459.459 0 0 1-.44-.344zm-1.281-4.63h1.872l.373 1.725h-1.768zm-.8-2.867a.458.458 0 0 1 .076-.41.442.442 0 0 1 .363-.187h1.475l.403 1.883h-1.964v-.004zm3.209 12.73c.427 0 .777.358.777.794 0 .436-.35.794-.777.794a.788.788 0 0 1-.778-.794c0-.436.346-.794.778-.794zm7.222 0c.428 0 .778.358.778.794 0 .436-.35.794-.778.794a.788.788 0 0 1-.777-.794c0-.436.346-.794.777-.794zm5.141-14.174a2.078 2.078 0 0 0-1.618-.762h-13.514c-.386 0-.754.11-1.072.31l-.691-2.452a.921.921 0 0 0-.882-.678h-3.055a.7.7 0 0 0-.695.706v.074a.7.7 0 0 0 .695.706h2.628l1.34 4.814 1.846 6.642a2.448 2.448 0 0 0-1.827 2.376c0 1.297.995 2.364 2.254 2.447a2.455 2.455 0 0 0-.127.987c.091 1.173 1.032 2.119 2.186 2.197 1.378.097 2.528-1.015 2.528-2.39 0-.277-.046-.54-.132-.79h2.764c-.114.328-.16.693-.119 1.066a2.387 2.387 0 0 0 2.178 2.114c1.377.097 2.531-1.01 2.531-2.39 0-1.334-1.09-2.4-2.4-2.4h-9.231a.85.85 0 0 1-.85-.808.833.833 0 0 1 .827-.873h11.014c.936 0 1.754-.65 1.981-1.573l1.837-7.505a2.087 2.087 0 0 0-.396-1.818z"/></defs><g><g transform="translate(-1198 -31)"><use fill="#00baf1" xlink:href="#tadya"/></g></g></svg>