<svg xmlns="http://www.w3.org/2000/svg" xmlns:xlink="http://www.w3.org/1999/xlink" width="68" height="14" viewBox="0 0 68 14"><defs><path id="17lxa" d="M272.846 622.487c-.94 3.66-4.753 5.888-8.519 4.976-3.764-.913-6.056-4.62-5.116-8.282.938-3.66 4.752-5.889 8.516-4.977 3.766.913 6.058 4.622 5.119 8.283"/><path id="17lxb" d="M269.126 619.859c-.1.666-.48.988-.984 1.101.692.35 1.044.888.708 1.819-.416 1.156-1.404 1.254-2.72 1.012l-.319 1.243-.771-.187.315-1.227c-.2-.048-.404-.1-.614-.154l-.317 1.232-.77-.187.32-1.246c-.181-.044-.364-.093-.55-.138l-1.004-.243.382-.858s.568.147.561.136c.219.052.315-.086.354-.178l.865-3.375c.01-.16-.047-.36-.36-.435.013-.009-.56-.136-.56-.136l.206-.8 1.063.257v.004c.16.038.324.076.492.113l.316-1.232.77.187-.309 1.208c.207.045.415.091.618.141l.308-1.2.77.187-.315 1.232c.973.326 1.685.815 1.545 1.724m-1.761 2.402c.249-.966-1.427-1.217-1.95-1.344l-.424 1.645c.523.125 2.135.626 2.374-.3m.238-2.42c.227-.879-1.175-1.074-1.611-1.18l-.384 1.49c.436.106 1.778.534 1.995-.31"/><path id="17lxc" d="M279.598 618.132c.57 0 1.062.1 1.477.295.415.197.758.462 1.033.796.272.335.474.727.604 1.176.13.45.196.934.196 1.453a5.68 5.68 0 0 1-.454 2.257 5.832 5.832 0 0 1-1.236 1.85 5.821 5.821 0 0 1-4.162 1.703c-.107 0-.296-.002-.562-.007a8.28 8.28 0 0 1-.914-.078 11 11 0 0 1-1.095-.209 5.616 5.616 0 0 1-1.095-.38l3.078-12.573 2.757-.415-1.102 4.461a4.3 4.3 0 0 1 .71-.24c.238-.058.493-.089.765-.089m-2.312 7.403c.415 0 .806-.1 1.174-.293.368-.195.687-.459.953-.787.267-.329.477-.7.63-1.114.155-.415.233-.847.233-1.297 0-.553-.096-.984-.285-1.296-.19-.31-.54-.466-1.05-.466a3.39 3.39 0 0 0-.649.086c-.267.059-.507.18-.721.364l-1.174 4.733c.071.012.134.023.187.034.052.012.11.02.168.026.06.006.13.01.214.01h.32"/><path id="17lxd" d="M285.763 627.429h-2.633l2.223-9.1h2.651zm1.286-10.198c-.37 0-.703-.107-1-.32-.299-.212-.447-.54-.447-.98 0-.242.051-.47.152-.684.102-.214.235-.399.402-.555.167-.156.36-.28.58-.374a1.83 1.83 0 0 1 .705-.138c.369 0 .7.107.998.32.297.216.447.542.447.98 0 .244-.05.472-.152.686a1.811 1.811 0 0 1-.401.555c-.166.156-.36.28-.58.372a1.785 1.785 0 0 1-.704.138z"/><path id="17lxe" d="M290.317 616.065l2.757-.415-.676 2.681h2.953l-.533 2.11h-2.936l-.782 3.182a3.546 3.546 0 0 0-.125.743c-.013.232.018.43.089.597.07.168.198.297.382.388.184.094.447.14.792.14.284 0 .56-.026.828-.078.266-.052.536-.123.808-.217l.196 1.973a9.66 9.66 0 0 1-1.156.328 6.88 6.88 0 0 1-1.476.138c-.819 0-1.452-.118-1.904-.353-.452-.237-.77-.561-.961-.97-.189-.409-.273-.88-.249-1.409.024-.531.106-1.09.249-1.677z"/><path id="17lxf" d="M295.23 623.788c0-.783.13-1.522.391-2.214a5.416 5.416 0 0 1 1.122-1.817 5.237 5.237 0 0 1 1.771-1.227c.691-.3 1.466-.45 2.32-.45a6.33 6.33 0 0 1 1.432.147c.422.1.803.228 1.148.389l-.908 2.007a8.674 8.674 0 0 0-.738-.25 3.273 3.273 0 0 0-.933-.114c-.88 0-1.575.295-2.091.882-.516.588-.775 1.379-.775 2.37 0 .588.13 1.063.392 1.427.261.364.743.545 1.441.545a5.02 5.02 0 0 0 1.85-.362l.197 2.057c-.333.126-.7.24-1.103.338a6.262 6.262 0 0 1-1.442.146c-.735 0-1.358-.105-1.867-.31-.51-.21-.931-.488-1.262-.84a3.134 3.134 0 0 1-.721-1.238 4.92 4.92 0 0 1-.224-1.486"/><path id="17lxg" d="M306.928 627.662c-.628 0-1.174-.093-1.637-.277a3.024 3.024 0 0 1-1.147-.778 3.344 3.344 0 0 1-.684-1.185 4.665 4.665 0 0 1-.23-1.512c0-.693.114-1.386.346-2.076a5.821 5.821 0 0 1 1.024-1.868 5.425 5.425 0 0 1 1.652-1.359c.652-.35 1.4-.527 2.24-.527.618 0 1.161.093 1.63.278.467.183.852.444 1.157.777.3.336.53.73.683 1.186.154.454.231.96.231 1.513 0 .69-.113 1.383-.337 2.076a5.946 5.946 0 0 1-.996 1.868 5.194 5.194 0 0 1-1.645 1.356c-.658.352-1.421.528-2.287.528m1.316-7.4c-.39 0-.735.11-1.03.328a2.83 2.83 0 0 0-.746.83 4.01 4.01 0 0 0-.456 1.098 4.56 4.56 0 0 0-.15 1.131c0 .576.096 1.026.284 1.349.191.322.534.483 1.032.483.391 0 .735-.11 1.032-.33a2.86 2.86 0 0 0 .746-.828c.202-.334.354-.7.456-1.098.099-.396.15-.774.15-1.131 0-.575-.095-1.026-.286-1.348-.19-.322-.534-.484-1.032-.484"/><path id="17lxh" d="M315.065 627.429h-2.635l2.223-9.1h2.653zm1.284-10.198c-.369 0-.702-.107-.998-.32-.298-.212-.447-.54-.447-.98 0-.242.051-.47.151-.684.101-.214.235-.399.402-.555.166-.156.361-.28.58-.374.22-.091.455-.138.704-.138.37 0 .703.107 1 .32.297.216.447.542.447.98 0 .244-.054.472-.153.686-.1.214-.234.398-.4.555-.168.156-.36.28-.58.372-.22.094-.456.138-.706.138z"/><path id="17lxi" d="M319.204 618.743c.2-.057.423-.125.666-.2a10.23 10.23 0 0 1 1.833-.363c.373-.04.798-.06 1.27-.06 1.389 0 2.347.393 2.875 1.177s.62 1.856.276 3.217l-1.21 4.911h-2.651l1.174-4.808c.071-.3.128-.59.169-.874.042-.28.04-.529-.009-.743a.89.89 0 0 0-.329-.52c-.173-.132-.436-.199-.792-.199a5.49 5.49 0 0 0-1.048.105l-1.727 7.04h-2.651z"/></defs><g><g transform="translate(-259 -614)"><g><use fill="#ff9400" xlink:href="#17lxa"/></g><g><use fill="#fff" xlink:href="#17lxb"/></g><g><use fill="#4c4c4c" xlink:href="#17lxc"/></g><g><use fill="#4c4c4c" xlink:href="#17lxd"/></g><g><use fill="#4c4c4c" xlink:href="#17lxe"/></g><g><use fill="#4c4c4c" xlink:href="#17lxf"/></g><g><use fill="#4c4c4c" xlink:href="#17lxg"/></g><g><use fill="#4c4c4c" xlink:href="#17lxh"/></g><g><use fill="#4c4c4c" xlink:href="#17lxi"/></g></g></g></svg>