<svg xmlns="http://www.w3.org/2000/svg" xmlns:xlink="http://www.w3.org/1999/xlink" width="81" height="59" viewBox="0 0 81 59"><defs><path id="5bzeb" d="M108.46 694.262v10.443l12.654-18.005z"/><path id="5bzec" d="M108.46 678.45v13.403l12.654-7.582z"/><path id="5bzed" d="M108.46 663v15.445l12.654 5.822z"/><path id="5bzee" d="M108.464 694.262v10.443L95.81 686.7z"/><path id="5bzef" d="M108.464 678.45v13.403l-12.654-7.582z"/><path id="5bzeg" d="M108.464 663L95.81 684.267l12.654-5.822z"/><path id="5bzeh" d="M68.637 718.107c.083 1.36 1.183 3.058 3.043 3.061 1.27.002 2.038-.594 2.579-1.36.096-.135.304-.158.446-.073h.001a.326.326 0 0 1 .103.457c-.493.747-1.544 1.698-3.178 1.62-1.2 0-2.079-.64-2.716-1.339-.518-.567-.915-1.526-.915-2.683 0-1.137.339-2.056 1.018-2.759.678-.702 1.49-1.211 2.613-1.211s1.942.429 2.588 1.13c.833.905 1.058 1.837 1.091 2.822a.326.326 0 0 1-.09.236.318.318 0 0 1-.23.099zm2.994-3.664c-.83.006-1.449.379-1.98.856-.533.477-.897 1.38-.985 2.215h5.925c-.05-.835-.44-1.613-.92-2.134-.472-.513-.962-.945-2.04-.937z"/><path id="5bzei" d="M97.967 718.107c.083 1.36 1.183 3.058 3.043 3.061 1.27.002 2.038-.594 2.579-1.36.096-.135.304-.158.446-.073h.001a.326.326 0 0 1 .103.457c-.493.747-1.544 1.698-3.178 1.62-1.2 0-2.079-.64-2.716-1.339-.518-.567-.915-1.526-.915-2.683 0-1.137.34-2.056 1.018-2.759.678-.702 1.49-1.211 2.613-1.211s1.942.429 2.588 1.13c.833.905 1.058 1.837 1.091 2.822a.326.326 0 0 1-.09.236.318.318 0 0 1-.23.099zm2.994-3.664c-.83.006-1.449.379-1.98.856-.533.477-.897 1.38-.985 2.215h5.925c-.05-.835-.44-1.613-.92-2.134-.472-.513-.962-.945-2.04-.937z"/><path id="5bzej" d="M116.117 718.107c.083 1.36 1.183 3.058 3.043 3.061 1.27.002 2.038-.594 2.579-1.36.096-.135.304-.158.446-.073h.001a.325.325 0 0 1 .103.457c-.493.747-1.543 1.698-3.178 1.62-1.2 0-2.079-.64-2.716-1.339-.518-.567-.915-1.526-.915-2.683 0-1.137.34-2.056 1.018-2.759.678-.702 1.49-1.211 2.613-1.211s1.942.429 2.588 1.13c.833.905 1.058 1.837 1.091 2.822a.325.325 0 0 1-.09.236.318.318 0 0 1-.23.099zm2.994-3.664c-.83.006-1.449.379-1.98.856-.533.477-.897 1.38-.985 2.215h5.925c-.049-.835-.44-1.613-.92-2.134-.472-.513-.962-.945-2.04-.937z"/><path id="5bzek" d="M81.252 714.582v6.826c0 .165-.133.3-.296.3a.299.299 0 0 1-.296-.3v-6.826h-1.693a.29.29 0 0 1-.287-.29c0-.16.129-.291.287-.291h1.693v-2.528c0-.167.134-.303.299-.303h.006a.29.29 0 0 1 .287.29V714h1.747a.29.29 0 0 1 .286.291.29.29 0 0 1-.286.29z"/><path id="5bzel" d="M90.791 713.908c-1.176-.164-2.29.232-3.059 1.518v-7.576a.29.29 0 0 0-.286-.29h-.007c-.164 0-.299.136-.299.303v13.538c0 .165.133.3.296.3a.299.299 0 0 0 .296-.3v-4.576c0-1.282 1.604-2.662 3.058-2.332.937.212 1.873 1.153 1.87 2.66v4.248c0 .165.133.3.296.3a.299.299 0 0 0 .296-.3v-4.234c.085-1.291-.794-3.026-2.46-3.259"/><path id="5bzea" d="M126.84 714.04h6.112v7.828h-6.112z"/><path id="5bzen" d="M129.3 721.833c1.177.164 2.292-.233 3.06-1.518v1.09c0 .16.129.29.286.29h.007c.164 0 .299-.136.299-.303v-7.052c0-.165-.133-.3-.296-.3a.299.299 0 0 0-.296.3l.035 3.737c0 1.94-1.493 3.492-3.057 3.156-.94-.203-1.91-1.138-1.906-2.646v-4.247c0-.165-.133-.3-.296-.3a.299.299 0 0 0-.296.3v4.234c0 1.585.794 3.026 2.46 3.259"/><path id="5bzeo" d="M146.448 713.907c-1.155-.161-2.61.345-3.22 1.998-.353-.955-1.152-1.837-2.306-1.998-1.177-.164-2.302.199-3.07 1.484v-1.09a.29.29 0 0 0-.286-.29h-.007c-.164 0-.299.136-.299.303v7.052c0 .165.133.3.296.3a.299.299 0 0 0 .296-.3l-.036-3.737c0-1.94 1.504-3.458 3.069-3.122.904.195 1.834 1.068 1.901 2.476v4.383c0 .011.003.021.004.032v.002c0 .165.18.3.343.3a.299.299 0 0 0 .297-.3v-1.023c.002-.671.005-1.557.005-2.24 0-2.095.932-3.95 2.976-3.63.95.149 1.909 1.138 1.905 2.645v4.248c0 .165.134.3.296.3a.299.299 0 0 0 .297-.3v-4.234c.085-1.292-.795-3.026-2.46-3.259"/><path id="5bzep" d="M112.398 714.33c0-.09-.04-.176-.11-.233-.069-.057-.158-.063-.248-.061-1.22.03-2.371 1.039-2.668 1.809v-1.564a.29.29 0 0 0-.286-.291h-.007c-.164 0-.299.136-.299.303v7.052c0 .165.133.3.296.3a.299.299 0 0 0 .296-.3l.02-3.53c0-1.693 1.288-3.129 2.777-3.2.136-.007.23-.145.23-.282z"/><clipPath id="5bzem"><use xlink:href="#5bzea"/></clipPath></defs><g><g transform="translate(-68 -663)"><g><use fill="#2e2f2f" xlink:href="#5bzeb"/></g><g><use fill="#010202" xlink:href="#5bzec"/></g><g><use fill="#2e2f2f" xlink:href="#5bzed"/></g><g><use fill="#818283" xlink:href="#5bzee"/></g><g><use fill="#343534" xlink:href="#5bzef"/></g><g><use fill="#818283" xlink:href="#5bzeg"/></g><g><g><use fill="#231f20" xlink:href="#5bzeh"/></g><g><use fill="#231f20" xlink:href="#5bzei"/></g><g><use fill="#231f20" xlink:href="#5bzej"/></g><g><use fill="#231f20" xlink:href="#5bzek"/></g><g><use fill="#231f20" xlink:href="#5bzel"/></g><g><g/><g clip-path="url(#5bzem)"><use fill="#231f20" xlink:href="#5bzen"/></g></g><g><use fill="#231f20" xlink:href="#5bzeo"/></g><g><use fill="#231f20" xlink:href="#5bzep"/></g></g></g></g></svg>