<svg xmlns="http://www.w3.org/2000/svg" xmlns:xlink="http://www.w3.org/1999/xlink" width="198" height="46" viewBox="0 0 198 46"><defs><path id="f7nka" d="M580 22.91h10.638v22.811H580z"/><path id="f7nke" d="M583.568 22.91v17.374c0 .815.167 1.383.502 1.705.335.322.784.483 1.346.483s1.01-.161 1.346-.483c.335-.322.503-.89.503-1.705V22.91h3.373v17.149c0 1.823-.45 3.222-1.346 4.198-.898.976-2.222 1.464-3.973 1.464s-3.076-.488-3.973-1.464c-.897-.976-1.346-2.375-1.346-4.198V22.91z"/><path id="f7nkf" d="M598.68 29.12v16.312h-3.21V22.91h4.476l3.665 13.48V22.91h3.178v22.522h-3.665z"/><path id="f7nkb" d="M580 67.88h205.98V18.23H580z"/><path id="f7nkh" d="M611.78 45.432h3.568V22.91h-3.568z"/><path id="f7nki" d="M625.764 41.281l2.725-18.371h3.275l-3.503 22.522h-5.318L619.44 22.91h3.6z"/><path id="f7nkj" d="M639.418 32.401h4.897v3.218h-4.897v6.595h6.162v3.218h-9.73V22.91h9.73v3.217h-6.162z"/><path id="f7nkk" d="M657.67 45.432c-.044-.15-.087-.29-.13-.419a3.157 3.157 0 0 1-.114-.482 5.86 5.86 0 0 1-.065-.74c-.01-.3-.016-.676-.016-1.126v-3.54c0-1.05-.184-1.79-.551-2.22-.368-.428-.963-.643-1.784-.643h-1.232v9.17h-3.568V22.91h5.384c1.859 0 3.205.43 4.038 1.287.832.858 1.248 2.156 1.248 3.893v1.77c0 2.316-.778 3.84-2.335 4.568.908.365 1.53.96 1.865 1.786.335.826.503 1.829.503 3.008v3.475c0 .558.021 1.045.064 1.464.044.418.151.842.325 1.27zm-3.89-19.305v6.908h1.389c.667 0 1.189-.171 1.565-.514.376-.343.565-.964.565-1.864v-2.216c0-.814-.145-1.403-.436-1.767-.29-.364-.748-.547-1.371-.547z"/><path id="f7nkl" d="M665.227 28.313c0-1.823.438-3.223 1.314-4.199.876-.976 2.189-1.464 3.94-1.464 1.752 0 3.065.488 3.941 1.464.876.976 1.313 2.376 1.313 4.199v.868h-3.373v-1.094c0-.815-.157-1.388-.47-1.72-.314-.333-.751-.5-1.313-.5-.563 0-1 .167-1.314.5-.314.332-.47.905-.47 1.72 0 .772.173 1.454.519 2.043.345.59.778 1.148 1.297 1.673a33.462 33.462 0 0 0 1.67 1.577c.595.526 1.151 1.1 1.67 1.721.52.623.952 1.33 1.298 2.124.345.793.519 1.726.519 2.799 0 1.823-.45 3.223-1.346 4.198-.898.977-2.222 1.464-3.973 1.464s-3.076-.487-3.973-1.464c-.897-.975-1.346-2.375-1.346-4.198v-1.545h3.373v1.77c0 .815.167 1.383.503 1.705.335.322.783.483 1.345.483.562 0 1.011-.161 1.346-.483.336-.322.503-.89.503-1.705 0-.772-.173-1.453-.519-2.043a8.54 8.54 0 0 0-1.297-1.673 34.215 34.215 0 0 0-1.67-1.577 15.74 15.74 0 0 1-1.67-1.72 8.727 8.727 0 0 1-1.298-2.124c-.346-.794-.519-1.727-.519-2.8"/><path id="f7nkm" d="M691.796 45.432h-3.6l-.616-4.086h-4.378l-.616 4.086h-3.276l3.632-22.522h5.222zm-8.144-7.143h3.435l-1.717-11.39z"/><path id="f7nkn" d="M695.88 22.91h3.567v19.304h5.87v3.218h-9.437z"/><path id="f7nko" d="M699.417 55.366h4.606v3.217h-4.606v9.298h-3.567V45.36h9.438v3.217h-5.87z"/><path id="f7nkp" d="M720.986 67.882h-3.6l-.616-4.086h-4.378l-.616 4.086H708.5l3.632-22.522h5.222zm-8.144-7.143h3.435l-1.717-11.39z"/><path id="f7nkq" d="M732.53 67.882a10.58 10.58 0 0 0-.13-.419 3.212 3.212 0 0 1-.114-.482 5.91 5.91 0 0 1-.065-.74c-.01-.3-.016-.676-.016-1.126v-3.54c0-1.05-.184-1.79-.551-2.22-.368-.428-.963-.643-1.784-.643h-1.233v9.17h-3.567V45.36h5.384c1.859 0 3.205.43 4.037 1.287.833.858 1.25 2.156 1.25 3.893v1.77c0 2.316-.78 3.84-2.336 4.568.908.365 1.53.96 1.865 1.786.335.826.503 1.829.503 3.008v3.475c0 .558.02 1.045.064 1.464.043.418.151.842.325 1.27zm-3.893-19.305v6.908h1.391c.668 0 1.191-.171 1.569-.514.377-.343.566-.964.566-1.864v-2.216c0-.814-.146-1.403-.437-1.767-.29-.364-.75-.547-1.374-.547z"/><path id="f7nkr" d="M748.1 61.35l2.432-15.99h4.961v22.522h-3.372V51.73l-2.465 16.152h-3.373l-2.66-15.926v15.926h-3.113V45.36h4.962z"/><path id="f7nkc" d="M753.142 35.307h9.108v-9.032h3.372v9.032h9.109v3.343h-9.109v9.032h-3.372V38.65h-9.108m5.736-15.72v9.036h-9.108V42h9.108v9.036h10.117V42h9.108V31.966h-9.108V22.93"/><path id="f7nkt" d="M752.958 25.631c-2.783 5.747-6.36 16.128 7.075 16.18 13.435.05 16.547-.6 17.153-4.632.606-4.033-.331-10.125-7.074-16.18-6.743-6.055-14.37-1.115-17.154 4.632"/><path id="f7nkv" d="M758.83 40.647c0 6.376 1.307 17.27 13.44 11.544 12.132-5.726 14.653-7.648 13.439-11.544-1.214-3.895-4.719-8.983-13.44-11.544-8.72-2.56-13.439 5.169-13.439 11.544"/><path id="f7nkx" d="M769.034 40.647c0 6.376-1.308 17.27-13.44 11.544-12.132-5.726-14.654-7.648-13.44-11.544 1.215-3.895 4.72-8.983 13.44-11.544 8.721-2.56 13.44 5.169 13.44 11.544"/><clipPath id="f7nkd"><use xlink:href="#f7nka"/></clipPath><clipPath id="f7nkg"><use xlink:href="#f7nkb"/></clipPath><clipPath id="f7nks"><use xlink:href="#f7nkc"/></clipPath><clipPath id="f7nku"><use xlink:href="#f7nkc"/></clipPath><clipPath id="f7nkw"><use xlink:href="#f7nkc"/></clipPath></defs><g><g transform="translate(-580 -22)"><g><g><g/><g clip-path="url(#f7nkd)"><use xlink:href="#f7nke"/></g></g><g><use xlink:href="#f7nkf"/></g><g/><g clip-path="url(#f7nkg)"><use xlink:href="#f7nkh"/></g><g clip-path="url(#f7nkg)"><use xlink:href="#f7nki"/></g><g clip-path="url(#f7nkg)"><use xlink:href="#f7nkj"/></g><g clip-path="url(#f7nkg)"><use xlink:href="#f7nkk"/></g><g clip-path="url(#f7nkg)"><use xlink:href="#f7nkl"/></g><g clip-path="url(#f7nkg)"><use xlink:href="#f7nkm"/></g><g clip-path="url(#f7nkg)"><use xlink:href="#f7nkn"/></g><g clip-path="url(#f7nkg)"><use fill="#00baf1" xlink:href="#f7nko"/></g><g clip-path="url(#f7nkg)"><use fill="#00baf1" xlink:href="#f7nkp"/></g><g clip-path="url(#f7nkg)"><use fill="#00baf1" xlink:href="#f7nkq"/></g><g clip-path="url(#f7nkg)"><use fill="#00baf1" xlink:href="#f7nkr"/></g></g><g><g><g/><g clip-path="url(#f7nks)"><use fill="#50c4fc" xlink:href="#f7nkt"/></g></g><g><g/><g clip-path="url(#f7nku)"><use fill="#5497fc" xlink:href="#f7nkv"/></g></g><g><g/><g clip-path="url(#f7nkw)"><use fill="#98dbfb" xlink:href="#f7nkx"/></g></g></g></g></g></svg>