<svg xmlns="http://www.w3.org/2000/svg" xmlns:xlink="http://www.w3.org/1999/xlink" width="136" height="24" viewBox="0 0 136 24"><defs><path id="apxwa" d="M68 609.32h19.289v23.496H68z"/><path id="apxwe" d="M82.768 621.068c0-3.735 1.768-7.06 4.52-9.211a11.95 11.95 0 0 0-7.383-2.537C73.33 609.32 68 614.58 68 621.068c0 6.488 5.33 11.748 11.905 11.748 2.79 0 5.354-.95 7.384-2.537-2.753-2.152-4.52-5.476-4.52-9.211"/><path id="apxwf" d="M82.77 621.061c0 3.735 1.768 7.06 4.52 9.212 2.753-2.152 4.521-5.477 4.521-9.212 0-3.734-1.768-7.06-4.52-9.211-2.753 2.152-4.521 5.477-4.521 9.211"/><path id="apxwg" d="M126.142 617.906a2.928 2.928 0 0 0-.985-.639 3.34 3.34 0 0 0-1.247-.227c-.24 0-.488.02-.746.061a3.3 3.3 0 0 0-.757.215 2.872 2.872 0 0 0-.705.427c-.223.182-.418.41-.582.687a2.825 2.825 0 0 0-1.08-1.02c-.454-.247-.974-.37-1.558-.37-.197 0-.4.018-.61.053-.21.035-.419.096-.626.183a2.49 2.49 0 0 0-1.108.919v-.952h-1.658v7.786h1.674v-4.315c0-.33.053-.625.16-.882a1.783 1.783 0 0 1 1.052-1.04c.239-.09.494-.135.765-.135.563 0 1 .177 1.31.529.312.352.467.856.467 1.511v4.332h1.674v-4.315c0-.33.053-.625.16-.882a1.787 1.787 0 0 1 1.052-1.04c.239-.09.494-.135.765-.135.563 0 1 .177 1.311.529.311.352.467.856.467 1.511v4.332h1.674v-4.892c0-.455-.076-.873-.228-1.252a2.847 2.847 0 0 0-.641-.98"/><path id="apxwh" d="M134.974 618.186a3.079 3.079 0 0 0-1.021-.833c-.407-.208-.892-.313-1.458-.313-.555 0-1.07.102-1.548.305a3.85 3.85 0 0 0-2.092 2.146 4.347 4.347 0 0 0-.305 1.645c0 .597.102 1.145.305 1.646a3.85 3.85 0 0 0 2.092 2.146c.478.203.993.305 1.548.305.566 0 1.051-.103 1.458-.309a3.033 3.033 0 0 0 1.021-.829v.934h1.722v-7.786h-1.722zm-.064 3.942a2.364 2.364 0 0 1-.486.789 2.257 2.257 0 0 1-.75.524c-.291.127-.616.19-.973.19-.374 0-.708-.066-1.002-.198a2.223 2.223 0 0 1-.745-.537 2.368 2.368 0 0 1-.47-.792 2.812 2.812 0 0 1-.165-.968c0-.34.054-.663.165-.967.11-.303.266-.567.47-.792.203-.225.451-.404.745-.537a2.41 2.41 0 0 1 1.002-.199c.357 0 .682.064.973.191a2.261 2.261 0 0 1 1.236 1.313c.116.303.173.634.173.991 0 .358-.057.689-.173.992z"/><path id="apxwi" d="M144.611 621.126c-.483-.37-1.156-.619-2.018-.743l-.815-.122a7.488 7.488 0 0 1-.51-.094 1.685 1.685 0 0 1-.413-.142.787.787 0 0 1-.275-.228.554.554 0 0 1-.104-.341c0-.276.131-.5.392-.67.26-.171.627-.257 1.1-.257.246 0 .49.022.728.066.239.043.466.097.68.162a4.996 4.996 0 0 1 1.03.439l.74-1.325a5.084 5.084 0 0 0-1.441-.605 6.905 6.905 0 0 0-1.754-.216c-.506 0-.958.058-1.359.175a3.127 3.127 0 0 0-1.026.496c-.282.214-.5.475-.65.784-.151.309-.227.656-.227 1.04 0 .63.227 1.137.68 1.524.453.388 1.119.641 1.997.76l.824.106c.472.065.818.17 1.038.313.219.144.33.326.33.548 0 .293-.152.525-.454.695-.302.171-.75.257-1.343.257-.324 0-.613-.022-.869-.065a4.405 4.405 0 0 1-.7-.175 3.391 3.391 0 0 1-.568-.252 4.113 4.113 0 0 1-.465-.305l-.799 1.276c.285.211.585.382.898.512.313.13.62.232.922.305.302.073.588.122.857.146.269.024.505.037.708.037.565 0 1.072-.062 1.52-.187.447-.125.823-.3 1.128-.524.305-.225.538-.493.7-.805.162-.312.243-.654.243-1.028 0-.667-.242-1.186-.725-1.557"/><path id="apxwj" d="M160.728 618.174c-.327-.36-.72-.64-1.178-.837a3.776 3.776 0 0 0-1.511-.297c-.582 0-1.114.099-1.594.297-.48.198-.894.476-1.24.837-.346.36-.615.792-.807 1.296a4.645 4.645 0 0 0-.288 1.666c0 .618.099 1.179.296 1.683.198.504.475.934.832 1.292s.783.634 1.277.83a4.403 4.403 0 0 0 1.63.292c.599 0 1.169-.082 1.71-.244a4.306 4.306 0 0 0 1.536-.854l-.857-1.21c-.33.26-.693.461-1.091.605a3.486 3.486 0 0 1-1.19.215c-.28 0-.55-.037-.807-.114a2.125 2.125 0 0 1-.7-.353 2.138 2.138 0 0 1-.536-.614c-.148-.249-.25-.55-.305-.902h5.832a6.5 6.5 0 0 0 .033-.634c0-.607-.092-1.16-.277-1.662a3.897 3.897 0 0 0-.765-1.292zm-4.814 2.296c.043-.282.12-.54.23-.776.11-.236.253-.44.426-.61.173-.17.38-.302.62-.394a2.28 2.28 0 0 1 .82-.138c.55 0 1 .168 1.346.504.347.336.567.807.661 1.414z"/><path id="apxwk" d="M183.594 618.186a3.078 3.078 0 0 0-1.021-.833c-.407-.208-.892-.313-1.458-.313-.555 0-1.07.102-1.548.305a3.854 3.854 0 0 0-1.252.85 3.937 3.937 0 0 0-.84 1.296 4.34 4.34 0 0 0-.305 1.645c0 .597.101 1.145.305 1.646.203.501.483.934.84 1.297.357.363.774.646 1.252.85.477.202.993.304 1.548.304.566 0 1.051-.103 1.458-.309a3.032 3.032 0 0 0 1.021-.829v.934h1.722v-7.786h-1.722zm-.064 3.942a2.26 2.26 0 0 1-1.237 1.313c-.29.127-.615.19-.972.19-.374 0-.708-.066-1.002-.198a2.227 2.227 0 0 1-.746-.537 2.379 2.379 0 0 1-.47-.792 2.82 2.82 0 0 1-.164-.968c0-.34.054-.663.164-.967.11-.303.267-.567.47-.792.204-.225.452-.404.746-.537a2.41 2.41 0 0 1 1.002-.199c.357 0 .681.064.973.191a2.264 2.264 0 0 1 1.236 1.313c.116.303.173.634.173.991 0 .358-.057.689-.173.992z"/><path id="apxwl" d="M151.984 623.481c-.277.103-.55.154-.82.154-.175 0-.339-.027-.49-.081a1.015 1.015 0 0 1-.395-.256 1.239 1.239 0 0 1-.268-.45 1.996 1.996 0 0 1-.098-.667v-3.39h2.764v-1.544h-2.764v-2.357h-1.73v2.357h-1.573v1.544h1.573v3.422c0 1.035.248 1.798.745 2.288.497.49 1.193.736 2.088.736.5 0 .949-.076 1.347-.228.263-.1.507-.215.736-.341l-.59-1.423a4.422 4.422 0 0 1-.525.236"/><path id="apxwm" d="M167.532 617.04c-.483 0-.92.087-1.31.26-.39.174-.715.591-.98.965v-1.022h-1.562v7.787h1.58v-4.284c0-.33.046-.625.14-.886.092-.26.222-.48.387-.658.164-.179.362-.314.593-.406a2.02 2.02 0 0 1 .757-.139 3.434 3.434 0 0 1 1.021.165l.51-1.625a3.226 3.226 0 0 0-.423-.104 4.386 4.386 0 0 0-.713-.053"/><path id="apxwn" d="M191.462 617.04c-.483 0-.92.087-1.31.26-.39.174-.715.591-.98.965v-1.022h-1.562v7.787h1.58v-4.284c0-.33.046-.625.14-.886.092-.26.222-.48.387-.658.164-.179.362-.314.593-.406a2.02 2.02 0 0 1 .757-.139 3.434 3.434 0 0 1 1.021.165l.51-1.625a3.226 3.226 0 0 0-.423-.104 4.386 4.386 0 0 0-.713-.053"/><path id="apxwo" d="M199.494 614.08v4.108a3.081 3.081 0 0 0-1.02-.833c-.408-.209-.894-.313-1.459-.313-.554 0-1.07.101-1.548.305a3.85 3.85 0 0 0-2.092 2.145 4.335 4.335 0 0 0-.305 1.646c0 .596.101 1.145.305 1.646a3.85 3.85 0 0 0 2.092 2.146c.478.203.994.305 1.548.305.565 0 1.051-.103 1.458-.31a3.035 3.035 0 0 0 1.021-.828v.934h1.722V614.08zm-.066 8.05a2.258 2.258 0 0 1-1.236 1.313 2.4 2.4 0 0 1-.971.19c-.373 0-.707-.066-1-.199a2.225 2.225 0 0 1-.746-.536 2.373 2.373 0 0 1-.47-.793 2.814 2.814 0 0 1-.164-.967c0-.341.055-.664.165-.967.11-.304.266-.568.469-.792a2.23 2.23 0 0 1 .745-.537c.294-.133.628-.2 1.001-.2a2.4 2.4 0 0 1 .972.192 2.262 2.262 0 0 1 1.235 1.313c.116.303.173.634.173.991 0 .358-.057.688-.173.992z"/><path id="apxwp" d="M171.65 619.336c.219-.22.48-.39.782-.512.302-.122.629-.183.98-.183.386 0 .746.061 1.078.183.321.118.6.282.836.491l.828-1.36a4.233 4.233 0 0 0-1.05-.602 4.5 4.5 0 0 0-1.692-.313 4.5 4.5 0 0 0-1.693.313 4.096 4.096 0 0 0-1.342.861 3.978 3.978 0 0 0-.885 1.297 4.072 4.072 0 0 0-.322 1.625c0 .586.107 1.127.322 1.626.214.498.509.93.885 1.296s.823.653 1.342.862a4.5 4.5 0 0 0 1.693.313 4.5 4.5 0 0 0 1.692-.313c.39-.157.74-.357 1.05-.602l-.828-1.36a2.598 2.598 0 0 1-.836.49 3.106 3.106 0 0 1-1.078.183c-.351 0-.678-.06-.98-.182a2.316 2.316 0 0 1-1.302-1.3 2.628 2.628 0 0 1-.19-1.013c0-.368.064-.705.19-1.011.127-.307.3-.57.52-.789"/><path id="apxwq" d="M105.624 627.78v-.627h-.164v-.173h.45v.173h-.164v.627zm.878 0v-.555l-.118.479h-.13l-.12-.478v.554h-.123v-.8h.177l.13.512.13-.512h.178v.8z"/><path id="apxwb" d="M202.74 624.28h1.248v1.196h-1.248z"/><path id="apxws" d="M203.608 624.327a.606.606 0 0 1 .33.318.565.565 0 0 1 .001.464.61.61 0 0 1-.33.32.645.645 0 0 1-.688-.13.597.597 0 0 1-.181-.422.57.57 0 0 1 .18-.421.634.634 0 0 1 .446-.176c.086 0 .167.016.242.047zm-.072.949a.433.433 0 0 0 .138-.704.437.437 0 0 0-.308-.126.439.439 0 0 0-.406.263.426.426 0 0 0-.034.168.425.425 0 0 0 .266.399.439.439 0 0 0 .174.034c.06 0 .117-.011.17-.034zm-.135-.663c.074 0 .13.016.168.048a.161.161 0 0 1 .057.13.146.146 0 0 1-.04.106.213.213 0 0 1-.12.055l.167.19h-.18l-.15-.185h-.018v.185h-.151v-.53zm-.116.129v.097h.113a.114.114 0 0 0 .054-.01c.013-.008.02-.02.02-.038 0-.017-.007-.03-.02-.037a.103.103 0 0 0-.054-.012z"/><path id="apxwc" d="M87.29 609.32h19.289v23.496H87.29z"/><path id="apxwu" d="M94.674 609.32c-2.79 0-5.355.95-7.384 2.537 2.752 2.152 4.52 5.476 4.52 9.211 0 3.735-1.768 7.06-4.52 9.211a11.95 11.95 0 0 0 7.384 2.537c6.575 0 11.905-5.26 11.905-11.748 0-6.488-5.33-11.748-11.905-11.748"/><clipPath id="apxwd"><use xlink:href="#apxwa"/></clipPath><clipPath id="apxwr"><use xlink:href="#apxwb"/></clipPath><clipPath id="apxwt"><use xlink:href="#apxwc"/></clipPath></defs><g><g transform="translate(-68 -609)"><g><g/><g clip-path="url(#apxwd)"><use fill="#e30e17" xlink:href="#apxwe"/></g></g><g><use fill="#ea600a" xlink:href="#apxwf"/></g><g><use fill="#1d1d1b" xlink:href="#apxwg"/></g><g><use fill="#1d1d1b" xlink:href="#apxwh"/></g><g><use fill="#1d1d1b" xlink:href="#apxwi"/></g><g><use fill="#1d1d1b" xlink:href="#apxwj"/></g><g><use fill="#1d1d1b" xlink:href="#apxwk"/></g><g><use fill="#1d1d1b" xlink:href="#apxwl"/></g><g><use fill="#1d1d1b" xlink:href="#apxwm"/></g><g><use fill="#1d1d1b" xlink:href="#apxwn"/></g><g><use fill="#1d1d1b" xlink:href="#apxwo"/></g><g><use fill="#1d1d1b" xlink:href="#apxwp"/></g><g><use fill="#f59f00" xlink:href="#apxwq"/></g><g><g/><g clip-path="url(#apxwr)"><use fill="#1d1d1b" xlink:href="#apxws"/></g></g><g><g/><g clip-path="url(#apxwt)"><use fill="#f59f00" xlink:href="#apxwu"/></g></g></g></g></svg>