<svg xmlns="http://www.w3.org/2000/svg" xmlns:xlink="http://www.w3.org/1999/xlink" width="6" height="47" viewBox="0 0 6 47"><defs><path id="fr1qa" d="M314 118V71h6v47z"/><path id="fr1qc" d="M292.09 89.71c0-10.974 9.762-19.87 21.805-19.87S335.7 78.736 335.7 89.71s-9.762 19.87-21.805 19.87-21.805-8.896-21.805-19.87z"/><path id="fr1qd" d="M313.12 103.355c0-11.209 9.386-20.295 20.965-20.295s20.965 9.086 20.965 20.295c0 11.209-9.386 20.295-20.965 20.295s-20.965-9.086-20.965-20.295z"/><path id="fr1qe" d="M278.5 123.815c0-11.209 9.386-20.295 20.965-20.295s20.965 9.086 20.965 20.295c0 11.209-9.386 20.295-20.965 20.295s-20.965-9.086-20.965-20.295z"/><clipPath id="fr1qb"><use xlink:href="#fr1qa"/></clipPath></defs><g><g transform="translate(-314 -71)"><g><use fill="#00baf1" xlink:href="#fr1qa"/></g><g clip-path="url(#fr1qb)"><use fill="#50c4fc" xlink:href="#fr1qc"/></g><g clip-path="url(#fr1qb)"><use fill="#5497fc" xlink:href="#fr1qd"/></g><g clip-path="url(#fr1qb)"><use fill="#98dbfb" xlink:href="#fr1qe"/></g></g></g></svg>