<svg xmlns="http://www.w3.org/2000/svg" xmlns:xlink="http://www.w3.org/1999/xlink" width="30" height="30" viewBox="0 0 30 30"><defs><path id="om2ja" d="M588 2235v-30h30v30z"/><path id="om2jc" d="M583.97 2208.195c0-10.54 9.818-19.085 21.93-19.085s21.93 8.545 21.93 19.085c0 10.54-9.818 19.085-21.93 19.085s-21.93-8.545-21.93-19.085z"/><path id="om2jd" d="M606.83 2221.97c0-10.764 9.44-19.49 21.085-19.49 11.645 0 21.085 8.726 21.085 19.49 0 10.764-9.44 19.49-21.085 19.49-11.645 0-21.085-8.726-21.085-19.49z"/><path id="om2je" d="M570 2232.01c0-10.764 9.44-19.49 21.085-19.49 11.645 0 21.085 8.726 21.085 19.49 0 10.764-9.44 19.49-21.085 19.49-11.645 0-21.085-8.726-21.085-19.49z"/><clipPath id="om2jb"><use xlink:href="#om2ja"/></clipPath></defs><g><g transform="translate(-588 -2205)"><g><use fill="#00baf1" xlink:href="#om2ja"/></g><g clip-path="url(#om2jb)"><use fill="#50c4fc" xlink:href="#om2jc"/></g><g clip-path="url(#om2jb)"><use fill="#5497fc" xlink:href="#om2jd"/></g><g clip-path="url(#om2jb)"><use fill="#98dbfb" xlink:href="#om2je"/></g></g></g></svg>