<svg xmlns="http://www.w3.org/2000/svg" xmlns:xlink="http://www.w3.org/1999/xlink" width="19" height="19" viewBox="0 0 19 19"><defs><path id="rfkpa" d="M1126.04 42.913a4.852 4.852 0 0 1-4.872-4.873 4.852 4.852 0 0 1 4.872-4.872 4.852 4.852 0 0 1 4.873 4.872 4.852 4.852 0 0 1-4.873 4.873zm6.509.01h-.867l-.326-.325c1.084-1.193 1.735-2.818 1.735-4.553a7.031 7.031 0 0 0-7.046-7.045 7.031 7.031 0 0 0-7.045 7.045 7.031 7.031 0 0 0 7.045 7.046c1.735 0 3.36-.65 4.553-1.735l.325.325v.868l5.42 5.42 1.625-1.627z"/></defs><g><g transform="translate(-1119 -31)"><use fill="#00baf1" xlink:href="#rfkpa"/></g></g></svg>