<svg xmlns="http://www.w3.org/2000/svg" xmlns:xlink="http://www.w3.org/1999/xlink" width="6" height="59" viewBox="0 0 6 59"><defs><path id="fqysa" d="M347 224v-59h6v59z"/><path id="fqysc" d="M325.09 183.71c0-10.974 9.762-19.87 21.805-19.87s21.805 8.896 21.805 19.87-9.762 19.87-21.805 19.87-21.805-8.896-21.805-19.87z"/><path id="fqysd" d="M346.12 197.355c0-11.209 9.386-20.295 20.965-20.295s20.965 9.086 20.965 20.295c0 11.209-9.386 20.295-20.965 20.295s-20.965-9.086-20.965-20.295z"/><path id="fqyse" d="M311.5 217.815c0-11.209 9.386-20.295 20.965-20.295s20.965 9.086 20.965 20.295c0 11.209-9.386 20.295-20.965 20.295s-20.965-9.086-20.965-20.295z"/><clipPath id="fqysb"><use xlink:href="#fqysa"/></clipPath></defs><g><g transform="translate(-347 -165)"><g><use fill="#00baf1" xlink:href="#fqysa"/></g><g clip-path="url(#fqysb)"><use fill="#50c4fc" xlink:href="#fqysc"/></g><g clip-path="url(#fqysb)"><use fill="#5497fc" xlink:href="#fqysd"/></g><g clip-path="url(#fqysb)"><use fill="#98dbfb" xlink:href="#fqyse"/></g></g></g></svg>