<svg xmlns="http://www.w3.org/2000/svg" xmlns:xlink="http://www.w3.org/1999/xlink" width="50" height="50" viewBox="0 0 50 50"><defs><path id="clf9a" d="M1248 431v-50h50v50z"/><path id="clf9c" d="M1303.85 389.2c0-15.74-14.005-28.5-31.28-28.5s-31.28 12.76-31.28 28.5 14.005 28.5 31.28 28.5 31.28-12.76 31.28-28.5z"/><path id="clf9d" d="M1270.06 406.32c0-15.74 14.005-28.5 31.28-28.5s31.28 12.76 31.28 28.5-14.005 28.5-31.28 28.5-31.28-12.76-31.28-28.5z"/><path id="clf9e" d="M1287.62 421.32c0-15.74-14.005-28.5-31.28-28.5s-31.28 12.76-31.28 28.5 14.005 28.5 31.28 28.5 31.28-12.76 31.28-28.5z"/><path id="clf9f" d="M1280.836 416.04l-8.586-5.617-1.3-.851 16.807-12.438zm4.172-19.077l-18.936 9.761-7.881-4.183zm-16.24 18.566l1.52-5.051 2.365 1.548.677.442-2.299 1.542zm14.245-16.277l-13.373 9.896c-.022.017-.04.037-.058.056-.008.007-.015.012-.021.02a.564.564 0 0 0-.033.04c-.01.013-.018.027-.027.04a.576.576 0 0 0-.051.106l-.01.02c0 .003-.002.004-.003.006l-1.533 5.014-1.214-6.783zm6.455-3.58c.002-.014.006-.027.007-.04a.594.594 0 0 0-.005-.127l-.001-.031a.565.565 0 0 0-.056-.162c-.004-.01-.01-.018-.016-.026l-.001-.005-.003-.003-.011-.019a.552.552 0 0 0-.123-.129c-.011-.008-.023-.012-.034-.02a.533.533 0 0 0-.132-.065c-.02-.006-.041-.01-.062-.014a.535.535 0 0 0-.19-.006c-.014.002-.028 0-.043.004l-32.353 6.73a.562.562 0 0 0-.148 1.046l9.27 4.92 1.626 9.08v.021a.531.531 0 0 0 .01.199.543.543 0 0 0 .062.15c.006.01.006.02.012.029.001.003.004.005.006.007l.026.03a.57.57 0 0 0 .085.087l.014.015c.008.006.018.007.026.013.034.022.07.04.106.056.015.005.03.012.045.016.05.015.102.025.154.025h.002l.007-.001.028.001c.155 0 .294-.07.397-.177l6.175-4.143 6.466 4.23a.558.558 0 0 0 .826-.277l7.801-21.311a.516.516 0 0 0 .019-.06l.004-.024.004-.02z"/><clipPath id="clf9b"><use xlink:href="#clf9a"/></clipPath></defs><g><g transform="translate(-1248 -381)"><g><g><use fill="#cddae6" xlink:href="#clf9a"/></g><g clip-path="url(#clf9b)" transform="rotate(-360 1272.5 389)"><use fill="#50c4fc" xlink:href="#clf9c"/></g><g clip-path="url(#clf9b)" transform="rotate(-30 1305.5 409.5)"><use fill="#5497fc" xlink:href="#clf9d"/></g><g clip-path="url(#clf9b)" transform="rotate(-30 1252.5 424.5)"><use fill="#98dbfb" xlink:href="#clf9e"/></g></g><g><g><use fill="#fff" xlink:href="#clf9f"/><use fill="#fff" fill-opacity="0" stroke="#fff" stroke-miterlimit="50" stroke-width=".5" xlink:href="#clf9f"/></g></g></g></g></svg>