<svg xmlns="http://www.w3.org/2000/svg" xmlns:xlink="http://www.w3.org/1999/xlink" width="58" height="58" viewBox="0 0 58 58"><defs><path id="gjdfa" d="M1024.76 280.774v-13.532s.343-3.352 3.54-3.352h27.88s3.144 1.15 3.144 3.352v13.532z"/><path id="gjdfb" d="M1038.78 272.33a3.22 3.22 0 1 1 6.44 0 3.22 3.22 0 0 1-6.44 0z"/><path id="gjdfc" d="M1052.69 238.65v6.78s4.787.513 4.787-3.39-4.787-3.39-4.787-3.39z"/><path id="gjdfd" d="M1031.697 238.65v6.78s-4.787.513-4.787-3.39 4.787-3.39 4.787-3.39z"/><path id="gjdfe" d="M1038.13 242.37a2.904 2.904 0 0 0-2.9 2.9h1.933a.968.968 0 0 1 1.934 0h1.933c0-1.599-1.301-2.9-2.9-2.9z"/><path id="gjdff" d="M1045.87 242.37a2.904 2.904 0 0 0-2.9 2.9h1.933a.968.968 0 0 1 1.934 0h1.933c0-1.599-1.301-2.9-2.9-2.9z"/><path id="gjdfg" d="M1041.997 274.27a1.934 1.934 0 0 1 0-3.867 1.934 1.934 0 0 1 0 3.867zm0-5.8a3.87 3.87 0 0 0-3.867 3.867 3.87 3.87 0 0 0 3.867 3.866 3.87 3.87 0 0 0 3.866-3.866 3.87 3.87 0 0 0-3.866-3.867z"/><path id="gjdfh" d="M1063.267 280.077h-2.9v-12.572a4.84 4.84 0 0 0-4.834-4.835h-8.102l3.852-7.707c6.657.308 11.984 5.806 11.984 12.542zm-4.844-.01h-32.856V267.5c0-1.599 1.3-2.9 2.899-2.9h27.058c1.599 0 2.9 1.301 2.9 2.9zm-34.79-12.562v12.572h-2.9v-12.572c0-6.736 5.327-12.234 11.984-12.542l3.852 7.707h-8.102a4.84 4.84 0 0 0-4.834 4.835zm23.805-12.572h1.708l-3.874 7.744h-1.708zm-6.992 7.744h-1.708l-3.874-7.744h1.708zm-1.434-7.181c.955.255 1.954.403 2.988.403s2.033-.148 2.988-.403l-2.988 5.966zm-6.679-11.196v-3.92c3.02-.263 5.584-1.719 6.863-3.757 2.024 2.68 6.752 4.565 12.48 4.758v2.919a9.603 9.603 0 0 1-1.952 5.8h-7.719v1.933h5.778a9.628 9.628 0 0 1-9.765 1.063c-3.347-1.52-5.685-4.887-5.685-8.796zm19.333-4.858c-6.977-.245-11.6-3.098-11.6-5.775a.966.966 0 1 0-1.933 0c0 2.415-2.498 4.417-5.744 4.772.516-4.849 4.629-8.639 9.611-8.639 5.321 0 9.652 4.324 9.666 9.643zm-21.75-1.899c-.15 0-.29.03-.436.045.475-6.505 5.902-11.655 12.52-11.655 6.618 0 12.045 5.15 12.52 11.655-.146-.016-.287-.045-.437-.045h-.658c-.924-5.482-5.689-9.675-11.425-9.675-5.736 0-10.5 4.193-11.425 9.675zm.484 6.757h-.483a2.42 2.42 0 0 1-2.417-2.417 2.42 2.42 0 0 1 2.417-2.416h.483zm26.1-2.417a2.42 2.42 0 0 1-2.417 2.417h-.483v-4.833h.483a2.42 2.42 0 0 1 2.417 2.416zm-1.923 5.317c0 1.466-1.103 2.669-2.523 2.86a11.467 11.467 0 0 0 1.377-3.827h.66c.166 0 .325-.03.486-.049zm10.623 32.867V267.5c0-7.995-6.505-14.5-14.5-14.5h-1.053c.344-.303.668-.625.975-.967h1.045a4.839 4.839 0 0 0 4.833-4.833v-1.703a4.347 4.347 0 0 0 1.933-3.614c0-1.51-.774-2.84-1.945-3.62-.128-7.885-6.572-14.263-14.488-14.263-7.916 0-14.36 6.378-14.488 14.263a4.346 4.346 0 0 0-1.945 3.62 4.355 4.355 0 0 0 4.35 4.35h.658a11.58 11.58 0 0 0 3.779 6.767h-1.054c-7.995 0-14.5 6.505-14.5 14.5v12.567h-5.8V282h58v-1.933z"/><path id="gjdfi" d="M1054.57 278.14v-6.77h1.93v6.77z"/><path id="gjdfj" d="M1054.57 269.43v-1.93h1.93v1.93z"/><path id="gjdfk" d="M1063.27 234.63v-1.93h1.93v1.93z"/><path id="gjdfl" d="M1063.27 238.5v-1.93h1.93v1.93z"/><path id="gjdfm" d="M1063.27 242.36v-1.93h1.93v1.93z"/><path id="gjdfn" d="M1018.8 246.23v-1.93h1.93v1.93z"/><path id="gjdfo" d="M1018.8 250.1v-1.93h1.93v1.93z"/><path id="gjdfp" d="M1018.8 253.96v-1.93h1.93v1.93z"/></defs><g><g transform="translate(-1013 -224)"><g><use fill="#98dbfb" xlink:href="#gjdfa"/></g><g><use fill="#5497fc" xlink:href="#gjdfb"/></g><g><use fill="#98dbfb" xlink:href="#gjdfc"/></g><g><use fill="#98dbfb" xlink:href="#gjdfd"/></g><g><use xlink:href="#gjdfe"/></g><g><use xlink:href="#gjdff"/></g><g><use xlink:href="#gjdfg"/></g><g><use xlink:href="#gjdfh"/></g><g><use xlink:href="#gjdfi"/></g><g><use xlink:href="#gjdfj"/></g><g><use fill="#98dbfb" xlink:href="#gjdfk"/></g><g><use fill="#98dbfb" xlink:href="#gjdfl"/></g><g><use fill="#98dbfb" xlink:href="#gjdfm"/></g><g><use fill="#98dbfb" xlink:href="#gjdfn"/></g><g><use fill="#98dbfb" xlink:href="#gjdfo"/></g><g><use fill="#98dbfb" xlink:href="#gjdfp"/></g></g></g></svg>