<svg width="100" height="100" viewBox="0 0 100 100" fill="none" xmlns="http://www.w3.org/2000/svg">
<path d="M82.8125 50.782V58.5945H76.5625V71.0945H79.6875C83.0027 71.0945 86.1821 69.7775 88.5263 67.4333C90.8705 65.0891 92.1875 61.9097 92.1875 58.5945V50.782C92.1875 49.5388 91.6936 48.3465 90.8146 47.4674C89.9355 46.5883 88.7432 46.0945 87.5 46.0945C86.2568 46.0945 85.0645 46.5883 84.1854 47.4674C83.3064 48.3465 82.8125 49.5388 82.8125 50.782Z" fill="#F16A51"/>
<path d="M17.1875 50.782V58.5945H23.4375V71.0945H20.3125C16.9973 71.0945 13.8179 69.7775 11.4737 67.4333C9.12946 65.0891 7.8125 61.9097 7.8125 58.5945V50.782C7.8125 49.5388 8.30636 48.3465 9.18544 47.4674C10.0645 46.5883 11.2568 46.0945 12.5 46.0945C13.7432 46.0945 14.9355 46.5883 15.8146 47.4674C16.6936 48.3465 17.1875 49.5388 17.1875 50.782Z" fill="#F16A51"/>
<path d="M35.9375 23.4375H64.0625C67.3777 23.4375 70.5571 24.7545 72.9013 27.0987C75.2455 29.4429 76.5625 32.6223 76.5625 35.9375V79.6875H23.4375V35.9375C23.4375 32.6223 24.7545 29.4429 27.0987 27.0987C29.4429 24.7545 32.6223 23.4375 35.9375 23.4375Z" fill="#FFC107"/>
<path d="M81.25 38.0276C81.25 28.5354 67.2594 34.9026 50 34.9026C32.7406 34.9026 18.75 28.5354 18.75 38.0276C18.75 47.5198 32.7406 69.2776 50 69.2776C67.2594 69.2776 81.25 47.5198 81.25 38.0276Z" fill="#211F1D"/>
<path d="M64.0625 60.0835V53.9069C64.059 52.8538 64.4113 51.8303 65.0623 51.0025C65.7133 50.1746 66.6249 49.5909 67.6492 49.346C68.6735 49.1011 69.7504 49.2094 70.7055 49.6532C71.6606 50.0971 72.4377 50.8505 72.911 51.7913C70.3785 54.9692 67.3979 57.7624 64.0625 60.0835Z" fill="#F16A51"/>
<path d="M59.375 50.7822C60.6182 50.7822 61.8105 51.2761 62.6896 52.1552C63.5686 53.0342 64.0625 54.2265 64.0625 55.4697V60.0838C61.2313 62.0707 58.0507 63.5057 54.6875 64.3135V55.4697C54.6875 54.2265 55.1814 53.0342 56.0604 52.1552C56.9395 51.2761 58.1318 50.7822 59.375 50.7822Z" fill="#FFF35F"/>
<path d="M54.6875 57.032V64.3132C51.6026 65.0216 48.3974 65.0216 45.3125 64.3132V57.032C45.3125 55.7888 45.8064 54.5965 46.6854 53.7174C47.5645 52.8383 48.7568 52.3445 50 52.3445C51.2432 52.3445 52.4355 52.8383 53.3146 53.7174C54.1936 54.5965 54.6875 55.7888 54.6875 57.032Z" fill="#F16A51"/>
<path d="M35.9375 60.0838V55.4697C35.9375 54.2265 36.4314 53.0342 37.3104 52.1552C38.1895 51.2761 39.3818 50.7822 40.625 50.7822C41.8682 50.7822 43.0605 51.2761 43.9396 52.1552C44.8186 53.0342 45.3125 54.2265 45.3125 55.4697V64.3135C41.9493 63.5057 38.7687 62.0707 35.9375 60.0838Z" fill="#FFF35F"/>
<path d="M27.0894 51.7913C27.5626 50.8505 28.3398 50.0971 29.2948 49.6532C30.2499 49.2094 31.3269 49.1011 32.3511 49.346C33.3754 49.5909 34.287 50.1746 34.938 51.0025C35.589 51.8303 35.9413 52.8538 35.9378 53.9069V60.0835C32.6024 57.7624 29.6218 54.9692 27.0894 51.7913Z" fill="#F16A51"/>
<path d="M32.8125 29.6875C36.1277 29.6875 39.3071 28.3705 41.6513 26.0263C43.9955 23.6821 45.3125 20.5027 45.3125 17.1875H20.3125C20.3125 20.5027 21.6295 23.6821 23.9737 26.0263C26.3179 28.3705 29.4973 29.6875 32.8125 29.6875Z" fill="#FFF35F"/>
<path d="M28.4125 17.1875C28.2273 17.6879 28.1301 18.2165 28.125 18.75C28.125 19.9932 28.6189 21.1855 29.4979 22.0646C30.377 22.9436 31.5693 23.4375 32.8125 23.4375C34.0557 23.4375 35.248 22.9436 36.1271 22.0646C37.0061 21.1855 37.5 19.9932 37.5 18.75C37.4949 18.2165 37.3977 17.6879 37.2125 17.1875H28.4125Z" fill="#F16A51"/>
<path d="M32.8125 4.6875C36.1277 4.6875 39.3071 6.00446 41.6513 8.34867C43.9955 10.6929 45.3125 13.8723 45.3125 17.1875H20.3125C20.3125 13.8723 21.6295 10.6929 23.9737 8.34867C26.3179 6.00446 29.4973 4.6875 32.8125 4.6875Z" fill="#211F1D"/>
<path d="M67.1875 29.6875C70.5027 29.6875 73.6821 28.3705 76.0263 26.0263C78.3705 23.6821 79.6875 20.5027 79.6875 17.1875H54.6875C54.6875 20.5027 56.0045 23.6821 58.3487 26.0263C60.6929 28.3705 63.8723 29.6875 67.1875 29.6875Z" fill="#FFF35F"/>
<path d="M62.7875 17.1875C62.6023 17.6879 62.5051 18.2165 62.5 18.75C62.5 19.9932 62.9939 21.1855 63.8729 22.0646C64.752 22.9436 65.9443 23.4375 67.1875 23.4375C68.4307 23.4375 69.623 22.9436 70.5021 22.0646C71.3811 21.1855 71.875 19.9932 71.875 18.75C71.8699 18.2165 71.7727 17.6879 71.5875 17.1875H62.7875Z" fill="#F16A51"/>
<path d="M67.1875 4.6875C70.5027 4.6875 73.6821 6.00446 76.0263 8.34867C78.3705 10.6929 79.6875 13.8723 79.6875 17.1875H54.6875C54.6875 13.8723 56.0045 10.6929 58.3487 8.34867C60.6929 6.00446 63.8723 4.6875 67.1875 4.6875Z" fill="#211F1D"/>
<path d="M23.4375 79.6875H42.1875V92.1875C42.1875 93.0163 41.8583 93.8112 41.2722 94.3972C40.6862 94.9833 39.8913 95.3125 39.0625 95.3125H26.5625C25.7337 95.3125 24.9388 94.9833 24.3528 94.3972C23.7667 93.8112 23.4375 93.0163 23.4375 92.1875V79.6875Z" fill="#F16A51"/>
<path d="M31.25 90.625H28.125V95.3125H31.25V90.625Z" fill="#FFC107"/>
<path d="M37.5 90.625H34.375V95.3125H37.5V90.625Z" fill="#FFC107"/>
<path d="M57.8125 79.6875H76.5625V92.1875C76.5625 93.0163 76.2333 93.8112 75.6472 94.3972C75.0612 94.9833 74.2663 95.3125 73.4375 95.3125H60.9375C60.1087 95.3125 59.3138 94.9833 58.7278 94.3972C58.1417 93.8112 57.8125 93.0163 57.8125 92.1875V79.6875Z" fill="#F16A51"/>
<path d="M65.625 90.625H62.5V95.3125H65.625V90.625Z" fill="#FFC107"/>
<path d="M71.875 90.625H68.75V95.3125H71.875V90.625Z" fill="#FFC107"/>
<path d="M54.6875 71.875H46.875V75H54.6875V71.875Z" fill="#F16A51"/>
<path d="M43.75 71.875H40.625V75H43.75V71.875Z" fill="#F16A51"/>
<path d="M60.9375 71.875H57.8125V75H60.9375V71.875Z" fill="#F16A51"/>
</svg>
