<svg width="100" height="100" viewBox="0 0 100 100" fill="none" xmlns="http://www.w3.org/2000/svg">
<path d="M31.25 26.5625C31.25 26.5625 31.25 40.625 45.3125 40.625V34.375C45.3125 34.375 37.5 34.375 37.5 26.5625H31.25Z" fill="#8065C4"/>
<path d="M18.75 57.8125C18.75 53.125 23.4375 48.4375 34.375 48.4375V54.6875C34.375 54.6875 25 54.6875 25 59.375C24.9418 60.1936 24.5868 60.9628 24.0016 61.5382C23.4165 62.1136 22.6414 62.4556 21.8219 62.5C18.75 62.5 18.75 59.8438 18.75 57.8125Z" fill="#8065C4"/>
<path d="M81.25 57.8125C81.25 53.125 76.5625 48.4375 65.625 48.4375V54.6875C65.625 54.6875 75 54.6875 75 59.375C75.0582 60.1936 75.4132 60.9628 75.9984 61.5382C76.5835 62.1136 77.3586 62.4556 78.1781 62.5C81.25 62.5 81.25 59.8438 81.25 57.8125Z" fill="#8065C4"/>
<path d="M68.75 26.5625C68.75 26.5625 68.75 40.625 54.6875 40.625V34.375C54.6875 34.375 62.5 34.375 62.5 26.5625H68.75Z" fill="#8065C4"/>
<path d="M45.3125 67.1875H39.0625V89.0625H45.3125V67.1875Z" fill="#8065C4"/>
<path d="M54.6875 89.0625H60.9375V67.1875H54.6875V89.0625Z" fill="#8065C4"/>
<path d="M50 73.4375C61.2183 73.4375 70.3125 64.3433 70.3125 53.125C70.3125 41.9067 61.2183 32.8125 50 32.8125C38.7817 32.8125 29.6875 41.9067 29.6875 53.125C29.6875 64.3433 38.7817 73.4375 50 73.4375Z" fill="#C361F0"/>
<path d="M34.375 29.6875C37.6902 29.6875 40.8696 28.3705 43.2138 26.0263C45.558 23.6821 46.875 20.5027 46.875 17.1875H21.875C21.875 20.5027 23.192 23.6821 25.5362 26.0263C27.8804 28.3705 31.0598 29.6875 34.375 29.6875Z" fill="#FFF35F"/>
<path d="M29.975 17.1875C29.7898 17.6879 29.6926 18.2165 29.6875 18.75C29.6875 19.9932 30.1814 21.1855 31.0604 22.0646C31.9395 22.9436 33.1318 23.4375 34.375 23.4375C35.6182 23.4375 36.8105 22.9436 37.6896 22.0646C38.5686 21.1855 39.0625 19.9932 39.0625 18.75C39.0574 18.2165 38.9602 17.6879 38.775 17.1875H29.975Z" fill="#F16A51"/>
<path d="M34.375 4.6875C37.6902 4.6875 40.8696 6.00446 43.2138 8.34867C45.558 10.6929 46.875 13.8723 46.875 17.1875H21.875C21.875 13.8723 23.192 10.6929 25.5362 8.34867C27.8804 6.00446 31.0598 4.6875 34.375 4.6875Z" fill="#211F1D"/>
<path d="M65.625 29.6875C68.9402 29.6875 72.1196 28.3705 74.4638 26.0263C76.808 23.6821 78.125 20.5027 78.125 17.1875H53.125C53.125 20.5027 54.442 23.6821 56.7862 26.0263C59.1304 28.3705 62.3098 29.6875 65.625 29.6875Z" fill="#FFF35F"/>
<path d="M61.225 17.1875C61.0398 17.6879 60.9426 18.2165 60.9375 18.75C60.9375 19.9932 61.4314 21.1855 62.3104 22.0646C63.1895 22.9436 64.3818 23.4375 65.625 23.4375C66.8682 23.4375 68.0605 22.9436 68.9396 22.0646C69.8186 21.1855 70.3125 19.9932 70.3125 18.75C70.3074 18.2165 70.2102 17.6879 70.025 17.1875H61.225Z" fill="#F16A51"/>
<path d="M65.625 4.6875C68.9402 4.6875 72.1196 6.00446 74.4638 8.34867C76.808 10.6929 78.125 13.8723 78.125 17.1875H53.125C53.125 13.8723 54.442 10.6929 56.7862 8.34867C59.1304 6.00446 62.3098 4.6875 65.625 4.6875Z" fill="#211F1D"/>
<path d="M57.8686 61.4532L60.0732 63.6689C58.3991 65.2544 56.2763 66.2844 53.9948 66.618C51.7133 66.9516 49.3844 66.5727 47.3264 65.5329L48.7232 62.736C50.1952 63.4858 51.8621 63.7649 53.498 63.5354C55.1339 63.3059 56.6597 62.579 57.8686 61.4532Z" fill="#211F1D"/>
<path d="M32.8125 89.0625H45.3125V95.3125H29.6875V92.1875C29.6875 91.3587 30.0167 90.5638 30.6028 89.9778C31.1888 89.3917 31.9837 89.0625 32.8125 89.0625Z" fill="#C361F0"/>
<path d="M70.3125 95.3125H54.6875V89.0625H67.1875C68.0163 89.0625 68.8112 89.3917 69.3972 89.9778C69.9833 90.5638 70.3125 91.3587 70.3125 92.1875V95.3125Z" fill="#C361F0"/>
</svg>
