<svg width="100" height="101" viewBox="0 0 100 101" fill="none" xmlns="http://www.w3.org/2000/svg">
<path d="M45.3125 80H29.6875V95.625H45.3125V80Z" fill="#FF927D"/>
<path d="M70.3125 80H54.6875V95.625H70.3125V80Z" fill="#FF927D"/>
<path d="M39.0625 90.9375H35.9375V95.625H39.0625V90.9375Z" fill="#F16A51"/>
<path d="M64.0625 90.9375H60.9375V95.625H64.0625V90.9375Z" fill="#F16A51"/>
<path d="M29.6875 50.3125C7.81248 50.3125 -1.7643e-05 30.8781 7.81248 34.6875C12.8765 37.1562 29.6875 34.6875 29.6875 34.6875V50.3125Z" fill="#FFC107"/>
<path d="M29.6875 71.1203C7.81248 71.1203 -1.7643e-05 51.686 7.81248 55.4953C12.8765 57.9641 29.6875 55.4953 29.6875 55.4953V71.1203Z" fill="#FFC107"/>
<path d="M70.3125 50.3126C92.1875 50.3126 100 30.8798 92.1875 34.6876C87.1234 37.1564 70.3125 34.6876 70.3125 34.6876V50.3126Z" fill="#FFC107"/>
<path d="M70.3125 71.1203C92.1875 71.1203 100 51.686 92.1875 55.4953C87.1234 57.9641 70.3125 55.4953 70.3125 55.4953V71.1203Z" fill="#FFC107"/>
<path d="M75 45.625V42.5C75.0547 42.5 80.65 42.4546 83.2719 39.8328L85.4812 42.0421C81.9375 45.5843 75.2828 45.625 75 45.625Z" fill="#F16A51"/>
<path d="M25.0002 45.625C24.7174 45.625 18.0627 45.5843 14.5205 42.0421L16.7299 39.8328C18.9174 42.0203 23.4377 42.5 25.0002 42.5V45.625Z" fill="#F16A51"/>
<path d="M53.125 5H46.875V14.375H53.125V5Z" fill="#211F1D"/>
<path d="M34.3759 6.5621L29.688 11.25L39.0627 20.6247L43.7506 15.9368L34.3759 6.5621Z" fill="#211F1D"/>
<path d="M65.6252 6.56281L56.2505 15.9375L60.9384 20.6254L70.3131 11.2507L65.6252 6.56281Z" fill="#211F1D"/>
<path d="M54.6875 12.8125H45.3125C40.7557 12.8179 36.3872 14.6304 33.165 17.8525C29.9429 21.0747 28.1304 25.4432 28.125 30V81.5625H71.875V30C71.8696 25.4432 70.0571 21.0747 66.835 17.8525C63.6128 14.6304 59.2443 12.8179 54.6875 12.8125Z" fill="#F16A51"/>
<path d="M50 45.625C55.1777 45.625 59.375 41.4277 59.375 36.25C59.375 31.0723 55.1777 26.875 50 26.875C44.8223 26.875 40.625 31.0723 40.625 36.25C40.625 41.4277 44.8223 45.625 50 45.625Z" fill="#FFF35F"/>
<path d="M50 39.375C51.7259 39.375 53.125 37.9759 53.125 36.25C53.125 34.5241 51.7259 33.125 50 33.125C48.2741 33.125 46.875 34.5241 46.875 36.25C46.875 37.9759 48.2741 39.375 50 39.375Z" fill="#F16A51"/>
<path d="M50.5424 54.7375C42.5408 54.7375 36.4799 48.8204 36.3955 48.7297L38.6033 46.5188C39.0721 46.9875 50.1658 57.7454 61.3955 46.5188L63.6049 48.7282C59.0986 53.236 54.5736 54.7375 50.5424 54.7375Z" fill="white"/>
</svg>
