<svg width="100" height="101" viewBox="0 0 100 101" fill="none" xmlns="http://www.w3.org/2000/svg">
<path d="M39.0625 89.375H35.9375C34.2799 89.375 32.6902 90.0335 31.5181 91.2056C30.346 92.3777 29.6875 93.9674 29.6875 95.625H45.3125V80H39.0625V89.375Z" fill="#8065C4"/>
<path d="M64.0625 89.375H60.9375V80H54.6875V95.625H70.3125C70.3125 93.9674 69.654 92.3777 68.4819 91.2056C67.3098 90.0335 65.7201 89.375 64.0625 89.375Z" fill="#8065C4"/>
<path d="M26.5625 51.875V61.25H15.625C14.3818 61.25 13.1895 60.7561 12.3104 59.8771C11.4314 58.998 10.9375 57.8057 10.9375 56.5625C10.9375 55.3193 11.4314 54.127 12.3104 53.2479C13.1895 52.3689 14.3818 51.875 15.625 51.875H26.5625Z" fill="#8065C4"/>
<path d="M89.0625 56.5625C89.0625 57.8057 88.5686 58.998 87.6896 59.8771C86.8105 60.7561 85.6182 61.25 84.375 61.25H73.4375V51.875H84.375C85.6182 51.875 86.8105 52.3689 87.6896 53.2479C88.5686 54.127 89.0625 55.3193 89.0625 56.5625Z" fill="#8065C4"/>
<path d="M78.125 61.25C78.125 75.0578 65.5328 84.6875 50 84.6875C34.4672 84.6875 21.875 75.0578 21.875 61.25C21.875 47.4422 34.4672 28.4375 50 28.4375C65.5328 28.4375 78.125 47.4422 78.125 61.25Z" fill="#C361F0"/>
<path d="M58.8563 64.6795L61.061 66.8952C59.3869 68.4807 57.2641 69.5107 54.9826 69.8443C52.7011 70.178 50.3722 69.799 48.3142 68.7592L49.711 65.9624C51.183 66.7121 52.8499 66.9912 54.4858 66.7617C56.1217 66.5323 57.6475 65.8054 58.8563 64.6795Z" fill="#211F1D"/>
<path d="M50 30C56.9036 30 62.5 24.4036 62.5 17.5C62.5 10.5964 56.9036 5 50 5C43.0964 5 37.5 10.5964 37.5 17.5C37.5 24.4036 43.0964 30 50 30Z" fill="#211F1D"/>
<path d="M50 23.75C52.5888 23.75 54.6875 21.6513 54.6875 19.0625C54.6875 16.4737 52.5888 14.375 50 14.375C47.4112 14.375 45.3125 16.4737 45.3125 19.0625C45.3125 21.6513 47.4112 23.75 50 23.75Z" fill="#FFF35F"/>
<path d="M25 45.625C31.9036 45.625 37.5 40.0286 37.5 33.125C37.5 26.2214 31.9036 20.625 25 20.625C18.0964 20.625 12.5 26.2214 12.5 33.125C12.5 40.0286 18.0964 45.625 25 45.625Z" fill="#211F1D"/>
<path d="M23.4375 37.8125C26.0263 37.8125 28.125 35.7138 28.125 33.125C28.125 30.5362 26.0263 28.4375 23.4375 28.4375C20.8487 28.4375 18.75 30.5362 18.75 33.125C18.75 35.7138 20.8487 37.8125 23.4375 37.8125Z" fill="#FFF35F"/>
<path d="M75 45.625C81.9036 45.625 87.5 40.0286 87.5 33.125C87.5 26.2214 81.9036 20.625 75 20.625C68.0964 20.625 62.5 26.2214 62.5 33.125C62.5 40.0286 68.0964 45.625 75 45.625Z" fill="#211F1D"/>
<path d="M76.5625 36.25C79.1513 36.25 81.25 34.1513 81.25 31.5625C81.25 28.9737 79.1513 26.875 76.5625 26.875C73.9737 26.875 71.875 28.9737 71.875 31.5625C71.875 34.1513 73.9737 36.25 76.5625 36.25Z" fill="#FFF35F"/>
</svg>
