<svg width="100" height="100" viewBox="0 0 100 100" fill="none" xmlns="http://www.w3.org/2000/svg">
<path d="M81.25 35.9375C81.25 27.6495 77.9576 19.7009 72.0971 13.8404C66.2366 7.9799 58.288 4.6875 50 4.6875C41.712 4.6875 33.7634 7.9799 27.9029 13.8404C22.0424 19.7009 18.75 27.6495 18.75 35.9375V82.8125C18.75 84.4701 19.4085 86.0598 20.5806 87.2319C21.7527 88.404 23.3424 89.0625 25 89.0625C26.6576 89.0625 28.2473 88.404 29.4194 87.2319C30.5915 86.0598 31.25 84.4701 31.25 82.8125V75C31.25 76.6576 31.9085 78.2473 33.0806 79.4194C34.2527 80.5915 35.8424 81.25 37.5 81.25C39.1576 81.25 40.7473 80.5915 41.9194 79.4194C43.0915 78.2473 43.75 76.6576 43.75 75V89.0625C43.75 90.7201 44.4085 92.3098 45.5806 93.4819C46.7527 94.654 48.3424 95.3125 50 95.3125C51.6576 95.3125 53.2473 94.654 54.4194 93.4819C55.5915 92.3098 56.25 90.7201 56.25 89.0625V68.75C56.25 70.4076 56.9085 71.9973 58.0806 73.1694C59.2527 74.3415 60.8424 75 62.5 75C64.1576 75 65.7473 74.3415 66.9194 73.1694C68.0915 71.9973 68.75 70.4076 68.75 68.75V85.9375C68.75 87.5951 69.4085 89.1848 70.5806 90.3569C71.7527 91.529 73.3424 92.1875 75 92.1875C76.6576 92.1875 78.2473 91.529 79.4194 90.3569C80.5915 89.1848 81.25 87.5951 81.25 85.9375V35.9375Z" fill="#FF927D"/>
<path d="M32.8125 68.75H29.6875V71.875H32.8125V68.75Z" fill="#F16A51"/>
<path d="M70.3125 62.5H67.1875V65.625H70.3125V62.5Z" fill="#F16A51"/>
<path d="M50 57.8125C54.9728 57.8125 59.7419 55.8371 63.2583 52.3208C66.7746 48.8044 68.75 44.0353 68.75 39.0625H31.25C31.25 44.0353 33.2254 48.8044 36.7417 52.3208C40.2581 55.8371 45.0272 57.8125 50 57.8125Z" fill="white"/>
<path d="M50 51.5625C53.3152 51.5625 56.4946 50.2455 58.8388 47.9013C61.183 45.5571 62.5 42.3777 62.5 39.0625H37.5C37.5 42.3777 38.817 45.5571 41.1612 47.9013C43.5054 50.2455 46.6848 51.5625 50 51.5625Z" fill="#FFF35F"/>
<path d="M50 45.3125C51.6576 45.3125 53.2473 44.654 54.4194 43.4819C55.5915 42.3098 56.25 40.7201 56.25 39.0625H43.75C43.75 40.7201 44.4085 42.3098 45.5806 43.4819C46.7527 44.654 48.3424 45.3125 50 45.3125Z" fill="#F16A51"/>
<path d="M50 20.3125C54.9728 20.3125 59.7419 22.2879 63.2583 25.8042C66.7746 29.3206 68.75 34.0897 68.75 39.0625H31.25C31.25 34.0897 33.2254 29.3206 36.7417 25.8042C40.2581 22.2879 45.0272 20.3125 50 20.3125Z" fill="#211F1D"/>
<path d="M60.5424 60.3424L62.7471 62.558C61.073 64.1436 58.9501 65.1735 56.6686 65.5072C54.3871 65.8408 52.0582 65.4619 50.0002 64.4221L51.3971 61.6252C52.869 62.375 54.5359 62.654 56.1718 62.4246C57.8077 62.1951 59.3335 61.4682 60.5424 60.3424Z" fill="#211F1D"/>
<path d="M40.625 34.375H37.5C37.5 26.9594 45.6766 25 50 25V28.125C49.6203 28.125 40.625 28.225 40.625 34.375Z" fill="#C4C4C4"/>
<path d="M68.9562 22.6562C63.2437 12.6562 50.1297 12.5 50 12.5V9.375C50.6125 9.375 65.0453 9.50781 71.6687 21.0938L68.9562 22.6562Z" fill="#F16A51"/>
<path d="M10.9375 20.3125C13.5263 20.3125 15.625 18.2138 15.625 15.625C15.625 13.0362 13.5263 10.9375 10.9375 10.9375C8.34867 10.9375 6.25 13.0362 6.25 15.625C6.25 18.2138 8.34867 20.3125 10.9375 20.3125Z" fill="#FF927D"/>
<path d="M89.0625 17.1875C92.5143 17.1875 95.3125 14.3893 95.3125 10.9375C95.3125 7.48572 92.5143 4.6875 89.0625 4.6875C85.6107 4.6875 82.8125 7.48572 82.8125 10.9375C82.8125 14.3893 85.6107 17.1875 89.0625 17.1875Z" fill="#FF927D"/>
<path d="M92.1875 62.5C94.7763 62.5 96.875 60.4013 96.875 57.8125C96.875 55.2237 94.7763 53.125 92.1875 53.125C89.5987 53.125 87.5 55.2237 87.5 57.8125C87.5 60.4013 89.5987 62.5 92.1875 62.5Z" fill="#FF927D"/>
<path d="M7.8125 45.3125C9.53839 45.3125 10.9375 43.9134 10.9375 42.1875C10.9375 40.4616 9.53839 39.0625 7.8125 39.0625C6.08661 39.0625 4.6875 40.4616 4.6875 42.1875C4.6875 43.9134 6.08661 45.3125 7.8125 45.3125Z" fill="#FF927D"/>
</svg>
